%TF.GenerationSoftware,KiCad,Pcbnew,8.0.5*%
%TF.CreationDate,2025-04-26T14:00:33+02:00*%
%TF.ProjectId,vlvts,766c7674-732e-46b6-9963-61645f706362,rev?*%
%TF.SameCoordinates,Original*%
%TF.FileFunction,Legend,Bot*%
%TF.FilePolarity,Positive*%
%FSLAX46Y46*%
G04 Gerber Fmt 4.6, Leading zero omitted, Abs format (unit mm)*
G04 Created by KiCad (PCBNEW 8.0.5) date 2025-04-26 14:00:33*
%MOMM*%
%LPD*%
G01*
G04 APERTURE LIST*
%ADD10C,0.150000*%
%ADD11C,0.120000*%
G04 APERTURE END LIST*
D10*
X76639178Y-85847932D02*
X76639178Y-85915276D01*
X76639178Y-85915276D02*
X76706522Y-86049963D01*
X76706522Y-86049963D02*
X76773865Y-86117306D01*
X76773865Y-86117306D02*
X76908552Y-86184650D01*
X76908552Y-86184650D02*
X77043239Y-86184650D01*
X77043239Y-86184650D02*
X77144254Y-86150978D01*
X77144254Y-86150978D02*
X77312613Y-86049963D01*
X77312613Y-86049963D02*
X77413628Y-85948948D01*
X77413628Y-85948948D02*
X77514644Y-85780589D01*
X77514644Y-85780589D02*
X77548315Y-85679574D01*
X77548315Y-85679574D02*
X77548315Y-85544887D01*
X77548315Y-85544887D02*
X77480972Y-85410200D01*
X77480972Y-85410200D02*
X77413628Y-85342856D01*
X77413628Y-85342856D02*
X77278941Y-85275513D01*
X77278941Y-85275513D02*
X77211598Y-85275513D01*
X76942224Y-85006139D02*
X76942224Y-84938795D01*
X76942224Y-84938795D02*
X76908552Y-84837780D01*
X76908552Y-84837780D02*
X76740193Y-84669421D01*
X76740193Y-84669421D02*
X76639178Y-84635749D01*
X76639178Y-84635749D02*
X76571835Y-84635749D01*
X76571835Y-84635749D02*
X76470819Y-84669421D01*
X76470819Y-84669421D02*
X76403476Y-84736765D01*
X76403476Y-84736765D02*
X76336132Y-84871452D01*
X76336132Y-84871452D02*
X76336132Y-85679574D01*
X76336132Y-85679574D02*
X75898400Y-85241841D01*
X61273635Y-95955361D02*
X60869574Y-96359422D01*
X61778712Y-96864499D02*
X61071605Y-96157392D01*
X61340979Y-97302232D02*
X60633872Y-96595125D01*
X60970589Y-96931842D02*
X60566528Y-97335903D01*
X60936918Y-97706293D02*
X60229811Y-96999186D01*
X60229811Y-98413399D02*
X60633872Y-98009338D01*
X60431841Y-98211369D02*
X59724735Y-97504262D01*
X59724735Y-97504262D02*
X59893093Y-97537934D01*
X59893093Y-97537934D02*
X60027780Y-97537934D01*
X60027780Y-97537934D02*
X60128796Y-97504262D01*
X84934819Y-89676666D02*
X85649104Y-89676666D01*
X85649104Y-89676666D02*
X85791961Y-89629047D01*
X85791961Y-89629047D02*
X85887200Y-89533809D01*
X85887200Y-89533809D02*
X85934819Y-89390952D01*
X85934819Y-89390952D02*
X85934819Y-89295714D01*
X84934819Y-90057619D02*
X84934819Y-90676666D01*
X84934819Y-90676666D02*
X85315771Y-90343333D01*
X85315771Y-90343333D02*
X85315771Y-90486190D01*
X85315771Y-90486190D02*
X85363390Y-90581428D01*
X85363390Y-90581428D02*
X85411009Y-90629047D01*
X85411009Y-90629047D02*
X85506247Y-90676666D01*
X85506247Y-90676666D02*
X85744342Y-90676666D01*
X85744342Y-90676666D02*
X85839580Y-90629047D01*
X85839580Y-90629047D02*
X85887200Y-90581428D01*
X85887200Y-90581428D02*
X85934819Y-90486190D01*
X85934819Y-90486190D02*
X85934819Y-90200476D01*
X85934819Y-90200476D02*
X85887200Y-90105238D01*
X85887200Y-90105238D02*
X85839580Y-90057619D01*
X86487844Y-96006026D02*
X86535463Y-96053646D01*
X86535463Y-96053646D02*
X86678320Y-96101265D01*
X86678320Y-96101265D02*
X86773558Y-96101265D01*
X86773558Y-96101265D02*
X86916415Y-96053646D01*
X86916415Y-96053646D02*
X87011653Y-95958407D01*
X87011653Y-95958407D02*
X87059272Y-95863169D01*
X87059272Y-95863169D02*
X87106891Y-95672693D01*
X87106891Y-95672693D02*
X87106891Y-95529836D01*
X87106891Y-95529836D02*
X87059272Y-95339360D01*
X87059272Y-95339360D02*
X87011653Y-95244122D01*
X87011653Y-95244122D02*
X86916415Y-95148884D01*
X86916415Y-95148884D02*
X86773558Y-95101265D01*
X86773558Y-95101265D02*
X86678320Y-95101265D01*
X86678320Y-95101265D02*
X86535463Y-95148884D01*
X86535463Y-95148884D02*
X86487844Y-95196503D01*
X85916415Y-95529836D02*
X86011653Y-95482217D01*
X86011653Y-95482217D02*
X86059272Y-95434598D01*
X86059272Y-95434598D02*
X86106891Y-95339360D01*
X86106891Y-95339360D02*
X86106891Y-95291741D01*
X86106891Y-95291741D02*
X86059272Y-95196503D01*
X86059272Y-95196503D02*
X86011653Y-95148884D01*
X86011653Y-95148884D02*
X85916415Y-95101265D01*
X85916415Y-95101265D02*
X85725939Y-95101265D01*
X85725939Y-95101265D02*
X85630701Y-95148884D01*
X85630701Y-95148884D02*
X85583082Y-95196503D01*
X85583082Y-95196503D02*
X85535463Y-95291741D01*
X85535463Y-95291741D02*
X85535463Y-95339360D01*
X85535463Y-95339360D02*
X85583082Y-95434598D01*
X85583082Y-95434598D02*
X85630701Y-95482217D01*
X85630701Y-95482217D02*
X85725939Y-95529836D01*
X85725939Y-95529836D02*
X85916415Y-95529836D01*
X85916415Y-95529836D02*
X86011653Y-95577455D01*
X86011653Y-95577455D02*
X86059272Y-95625074D01*
X86059272Y-95625074D02*
X86106891Y-95720312D01*
X86106891Y-95720312D02*
X86106891Y-95910788D01*
X86106891Y-95910788D02*
X86059272Y-96006026D01*
X86059272Y-96006026D02*
X86011653Y-96053646D01*
X86011653Y-96053646D02*
X85916415Y-96101265D01*
X85916415Y-96101265D02*
X85725939Y-96101265D01*
X85725939Y-96101265D02*
X85630701Y-96053646D01*
X85630701Y-96053646D02*
X85583082Y-96006026D01*
X85583082Y-96006026D02*
X85535463Y-95910788D01*
X85535463Y-95910788D02*
X85535463Y-95720312D01*
X85535463Y-95720312D02*
X85583082Y-95625074D01*
X85583082Y-95625074D02*
X85630701Y-95577455D01*
X85630701Y-95577455D02*
X85725939Y-95529836D01*
X80998069Y-87680689D02*
X81334787Y-87343972D01*
X81334787Y-87343972D02*
X80627680Y-86636865D01*
X80122603Y-87141941D02*
X79684871Y-87579674D01*
X79684871Y-87579674D02*
X80189947Y-87613346D01*
X80189947Y-87613346D02*
X80088932Y-87714361D01*
X80088932Y-87714361D02*
X80055260Y-87815376D01*
X80055260Y-87815376D02*
X80055260Y-87882720D01*
X80055260Y-87882720D02*
X80088932Y-87983735D01*
X80088932Y-87983735D02*
X80257290Y-88152094D01*
X80257290Y-88152094D02*
X80358306Y-88185766D01*
X80358306Y-88185766D02*
X80425649Y-88185766D01*
X80425649Y-88185766D02*
X80526664Y-88152094D01*
X80526664Y-88152094D02*
X80728695Y-87950063D01*
X80728695Y-87950063D02*
X80762367Y-87849048D01*
X80762367Y-87849048D02*
X80762367Y-87781705D01*
X90193290Y-83782857D02*
X90260634Y-83782857D01*
X90260634Y-83782857D02*
X90395321Y-83715513D01*
X90395321Y-83715513D02*
X90462664Y-83648170D01*
X90462664Y-83648170D02*
X90530008Y-83513483D01*
X90530008Y-83513483D02*
X90530008Y-83378796D01*
X90530008Y-83378796D02*
X90496336Y-83277781D01*
X90496336Y-83277781D02*
X90395321Y-83109422D01*
X90395321Y-83109422D02*
X90294306Y-83008407D01*
X90294306Y-83008407D02*
X90125947Y-82907391D01*
X90125947Y-82907391D02*
X90024932Y-82873720D01*
X90024932Y-82873720D02*
X89890245Y-82873720D01*
X89890245Y-82873720D02*
X89755558Y-82941063D01*
X89755558Y-82941063D02*
X89688214Y-83008407D01*
X89688214Y-83008407D02*
X89620871Y-83143094D01*
X89620871Y-83143094D02*
X89620871Y-83210437D01*
X88947436Y-83749185D02*
X89082123Y-83614498D01*
X89082123Y-83614498D02*
X89183138Y-83580826D01*
X89183138Y-83580826D02*
X89250481Y-83580826D01*
X89250481Y-83580826D02*
X89418840Y-83614498D01*
X89418840Y-83614498D02*
X89587199Y-83715513D01*
X89587199Y-83715513D02*
X89856573Y-83984887D01*
X89856573Y-83984887D02*
X89890245Y-84085903D01*
X89890245Y-84085903D02*
X89890245Y-84153246D01*
X89890245Y-84153246D02*
X89856573Y-84254261D01*
X89856573Y-84254261D02*
X89721886Y-84388948D01*
X89721886Y-84388948D02*
X89620871Y-84422620D01*
X89620871Y-84422620D02*
X89553527Y-84422620D01*
X89553527Y-84422620D02*
X89452512Y-84388948D01*
X89452512Y-84388948D02*
X89284153Y-84220590D01*
X89284153Y-84220590D02*
X89250481Y-84119574D01*
X89250481Y-84119574D02*
X89250481Y-84052231D01*
X89250481Y-84052231D02*
X89284153Y-83951216D01*
X89284153Y-83951216D02*
X89418840Y-83816529D01*
X89418840Y-83816529D02*
X89519855Y-83782857D01*
X89519855Y-83782857D02*
X89587199Y-83782857D01*
X89587199Y-83782857D02*
X89688214Y-83816529D01*
X62296245Y-98439456D02*
X62868664Y-98338441D01*
X62700306Y-98843517D02*
X63407412Y-98136410D01*
X63407412Y-98136410D02*
X63138038Y-97867036D01*
X63138038Y-97867036D02*
X63037023Y-97833364D01*
X63037023Y-97833364D02*
X62969680Y-97833364D01*
X62969680Y-97833364D02*
X62868664Y-97867036D01*
X62868664Y-97867036D02*
X62767649Y-97968051D01*
X62767649Y-97968051D02*
X62733977Y-98069067D01*
X62733977Y-98069067D02*
X62733977Y-98136410D01*
X62733977Y-98136410D02*
X62767649Y-98237425D01*
X62767649Y-98237425D02*
X63037023Y-98506799D01*
X62666634Y-97530319D02*
X62666634Y-97462975D01*
X62666634Y-97462975D02*
X62632962Y-97361960D01*
X62632962Y-97361960D02*
X62464603Y-97193601D01*
X62464603Y-97193601D02*
X62363588Y-97159929D01*
X62363588Y-97159929D02*
X62296245Y-97159929D01*
X62296245Y-97159929D02*
X62195229Y-97193601D01*
X62195229Y-97193601D02*
X62127886Y-97260945D01*
X62127886Y-97260945D02*
X62060542Y-97395632D01*
X62060542Y-97395632D02*
X62060542Y-98203754D01*
X62060542Y-98203754D02*
X61622810Y-97766021D01*
X58761904Y-103954818D02*
X58761904Y-102954818D01*
X58761904Y-103431008D02*
X58190476Y-103431008D01*
X58190476Y-103954818D02*
X58190476Y-102954818D01*
X57285714Y-103288151D02*
X57285714Y-103954818D01*
X57523809Y-102907199D02*
X57761904Y-103621484D01*
X57761904Y-103621484D02*
X57142857Y-103621484D01*
X65122112Y-98386411D02*
X65189456Y-98386411D01*
X65189456Y-98386411D02*
X65324143Y-98319067D01*
X65324143Y-98319067D02*
X65391486Y-98251724D01*
X65391486Y-98251724D02*
X65458830Y-98117037D01*
X65458830Y-98117037D02*
X65458830Y-97982350D01*
X65458830Y-97982350D02*
X65425158Y-97881335D01*
X65425158Y-97881335D02*
X65324143Y-97712976D01*
X65324143Y-97712976D02*
X65223128Y-97611961D01*
X65223128Y-97611961D02*
X65054769Y-97510945D01*
X65054769Y-97510945D02*
X64953754Y-97477274D01*
X64953754Y-97477274D02*
X64819067Y-97477274D01*
X64819067Y-97477274D02*
X64684380Y-97544617D01*
X64684380Y-97544617D02*
X64617036Y-97611961D01*
X64617036Y-97611961D02*
X64549693Y-97746648D01*
X64549693Y-97746648D02*
X64549693Y-97813991D01*
X64246647Y-97982350D02*
X63808914Y-98420083D01*
X63808914Y-98420083D02*
X64313990Y-98453754D01*
X64313990Y-98453754D02*
X64212975Y-98554770D01*
X64212975Y-98554770D02*
X64179303Y-98655785D01*
X64179303Y-98655785D02*
X64179303Y-98723128D01*
X64179303Y-98723128D02*
X64212975Y-98824144D01*
X64212975Y-98824144D02*
X64381334Y-98992502D01*
X64381334Y-98992502D02*
X64482349Y-99026174D01*
X64482349Y-99026174D02*
X64549693Y-99026174D01*
X64549693Y-99026174D02*
X64650708Y-98992502D01*
X64650708Y-98992502D02*
X64852738Y-98790472D01*
X64852738Y-98790472D02*
X64886410Y-98689457D01*
X64886410Y-98689457D02*
X64886410Y-98622113D01*
X67046245Y-87189456D02*
X67618664Y-87088441D01*
X67450306Y-87593517D02*
X68157412Y-86886410D01*
X68157412Y-86886410D02*
X67888038Y-86617036D01*
X67888038Y-86617036D02*
X67787023Y-86583364D01*
X67787023Y-86583364D02*
X67719680Y-86583364D01*
X67719680Y-86583364D02*
X67618664Y-86617036D01*
X67618664Y-86617036D02*
X67517649Y-86718051D01*
X67517649Y-86718051D02*
X67483977Y-86819067D01*
X67483977Y-86819067D02*
X67483977Y-86886410D01*
X67483977Y-86886410D02*
X67517649Y-86987425D01*
X67517649Y-86987425D02*
X67787023Y-87256799D01*
X67147260Y-85876258D02*
X67281947Y-86010945D01*
X67281947Y-86010945D02*
X67315619Y-86111960D01*
X67315619Y-86111960D02*
X67315619Y-86179303D01*
X67315619Y-86179303D02*
X67281947Y-86347662D01*
X67281947Y-86347662D02*
X67180932Y-86516021D01*
X67180932Y-86516021D02*
X66911558Y-86785395D01*
X66911558Y-86785395D02*
X66810542Y-86819067D01*
X66810542Y-86819067D02*
X66743199Y-86819067D01*
X66743199Y-86819067D02*
X66642184Y-86785395D01*
X66642184Y-86785395D02*
X66507497Y-86650708D01*
X66507497Y-86650708D02*
X66473825Y-86549693D01*
X66473825Y-86549693D02*
X66473825Y-86482349D01*
X66473825Y-86482349D02*
X66507497Y-86381334D01*
X66507497Y-86381334D02*
X66675855Y-86212975D01*
X66675855Y-86212975D02*
X66776871Y-86179303D01*
X66776871Y-86179303D02*
X66844214Y-86179303D01*
X66844214Y-86179303D02*
X66945229Y-86212975D01*
X66945229Y-86212975D02*
X67079916Y-86347662D01*
X67079916Y-86347662D02*
X67113588Y-86448677D01*
X67113588Y-86448677D02*
X67113588Y-86516021D01*
X67113588Y-86516021D02*
X67079916Y-86617036D01*
X82604057Y-105906007D02*
X83176477Y-105333587D01*
X83176477Y-105333587D02*
X83277492Y-105299915D01*
X83277492Y-105299915D02*
X83344836Y-105299915D01*
X83344836Y-105299915D02*
X83445851Y-105333587D01*
X83445851Y-105333587D02*
X83580538Y-105468274D01*
X83580538Y-105468274D02*
X83614210Y-105569289D01*
X83614210Y-105569289D02*
X83614210Y-105636633D01*
X83614210Y-105636633D02*
X83580538Y-105737648D01*
X83580538Y-105737648D02*
X83008118Y-106310068D01*
X83647882Y-106949831D02*
X83513195Y-106815144D01*
X83513195Y-106815144D02*
X83479523Y-106714129D01*
X83479523Y-106714129D02*
X83479523Y-106646785D01*
X83479523Y-106646785D02*
X83513195Y-106478426D01*
X83513195Y-106478426D02*
X83614210Y-106310068D01*
X83614210Y-106310068D02*
X83883584Y-106040694D01*
X83883584Y-106040694D02*
X83984599Y-106007022D01*
X83984599Y-106007022D02*
X84051943Y-106007022D01*
X84051943Y-106007022D02*
X84152958Y-106040694D01*
X84152958Y-106040694D02*
X84287645Y-106175381D01*
X84287645Y-106175381D02*
X84321317Y-106276396D01*
X84321317Y-106276396D02*
X84321317Y-106343739D01*
X84321317Y-106343739D02*
X84287645Y-106444755D01*
X84287645Y-106444755D02*
X84119286Y-106613113D01*
X84119286Y-106613113D02*
X84018271Y-106646785D01*
X84018271Y-106646785D02*
X83950927Y-106646785D01*
X83950927Y-106646785D02*
X83849912Y-106613113D01*
X83849912Y-106613113D02*
X83715225Y-106478426D01*
X83715225Y-106478426D02*
X83681553Y-106377411D01*
X83681553Y-106377411D02*
X83681553Y-106310068D01*
X83681553Y-106310068D02*
X83715225Y-106209052D01*
X98245428Y-107299692D02*
X97673008Y-107872112D01*
X97673008Y-107872112D02*
X97571993Y-107905784D01*
X97571993Y-107905784D02*
X97504649Y-107905784D01*
X97504649Y-107905784D02*
X97403634Y-107872112D01*
X97403634Y-107872112D02*
X97268947Y-107737425D01*
X97268947Y-107737425D02*
X97235275Y-107636410D01*
X97235275Y-107636410D02*
X97235275Y-107569066D01*
X97235275Y-107569066D02*
X97268947Y-107468051D01*
X97268947Y-107468051D02*
X97841367Y-106895631D01*
X97470977Y-106659929D02*
X97470977Y-106592586D01*
X97470977Y-106592586D02*
X97437306Y-106491570D01*
X97437306Y-106491570D02*
X97268947Y-106323212D01*
X97268947Y-106323212D02*
X97167932Y-106289540D01*
X97167932Y-106289540D02*
X97100588Y-106289540D01*
X97100588Y-106289540D02*
X96999573Y-106323212D01*
X96999573Y-106323212D02*
X96932229Y-106390555D01*
X96932229Y-106390555D02*
X96864886Y-106525242D01*
X96864886Y-106525242D02*
X96864886Y-107333364D01*
X96864886Y-107333364D02*
X96427153Y-106895631D01*
X64787024Y-88180235D02*
X65494130Y-87473128D01*
X65494130Y-87473128D02*
X65325772Y-87304769D01*
X65325772Y-87304769D02*
X65191085Y-87237426D01*
X65191085Y-87237426D02*
X65056398Y-87237426D01*
X65056398Y-87237426D02*
X64955382Y-87271098D01*
X64955382Y-87271098D02*
X64787024Y-87372113D01*
X64787024Y-87372113D02*
X64686008Y-87473128D01*
X64686008Y-87473128D02*
X64584993Y-87641487D01*
X64584993Y-87641487D02*
X64551321Y-87742502D01*
X64551321Y-87742502D02*
X64551321Y-87877189D01*
X64551321Y-87877189D02*
X64618665Y-88011876D01*
X64618665Y-88011876D02*
X64787024Y-88180235D01*
X64248276Y-86698678D02*
X63776871Y-87170082D01*
X64686008Y-86597663D02*
X64349291Y-87271098D01*
X64349291Y-87271098D02*
X63911558Y-86833365D01*
X64079917Y-86193601D02*
X64079917Y-86126258D01*
X64079917Y-86126258D02*
X64046245Y-86025243D01*
X64046245Y-86025243D02*
X63877886Y-85856884D01*
X63877886Y-85856884D02*
X63776871Y-85823212D01*
X63776871Y-85823212D02*
X63709527Y-85823212D01*
X63709527Y-85823212D02*
X63608512Y-85856884D01*
X63608512Y-85856884D02*
X63541169Y-85924227D01*
X63541169Y-85924227D02*
X63473825Y-86058914D01*
X63473825Y-86058914D02*
X63473825Y-86867036D01*
X63473825Y-86867036D02*
X63036092Y-86429304D01*
X83358202Y-82076681D02*
X84065308Y-81369574D01*
X84065308Y-81369574D02*
X83896950Y-81201215D01*
X83896950Y-81201215D02*
X83762263Y-81133872D01*
X83762263Y-81133872D02*
X83627576Y-81133872D01*
X83627576Y-81133872D02*
X83526560Y-81167544D01*
X83526560Y-81167544D02*
X83358202Y-81268559D01*
X83358202Y-81268559D02*
X83257186Y-81369574D01*
X83257186Y-81369574D02*
X83156171Y-81537933D01*
X83156171Y-81537933D02*
X83122499Y-81638948D01*
X83122499Y-81638948D02*
X83122499Y-81773635D01*
X83122499Y-81773635D02*
X83189843Y-81908322D01*
X83189843Y-81908322D02*
X83358202Y-82076681D01*
X82819454Y-80595124D02*
X82348049Y-81066528D01*
X83257186Y-80494109D02*
X82920469Y-81167544D01*
X82920469Y-81167544D02*
X82482736Y-80729811D01*
X82146018Y-79921689D02*
X81674614Y-80393093D01*
X82583751Y-79820673D02*
X82247034Y-80494108D01*
X82247034Y-80494108D02*
X81809301Y-80056376D01*
X73009800Y-93673391D02*
X73009800Y-93740735D01*
X73009800Y-93740735D02*
X73077144Y-93875422D01*
X73077144Y-93875422D02*
X73144487Y-93942765D01*
X73144487Y-93942765D02*
X73279174Y-94010109D01*
X73279174Y-94010109D02*
X73413861Y-94010109D01*
X73413861Y-94010109D02*
X73514876Y-93976437D01*
X73514876Y-93976437D02*
X73683235Y-93875422D01*
X73683235Y-93875422D02*
X73784250Y-93774407D01*
X73784250Y-93774407D02*
X73885266Y-93606048D01*
X73885266Y-93606048D02*
X73918937Y-93505033D01*
X73918937Y-93505033D02*
X73918937Y-93370346D01*
X73918937Y-93370346D02*
X73851594Y-93235659D01*
X73851594Y-93235659D02*
X73784250Y-93168315D01*
X73784250Y-93168315D02*
X73649563Y-93100972D01*
X73649563Y-93100972D02*
X73582220Y-93100972D01*
X72605739Y-93404017D02*
X72471052Y-93269330D01*
X72471052Y-93269330D02*
X72437380Y-93168315D01*
X72437380Y-93168315D02*
X72437380Y-93100972D01*
X72437380Y-93100972D02*
X72471052Y-92932613D01*
X72471052Y-92932613D02*
X72572067Y-92764254D01*
X72572067Y-92764254D02*
X72841441Y-92494880D01*
X72841441Y-92494880D02*
X72942457Y-92461208D01*
X72942457Y-92461208D02*
X73009800Y-92461208D01*
X73009800Y-92461208D02*
X73110815Y-92494880D01*
X73110815Y-92494880D02*
X73245502Y-92629567D01*
X73245502Y-92629567D02*
X73279174Y-92730582D01*
X73279174Y-92730582D02*
X73279174Y-92797926D01*
X73279174Y-92797926D02*
X73245502Y-92898941D01*
X73245502Y-92898941D02*
X73077144Y-93067300D01*
X73077144Y-93067300D02*
X72976128Y-93100972D01*
X72976128Y-93100972D02*
X72908785Y-93100972D01*
X72908785Y-93100972D02*
X72807770Y-93067300D01*
X72807770Y-93067300D02*
X72673083Y-92932613D01*
X72673083Y-92932613D02*
X72639411Y-92831598D01*
X72639411Y-92831598D02*
X72639411Y-92764254D01*
X72639411Y-92764254D02*
X72673083Y-92663239D01*
X97711570Y-110482310D02*
X97004463Y-109775204D01*
X97004463Y-109775204D02*
X96836104Y-109943562D01*
X96836104Y-109943562D02*
X96768761Y-110078249D01*
X96768761Y-110078249D02*
X96768761Y-110212936D01*
X96768761Y-110212936D02*
X96802433Y-110313952D01*
X96802433Y-110313952D02*
X96903448Y-110482310D01*
X96903448Y-110482310D02*
X97004463Y-110583326D01*
X97004463Y-110583326D02*
X97172822Y-110684341D01*
X97172822Y-110684341D02*
X97273837Y-110718013D01*
X97273837Y-110718013D02*
X97408524Y-110718013D01*
X97408524Y-110718013D02*
X97543211Y-110650669D01*
X97543211Y-110650669D02*
X97711570Y-110482310D01*
X96230013Y-111021058D02*
X96701417Y-111492463D01*
X96128998Y-110583326D02*
X96802433Y-110920043D01*
X96802433Y-110920043D02*
X96364700Y-111357776D01*
X95691265Y-111088402D02*
X95253532Y-111526135D01*
X95253532Y-111526135D02*
X95758608Y-111559807D01*
X95758608Y-111559807D02*
X95657593Y-111660822D01*
X95657593Y-111660822D02*
X95623921Y-111761837D01*
X95623921Y-111761837D02*
X95623921Y-111829181D01*
X95623921Y-111829181D02*
X95657593Y-111930196D01*
X95657593Y-111930196D02*
X95825952Y-112098555D01*
X95825952Y-112098555D02*
X95926967Y-112132226D01*
X95926967Y-112132226D02*
X95994310Y-112132226D01*
X95994310Y-112132226D02*
X96095326Y-112098555D01*
X96095326Y-112098555D02*
X96297356Y-111896524D01*
X96297356Y-111896524D02*
X96331028Y-111795509D01*
X96331028Y-111795509D02*
X96331028Y-111728165D01*
X83237844Y-102506026D02*
X83285463Y-102553646D01*
X83285463Y-102553646D02*
X83428320Y-102601265D01*
X83428320Y-102601265D02*
X83523558Y-102601265D01*
X83523558Y-102601265D02*
X83666415Y-102553646D01*
X83666415Y-102553646D02*
X83761653Y-102458407D01*
X83761653Y-102458407D02*
X83809272Y-102363169D01*
X83809272Y-102363169D02*
X83856891Y-102172693D01*
X83856891Y-102172693D02*
X83856891Y-102029836D01*
X83856891Y-102029836D02*
X83809272Y-101839360D01*
X83809272Y-101839360D02*
X83761653Y-101744122D01*
X83761653Y-101744122D02*
X83666415Y-101648884D01*
X83666415Y-101648884D02*
X83523558Y-101601265D01*
X83523558Y-101601265D02*
X83428320Y-101601265D01*
X83428320Y-101601265D02*
X83285463Y-101648884D01*
X83285463Y-101648884D02*
X83237844Y-101696503D01*
X82904510Y-101601265D02*
X82237844Y-101601265D01*
X82237844Y-101601265D02*
X82666415Y-102601265D01*
X100761904Y-103954819D02*
X100761904Y-102954819D01*
X100761904Y-103431009D02*
X100190476Y-103431009D01*
X100190476Y-103954819D02*
X100190476Y-102954819D01*
X99809523Y-102954819D02*
X99190476Y-102954819D01*
X99190476Y-102954819D02*
X99523809Y-103335771D01*
X99523809Y-103335771D02*
X99380952Y-103335771D01*
X99380952Y-103335771D02*
X99285714Y-103383390D01*
X99285714Y-103383390D02*
X99238095Y-103431009D01*
X99238095Y-103431009D02*
X99190476Y-103526247D01*
X99190476Y-103526247D02*
X99190476Y-103764342D01*
X99190476Y-103764342D02*
X99238095Y-103859580D01*
X99238095Y-103859580D02*
X99285714Y-103907200D01*
X99285714Y-103907200D02*
X99380952Y-103954819D01*
X99380952Y-103954819D02*
X99666666Y-103954819D01*
X99666666Y-103954819D02*
X99761904Y-103907200D01*
X99761904Y-103907200D02*
X99809523Y-103859580D01*
X60457512Y-90797078D02*
X60794230Y-90460361D01*
X60794230Y-90460361D02*
X60087123Y-89753254D01*
X59851420Y-91403170D02*
X60255481Y-90999109D01*
X60053451Y-91201139D02*
X59346344Y-90494033D01*
X59346344Y-90494033D02*
X59514703Y-90527704D01*
X59514703Y-90527704D02*
X59649390Y-90527704D01*
X59649390Y-90527704D02*
X59750405Y-90494033D01*
X93193290Y-97032857D02*
X93260634Y-97032857D01*
X93260634Y-97032857D02*
X93395321Y-96965513D01*
X93395321Y-96965513D02*
X93462664Y-96898170D01*
X93462664Y-96898170D02*
X93530008Y-96763483D01*
X93530008Y-96763483D02*
X93530008Y-96628796D01*
X93530008Y-96628796D02*
X93496336Y-96527781D01*
X93496336Y-96527781D02*
X93395321Y-96359422D01*
X93395321Y-96359422D02*
X93294306Y-96258407D01*
X93294306Y-96258407D02*
X93125947Y-96157391D01*
X93125947Y-96157391D02*
X93024932Y-96123720D01*
X93024932Y-96123720D02*
X92890245Y-96123720D01*
X92890245Y-96123720D02*
X92755558Y-96191063D01*
X92755558Y-96191063D02*
X92688214Y-96258407D01*
X92688214Y-96258407D02*
X92620871Y-96393094D01*
X92620871Y-96393094D02*
X92620871Y-96460437D01*
X91913764Y-97032857D02*
X92250481Y-96696139D01*
X92250481Y-96696139D02*
X92620871Y-96999185D01*
X92620871Y-96999185D02*
X92553527Y-96999185D01*
X92553527Y-96999185D02*
X92452512Y-97032857D01*
X92452512Y-97032857D02*
X92284153Y-97201216D01*
X92284153Y-97201216D02*
X92250481Y-97302231D01*
X92250481Y-97302231D02*
X92250481Y-97369574D01*
X92250481Y-97369574D02*
X92284153Y-97470590D01*
X92284153Y-97470590D02*
X92452512Y-97638948D01*
X92452512Y-97638948D02*
X92553527Y-97672620D01*
X92553527Y-97672620D02*
X92620871Y-97672620D01*
X92620871Y-97672620D02*
X92721886Y-97638948D01*
X92721886Y-97638948D02*
X92890245Y-97470590D01*
X92890245Y-97470590D02*
X92923916Y-97369574D01*
X92923916Y-97369574D02*
X92923916Y-97302231D01*
X88934766Y-108268559D02*
X88934766Y-108335903D01*
X88934766Y-108335903D02*
X89002110Y-108470590D01*
X89002110Y-108470590D02*
X89069453Y-108537933D01*
X89069453Y-108537933D02*
X89204140Y-108605277D01*
X89204140Y-108605277D02*
X89338827Y-108605277D01*
X89338827Y-108605277D02*
X89439842Y-108571605D01*
X89439842Y-108571605D02*
X89608201Y-108470590D01*
X89608201Y-108470590D02*
X89709216Y-108369575D01*
X89709216Y-108369575D02*
X89810232Y-108201216D01*
X89810232Y-108201216D02*
X89843903Y-108100201D01*
X89843903Y-108100201D02*
X89843903Y-107965514D01*
X89843903Y-107965514D02*
X89776560Y-107830827D01*
X89776560Y-107830827D02*
X89709216Y-107763483D01*
X89709216Y-107763483D02*
X89574529Y-107696140D01*
X89574529Y-107696140D02*
X89507186Y-107696140D01*
X88732736Y-107258407D02*
X88261331Y-107729811D01*
X89170468Y-107157392D02*
X88833751Y-107830827D01*
X88833751Y-107830827D02*
X88396018Y-107393094D01*
X88583082Y-101851265D02*
X88583082Y-102660788D01*
X88583082Y-102660788D02*
X88535463Y-102756026D01*
X88535463Y-102756026D02*
X88487844Y-102803646D01*
X88487844Y-102803646D02*
X88392606Y-102851265D01*
X88392606Y-102851265D02*
X88202130Y-102851265D01*
X88202130Y-102851265D02*
X88106892Y-102803646D01*
X88106892Y-102803646D02*
X88059273Y-102756026D01*
X88059273Y-102756026D02*
X88011654Y-102660788D01*
X88011654Y-102660788D02*
X88011654Y-101851265D01*
X87106892Y-102184598D02*
X87106892Y-102851265D01*
X87344987Y-101803646D02*
X87583082Y-102517931D01*
X87583082Y-102517931D02*
X86964035Y-102517931D01*
X84525997Y-104479779D02*
X84049806Y-104146446D01*
X84525997Y-103908351D02*
X83525997Y-103908351D01*
X83525997Y-103908351D02*
X83525997Y-104289303D01*
X83525997Y-104289303D02*
X83573616Y-104384541D01*
X83573616Y-104384541D02*
X83621235Y-104432160D01*
X83621235Y-104432160D02*
X83716473Y-104479779D01*
X83716473Y-104479779D02*
X83859330Y-104479779D01*
X83859330Y-104479779D02*
X83954568Y-104432160D01*
X83954568Y-104432160D02*
X84002187Y-104384541D01*
X84002187Y-104384541D02*
X84049806Y-104289303D01*
X84049806Y-104289303D02*
X84049806Y-103908351D01*
X84525997Y-105432160D02*
X84525997Y-104860732D01*
X84525997Y-105146446D02*
X83525997Y-105146446D01*
X83525997Y-105146446D02*
X83668854Y-105051208D01*
X83668854Y-105051208D02*
X83764092Y-104955970D01*
X83764092Y-104955970D02*
X83811711Y-104860732D01*
X76995427Y-81299692D02*
X76423007Y-81872112D01*
X76423007Y-81872112D02*
X76321992Y-81905784D01*
X76321992Y-81905784D02*
X76254648Y-81905784D01*
X76254648Y-81905784D02*
X76153633Y-81872112D01*
X76153633Y-81872112D02*
X76018946Y-81737425D01*
X76018946Y-81737425D02*
X75985274Y-81636410D01*
X75985274Y-81636410D02*
X75985274Y-81569066D01*
X75985274Y-81569066D02*
X76018946Y-81468051D01*
X76018946Y-81468051D02*
X76591366Y-80895631D01*
X76321992Y-80626257D02*
X75884259Y-80188525D01*
X75884259Y-80188525D02*
X75850587Y-80693601D01*
X75850587Y-80693601D02*
X75749572Y-80592586D01*
X75749572Y-80592586D02*
X75648557Y-80558914D01*
X75648557Y-80558914D02*
X75581213Y-80558914D01*
X75581213Y-80558914D02*
X75480198Y-80592586D01*
X75480198Y-80592586D02*
X75311839Y-80760944D01*
X75311839Y-80760944D02*
X75278167Y-80861960D01*
X75278167Y-80861960D02*
X75278167Y-80929303D01*
X75278167Y-80929303D02*
X75311839Y-81030318D01*
X75311839Y-81030318D02*
X75513870Y-81232349D01*
X75513870Y-81232349D02*
X75614885Y-81266021D01*
X75614885Y-81266021D02*
X75682228Y-81266021D01*
X67363588Y-82872112D02*
X67363588Y-82939456D01*
X67363588Y-82939456D02*
X67430932Y-83074143D01*
X67430932Y-83074143D02*
X67498275Y-83141486D01*
X67498275Y-83141486D02*
X67632962Y-83208830D01*
X67632962Y-83208830D02*
X67767649Y-83208830D01*
X67767649Y-83208830D02*
X67868664Y-83175158D01*
X67868664Y-83175158D02*
X68037023Y-83074143D01*
X68037023Y-83074143D02*
X68138038Y-82973128D01*
X68138038Y-82973128D02*
X68239054Y-82804769D01*
X68239054Y-82804769D02*
X68272725Y-82703754D01*
X68272725Y-82703754D02*
X68272725Y-82569067D01*
X68272725Y-82569067D02*
X68205382Y-82434380D01*
X68205382Y-82434380D02*
X68138038Y-82367036D01*
X68138038Y-82367036D02*
X68003351Y-82299693D01*
X68003351Y-82299693D02*
X67936008Y-82299693D01*
X66622810Y-82266021D02*
X67026871Y-82670082D01*
X66824840Y-82468051D02*
X67531947Y-81760945D01*
X67531947Y-81760945D02*
X67498275Y-81929303D01*
X67498275Y-81929303D02*
X67498275Y-82063990D01*
X67498275Y-82063990D02*
X67531947Y-82165006D01*
X97867423Y-105085903D02*
X98204140Y-105422621D01*
X98204140Y-105422621D02*
X98911247Y-104715514D01*
X98305155Y-104244109D02*
X98305155Y-104176766D01*
X98305155Y-104176766D02*
X98271484Y-104075750D01*
X98271484Y-104075750D02*
X98103125Y-103907392D01*
X98103125Y-103907392D02*
X98002110Y-103873720D01*
X98002110Y-103873720D02*
X97934766Y-103873720D01*
X97934766Y-103873720D02*
X97833751Y-103907392D01*
X97833751Y-103907392D02*
X97766407Y-103974735D01*
X97766407Y-103974735D02*
X97699064Y-104109422D01*
X97699064Y-104109422D02*
X97699064Y-104917544D01*
X97699064Y-104917544D02*
X97261331Y-104479811D01*
D11*
%TO.C,C2*%
X74060300Y-83948469D02*
X78964086Y-88852255D01*
X76545781Y-91270560D02*
X71641995Y-86366774D01*
X78964086Y-88852255D02*
X76545781Y-91270560D01*
%TO.C,U1*%
X61510339Y-93067732D02*
X61969959Y-93527351D01*
X63716513Y-90861558D02*
X63256893Y-90401939D01*
X63716513Y-90861558D02*
X64176132Y-91321178D01*
X61510339Y-93067732D02*
X60325936Y-91883328D01*
%TO.C,TH1*%
X59922685Y-94827315D02*
X59972183Y-94777817D01*
X60323949Y-95796051D02*
G75*
G02*
X57583949Y-95796051I-1370000J0D01*
G01*
X57583949Y-95796051D02*
G75*
G02*
X60323949Y-95796051I1370000J0D01*
G01*
%TO.C,J3*%
X86480000Y-90952530D02*
X86480000Y-91775000D01*
X87881529Y-90135000D02*
X87738471Y-90135000D01*
X87935000Y-88245000D02*
X87935000Y-88811529D01*
X95490000Y-88245000D02*
X95490000Y-89067470D01*
X86480000Y-91775000D02*
X95490000Y-91775000D01*
X86480000Y-90135000D02*
X86480000Y-90337470D01*
X86611529Y-90135000D02*
X86480000Y-90135000D01*
X95490000Y-89682530D02*
X95490000Y-90337470D01*
X95490000Y-90952530D02*
X95490000Y-91775000D01*
X87935000Y-89938471D02*
X87935000Y-90081529D01*
X86415000Y-88245000D02*
X86415000Y-89375000D01*
X87175000Y-88245000D02*
X86415000Y-88245000D01*
X87935000Y-88245000D02*
X95490000Y-88245000D01*
%TO.C,C8*%
X87556178Y-96436446D02*
X87556178Y-99856446D01*
X80621178Y-96436446D02*
X87556178Y-96436446D01*
X87556178Y-99856446D02*
X80621178Y-99856446D01*
%TO.C,L3*%
X79568492Y-87066984D02*
X80148662Y-86486814D01*
X78776532Y-86275024D02*
X79356702Y-85694854D01*
%TO.C,C6*%
X81829560Y-85469759D02*
X86733346Y-80565973D01*
X89151651Y-82984278D02*
X84247865Y-87888064D01*
X84247865Y-87888064D02*
X81829560Y-85469759D01*
%TO.C,R2*%
X62305185Y-96544111D02*
X62665419Y-96904345D01*
X63044111Y-95805185D02*
X63404345Y-96165419D01*
%TO.C,C3*%
X71356613Y-92348901D02*
X66452827Y-97252687D01*
X68938308Y-89930596D02*
X71356613Y-92348901D01*
X64034522Y-94834382D02*
X68938308Y-89930596D01*
%TO.C,R6*%
X66986012Y-88607053D02*
X67346246Y-88967287D01*
X66247086Y-89345979D02*
X66607320Y-89706213D01*
%TO.C,U6*%
X72426730Y-96159759D02*
X72780284Y-96513313D01*
X81972672Y-105705701D02*
X81442342Y-106236031D01*
X81972672Y-105705701D02*
X81619118Y-105352147D01*
X72426730Y-96159759D02*
X71896400Y-96690089D01*
%TO.C,U2*%
X93839122Y-106204127D02*
X92566330Y-104931334D01*
X96045296Y-103997953D02*
X96610981Y-104563639D01*
X93839122Y-106204127D02*
X94404808Y-106769812D01*
X96045296Y-103997953D02*
X95479610Y-103432268D01*
%TO.C,D42*%
X67244975Y-91080760D02*
X65830761Y-92494974D01*
X65830761Y-92494974D02*
X63073045Y-89737258D01*
X67244975Y-91080760D02*
X64487259Y-88323044D01*
%TO.C,D44*%
X79140158Y-81366115D02*
X81897874Y-84123831D01*
X80554372Y-79951901D02*
X83312088Y-82709617D01*
X79140158Y-81366115D02*
X80554372Y-79951901D01*
%TO.C,C9*%
X72599100Y-94055244D02*
X72392247Y-93848391D01*
X71877851Y-94776493D02*
X71670998Y-94569640D01*
%TO.C,D43*%
X94233238Y-111903218D02*
X96990954Y-109145502D01*
X92819024Y-110489004D02*
X95576740Y-107731288D01*
X94233238Y-111903218D02*
X92819024Y-110489004D01*
%TO.C,C7*%
X84354945Y-100136446D02*
X84062411Y-100136446D01*
X84354945Y-101156446D02*
X84062411Y-101156446D01*
%TO.C,L1*%
X62804516Y-88605717D02*
X62224346Y-89185887D01*
X62012556Y-87813757D02*
X61432386Y-88393927D01*
%TO.C,C5*%
X95852255Y-94761018D02*
X98270560Y-97179323D01*
X90948469Y-99664804D02*
X95852255Y-94761018D01*
X98270560Y-97179323D02*
X93366774Y-102083109D01*
%TO.C,C4*%
X92626435Y-110294738D02*
X87722649Y-105390952D01*
X95044740Y-107876433D02*
X92626435Y-110294738D01*
X90140954Y-102972647D02*
X95044740Y-107876433D01*
%TO.C,U4*%
X86128678Y-101608445D02*
X84828678Y-101608445D01*
X84578678Y-103408445D02*
X86128678Y-103408445D01*
%TO.C,R1*%
X86475677Y-105419382D02*
X86475677Y-105873510D01*
X85005677Y-105419382D02*
X85005677Y-105873510D01*
%TO.C,U3*%
X77178643Y-84416574D02*
X76612958Y-83850888D01*
X79384817Y-82210400D02*
X80657609Y-83483193D01*
X79384817Y-82210400D02*
X78819131Y-81644715D01*
X77178643Y-84416574D02*
X77744329Y-84982259D01*
%TO.C,C1*%
X65873565Y-81955260D02*
X70777351Y-86859046D01*
X68359046Y-89277351D02*
X63455260Y-84373565D01*
X63455260Y-84373565D02*
X65873565Y-81955260D01*
%TO.C,L2*%
X95431355Y-102543970D02*
X96011525Y-103124140D01*
X96223315Y-101752010D02*
X96803485Y-102332180D01*
%TD*%
M02*
