%TF.GenerationSoftware,KiCad,Pcbnew,8.0.5*%
%TF.CreationDate,2025-04-26T14:00:33+02:00*%
%TF.ProjectId,vlvts,766c7674-732e-46b6-9963-61645f706362,rev?*%
%TF.SameCoordinates,Original*%
%TF.FileFunction,Copper,L2,Bot*%
%TF.FilePolarity,Positive*%
%FSLAX46Y46*%
G04 Gerber Fmt 4.6, Leading zero omitted, Abs format (unit mm)*
G04 Created by KiCad (PCBNEW 8.0.5) date 2025-04-26 14:00:33*
%MOMM*%
%LPD*%
G01*
G04 APERTURE LIST*
G04 Aperture macros list*
%AMRoundRect*
0 Rectangle with rounded corners*
0 $1 Rounding radius*
0 $2 $3 $4 $5 $6 $7 $8 $9 X,Y pos of 4 corners*
0 Add a 4 corners polygon primitive as box body*
4,1,4,$2,$3,$4,$5,$6,$7,$8,$9,$2,$3,0*
0 Add four circle primitives for the rounded corners*
1,1,$1+$1,$2,$3*
1,1,$1+$1,$4,$5*
1,1,$1+$1,$6,$7*
1,1,$1+$1,$8,$9*
0 Add four rect primitives between the rounded corners*
20,1,$1+$1,$2,$3,$4,$5,0*
20,1,$1+$1,$4,$5,$6,$7,0*
20,1,$1+$1,$6,$7,$8,$9,0*
20,1,$1+$1,$8,$9,$2,$3,0*%
%AMHorizOval*
0 Thick line with rounded ends*
0 $1 width*
0 $2 $3 position (X,Y) of the first rounded end (center of the circle)*
0 $4 $5 position (X,Y) of the second rounded end (center of the circle)*
0 Add line between two ends*
20,1,$1,$2,$3,$4,$5,0*
0 Add two circle primitives to create the rounded ends*
1,1,$1,$2,$3*
1,1,$1,$4,$5*%
%AMRotRect*
0 Rectangle, with rotation*
0 The origin of the aperture is its center*
0 $1 length*
0 $2 width*
0 $3 Rotation angle, in degrees counterclockwise*
0 Add horizontal line*
21,1,$1,$2,0,0,$3*%
G04 Aperture macros list end*
%TA.AperFunction,NonConductor*%
%ADD10C,0.100000*%
%TD*%
%TA.AperFunction,SMDPad,CuDef*%
%ADD11RoundRect,0.250000X1.272792X0.035355X0.035355X1.272792X-1.272792X-0.035355X-0.035355X-1.272792X0*%
%TD*%
%TA.AperFunction,SMDPad,CuDef*%
%ADD12RoundRect,0.150000X-0.521491X0.309359X0.309359X-0.521491X0.521491X-0.309359X-0.309359X0.521491X0*%
%TD*%
%TA.AperFunction,ComponentPad*%
%ADD13C,1.600000*%
%TD*%
%TA.AperFunction,ComponentPad*%
%ADD14HorizOval,1.600000X0.000000X0.000000X0.000000X0.000000X0*%
%TD*%
%TA.AperFunction,ComponentPad*%
%ADD15R,1.000000X1.000000*%
%TD*%
%TA.AperFunction,ComponentPad*%
%ADD16O,1.000000X1.000000*%
%TD*%
%TA.AperFunction,SMDPad,CuDef*%
%ADD17RoundRect,0.250000X0.875000X0.925000X-0.875000X0.925000X-0.875000X-0.925000X0.875000X-0.925000X0*%
%TD*%
%TA.AperFunction,SMDPad,CuDef*%
%ADD18RoundRect,0.250000X0.053033X-0.441942X0.441942X-0.053033X-0.053033X0.441942X-0.441942X0.053033X0*%
%TD*%
%TA.AperFunction,SMDPad,CuDef*%
%ADD19RoundRect,0.250000X0.035355X-1.272792X1.272792X-0.035355X-0.035355X1.272792X-1.272792X0.035355X0*%
%TD*%
%TA.AperFunction,SMDPad,CuDef*%
%ADD20RoundRect,0.237500X-0.344715X0.008839X0.008839X-0.344715X0.344715X-0.008839X-0.008839X0.344715X0*%
%TD*%
%TA.AperFunction,SMDPad,CuDef*%
%ADD21RoundRect,0.250000X-0.035355X1.272792X-1.272792X0.035355X0.035355X-1.272792X1.272792X-0.035355X0*%
%TD*%
%TA.AperFunction,SMDPad,CuDef*%
%ADD22RoundRect,0.175000X-0.707107X0.459619X0.459619X-0.707107X0.707107X-0.459619X-0.459619X0.707107X0*%
%TD*%
%TA.AperFunction,SMDPad,CuDef*%
%ADD23RoundRect,0.175000X0.459619X0.707107X-0.707107X-0.459619X-0.459619X-0.707107X0.707107X0.459619X0*%
%TD*%
%TA.AperFunction,SMDPad,CuDef*%
%ADD24RoundRect,0.175000X-0.353553X0.106066X0.106066X-0.353553X0.353553X-0.106066X-0.106066X0.353553X0*%
%TD*%
%TA.AperFunction,SMDPad,CuDef*%
%ADD25RoundRect,0.150000X-0.468458X0.256326X0.256326X-0.468458X0.468458X-0.256326X-0.256326X0.468458X0*%
%TD*%
%TA.AperFunction,SMDPad,CuDef*%
%ADD26RotRect,0.900000X1.200000X135.000000*%
%TD*%
%TA.AperFunction,SMDPad,CuDef*%
%ADD27RotRect,0.900000X1.200000X315.000000*%
%TD*%
%TA.AperFunction,SMDPad,CuDef*%
%ADD28RoundRect,0.237500X0.380070X-0.044194X-0.044194X0.380070X-0.380070X0.044194X0.044194X-0.380070X0*%
%TD*%
%TA.AperFunction,SMDPad,CuDef*%
%ADD29RotRect,0.900000X1.200000X45.000000*%
%TD*%
%TA.AperFunction,SMDPad,CuDef*%
%ADD30RoundRect,0.237500X0.300000X0.237500X-0.300000X0.237500X-0.300000X-0.237500X0.300000X-0.237500X0*%
%TD*%
%TA.AperFunction,SMDPad,CuDef*%
%ADD31RoundRect,0.250000X-0.053033X0.441942X-0.441942X0.053033X0.053033X-0.441942X0.441942X-0.053033X0*%
%TD*%
%TA.AperFunction,SMDPad,CuDef*%
%ADD32R,0.700000X0.340000*%
%TD*%
%TA.AperFunction,SMDPad,CuDef*%
%ADD33RoundRect,0.250000X-0.450000X0.350000X-0.450000X-0.350000X0.450000X-0.350000X0.450000X0.350000X0*%
%TD*%
%TA.AperFunction,SMDPad,CuDef*%
%ADD34RoundRect,0.150000X0.468458X-0.256326X-0.256326X0.468458X-0.468458X0.256326X0.256326X-0.468458X0*%
%TD*%
%TA.AperFunction,SMDPad,CuDef*%
%ADD35RoundRect,0.250000X-1.272792X-0.035355X-0.035355X-1.272792X1.272792X0.035355X0.035355X1.272792X0*%
%TD*%
%TA.AperFunction,SMDPad,CuDef*%
%ADD36RoundRect,0.250000X-0.441942X-0.053033X-0.053033X-0.441942X0.441942X0.053033X0.053033X0.441942X0*%
%TD*%
%TA.AperFunction,ViaPad*%
%ADD37C,0.800000*%
%TD*%
%TA.AperFunction,ViaPad*%
%ADD38C,1.200000*%
%TD*%
%TA.AperFunction,Conductor*%
%ADD39C,0.250000*%
%TD*%
%TA.AperFunction,Conductor*%
%ADD40C,0.750000*%
%TD*%
G04 APERTURE END LIST*
D10*
X80413097Y-77539472D02*
X81352406Y-77618348D01*
X82287589Y-77736489D01*
X83217004Y-77893688D01*
X84139022Y-78089669D01*
X85052023Y-78324088D01*
X85954408Y-78596534D01*
X86844592Y-78906529D01*
X87721013Y-79253529D01*
X88582136Y-79636925D01*
X89426448Y-80056045D01*
X90252468Y-80510154D01*
X91058748Y-80998454D01*
X91843872Y-81520090D01*
X92606464Y-82074145D01*
X93345186Y-82659649D01*
X94058741Y-83275573D01*
X94745879Y-83920838D01*
X95405392Y-84594311D01*
X96036125Y-85294811D01*
X96636971Y-86021109D01*
X97206876Y-86771931D01*
X97744839Y-87545959D01*
X98249918Y-88341835D01*
X98721226Y-89158164D01*
X99157936Y-89993514D01*
X99559282Y-90846418D01*
X99924560Y-91715381D01*
X100253130Y-92598877D01*
X100544414Y-93495358D01*
X100797902Y-94403250D01*
X101013149Y-95320961D01*
X101189778Y-96246880D01*
X101327478Y-97179384D01*
X101426008Y-98116835D01*
X101485195Y-99057591D01*
X101504936Y-100000000D01*
X101485195Y-100942409D01*
X101426008Y-101883165D01*
X101327478Y-102820616D01*
X101189778Y-103753120D01*
X101013149Y-104679039D01*
X100797902Y-105596750D01*
X100544414Y-106504642D01*
X100253130Y-107401123D01*
X99924560Y-108284619D01*
X99559282Y-109153582D01*
X99157936Y-110006486D01*
X98721226Y-110841836D01*
X98249918Y-111658165D01*
X97744839Y-112454041D01*
X97206876Y-113228069D01*
X96636971Y-113978891D01*
X96036125Y-114705189D01*
X95405392Y-115405689D01*
X94745879Y-116079162D01*
X94058741Y-116724427D01*
X93345186Y-117340351D01*
X92606464Y-117925855D01*
X91843872Y-118479910D01*
X91058748Y-119001546D01*
X90252468Y-119489846D01*
X89426448Y-119943955D01*
X88582136Y-120363075D01*
X87721013Y-120746471D01*
X86844592Y-121093471D01*
X85954408Y-121403466D01*
X85052023Y-121675912D01*
X84139022Y-121910331D01*
X83217004Y-122106312D01*
X82287589Y-122263511D01*
X81352406Y-122381652D01*
X80413097Y-122460528D01*
X79471308Y-122500000D01*
X78528692Y-122500000D01*
X77586903Y-122460528D01*
X76647594Y-122381652D01*
X75712411Y-122263511D01*
X74782996Y-122106312D01*
X73860978Y-121910331D01*
X72947977Y-121675912D01*
X72045592Y-121403466D01*
X71155408Y-121093471D01*
X70278987Y-120746471D01*
X69417864Y-120363075D01*
X68573552Y-119943955D01*
X67747532Y-119489846D01*
X66941252Y-119001546D01*
X66156128Y-118479910D01*
X65393536Y-117925855D01*
X64654814Y-117340351D01*
X63941259Y-116724427D01*
X63254121Y-116079162D01*
X62594608Y-115405689D01*
X61963875Y-114705189D01*
X61363029Y-113978891D01*
X60793124Y-113228069D01*
X60255161Y-112454041D01*
X59750082Y-111658165D01*
X59278774Y-110841836D01*
X58842064Y-110006486D01*
X58440718Y-109153582D01*
X58075440Y-108284619D01*
X57746870Y-107401123D01*
X57455586Y-106504642D01*
X57202098Y-105596750D01*
X56986851Y-104679039D01*
X56810222Y-103753120D01*
X56672522Y-102820616D01*
X56573992Y-101883165D01*
X56514805Y-100942409D01*
X56495064Y-100000000D01*
X56514805Y-99057591D01*
X56573992Y-98116835D01*
X56672522Y-97179384D01*
X56810222Y-96246880D01*
X56986851Y-95320961D01*
X57202098Y-94403250D01*
X57455586Y-93495358D01*
X57746870Y-92598877D01*
X58075440Y-91715381D01*
X58440718Y-90846418D01*
X58842064Y-89993514D01*
X59278774Y-89158164D01*
X59750082Y-88341835D01*
X60255161Y-87545959D01*
X60793124Y-86771931D01*
X61363029Y-86021109D01*
X61963875Y-85294811D01*
X62594608Y-84594311D01*
X63254121Y-83920838D01*
X63941259Y-83275573D01*
X64654814Y-82659649D01*
X65393536Y-82074145D01*
X66156128Y-81520090D01*
X66941252Y-80998454D01*
X67747532Y-80510154D01*
X68573552Y-80056045D01*
X69417864Y-79636925D01*
X70278987Y-79253529D01*
X71155408Y-78906529D01*
X72045592Y-78596534D01*
X72947977Y-78324088D01*
X73860978Y-78089669D01*
X74782996Y-77893688D01*
X75712411Y-77736489D01*
X76647594Y-77618348D01*
X77586903Y-77539472D01*
X78528692Y-77500000D01*
X79471308Y-77500000D01*
X80413097Y-77539472D01*
D11*
%TO.P,C2,1*%
%TO.N,BATT_V*%
X76775590Y-89082064D03*
%TO.P,C2,2*%
%TO.N,GND*%
X73169346Y-85475820D03*
%TD*%
D12*
%TO.P,U1,1,Vss*%
%TO.N,GND*%
X61278762Y-91973484D03*
%TO.P,U1,2,Lx/EXT*%
%TO.N,Net-(D42-A)*%
X62622265Y-90629981D03*
%TO.P,U1,3,Vout*%
%TO.N,VDD*%
X63276339Y-92627558D03*
%TD*%
D13*
%TO.P,TH1,1*%
%TO.N,TEMP*%
X58953949Y-95796051D03*
D14*
%TO.P,TH1,2*%
%TO.N,GND*%
X60750000Y-94000000D03*
%TD*%
D15*
%TO.P,J3,1,Pin_1*%
%TO.N,LED_OE*%
X87175000Y-89375000D03*
D16*
%TO.P,J3,2,Pin_2*%
%TO.N,BTN_L*%
X87175000Y-90645000D03*
%TO.P,J3,3,Pin_3*%
%TO.N,LED_LA*%
X88445000Y-89375000D03*
%TO.P,J3,4,Pin_4*%
%TO.N,BTN_C*%
X88445000Y-90645000D03*
%TO.P,J3,5,Pin_5*%
%TO.N,LED_CLK*%
X89715000Y-89375000D03*
%TO.P,J3,6,Pin_6*%
%TO.N,BTN_R*%
X89715000Y-90645000D03*
%TO.P,J3,7,Pin_7*%
%TO.N,LED_SDI*%
X90985000Y-89375000D03*
%TO.P,J3,8,Pin_8*%
%TO.N,LEDg1*%
X90985000Y-90645000D03*
%TO.P,J3,9,Pin_9*%
%TO.N,GND*%
X92255000Y-89375000D03*
%TO.P,J3,10,Pin_10*%
%TO.N,LEDg2*%
X92255000Y-90645000D03*
%TO.P,J3,11,Pin_11*%
%TO.N,VDD*%
X93525000Y-89375000D03*
%TO.P,J3,12,Pin_12*%
%TO.N,LEDg3*%
X93525000Y-90645000D03*
%TO.P,J3,13,Pin_13*%
%TO.N,GND*%
X94795000Y-89375000D03*
%TO.P,J3,14,Pin_14*%
%TO.N,VEE*%
X94795000Y-90645000D03*
%TD*%
D17*
%TO.P,C8,1*%
%TO.N,VCC*%
X86171178Y-98146446D03*
%TO.P,C8,2*%
%TO.N,GND*%
X81071178Y-98146446D03*
%TD*%
D18*
%TO.P,L3,1,1*%
%TO.N,BATT_V*%
X78649424Y-87194092D03*
%TO.P,L3,2,2*%
%TO.N,Net-(D44-A)*%
X80275770Y-85567746D03*
%TD*%
D19*
%TO.P,C6,1*%
%TO.N,VCC*%
X84018056Y-85699568D03*
%TO.P,C6,2*%
%TO.N,GND*%
X87624300Y-82093324D03*
%TD*%
D20*
%TO.P,R2,1*%
%TO.N,VDD*%
X62209530Y-95709530D03*
%TO.P,R2,2*%
%TO.N,TEMP*%
X63500000Y-97000000D03*
%TD*%
D21*
%TO.P,C3,1*%
%TO.N,VDD*%
X69168117Y-92119092D03*
%TO.P,C3,2*%
%TO.N,GND*%
X65561873Y-95725336D03*
%TD*%
D20*
%TO.P,R6,1*%
%TO.N,BATT_V*%
X66151431Y-88511398D03*
%TO.P,R6,2*%
%TO.N,VDD*%
X67441901Y-89801868D03*
%TD*%
D22*
%TO.P,U6,1,GND*%
%TO.N,GND*%
X61678707Y-106200675D03*
%TO.P,U6,2,P1.11*%
%TO.N,unconnected-(U6-P1.11-Pad2)*%
X62456525Y-105422858D03*
%TO.P,U6,3,P1.10*%
%TO.N,unconnected-(U6-P1.10-Pad3)*%
X63234342Y-104645041D03*
%TO.P,U6,4,P1.13*%
%TO.N,unconnected-(U6-P1.13-Pad4)*%
X64012160Y-103867223D03*
%TO.P,U6,5,P1.15*%
%TO.N,MOT_PWR*%
X64789977Y-103089406D03*
%TO.P,U6,6,P0.03*%
%TO.N,BTN_L*%
X65567795Y-102311588D03*
%TO.P,U6,7,P0.02*%
%TO.N,BTN_C*%
X66345612Y-101533771D03*
%TO.P,U6,8,P0.28*%
%TO.N,BTN_R*%
X67123429Y-100755953D03*
%TO.P,U6,9,P0.29*%
%TO.N,TEMP*%
X67901247Y-99978136D03*
%TO.P,U6,10,P0.30*%
%TO.N,LEDg1*%
X68679064Y-99200318D03*
%TO.P,U6,11,P0.31*%
%TO.N,LEDg2*%
X69456882Y-98422501D03*
%TO.P,U6,12,P0.04*%
%TO.N,LEDg3*%
X70234699Y-97644683D03*
%TO.P,U6,13,P0.05*%
%TO.N,BATT_V*%
X71012517Y-96866866D03*
D23*
%TO.P,U6,14,VDD_nRF*%
%TO.N,VDD*%
X73664167Y-96690089D03*
%TO.P,U6,15,TRACECLK/P0.07*%
%TO.N,LED_SDI*%
X74441985Y-97467907D03*
%TO.P,U6,16,TRACEDATA3/P1.09*%
%TO.N,LED_CLK*%
X75219802Y-98245724D03*
%TO.P,U6,17,TRACEDATA1/P0.12*%
%TO.N,LED_LA*%
X75997620Y-99023542D03*
%TO.P,U6,18,P0.23*%
%TO.N,LED_OE*%
X76775437Y-99801359D03*
%TO.P,U6,19,P0.21*%
%TO.N,MOT_DRV2*%
X77553254Y-100579177D03*
%TO.P,U6,20,P0.19*%
%TO.N,MOT_DRV1*%
X78331072Y-101356994D03*
%TO.P,U6,21,nRESET/P0.18*%
%TO.N,/MCU/nRESET*%
X79108889Y-102134811D03*
%TO.P,U6,22,VBUS*%
%TO.N,unconnected-(U6-VBUS-Pad22)*%
X79886707Y-102912629D03*
%TO.P,U6,23,D-*%
%TO.N,unconnected-(U6-D--Pad23)*%
X80664524Y-103690446D03*
%TO.P,U6,24,D+*%
%TO.N,unconnected-(U6-D+-Pad24)*%
X81442342Y-104468264D03*
D22*
%TO.P,U6,25,GND*%
%TO.N,GND*%
X81265565Y-107119914D03*
%TO.P,U6,26,P0.22*%
%TO.N,LED_PWR*%
X80487748Y-107897732D03*
%TO.P,U6,27,TRACEDATA0/P1.00*%
%TO.N,unconnected-(U6-TRACEDATA0{slash}P1.00-Pad27)*%
X79709930Y-108675549D03*
%TO.P,U6,28,P1.03*%
%TO.N,unconnected-(U6-P1.03-Pad28)*%
X78932113Y-109453367D03*
%TO.P,U6,29,P1.01*%
%TO.N,unconnected-(U6-P1.01-Pad29)*%
X78154295Y-110231184D03*
%TO.P,U6,30,P1.02*%
%TO.N,unconnected-(U6-P1.02-Pad30)*%
X77376478Y-111009002D03*
%TO.P,U6,31,SWDCLK*%
%TO.N,/MCU/SWDCLK*%
X76598660Y-111786819D03*
%TO.P,U6,32,SWDIO*%
%TO.N,/MCU/SWDIO*%
X75820843Y-112564636D03*
%TO.P,U6,33,P1.04*%
%TO.N,unconnected-(U6-P1.04-Pad33)*%
X75043025Y-113342454D03*
%TO.P,U6,34,P1.06*%
%TO.N,unconnected-(U6-P1.06-Pad34)*%
X74265208Y-114120271D03*
%TO.P,U6,35,NFC1/P0.09*%
%TO.N,unconnected-(U6-NFC1{slash}P0.09-Pad35)*%
X73487390Y-114898089D03*
%TO.P,U6,36,NFC2/P0.10*%
%TO.N,unconnected-(U6-NFC2{slash}P0.10-Pad36)*%
X72709573Y-115675906D03*
%TO.P,U6,37,GND*%
%TO.N,GND*%
X71931756Y-116453724D03*
D24*
%TO.P,U6,38,P1.14*%
%TO.N,unconnected-(U6-P1.14-Pad38)*%
X65355662Y-106766361D03*
%TO.P,U6,39,P1.12*%
%TO.N,unconnected-(U6-P1.12-Pad39)*%
X66133480Y-105988543D03*
%TO.P,U6,40,P0.25*%
%TO.N,unconnected-(U6-P0.25-Pad40)*%
X66911297Y-105210726D03*
%TO.P,U6,41,P0.11/TRACEDATA2*%
%TO.N,unconnected-(U6-P0.11{slash}TRACEDATA2-Pad41)*%
X67689115Y-104432909D03*
%TO.P,U6,42,P1.08*%
%TO.N,unconnected-(U6-P1.08-Pad42)*%
X68466932Y-103655091D03*
%TO.P,U6,43,P0.27*%
%TO.N,unconnected-(U6-P0.27-Pad43)*%
X69244750Y-102877274D03*
%TO.P,U6,44,P0.08*%
%TO.N,unconnected-(U6-P0.08-Pad44)*%
X70022567Y-102099456D03*
%TO.P,U6,45,P0.06*%
%TO.N,unconnected-(U6-P0.06-Pad45)*%
X70800385Y-101321639D03*
%TO.P,U6,46,P0.26*%
%TO.N,unconnected-(U6-P0.26-Pad46)*%
X71578202Y-100543821D03*
%TO.P,U6,47,P1.07*%
%TO.N,unconnected-(U6-P1.07-Pad47)*%
X71366070Y-112776769D03*
%TO.P,U6,48,P1.05*%
%TO.N,unconnected-(U6-P1.05-Pad48)*%
X72143888Y-111998951D03*
%TO.P,U6,49,P0.24*%
%TO.N,unconnected-(U6-P0.24-Pad49)*%
X72921705Y-111221134D03*
%TO.P,U6,50,P0.20*%
%TO.N,unconnected-(U6-P0.20-Pad50)*%
X73699522Y-110443316D03*
%TO.P,U6,51,P0.17*%
%TO.N,unconnected-(U6-P0.17-Pad51)*%
X74477340Y-109665499D03*
%TO.P,U6,52,P0.15*%
%TO.N,unconnected-(U6-P0.15-Pad52)*%
X75255157Y-108887681D03*
%TO.P,U6,53,P0.14*%
%TO.N,unconnected-(U6-P0.14-Pad53)*%
X76032975Y-108109864D03*
%TO.P,U6,54,P0.13*%
%TO.N,unconnected-(U6-P0.13-Pad54)*%
X76810792Y-107332046D03*
%TO.P,U6,55,P0.16*%
%TO.N,unconnected-(U6-P0.16-Pad55)*%
X77588610Y-106554229D03*
%TD*%
D25*
%TO.P,U2,1,CE/VOUT*%
%TO.N,LED_PWR*%
X93466124Y-104968457D03*
%TO.P,U2,2,Lx/EXT*%
%TO.N,Net-(D43-A)*%
X94137875Y-104296706D03*
%TO.P,U2,3,NC*%
%TO.N,unconnected-(U2-NC-Pad3)*%
X94809626Y-103624955D03*
%TO.P,U2,4,Vss*%
%TO.N,GND*%
X96418294Y-105233623D03*
%TO.P,U2,5,Vout*%
%TO.N,VEE*%
X95074792Y-106577125D03*
%TD*%
D26*
%TO.P,D42,1,K*%
%TO.N,VDD*%
X66113604Y-91363603D03*
%TO.P,D42,2,A*%
%TO.N,Net-(D42-A)*%
X63780152Y-89030151D03*
%TD*%
D27*
%TO.P,D44,1,K*%
%TO.N,VCC*%
X80271529Y-81083272D03*
%TO.P,D44,2,A*%
%TO.N,Net-(D44-A)*%
X82604981Y-83416724D03*
%TD*%
D28*
%TO.P,C9,1*%
%TO.N,VDD*%
X72744929Y-94922322D03*
%TO.P,C9,2*%
%TO.N,GND*%
X71525169Y-93702562D03*
%TD*%
D29*
%TO.P,D43,1,K*%
%TO.N,VEE*%
X93950395Y-110771847D03*
%TO.P,D43,2,A*%
%TO.N,Net-(D43-A)*%
X96283847Y-108438395D03*
%TD*%
D30*
%TO.P,C7,1*%
%TO.N,VCC*%
X85071178Y-100646446D03*
%TO.P,C7,2*%
%TO.N,GND*%
X83346178Y-100646446D03*
%TD*%
D31*
%TO.P,L1,1,1*%
%TO.N,BATT_V*%
X62931624Y-87686649D03*
%TO.P,L1,2,2*%
%TO.N,Net-(D42-A)*%
X61305278Y-89312995D03*
%TD*%
D21*
%TO.P,C5,1*%
%TO.N,BATT_V*%
X96082064Y-96949514D03*
%TO.P,C5,2*%
%TO.N,GND*%
X92475820Y-100555758D03*
%TD*%
D11*
%TO.P,C4,1*%
%TO.N,VEE*%
X92856244Y-108106242D03*
%TO.P,C4,2*%
%TO.N,GND*%
X89250000Y-104499998D03*
%TD*%
D32*
%TO.P,U4,1,IN1*%
%TO.N,MOT_DRV1*%
X84728678Y-103008445D03*
%TO.P,U4,2,IN2*%
%TO.N,MOT_DRV2*%
X84728678Y-102508445D03*
%TO.P,U4,3,GND*%
%TO.N,GND*%
X84728678Y-102008445D03*
%TO.P,U4,4,OUT2*%
%TO.N,Net-(M1--)*%
X86228678Y-102008445D03*
%TO.P,U4,5,VM*%
%TO.N,VCC*%
X86228678Y-102508445D03*
%TO.P,U4,6,OUT1*%
%TO.N,Net-(U4-OUT1)*%
X86228678Y-103008445D03*
%TD*%
D33*
%TO.P,R1,1*%
%TO.N,Net-(U4-OUT1)*%
X85740677Y-104646446D03*
%TO.P,R1,2*%
%TO.N,/mot_v1*%
X85740677Y-106646446D03*
%TD*%
D34*
%TO.P,U3,1,CE/VOUT*%
%TO.N,MOT_PWR*%
X79757815Y-83446070D03*
%TO.P,U3,2,Lx/EXT*%
%TO.N,Net-(D44-A)*%
X79086064Y-84117821D03*
%TO.P,U3,3,NC*%
%TO.N,unconnected-(U3-NC-Pad3)*%
X78414313Y-84789572D03*
%TO.P,U3,4,Vss*%
%TO.N,GND*%
X76805645Y-83180904D03*
%TO.P,U3,5,Vout*%
%TO.N,VCC*%
X78149147Y-81837402D03*
%TD*%
D35*
%TO.P,C1,1*%
%TO.N,BATT_V*%
X65643756Y-84143756D03*
%TO.P,C1,2*%
%TO.N,GND*%
X69250000Y-87750000D03*
%TD*%
D36*
%TO.P,L2,1,1*%
%TO.N,BATT_V*%
X95304247Y-101624902D03*
%TO.P,L2,2,2*%
%TO.N,Net-(D43-A)*%
X96930593Y-103251248D03*
%TD*%
D37*
%TO.N,GND*%
X85000000Y-116500000D03*
%TO.N,/MCU/SWDCLK*%
X79300000Y-113025000D03*
%TO.N,GND*%
X80500000Y-111500000D03*
X78500000Y-115500000D03*
%TO.N,/MCU/SWDIO*%
X80750000Y-113750000D03*
%TO.N,VDD*%
X75708477Y-95533745D03*
%TO.N,VEE*%
X98571178Y-94396446D03*
%TO.N,VCC*%
X84321178Y-96396446D03*
X81821178Y-87146446D03*
%TO.N,GND*%
X81821178Y-100646446D03*
X70821178Y-80646446D03*
X89571178Y-101646446D03*
X92821178Y-103146446D03*
X95618689Y-105848936D03*
X69321178Y-84146446D03*
X73821178Y-90896446D03*
X92250000Y-86750000D03*
%TO.N,Net-(M1--)*%
X88821178Y-96396446D03*
%TO.N,LEDg1*%
X81625602Y-93978083D03*
X73190234Y-100527390D03*
%TO.N,LEDg2*%
X74447706Y-100760262D03*
X82350860Y-94864881D03*
%TO.N,LEDg3*%
X82986660Y-95636089D03*
X75589833Y-100877791D03*
%TO.N,LED_PWR*%
X84321178Y-108396446D03*
X89821178Y-108396446D03*
%TO.N,MOT_PWR*%
X76321178Y-81146446D03*
X63500000Y-101750000D03*
D38*
%TO.N,BATT_V*%
X79651036Y-88726304D03*
D37*
X73500000Y-89249999D03*
X74250000Y-92750000D03*
X71250000Y-95750000D03*
D38*
X94321178Y-98646446D03*
D37*
%TO.N,TEMP*%
X62750000Y-97750000D03*
X64500000Y-99500000D03*
%TO.N,BTN_L*%
X66821178Y-103396446D03*
X82527933Y-91671946D03*
%TO.N,BTN_C*%
X67571178Y-102646446D03*
X81821178Y-92396446D03*
%TO.N,BTN_R*%
X81071178Y-93146446D03*
X68321178Y-101896446D03*
%TO.N,/MCU/nRESET*%
X78321178Y-104396446D03*
%TO.N,/mot_v1*%
X88071178Y-100146446D03*
%TD*%
D39*
%TO.N,/MCU/SWDCLK*%
X77836841Y-113025000D02*
X76598660Y-111786819D01*
X79300000Y-113025000D02*
X77836841Y-113025000D01*
%TO.N,VDD*%
X75045302Y-94922322D02*
X81821178Y-88146446D01*
X82275594Y-88146446D02*
X82874680Y-87547360D01*
X73664167Y-96690089D02*
X74820511Y-95533745D01*
X64419060Y-93500000D02*
X62209530Y-95709530D01*
X63276338Y-92627557D02*
X68659651Y-92627558D01*
X72744929Y-94922322D02*
X75045302Y-94922322D01*
X91350000Y-87200000D02*
X93525000Y-89375000D01*
X82874680Y-87547360D02*
X85066244Y-87547360D01*
X81821178Y-88146446D02*
X82275594Y-88146446D01*
X67441901Y-89801868D02*
X69168117Y-91528085D01*
X69168117Y-92476882D02*
X69168117Y-92119092D01*
X72744929Y-94922322D02*
X71613557Y-94922322D01*
X72744928Y-94922321D02*
X73664167Y-95841560D01*
X69168117Y-92119092D02*
X67787209Y-93500000D01*
X73664167Y-95841560D02*
X73664167Y-96690088D01*
X74820511Y-95533745D02*
X75708477Y-95533745D01*
X85066244Y-87547360D02*
X85413604Y-87200000D01*
X66113605Y-91363604D02*
X68412628Y-91363604D01*
X85413604Y-87200000D02*
X91350000Y-87200000D01*
X71613557Y-94922322D02*
X69168117Y-92476882D01*
X67787209Y-93500000D02*
X64419060Y-93500000D01*
%TO.N,VEE*%
X97321178Y-109896446D02*
X98571178Y-108646446D01*
X97071178Y-98646446D02*
X98571178Y-97146446D01*
X93950394Y-110771848D02*
X92856243Y-109677695D01*
X91571178Y-110896446D02*
X93321178Y-112646446D01*
X97071178Y-101396446D02*
X97071178Y-98646446D01*
X91571178Y-109396446D02*
X91571178Y-110896446D01*
X97321178Y-110646446D02*
X97321178Y-109896446D01*
X98571178Y-97146446D02*
X98571178Y-94396446D01*
X95321178Y-112646446D02*
X97321178Y-110646446D01*
X93321178Y-112646446D02*
X95321178Y-112646446D01*
X95074791Y-106577126D02*
X93545673Y-108106244D01*
X92856244Y-108106242D02*
X92856243Y-109618244D01*
X98571178Y-102896446D02*
X97071178Y-101396446D01*
X98571178Y-108646446D02*
X98571178Y-102896446D01*
X93545673Y-108106244D02*
X92856244Y-108106242D01*
X92856244Y-108111380D02*
X91571178Y-109396446D01*
X92856243Y-109677695D02*
X92856243Y-109618244D01*
%TO.N,VCC*%
X86071178Y-98146446D02*
X84321178Y-96396446D01*
X84821178Y-84896446D02*
X84018056Y-85699568D01*
X86171178Y-98146446D02*
X86171178Y-99546446D01*
X81080458Y-80274343D02*
X81699075Y-80274343D01*
X78149146Y-81837402D02*
X78561745Y-82249998D01*
X80271528Y-81083274D02*
X81080458Y-80274343D01*
X82200516Y-81704111D02*
X84018056Y-83521651D01*
X81984141Y-81704111D02*
X82200516Y-81704111D01*
X86171178Y-98146446D02*
X86071178Y-98146446D01*
X82571178Y-87146446D02*
X84018056Y-85699568D01*
X81438255Y-82249998D02*
X81984141Y-81704111D01*
X85403678Y-102396446D02*
X85515677Y-102508445D01*
X81699075Y-80274343D02*
X84821178Y-83396446D01*
X78561745Y-82249998D02*
X81438255Y-82249998D01*
X84018056Y-83521651D02*
X84018056Y-85699568D01*
X85515677Y-102508445D02*
X86228678Y-102508445D01*
X85071178Y-100646446D02*
X85403678Y-100978946D01*
X85403678Y-100978946D02*
X85403678Y-102396446D01*
X84821178Y-83396446D02*
X84821178Y-84896446D01*
X86171178Y-99546446D02*
X85071178Y-100646446D01*
X81821178Y-87146446D02*
X82571178Y-87146446D01*
%TO.N,GND*%
X96418294Y-105233623D02*
X96234002Y-105233623D01*
X71931756Y-116453724D02*
X72624478Y-117146446D01*
X61678707Y-106200675D02*
X60821178Y-105343146D01*
X60750000Y-94000000D02*
X60750000Y-97250000D01*
X60821178Y-105343146D02*
X60821178Y-103646446D01*
X76805645Y-83180904D02*
X74271187Y-80646446D01*
X72624478Y-117146446D02*
X74321178Y-117146446D01*
X74271187Y-80646446D02*
X70821178Y-80646446D01*
X83346178Y-100646446D02*
X83366679Y-100646446D01*
X83366679Y-100646446D02*
X84728678Y-102008445D01*
X63821178Y-107146446D02*
X71321178Y-114646446D01*
X61678707Y-106200675D02*
X62624478Y-107146446D01*
X71321178Y-114646446D02*
X71321178Y-115646446D01*
X83346178Y-100646446D02*
X81821178Y-100646446D01*
X96234002Y-105233623D02*
X95618689Y-105848936D01*
X62624478Y-107146446D02*
X63821178Y-107146446D01*
%TO.N,Net-(M1--)*%
X87621178Y-97596446D02*
X87621178Y-99441946D01*
X88821178Y-96396446D02*
X87621178Y-97596446D01*
X86228678Y-100834446D02*
X86228678Y-102008445D01*
X87621178Y-99441946D02*
X86228678Y-100834446D01*
%TO.N,Net-(U4-OUT1)*%
X86228679Y-103008445D02*
X86228678Y-104158447D01*
%TO.N,LEDg1*%
X81625602Y-93978083D02*
X87651917Y-93978083D01*
X72353112Y-99690268D02*
X69169014Y-99690268D01*
X69169014Y-99690268D02*
X68679064Y-99200318D01*
X72353112Y-99690268D02*
X73190234Y-100527390D01*
X87651917Y-93978083D02*
X90985000Y-90645000D01*
%TO.N,LEDg2*%
X82350860Y-94864881D02*
X88035119Y-94864881D01*
X72927712Y-99240268D02*
X74447706Y-100760262D01*
X70274649Y-99240268D02*
X72927712Y-99240268D01*
X88035119Y-94864881D02*
X92255000Y-90645000D01*
X69456882Y-98422501D02*
X70274649Y-99240268D01*
%TO.N,LEDg3*%
X71380284Y-98790268D02*
X73502310Y-98790268D01*
X88533911Y-95636089D02*
X93525000Y-90645000D01*
X73502310Y-98790268D02*
X75589833Y-100877791D01*
X82986660Y-95636089D02*
X88533911Y-95636089D01*
X70234699Y-97644683D02*
X71380284Y-98790268D01*
%TO.N,LED_PWR*%
X90107560Y-108327021D02*
X93466124Y-104968457D01*
X84321178Y-108396446D02*
X80986462Y-108396446D01*
X90107560Y-108327021D02*
X89890603Y-108327021D01*
X89890603Y-108327021D02*
X89821178Y-108396446D01*
X80986462Y-108396446D02*
X80487748Y-107897732D01*
%TO.N,MOT_PWR*%
X78349095Y-83174363D02*
X76321178Y-81146446D01*
X63500000Y-101799429D02*
X64789977Y-103089406D01*
X63500000Y-101750000D02*
X63500000Y-101799429D01*
X79486108Y-83174363D02*
X78349095Y-83174363D01*
X79757815Y-83446070D02*
X79486108Y-83174363D01*
%TO.N,MOT_DRV1*%
X78331072Y-101356994D02*
X78760362Y-100927704D01*
X79775614Y-100927704D02*
X81856355Y-103008445D01*
X81856355Y-103008445D02*
X84728678Y-103008445D01*
X78760362Y-100927704D02*
X79775614Y-100927704D01*
%TO.N,MOT_DRV2*%
X77982544Y-100149887D02*
X79634193Y-100149887D01*
X81992751Y-102508445D02*
X84728678Y-102508445D01*
X77553254Y-100579177D02*
X77982544Y-100149887D01*
X79634193Y-100149887D02*
X81992751Y-102508445D01*
%TO.N,BATT_V*%
X94385132Y-98646446D02*
X96082064Y-96949514D01*
X73667934Y-89082065D02*
X76775592Y-89082065D01*
X94321178Y-98646446D02*
X94385132Y-98646446D01*
X75500001Y-91499999D02*
X75500001Y-91250000D01*
X96082066Y-96949512D02*
X96082065Y-100847086D01*
X74250000Y-92750000D02*
X75500001Y-91499999D01*
D40*
X72847687Y-82396446D02*
X67391066Y-82396446D01*
X75467138Y-87282861D02*
X73500000Y-89249999D01*
X75467138Y-85015897D02*
X75467138Y-87282861D01*
D39*
X71012517Y-96866866D02*
X71012517Y-95987483D01*
D40*
X67391066Y-82396446D02*
X65643756Y-84143756D01*
D39*
X62931624Y-86855888D02*
X65643756Y-84143756D01*
X96082065Y-100847086D02*
X95304247Y-101624902D01*
X77500000Y-91249998D02*
X77798388Y-91249998D01*
X78649425Y-87208232D02*
X78649425Y-87194090D01*
X79651036Y-89397350D02*
X79651036Y-88726304D01*
X66151431Y-84651431D02*
X65643756Y-84143756D01*
X73500000Y-89249999D02*
X75500001Y-91250000D01*
X75500001Y-91250000D02*
X77500000Y-91249998D01*
X62931624Y-87686649D02*
X62931624Y-86855888D01*
X71012517Y-95987483D02*
X71250000Y-95750000D01*
X76775592Y-89082065D02*
X78649425Y-87208232D01*
X66151431Y-88511398D02*
X66151431Y-84651431D01*
D40*
X72847687Y-82396446D02*
X75467138Y-85015897D01*
D39*
X77798388Y-91249998D02*
X79651036Y-89397350D01*
X73500000Y-89249999D02*
X73667934Y-89082065D01*
%TO.N,TEMP*%
X62750000Y-97750000D02*
X63500000Y-97000000D01*
X67423111Y-99500000D02*
X64500000Y-99500000D01*
X67901247Y-99978136D02*
X67423111Y-99500000D01*
%TO.N,LED_SDI*%
X85600000Y-87650000D02*
X89260000Y-87650000D01*
X83033436Y-88025000D02*
X85225000Y-88025000D01*
X89260000Y-87650000D02*
X90985000Y-89375000D01*
X74799620Y-97467907D02*
X78996178Y-93271349D01*
X78996178Y-92062258D02*
X83033436Y-88025000D01*
X85225000Y-88025000D02*
X85600000Y-87650000D01*
X78996178Y-93271349D02*
X78996178Y-92062258D01*
X74441985Y-97467907D02*
X74799620Y-97467907D01*
%TO.N,LED_CLK*%
X85875000Y-88100000D02*
X85500000Y-88475000D01*
X89715000Y-89215000D02*
X88600000Y-88100000D01*
X79446178Y-94019348D02*
X75219802Y-98245724D01*
X79446178Y-92248654D02*
X79446178Y-94019348D01*
X83219832Y-88475000D02*
X79446178Y-92248654D01*
X85500000Y-88475000D02*
X83219832Y-88475000D01*
X88600000Y-88100000D02*
X85875000Y-88100000D01*
X89715000Y-89375000D02*
X89715000Y-89215000D01*
%TO.N,LED_LA*%
X86125000Y-88550000D02*
X85750000Y-88925000D01*
X79896178Y-95124984D02*
X75997620Y-99023542D01*
X88445000Y-89375000D02*
X88445000Y-88667894D01*
X88327106Y-88550000D02*
X86125000Y-88550000D01*
X79896178Y-92435050D02*
X79896178Y-95124984D01*
X83406228Y-88925000D02*
X79896178Y-92435050D01*
X85750000Y-88925000D02*
X83406228Y-88925000D01*
X88445000Y-88667894D02*
X88327106Y-88550000D01*
%TO.N,LED_OE*%
X83592624Y-89375000D02*
X80346178Y-92621446D01*
X80346178Y-96230618D02*
X76775437Y-99801359D01*
X80346178Y-92621446D02*
X80346178Y-96230618D01*
X87175000Y-89375000D02*
X83592624Y-89375000D01*
%TO.N,BTN_L*%
X82571368Y-91715381D02*
X86951178Y-91715381D01*
X87175000Y-91491559D02*
X87175000Y-90645000D01*
X82527933Y-91671946D02*
X82571368Y-91715381D01*
X65736320Y-102311588D02*
X66821178Y-103396446D01*
X86951178Y-91715381D02*
X87175000Y-91491559D01*
X65567795Y-102311588D02*
X65736320Y-102311588D01*
%TO.N,BTN_C*%
X87103554Y-92396446D02*
X81821178Y-92396446D01*
X66345612Y-101533771D02*
X66458503Y-101533771D01*
X88445000Y-90645000D02*
X88445000Y-91055000D01*
X66458503Y-101533771D02*
X67571178Y-102646446D01*
X88445000Y-91055000D02*
X87103554Y-92396446D01*
%TO.N,BTN_R*%
X87213554Y-93146446D02*
X89715000Y-90645000D01*
X67123429Y-100755953D02*
X67180685Y-100755953D01*
X67180685Y-100755953D02*
X68321178Y-101896446D01*
X81071178Y-93146446D02*
X87213554Y-93146446D01*
%TO.N,/MCU/nRESET*%
X78321178Y-102922522D02*
X78321178Y-104396446D01*
X79108889Y-102134811D02*
X78321178Y-102922522D01*
%TO.N,/MCU/SWDIO*%
X77006207Y-113750000D02*
X80750000Y-113750000D01*
X75820843Y-112564636D02*
X77006207Y-113750000D01*
X75820841Y-112564637D02*
X76250131Y-112993926D01*
%TO.N,/mot_v1*%
X88071178Y-100146446D02*
X88071178Y-102961946D01*
X86821178Y-104211946D02*
X86821178Y-105646446D01*
X88071178Y-102961946D02*
X86821178Y-104211946D01*
X85821178Y-106646446D02*
X85740677Y-106646446D01*
X86821178Y-105646446D02*
X85821178Y-106646446D01*
%TO.N,Net-(D42-A)*%
X63780152Y-89030152D02*
X63497309Y-89312995D01*
X63497309Y-89312995D02*
X61305278Y-89312995D01*
X63780152Y-89472094D02*
X62622265Y-90629981D01*
X63780152Y-89030151D02*
X63780152Y-89472094D01*
%TO.N,Net-(D43-A)*%
X94409581Y-104568413D02*
X94137876Y-104296705D01*
X95613429Y-104568413D02*
X94409581Y-104568413D01*
X97361750Y-107360491D02*
X96283847Y-108438394D01*
X96930593Y-103251249D02*
X95613429Y-104568413D01*
X96930593Y-103251249D02*
X97361752Y-103682408D01*
X97361752Y-103682408D02*
X97361750Y-107360491D01*
%TO.N,Net-(D44-A)*%
X79086064Y-84117821D02*
X80275771Y-85307527D01*
X80275771Y-85307527D02*
X80275772Y-85567744D01*
X80453962Y-85567745D02*
X80275772Y-85567744D01*
X82604981Y-83416726D02*
X80453962Y-85567745D01*
%TD*%
%TA.AperFunction,Conductor*%
%TO.N,GND*%
G36*
X79462260Y-78058611D02*
G01*
X80375367Y-78096880D01*
X80380625Y-78097210D01*
X81291412Y-78173691D01*
X81296600Y-78174236D01*
X82203351Y-78288786D01*
X82208551Y-78289553D01*
X82920353Y-78409945D01*
X83109733Y-78441976D01*
X83114915Y-78442964D01*
X84008926Y-78632993D01*
X84014026Y-78634190D01*
X84899246Y-78861476D01*
X84904290Y-78862884D01*
X85779298Y-79127064D01*
X85784269Y-79128680D01*
X86647365Y-79429242D01*
X86652289Y-79431072D01*
X87502111Y-79767541D01*
X87506952Y-79769577D01*
X87623405Y-79821426D01*
X87677501Y-79867406D01*
X87698150Y-79935333D01*
X87678797Y-80003641D01*
X87625586Y-80050642D01*
X87572156Y-80062532D01*
X87500349Y-80062532D01*
X87327927Y-80103396D01*
X87169579Y-80182922D01*
X87169578Y-80182923D01*
X87088670Y-80248830D01*
X86613844Y-80723657D01*
X86613844Y-80723658D01*
X87624300Y-81734114D01*
X88993965Y-83103780D01*
X88993967Y-83103780D01*
X89468793Y-82628953D01*
X89534700Y-82548045D01*
X89534701Y-82548044D01*
X89614227Y-82389696D01*
X89655092Y-82217275D01*
X89655092Y-82040083D01*
X89614227Y-81867662D01*
X89534701Y-81709314D01*
X89534700Y-81709313D01*
X89468793Y-81628405D01*
X88173352Y-80332964D01*
X88139326Y-80270652D01*
X88144391Y-80199837D01*
X88186938Y-80143001D01*
X88253458Y-80118190D01*
X88313697Y-80128763D01*
X88341877Y-80141310D01*
X88346651Y-80143556D01*
X89165280Y-80549927D01*
X89169924Y-80552354D01*
X89970862Y-80992673D01*
X89975406Y-80995298D01*
X90155713Y-81104495D01*
X90757170Y-81468751D01*
X90761626Y-81471579D01*
X91522868Y-81977347D01*
X91527202Y-81980359D01*
X92211227Y-82477333D01*
X92266598Y-82517562D01*
X92270799Y-82520751D01*
X92885186Y-83007709D01*
X92987036Y-83088434D01*
X92991099Y-83091796D01*
X93644830Y-83656080D01*
X93682938Y-83688974D01*
X93686860Y-83692505D01*
X94353093Y-84318138D01*
X94356864Y-84321830D01*
X94973830Y-84951856D01*
X94996353Y-84974855D01*
X94999953Y-84978690D01*
X95101806Y-85091809D01*
X95611477Y-85657857D01*
X95614926Y-85661852D01*
X96197505Y-86366069D01*
X96200783Y-86370205D01*
X96753343Y-87098176D01*
X96756445Y-87102445D01*
X97278058Y-87852950D01*
X97280978Y-87857346D01*
X97624527Y-88398692D01*
X97723885Y-88555255D01*
X97770678Y-88628988D01*
X97773410Y-88633499D01*
X97892819Y-88840322D01*
X98230379Y-89424993D01*
X98232922Y-89429618D01*
X98397861Y-89745118D01*
X98649879Y-90227185D01*
X98656349Y-90239560D01*
X98658693Y-90244284D01*
X98664772Y-90257202D01*
X99047822Y-91071222D01*
X99049969Y-91076043D01*
X99404145Y-91918595D01*
X99406071Y-91923461D01*
X99722648Y-92774706D01*
X99724651Y-92780091D01*
X99726386Y-92785075D01*
X100008824Y-93654329D01*
X100010349Y-93659381D01*
X100256116Y-94539619D01*
X100257429Y-94544731D01*
X100466133Y-95434550D01*
X100467230Y-95439712D01*
X100638483Y-96337452D01*
X100639363Y-96342655D01*
X100772871Y-97246767D01*
X100773533Y-97252003D01*
X100869069Y-98160971D01*
X100869510Y-98166230D01*
X100894168Y-98558152D01*
X100878483Y-98627395D01*
X100827853Y-98677165D01*
X100758352Y-98691661D01*
X100711215Y-98678331D01*
X100575999Y-98609435D01*
X100575994Y-98609433D01*
X100575992Y-98609432D01*
X100351368Y-98536447D01*
X100118092Y-98499500D01*
X99881908Y-98499500D01*
X99648632Y-98536447D01*
X99648629Y-98536447D01*
X99648628Y-98536448D01*
X99424008Y-98609432D01*
X99424006Y-98609433D01*
X99213563Y-98716659D01*
X99022487Y-98855484D01*
X98855484Y-99022487D01*
X98716659Y-99213563D01*
X98609433Y-99424006D01*
X98609432Y-99424008D01*
X98536449Y-99648627D01*
X98536447Y-99648632D01*
X98499500Y-99881908D01*
X98499500Y-100118092D01*
X98536447Y-100351368D01*
X98609432Y-100575992D01*
X98716657Y-100786433D01*
X98716659Y-100786436D01*
X98855484Y-100977512D01*
X99022487Y-101144515D01*
X99116828Y-101213058D01*
X99213567Y-101283343D01*
X99424008Y-101390568D01*
X99648632Y-101463553D01*
X99881908Y-101500500D01*
X99881911Y-101500500D01*
X100118089Y-101500500D01*
X100118092Y-101500500D01*
X100351368Y-101463553D01*
X100575992Y-101390568D01*
X100711217Y-101321667D01*
X100780991Y-101308564D01*
X100846775Y-101335264D01*
X100887682Y-101393291D01*
X100894168Y-101441847D01*
X100869510Y-101833768D01*
X100869069Y-101839027D01*
X100773533Y-102747995D01*
X100772871Y-102753231D01*
X100639363Y-103657343D01*
X100638483Y-103662546D01*
X100467230Y-104560286D01*
X100466133Y-104565448D01*
X100257429Y-105455267D01*
X100256116Y-105460379D01*
X100010349Y-106340617D01*
X100008824Y-106345669D01*
X99726386Y-107214923D01*
X99724651Y-107219904D01*
X99448774Y-107961713D01*
X99406283Y-108018588D01*
X99339786Y-108043462D01*
X99270398Y-108028437D01*
X99220148Y-107978283D01*
X99204678Y-107917792D01*
X99204678Y-102834053D01*
X99204677Y-102834049D01*
X99203765Y-102829464D01*
X99180333Y-102711661D01*
X99132578Y-102596371D01*
X99063249Y-102492613D01*
X98975011Y-102404375D01*
X97741583Y-101170947D01*
X97707557Y-101108635D01*
X97704678Y-101081852D01*
X97704678Y-98961040D01*
X97724680Y-98892919D01*
X97741583Y-98871945D01*
X98397938Y-98215590D01*
X99063249Y-97550279D01*
X99132578Y-97446521D01*
X99180333Y-97331231D01*
X99204678Y-97208840D01*
X99204678Y-97084053D01*
X99204678Y-95098970D01*
X99224680Y-95030849D01*
X99237036Y-95014666D01*
X99310218Y-94933390D01*
X99405705Y-94768002D01*
X99464720Y-94586374D01*
X99484682Y-94396446D01*
X99464720Y-94206518D01*
X99405705Y-94024890D01*
X99310218Y-93859502D01*
X99310216Y-93859500D01*
X99310212Y-93859494D01*
X99182433Y-93717581D01*
X99027930Y-93605328D01*
X98853466Y-93527652D01*
X98666665Y-93487946D01*
X98475691Y-93487946D01*
X98288889Y-93527652D01*
X98114425Y-93605328D01*
X97959922Y-93717581D01*
X97832143Y-93859494D01*
X97832136Y-93859504D01*
X97751021Y-94000000D01*
X97736651Y-94024890D01*
X97727628Y-94052661D01*
X97677635Y-94206518D01*
X97657674Y-94396446D01*
X97677635Y-94586373D01*
X97695426Y-94641127D01*
X97736651Y-94768002D01*
X97736654Y-94768007D01*
X97812101Y-94898686D01*
X97832138Y-94933390D01*
X97905315Y-95014661D01*
X97936031Y-95078666D01*
X97937678Y-95098970D01*
X97937678Y-96190820D01*
X97917676Y-96258941D01*
X97864020Y-96305434D01*
X97793746Y-96315538D01*
X97729166Y-96286044D01*
X97722583Y-96279915D01*
X96547308Y-95104641D01*
X96466351Y-95038691D01*
X96307898Y-94959112D01*
X96276839Y-94951751D01*
X96135364Y-94918221D01*
X95958053Y-94918221D01*
X95850312Y-94943756D01*
X95785519Y-94959112D01*
X95753271Y-94975308D01*
X95627068Y-95038690D01*
X95627067Y-95038691D01*
X95627058Y-95038696D01*
X95546104Y-95104644D01*
X94237191Y-96413558D01*
X94171241Y-96494515D01*
X94091662Y-96652969D01*
X94084838Y-96681761D01*
X94050771Y-96825503D01*
X94050771Y-97002814D01*
X94085359Y-97148752D01*
X94091662Y-97175348D01*
X94171241Y-97333801D01*
X94171242Y-97333802D01*
X94187834Y-97354170D01*
X94215350Y-97419617D01*
X94203114Y-97489551D01*
X94155012Y-97541769D01*
X94113299Y-97557603D01*
X94016526Y-97575694D01*
X94016523Y-97575694D01*
X94016523Y-97575695D01*
X93824960Y-97649906D01*
X93824959Y-97649906D01*
X93824958Y-97649907D01*
X93824954Y-97649909D01*
X93650294Y-97758054D01*
X93498475Y-97896455D01*
X93374675Y-98060395D01*
X93374671Y-98060400D01*
X93283107Y-98244285D01*
X93283101Y-98244301D01*
X93226884Y-98441883D01*
X93207929Y-98646446D01*
X93209638Y-98664886D01*
X93196006Y-98734562D01*
X93146868Y-98785807D01*
X93077826Y-98802351D01*
X93010800Y-98778942D01*
X92995080Y-98765606D01*
X92940738Y-98711264D01*
X92859830Y-98645357D01*
X92859829Y-98645356D01*
X92701481Y-98565830D01*
X92529060Y-98524966D01*
X92351869Y-98524966D01*
X92179447Y-98565830D01*
X92021099Y-98645356D01*
X92021098Y-98645357D01*
X91940190Y-98711264D01*
X91465364Y-99186091D01*
X91465364Y-99186092D01*
X92745934Y-100466662D01*
X92779960Y-100528974D01*
X92774895Y-100599789D01*
X92745934Y-100644852D01*
X91500719Y-101890067D01*
X91500719Y-101890069D01*
X92010901Y-102400251D01*
X92091809Y-102466158D01*
X92091810Y-102466159D01*
X92250158Y-102545685D01*
X92422580Y-102586550D01*
X92599771Y-102586550D01*
X92772192Y-102545685D01*
X92930540Y-102466159D01*
X92930541Y-102466158D01*
X93011449Y-102400251D01*
X93888710Y-101522991D01*
X93951022Y-101488965D01*
X94021837Y-101494030D01*
X94078673Y-101536577D01*
X94103484Y-101603097D01*
X94103805Y-101612086D01*
X94103805Y-101766591D01*
X94144696Y-101939124D01*
X94144697Y-101939127D01*
X94224270Y-102097569D01*
X94224272Y-102097572D01*
X94224274Y-102097575D01*
X94290224Y-102178535D01*
X94290228Y-102178539D01*
X94290235Y-102178547D01*
X94424968Y-102313280D01*
X94458994Y-102375592D01*
X94453929Y-102446407D01*
X94411382Y-102503243D01*
X94367209Y-102524416D01*
X94308963Y-102539371D01*
X94308961Y-102539372D01*
X94163176Y-102619519D01*
X94163162Y-102619528D01*
X94134697Y-102643838D01*
X93828509Y-102950026D01*
X93804199Y-102978491D01*
X93804190Y-102978505D01*
X93724043Y-103124290D01*
X93721123Y-103131666D01*
X93719089Y-103130860D01*
X93688516Y-103182218D01*
X93643935Y-103206560D01*
X93644586Y-103208203D01*
X93637210Y-103211123D01*
X93491425Y-103291270D01*
X93491411Y-103291279D01*
X93462946Y-103315589D01*
X93156758Y-103621777D01*
X93132448Y-103650242D01*
X93132439Y-103650256D01*
X93052292Y-103796041D01*
X93049372Y-103803417D01*
X93047338Y-103802611D01*
X93016765Y-103853969D01*
X92972184Y-103878311D01*
X92972835Y-103879954D01*
X92965459Y-103882874D01*
X92819674Y-103963021D01*
X92819660Y-103963030D01*
X92791195Y-103987340D01*
X92485007Y-104293528D01*
X92460697Y-104321993D01*
X92460688Y-104322007D01*
X92380541Y-104467792D01*
X92380540Y-104467796D01*
X92339166Y-104628935D01*
X92339165Y-104628945D01*
X92339165Y-104795316D01*
X92339166Y-104795326D01*
X92379591Y-104952767D01*
X92380541Y-104956467D01*
X92406504Y-105003693D01*
X92421794Y-105073023D01*
X92397174Y-105139614D01*
X92385185Y-105153489D01*
X90075604Y-107463071D01*
X90013292Y-107497096D01*
X89960313Y-107497223D01*
X89916667Y-107487946D01*
X89916665Y-107487946D01*
X89725691Y-107487946D01*
X89538889Y-107527652D01*
X89364425Y-107605328D01*
X89209922Y-107717581D01*
X89082143Y-107859494D01*
X89082136Y-107859504D01*
X88986654Y-108024884D01*
X88986651Y-108024891D01*
X88927635Y-108206518D01*
X88907674Y-108396446D01*
X88927635Y-108586373D01*
X88951737Y-108660550D01*
X88986651Y-108768002D01*
X88986652Y-108768003D01*
X88986654Y-108768007D01*
X89082136Y-108933387D01*
X89082143Y-108933397D01*
X89209922Y-109075310D01*
X89209925Y-109075312D01*
X89364426Y-109187564D01*
X89538890Y-109265240D01*
X89725691Y-109304946D01*
X89916665Y-109304946D01*
X90103466Y-109265240D01*
X90277930Y-109187564D01*
X90432431Y-109075312D01*
X90435741Y-109071636D01*
X90560212Y-108933397D01*
X90560213Y-108933395D01*
X90560218Y-108933390D01*
X90655705Y-108768002D01*
X90691226Y-108658676D01*
X90721964Y-108608520D01*
X90767672Y-108562813D01*
X90829984Y-108528788D01*
X90900800Y-108533854D01*
X90954454Y-108572329D01*
X91011366Y-108642191D01*
X91011383Y-108642210D01*
X91131351Y-108762178D01*
X91165377Y-108824490D01*
X91160312Y-108895305D01*
X91131352Y-108940368D01*
X91079105Y-108992615D01*
X91079104Y-108992617D01*
X91023851Y-109075310D01*
X91009778Y-109096371D01*
X90962023Y-109211661D01*
X90954672Y-109248616D01*
X90937678Y-109334049D01*
X90937678Y-110958842D01*
X90944672Y-110994002D01*
X90962023Y-111081231D01*
X91009778Y-111196521D01*
X91079107Y-111300279D01*
X92917345Y-113138518D01*
X93021103Y-113207847D01*
X93102625Y-113241614D01*
X93136393Y-113255601D01*
X93258784Y-113279946D01*
X93258785Y-113279946D01*
X95383571Y-113279946D01*
X95383572Y-113279946D01*
X95505963Y-113255601D01*
X95621253Y-113207846D01*
X95725011Y-113138517D01*
X97446795Y-111416732D01*
X97509105Y-111382709D01*
X97579920Y-111387773D01*
X97636756Y-111430320D01*
X97661567Y-111496840D01*
X97646476Y-111566214D01*
X97642273Y-111573343D01*
X97280978Y-112142652D01*
X97278058Y-112147048D01*
X96756445Y-112897553D01*
X96753343Y-112901822D01*
X96200783Y-113629793D01*
X96197505Y-113633929D01*
X95614926Y-114338146D01*
X95611477Y-114342141D01*
X94999965Y-115021295D01*
X94996353Y-115025143D01*
X94356864Y-115678168D01*
X94353093Y-115681860D01*
X93686860Y-116307493D01*
X93682938Y-116311024D01*
X92991102Y-116908200D01*
X92987036Y-116911564D01*
X92270802Y-117479245D01*
X92266598Y-117482436D01*
X91527202Y-118019639D01*
X91522868Y-118022651D01*
X90761626Y-118528419D01*
X90757170Y-118531247D01*
X89975419Y-119004693D01*
X89970849Y-119007332D01*
X89169942Y-119447634D01*
X89165265Y-119450079D01*
X88346651Y-119856442D01*
X88341876Y-119858689D01*
X87506952Y-120230422D01*
X87502087Y-120232467D01*
X86652301Y-120568921D01*
X86647354Y-120570760D01*
X85784293Y-120871310D01*
X85779274Y-120872941D01*
X84904310Y-121137108D01*
X84899227Y-121138527D01*
X84014045Y-121365803D01*
X84008907Y-121367009D01*
X83114917Y-121557033D01*
X83109733Y-121558022D01*
X82208561Y-121710443D01*
X82203340Y-121711213D01*
X81296630Y-121825758D01*
X81291381Y-121826310D01*
X80380630Y-121902787D01*
X80375363Y-121903118D01*
X79462260Y-121941389D01*
X79456984Y-121941500D01*
X78543017Y-121941500D01*
X78537740Y-121941389D01*
X78486118Y-121939225D01*
X78418894Y-121916388D01*
X78402316Y-121902447D01*
X75389231Y-118890023D01*
X79329531Y-118890023D01*
X79329531Y-119036944D01*
X79350002Y-119139858D01*
X79358191Y-119181026D01*
X79414411Y-119316753D01*
X79468946Y-119398371D01*
X79496029Y-119438903D01*
X79496034Y-119438909D01*
X79599905Y-119542780D01*
X79599911Y-119542785D01*
X79722062Y-119624404D01*
X79857789Y-119680624D01*
X79981852Y-119705301D01*
X80001870Y-119709283D01*
X80001873Y-119709283D01*
X80001876Y-119709284D01*
X80001877Y-119709284D01*
X80148785Y-119709284D01*
X80148786Y-119709284D01*
X80292873Y-119680624D01*
X80428600Y-119624404D01*
X80550751Y-119542785D01*
X80654632Y-119438904D01*
X80736251Y-119316753D01*
X80792471Y-119181026D01*
X80821131Y-119036939D01*
X80821131Y-118890029D01*
X80792471Y-118745942D01*
X80736251Y-118610215D01*
X80654632Y-118488064D01*
X80654627Y-118488058D01*
X80550756Y-118384187D01*
X80550750Y-118384182D01*
X80476355Y-118334473D01*
X80428600Y-118302564D01*
X80292873Y-118246344D01*
X80251705Y-118238155D01*
X80148791Y-118217684D01*
X80148786Y-118217684D01*
X80001876Y-118217684D01*
X80001870Y-118217684D01*
X79878372Y-118242249D01*
X79857789Y-118246344D01*
X79857786Y-118246344D01*
X79857783Y-118246346D01*
X79722062Y-118302564D01*
X79599911Y-118384182D01*
X79599905Y-118384187D01*
X79496034Y-118488058D01*
X79496029Y-118488064D01*
X79414411Y-118610215D01*
X79358193Y-118745936D01*
X79358191Y-118745943D01*
X79329531Y-118890023D01*
X75389231Y-118890023D01*
X73952075Y-117453182D01*
X77892690Y-117453182D01*
X77892690Y-117600103D01*
X77913161Y-117703017D01*
X77921350Y-117744185D01*
X77977570Y-117879912D01*
X78032105Y-117961530D01*
X78059188Y-118002062D01*
X78059193Y-118002068D01*
X78163064Y-118105939D01*
X78163070Y-118105944D01*
X78285221Y-118187563D01*
X78420948Y-118243783D01*
X78545011Y-118268460D01*
X78565029Y-118272442D01*
X78565032Y-118272442D01*
X78565035Y-118272443D01*
X78565036Y-118272443D01*
X78711944Y-118272443D01*
X78711945Y-118272443D01*
X78856032Y-118243783D01*
X78991759Y-118187563D01*
X79113910Y-118105944D01*
X79217791Y-118002063D01*
X79299410Y-117879912D01*
X79355630Y-117744185D01*
X79384290Y-117600098D01*
X79384290Y-117453188D01*
X79355630Y-117309101D01*
X79299410Y-117173374D01*
X79217791Y-117051223D01*
X79217786Y-117051217D01*
X79113915Y-116947346D01*
X79113909Y-116947341D01*
X79061264Y-116912165D01*
X78991759Y-116865723D01*
X78856032Y-116809503D01*
X78814864Y-116801314D01*
X78711950Y-116780843D01*
X78711945Y-116780843D01*
X78565035Y-116780843D01*
X78565029Y-116780843D01*
X78441531Y-116805408D01*
X78420948Y-116809503D01*
X78420945Y-116809503D01*
X78420942Y-116809505D01*
X78285221Y-116865723D01*
X78163070Y-116947341D01*
X78163064Y-116947346D01*
X78059193Y-117051217D01*
X78059188Y-117051223D01*
X77977570Y-117173374D01*
X77921352Y-117309095D01*
X77921350Y-117309102D01*
X77892690Y-117453182D01*
X73952075Y-117453182D01*
X73596876Y-117098061D01*
X73562846Y-117035756D01*
X73567904Y-116964939D01*
X73605299Y-116912165D01*
X73613437Y-116905383D01*
X73939049Y-116579770D01*
X73983321Y-116526650D01*
X74060457Y-116379678D01*
X74068073Y-116348776D01*
X74103795Y-116287422D01*
X74160260Y-116256589D01*
X74191162Y-116248973D01*
X74338134Y-116171837D01*
X74391254Y-116127566D01*
X74716866Y-115801953D01*
X74761138Y-115748833D01*
X74838274Y-115601861D01*
X74845891Y-115570956D01*
X74881614Y-115509603D01*
X74938075Y-115478772D01*
X74968980Y-115471155D01*
X74968980Y-115471154D01*
X74968983Y-115471154D01*
X75115946Y-115394022D01*
X75115945Y-115394022D01*
X75115952Y-115394019D01*
X75169072Y-115349748D01*
X75494684Y-115024135D01*
X75538956Y-114971015D01*
X75616092Y-114824043D01*
X75623708Y-114793141D01*
X75659430Y-114731787D01*
X75715895Y-114700954D01*
X75746797Y-114693338D01*
X75893769Y-114616202D01*
X75946889Y-114571931D01*
X76272501Y-114246318D01*
X76316773Y-114193198D01*
X76318672Y-114189578D01*
X76320352Y-114187842D01*
X76320478Y-114187654D01*
X76320512Y-114187676D01*
X76368037Y-114138555D01*
X76437152Y-114122319D01*
X76504073Y-114146026D01*
X76519337Y-114159034D01*
X76602374Y-114242071D01*
X76706132Y-114311400D01*
X76821422Y-114359155D01*
X76943813Y-114383500D01*
X77068601Y-114383500D01*
X80041800Y-114383500D01*
X80109921Y-114403502D01*
X80135437Y-114425190D01*
X80138747Y-114428866D01*
X80293248Y-114541118D01*
X80467712Y-114618794D01*
X80654513Y-114658500D01*
X80845487Y-114658500D01*
X81032288Y-114618794D01*
X81206752Y-114541118D01*
X81361253Y-114428866D01*
X81384091Y-114403502D01*
X81489034Y-114286951D01*
X81489035Y-114286949D01*
X81489040Y-114286944D01*
X81584527Y-114121556D01*
X81643542Y-113939928D01*
X81663504Y-113750000D01*
X81643542Y-113560072D01*
X81584527Y-113378444D01*
X81489040Y-113213056D01*
X81489038Y-113213054D01*
X81489034Y-113213048D01*
X81361255Y-113071135D01*
X81206752Y-112958882D01*
X81032288Y-112881206D01*
X80845487Y-112841500D01*
X80654513Y-112841500D01*
X80467711Y-112881206D01*
X80368349Y-112925445D01*
X80297982Y-112934879D01*
X80233685Y-112904772D01*
X80195871Y-112844683D01*
X80193854Y-112836537D01*
X80193543Y-112835075D01*
X80187144Y-112815382D01*
X80176768Y-112783449D01*
X83999264Y-112783449D01*
X83999264Y-112930370D01*
X84004936Y-112958882D01*
X84027924Y-113074452D01*
X84084144Y-113210179D01*
X84114494Y-113255601D01*
X84165762Y-113332329D01*
X84165767Y-113332335D01*
X84269638Y-113436206D01*
X84269644Y-113436211D01*
X84391795Y-113517830D01*
X84527522Y-113574050D01*
X84651585Y-113598727D01*
X84671603Y-113602709D01*
X84671606Y-113602709D01*
X84671609Y-113602710D01*
X84671610Y-113602710D01*
X84818518Y-113602710D01*
X84818519Y-113602710D01*
X84962606Y-113574050D01*
X85098333Y-113517830D01*
X85220484Y-113436211D01*
X85324365Y-113332330D01*
X85405984Y-113210179D01*
X85462204Y-113074452D01*
X85490864Y-112930365D01*
X85490864Y-112783455D01*
X85462204Y-112639368D01*
X85405984Y-112503641D01*
X85324365Y-112381490D01*
X85324360Y-112381484D01*
X85220489Y-112277613D01*
X85220483Y-112277608D01*
X85143931Y-112226458D01*
X85098333Y-112195990D01*
X84962606Y-112139770D01*
X84921438Y-112131581D01*
X84818524Y-112111110D01*
X84818519Y-112111110D01*
X84671609Y-112111110D01*
X84671603Y-112111110D01*
X84548105Y-112135675D01*
X84527522Y-112139770D01*
X84527519Y-112139770D01*
X84527516Y-112139772D01*
X84391795Y-112195990D01*
X84269644Y-112277608D01*
X84269638Y-112277613D01*
X84165767Y-112381484D01*
X84165762Y-112381490D01*
X84084144Y-112503641D01*
X84027926Y-112639362D01*
X84027924Y-112639369D01*
X83999264Y-112783449D01*
X80176768Y-112783449D01*
X80134527Y-112653444D01*
X80039040Y-112488056D01*
X80039038Y-112488054D01*
X80039034Y-112488048D01*
X79911255Y-112346135D01*
X79756752Y-112233882D01*
X79582288Y-112156206D01*
X79395487Y-112116500D01*
X79204513Y-112116500D01*
X79017711Y-112156206D01*
X78843247Y-112233882D01*
X78688747Y-112346133D01*
X78685437Y-112349810D01*
X78624991Y-112387050D01*
X78591800Y-112391500D01*
X78431512Y-112391500D01*
X78363391Y-112371498D01*
X78316898Y-112317842D01*
X78306794Y-112247568D01*
X78336288Y-112182988D01*
X78342416Y-112176405D01*
X78407711Y-112111110D01*
X78605954Y-111912866D01*
X78650226Y-111859746D01*
X78727362Y-111712774D01*
X78734979Y-111681869D01*
X78770702Y-111620515D01*
X78827165Y-111589684D01*
X78858067Y-111582068D01*
X79005039Y-111504932D01*
X79058159Y-111460661D01*
X79383771Y-111135048D01*
X79428043Y-111081928D01*
X79505179Y-110934956D01*
X79512795Y-110904054D01*
X79548517Y-110842700D01*
X79604980Y-110811868D01*
X79635885Y-110804251D01*
X79782857Y-110727115D01*
X79835977Y-110682844D01*
X80161589Y-110357231D01*
X80205861Y-110304111D01*
X80282997Y-110157139D01*
X80290614Y-110126234D01*
X80326337Y-110064880D01*
X80382800Y-110034049D01*
X80413702Y-110026433D01*
X80560674Y-109949297D01*
X80613794Y-109905026D01*
X80939406Y-109579413D01*
X80983678Y-109526293D01*
X81060814Y-109379321D01*
X81068430Y-109348419D01*
X81104152Y-109287065D01*
X81160615Y-109256233D01*
X81191520Y-109248616D01*
X81338492Y-109171480D01*
X81391612Y-109127209D01*
X81451971Y-109066849D01*
X81514281Y-109032826D01*
X81541065Y-109029946D01*
X83612978Y-109029946D01*
X83681099Y-109049948D01*
X83706615Y-109071636D01*
X83709925Y-109075312D01*
X83864426Y-109187564D01*
X84038890Y-109265240D01*
X84225691Y-109304946D01*
X84416665Y-109304946D01*
X84603466Y-109265240D01*
X84777930Y-109187564D01*
X84932431Y-109075312D01*
X84935741Y-109071636D01*
X85060212Y-108933397D01*
X85060213Y-108933395D01*
X85060218Y-108933390D01*
X85155705Y-108768002D01*
X85214720Y-108586374D01*
X85234682Y-108396446D01*
X85214720Y-108206518D01*
X85155705Y-108024890D01*
X85107991Y-107942247D01*
X85091254Y-107873256D01*
X85114474Y-107806164D01*
X85170281Y-107762276D01*
X85229921Y-107753903D01*
X85232951Y-107754212D01*
X85240132Y-107754946D01*
X86241221Y-107754945D01*
X86345103Y-107744333D01*
X86513415Y-107688561D01*
X86664329Y-107595476D01*
X86789707Y-107470098D01*
X86882792Y-107319184D01*
X86938564Y-107150872D01*
X86949177Y-107046991D01*
X86949176Y-106466542D01*
X86969178Y-106398422D01*
X86986081Y-106377447D01*
X87129627Y-106233901D01*
X87313250Y-106050279D01*
X87382579Y-105946521D01*
X87414414Y-105869663D01*
X88239544Y-105869663D01*
X88239544Y-105869665D01*
X88714370Y-106344491D01*
X88795278Y-106410398D01*
X88795279Y-106410399D01*
X88953627Y-106489925D01*
X89126049Y-106530790D01*
X89303240Y-106530790D01*
X89475661Y-106489925D01*
X89634009Y-106410399D01*
X89634010Y-106410398D01*
X89714918Y-106344491D01*
X91094493Y-104964916D01*
X91160400Y-104884008D01*
X91160401Y-104884007D01*
X91239927Y-104725659D01*
X91280792Y-104553238D01*
X91280792Y-104376046D01*
X91239927Y-104203625D01*
X91160401Y-104045277D01*
X91160400Y-104045276D01*
X91094493Y-103964368D01*
X90619667Y-103489542D01*
X90619665Y-103489542D01*
X89250000Y-104859208D01*
X88239544Y-105869663D01*
X87414414Y-105869663D01*
X87430333Y-105831230D01*
X87432013Y-105822787D01*
X87436649Y-105799483D01*
X87454677Y-105708845D01*
X87454678Y-105708838D01*
X87454678Y-105388988D01*
X87474680Y-105320867D01*
X87528336Y-105274374D01*
X87598610Y-105264270D01*
X87663190Y-105293764D01*
X87669774Y-105299893D01*
X87880334Y-105510454D01*
X87880335Y-105510454D01*
X88890790Y-104499999D01*
X88890790Y-104499998D01*
X88249005Y-103858214D01*
X88214980Y-103795901D01*
X88220044Y-103725086D01*
X88249002Y-103680025D01*
X88430028Y-103498999D01*
X88492336Y-103464977D01*
X88563152Y-103470041D01*
X88608216Y-103499002D01*
X89250000Y-104140787D01*
X89250001Y-104140787D01*
X90260456Y-103130332D01*
X90260456Y-103130331D01*
X89785629Y-102655504D01*
X89704721Y-102589597D01*
X89704720Y-102589596D01*
X89546372Y-102510070D01*
X89373951Y-102469206D01*
X89196760Y-102469206D01*
X89024338Y-102510070D01*
X88887227Y-102578931D01*
X88817375Y-102591629D01*
X88751747Y-102564546D01*
X88711179Y-102506282D01*
X88704678Y-102466333D01*
X88704678Y-100848970D01*
X88724680Y-100780849D01*
X88737036Y-100764666D01*
X88810218Y-100683390D01*
X88905705Y-100518002D01*
X88933712Y-100431806D01*
X90445028Y-100431806D01*
X90445028Y-100608998D01*
X90485892Y-100781419D01*
X90565418Y-100939767D01*
X90565419Y-100939768D01*
X90631326Y-101020676D01*
X91141508Y-101530858D01*
X91141510Y-101530858D01*
X92116610Y-100555758D01*
X92116610Y-100555757D01*
X91106155Y-99545302D01*
X91106153Y-99545302D01*
X90631326Y-100020128D01*
X90565419Y-100101036D01*
X90565418Y-100101037D01*
X90485892Y-100259385D01*
X90445028Y-100431806D01*
X88933712Y-100431806D01*
X88964720Y-100336374D01*
X88984682Y-100146446D01*
X88964720Y-99956518D01*
X88905705Y-99774890D01*
X88810218Y-99609502D01*
X88810216Y-99609500D01*
X88810212Y-99609494D01*
X88682433Y-99467581D01*
X88527930Y-99355328D01*
X88353464Y-99277651D01*
X88347193Y-99275614D01*
X88347656Y-99274187D01*
X88291998Y-99244130D01*
X88257683Y-99181976D01*
X88254678Y-99154621D01*
X88254678Y-97911040D01*
X88274680Y-97842919D01*
X88291583Y-97821945D01*
X88771677Y-97341851D01*
X88833989Y-97307825D01*
X88860772Y-97304946D01*
X88916665Y-97304946D01*
X89103466Y-97265240D01*
X89277930Y-97187564D01*
X89432431Y-97075312D01*
X89439804Y-97067124D01*
X89560212Y-96933397D01*
X89560213Y-96933395D01*
X89560218Y-96933390D01*
X89655705Y-96768002D01*
X89714720Y-96586374D01*
X89734682Y-96396446D01*
X89714720Y-96206518D01*
X89655705Y-96024890D01*
X89560218Y-95859502D01*
X89495733Y-95787884D01*
X89472588Y-95762178D01*
X89441871Y-95698170D01*
X89450636Y-95627717D01*
X89477127Y-95588776D01*
X93375919Y-91689984D01*
X93438229Y-91655960D01*
X93477362Y-91653688D01*
X93497950Y-91655715D01*
X93524998Y-91658380D01*
X93525000Y-91658380D01*
X93525003Y-91658380D01*
X93722694Y-91638909D01*
X93722695Y-91638908D01*
X93722701Y-91638908D01*
X93912804Y-91581241D01*
X94088004Y-91487595D01*
X94088017Y-91487584D01*
X94089993Y-91486265D01*
X94091198Y-91485887D01*
X94093463Y-91484677D01*
X94093692Y-91485106D01*
X94157744Y-91465047D01*
X94226212Y-91483827D01*
X94230007Y-91486265D01*
X94231987Y-91487587D01*
X94231996Y-91487595D01*
X94407196Y-91581241D01*
X94597299Y-91638908D01*
X94597303Y-91638908D01*
X94597305Y-91638909D01*
X94794997Y-91658380D01*
X94795000Y-91658380D01*
X94795003Y-91658380D01*
X94992694Y-91638909D01*
X94992695Y-91638908D01*
X94992701Y-91638908D01*
X95182804Y-91581241D01*
X95358004Y-91487595D01*
X95511568Y-91361568D01*
X95637595Y-91208004D01*
X95731241Y-91032804D01*
X95788908Y-90842701D01*
X95789634Y-90835338D01*
X95808380Y-90645003D01*
X95808380Y-90644996D01*
X95788909Y-90447305D01*
X95788908Y-90447303D01*
X95788908Y-90447299D01*
X95731241Y-90257196D01*
X95637595Y-90081996D01*
X95637589Y-90081989D01*
X95635960Y-90079550D01*
X95635496Y-90078070D01*
X95634677Y-90076537D01*
X95634967Y-90076381D01*
X95614744Y-90011797D01*
X95633526Y-89943330D01*
X95635964Y-89939536D01*
X95637179Y-89937716D01*
X95730775Y-89762612D01*
X95730776Y-89762610D01*
X95771307Y-89629000D01*
X95000618Y-89629000D01*
X95055064Y-89574554D01*
X95097851Y-89500445D01*
X95120000Y-89417787D01*
X95120000Y-89332213D01*
X95097851Y-89249555D01*
X95055064Y-89175446D01*
X95000618Y-89121000D01*
X95049000Y-89121000D01*
X95771307Y-89121000D01*
X95771307Y-89120999D01*
X95730776Y-88987389D01*
X95730775Y-88987387D01*
X95637175Y-88812275D01*
X95511211Y-88658788D01*
X95357724Y-88532824D01*
X95182612Y-88439224D01*
X95182610Y-88439223D01*
X95049000Y-88398692D01*
X95049000Y-89121000D01*
X95000618Y-89121000D01*
X94994554Y-89114936D01*
X94920445Y-89072149D01*
X94837787Y-89050000D01*
X94752213Y-89050000D01*
X94669555Y-89072149D01*
X94595446Y-89114936D01*
X94541000Y-89169382D01*
X94541000Y-88398693D01*
X94540999Y-88398692D01*
X94407389Y-88439223D01*
X94407387Y-88439224D01*
X94232271Y-88532826D01*
X94230446Y-88534046D01*
X94229345Y-88534390D01*
X94226817Y-88535742D01*
X94226560Y-88535262D01*
X94162691Y-88555255D01*
X94094226Y-88536466D01*
X94090453Y-88534041D01*
X94088007Y-88532406D01*
X93912804Y-88438759D01*
X93907681Y-88437205D01*
X93722701Y-88381092D01*
X93722700Y-88381091D01*
X93722694Y-88381090D01*
X93525003Y-88361620D01*
X93524995Y-88361620D01*
X93477361Y-88366311D01*
X93407608Y-88353082D01*
X93375917Y-88330013D01*
X91753835Y-86707931D01*
X91753833Y-86707929D01*
X91650075Y-86638600D01*
X91534785Y-86590845D01*
X91461086Y-86576185D01*
X91412396Y-86566500D01*
X91412394Y-86566500D01*
X85836142Y-86566500D01*
X85768021Y-86546498D01*
X85721528Y-86492842D01*
X85711424Y-86422568D01*
X85740918Y-86357988D01*
X85747047Y-86351405D01*
X85862928Y-86235523D01*
X85928880Y-86154564D01*
X86008458Y-85996112D01*
X86049349Y-85823579D01*
X86049349Y-85646268D01*
X86008458Y-85473734D01*
X85928880Y-85315283D01*
X85862929Y-85234324D01*
X85862925Y-85234319D01*
X85491583Y-84862977D01*
X85457557Y-84800665D01*
X85454678Y-84773882D01*
X85454678Y-83427633D01*
X86649199Y-83427633D01*
X86649199Y-83427635D01*
X87159381Y-83937817D01*
X87240289Y-84003724D01*
X87240290Y-84003725D01*
X87398638Y-84083251D01*
X87571060Y-84124116D01*
X87748251Y-84124116D01*
X87920672Y-84083251D01*
X88079020Y-84003725D01*
X88079021Y-84003724D01*
X88159929Y-83937817D01*
X88634756Y-83462991D01*
X88634756Y-83462989D01*
X87624301Y-82452534D01*
X87624299Y-82452534D01*
X86649199Y-83427633D01*
X85454678Y-83427633D01*
X85454678Y-83334053D01*
X85454677Y-83334049D01*
X85430333Y-83211661D01*
X85382578Y-83096371D01*
X85313249Y-82992613D01*
X85225011Y-82904375D01*
X84290008Y-81969372D01*
X85593508Y-81969372D01*
X85593508Y-82146564D01*
X85634372Y-82318985D01*
X85713898Y-82477333D01*
X85713899Y-82477334D01*
X85779806Y-82558242D01*
X86289988Y-83068424D01*
X86289990Y-83068424D01*
X87265090Y-82093324D01*
X87265090Y-82093323D01*
X86254635Y-81082868D01*
X86254633Y-81082868D01*
X85779806Y-81557694D01*
X85713899Y-81638602D01*
X85713898Y-81638603D01*
X85634372Y-81796951D01*
X85593508Y-81969372D01*
X84290008Y-81969372D01*
X82102908Y-79782272D01*
X81999150Y-79712943D01*
X81883860Y-79665188D01*
X81810161Y-79650528D01*
X81761471Y-79640843D01*
X81761469Y-79640843D01*
X81018064Y-79640843D01*
X81018061Y-79640843D01*
X80895672Y-79665188D01*
X80895667Y-79665190D01*
X80814150Y-79698956D01*
X80780381Y-79712943D01*
X80676625Y-79782271D01*
X80676622Y-79782273D01*
X80643738Y-79815157D01*
X80581426Y-79849181D01*
X80531504Y-79847398D01*
X80531249Y-79849173D01*
X80377598Y-79827081D01*
X80377592Y-79827081D01*
X80232865Y-79847889D01*
X80232861Y-79847890D01*
X80099857Y-79908629D01*
X80099848Y-79908635D01*
X80052425Y-79946852D01*
X80052421Y-79946855D01*
X79135112Y-80864164D01*
X79135109Y-80864168D01*
X79096892Y-80911591D01*
X79096886Y-80911600D01*
X79036147Y-81044604D01*
X79036146Y-81044608D01*
X79015338Y-81189334D01*
X79015338Y-81189335D01*
X79023738Y-81247762D01*
X79013633Y-81318036D01*
X78967140Y-81371691D01*
X78899019Y-81391693D01*
X78830899Y-81371690D01*
X78809929Y-81354792D01*
X78311427Y-80856290D01*
X78311426Y-80856289D01*
X78311424Y-80856287D01*
X78282952Y-80831970D01*
X78137162Y-80751821D01*
X78137154Y-80751817D01*
X77976016Y-80710444D01*
X77976010Y-80710443D01*
X77976009Y-80710443D01*
X77809633Y-80710443D01*
X77809631Y-80710443D01*
X77809625Y-80710444D01*
X77648486Y-80751818D01*
X77648482Y-80751819D01*
X77502697Y-80831966D01*
X77502683Y-80831975D01*
X77474221Y-80856283D01*
X77399168Y-80931336D01*
X77336855Y-80965361D01*
X77266040Y-80960295D01*
X77209204Y-80917748D01*
X77190240Y-80881177D01*
X77184712Y-80864164D01*
X77155705Y-80774890D01*
X77060218Y-80609502D01*
X77060216Y-80609500D01*
X77060212Y-80609494D01*
X76932433Y-80467581D01*
X76777930Y-80355328D01*
X76603466Y-80277652D01*
X76416665Y-80237946D01*
X76225691Y-80237946D01*
X76038889Y-80277652D01*
X75864425Y-80355328D01*
X75709922Y-80467581D01*
X75582143Y-80609494D01*
X75582136Y-80609504D01*
X75486654Y-80774884D01*
X75486651Y-80774891D01*
X75427635Y-80956518D01*
X75407674Y-81146446D01*
X75427635Y-81336373D01*
X75433619Y-81354788D01*
X75486651Y-81518002D01*
X75486654Y-81518007D01*
X75582136Y-81683387D01*
X75582143Y-81683397D01*
X75709922Y-81825310D01*
X75709925Y-81825312D01*
X75864426Y-81937564D01*
X76038890Y-82015240D01*
X76063200Y-82020407D01*
X76125674Y-82054133D01*
X76159997Y-82116282D01*
X76161749Y-82161407D01*
X76159706Y-82175756D01*
X77075759Y-83091809D01*
X77109785Y-83154121D01*
X77104720Y-83224936D01*
X77075759Y-83269999D01*
X76894740Y-83451018D01*
X76832428Y-83485044D01*
X76761613Y-83479979D01*
X76716550Y-83451018D01*
X75800498Y-82534966D01*
X75800496Y-82534966D01*
X75720532Y-82680427D01*
X75720529Y-82680433D01*
X75679187Y-82841446D01*
X75679186Y-82841453D01*
X75679186Y-83007701D01*
X75679187Y-83007709D01*
X75720530Y-83168725D01*
X75720533Y-83168732D01*
X75800620Y-83314414D01*
X75824912Y-83342855D01*
X75824927Y-83342871D01*
X76643690Y-84161632D01*
X76672134Y-84185927D01*
X76817816Y-84266015D01*
X76817823Y-84266018D01*
X76978839Y-84307361D01*
X76978848Y-84307363D01*
X77145097Y-84307363D01*
X77146814Y-84307146D01*
X77148160Y-84307363D01*
X77153025Y-84307363D01*
X77153025Y-84308147D01*
X77216905Y-84318448D01*
X77269759Y-84365850D01*
X77288596Y-84434302D01*
X77287622Y-84447934D01*
X77287354Y-84450056D01*
X77287354Y-84616431D01*
X77287355Y-84616441D01*
X77328728Y-84777579D01*
X77328730Y-84777583D01*
X77408881Y-84923377D01*
X77433204Y-84951856D01*
X78252028Y-85770680D01*
X78280503Y-85795000D01*
X78280504Y-85795001D01*
X78280506Y-85795002D01*
X78324311Y-85819084D01*
X78374368Y-85869428D01*
X78389262Y-85938845D01*
X78364261Y-86005294D01*
X78320159Y-86042095D01*
X78176753Y-86114117D01*
X78176748Y-86114121D01*
X78095792Y-86180068D01*
X78095789Y-86180070D01*
X77635402Y-86640458D01*
X77569457Y-86721410D01*
X77569447Y-86721425D01*
X77489874Y-86879866D01*
X77489873Y-86879869D01*
X77489873Y-86879870D01*
X77454925Y-87027330D01*
X77448982Y-87052404D01*
X77448982Y-87083991D01*
X77428980Y-87152112D01*
X77375324Y-87198605D01*
X77305050Y-87208709D01*
X77243404Y-87181681D01*
X77230588Y-87171241D01*
X77072134Y-87091662D01*
X77039767Y-87083991D01*
X76899601Y-87050771D01*
X76722290Y-87050771D01*
X76549756Y-87091662D01*
X76549754Y-87091662D01*
X76549753Y-87091663D01*
X76549751Y-87091664D01*
X76533184Y-87099984D01*
X76463331Y-87112680D01*
X76397704Y-87085596D01*
X76357138Y-87027330D01*
X76350638Y-86987385D01*
X76350638Y-84928881D01*
X76350637Y-84928877D01*
X76349543Y-84923379D01*
X76320543Y-84777582D01*
X76316686Y-84758189D01*
X76258818Y-84618484D01*
X76250086Y-84597403D01*
X76206153Y-84531653D01*
X76153397Y-84452698D01*
X74789133Y-83088434D01*
X73410891Y-81710191D01*
X73410885Y-81710186D01*
X73357851Y-81674750D01*
X73266182Y-81613498D01*
X73105395Y-81546898D01*
X72934707Y-81512946D01*
X72934704Y-81512946D01*
X67621135Y-81512946D01*
X67553014Y-81492944D01*
X67506521Y-81439288D01*
X67496417Y-81369014D01*
X67525911Y-81304434D01*
X67555863Y-81279170D01*
X68024597Y-80995293D01*
X68029105Y-80992691D01*
X68830077Y-80552351D01*
X68834677Y-80549946D01*
X69653366Y-80143547D01*
X69658104Y-80141317D01*
X70493086Y-79769559D01*
X70497870Y-79767548D01*
X71347724Y-79431066D01*
X71352617Y-79429247D01*
X72215749Y-79128673D01*
X72220692Y-79127067D01*
X73095719Y-78862880D01*
X73100738Y-78861479D01*
X73985986Y-78634186D01*
X73991066Y-78632994D01*
X74885124Y-78442956D01*
X74890275Y-78441975D01*
X75791429Y-78289556D01*
X75796611Y-78288790D01*
X76703407Y-78174235D01*
X76708577Y-78173692D01*
X77619375Y-78097210D01*
X77624627Y-78096880D01*
X78537740Y-78058611D01*
X78543016Y-78058500D01*
X79456984Y-78058500D01*
X79462260Y-78058611D01*
G37*
%TD.AperFunction*%
%TA.AperFunction,Conductor*%
G36*
X72505940Y-101146482D02*
G01*
X72555544Y-101180227D01*
X72578981Y-101206256D01*
X72733482Y-101318508D01*
X72907946Y-101396184D01*
X73094747Y-101435890D01*
X73285721Y-101435890D01*
X73472522Y-101396184D01*
X73621078Y-101330042D01*
X73691443Y-101320609D01*
X73755740Y-101350715D01*
X73765961Y-101360840D01*
X73836450Y-101439126D01*
X73836453Y-101439128D01*
X73990954Y-101551380D01*
X74165418Y-101629056D01*
X74352219Y-101668762D01*
X74543193Y-101668762D01*
X74729994Y-101629056D01*
X74879458Y-101562510D01*
X74949822Y-101553077D01*
X75004765Y-101575682D01*
X75023480Y-101589279D01*
X75133081Y-101668909D01*
X75307545Y-101746585D01*
X75494346Y-101786291D01*
X75685320Y-101786291D01*
X75872121Y-101746585D01*
X76046585Y-101668909D01*
X76201086Y-101556657D01*
X76205246Y-101552036D01*
X76265685Y-101514794D01*
X76336669Y-101516139D01*
X76387981Y-101547245D01*
X76649393Y-101808656D01*
X76661602Y-101818831D01*
X76702510Y-101852925D01*
X76849187Y-101929906D01*
X76849482Y-101930061D01*
X76880385Y-101937678D01*
X76941740Y-101973402D01*
X76972569Y-102029860D01*
X76980186Y-102060762D01*
X76980187Y-102060765D01*
X76980188Y-102060766D01*
X76999507Y-102097575D01*
X77057323Y-102207736D01*
X77057328Y-102207743D01*
X77101596Y-102260859D01*
X77427211Y-102586473D01*
X77439420Y-102596648D01*
X77480328Y-102630742D01*
X77625993Y-102707192D01*
X77677014Y-102756559D01*
X77693247Y-102825675D01*
X77691017Y-102843336D01*
X77687678Y-102860122D01*
X77687678Y-103693920D01*
X77667676Y-103762041D01*
X77655315Y-103778230D01*
X77582135Y-103859505D01*
X77497954Y-104005312D01*
X77486651Y-104024890D01*
X77480027Y-104045276D01*
X77427635Y-104206518D01*
X77407674Y-104396446D01*
X77427635Y-104586373D01*
X77457494Y-104678266D01*
X77486651Y-104768002D01*
X77486654Y-104768007D01*
X77582136Y-104933387D01*
X77582143Y-104933397D01*
X77709922Y-105075310D01*
X77739360Y-105096698D01*
X77864426Y-105187564D01*
X78038890Y-105265240D01*
X78225691Y-105304946D01*
X78416665Y-105304946D01*
X78603466Y-105265240D01*
X78777930Y-105187564D01*
X78932431Y-105075312D01*
X78958616Y-105046231D01*
X79060212Y-104933397D01*
X79060213Y-104933395D01*
X79060218Y-104933390D01*
X79155705Y-104768002D01*
X79204147Y-104618912D01*
X79244221Y-104560307D01*
X79309617Y-104532670D01*
X79379574Y-104544777D01*
X79420770Y-104577180D01*
X79435047Y-104594310D01*
X79435050Y-104594313D01*
X79760663Y-104919925D01*
X79776828Y-104933397D01*
X79813780Y-104964194D01*
X79960752Y-105041330D01*
X79991656Y-105048947D01*
X80053010Y-105084670D01*
X80083840Y-105141130D01*
X80091457Y-105172034D01*
X80091457Y-105172035D01*
X80091458Y-105172036D01*
X80168594Y-105319008D01*
X80212865Y-105372128D01*
X80370781Y-105530044D01*
X80472541Y-105631803D01*
X80506566Y-105694116D01*
X80501502Y-105764931D01*
X80458955Y-105821767D01*
X80442005Y-105832465D01*
X80415107Y-105846583D01*
X80380382Y-105875521D01*
X80380382Y-105875522D01*
X81265564Y-106760704D01*
X81265565Y-106760704D01*
X81692656Y-106333612D01*
X81692656Y-106333611D01*
X81316033Y-105956988D01*
X81282007Y-105894676D01*
X81287072Y-105823861D01*
X81329619Y-105767025D01*
X81346572Y-105756326D01*
X81373847Y-105742012D01*
X81426967Y-105697741D01*
X82671818Y-104452889D01*
X82716090Y-104399769D01*
X82793226Y-104252797D01*
X82832949Y-104091637D01*
X82832949Y-103925652D01*
X82820367Y-103874604D01*
X82801510Y-103798100D01*
X82804627Y-103727172D01*
X82845597Y-103669189D01*
X82911411Y-103642560D01*
X82923848Y-103641945D01*
X84143551Y-103641945D01*
X84187582Y-103649888D01*
X84269477Y-103680434D01*
X84269480Y-103680434D01*
X84269481Y-103680435D01*
X84330028Y-103686944D01*
X84330033Y-103686944D01*
X84330040Y-103686945D01*
X84549681Y-103686945D01*
X84617802Y-103706947D01*
X84664295Y-103760603D01*
X84674399Y-103830877D01*
X84656922Y-103879091D01*
X84619261Y-103940150D01*
X84598562Y-103973708D01*
X84542790Y-104142018D01*
X84542789Y-104142025D01*
X84532177Y-104245892D01*
X84532177Y-105046990D01*
X84542789Y-105150871D01*
X84598562Y-105319184D01*
X84691647Y-105470098D01*
X84691652Y-105470104D01*
X84778899Y-105557351D01*
X84812925Y-105619663D01*
X84807860Y-105690478D01*
X84778899Y-105735541D01*
X84691652Y-105822787D01*
X84691647Y-105822793D01*
X84598562Y-105973708D01*
X84542790Y-106142018D01*
X84542789Y-106142025D01*
X84532177Y-106245892D01*
X84532177Y-107046990D01*
X84542789Y-107150871D01*
X84557068Y-107193961D01*
X84598562Y-107319184D01*
X84598567Y-107319193D01*
X84599124Y-107320387D01*
X84599261Y-107321293D01*
X84600871Y-107326150D01*
X84600041Y-107326424D01*
X84609786Y-107390579D01*
X84580808Y-107455392D01*
X84521389Y-107494250D01*
X84458735Y-107496887D01*
X84416668Y-107487946D01*
X84416665Y-107487946D01*
X84225691Y-107487946D01*
X84038889Y-107527652D01*
X83864425Y-107605328D01*
X83709925Y-107717579D01*
X83706615Y-107721256D01*
X83646169Y-107758496D01*
X83612978Y-107762946D01*
X82781671Y-107762946D01*
X82713550Y-107742944D01*
X82667057Y-107689288D01*
X82655671Y-107636946D01*
X82655671Y-107496604D01*
X82655670Y-107496600D01*
X82615978Y-107335561D01*
X82615975Y-107335555D01*
X82538898Y-107188697D01*
X82538898Y-107188696D01*
X82494658Y-107135613D01*
X82051867Y-106692821D01*
X82051866Y-106692821D01*
X81363498Y-107381189D01*
X81301186Y-107415215D01*
X81230371Y-107410150D01*
X81185308Y-107381190D01*
X80472369Y-106668252D01*
X80419252Y-106623983D01*
X80417651Y-106623143D01*
X80414250Y-106620640D01*
X80413709Y-106620279D01*
X80413725Y-106620254D01*
X80387111Y-106600671D01*
X80021172Y-106234732D01*
X79992234Y-106269455D01*
X79992229Y-106269461D01*
X79915153Y-106416317D01*
X79915152Y-106416319D01*
X79907611Y-106446914D01*
X79871886Y-106508268D01*
X79815429Y-106539095D01*
X79783977Y-106546847D01*
X79637002Y-106623985D01*
X79636998Y-106623988D01*
X79583882Y-106668256D01*
X79258268Y-106993871D01*
X79213999Y-107046988D01*
X79136863Y-107193961D01*
X79129247Y-107224863D01*
X79093523Y-107286218D01*
X79037064Y-107317047D01*
X79006159Y-107324664D01*
X78859187Y-107401800D01*
X78859180Y-107401805D01*
X78806064Y-107446073D01*
X78480450Y-107771688D01*
X78436181Y-107824805D01*
X78359045Y-107971778D01*
X78351428Y-108002683D01*
X78315704Y-108064037D01*
X78259244Y-108094865D01*
X78254161Y-108096118D01*
X78228342Y-108102482D01*
X78081370Y-108179618D01*
X78081363Y-108179623D01*
X78028247Y-108223891D01*
X77702633Y-108549506D01*
X77658364Y-108602623D01*
X77581228Y-108749596D01*
X77573612Y-108780498D01*
X77537888Y-108841853D01*
X77481429Y-108872682D01*
X77450524Y-108880299D01*
X77303552Y-108957435D01*
X77303545Y-108957440D01*
X77250429Y-109001708D01*
X76924815Y-109327323D01*
X76880546Y-109380440D01*
X76803410Y-109527413D01*
X76795793Y-109558318D01*
X76760069Y-109619672D01*
X76703609Y-109650500D01*
X76698526Y-109651753D01*
X76672707Y-109658117D01*
X76525735Y-109735253D01*
X76525728Y-109735258D01*
X76472612Y-109779526D01*
X76146998Y-110105141D01*
X76102729Y-110158258D01*
X76025593Y-110305231D01*
X76017977Y-110336133D01*
X75982253Y-110397488D01*
X75925794Y-110428317D01*
X75894889Y-110435934D01*
X75747917Y-110513070D01*
X75747910Y-110513075D01*
X75694794Y-110557343D01*
X75369180Y-110882958D01*
X75324911Y-110936075D01*
X75279476Y-111022647D01*
X75250027Y-111078759D01*
X75247775Y-111083049D01*
X75240157Y-111113953D01*
X75204431Y-111175306D01*
X75147977Y-111206133D01*
X75117073Y-111213751D01*
X74970100Y-111290887D01*
X74970093Y-111290892D01*
X74916977Y-111335160D01*
X74591363Y-111660775D01*
X74547094Y-111713892D01*
X74469959Y-111860863D01*
X74462341Y-111891770D01*
X74426617Y-111953124D01*
X74370159Y-111983952D01*
X74339254Y-111991569D01*
X74192279Y-112068707D01*
X74192275Y-112068710D01*
X74139159Y-112112978D01*
X73813545Y-112438593D01*
X73769276Y-112491710D01*
X73692140Y-112638684D01*
X73684522Y-112669588D01*
X73648796Y-112730941D01*
X73592342Y-112761768D01*
X73561438Y-112769386D01*
X73414465Y-112846522D01*
X73414458Y-112846527D01*
X73361342Y-112890795D01*
X73035728Y-113216410D01*
X72991459Y-113269527D01*
X72914324Y-113416498D01*
X72906706Y-113447405D01*
X72870982Y-113508759D01*
X72814524Y-113539587D01*
X72783619Y-113547204D01*
X72636644Y-113624342D01*
X72636640Y-113624345D01*
X72583524Y-113668613D01*
X72257910Y-113994228D01*
X72213641Y-114047345D01*
X72136505Y-114194319D01*
X72128887Y-114225223D01*
X72093161Y-114286576D01*
X72036707Y-114317403D01*
X72005803Y-114325021D01*
X71858830Y-114402157D01*
X71858823Y-114402162D01*
X71805707Y-114446430D01*
X71480090Y-114772048D01*
X71473074Y-114780466D01*
X71414093Y-114819985D01*
X71343110Y-114821343D01*
X71287204Y-114788895D01*
X69085535Y-112587709D01*
X70329017Y-112587709D01*
X70329017Y-112753696D01*
X70349436Y-112836537D01*
X70368740Y-112914856D01*
X70445876Y-113061827D01*
X70490146Y-113114948D01*
X71027891Y-113652691D01*
X71041159Y-113663749D01*
X71081009Y-113696961D01*
X71081012Y-113696963D01*
X71227983Y-113774099D01*
X71389144Y-113813822D01*
X71389145Y-113813822D01*
X71555127Y-113813822D01*
X71555128Y-113813822D01*
X71716289Y-113774099D01*
X71863260Y-113696963D01*
X71916381Y-113652693D01*
X72241992Y-113327080D01*
X72286264Y-113273959D01*
X72363400Y-113126988D01*
X72371017Y-113096083D01*
X72406740Y-113034729D01*
X72463202Y-113003898D01*
X72494107Y-112996281D01*
X72641078Y-112919145D01*
X72694199Y-112874875D01*
X73019810Y-112549262D01*
X73064082Y-112496141D01*
X73068325Y-112488058D01*
X73141217Y-112349172D01*
X73141218Y-112349169D01*
X73141967Y-112346133D01*
X73148834Y-112318268D01*
X73184555Y-112256913D01*
X73241022Y-112226080D01*
X73271924Y-112218464D01*
X73418895Y-112141328D01*
X73472016Y-112097058D01*
X73797627Y-111771445D01*
X73841899Y-111718324D01*
X73919035Y-111571353D01*
X73926652Y-111540448D01*
X73962374Y-111479094D01*
X74018839Y-111448262D01*
X74049741Y-111440646D01*
X74196712Y-111363510D01*
X74249833Y-111319240D01*
X74575444Y-110993627D01*
X74619716Y-110940506D01*
X74619868Y-110940218D01*
X74696851Y-110793537D01*
X74696851Y-110793536D01*
X74696852Y-110793535D01*
X74704468Y-110762633D01*
X74740190Y-110701279D01*
X74796655Y-110670446D01*
X74827559Y-110662829D01*
X74974530Y-110585693D01*
X75027651Y-110541423D01*
X75353262Y-110215810D01*
X75397534Y-110162689D01*
X75474670Y-110015718D01*
X75482287Y-109984813D01*
X75518009Y-109923459D01*
X75574474Y-109892627D01*
X75605376Y-109885011D01*
X75752347Y-109807875D01*
X75805468Y-109763605D01*
X76131079Y-109437992D01*
X76175351Y-109384871D01*
X76178265Y-109379320D01*
X76252486Y-109237902D01*
X76252486Y-109237901D01*
X76252487Y-109237900D01*
X76260103Y-109206998D01*
X76295825Y-109145644D01*
X76352290Y-109114811D01*
X76383194Y-109107194D01*
X76530165Y-109030058D01*
X76583286Y-108985788D01*
X76908897Y-108660175D01*
X76953169Y-108607054D01*
X77030305Y-108460083D01*
X77037922Y-108429178D01*
X77073644Y-108367824D01*
X77130109Y-108336992D01*
X77161011Y-108329376D01*
X77307982Y-108252240D01*
X77361103Y-108207970D01*
X77686714Y-107882357D01*
X77730986Y-107829236D01*
X77741241Y-107809698D01*
X77808121Y-107682267D01*
X77808121Y-107682266D01*
X77808122Y-107682265D01*
X77815738Y-107651363D01*
X77851460Y-107590009D01*
X77907925Y-107559176D01*
X77938829Y-107551559D01*
X78085800Y-107474423D01*
X78138921Y-107430153D01*
X78464532Y-107104540D01*
X78508804Y-107051419D01*
X78585940Y-106904448D01*
X78625663Y-106743287D01*
X78625663Y-106577303D01*
X78585940Y-106416142D01*
X78508804Y-106269171D01*
X78464534Y-106216050D01*
X77926789Y-105678307D01*
X77888560Y-105646446D01*
X77873670Y-105634036D01*
X77873667Y-105634034D01*
X77726695Y-105556898D01*
X77565537Y-105517176D01*
X77565536Y-105517176D01*
X77399552Y-105517176D01*
X77399550Y-105517176D01*
X77238394Y-105556898D01*
X77238393Y-105556898D01*
X77238391Y-105556899D01*
X77118804Y-105619663D01*
X77091416Y-105634037D01*
X77038310Y-105678294D01*
X77038302Y-105678301D01*
X76712688Y-106003917D01*
X76668417Y-106057036D01*
X76591279Y-106204011D01*
X76591278Y-106204015D01*
X76583661Y-106234917D01*
X76547936Y-106296270D01*
X76491479Y-106327098D01*
X76460572Y-106334716D01*
X76460569Y-106334717D01*
X76313604Y-106411850D01*
X76313598Y-106411854D01*
X76260492Y-106456111D01*
X76260484Y-106456118D01*
X75934870Y-106781734D01*
X75890599Y-106834853D01*
X75813461Y-106981828D01*
X75805844Y-107012733D01*
X75770120Y-107074087D01*
X75713663Y-107104915D01*
X75682761Y-107112532D01*
X75682751Y-107112536D01*
X75535787Y-107189668D01*
X75535781Y-107189672D01*
X75482675Y-107233929D01*
X75482667Y-107233936D01*
X75157053Y-107559552D01*
X75112782Y-107612671D01*
X75035644Y-107759646D01*
X75035643Y-107759650D01*
X75028026Y-107790552D01*
X74992301Y-107851905D01*
X74935844Y-107882733D01*
X74904937Y-107890351D01*
X74904934Y-107890352D01*
X74757969Y-107967485D01*
X74757963Y-107967489D01*
X74704857Y-108011746D01*
X74704849Y-108011753D01*
X74379235Y-108337369D01*
X74334964Y-108390488D01*
X74257826Y-108537463D01*
X74250209Y-108568368D01*
X74214485Y-108629722D01*
X74158028Y-108660550D01*
X74127126Y-108668167D01*
X74127116Y-108668171D01*
X73980152Y-108745303D01*
X73980146Y-108745307D01*
X73927040Y-108789564D01*
X73927032Y-108789571D01*
X73601418Y-109115187D01*
X73557147Y-109168306D01*
X73480009Y-109315281D01*
X73480008Y-109315285D01*
X73472391Y-109346187D01*
X73436666Y-109407540D01*
X73380209Y-109438368D01*
X73349302Y-109445986D01*
X73349299Y-109445987D01*
X73202334Y-109523120D01*
X73202328Y-109523124D01*
X73149222Y-109567381D01*
X73149214Y-109567388D01*
X72823600Y-109893004D01*
X72779329Y-109946123D01*
X72702191Y-110093098D01*
X72694574Y-110124003D01*
X72658850Y-110185357D01*
X72602393Y-110216185D01*
X72571491Y-110223802D01*
X72571481Y-110223806D01*
X72424517Y-110300938D01*
X72424511Y-110300942D01*
X72371405Y-110345199D01*
X72371397Y-110345206D01*
X72045783Y-110670822D01*
X72001512Y-110723941D01*
X72001510Y-110723944D01*
X71924373Y-110870918D01*
X71916756Y-110901821D01*
X71881031Y-110963175D01*
X71824575Y-110994002D01*
X71793674Y-111001619D01*
X71793671Y-111001620D01*
X71793669Y-111001621D01*
X71666876Y-111068166D01*
X71646694Y-111078759D01*
X71593588Y-111123016D01*
X71593580Y-111123023D01*
X71267966Y-111448639D01*
X71223695Y-111501758D01*
X71146556Y-111648735D01*
X71138938Y-111679641D01*
X71103213Y-111740994D01*
X71046760Y-111771819D01*
X71015853Y-111779437D01*
X71015847Y-111779440D01*
X70868882Y-111856573D01*
X70868876Y-111856577D01*
X70815770Y-111900834D01*
X70815762Y-111900841D01*
X70490148Y-112226457D01*
X70445877Y-112279576D01*
X70445875Y-112279579D01*
X70368739Y-112426551D01*
X70329017Y-112587709D01*
X69085535Y-112587709D01*
X63342603Y-106846037D01*
X63308572Y-106783730D01*
X63313630Y-106712913D01*
X63351021Y-106660141D01*
X63360389Y-106652335D01*
X63686001Y-106326722D01*
X63730273Y-106273602D01*
X63807409Y-106126630D01*
X63815025Y-106095728D01*
X63850747Y-106034374D01*
X63907212Y-106003541D01*
X63938114Y-105995925D01*
X63963694Y-105982500D01*
X64012303Y-105956988D01*
X64085086Y-105918789D01*
X64138206Y-105874518D01*
X64463818Y-105548905D01*
X64508090Y-105495785D01*
X64585226Y-105348813D01*
X64592843Y-105317908D01*
X64628566Y-105256555D01*
X64685027Y-105225724D01*
X64715932Y-105218107D01*
X64715932Y-105218106D01*
X64715935Y-105218106D01*
X64862898Y-105140974D01*
X64862897Y-105140974D01*
X64862904Y-105140971D01*
X64916024Y-105096700D01*
X65241636Y-104771087D01*
X65285908Y-104717967D01*
X65363044Y-104570995D01*
X65370660Y-104540093D01*
X65406382Y-104478739D01*
X65462847Y-104447906D01*
X65493749Y-104440290D01*
X65499418Y-104437315D01*
X65640715Y-104363157D01*
X65640714Y-104363157D01*
X65640721Y-104363154D01*
X65693841Y-104318883D01*
X65986923Y-104025799D01*
X66049233Y-103991776D01*
X66120049Y-103996840D01*
X66169652Y-104030585D01*
X66209925Y-104075312D01*
X66315856Y-104152276D01*
X66328361Y-104161361D01*
X66371715Y-104217583D01*
X66377790Y-104288319D01*
X66344659Y-104351111D01*
X66343396Y-104352392D01*
X66035375Y-104660414D01*
X65991104Y-104713533D01*
X65991102Y-104713536D01*
X65913965Y-104860510D01*
X65906348Y-104891413D01*
X65870623Y-104952767D01*
X65814167Y-104983594D01*
X65783266Y-104991211D01*
X65783263Y-104991212D01*
X65783261Y-104991213D01*
X65673258Y-105048947D01*
X65636286Y-105068351D01*
X65583180Y-105112608D01*
X65583172Y-105112615D01*
X65257558Y-105438231D01*
X65213287Y-105491350D01*
X65136148Y-105638327D01*
X65128530Y-105669233D01*
X65092805Y-105730586D01*
X65036352Y-105761411D01*
X65005445Y-105769029D01*
X65005439Y-105769032D01*
X64858474Y-105846165D01*
X64858468Y-105846169D01*
X64805362Y-105890426D01*
X64805354Y-105890433D01*
X64479740Y-106216049D01*
X64435469Y-106269168D01*
X64435467Y-106269171D01*
X64358331Y-106416143D01*
X64318609Y-106577301D01*
X64318609Y-106743288D01*
X64328577Y-106783730D01*
X64358332Y-106904448D01*
X64435468Y-107051419D01*
X64479738Y-107104540D01*
X65017483Y-107642283D01*
X65019109Y-107643638D01*
X65070601Y-107686553D01*
X65070604Y-107686555D01*
X65217575Y-107763691D01*
X65378736Y-107803414D01*
X65378737Y-107803414D01*
X65544719Y-107803414D01*
X65544720Y-107803414D01*
X65705881Y-107763691D01*
X65852852Y-107686555D01*
X65905973Y-107642285D01*
X66231584Y-107316672D01*
X66275856Y-107263551D01*
X66352992Y-107116580D01*
X66360609Y-107085675D01*
X66396332Y-107024321D01*
X66452794Y-106993490D01*
X66483699Y-106985873D01*
X66630670Y-106908737D01*
X66683791Y-106864467D01*
X67009402Y-106538854D01*
X67053674Y-106485733D01*
X67075935Y-106443319D01*
X67130809Y-106338764D01*
X67130810Y-106338761D01*
X67132080Y-106333611D01*
X67138426Y-106307860D01*
X67174147Y-106246505D01*
X67230614Y-106215672D01*
X67261516Y-106208056D01*
X67408487Y-106130920D01*
X67461608Y-106086650D01*
X67787219Y-105761037D01*
X67831491Y-105707916D01*
X67836832Y-105697741D01*
X67908626Y-105560947D01*
X67908626Y-105560946D01*
X67908627Y-105560945D01*
X67916243Y-105530043D01*
X67951965Y-105468689D01*
X68008430Y-105437856D01*
X68039334Y-105430239D01*
X68186305Y-105353103D01*
X68239426Y-105308833D01*
X68565037Y-104983220D01*
X68609309Y-104930099D01*
X68686445Y-104783128D01*
X68694062Y-104752223D01*
X68729784Y-104690869D01*
X68786249Y-104660037D01*
X68817151Y-104652421D01*
X68964122Y-104575285D01*
X69017243Y-104531015D01*
X69342854Y-104205402D01*
X69387126Y-104152281D01*
X69388789Y-104149114D01*
X69464261Y-104005312D01*
X69464261Y-104005311D01*
X69464262Y-104005310D01*
X69471878Y-103974408D01*
X69507600Y-103913054D01*
X69564065Y-103882221D01*
X69594969Y-103874604D01*
X69741940Y-103797468D01*
X69795061Y-103753198D01*
X70120672Y-103427585D01*
X70164944Y-103374464D01*
X70242080Y-103227493D01*
X70249697Y-103196588D01*
X70285419Y-103135234D01*
X70341884Y-103104402D01*
X70372786Y-103096786D01*
X70519757Y-103019650D01*
X70572878Y-102975380D01*
X70898489Y-102649767D01*
X70942761Y-102596646D01*
X70942906Y-102596371D01*
X71019896Y-102449677D01*
X71019896Y-102449676D01*
X71019897Y-102449675D01*
X71027513Y-102418773D01*
X71063235Y-102357419D01*
X71119700Y-102326586D01*
X71150604Y-102318969D01*
X71297575Y-102241833D01*
X71350696Y-102197563D01*
X71676307Y-101871950D01*
X71720579Y-101818829D01*
X71797715Y-101671858D01*
X71805332Y-101640953D01*
X71841054Y-101579599D01*
X71897519Y-101548767D01*
X71928421Y-101541151D01*
X72075392Y-101464015D01*
X72128513Y-101419745D01*
X72372815Y-101175441D01*
X72435124Y-101141418D01*
X72505940Y-101146482D01*
G37*
%TD.AperFunction*%
%TA.AperFunction,Conductor*%
G36*
X95316045Y-105221915D02*
G01*
X95358339Y-105267213D01*
X95413269Y-105367133D01*
X95437561Y-105395574D01*
X95437576Y-105395590D01*
X96256339Y-106214351D01*
X96284783Y-106238646D01*
X96430465Y-106318734D01*
X96430472Y-106318737D01*
X96591488Y-106360080D01*
X96591497Y-106360082D01*
X96602250Y-106360082D01*
X96670371Y-106380084D01*
X96716864Y-106433740D01*
X96728250Y-106486082D01*
X96728250Y-107045896D01*
X96708248Y-107114017D01*
X96691349Y-107134986D01*
X96637640Y-107188696D01*
X96590877Y-107235459D01*
X96528565Y-107269484D01*
X96457749Y-107264418D01*
X96449442Y-107260977D01*
X96322517Y-107203014D01*
X96322511Y-107203013D01*
X96274182Y-107196064D01*
X96209602Y-107166571D01*
X96171219Y-107106844D01*
X96170074Y-107040011D01*
X96201751Y-106916639D01*
X96201751Y-106750263D01*
X96187630Y-106695264D01*
X96160376Y-106589117D01*
X96160372Y-106589109D01*
X96080223Y-106443319D01*
X96055900Y-106414840D01*
X95237076Y-105596016D01*
X95208597Y-105571693D01*
X95062807Y-105491544D01*
X95062800Y-105491541D01*
X94907781Y-105451738D01*
X94846775Y-105415423D01*
X94815087Y-105351891D01*
X94822778Y-105281312D01*
X94850044Y-105240580D01*
X94851832Y-105238793D01*
X94914153Y-105204785D01*
X94940902Y-105201913D01*
X95247924Y-105201913D01*
X95316045Y-105221915D01*
G37*
%TD.AperFunction*%
%TA.AperFunction,Conductor*%
G36*
X68505042Y-93782236D02*
G01*
X68550103Y-93811194D01*
X68702873Y-93963964D01*
X68702878Y-93963968D01*
X68702889Y-93963978D01*
X68783829Y-94029914D01*
X68783830Y-94029914D01*
X68783832Y-94029916D01*
X68942283Y-94109494D01*
X69114817Y-94150385D01*
X69114819Y-94150385D01*
X69292126Y-94150385D01*
X69292128Y-94150385D01*
X69464661Y-94109494D01*
X69623113Y-94029916D01*
X69646287Y-94011037D01*
X69711733Y-93983521D01*
X69781668Y-93995756D01*
X69814962Y-94019631D01*
X70666321Y-94870990D01*
X70700347Y-94933302D01*
X70695282Y-95004117D01*
X70652735Y-95060953D01*
X70651292Y-95062018D01*
X70638746Y-95071133D01*
X70638744Y-95071135D01*
X70510965Y-95213048D01*
X70510958Y-95213058D01*
X70415473Y-95378441D01*
X70397834Y-95432727D01*
X70357759Y-95491332D01*
X70315551Y-95512434D01*
X70315872Y-95513279D01*
X70308748Y-95515980D01*
X70161774Y-95593117D01*
X70161767Y-95593122D01*
X70108651Y-95637390D01*
X69783037Y-95963005D01*
X69738768Y-96016122D01*
X69661632Y-96163095D01*
X69654016Y-96193997D01*
X69618292Y-96255352D01*
X69561833Y-96286181D01*
X69530928Y-96293798D01*
X69383956Y-96370934D01*
X69383949Y-96370939D01*
X69330833Y-96415207D01*
X69005219Y-96740822D01*
X68960950Y-96793939D01*
X68883814Y-96940912D01*
X68876197Y-96971817D01*
X68840473Y-97033171D01*
X68784013Y-97063999D01*
X68778930Y-97065252D01*
X68753111Y-97071616D01*
X68606139Y-97148752D01*
X68606132Y-97148757D01*
X68553016Y-97193025D01*
X68227402Y-97518640D01*
X68183133Y-97571757D01*
X68105997Y-97718730D01*
X68098381Y-97749632D01*
X68062657Y-97810987D01*
X68006198Y-97841816D01*
X67975293Y-97849433D01*
X67828321Y-97926569D01*
X67828314Y-97926574D01*
X67775198Y-97970842D01*
X67449584Y-98296457D01*
X67405315Y-98349574D01*
X67328179Y-98496547D01*
X67320562Y-98527452D01*
X67284838Y-98588806D01*
X67228378Y-98619634D01*
X67223295Y-98620887D01*
X67197476Y-98627251D01*
X67050504Y-98704387D01*
X67050497Y-98704392D01*
X66997381Y-98748660D01*
X66967100Y-98778942D01*
X66916445Y-98829596D01*
X66854136Y-98863620D01*
X66827352Y-98866500D01*
X65208200Y-98866500D01*
X65140079Y-98846498D01*
X65114563Y-98824810D01*
X65111252Y-98821133D01*
X64956752Y-98708882D01*
X64782288Y-98631206D01*
X64595487Y-98591500D01*
X64404513Y-98591500D01*
X64217711Y-98631206D01*
X64043247Y-98708882D01*
X63888744Y-98821135D01*
X63760965Y-98963048D01*
X63760958Y-98963058D01*
X63665476Y-99128438D01*
X63665473Y-99128445D01*
X63606457Y-99310072D01*
X63586496Y-99500000D01*
X63606457Y-99689927D01*
X63618905Y-99728237D01*
X63665473Y-99871556D01*
X63686358Y-99907729D01*
X63760958Y-100036941D01*
X63760965Y-100036951D01*
X63888744Y-100178864D01*
X63888747Y-100178866D01*
X64043248Y-100291118D01*
X64217712Y-100368794D01*
X64404513Y-100408500D01*
X64595487Y-100408500D01*
X64782288Y-100368794D01*
X64956752Y-100291118D01*
X65111253Y-100178866D01*
X65114563Y-100175190D01*
X65175009Y-100137950D01*
X65208200Y-100133500D01*
X65308351Y-100133500D01*
X65376472Y-100153502D01*
X65422965Y-100207158D01*
X65433069Y-100277432D01*
X65403575Y-100342012D01*
X65397447Y-100348595D01*
X65116132Y-100629910D01*
X65071863Y-100683027D01*
X64994727Y-100830001D01*
X64987109Y-100860905D01*
X64951383Y-100922258D01*
X64894929Y-100953085D01*
X64864025Y-100960703D01*
X64717052Y-101037839D01*
X64717045Y-101037844D01*
X64663929Y-101082112D01*
X64462742Y-101283299D01*
X64400430Y-101317324D01*
X64329614Y-101312259D01*
X64272779Y-101269712D01*
X64264528Y-101257203D01*
X64251244Y-101234195D01*
X64239040Y-101213056D01*
X64239038Y-101213054D01*
X64239034Y-101213048D01*
X64111255Y-101071135D01*
X63956752Y-100958882D01*
X63782288Y-100881206D01*
X63595487Y-100841500D01*
X63404513Y-100841500D01*
X63217711Y-100881206D01*
X63043247Y-100958882D01*
X62888744Y-101071135D01*
X62760965Y-101213048D01*
X62760958Y-101213058D01*
X62665476Y-101378438D01*
X62665473Y-101378444D01*
X62657363Y-101403405D01*
X62606457Y-101560072D01*
X62586496Y-101750000D01*
X62606457Y-101939927D01*
X62635679Y-102029860D01*
X62665473Y-102121556D01*
X62665476Y-102121561D01*
X62760958Y-102286941D01*
X62760965Y-102286951D01*
X62888744Y-102428864D01*
X63017537Y-102522438D01*
X63060891Y-102578660D01*
X63066966Y-102649397D01*
X63033834Y-102712188D01*
X63032572Y-102713469D01*
X62782680Y-102963362D01*
X62738411Y-103016479D01*
X62661276Y-103163450D01*
X62653658Y-103194357D01*
X62617934Y-103255711D01*
X62561476Y-103286539D01*
X62530571Y-103294156D01*
X62383596Y-103371294D01*
X62383592Y-103371297D01*
X62330476Y-103415565D01*
X62004862Y-103741180D01*
X61960593Y-103794297D01*
X61883457Y-103941271D01*
X61875839Y-103972175D01*
X61840113Y-104033528D01*
X61783659Y-104064355D01*
X61752755Y-104071973D01*
X61605782Y-104149109D01*
X61605775Y-104149114D01*
X61552659Y-104193382D01*
X61227046Y-104518996D01*
X61219008Y-104528641D01*
X61160028Y-104568162D01*
X61089044Y-104569523D01*
X61033134Y-104537075D01*
X58964812Y-102469206D01*
X58187506Y-101692070D01*
X58153474Y-101629762D01*
X58158532Y-101558945D01*
X58201072Y-101502105D01*
X58256878Y-101478517D01*
X58351368Y-101463552D01*
X58575992Y-101390567D01*
X58786433Y-101283342D01*
X58977510Y-101144516D01*
X59144517Y-100977509D01*
X59283343Y-100786432D01*
X59390568Y-100575991D01*
X59463553Y-100351367D01*
X59500500Y-100118091D01*
X59500500Y-99881907D01*
X59463553Y-99648631D01*
X59390568Y-99424007D01*
X59283343Y-99213566D01*
X59216789Y-99121962D01*
X59144515Y-99022486D01*
X58977512Y-98855483D01*
X58786436Y-98716658D01*
X58786435Y-98716657D01*
X58786433Y-98716656D01*
X58575992Y-98609431D01*
X58351368Y-98536446D01*
X58118092Y-98499499D01*
X57881908Y-98499499D01*
X57648632Y-98536446D01*
X57648629Y-98536446D01*
X57648628Y-98536447D01*
X57424008Y-98609431D01*
X57424000Y-98609434D01*
X57288783Y-98678331D01*
X57219007Y-98691435D01*
X57153222Y-98664735D01*
X57112316Y-98606707D01*
X57105830Y-98558152D01*
X57107762Y-98527452D01*
X57130489Y-98166208D01*
X57130929Y-98160969D01*
X57132786Y-98143303D01*
X57226467Y-97251981D01*
X57227127Y-97246767D01*
X57229932Y-97227776D01*
X57360638Y-96342635D01*
X57361515Y-96337453D01*
X57417639Y-96043239D01*
X57450050Y-95980077D01*
X57511467Y-95944462D01*
X57582390Y-95947705D01*
X57640300Y-95988776D01*
X57663113Y-96034241D01*
X57719665Y-96245294D01*
X57719666Y-96245297D01*
X57816426Y-96452800D01*
X57944764Y-96636086D01*
X57947751Y-96640351D01*
X58109649Y-96802249D01*
X58297200Y-96933574D01*
X58504706Y-97030335D01*
X58725862Y-97089594D01*
X58953949Y-97109549D01*
X59182036Y-97089594D01*
X59403192Y-97030335D01*
X59610698Y-96933574D01*
X59798249Y-96802249D01*
X59960147Y-96640351D01*
X60091472Y-96452800D01*
X60188233Y-96245294D01*
X60247492Y-96024138D01*
X60267447Y-95796051D01*
X60247492Y-95567964D01*
X60203381Y-95403340D01*
X60205071Y-95332366D01*
X60244865Y-95273570D01*
X60310129Y-95245622D01*
X60357700Y-95249024D01*
X60521999Y-95293048D01*
X60750000Y-95312995D01*
X60978004Y-95293048D01*
X60978004Y-95293047D01*
X61005598Y-95285654D01*
X61076575Y-95287342D01*
X61135371Y-95327136D01*
X61163320Y-95392400D01*
X61158320Y-95436097D01*
X61160725Y-95436667D01*
X61159033Y-95443804D01*
X61159032Y-95443807D01*
X61118815Y-95613496D01*
X61118815Y-95787886D01*
X61159032Y-95957575D01*
X61237298Y-96113416D01*
X61302161Y-96193040D01*
X61726020Y-96616897D01*
X61805644Y-96681762D01*
X61961485Y-96760028D01*
X62131174Y-96800245D01*
X62131177Y-96800245D01*
X62138438Y-96801094D01*
X62203776Y-96828870D01*
X62243725Y-96887560D01*
X62245601Y-96958532D01*
X62208810Y-97019252D01*
X62197870Y-97028178D01*
X62138744Y-97071135D01*
X62010965Y-97213048D01*
X62010958Y-97213058D01*
X61915476Y-97378438D01*
X61915473Y-97378445D01*
X61856457Y-97560072D01*
X61836496Y-97750000D01*
X61856457Y-97939927D01*
X61878701Y-98008384D01*
X61915473Y-98121556D01*
X61924255Y-98136766D01*
X62010958Y-98286941D01*
X62010965Y-98286951D01*
X62138744Y-98428864D01*
X62138747Y-98428866D01*
X62293248Y-98541118D01*
X62467712Y-98618794D01*
X62654513Y-98658500D01*
X62845487Y-98658500D01*
X63032288Y-98618794D01*
X63206752Y-98541118D01*
X63361253Y-98428866D01*
X63361255Y-98428864D01*
X63489034Y-98286951D01*
X63489035Y-98286949D01*
X63489040Y-98286944D01*
X63576157Y-98136052D01*
X63627538Y-98087061D01*
X63656209Y-98076453D01*
X63765723Y-98050498D01*
X63921564Y-97972232D01*
X64001188Y-97907369D01*
X64407367Y-97501188D01*
X64472232Y-97421564D01*
X64550498Y-97265723D01*
X64550498Y-97265719D01*
X64553209Y-97260323D01*
X64601656Y-97208425D01*
X64670470Y-97190957D01*
X64737804Y-97213467D01*
X64754903Y-97227776D01*
X65096959Y-97569833D01*
X65177862Y-97635736D01*
X65177863Y-97635737D01*
X65336211Y-97715263D01*
X65508633Y-97756128D01*
X65685824Y-97756128D01*
X65858245Y-97715263D01*
X66016593Y-97635737D01*
X66016594Y-97635736D01*
X66097502Y-97569829D01*
X66572329Y-97095003D01*
X66572329Y-97095001D01*
X65291758Y-95814430D01*
X65257732Y-95752118D01*
X65262797Y-95681303D01*
X65291758Y-95636240D01*
X65472777Y-95455221D01*
X65535089Y-95421195D01*
X65605904Y-95426260D01*
X65650967Y-95455221D01*
X66931538Y-96735792D01*
X66931540Y-96735792D01*
X67406366Y-96260965D01*
X67472273Y-96180057D01*
X67472274Y-96180056D01*
X67551800Y-96021708D01*
X67592665Y-95849287D01*
X67592665Y-95672095D01*
X67551800Y-95499674D01*
X67472274Y-95341326D01*
X67472273Y-95341325D01*
X67406370Y-95260422D01*
X66494543Y-94348596D01*
X66460518Y-94286283D01*
X66465582Y-94215468D01*
X66508129Y-94158632D01*
X66574649Y-94133821D01*
X66583638Y-94133500D01*
X67849602Y-94133500D01*
X67849603Y-94133500D01*
X67971994Y-94109155D01*
X68087284Y-94061400D01*
X68191042Y-93992071D01*
X68371916Y-93811195D01*
X68434226Y-93777172D01*
X68505042Y-93782236D01*
G37*
%TD.AperFunction*%
%TA.AperFunction,Conductor*%
G36*
X81162602Y-94766999D02*
G01*
X81162818Y-94766515D01*
X81168464Y-94769028D01*
X81168690Y-94769107D01*
X81168835Y-94769190D01*
X81168850Y-94769201D01*
X81343314Y-94846877D01*
X81348024Y-94847878D01*
X81410498Y-94881606D01*
X81444820Y-94943756D01*
X81447137Y-94957952D01*
X81457318Y-95054809D01*
X81457318Y-95054811D01*
X81457319Y-95054813D01*
X81473865Y-95105735D01*
X81516333Y-95236437D01*
X81516336Y-95236442D01*
X81611818Y-95401822D01*
X81611825Y-95401832D01*
X81739604Y-95543745D01*
X81739607Y-95543747D01*
X81894108Y-95655999D01*
X82017684Y-95711018D01*
X82071780Y-95756998D01*
X82091744Y-95812949D01*
X82093118Y-95826017D01*
X82152133Y-96007645D01*
X82152136Y-96007650D01*
X82247618Y-96173030D01*
X82247621Y-96173034D01*
X82378121Y-96317970D01*
X82408838Y-96381978D01*
X82400073Y-96452431D01*
X82354610Y-96506962D01*
X82286882Y-96528257D01*
X82244851Y-96521885D01*
X82100499Y-96474052D01*
X82100496Y-96474051D01*
X81996694Y-96463446D01*
X81325178Y-96463446D01*
X81325178Y-97892446D01*
X82704178Y-97892446D01*
X82704178Y-97170929D01*
X82693572Y-97067127D01*
X82693571Y-97067124D01*
X82637835Y-96898920D01*
X82544812Y-96748106D01*
X82544807Y-96748100D01*
X82459054Y-96662347D01*
X82425028Y-96600035D01*
X82430093Y-96529220D01*
X82472640Y-96472384D01*
X82539160Y-96447573D01*
X82599395Y-96458144D01*
X82704372Y-96504883D01*
X82891173Y-96544589D01*
X83082147Y-96544589D01*
X83154452Y-96529220D01*
X83268948Y-96504883D01*
X83268948Y-96504882D01*
X83275407Y-96503510D01*
X83275674Y-96504766D01*
X83339659Y-96502935D01*
X83400459Y-96539593D01*
X83427468Y-96585860D01*
X83486650Y-96768000D01*
X83486654Y-96768007D01*
X83582136Y-96933387D01*
X83582143Y-96933397D01*
X83709922Y-97075310D01*
X83709925Y-97075312D01*
X83864426Y-97187564D01*
X84038890Y-97265240D01*
X84225691Y-97304946D01*
X84281584Y-97304946D01*
X84349705Y-97324948D01*
X84370679Y-97341851D01*
X84500773Y-97471945D01*
X84534799Y-97534257D01*
X84537678Y-97561040D01*
X84537678Y-99121990D01*
X84548290Y-99225871D01*
X84595685Y-99368900D01*
X84604063Y-99394184D01*
X84622457Y-99424006D01*
X84665979Y-99494565D01*
X84684716Y-99563045D01*
X84663457Y-99630783D01*
X84608949Y-99676275D01*
X84598371Y-99680316D01*
X84453761Y-99728235D01*
X84305331Y-99819788D01*
X84305325Y-99819793D01*
X84297419Y-99827700D01*
X84235107Y-99861726D01*
X84164292Y-99856661D01*
X84119229Y-99827700D01*
X84111717Y-99820188D01*
X84111711Y-99820183D01*
X83963385Y-99728694D01*
X83797954Y-99673877D01*
X83797951Y-99673876D01*
X83695862Y-99663446D01*
X83600178Y-99663446D01*
X83600178Y-100774446D01*
X83580176Y-100842567D01*
X83526520Y-100889060D01*
X83474178Y-100900446D01*
X82300678Y-100900446D01*
X82300678Y-100933630D01*
X82311108Y-101035719D01*
X82311109Y-101035722D01*
X82365926Y-101201153D01*
X82457415Y-101349479D01*
X82457420Y-101349485D01*
X82580638Y-101472703D01*
X82580644Y-101472708D01*
X82728970Y-101564197D01*
X82894401Y-101619014D01*
X82894404Y-101619015D01*
X82939255Y-101623598D01*
X83004990Y-101650420D01*
X83045788Y-101708523D01*
X83048697Y-101779460D01*
X83012793Y-101840709D01*
X82949474Y-101872823D01*
X82926448Y-101874945D01*
X82307346Y-101874945D01*
X82239225Y-101854943D01*
X82218251Y-101838040D01*
X81333296Y-100953085D01*
X80424750Y-100044540D01*
X80390726Y-99982229D01*
X80395790Y-99911414D01*
X80438337Y-99854578D01*
X80504857Y-99829767D01*
X80513846Y-99829446D01*
X80817178Y-99829446D01*
X81325178Y-99829446D01*
X81996695Y-99829446D01*
X81996694Y-99829445D01*
X82100496Y-99818840D01*
X82100499Y-99818839D01*
X82268704Y-99763102D01*
X82314220Y-99735028D01*
X82382699Y-99716290D01*
X82450438Y-99737549D01*
X82495931Y-99792055D01*
X82504732Y-99862504D01*
X82474049Y-99926528D01*
X82469466Y-99931361D01*
X82457415Y-99943412D01*
X82365926Y-100091738D01*
X82311109Y-100257169D01*
X82311108Y-100257172D01*
X82300678Y-100359261D01*
X82300678Y-100392446D01*
X83092178Y-100392446D01*
X83092178Y-99663446D01*
X82996493Y-99663446D01*
X82894404Y-99673876D01*
X82894401Y-99673877D01*
X82728971Y-99728694D01*
X82685940Y-99755236D01*
X82617460Y-99773972D01*
X82549722Y-99752712D01*
X82504230Y-99698204D01*
X82495430Y-99627755D01*
X82526114Y-99563732D01*
X82530701Y-99558896D01*
X82544812Y-99544785D01*
X82637835Y-99393971D01*
X82693571Y-99225767D01*
X82693572Y-99225764D01*
X82704177Y-99121962D01*
X82704178Y-99121962D01*
X82704178Y-98400446D01*
X81325178Y-98400446D01*
X81325178Y-99829446D01*
X80817178Y-99829446D01*
X80817178Y-96704207D01*
X80837180Y-96636086D01*
X80838413Y-96634205D01*
X80845862Y-96623057D01*
X80907578Y-96530693D01*
X80955333Y-96415403D01*
X80979678Y-96293012D01*
X80979678Y-96168225D01*
X80979678Y-94878220D01*
X80999680Y-94810099D01*
X81053336Y-94763606D01*
X81123610Y-94753502D01*
X81162602Y-94766999D01*
G37*
%TD.AperFunction*%
%TA.AperFunction,Conductor*%
G36*
X60056724Y-89215576D02*
G01*
X60097906Y-89273408D01*
X60104836Y-89314618D01*
X60104836Y-89348618D01*
X60140820Y-89500445D01*
X60145728Y-89521154D01*
X60225301Y-89679596D01*
X60225303Y-89679599D01*
X60225305Y-89679602D01*
X60291255Y-89760562D01*
X60857711Y-90327017D01*
X60938671Y-90392968D01*
X61097118Y-90472544D01*
X61097122Y-90472546D01*
X61269655Y-90513437D01*
X61269657Y-90513437D01*
X61380809Y-90513437D01*
X61448930Y-90533439D01*
X61491222Y-90578734D01*
X61563802Y-90710755D01*
X61588120Y-90739228D01*
X62406244Y-91557352D01*
X62440268Y-91619663D01*
X62435204Y-91690478D01*
X62406243Y-91735541D01*
X62383969Y-91757815D01*
X62321657Y-91791841D01*
X62250842Y-91786776D01*
X62205779Y-91757816D01*
X61387683Y-90939722D01*
X61359239Y-90915427D01*
X61213557Y-90835339D01*
X61213550Y-90835336D01*
X61052534Y-90793993D01*
X61052526Y-90793992D01*
X60886279Y-90793992D01*
X60886271Y-90793993D01*
X60725258Y-90835335D01*
X60725252Y-90835338D01*
X60579791Y-90915302D01*
X60579791Y-90915303D01*
X61278762Y-91614273D01*
X61278762Y-91614274D01*
X62082498Y-92418010D01*
X62115444Y-92475769D01*
X62137721Y-92562531D01*
X62137722Y-92562534D01*
X62137723Y-92562535D01*
X62217876Y-92708332D01*
X62224189Y-92715724D01*
X62242197Y-92736809D01*
X63167088Y-93661700D01*
X63167103Y-93661714D01*
X63168283Y-93662722D01*
X63168419Y-93662931D01*
X63168919Y-93663393D01*
X63168802Y-93663518D01*
X63207085Y-93722177D01*
X63207583Y-93793172D01*
X63175536Y-93847618D01*
X62431754Y-94591400D01*
X62369442Y-94625426D01*
X62313605Y-94624910D01*
X62291434Y-94619656D01*
X62287886Y-94618815D01*
X62113496Y-94618815D01*
X62106157Y-94618815D01*
X62106157Y-94616720D01*
X62046432Y-94606512D01*
X61994027Y-94558614D01*
X61975836Y-94489988D01*
X61982591Y-94454439D01*
X61982389Y-94454385D01*
X61983121Y-94451650D01*
X61983393Y-94450223D01*
X61983814Y-94449065D01*
X62043048Y-94228002D01*
X62062995Y-94000000D01*
X62043048Y-93771997D01*
X61983813Y-93550931D01*
X61983811Y-93550926D01*
X61887086Y-93343498D01*
X61835168Y-93269351D01*
X61812480Y-93202077D01*
X61829765Y-93133217D01*
X61877681Y-93086666D01*
X61977731Y-93031664D01*
X61278762Y-92332695D01*
X61278762Y-92332694D01*
X60220582Y-91274513D01*
X60220580Y-91274513D01*
X60140616Y-91419974D01*
X60140613Y-91419980D01*
X60099271Y-91580993D01*
X60099270Y-91581000D01*
X60099270Y-91747248D01*
X60099271Y-91747256D01*
X60140614Y-91908272D01*
X60140617Y-91908279D01*
X60220704Y-92053961D01*
X60244996Y-92082402D01*
X60245011Y-92082418D01*
X60650519Y-92487924D01*
X60684544Y-92550236D01*
X60679480Y-92621052D01*
X60636933Y-92677888D01*
X60572407Y-92702540D01*
X60522006Y-92706950D01*
X60521999Y-92706951D01*
X60300931Y-92766186D01*
X60300926Y-92766188D01*
X60093500Y-92862913D01*
X60022109Y-92912900D01*
X60709209Y-93600000D01*
X60697339Y-93600000D01*
X60595606Y-93627259D01*
X60504394Y-93679920D01*
X60429920Y-93754394D01*
X60377259Y-93845606D01*
X60350000Y-93947339D01*
X60350000Y-93959209D01*
X59662900Y-93272109D01*
X59612913Y-93343500D01*
X59516188Y-93550926D01*
X59516186Y-93550931D01*
X59456951Y-93771997D01*
X59437004Y-94000000D01*
X59456951Y-94228002D01*
X59500975Y-94392300D01*
X59499285Y-94463276D01*
X59459491Y-94522072D01*
X59394226Y-94550020D01*
X59346657Y-94546618D01*
X59249809Y-94520668D01*
X59182036Y-94502508D01*
X58953949Y-94482553D01*
X58725862Y-94502508D01*
X58504708Y-94561766D01*
X58504702Y-94561768D01*
X58297199Y-94658528D01*
X58109652Y-94789850D01*
X58109646Y-94789855D01*
X57947753Y-94951748D01*
X57947748Y-94951754D01*
X57870968Y-95061407D01*
X57815510Y-95105735D01*
X57744891Y-95113044D01*
X57681531Y-95081013D01*
X57645546Y-95019811D01*
X57645084Y-94960364D01*
X57645510Y-94958548D01*
X57742578Y-94544695D01*
X57743872Y-94539655D01*
X57989662Y-93659335D01*
X57991174Y-93654329D01*
X58273612Y-92785075D01*
X58275345Y-92780099D01*
X58277351Y-92774706D01*
X58593930Y-91923454D01*
X58595839Y-91918629D01*
X58950049Y-91075996D01*
X58952149Y-91071281D01*
X59341314Y-90244262D01*
X59343619Y-90239618D01*
X59767098Y-89429576D01*
X59769619Y-89424993D01*
X59869717Y-89251617D01*
X59921100Y-89202625D01*
X59990813Y-89189189D01*
X60056724Y-89215576D01*
G37*
%TD.AperFunction*%
%TA.AperFunction,Conductor*%
G36*
X72497660Y-83299948D02*
G01*
X72518634Y-83316851D01*
X72679673Y-83477890D01*
X72713699Y-83540202D01*
X72708634Y-83611017D01*
X72679673Y-83656080D01*
X72194245Y-84141508D01*
X72194245Y-84141509D01*
X73169345Y-85116609D01*
X73169346Y-85116609D01*
X73654773Y-84631181D01*
X73717086Y-84597156D01*
X73787901Y-84602220D01*
X73832964Y-84631181D01*
X74013983Y-84812200D01*
X74048009Y-84874512D01*
X74042944Y-84945327D01*
X74013984Y-84990390D01*
X73258441Y-85745934D01*
X73196128Y-85779959D01*
X73125313Y-85774895D01*
X73080250Y-85745934D01*
X71835036Y-84500719D01*
X71835035Y-84500719D01*
X71324848Y-85010906D01*
X71258945Y-85091809D01*
X71258944Y-85091810D01*
X71179418Y-85250158D01*
X71138554Y-85422579D01*
X71138554Y-85599771D01*
X71179418Y-85772192D01*
X71258944Y-85930540D01*
X71258945Y-85930541D01*
X71324852Y-86011449D01*
X72633716Y-87320313D01*
X72714624Y-87386220D01*
X72714625Y-87386221D01*
X72872973Y-87465747D01*
X73045395Y-87506612D01*
X73222586Y-87506612D01*
X73395007Y-87465747D01*
X73553355Y-87386221D01*
X73553356Y-87386220D01*
X73634259Y-87320317D01*
X74368542Y-86586034D01*
X74430855Y-86552009D01*
X74501670Y-86557073D01*
X74558506Y-86599620D01*
X74583317Y-86666140D01*
X74583638Y-86675129D01*
X74583638Y-86864712D01*
X74563636Y-86932833D01*
X74546733Y-86953807D01*
X73044454Y-88456085D01*
X73029421Y-88468925D01*
X72888745Y-88571134D01*
X72888743Y-88571135D01*
X72760965Y-88713047D01*
X72760958Y-88713057D01*
X72690986Y-88834253D01*
X72665473Y-88878443D01*
X72653503Y-88915284D01*
X72606457Y-89060071D01*
X72586496Y-89249999D01*
X72606457Y-89439926D01*
X72626952Y-89503000D01*
X72665473Y-89621555D01*
X72682526Y-89651092D01*
X72760958Y-89786940D01*
X72760965Y-89786950D01*
X72888744Y-89928863D01*
X72938712Y-89965167D01*
X73043248Y-90041117D01*
X73217712Y-90118793D01*
X73404513Y-90158499D01*
X73460406Y-90158499D01*
X73528527Y-90178501D01*
X73549501Y-90195404D01*
X74640000Y-91285903D01*
X74674026Y-91348215D01*
X74668961Y-91419030D01*
X74640001Y-91464093D01*
X74299501Y-91804595D01*
X74237189Y-91838620D01*
X74210405Y-91841500D01*
X74154513Y-91841500D01*
X73967711Y-91881206D01*
X73793247Y-91958882D01*
X73638744Y-92071135D01*
X73510965Y-92213048D01*
X73510958Y-92213058D01*
X73428222Y-92356362D01*
X73415473Y-92378444D01*
X73403388Y-92415637D01*
X73356457Y-92560072D01*
X73336496Y-92750000D01*
X73356457Y-92939927D01*
X73361925Y-92956754D01*
X73415473Y-93121556D01*
X73443841Y-93170691D01*
X73510958Y-93286941D01*
X73510965Y-93286951D01*
X73638744Y-93428864D01*
X73638747Y-93428866D01*
X73793248Y-93541118D01*
X73967712Y-93618794D01*
X74154513Y-93658500D01*
X74345487Y-93658500D01*
X74532288Y-93618794D01*
X74706752Y-93541118D01*
X74861253Y-93428866D01*
X74946397Y-93334304D01*
X74989034Y-93286951D01*
X74989035Y-93286949D01*
X74989040Y-93286944D01*
X75084527Y-93121556D01*
X75143542Y-92939928D01*
X75160907Y-92774704D01*
X75187920Y-92709049D01*
X75197113Y-92698790D01*
X75975503Y-91920400D01*
X76037813Y-91886377D01*
X76064587Y-91883498D01*
X76884030Y-91883498D01*
X76952151Y-91903500D01*
X76998644Y-91957156D01*
X77008748Y-92027430D01*
X76979254Y-92092010D01*
X76973125Y-92098593D01*
X74819803Y-94251917D01*
X74757491Y-94285942D01*
X74730708Y-94288822D01*
X73554499Y-94288822D01*
X73486378Y-94268820D01*
X73465404Y-94251918D01*
X73193079Y-93979594D01*
X73139996Y-93936352D01*
X73113460Y-93914735D01*
X72957619Y-93836468D01*
X72957620Y-93836468D01*
X72901056Y-93823062D01*
X72787930Y-93796252D01*
X72776739Y-93796252D01*
X72708618Y-93776250D01*
X72662125Y-93722594D01*
X72650739Y-93670252D01*
X72650739Y-93659620D01*
X72610548Y-93490045D01*
X72532333Y-93334306D01*
X72532332Y-93334304D01*
X72467508Y-93254728D01*
X72399861Y-93187081D01*
X72399860Y-93187081D01*
X71676134Y-93910806D01*
X71613822Y-93944831D01*
X71543006Y-93939766D01*
X71497944Y-93910805D01*
X71316925Y-93729786D01*
X71282899Y-93667474D01*
X71287964Y-93596659D01*
X71316925Y-93551596D01*
X71525169Y-93343352D01*
X71525169Y-93343351D01*
X72040650Y-92827870D01*
X71973002Y-92760222D01*
X71893426Y-92695398D01*
X71893424Y-92695397D01*
X71737685Y-92617182D01*
X71568110Y-92576992D01*
X71393838Y-92576992D01*
X71297662Y-92599785D01*
X71226765Y-92596031D01*
X71169152Y-92554543D01*
X71143115Y-92488493D01*
X71156013Y-92420624D01*
X71158519Y-92415636D01*
X71199410Y-92243103D01*
X71199410Y-92065792D01*
X71158519Y-91893258D01*
X71078941Y-91734807D01*
X71014711Y-91655960D01*
X71012986Y-91653843D01*
X69633361Y-90274219D01*
X69552404Y-90208269D01*
X69393951Y-90128690D01*
X69362373Y-90121206D01*
X69221417Y-90087799D01*
X69044106Y-90087799D01*
X68871573Y-90128690D01*
X68871571Y-90128690D01*
X68871570Y-90128691D01*
X68871569Y-90128691D01*
X68815119Y-90157042D01*
X68745267Y-90169740D01*
X68679639Y-90142657D01*
X68669476Y-90133539D01*
X68563416Y-90027479D01*
X68529390Y-89965167D01*
X68529908Y-89909323D01*
X68532616Y-89897902D01*
X68532616Y-89723512D01*
X68532616Y-89716173D01*
X68534513Y-89716173D01*
X68544824Y-89655772D01*
X68592711Y-89603356D01*
X68661333Y-89585150D01*
X68728905Y-89606935D01*
X68737601Y-89613417D01*
X68795278Y-89660400D01*
X68795279Y-89660401D01*
X68953627Y-89739927D01*
X69126049Y-89780792D01*
X69303240Y-89780792D01*
X69475661Y-89739927D01*
X69634009Y-89660401D01*
X69634010Y-89660400D01*
X69714913Y-89594497D01*
X70225100Y-89084310D01*
X70225100Y-89084309D01*
X69250000Y-88109210D01*
X67915690Y-86774899D01*
X67915689Y-86774899D01*
X67405502Y-87285086D01*
X67339599Y-87365989D01*
X67339598Y-87365990D01*
X67260072Y-87524338D01*
X67219208Y-87696759D01*
X67219208Y-87881292D01*
X67216776Y-87881292D01*
X67206763Y-87939846D01*
X67158861Y-87992248D01*
X67090233Y-88010434D01*
X67022668Y-87988629D01*
X67004485Y-87973573D01*
X66821836Y-87790924D01*
X66787810Y-87728612D01*
X66784931Y-87701829D01*
X66784931Y-86415689D01*
X68274899Y-86415689D01*
X69250000Y-87390790D01*
X70584309Y-88725100D01*
X70584310Y-88725100D01*
X71094497Y-88214913D01*
X71160400Y-88134010D01*
X71160401Y-88134009D01*
X71239927Y-87975661D01*
X71280792Y-87803240D01*
X71280792Y-87626048D01*
X71239927Y-87453627D01*
X71160401Y-87295279D01*
X71160400Y-87295278D01*
X71094493Y-87214370D01*
X69785629Y-85905506D01*
X69704721Y-85839599D01*
X69704720Y-85839598D01*
X69546372Y-85760072D01*
X69373951Y-85719208D01*
X69196760Y-85719208D01*
X69024338Y-85760072D01*
X68865990Y-85839598D01*
X68865989Y-85839599D01*
X68785086Y-85905502D01*
X68274899Y-86415689D01*
X66784931Y-86415689D01*
X66784931Y-85364887D01*
X66804933Y-85296766D01*
X66821831Y-85275796D01*
X67488628Y-84609000D01*
X67554580Y-84528041D01*
X67634158Y-84369590D01*
X67675049Y-84197056D01*
X67675049Y-84019745D01*
X67634158Y-83847212D01*
X67554580Y-83688760D01*
X67533799Y-83663250D01*
X67506283Y-83597804D01*
X67518518Y-83527870D01*
X67542389Y-83494579D01*
X67720120Y-83316850D01*
X67782432Y-83282825D01*
X67809215Y-83279946D01*
X72429539Y-83279946D01*
X72497660Y-83299948D01*
G37*
%TD.AperFunction*%
%TD*%
M02*
