M48
; DRILL file {KiCad 8.0.5} date 2025-04-26T14:00:16+0200
; FORMAT={-:-/ absolute / inch / decimal}
; #@! TF.CreationDate,2025-04-26T14:00:16+02:00
; #@! TF.GenerationSoftware,Kicad,Pcbnew,8.0.5
; #@! TF.FileFunction,Plated,1,2,PTH
FMAT,2
INCH
; #@! TA.AperFunction,Plated,PTH,ViaDrill
T1C0.0157
; #@! TA.AperFunction,Plated,PTH,ComponentDrill
T2C0.0256
; #@! TA.AperFunction,Plated,PTH,ViaDrill
T3C0.0315
; #@! TA.AperFunction,Plated,PTH,ComponentDrill
T4C0.0315
%
G90
G05
T1
X2.4705Y-3.8484
X2.5Y-4.0059
X2.5394Y-3.9173
X2.6308Y-4.0707
X2.6603Y-4.0412
X2.6898Y-4.0117
X2.7292Y-3.3129
X2.7882Y-3.1751
X2.8051Y-3.7697
X2.8815Y-3.9578
X2.8937Y-3.5138
X2.9063Y-3.5786
X2.9232Y-3.6516
X2.931Y-3.9669
X2.976Y-3.9716
X2.9806Y-3.7612
X3.0048Y-3.1947
X3.0835Y-4.1101
X3.0906Y-4.5472
X3.122Y-4.4498
X3.1693Y-4.3898
X3.1791Y-4.4783
X3.1918Y-3.6672
X3.2136Y-3.6999
X3.2213Y-3.431
X3.2213Y-3.6377
X3.2213Y-3.9625
X3.2422Y-3.7348
X3.2491Y-3.6091
X3.2672Y-3.7652
X3.3197Y-3.7951
X3.3197Y-4.2676
X3.3465Y-4.5866
X3.4674Y-3.9428
X3.4969Y-3.7951
X3.5264Y-4.0018
X3.5363Y-4.2676
X3.6319Y-3.4154
X3.6544Y-4.0609
X3.7645Y-4.1673
X3.8808Y-3.7164
T2
X3.4321Y-3.5187
X3.4321Y-3.5687
X3.4821Y-3.5187
X3.4821Y-3.5687
X3.5321Y-3.5187
X3.5321Y-3.5687
X3.5821Y-3.5187
X3.5821Y-3.5687
X3.6321Y-3.5187
X3.6321Y-3.5687
X3.6821Y-3.5187
X3.6821Y-3.5687
X3.7321Y-3.5187
X3.7321Y-3.5687
T3
X3.1359Y-3.4932
X3.7134Y-3.8837
T4
X2.321Y-3.7715
X2.3917Y-3.7008
M30
