M48
; DRILL file {KiCad 9.0.5} date 2025-11-11T21:30:06+0100
; FORMAT={-:-/ absolute / metric / decimal}
; #@! TF.CreationDate,2025-11-11T21:30:06+01:00
; #@! TF.GenerationSoftware,Kicad,Pcbnew,9.0.5
; #@! TF.FileFunction,Plated,1,2,PTH
FMAT,2
METRIC
; #@! TA.AperFunction,Plated,PTH,ViaDrill
T1C0.400
; #@! TA.AperFunction,Plated,PTH,ComponentDrill
T2C0.650
; #@! TA.AperFunction,Plated,PTH,ViaDrill
T3C0.800
; #@! TA.AperFunction,Plated,PTH,ComponentDrill
T4C0.800
%
G90
G05
T1
X61.75Y-103.25
X62.625Y-101.35
X66.821Y-103.396
X67.0Y-99.0
X67.571Y-102.646
X67.75Y-93.75
X68.321Y-101.896
X71.0Y-90.5
X71.25Y-95.75
X72.0Y-89.5
X73.19Y-100.527
X73.5Y-89.25
X74.25Y-92.75
X74.448Y-100.76
X75.59Y-100.878
X75.708Y-95.534
X76.25Y-102.5
X77.25Y-86.75
X77.341Y-80.543
X78.292Y-104.754
X78.5Y-115.5
X79.3Y-113.025
X80.5Y-111.5
X80.75Y-113.75
X81.071Y-93.146
X81.626Y-93.978
X81.821Y-92.396
X81.821Y-100.646
X82.15Y-86.5
X82.25Y-81.25
X82.351Y-94.865
X82.528Y-91.672
X82.987Y-95.636
X83.168Y-107.555
X83.5Y-104.25
X83.5Y-111.0
X84.0Y-96.5
X84.0Y-107.0
X84.322Y-108.734
X84.75Y-80.0
X85.0Y-116.5
X88.071Y-100.146
X88.821Y-96.396
X88.826Y-108.492
X89.571Y-101.646
X89.793Y-96.631
X89.821Y-108.396
X91.5Y-109.5
X92.25Y-86.75
T2
X87.175Y-89.375
X87.175Y-90.645
X88.445Y-89.375
X88.445Y-90.645
X89.715Y-89.375
X89.715Y-90.645
X90.985Y-89.375
X90.985Y-90.645
X92.255Y-89.375
X92.255Y-90.645
X93.525Y-89.375
X93.525Y-90.645
X94.795Y-89.375
X94.795Y-90.645
T3
X79.651Y-88.726
T4
X97.261Y-93.261
X99.057Y-95.057
M30
