%TF.GenerationSoftware,KiCad,Pcbnew,9.0.5*%
%TF.CreationDate,2025-11-11T21:30:02+01:00*%
%TF.ProjectId,vlvts,766c7674-732e-46b6-9963-61645f706362,rev?*%
%TF.SameCoordinates,Original*%
%TF.FileFunction,Copper,L1,Top*%
%TF.FilePolarity,Positive*%
%FSLAX46Y46*%
G04 Gerber Fmt 4.6, Leading zero omitted, Abs format (unit mm)*
G04 Created by KiCad (PCBNEW 9.0.5) date 2025-11-11 21:30:02*
%MOMM*%
%LPD*%
G01*
G04 APERTURE LIST*
G04 Aperture macros list*
%AMRoundRect*
0 Rectangle with rounded corners*
0 $1 Rounding radius*
0 $2 $3 $4 $5 $6 $7 $8 $9 X,Y pos of 4 corners*
0 Add a 4 corners polygon primitive as box body*
4,1,4,$2,$3,$4,$5,$6,$7,$8,$9,$2,$3,0*
0 Add four circle primitives for the rounded corners*
1,1,$1+$1,$2,$3*
1,1,$1+$1,$4,$5*
1,1,$1+$1,$6,$7*
1,1,$1+$1,$8,$9*
0 Add four rect primitives between the rounded corners*
20,1,$1+$1,$2,$3,$4,$5,0*
20,1,$1+$1,$4,$5,$6,$7,0*
20,1,$1+$1,$6,$7,$8,$9,0*
20,1,$1+$1,$8,$9,$2,$3,0*%
%AMHorizOval*
0 Thick line with rounded ends*
0 $1 width*
0 $2 $3 position (X,Y) of the first rounded end (center of the circle)*
0 $4 $5 position (X,Y) of the second rounded end (center of the circle)*
0 Add line between two ends*
20,1,$1,$2,$3,$4,$5,0*
0 Add two circle primitives to create the rounded ends*
1,1,$1,$2,$3*
1,1,$1,$4,$5*%
G04 Aperture macros list end*
%TA.AperFunction,SMDPad,CuDef*%
%ADD10RoundRect,0.250000X-0.250000X-2.500000X0.250000X-2.500000X0.250000X2.500000X-0.250000X2.500000X0*%
%TD*%
%TA.AperFunction,SMDPad,CuDef*%
%ADD11RoundRect,0.250000X-0.550000X-1.250000X0.550000X-1.250000X0.550000X1.250000X-0.550000X1.250000X0*%
%TD*%
%TA.AperFunction,ConnectorPad*%
%ADD12C,0.787400*%
%TD*%
%TA.AperFunction,SMDPad,CuDef*%
%ADD13RoundRect,0.237500X-0.237500X0.250000X-0.237500X-0.250000X0.237500X-0.250000X0.237500X0.250000X0*%
%TD*%
%TA.AperFunction,ComponentPad*%
%ADD14C,1.600000*%
%TD*%
%TA.AperFunction,ComponentPad*%
%ADD15HorizOval,1.600000X0.000000X0.000000X0.000000X0.000000X0*%
%TD*%
%TA.AperFunction,ComponentPad*%
%ADD16R,1.000000X1.000000*%
%TD*%
%TA.AperFunction,ComponentPad*%
%ADD17O,1.000000X1.000000*%
%TD*%
%TA.AperFunction,ViaPad*%
%ADD18C,0.800000*%
%TD*%
%TA.AperFunction,ViaPad*%
%ADD19C,1.200000*%
%TD*%
%TA.AperFunction,Conductor*%
%ADD20C,0.250000*%
%TD*%
%TA.AperFunction,Conductor*%
%ADD21C,0.400000*%
%TD*%
G04 APERTURE END LIST*
D10*
%TO.P,BT1,1,+*%
%TO.N,GND*%
X73500000Y-85499999D03*
%TO.P,BT1,2,-*%
%TO.N,BATT_V*%
X75500000Y-85499999D03*
D11*
%TO.P,BT1,MP*%
%TO.N,N/C*%
X71100000Y-83249999D03*
X77900000Y-83249999D03*
%TD*%
D12*
%TO.P,J5,1,VTref*%
%TO.N,VDD*%
X83398025Y-113305923D03*
%TO.P,J5,2,SWDIO/TMS*%
%TO.N,/MCU/SWDIO*%
X82500000Y-114203949D03*
%TO.P,J5,3,GND*%
%TO.N,GND*%
X81601974Y-115101974D03*
%TO.P,J5,4,SWCLK/TCK*%
%TO.N,/MCU/SWDCLK*%
X80703949Y-116000000D03*
%TO.P,J5,5,GND*%
%TO.N,GND*%
X79805923Y-116898025D03*
%TO.P,J5,6,SWO/TDO*%
%TO.N,unconnected-(J5-SWO{slash}TDO-Pad6)*%
X80703949Y-117796051D03*
%TO.P,J5,7,KEY*%
%TO.N,unconnected-(J5-KEY-Pad7)*%
X81601974Y-116898025D03*
%TO.P,J5,8,NC/TDI*%
%TO.N,unconnected-(J5-NC{slash}TDI-Pad8)*%
X82500000Y-116000000D03*
%TO.P,J5,9,GNDDetect*%
%TO.N,GND*%
X83398025Y-115101974D03*
%TO.P,J5,10,~{RESET}*%
%TO.N,/MCU/nRESET*%
X84296051Y-114203949D03*
%TD*%
D13*
%TO.P,R2,1*%
%TO.N,VDD*%
X97000000Y-89087500D03*
%TO.P,R2,2*%
%TO.N,TEMP*%
X97000000Y-90912500D03*
%TD*%
D10*
%TO.P,M1,1,+*%
%TO.N,/mot_v1*%
X83249999Y-85500000D03*
%TO.P,M1,2,-*%
%TO.N,Net-(M1--)*%
X85249999Y-85500000D03*
D11*
%TO.P,M1,MP*%
%TO.N,N/C*%
X80849999Y-83250000D03*
X87649999Y-83250000D03*
%TD*%
D14*
%TO.P,TH1,1*%
%TO.N,TEMP*%
X97261073Y-93261073D03*
D15*
%TO.P,TH1,2*%
%TO.N,GND*%
X99057124Y-95057124D03*
%TD*%
D16*
%TO.P,J3,1,Pin_1*%
%TO.N,LED_OE*%
X87175000Y-89375000D03*
D17*
%TO.P,J3,2,Pin_2*%
%TO.N,CAP_CLK*%
X87175000Y-90645000D03*
%TO.P,J3,3,Pin_3*%
%TO.N,LED_LA*%
X88445000Y-89375000D03*
%TO.P,J3,4,Pin_4*%
%TO.N,CAP_DATA*%
X88445000Y-90645000D03*
%TO.P,J3,5,Pin_5*%
%TO.N,LED_CLK*%
X89715000Y-89375000D03*
%TO.P,J3,6,Pin_6*%
%TO.N,CAP_IRQ*%
X89715000Y-90645000D03*
%TO.P,J3,7,Pin_7*%
%TO.N,LED_SDI*%
X90985000Y-89375000D03*
%TO.P,J3,8,Pin_8*%
%TO.N,LEDg1*%
X90985000Y-90645000D03*
%TO.P,J3,9,Pin_9*%
%TO.N,GND*%
X92255000Y-89375000D03*
%TO.P,J3,10,Pin_10*%
%TO.N,LEDg2*%
X92255000Y-90645000D03*
%TO.P,J3,11,Pin_11*%
%TO.N,VDD*%
X93525000Y-89375000D03*
%TO.P,J3,12,Pin_12*%
%TO.N,LEDg3*%
X93525000Y-90645000D03*
%TO.P,J3,13,Pin_13*%
%TO.N,GND*%
X94795000Y-89375000D03*
%TO.P,J3,14,Pin_14*%
%TO.N,VEE*%
X94795000Y-90645000D03*
%TD*%
D18*
%TO.N,VDD*%
X83500000Y-111000000D03*
X75708477Y-95533745D03*
X84000000Y-107000000D03*
%TO.N,VEE*%
X91500000Y-109500000D03*
%TO.N,VCC*%
X82149999Y-86500000D03*
X84000000Y-96500000D03*
%TO.N,GND*%
X84750000Y-80000000D03*
X81821178Y-100646446D03*
X80500000Y-111500000D03*
X89571178Y-101646446D03*
X85000000Y-116500000D03*
X71000000Y-90500000D03*
X76250000Y-102500000D03*
X67750000Y-93750000D03*
X83500000Y-104250000D03*
X78500000Y-115500000D03*
X72000000Y-89500000D03*
X82250000Y-81250000D03*
X92250000Y-86750000D03*
%TO.N,Net-(M1--)*%
X88821178Y-96396446D03*
%TO.N,LEDg1*%
X81625602Y-93978083D03*
X73190234Y-100527390D03*
%TO.N,LEDg2*%
X74447706Y-100760262D03*
X82350860Y-94864881D03*
%TO.N,LEDg3*%
X82986660Y-95636089D03*
X75589833Y-100877791D03*
%TO.N,LED_PWR*%
X88825720Y-108491672D03*
X84322179Y-108734332D03*
%TO.N,MOT_PWR*%
X62624847Y-101349847D03*
X77250000Y-86750000D03*
D19*
%TO.N,BATT_V*%
X79651036Y-88726304D03*
D18*
X73500000Y-89249999D03*
X89793239Y-96631185D03*
X74250000Y-92750000D03*
X71250000Y-95750000D03*
%TO.N,TEMP*%
X67000000Y-99000000D03*
%TO.N,CAP_CLK*%
X66821178Y-103396446D03*
X82527933Y-91671946D03*
%TO.N,CAP_DATA*%
X67571178Y-102646446D03*
X81821178Y-92396446D03*
%TO.N,CAP_IRQ*%
X81071178Y-93146446D03*
X68321178Y-101896446D03*
%TO.N,/MCU/nRESET*%
X78291707Y-104754471D03*
%TO.N,/MCU/SWDCLK*%
X79300000Y-113025000D03*
%TO.N,/MCU/SWDIO*%
X80750000Y-113750000D03*
%TO.N,/mot_v1*%
X88071178Y-100146446D03*
%TO.N,LED_SUP*%
X83167947Y-107554702D03*
X89821178Y-108396446D03*
%TO.N,MOT_SUP*%
X61750000Y-103250000D03*
X77340891Y-80543026D03*
%TD*%
D20*
%TO.N,VDD*%
X72465234Y-100829110D02*
X75185124Y-103549000D01*
X75185124Y-103549000D02*
X80549000Y-103549000D01*
X80549000Y-103549000D02*
X84000000Y-107000000D01*
X72465234Y-98776988D02*
X72465234Y-100829110D01*
X94351000Y-88549000D02*
X93525000Y-89375000D01*
X83398025Y-111101975D02*
X83398025Y-113305923D01*
X75708477Y-95533745D02*
X72465234Y-98776988D01*
X83500000Y-111000000D02*
X83398025Y-111101975D01*
X96461500Y-88549000D02*
X94351000Y-88549000D01*
X97000000Y-89087500D02*
X96461500Y-88549000D01*
%TO.N,VEE*%
X94795000Y-90645000D02*
X95247178Y-91097178D01*
X95247178Y-91097178D02*
X95247178Y-99693726D01*
X95247178Y-99693726D02*
X91500000Y-103440904D01*
X91500000Y-103440904D02*
X91500000Y-109500000D01*
D21*
%TO.N,VCC*%
X80461712Y-86500000D02*
X78650036Y-88311676D01*
X79250000Y-89750000D02*
X81806654Y-89750000D01*
X78650036Y-89150036D02*
X79250000Y-89750000D01*
X78650036Y-88311676D02*
X78650036Y-89150036D01*
X82149999Y-86500000D02*
X80461712Y-86500000D01*
X81806654Y-89750000D02*
X83403327Y-91346673D01*
X83403327Y-91346673D02*
X84000000Y-91943346D01*
X84000000Y-91943346D02*
X84000000Y-96500000D01*
D20*
%TO.N,GND*%
X80025000Y-114081775D02*
X80025000Y-111975000D01*
X92255000Y-89375000D02*
X92255000Y-86755000D01*
X81045199Y-115101974D02*
X80025000Y-114081775D01*
X81821178Y-100646446D02*
X78103554Y-100646446D01*
D21*
X67750000Y-93750000D02*
X71000000Y-90500000D01*
D20*
X81601974Y-115101974D02*
X81045199Y-115101974D01*
X73500000Y-85499999D02*
X72000000Y-86999999D01*
X87301940Y-101796446D02*
X88321178Y-101796446D01*
X72000000Y-86999999D02*
X72000000Y-89500000D01*
X83398025Y-115101974D02*
X83601974Y-115101974D01*
X92255000Y-86755000D02*
X92250000Y-86750000D01*
X88321178Y-101796446D02*
X89421178Y-101796446D01*
X79805923Y-116898025D02*
X79805923Y-116805923D01*
X86151940Y-100646446D02*
X87111559Y-101606065D01*
X81821178Y-100646446D02*
X86151940Y-100646446D01*
D21*
X83500000Y-81250000D02*
X84750000Y-80000000D01*
D20*
X87111559Y-101606065D02*
X87301940Y-101796446D01*
X89421178Y-101796446D02*
X89571178Y-101646446D01*
X81821178Y-102571178D02*
X83500000Y-104250000D01*
X79805923Y-116805923D02*
X78500000Y-115500000D01*
D21*
X82250000Y-81250000D02*
X83500000Y-81250000D01*
D20*
X81821178Y-100646446D02*
X81821178Y-102571178D01*
X78103554Y-100646446D02*
X76250000Y-102500000D01*
X80025000Y-111975000D02*
X80500000Y-111500000D01*
X83601974Y-115101974D02*
X85000000Y-116500000D01*
%TO.N,Net-(M1--)*%
X86250000Y-86500001D02*
X85249999Y-85500000D01*
X88821178Y-96396446D02*
X86250000Y-93825268D01*
X86250000Y-93825268D02*
X86250000Y-86500001D01*
%TO.N,LEDg1*%
X79739541Y-93978083D02*
X81625602Y-93978083D01*
X73190234Y-100527390D02*
X76821178Y-96896446D01*
X76821178Y-96896446D02*
X79739541Y-93978083D01*
%TO.N,LEDg2*%
X80352743Y-94864881D02*
X82350860Y-94864881D01*
X77821178Y-97396446D02*
X80352743Y-94864881D01*
X74447706Y-100760262D02*
X77811522Y-97396446D01*
X77811522Y-97396446D02*
X77821178Y-97396446D01*
%TO.N,LEDg3*%
X75589833Y-100877791D02*
X78821178Y-97646446D01*
X80831535Y-95636089D02*
X82986660Y-95636089D01*
X78821178Y-97646446D02*
X80831535Y-95636089D01*
%TO.N,LED_PWR*%
X84322179Y-108734332D02*
X88583060Y-108734332D01*
X88583060Y-108734332D02*
X88825720Y-108491672D01*
%TO.N,MOT_PWR*%
X75995514Y-88575999D02*
X77250000Y-87321513D01*
X77250000Y-87321513D02*
X77250000Y-86750000D01*
X75398695Y-88575999D02*
X75995514Y-88575999D01*
X62624847Y-101349847D02*
X75398695Y-88575999D01*
%TO.N,BATT_V*%
X79651036Y-88726304D02*
X81526834Y-88726304D01*
X71250000Y-95750000D02*
X74250000Y-92750000D01*
X85050000Y-95625268D02*
X87146178Y-97721446D01*
X85050000Y-92249470D02*
X85050000Y-95625268D01*
X87571178Y-101146446D02*
X88379326Y-101146446D01*
X88797178Y-100728594D02*
X88797178Y-99775000D01*
X88522178Y-99500000D02*
X88522178Y-97902246D01*
X87146178Y-100721446D02*
X87571178Y-101146446D01*
X75500000Y-85499999D02*
X75500000Y-87249999D01*
X87146178Y-97721446D02*
X87146178Y-100721446D01*
X88522178Y-97902246D02*
X89793239Y-96631185D01*
X75500000Y-87249999D02*
X73500000Y-89249999D01*
X88379326Y-101146446D02*
X88797178Y-100728594D01*
X81526834Y-88726304D02*
X85050000Y-92249470D01*
X88797178Y-99775000D02*
X88522178Y-99500000D01*
%TO.N,TEMP*%
X92274000Y-110226000D02*
X84788542Y-110226000D01*
X96500000Y-94022146D02*
X96500000Y-94500000D01*
X82781271Y-108218729D02*
X78562542Y-104000000D01*
X77897012Y-104122446D02*
X78019458Y-104000000D01*
X66095178Y-103697166D02*
X66520458Y-104122446D01*
X67000000Y-99000000D02*
X66095178Y-99904822D01*
X66095178Y-99904822D02*
X66095178Y-103697166D01*
X96500000Y-94500000D02*
X96500000Y-106000000D01*
X66520458Y-104122446D02*
X77897012Y-104122446D01*
X78019458Y-104000000D02*
X78562542Y-104000000D01*
X97000000Y-93000000D02*
X97261073Y-93261073D01*
X96500000Y-106000000D02*
X92274000Y-110226000D01*
X84788542Y-110226000D02*
X82781271Y-108218729D01*
X97000000Y-90912500D02*
X97000000Y-93000000D01*
X97261073Y-93261073D02*
X96500000Y-94022146D01*
%TO.N,CAP_CLK*%
X66821178Y-101734745D02*
X76909477Y-91646446D01*
X82502433Y-91646446D02*
X82527933Y-91671946D01*
X79571178Y-91646446D02*
X82502433Y-91646446D01*
X66821178Y-103396446D02*
X66821178Y-101734745D01*
X76909477Y-91646446D02*
X79571178Y-91646446D01*
%TO.N,CAP_DATA*%
X80321178Y-92396446D02*
X81821178Y-92396446D01*
X67571178Y-102646446D02*
X67571178Y-101621141D01*
X76795873Y-92396446D02*
X80321178Y-92396446D01*
X67571178Y-101621141D02*
X76795873Y-92396446D01*
%TO.N,CAP_IRQ*%
X68321178Y-101896446D02*
X77071178Y-93146446D01*
X77071178Y-93146446D02*
X81071178Y-93146446D01*
%TO.N,/MCU/nRESET*%
X85296051Y-114203949D02*
X84296051Y-114203949D01*
X85615364Y-112078128D02*
X78291707Y-104754471D01*
X85615364Y-113884636D02*
X85296051Y-114203949D01*
X85615364Y-113884636D02*
X85615364Y-112078128D01*
%TO.N,/MCU/SWDCLK*%
X80000000Y-115296051D02*
X79300000Y-114596051D01*
X79300000Y-114596051D02*
X79300000Y-113025000D01*
X80000000Y-115296051D02*
X80703949Y-116000000D01*
%TO.N,/MCU/SWDIO*%
X82500000Y-114203949D02*
X81203949Y-114203949D01*
X81203949Y-114203949D02*
X80750000Y-113750000D01*
%TO.N,/mot_v1*%
X83249999Y-88249999D02*
X85500000Y-90500000D01*
X85500000Y-93789411D02*
X85500000Y-90500000D01*
X88071178Y-100146446D02*
X88071178Y-96360589D01*
X83249999Y-85500000D02*
X83249999Y-88249999D01*
X88071178Y-96360589D02*
X85500000Y-93789411D01*
%TO.N,LED_SUP*%
X83363245Y-107750000D02*
X89174732Y-107750000D01*
X83167947Y-107554702D02*
X83363245Y-107750000D01*
X89174732Y-107750000D02*
X89821178Y-108396446D01*
%TO.N,MOT_SUP*%
X78506587Y-81243413D02*
X79321178Y-82058004D01*
X77806200Y-80543026D02*
X77340891Y-80543026D01*
X79321178Y-86646446D02*
X74321178Y-91646446D01*
X74321178Y-91646446D02*
X73326834Y-91646446D01*
X63500000Y-101473280D02*
X63500000Y-101500000D01*
X63500000Y-101500000D02*
X61750000Y-103250000D01*
X73326834Y-91646446D02*
X63500000Y-101473280D01*
X78506587Y-81243413D02*
X77806200Y-80543026D01*
X79321178Y-82058004D02*
X79321178Y-86646446D01*
%TD*%
M02*
