%TF.GenerationSoftware,KiCad,Pcbnew,9.0.5*%
%TF.CreationDate,2025-11-11T21:30:03+01:00*%
%TF.ProjectId,vlvts,766c7674-732e-46b6-9963-61645f706362,rev?*%
%TF.SameCoordinates,Original*%
%TF.FileFunction,Copper,L2,Bot*%
%TF.FilePolarity,Positive*%
%FSLAX46Y46*%
G04 Gerber Fmt 4.6, Leading zero omitted, Abs format (unit mm)*
G04 Created by KiCad (PCBNEW 9.0.5) date 2025-11-11 21:30:03*
%MOMM*%
%LPD*%
G01*
G04 APERTURE LIST*
G04 Aperture macros list*
%AMRoundRect*
0 Rectangle with rounded corners*
0 $1 Rounding radius*
0 $2 $3 $4 $5 $6 $7 $8 $9 X,Y pos of 4 corners*
0 Add a 4 corners polygon primitive as box body*
4,1,4,$2,$3,$4,$5,$6,$7,$8,$9,$2,$3,0*
0 Add four circle primitives for the rounded corners*
1,1,$1+$1,$2,$3*
1,1,$1+$1,$4,$5*
1,1,$1+$1,$6,$7*
1,1,$1+$1,$8,$9*
0 Add four rect primitives between the rounded corners*
20,1,$1+$1,$2,$3,$4,$5,0*
20,1,$1+$1,$4,$5,$6,$7,0*
20,1,$1+$1,$6,$7,$8,$9,0*
20,1,$1+$1,$8,$9,$2,$3,0*%
%AMHorizOval*
0 Thick line with rounded ends*
0 $1 width*
0 $2 $3 position (X,Y) of the first rounded end (center of the circle)*
0 $4 $5 position (X,Y) of the second rounded end (center of the circle)*
0 Add line between two ends*
20,1,$1,$2,$3,$4,$5,0*
0 Add two circle primitives to create the rounded ends*
1,1,$1,$2,$3*
1,1,$1,$4,$5*%
%AMRotRect*
0 Rectangle, with rotation*
0 The origin of the aperture is its center*
0 $1 length*
0 $2 width*
0 $3 Rotation angle, in degrees counterclockwise*
0 Add horizontal line*
21,1,$1,$2,0,0,$3*%
G04 Aperture macros list end*
%TA.AperFunction,SMDPad,CuDef*%
%ADD10RoundRect,0.250000X-0.035355X1.272792X-1.272792X0.035355X0.035355X-1.272792X1.272792X-0.035355X0*%
%TD*%
%TA.AperFunction,SMDPad,CuDef*%
%ADD11RoundRect,0.150000X-0.521491X0.309359X0.309359X-0.521491X0.521491X-0.309359X-0.309359X0.521491X0*%
%TD*%
%TA.AperFunction,ComponentPad*%
%ADD12C,1.600000*%
%TD*%
%TA.AperFunction,ComponentPad*%
%ADD13HorizOval,1.600000X0.000000X0.000000X0.000000X0.000000X0*%
%TD*%
%TA.AperFunction,SMDPad,CuDef*%
%ADD14RoundRect,0.237500X0.344715X-0.008839X-0.008839X0.344715X-0.344715X0.008839X0.008839X-0.344715X0*%
%TD*%
%TA.AperFunction,ComponentPad*%
%ADD15R,1.000000X1.000000*%
%TD*%
%TA.AperFunction,ComponentPad*%
%ADD16O,1.000000X1.000000*%
%TD*%
%TA.AperFunction,SMDPad,CuDef*%
%ADD17RoundRect,0.250000X0.875000X0.925000X-0.875000X0.925000X-0.875000X-0.925000X0.875000X-0.925000X0*%
%TD*%
%TA.AperFunction,SMDPad,CuDef*%
%ADD18RoundRect,0.237500X-0.008839X-0.344715X0.344715X0.008839X0.008839X0.344715X-0.344715X-0.008839X0*%
%TD*%
%TA.AperFunction,SMDPad,CuDef*%
%ADD19RoundRect,0.250000X0.053033X-0.441942X0.441942X-0.053033X-0.053033X0.441942X-0.441942X0.053033X0*%
%TD*%
%TA.AperFunction,SMDPad,CuDef*%
%ADD20RoundRect,0.250000X0.035355X-1.272792X1.272792X-0.035355X-0.035355X1.272792X-1.272792X0.035355X0*%
%TD*%
%TA.AperFunction,SMDPad,CuDef*%
%ADD21RoundRect,0.150000X-0.309359X-0.521491X0.521491X0.309359X0.309359X0.521491X-0.521491X-0.309359X0*%
%TD*%
%TA.AperFunction,SMDPad,CuDef*%
%ADD22RoundRect,0.237500X-0.344715X0.008839X0.008839X-0.344715X0.344715X-0.008839X-0.008839X0.344715X0*%
%TD*%
%TA.AperFunction,SMDPad,CuDef*%
%ADD23RoundRect,0.175000X-0.707107X0.459619X0.459619X-0.707107X0.707107X-0.459619X-0.459619X0.707107X0*%
%TD*%
%TA.AperFunction,SMDPad,CuDef*%
%ADD24RoundRect,0.175000X0.459619X0.707107X-0.707107X-0.459619X-0.459619X-0.707107X0.707107X0.459619X0*%
%TD*%
%TA.AperFunction,SMDPad,CuDef*%
%ADD25RoundRect,0.175000X-0.353553X0.106066X0.106066X-0.353553X0.353553X-0.106066X-0.106066X0.353553X0*%
%TD*%
%TA.AperFunction,SMDPad,CuDef*%
%ADD26RotRect,0.900000X1.200000X135.000000*%
%TD*%
%TA.AperFunction,SMDPad,CuDef*%
%ADD27RotRect,0.900000X1.200000X315.000000*%
%TD*%
%TA.AperFunction,SMDPad,CuDef*%
%ADD28RoundRect,0.237500X0.380070X-0.044194X-0.044194X0.380070X-0.380070X0.044194X0.044194X-0.380070X0*%
%TD*%
%TA.AperFunction,SMDPad,CuDef*%
%ADD29RotRect,0.900000X1.200000X45.000000*%
%TD*%
%TA.AperFunction,SMDPad,CuDef*%
%ADD30RoundRect,0.150000X0.468458X-0.256326X-0.256326X0.468458X-0.468458X0.256326X0.256326X-0.468458X0*%
%TD*%
%TA.AperFunction,SMDPad,CuDef*%
%ADD31RoundRect,0.150000X-0.468458X0.256326X0.256326X-0.468458X0.468458X-0.256326X-0.256326X0.468458X0*%
%TD*%
%TA.AperFunction,SMDPad,CuDef*%
%ADD32RoundRect,0.237500X0.300000X0.237500X-0.300000X0.237500X-0.300000X-0.237500X0.300000X-0.237500X0*%
%TD*%
%TA.AperFunction,SMDPad,CuDef*%
%ADD33RoundRect,0.250000X-0.053033X0.441942X-0.441942X0.053033X0.053033X-0.441942X0.441942X-0.053033X0*%
%TD*%
%TA.AperFunction,SMDPad,CuDef*%
%ADD34RoundRect,0.250000X1.272792X0.035355X0.035355X1.272792X-1.272792X-0.035355X-0.035355X-1.272792X0*%
%TD*%
%TA.AperFunction,SMDPad,CuDef*%
%ADD35R,0.700000X0.340000*%
%TD*%
%TA.AperFunction,SMDPad,CuDef*%
%ADD36RoundRect,0.250000X-0.450000X0.350000X-0.450000X-0.350000X0.450000X-0.350000X0.450000X0.350000X0*%
%TD*%
%TA.AperFunction,SMDPad,CuDef*%
%ADD37RoundRect,0.250000X-1.272792X-0.035355X-0.035355X-1.272792X1.272792X0.035355X0.035355X1.272792X0*%
%TD*%
%TA.AperFunction,SMDPad,CuDef*%
%ADD38RoundRect,0.250000X-0.441942X-0.053033X-0.053033X-0.441942X0.441942X0.053033X0.053033X0.441942X0*%
%TD*%
%TA.AperFunction,ViaPad*%
%ADD39C,0.800000*%
%TD*%
%TA.AperFunction,ViaPad*%
%ADD40C,1.200000*%
%TD*%
%TA.AperFunction,Conductor*%
%ADD41C,0.250000*%
%TD*%
%TA.AperFunction,Conductor*%
%ADD42C,0.400000*%
%TD*%
%TA.AperFunction,Conductor*%
%ADD43C,0.750000*%
%TD*%
G04 APERTURE END LIST*
D10*
%TO.P,C2,1*%
%TO.N,Net-(Q2-D)*%
X95553122Y-96946878D03*
%TO.P,C2,2*%
%TO.N,GND*%
X91946878Y-100553122D03*
%TD*%
D11*
%TO.P,U1,1,Vss*%
%TO.N,GND*%
X61252423Y-91845926D03*
%TO.P,U1,2,Lx/EXT*%
%TO.N,Net-(D42-A)*%
X62595926Y-90502423D03*
%TO.P,U1,3,Vout*%
%TO.N,VDD*%
X63250000Y-92500000D03*
%TD*%
D12*
%TO.P,TH1,1*%
%TO.N,TEMP*%
X97261073Y-93261073D03*
D13*
%TO.P,TH1,2*%
%TO.N,GND*%
X99057124Y-95057124D03*
%TD*%
D14*
%TO.P,R3,1*%
%TO.N,MOT_PWR*%
X77895235Y-85895235D03*
%TO.P,R3,2*%
%TO.N,Net-(Q1-G)*%
X76604765Y-84604765D03*
%TD*%
D11*
%TO.P,Q1,1,G*%
%TO.N,Net-(Q1-G)*%
X73915336Y-81758839D03*
%TO.P,Q1,2,S*%
%TO.N,BATT_V*%
X75258839Y-80415336D03*
%TO.P,Q1,3,D*%
%TO.N,Net-(Q1-D)*%
X75912913Y-82412913D03*
%TD*%
D15*
%TO.P,J3,1,Pin_1*%
%TO.N,LED_OE*%
X87175000Y-89375000D03*
D16*
%TO.P,J3,2,Pin_2*%
%TO.N,CAP_CLK*%
X87175000Y-90645000D03*
%TO.P,J3,3,Pin_3*%
%TO.N,LED_LA*%
X88445000Y-89375000D03*
%TO.P,J3,4,Pin_4*%
%TO.N,CAP_DATA*%
X88445000Y-90645000D03*
%TO.P,J3,5,Pin_5*%
%TO.N,LED_CLK*%
X89715000Y-89375000D03*
%TO.P,J3,6,Pin_6*%
%TO.N,CAP_IRQ*%
X89715000Y-90645000D03*
%TO.P,J3,7,Pin_7*%
%TO.N,LED_SDI*%
X90985000Y-89375000D03*
%TO.P,J3,8,Pin_8*%
%TO.N,LEDg1*%
X90985000Y-90645000D03*
%TO.P,J3,9,Pin_9*%
%TO.N,GND*%
X92255000Y-89375000D03*
%TO.P,J3,10,Pin_10*%
%TO.N,LEDg2*%
X92255000Y-90645000D03*
%TO.P,J3,11,Pin_11*%
%TO.N,VDD*%
X93525000Y-89375000D03*
%TO.P,J3,12,Pin_12*%
%TO.N,LEDg3*%
X93525000Y-90645000D03*
%TO.P,J3,13,Pin_13*%
%TO.N,GND*%
X94795000Y-89375000D03*
%TO.P,J3,14,Pin_14*%
%TO.N,VEE*%
X94795000Y-90645000D03*
%TD*%
D17*
%TO.P,C8,1*%
%TO.N,VCC*%
X86171178Y-98146446D03*
%TO.P,C8,2*%
%TO.N,GND*%
X81071178Y-98146446D03*
%TD*%
D18*
%TO.P,R5,1*%
%TO.N,LED_PWR*%
X89604765Y-99145235D03*
%TO.P,R5,2*%
%TO.N,Net-(Q2-G)*%
X90895235Y-97854765D03*
%TD*%
D19*
%TO.P,L3,1,1*%
%TO.N,Net-(Q1-D)*%
X79715315Y-85968007D03*
%TO.P,L3,2,2*%
%TO.N,Net-(D44-A)*%
X81341661Y-84341661D03*
%TD*%
D20*
%TO.P,C6,1*%
%TO.N,VCC*%
X84018056Y-85699568D03*
%TO.P,C6,2*%
%TO.N,GND*%
X87624300Y-82093324D03*
%TD*%
D21*
%TO.P,Q2,1,G*%
%TO.N,Net-(Q2-G)*%
X93258839Y-95584664D03*
%TO.P,Q2,2,S*%
%TO.N,BATT_V*%
X91915336Y-94241161D03*
%TO.P,Q2,3,D*%
%TO.N,Net-(Q2-D)*%
X93912913Y-93587087D03*
%TD*%
D10*
%TO.P,C3,1*%
%TO.N,VDD*%
X69168117Y-92119092D03*
%TO.P,C3,2*%
%TO.N,GND*%
X65561873Y-95725336D03*
%TD*%
D22*
%TO.P,R6,1*%
%TO.N,BATT_V*%
X66151431Y-88511398D03*
%TO.P,R6,2*%
%TO.N,VDD*%
X67441901Y-89801868D03*
%TD*%
D23*
%TO.P,U6,1,GND*%
%TO.N,GND*%
X61678707Y-106200675D03*
%TO.P,U6,2,P1.11*%
%TO.N,MOT_SUP*%
X62456525Y-105422858D03*
%TO.P,U6,3,P1.10*%
%TO.N,MOT_PWR*%
X63234342Y-104645041D03*
%TO.P,U6,4,P1.13*%
%TO.N,unconnected-(U6-P1.13-Pad4)*%
X64012160Y-103867223D03*
%TO.P,U6,5,P1.15*%
%TO.N,unconnected-(U6-P1.15-Pad5)*%
X64789977Y-103089406D03*
%TO.P,U6,6,P0.03*%
%TO.N,CAP_CLK*%
X65567795Y-102311588D03*
%TO.P,U6,7,P0.02*%
%TO.N,CAP_DATA*%
X66345612Y-101533771D03*
%TO.P,U6,8,P0.28*%
%TO.N,CAP_IRQ*%
X67123429Y-100755953D03*
%TO.P,U6,9,P0.29*%
%TO.N,TEMP*%
X67901247Y-99978136D03*
%TO.P,U6,10,P0.30*%
%TO.N,LEDg1*%
X68679064Y-99200318D03*
%TO.P,U6,11,P0.31*%
%TO.N,LEDg2*%
X69456882Y-98422501D03*
%TO.P,U6,12,P0.04*%
%TO.N,LEDg3*%
X70234699Y-97644683D03*
%TO.P,U6,13,P0.05*%
%TO.N,BATT_V*%
X71012517Y-96866866D03*
D24*
%TO.P,U6,14,VDD_nRF*%
%TO.N,VDD*%
X73664167Y-96690089D03*
%TO.P,U6,15,TRACECLK/P0.07*%
%TO.N,LED_SDI*%
X74441985Y-97467907D03*
%TO.P,U6,16,TRACEDATA3/P1.09*%
%TO.N,LED_CLK*%
X75219802Y-98245724D03*
%TO.P,U6,17,TRACEDATA1/P0.12*%
%TO.N,LED_LA*%
X75997620Y-99023542D03*
%TO.P,U6,18,P0.23*%
%TO.N,LED_OE*%
X76775437Y-99801359D03*
%TO.P,U6,19,P0.21*%
%TO.N,MOT_DRV2*%
X77553254Y-100579177D03*
%TO.P,U6,20,P0.19*%
%TO.N,MOT_DRV1*%
X78331072Y-101356994D03*
%TO.P,U6,21,nRESET/P0.18*%
%TO.N,/MCU/nRESET*%
X79108889Y-102134811D03*
%TO.P,U6,22,VBUS*%
%TO.N,unconnected-(U6-VBUS-Pad22)*%
X79886707Y-102912629D03*
%TO.P,U6,23,D-*%
%TO.N,unconnected-(U6-D--Pad23)*%
X80664524Y-103690446D03*
%TO.P,U6,24,D+*%
%TO.N,unconnected-(U6-D+-Pad24)*%
X81442342Y-104468264D03*
D23*
%TO.P,U6,25,GND*%
%TO.N,GND*%
X81265565Y-107119914D03*
%TO.P,U6,26,P0.22*%
%TO.N,LED_SUP*%
X80487748Y-107897732D03*
%TO.P,U6,27,TRACEDATA0/P1.00*%
%TO.N,LED_PWR*%
X79709930Y-108675549D03*
%TO.P,U6,28,P1.03*%
%TO.N,unconnected-(U6-P1.03-Pad28)*%
X78932113Y-109453367D03*
%TO.P,U6,29,P1.01*%
%TO.N,unconnected-(U6-P1.01-Pad29)*%
X78154295Y-110231184D03*
%TO.P,U6,30,P1.02*%
%TO.N,unconnected-(U6-P1.02-Pad30)*%
X77376478Y-111009002D03*
%TO.P,U6,31,SWDCLK*%
%TO.N,/MCU/SWDCLK*%
X76598660Y-111786819D03*
%TO.P,U6,32,SWDIO*%
%TO.N,/MCU/SWDIO*%
X75820843Y-112564636D03*
%TO.P,U6,33,P1.04*%
%TO.N,unconnected-(U6-P1.04-Pad33)*%
X75043025Y-113342454D03*
%TO.P,U6,34,P1.06*%
%TO.N,unconnected-(U6-P1.06-Pad34)*%
X74265208Y-114120271D03*
%TO.P,U6,35,NFC1/P0.09*%
%TO.N,unconnected-(U6-NFC1{slash}P0.09-Pad35)*%
X73487390Y-114898089D03*
%TO.P,U6,36,NFC2/P0.10*%
%TO.N,unconnected-(U6-NFC2{slash}P0.10-Pad36)*%
X72709573Y-115675906D03*
%TO.P,U6,37,GND*%
%TO.N,GND*%
X71931756Y-116453724D03*
D25*
%TO.P,U6,38,P1.14*%
%TO.N,unconnected-(U6-P1.14-Pad38)*%
X65355662Y-106766361D03*
%TO.P,U6,39,P1.12*%
%TO.N,unconnected-(U6-P1.12-Pad39)*%
X66133480Y-105988543D03*
%TO.P,U6,40,P0.25*%
%TO.N,unconnected-(U6-P0.25-Pad40)*%
X66911297Y-105210726D03*
%TO.P,U6,41,P0.11/TRACEDATA2*%
%TO.N,unconnected-(U6-P0.11{slash}TRACEDATA2-Pad41)*%
X67689115Y-104432909D03*
%TO.P,U6,42,P1.08*%
%TO.N,unconnected-(U6-P1.08-Pad42)*%
X68466932Y-103655091D03*
%TO.P,U6,43,P0.27*%
%TO.N,unconnected-(U6-P0.27-Pad43)*%
X69244750Y-102877274D03*
%TO.P,U6,44,P0.08*%
%TO.N,unconnected-(U6-P0.08-Pad44)*%
X70022567Y-102099456D03*
%TO.P,U6,45,P0.06*%
%TO.N,unconnected-(U6-P0.06-Pad45)*%
X70800385Y-101321639D03*
%TO.P,U6,46,P0.26*%
%TO.N,unconnected-(U6-P0.26-Pad46)*%
X71578202Y-100543821D03*
%TO.P,U6,47,P1.07*%
%TO.N,unconnected-(U6-P1.07-Pad47)*%
X71366070Y-112776769D03*
%TO.P,U6,48,P1.05*%
%TO.N,unconnected-(U6-P1.05-Pad48)*%
X72143888Y-111998951D03*
%TO.P,U6,49,P0.24*%
%TO.N,unconnected-(U6-P0.24-Pad49)*%
X72921705Y-111221134D03*
%TO.P,U6,50,P0.20*%
%TO.N,unconnected-(U6-P0.20-Pad50)*%
X73699522Y-110443316D03*
%TO.P,U6,51,P0.17*%
%TO.N,unconnected-(U6-P0.17-Pad51)*%
X74477340Y-109665499D03*
%TO.P,U6,52,P0.15*%
%TO.N,unconnected-(U6-P0.15-Pad52)*%
X75255157Y-108887681D03*
%TO.P,U6,53,P0.14*%
%TO.N,unconnected-(U6-P0.14-Pad53)*%
X76032975Y-108109864D03*
%TO.P,U6,54,P0.13*%
%TO.N,unconnected-(U6-P0.13-Pad54)*%
X76810792Y-107332046D03*
%TO.P,U6,55,P0.16*%
%TO.N,unconnected-(U6-P0.16-Pad55)*%
X77588610Y-106554229D03*
%TD*%
D26*
%TO.P,D42,1,K*%
%TO.N,VDD*%
X66113604Y-91363603D03*
%TO.P,D42,2,A*%
%TO.N,Net-(D42-A)*%
X63780152Y-89030151D03*
%TD*%
D27*
%TO.P,D44,1,K*%
%TO.N,VCC*%
X81337420Y-79857187D03*
%TO.P,D44,2,A*%
%TO.N,Net-(D44-A)*%
X83670872Y-82190639D03*
%TD*%
D28*
%TO.P,C9,1*%
%TO.N,VDD*%
X72744929Y-94922322D03*
%TO.P,C9,2*%
%TO.N,GND*%
X71525169Y-93702562D03*
%TD*%
D29*
%TO.P,D43,1,K*%
%TO.N,VEE*%
X93950395Y-110771847D03*
%TO.P,D43,2,A*%
%TO.N,Net-(D43-A)*%
X96283847Y-108438395D03*
%TD*%
D30*
%TO.P,U2,1,CE/VOUT*%
%TO.N,LED_SUP*%
X95976085Y-104882583D03*
%TO.P,U2,2,Vout*%
%TO.N,VEE*%
X95304334Y-105554334D03*
%TO.P,U2,3,NC*%
%TO.N,unconnected-(U2-NC-Pad3)*%
X94632583Y-106226085D03*
%TO.P,U2,4,Vss*%
%TO.N,GND*%
X93023915Y-104617417D03*
%TO.P,U2,5,Lx/EXT*%
%TO.N,Net-(D43-A)*%
X94367417Y-103273915D03*
%TD*%
D31*
%TO.P,U3,1,CE/VOUT*%
%TO.N,MOT_SUP*%
X77839806Y-81891332D03*
%TO.P,U3,2,Vout*%
%TO.N,VCC*%
X78511557Y-81219581D03*
%TO.P,U3,3,NC*%
%TO.N,unconnected-(U3-NC-Pad3)*%
X79183308Y-80547830D03*
%TO.P,U3,4,Vss*%
%TO.N,GND*%
X80791976Y-82156498D03*
%TO.P,U3,5,Lx/EXT*%
%TO.N,Net-(D44-A)*%
X79448474Y-83500000D03*
%TD*%
D18*
%TO.P,R4,1*%
%TO.N,BATT_V*%
X71354765Y-81895235D03*
%TO.P,R4,2*%
%TO.N,Net-(Q1-G)*%
X72645235Y-80604765D03*
%TD*%
D32*
%TO.P,C7,1*%
%TO.N,VCC*%
X85071178Y-100646446D03*
%TO.P,C7,2*%
%TO.N,GND*%
X83346178Y-100646446D03*
%TD*%
D22*
%TO.P,R7,1*%
%TO.N,BATT_V*%
X90604765Y-95604765D03*
%TO.P,R7,2*%
%TO.N,Net-(Q2-G)*%
X91895235Y-96895235D03*
%TD*%
D33*
%TO.P,L1,1,1*%
%TO.N,BATT_V*%
X62931624Y-87686649D03*
%TO.P,L1,2,2*%
%TO.N,Net-(D42-A)*%
X61305278Y-89312995D03*
%TD*%
D34*
%TO.P,C5,1*%
%TO.N,Net-(Q1-D)*%
X76553122Y-88803122D03*
%TO.P,C5,2*%
%TO.N,GND*%
X72946878Y-85196878D03*
%TD*%
%TO.P,C4,1*%
%TO.N,VEE*%
X92856244Y-108106242D03*
%TO.P,C4,2*%
%TO.N,GND*%
X89250000Y-104499998D03*
%TD*%
D35*
%TO.P,U4,1,IN1*%
%TO.N,MOT_DRV1*%
X84728678Y-103008445D03*
%TO.P,U4,2,IN2*%
%TO.N,MOT_DRV2*%
X84728678Y-102508445D03*
%TO.P,U4,3,GND*%
%TO.N,GND*%
X84728678Y-102008445D03*
%TO.P,U4,4,OUT2*%
%TO.N,Net-(M1--)*%
X86228678Y-102008445D03*
%TO.P,U4,5,VM*%
%TO.N,VCC*%
X86228678Y-102508445D03*
%TO.P,U4,6,OUT1*%
%TO.N,Net-(U4-OUT1)*%
X86228678Y-103008445D03*
%TD*%
D36*
%TO.P,R1,1*%
%TO.N,Net-(U4-OUT1)*%
X85740677Y-104646446D03*
%TO.P,R1,2*%
%TO.N,/mot_v1*%
X85740677Y-106646446D03*
%TD*%
D37*
%TO.P,C1,1*%
%TO.N,BATT_V*%
X66196878Y-84696878D03*
%TO.P,C1,2*%
%TO.N,GND*%
X69803122Y-88303122D03*
%TD*%
D38*
%TO.P,L2,1,1*%
%TO.N,Net-(Q2-D)*%
X95304247Y-101624902D03*
%TO.P,L2,2,2*%
%TO.N,Net-(D43-A)*%
X96930593Y-103251248D03*
%TD*%
D39*
%TO.N,VDD*%
X83500000Y-111000000D03*
X75708477Y-95533745D03*
X84000000Y-107000000D03*
%TO.N,VEE*%
X91500000Y-109500000D03*
%TO.N,VCC*%
X82149999Y-86500000D03*
X84000000Y-96500000D03*
%TO.N,GND*%
X84750000Y-80000000D03*
X81821178Y-100646446D03*
X80500000Y-111500000D03*
X89571178Y-101646446D03*
X85000000Y-116500000D03*
X71000000Y-90500000D03*
X76250000Y-102500000D03*
X67750000Y-93750000D03*
X83500000Y-104250000D03*
X78500000Y-115500000D03*
X72000000Y-89500000D03*
X82250000Y-81250000D03*
X92250000Y-86750000D03*
%TO.N,Net-(M1--)*%
X88821178Y-96396446D03*
%TO.N,LEDg1*%
X81625602Y-93978083D03*
X73190234Y-100527390D03*
%TO.N,LEDg2*%
X74447706Y-100760262D03*
X82350860Y-94864881D03*
%TO.N,LEDg3*%
X82986660Y-95636089D03*
X75589833Y-100877791D03*
%TO.N,LED_PWR*%
X88825720Y-108491672D03*
X84322179Y-108734332D03*
%TO.N,MOT_PWR*%
X62624847Y-101349847D03*
X77250000Y-86750000D03*
D40*
%TO.N,BATT_V*%
X79651036Y-88726304D03*
D39*
X73500000Y-89249999D03*
X89793239Y-96631185D03*
X74250000Y-92750000D03*
X71250000Y-95750000D03*
%TO.N,TEMP*%
X67000000Y-99000000D03*
%TO.N,CAP_CLK*%
X66821178Y-103396446D03*
X82527933Y-91671946D03*
%TO.N,CAP_DATA*%
X67571178Y-102646446D03*
X81821178Y-92396446D03*
%TO.N,CAP_IRQ*%
X81071178Y-93146446D03*
X68321178Y-101896446D03*
%TO.N,/MCU/nRESET*%
X78291707Y-104754471D03*
%TO.N,/MCU/SWDCLK*%
X79300000Y-113025000D03*
%TO.N,/MCU/SWDIO*%
X80750000Y-113750000D03*
%TO.N,/mot_v1*%
X88071178Y-100146446D03*
%TO.N,LED_SUP*%
X83167947Y-107554702D03*
X89821178Y-108396446D03*
%TO.N,MOT_SUP*%
X61750000Y-103250000D03*
X77340891Y-80543026D03*
%TD*%
D41*
%TO.N,VDD*%
X73664167Y-96690089D02*
X74820511Y-95533745D01*
X84000000Y-107000000D02*
X85047178Y-108047178D01*
X63276338Y-92627557D02*
X68659651Y-92627558D01*
X85413604Y-87200000D02*
X85066244Y-87547360D01*
X85047178Y-108047178D02*
X85047178Y-109452822D01*
X93525000Y-89375000D02*
X91350000Y-87200000D01*
X67441901Y-89801868D02*
X69168117Y-91528085D01*
X91350000Y-87200000D02*
X85413604Y-87200000D01*
X69168117Y-92476882D02*
X69168117Y-92119092D01*
X82874680Y-87547360D02*
X75499718Y-94922322D01*
X72744929Y-94922322D02*
X71613557Y-94922322D01*
X72744928Y-94922321D02*
X73664167Y-95841560D01*
X73664167Y-95841560D02*
X73664167Y-96690088D01*
X75499718Y-94922322D02*
X72744929Y-94922322D01*
X74820511Y-95533745D02*
X75708477Y-95533745D01*
X66113605Y-91363604D02*
X68412628Y-91363604D01*
X85047178Y-109452822D02*
X83500000Y-111000000D01*
X85066244Y-87547360D02*
X82874680Y-87547360D01*
X71613557Y-94922322D02*
X69168117Y-92476882D01*
%TO.N,VEE*%
X93950394Y-110771848D02*
X92856243Y-109677695D01*
X91500000Y-109462486D02*
X92856244Y-108106242D01*
X91500000Y-109500000D02*
X91500000Y-109462486D01*
X92856244Y-108106242D02*
X94150378Y-108106242D01*
X92856244Y-108106242D02*
X92856243Y-109618244D01*
X94150378Y-108106242D02*
X95579980Y-106676640D01*
X95579980Y-106676640D02*
X95579980Y-105829980D01*
X93545673Y-108106244D02*
X92856244Y-108106242D01*
X92856243Y-109677695D02*
X92856243Y-109618244D01*
X95579980Y-105829980D02*
X95304334Y-105554334D01*
D42*
%TO.N,VCC*%
X86171178Y-98146446D02*
X86171178Y-99546446D01*
X84814334Y-84903290D02*
X84814334Y-81918473D01*
X84524732Y-96500000D02*
X86171178Y-98146446D01*
X82753048Y-79857187D02*
X81337420Y-79857187D01*
X84018056Y-85699568D02*
X82950431Y-85699568D01*
D41*
X85403678Y-102396446D02*
X85515677Y-102508445D01*
D42*
X86171178Y-99546446D02*
X85071178Y-100646446D01*
D41*
X78065891Y-80267295D02*
X78065891Y-80773915D01*
X85515677Y-102508445D02*
X86228678Y-102508445D01*
X85071178Y-100646446D02*
X85403678Y-100978946D01*
X85403678Y-100978946D02*
X85403678Y-102396446D01*
X78732753Y-79600433D02*
X78065891Y-80267295D01*
D42*
X84000000Y-96500000D02*
X84524732Y-96500000D01*
X82950431Y-85699568D02*
X82149999Y-86500000D01*
X84018056Y-85699568D02*
X84814334Y-84903290D01*
D41*
X81080666Y-79600433D02*
X78732753Y-79600433D01*
D42*
X84814334Y-81918473D02*
X82753048Y-79857187D01*
D41*
%TO.N,GND*%
X71931756Y-116453724D02*
X72624478Y-117146446D01*
X61678707Y-106200675D02*
X60821178Y-105343146D01*
X60821178Y-105343146D02*
X60821178Y-103646446D01*
D42*
X80791976Y-82156498D02*
X81343502Y-82156498D01*
D41*
X72624478Y-117146446D02*
X74321178Y-117146446D01*
X83346178Y-100646446D02*
X83366679Y-100646446D01*
X83366679Y-100646446D02*
X84728678Y-102008445D01*
X63821178Y-107146446D02*
X71321178Y-114646446D01*
X61678707Y-106200675D02*
X62624478Y-107146446D01*
X71321178Y-114646446D02*
X71321178Y-115646446D01*
X83346178Y-100646446D02*
X81821178Y-100646446D01*
D42*
X81343502Y-82156498D02*
X82250000Y-81250000D01*
D41*
X62624478Y-107146446D02*
X63821178Y-107146446D01*
%TO.N,Net-(D42-A)*%
X63780152Y-89030152D02*
X63497309Y-89312995D01*
X63497309Y-89312995D02*
X61305278Y-89312995D01*
X63780152Y-89472094D02*
X62622265Y-90629981D01*
X63780152Y-89030151D02*
X63780152Y-89472094D01*
%TO.N,Net-(D43-A)*%
X97361750Y-107360491D02*
X96283847Y-108438394D01*
X94367417Y-103273915D02*
X96907926Y-103273915D01*
X96930593Y-103251249D02*
X97361752Y-103682408D01*
X97361752Y-103682408D02*
X97361750Y-107360491D01*
X96907926Y-103273915D02*
X96930593Y-103251248D01*
%TO.N,Net-(D44-A)*%
X80500000Y-83500000D02*
X81341661Y-84341661D01*
X79448474Y-83500000D02*
X80500000Y-83500000D01*
D42*
X83492683Y-82190639D02*
X81341661Y-84341661D01*
D41*
X79757815Y-83446070D02*
X79486108Y-83174363D01*
%TO.N,Net-(M1--)*%
X87621178Y-97596446D02*
X87621178Y-99441946D01*
X88821178Y-96396446D02*
X87621178Y-97596446D01*
X86228678Y-100834446D02*
X86228678Y-102008445D01*
X87621178Y-99441946D02*
X86228678Y-100834446D01*
%TO.N,LEDg1*%
X81625602Y-93978083D02*
X87651917Y-93978083D01*
X72353112Y-99690268D02*
X69169014Y-99690268D01*
X69169014Y-99690268D02*
X68679064Y-99200318D01*
X72353112Y-99690268D02*
X73190234Y-100527390D01*
X87651917Y-93978083D02*
X90985000Y-90645000D01*
%TO.N,LEDg2*%
X82350860Y-94864881D02*
X88035119Y-94864881D01*
X72927712Y-99240268D02*
X74447706Y-100760262D01*
X70274649Y-99240268D02*
X72927712Y-99240268D01*
X88035119Y-94864881D02*
X92255000Y-90645000D01*
X69456882Y-98422501D02*
X70274649Y-99240268D01*
%TO.N,LEDg3*%
X71380284Y-98790268D02*
X73502310Y-98790268D01*
X88533911Y-95636089D02*
X93525000Y-90645000D01*
X73502310Y-98790268D02*
X75589833Y-100877791D01*
X82986660Y-95636089D02*
X88533911Y-95636089D01*
X70234699Y-97644683D02*
X71380284Y-98790268D01*
%TO.N,LED_PWR*%
X87272178Y-104398756D02*
X88845178Y-102825756D01*
X80143648Y-109109267D02*
X83947244Y-109109267D01*
X88845178Y-99904822D02*
X89604765Y-99145235D01*
X79709930Y-108675549D02*
X80143648Y-109109267D01*
X88845178Y-102825756D02*
X88845178Y-99904822D01*
X88825720Y-108491672D02*
X87272178Y-106938130D01*
X83947244Y-109109267D02*
X84322179Y-108734332D01*
X87272178Y-106938130D02*
X87272178Y-104398756D01*
%TO.N,MOT_PWR*%
X77250000Y-86750000D02*
X77250000Y-86540470D01*
X77250000Y-86540470D02*
X77895235Y-85895235D01*
X63234342Y-104645041D02*
X62624847Y-104035546D01*
X62624847Y-104035546D02*
X62624847Y-101349847D01*
%TO.N,MOT_DRV1*%
X78331072Y-101356994D02*
X78760362Y-100927704D01*
X79775614Y-100927704D02*
X81856355Y-103008445D01*
X81856355Y-103008445D02*
X84728678Y-103008445D01*
X78760362Y-100927704D02*
X79775614Y-100927704D01*
%TO.N,MOT_DRV2*%
X77982544Y-100149887D02*
X79634193Y-100149887D01*
X81992751Y-102508445D02*
X84728678Y-102508445D01*
X77553254Y-100579177D02*
X77982544Y-100149887D01*
X79634193Y-100149887D02*
X81992751Y-102508445D01*
D42*
%TO.N,BATT_V*%
X75258839Y-80415336D02*
X74460400Y-79616897D01*
D41*
X75500001Y-91499999D02*
X75500001Y-91250000D01*
D42*
X72394251Y-79616897D02*
X69750000Y-82261148D01*
D41*
X74250000Y-92750000D02*
X75500001Y-91499999D01*
D43*
X69750000Y-82396446D02*
X67391066Y-82396446D01*
D41*
X89793239Y-96631185D02*
X89793239Y-96416291D01*
D43*
X75467138Y-87282861D02*
X73500000Y-89249999D01*
X75467138Y-85015897D02*
X75467138Y-87282861D01*
D41*
X71012517Y-96866866D02*
X71012517Y-95987483D01*
D42*
X74460400Y-79616897D02*
X72394251Y-79616897D01*
D43*
X72847687Y-82396446D02*
X71250000Y-82396446D01*
X67391066Y-82396446D02*
X65643756Y-84143756D01*
D42*
X69750000Y-82261148D02*
X69750000Y-82396446D01*
D43*
X71250000Y-82396446D02*
X69750000Y-82396446D01*
D41*
X62931624Y-86855888D02*
X65643756Y-84143756D01*
X77500000Y-91249998D02*
X77798388Y-91249998D01*
X79651036Y-89397350D02*
X79651036Y-88726304D01*
X66151431Y-84651431D02*
X65643756Y-84143756D01*
X73500000Y-89249999D02*
X75500001Y-91250000D01*
X75500001Y-91250000D02*
X77500000Y-91249998D01*
X71354765Y-81895235D02*
X71354765Y-82291681D01*
X90604765Y-95604765D02*
X90604765Y-95551732D01*
X89793239Y-96416291D02*
X90604765Y-95604765D01*
X62931624Y-87686649D02*
X62931624Y-86855888D01*
X71012517Y-95987483D02*
X71250000Y-95750000D01*
X90604765Y-95551732D02*
X91915336Y-94241161D01*
X66151431Y-88511398D02*
X66151431Y-84651431D01*
D43*
X72847687Y-82396446D02*
X75467138Y-85015897D01*
D41*
X77798388Y-91249998D02*
X79651036Y-89397350D01*
X71354765Y-82291681D02*
X71250000Y-82396446D01*
X73500000Y-89249999D02*
X73667934Y-89082065D01*
%TO.N,TEMP*%
X67901247Y-99978136D02*
X67423111Y-99500000D01*
X67901247Y-99978136D02*
X67901247Y-99901247D01*
X67901247Y-99901247D02*
X67000000Y-99000000D01*
%TO.N,LED_SDI*%
X85600000Y-87650000D02*
X89260000Y-87650000D01*
X83033436Y-88025000D02*
X85225000Y-88025000D01*
X89260000Y-87650000D02*
X90985000Y-89375000D01*
X74799620Y-97467907D02*
X78996178Y-93271349D01*
X78996178Y-92062258D02*
X83033436Y-88025000D01*
X85225000Y-88025000D02*
X85600000Y-87650000D01*
X78996178Y-93271349D02*
X78996178Y-92062258D01*
X74441985Y-97467907D02*
X74799620Y-97467907D01*
%TO.N,Net-(U4-OUT1)*%
X86228679Y-103008445D02*
X86228678Y-104158447D01*
%TO.N,LED_CLK*%
X85875000Y-88100000D02*
X85500000Y-88475000D01*
X89715000Y-89215000D02*
X88600000Y-88100000D01*
X79446178Y-94019348D02*
X75219802Y-98245724D01*
X79446178Y-92248654D02*
X79446178Y-94019348D01*
X83219832Y-88475000D02*
X79446178Y-92248654D01*
X85500000Y-88475000D02*
X83219832Y-88475000D01*
X88600000Y-88100000D02*
X85875000Y-88100000D01*
X89715000Y-89375000D02*
X89715000Y-89215000D01*
%TO.N,LED_LA*%
X86125000Y-88550000D02*
X85750000Y-88925000D01*
X79896178Y-95124984D02*
X75997620Y-99023542D01*
X88445000Y-89375000D02*
X88445000Y-88667894D01*
X88327106Y-88550000D02*
X86125000Y-88550000D01*
X79896178Y-92435050D02*
X79896178Y-95124984D01*
X83406228Y-88925000D02*
X79896178Y-92435050D01*
X85750000Y-88925000D02*
X83406228Y-88925000D01*
X88445000Y-88667894D02*
X88327106Y-88550000D01*
%TO.N,LED_OE*%
X83592624Y-89375000D02*
X80346178Y-92621446D01*
X80346178Y-96230618D02*
X76775437Y-99801359D01*
X80346178Y-92621446D02*
X80346178Y-96230618D01*
X87175000Y-89375000D02*
X83592624Y-89375000D01*
%TO.N,CAP_CLK*%
X82571368Y-91715381D02*
X86951178Y-91715381D01*
X87175000Y-91491559D02*
X87175000Y-90645000D01*
X82527933Y-91671946D02*
X82571368Y-91715381D01*
X65736320Y-102311588D02*
X66821178Y-103396446D01*
X86951178Y-91715381D02*
X87175000Y-91491559D01*
X65567795Y-102311588D02*
X65736320Y-102311588D01*
%TO.N,CAP_DATA*%
X87103554Y-92396446D02*
X81821178Y-92396446D01*
X66345612Y-101533771D02*
X66458503Y-101533771D01*
X88445000Y-90645000D02*
X88445000Y-91055000D01*
X66458503Y-101533771D02*
X67571178Y-102646446D01*
X88445000Y-91055000D02*
X87103554Y-92396446D01*
%TO.N,CAP_IRQ*%
X87213554Y-93146446D02*
X89715000Y-90645000D01*
X67123429Y-100755953D02*
X67180685Y-100755953D01*
X67180685Y-100755953D02*
X68321178Y-101896446D01*
X81071178Y-93146446D02*
X87213554Y-93146446D01*
%TO.N,/MCU/nRESET*%
X78321178Y-102922522D02*
X78321178Y-104396446D01*
X79108889Y-102134811D02*
X78321178Y-102922522D01*
%TO.N,/MCU/SWDCLK*%
X79300000Y-113025000D02*
X77836841Y-113025000D01*
X77836841Y-113025000D02*
X76598660Y-111786819D01*
%TO.N,/MCU/SWDIO*%
X77006207Y-113750000D02*
X80750000Y-113750000D01*
X75820843Y-112564636D02*
X77006207Y-113750000D01*
X75820841Y-112564637D02*
X76250131Y-112993926D01*
%TO.N,Net-(Q2-D)*%
X95304247Y-99695753D02*
X96082064Y-98917936D01*
X96082064Y-98917936D02*
X96082064Y-96949514D01*
X95553122Y-95227296D02*
X95553122Y-96946878D01*
X93912913Y-93587087D02*
X95553122Y-95227296D01*
X95304247Y-101624902D02*
X95304247Y-99695753D01*
%TO.N,/mot_v1*%
X88071178Y-100146446D02*
X88071178Y-102961946D01*
X86821178Y-104211946D02*
X86821178Y-105646446D01*
X88071178Y-102961946D02*
X86821178Y-104211946D01*
X85821178Y-106646446D02*
X85740677Y-106646446D01*
X86821178Y-105646446D02*
X85821178Y-106646446D01*
D42*
%TO.N,Net-(Q1-D)*%
X75912913Y-82412913D02*
X76160221Y-82412913D01*
X76553122Y-88803122D02*
X79388237Y-85968007D01*
X76775590Y-89082064D02*
X76775590Y-89067926D01*
X76160221Y-82412913D02*
X79715315Y-85968007D01*
X79388237Y-85968007D02*
X79715315Y-85968007D01*
D41*
%TO.N,Net-(Q1-G)*%
X73915336Y-81915336D02*
X73915336Y-81758839D01*
X76604765Y-84604765D02*
X73915336Y-81915336D01*
X72761262Y-80604765D02*
X73915336Y-81758839D01*
X72645235Y-80604765D02*
X72761262Y-80604765D01*
%TO.N,Net-(Q2-G)*%
X91895235Y-96895235D02*
X91948268Y-96895235D01*
X90935705Y-97854765D02*
X91895235Y-96895235D01*
X91948268Y-96895235D02*
X93258839Y-95584664D01*
X90895235Y-97854765D02*
X90935705Y-97854765D01*
%TO.N,LED_SUP*%
X96418294Y-105233623D02*
X96234002Y-105233623D01*
X82391200Y-108331449D02*
X83167947Y-107554702D01*
X80487748Y-107897732D02*
X80921465Y-108331449D01*
X80921465Y-108331449D02*
X82391200Y-108331449D01*
X95700439Y-104606937D02*
X95976085Y-104882583D01*
X93895902Y-105564814D02*
X94853779Y-104606937D01*
X92652810Y-105564814D02*
X93895902Y-105564814D01*
X80986462Y-108396446D02*
X80487748Y-107897732D01*
X89821178Y-108396446D02*
X92652810Y-105564814D01*
X94853779Y-104606937D02*
X95700439Y-104606937D01*
%TO.N,MOT_SUP*%
X77340891Y-81392417D02*
X77839806Y-81891332D01*
X77340891Y-80543026D02*
X77340891Y-81392417D01*
X62456525Y-105422858D02*
X61750000Y-104716333D01*
X61750000Y-104716333D02*
X61750000Y-103250000D01*
%TD*%
%TA.AperFunction,Conductor*%
%TO.N,GND*%
G36*
X79457272Y-78005307D02*
G01*
X80360619Y-78042668D01*
X80365756Y-78042987D01*
X81266865Y-78117655D01*
X81272010Y-78118190D01*
X82126494Y-78224701D01*
X82169158Y-78230019D01*
X82174311Y-78230768D01*
X83066158Y-78379592D01*
X83071232Y-78380548D01*
X83858817Y-78545687D01*
X83956109Y-78566087D01*
X83961186Y-78567261D01*
X84837640Y-78789210D01*
X84842614Y-78790579D01*
X85434977Y-78966933D01*
X85709178Y-79048566D01*
X85714138Y-79050155D01*
X85761962Y-79066573D01*
X86569296Y-79343731D01*
X86574140Y-79345507D01*
X87416430Y-79674170D01*
X87421208Y-79676149D01*
X87762207Y-79825725D01*
X87816554Y-79871405D01*
X87837578Y-79939217D01*
X87818602Y-80007631D01*
X87765651Y-80054925D01*
X87695537Y-80066084D01*
X87682540Y-80063716D01*
X87677544Y-80062532D01*
X87500349Y-80062532D01*
X87327927Y-80103396D01*
X87169579Y-80182922D01*
X87169578Y-80182923D01*
X87088670Y-80248830D01*
X86613844Y-80723657D01*
X86613844Y-80723659D01*
X87624298Y-81734113D01*
X87624300Y-81734113D01*
X88599400Y-80759013D01*
X88599400Y-80759012D01*
X88089217Y-80248829D01*
X88064000Y-80228287D01*
X88053210Y-80212569D01*
X88038617Y-80200304D01*
X88033533Y-80183908D01*
X88023818Y-80169756D01*
X88023238Y-80150700D01*
X88017593Y-80132492D01*
X88022181Y-80115950D01*
X88021659Y-80098792D01*
X88031473Y-80082447D01*
X88036569Y-80064078D01*
X88049371Y-80052643D01*
X88058209Y-80037926D01*
X88075303Y-80029482D01*
X88089520Y-80016784D01*
X88106470Y-80014086D01*
X88121863Y-80006483D01*
X88140807Y-80008621D01*
X88159634Y-80005625D01*
X88190764Y-80014260D01*
X88192412Y-80014446D01*
X88194126Y-80015182D01*
X88249211Y-80039344D01*
X88253895Y-80041516D01*
X89066183Y-80438619D01*
X89070768Y-80440979D01*
X89588141Y-80720968D01*
X89865943Y-80871307D01*
X89870471Y-80873880D01*
X90647142Y-81336674D01*
X90651559Y-81339431D01*
X91408476Y-81833950D01*
X91412752Y-81836871D01*
X91843369Y-82144326D01*
X92148573Y-82362237D01*
X92152748Y-82365350D01*
X92252632Y-82443093D01*
X92866231Y-82920676D01*
X92870251Y-82923941D01*
X93560211Y-83508308D01*
X93564065Y-83511711D01*
X94229290Y-84124094D01*
X94233023Y-84127677D01*
X94872322Y-84766976D01*
X94875906Y-84770710D01*
X95488285Y-85435931D01*
X95491694Y-85439791D01*
X96025168Y-86069662D01*
X96076049Y-86129737D01*
X96079327Y-86133774D01*
X96194877Y-86282232D01*
X96634649Y-86847251D01*
X96637762Y-86851426D01*
X97163119Y-87587235D01*
X97166057Y-87591535D01*
X97660567Y-88348438D01*
X97663325Y-88352857D01*
X98126119Y-89129528D01*
X98128692Y-89134056D01*
X98434966Y-89700000D01*
X98532497Y-89880222D01*
X98559008Y-89929209D01*
X98561389Y-89933835D01*
X98690471Y-90197876D01*
X98958474Y-90746084D01*
X98960664Y-90750809D01*
X99323843Y-91578774D01*
X99325836Y-91583586D01*
X99654483Y-92425836D01*
X99656276Y-92430726D01*
X99949844Y-93285861D01*
X99951433Y-93290821D01*
X100209413Y-94157362D01*
X100210797Y-94162389D01*
X100213484Y-94173002D01*
X100210813Y-94243948D01*
X100180434Y-94293022D01*
X99457124Y-95016332D01*
X99457124Y-95004463D01*
X99429865Y-94902730D01*
X99377204Y-94811518D01*
X99302730Y-94737044D01*
X99211518Y-94684383D01*
X99109785Y-94657124D01*
X99097913Y-94657124D01*
X99785496Y-93969541D01*
X99785496Y-93969540D01*
X99742665Y-93938422D01*
X99742664Y-93938421D01*
X99559223Y-93844953D01*
X99559217Y-93844950D01*
X99363418Y-93781332D01*
X99363422Y-93781332D01*
X99160063Y-93749124D01*
X98954185Y-93749124D01*
X98750827Y-93781332D01*
X98669655Y-93807707D01*
X98598687Y-93809734D01*
X98537890Y-93773072D01*
X98506564Y-93709360D01*
X98510886Y-93648937D01*
X98514239Y-93638617D01*
X98537353Y-93567481D01*
X98569573Y-93364054D01*
X98569573Y-93158092D01*
X98537353Y-92954665D01*
X98473707Y-92758783D01*
X98380202Y-92575270D01*
X98259141Y-92408643D01*
X98259138Y-92408640D01*
X98259136Y-92408637D01*
X98113508Y-92263009D01*
X98113505Y-92263007D01*
X98113503Y-92263005D01*
X97946876Y-92141944D01*
X97763363Y-92048439D01*
X97763360Y-92048438D01*
X97763358Y-92048437D01*
X97567485Y-91984794D01*
X97567483Y-91984793D01*
X97567481Y-91984793D01*
X97364054Y-91952573D01*
X97158092Y-91952573D01*
X96954665Y-91984793D01*
X96954663Y-91984793D01*
X96954660Y-91984794D01*
X96758787Y-92048437D01*
X96758781Y-92048440D01*
X96575266Y-92141946D01*
X96408640Y-92263007D01*
X96408637Y-92263009D01*
X96263009Y-92408637D01*
X96263007Y-92408640D01*
X96141946Y-92575266D01*
X96048440Y-92758781D01*
X96048437Y-92758787D01*
X95984794Y-92954660D01*
X95984793Y-92954663D01*
X95984793Y-92954665D01*
X95952573Y-93158092D01*
X95952573Y-93364054D01*
X95984793Y-93567481D01*
X95984794Y-93567485D01*
X96039355Y-93735408D01*
X96048439Y-93763363D01*
X96141944Y-93946876D01*
X96141946Y-93946879D01*
X96168568Y-93983521D01*
X96263005Y-94113503D01*
X96263007Y-94113505D01*
X96263009Y-94113508D01*
X96408637Y-94259136D01*
X96408640Y-94259138D01*
X96408643Y-94259141D01*
X96575270Y-94380202D01*
X96758783Y-94473707D01*
X96954665Y-94537353D01*
X97158092Y-94569573D01*
X97158095Y-94569573D01*
X97364051Y-94569573D01*
X97364054Y-94569573D01*
X97567481Y-94537353D01*
X97648938Y-94510885D01*
X97719905Y-94508858D01*
X97780703Y-94545521D01*
X97812029Y-94609233D01*
X97807707Y-94669655D01*
X97781332Y-94750827D01*
X97749124Y-94954185D01*
X97749124Y-95160062D01*
X97781332Y-95363420D01*
X97844950Y-95559217D01*
X97844953Y-95559223D01*
X97938421Y-95742664D01*
X97938422Y-95742665D01*
X97969540Y-95785496D01*
X97969541Y-95785496D01*
X98657124Y-95097913D01*
X98657124Y-95109785D01*
X98684383Y-95211518D01*
X98737044Y-95302730D01*
X98811518Y-95377204D01*
X98902730Y-95429865D01*
X99004463Y-95457124D01*
X99016334Y-95457124D01*
X98328750Y-96144706D01*
X98328750Y-96144707D01*
X98371578Y-96175823D01*
X98555024Y-96269294D01*
X98555030Y-96269297D01*
X98750829Y-96332915D01*
X98750825Y-96332915D01*
X98954185Y-96365124D01*
X99160063Y-96365124D01*
X99363420Y-96332915D01*
X99559217Y-96269297D01*
X99559223Y-96269294D01*
X99742665Y-96175825D01*
X99785496Y-96144706D01*
X99785496Y-96144705D01*
X99097915Y-95457124D01*
X99109785Y-95457124D01*
X99211518Y-95429865D01*
X99302730Y-95377204D01*
X99377204Y-95302730D01*
X99429865Y-95211518D01*
X99457124Y-95109785D01*
X99457124Y-95097915D01*
X100144705Y-95785496D01*
X100144706Y-95785496D01*
X100175825Y-95742665D01*
X100269294Y-95559223D01*
X100269297Y-95559217D01*
X100288904Y-95498873D01*
X100328977Y-95440267D01*
X100394374Y-95412630D01*
X100464330Y-95424737D01*
X100516637Y-95472742D01*
X100532055Y-95511952D01*
X100619447Y-95928745D01*
X100620411Y-95933863D01*
X100769230Y-96825687D01*
X100769980Y-96830841D01*
X100853074Y-97497460D01*
X100841652Y-97567531D01*
X100794159Y-97620304D01*
X100725675Y-97639023D01*
X100698050Y-97635423D01*
X100436654Y-97571360D01*
X100436645Y-97571359D01*
X100130684Y-97535881D01*
X99822692Y-97538797D01*
X99822679Y-97538798D01*
X99517453Y-97580061D01*
X99517438Y-97580064D01*
X99219733Y-97659030D01*
X99219712Y-97659037D01*
X98934162Y-97774478D01*
X98934150Y-97774484D01*
X98665211Y-97924598D01*
X98665201Y-97924604D01*
X98417041Y-98107065D01*
X98193556Y-98319012D01*
X98193552Y-98319017D01*
X97998212Y-98557154D01*
X97998204Y-98557166D01*
X97834046Y-98817796D01*
X97703641Y-99096841D01*
X97611243Y-99383061D01*
X97609016Y-99389959D01*
X97608215Y-99394184D01*
X97551642Y-99692584D01*
X97551641Y-99692594D01*
X97532419Y-99999995D01*
X97532419Y-100000006D01*
X97551641Y-100307406D01*
X97551642Y-100307416D01*
X97609014Y-100610036D01*
X97609016Y-100610042D01*
X97702766Y-100900446D01*
X97703643Y-100903161D01*
X97703644Y-100903164D01*
X97834045Y-101182200D01*
X97834050Y-101182208D01*
X97834051Y-101182210D01*
X97998207Y-101442838D01*
X97998210Y-101442842D01*
X97998213Y-101442846D01*
X98193553Y-101680983D01*
X98193557Y-101680988D01*
X98417042Y-101892934D01*
X98417045Y-101892936D01*
X98417047Y-101892938D01*
X98665205Y-102075398D01*
X98665211Y-102075401D01*
X98665212Y-102075402D01*
X98934152Y-102225517D01*
X98934159Y-102225520D01*
X98934161Y-102225521D01*
X99219724Y-102340967D01*
X99413425Y-102392346D01*
X99475577Y-102408832D01*
X99517444Y-102419937D01*
X99822684Y-102461202D01*
X100015185Y-102463024D01*
X100130680Y-102464118D01*
X100130686Y-102464118D01*
X100130689Y-102464118D01*
X100232674Y-102452292D01*
X100436652Y-102428640D01*
X100698051Y-102364575D01*
X100768973Y-102367786D01*
X100826901Y-102408832D01*
X100853443Y-102474681D01*
X100853074Y-102502538D01*
X100769980Y-103169158D01*
X100769230Y-103174312D01*
X100620411Y-104066136D01*
X100619447Y-104071254D01*
X100433912Y-104956109D01*
X100432738Y-104961183D01*
X100210795Y-105837616D01*
X100209413Y-105842637D01*
X99951433Y-106709178D01*
X99949844Y-106714138D01*
X99656276Y-107569273D01*
X99654483Y-107574163D01*
X99325836Y-108416413D01*
X99323843Y-108421225D01*
X98960664Y-109249190D01*
X98958474Y-109253915D01*
X98561391Y-110066160D01*
X98559008Y-110070790D01*
X98128692Y-110865943D01*
X98126119Y-110870471D01*
X97663325Y-111647142D01*
X97660567Y-111651561D01*
X97166057Y-112408464D01*
X97163119Y-112412764D01*
X96637762Y-113148573D01*
X96634649Y-113152748D01*
X96079332Y-113866219D01*
X96076049Y-113870262D01*
X95491703Y-114560198D01*
X95488263Y-114564092D01*
X94936026Y-115163981D01*
X94875928Y-115229266D01*
X94872322Y-115233023D01*
X94233023Y-115872322D01*
X94229264Y-115875928D01*
X93782265Y-116287422D01*
X93564102Y-116488255D01*
X93560198Y-116491703D01*
X92870262Y-117076049D01*
X92866219Y-117079332D01*
X92152748Y-117634649D01*
X92148573Y-117637762D01*
X91412764Y-118163119D01*
X91408464Y-118166057D01*
X90651561Y-118660567D01*
X90647142Y-118663325D01*
X89870471Y-119126119D01*
X89865943Y-119128692D01*
X89070790Y-119559008D01*
X89066160Y-119561391D01*
X88253915Y-119958474D01*
X88249190Y-119960664D01*
X87421225Y-120323843D01*
X87416413Y-120325836D01*
X86574163Y-120654483D01*
X86569273Y-120656276D01*
X85714138Y-120949844D01*
X85709178Y-120951433D01*
X84842637Y-121209413D01*
X84837616Y-121210795D01*
X83961183Y-121432738D01*
X83956109Y-121433912D01*
X83071254Y-121619447D01*
X83066136Y-121620411D01*
X82174312Y-121769230D01*
X82169158Y-121769980D01*
X81272027Y-121881807D01*
X81266847Y-121882345D01*
X80365786Y-121957010D01*
X80360588Y-121957332D01*
X80131707Y-121966798D01*
X80000500Y-121972224D01*
X80000500Y-120499793D01*
X80000499Y-120499791D01*
X80000208Y-120499500D01*
X80000207Y-120499500D01*
X78000207Y-120499500D01*
X77999793Y-120499500D01*
X77999791Y-120499500D01*
X77999500Y-120499791D01*
X77999500Y-121195575D01*
X77979498Y-121263696D01*
X77925842Y-121310189D01*
X77855568Y-121320293D01*
X77790988Y-121290799D01*
X77784414Y-121284680D01*
X75472170Y-118972944D01*
X75389231Y-118890023D01*
X79329531Y-118890023D01*
X79329531Y-119036944D01*
X79347535Y-119127455D01*
X79358191Y-119181026D01*
X79414411Y-119316753D01*
X79468946Y-119398371D01*
X79496029Y-119438903D01*
X79496034Y-119438909D01*
X79599905Y-119542780D01*
X79599911Y-119542785D01*
X79722062Y-119624404D01*
X79857789Y-119680624D01*
X79981852Y-119705301D01*
X80001870Y-119709283D01*
X80001873Y-119709283D01*
X80001876Y-119709284D01*
X80001877Y-119709284D01*
X80148785Y-119709284D01*
X80148786Y-119709284D01*
X80292873Y-119680624D01*
X80428600Y-119624404D01*
X80550751Y-119542785D01*
X80654632Y-119438904D01*
X80736251Y-119316753D01*
X80792471Y-119181026D01*
X80821131Y-119036939D01*
X80821131Y-118890029D01*
X80792471Y-118745942D01*
X80736251Y-118610215D01*
X80654632Y-118488064D01*
X80654627Y-118488058D01*
X80550756Y-118384187D01*
X80550750Y-118384182D01*
X80510218Y-118357099D01*
X80428600Y-118302564D01*
X80292873Y-118246344D01*
X80251705Y-118238155D01*
X80148791Y-118217684D01*
X80148786Y-118217684D01*
X80001876Y-118217684D01*
X80001870Y-118217684D01*
X79878372Y-118242249D01*
X79857789Y-118246344D01*
X79857786Y-118246344D01*
X79857783Y-118246346D01*
X79722062Y-118302564D01*
X79599911Y-118384182D01*
X79599905Y-118384187D01*
X79496034Y-118488058D01*
X79496029Y-118488064D01*
X79414411Y-118610215D01*
X79358193Y-118745936D01*
X79358191Y-118745943D01*
X79329531Y-118890023D01*
X75389231Y-118890023D01*
X75109361Y-118610215D01*
X73952075Y-117453182D01*
X77892690Y-117453182D01*
X77892690Y-117600103D01*
X77900789Y-117640817D01*
X77921350Y-117744185D01*
X77977570Y-117879912D01*
X78026807Y-117953600D01*
X78059188Y-118002062D01*
X78059193Y-118002068D01*
X78163064Y-118105939D01*
X78163070Y-118105944D01*
X78285221Y-118187563D01*
X78420948Y-118243783D01*
X78545011Y-118268460D01*
X78565029Y-118272442D01*
X78565032Y-118272442D01*
X78565035Y-118272443D01*
X78565036Y-118272443D01*
X78711944Y-118272443D01*
X78711945Y-118272443D01*
X78856032Y-118243783D01*
X78991759Y-118187563D01*
X79113910Y-118105944D01*
X79217791Y-118002063D01*
X79299410Y-117879912D01*
X79355630Y-117744185D01*
X79384290Y-117600098D01*
X79384290Y-117453188D01*
X79355630Y-117309101D01*
X79299410Y-117173374D01*
X79217791Y-117051223D01*
X79217786Y-117051217D01*
X79113915Y-116947346D01*
X79113909Y-116947341D01*
X79051114Y-116905383D01*
X78991759Y-116865723D01*
X78856032Y-116809503D01*
X78814864Y-116801314D01*
X78711950Y-116780843D01*
X78711945Y-116780843D01*
X78565035Y-116780843D01*
X78565029Y-116780843D01*
X78441531Y-116805408D01*
X78420948Y-116809503D01*
X78420945Y-116809503D01*
X78420942Y-116809505D01*
X78285221Y-116865723D01*
X78163070Y-116947341D01*
X78163064Y-116947346D01*
X78059193Y-117051217D01*
X78059188Y-117051223D01*
X77977570Y-117173374D01*
X77921352Y-117309095D01*
X77921350Y-117309102D01*
X77892690Y-117453182D01*
X73952075Y-117453182D01*
X73807956Y-117309095D01*
X73596878Y-117098063D01*
X73562846Y-117035755D01*
X73567904Y-116964938D01*
X73605300Y-116912164D01*
X73613437Y-116905383D01*
X73939049Y-116579770D01*
X73983321Y-116526650D01*
X74060457Y-116379678D01*
X74068073Y-116348776D01*
X74103795Y-116287422D01*
X74160260Y-116256589D01*
X74191162Y-116248973D01*
X74338134Y-116171837D01*
X74391254Y-116127566D01*
X74716866Y-115801953D01*
X74761138Y-115748833D01*
X74838274Y-115601861D01*
X74845891Y-115570956D01*
X74881614Y-115509603D01*
X74938075Y-115478772D01*
X74968980Y-115471155D01*
X74968980Y-115471154D01*
X74968983Y-115471154D01*
X75115946Y-115394022D01*
X75115945Y-115394022D01*
X75115952Y-115394019D01*
X75169072Y-115349748D01*
X75494684Y-115024135D01*
X75538956Y-114971015D01*
X75616092Y-114824043D01*
X75623708Y-114793141D01*
X75659430Y-114731787D01*
X75715895Y-114700954D01*
X75746797Y-114693338D01*
X75893769Y-114616202D01*
X75946889Y-114571931D01*
X76272501Y-114246318D01*
X76316773Y-114193198D01*
X76318672Y-114189578D01*
X76320352Y-114187842D01*
X76320478Y-114187654D01*
X76320512Y-114187676D01*
X76368037Y-114138555D01*
X76437152Y-114122319D01*
X76504073Y-114146026D01*
X76519337Y-114159034D01*
X76602374Y-114242071D01*
X76706132Y-114311400D01*
X76821422Y-114359155D01*
X76943813Y-114383500D01*
X77068601Y-114383500D01*
X80046497Y-114383500D01*
X80114618Y-114403502D01*
X80135592Y-114420405D01*
X80170865Y-114455678D01*
X80319664Y-114555102D01*
X80485000Y-114623587D01*
X80660521Y-114658500D01*
X80660522Y-114658500D01*
X80839478Y-114658500D01*
X80839479Y-114658500D01*
X81015000Y-114623587D01*
X81180336Y-114555102D01*
X81329135Y-114455678D01*
X81455678Y-114329135D01*
X81555102Y-114180336D01*
X81623587Y-114015000D01*
X81658500Y-113839479D01*
X81658500Y-113660521D01*
X81623587Y-113485000D01*
X81555102Y-113319664D01*
X81455678Y-113170865D01*
X81329135Y-113044322D01*
X81180336Y-112944898D01*
X81056670Y-112893673D01*
X81056668Y-112893671D01*
X81015007Y-112876415D01*
X81015002Y-112876414D01*
X81015000Y-112876413D01*
X80908930Y-112855314D01*
X80839481Y-112841500D01*
X80839479Y-112841500D01*
X80660521Y-112841500D01*
X80660518Y-112841500D01*
X80484994Y-112876414D01*
X80360529Y-112927970D01*
X80289939Y-112935559D01*
X80226452Y-112903780D01*
X80190225Y-112842722D01*
X80188732Y-112836142D01*
X80178252Y-112783456D01*
X80178251Y-112783449D01*
X83999264Y-112783449D01*
X83999264Y-112930370D01*
X84012375Y-112996281D01*
X84027924Y-113074452D01*
X84084144Y-113210179D01*
X84112162Y-113252110D01*
X84165762Y-113332329D01*
X84165767Y-113332335D01*
X84269638Y-113436206D01*
X84269644Y-113436211D01*
X84391795Y-113517830D01*
X84527522Y-113574050D01*
X84651585Y-113598727D01*
X84671603Y-113602709D01*
X84671606Y-113602709D01*
X84671609Y-113602710D01*
X84671610Y-113602710D01*
X84818518Y-113602710D01*
X84818519Y-113602710D01*
X84962606Y-113574050D01*
X85098333Y-113517830D01*
X85220484Y-113436211D01*
X85324365Y-113332330D01*
X85405984Y-113210179D01*
X85462204Y-113074452D01*
X85490864Y-112930365D01*
X85490864Y-112783455D01*
X85462204Y-112639368D01*
X85405984Y-112503641D01*
X85324365Y-112381490D01*
X85324360Y-112381484D01*
X85220489Y-112277613D01*
X85220483Y-112277608D01*
X85143931Y-112226458D01*
X85098333Y-112195990D01*
X84962606Y-112139770D01*
X84921438Y-112131581D01*
X84818524Y-112111110D01*
X84818519Y-112111110D01*
X84671609Y-112111110D01*
X84671603Y-112111110D01*
X84548105Y-112135675D01*
X84527522Y-112139770D01*
X84527519Y-112139770D01*
X84527516Y-112139772D01*
X84391795Y-112195990D01*
X84269644Y-112277608D01*
X84269638Y-112277613D01*
X84165767Y-112381484D01*
X84165762Y-112381490D01*
X84084144Y-112503641D01*
X84027926Y-112639362D01*
X84027924Y-112639369D01*
X83999264Y-112783449D01*
X80178251Y-112783449D01*
X80173587Y-112760000D01*
X80170975Y-112753695D01*
X80161550Y-112730941D01*
X80105102Y-112594664D01*
X80005678Y-112445865D01*
X79879135Y-112319322D01*
X79730336Y-112219898D01*
X79613429Y-112171473D01*
X79565003Y-112151414D01*
X79565001Y-112151413D01*
X79565000Y-112151413D01*
X79476645Y-112133838D01*
X79389481Y-112116500D01*
X79389479Y-112116500D01*
X79210521Y-112116500D01*
X79210518Y-112116500D01*
X79085716Y-112141325D01*
X79035000Y-112151413D01*
X79034999Y-112151413D01*
X79034996Y-112151414D01*
X78903902Y-112205716D01*
X78873129Y-112218463D01*
X78869662Y-112219899D01*
X78720869Y-112319319D01*
X78720862Y-112319324D01*
X78685592Y-112354595D01*
X78658223Y-112369539D01*
X78631995Y-112386396D01*
X78625696Y-112387301D01*
X78623280Y-112388621D01*
X78596497Y-112391500D01*
X78431512Y-112391500D01*
X78363391Y-112371498D01*
X78316898Y-112317842D01*
X78306794Y-112247568D01*
X78336288Y-112182988D01*
X78342416Y-112176405D01*
X78407711Y-112111110D01*
X78605954Y-111912866D01*
X78650226Y-111859746D01*
X78727362Y-111712774D01*
X78734979Y-111681869D01*
X78770702Y-111620515D01*
X78827165Y-111589684D01*
X78858067Y-111582068D01*
X78863656Y-111579135D01*
X79005033Y-111504935D01*
X79005032Y-111504935D01*
X79005039Y-111504932D01*
X79058159Y-111460661D01*
X79383771Y-111135048D01*
X79428043Y-111081928D01*
X79505179Y-110934956D01*
X79512795Y-110904054D01*
X79548517Y-110842700D01*
X79604980Y-110811868D01*
X79635885Y-110804251D01*
X79782857Y-110727115D01*
X79835977Y-110682844D01*
X80161589Y-110357231D01*
X80205861Y-110304111D01*
X80282997Y-110157139D01*
X80290614Y-110126234D01*
X80326337Y-110064880D01*
X80382800Y-110034049D01*
X80413702Y-110026433D01*
X80560674Y-109949297D01*
X80613794Y-109905026D01*
X80739149Y-109779670D01*
X80801459Y-109745647D01*
X80828243Y-109742767D01*
X83557139Y-109742767D01*
X83578726Y-109749105D01*
X83601171Y-109750711D01*
X83612127Y-109758912D01*
X83625260Y-109762769D01*
X83639995Y-109779774D01*
X83658007Y-109793258D01*
X83662789Y-109806080D01*
X83671753Y-109816425D01*
X83674955Y-109838697D01*
X83682818Y-109859778D01*
X83679909Y-109873150D01*
X83681857Y-109886699D01*
X83672509Y-109907165D01*
X83667727Y-109929152D01*
X83654241Y-109947165D01*
X83652363Y-109951279D01*
X83646234Y-109957862D01*
X83549501Y-110054595D01*
X83487189Y-110088621D01*
X83460406Y-110091500D01*
X83410518Y-110091500D01*
X83279771Y-110117507D01*
X83235000Y-110126413D01*
X83234999Y-110126413D01*
X83234996Y-110126414D01*
X83069662Y-110194899D01*
X82920869Y-110294319D01*
X82920862Y-110294324D01*
X82794324Y-110420862D01*
X82794319Y-110420869D01*
X82694899Y-110569662D01*
X82626414Y-110734996D01*
X82591500Y-110910518D01*
X82591500Y-110910521D01*
X82591500Y-111089479D01*
X82626413Y-111265000D01*
X82694898Y-111430336D01*
X82794322Y-111579135D01*
X82920865Y-111705678D01*
X83069664Y-111805102D01*
X83235000Y-111873587D01*
X83410521Y-111908500D01*
X83410522Y-111908500D01*
X83589478Y-111908500D01*
X83589479Y-111908500D01*
X83765000Y-111873587D01*
X83930336Y-111805102D01*
X84079135Y-111705678D01*
X84205678Y-111579135D01*
X84305102Y-111430336D01*
X84373587Y-111265000D01*
X84408500Y-111089479D01*
X84408500Y-111039594D01*
X84428502Y-110971473D01*
X84445405Y-110950499D01*
X84987405Y-110408499D01*
X85539249Y-109856655D01*
X85608578Y-109752897D01*
X85656333Y-109637607D01*
X85680678Y-109515216D01*
X85680678Y-109390428D01*
X85680678Y-107984784D01*
X85677238Y-107967489D01*
X85664913Y-107905526D01*
X85671241Y-107834812D01*
X85714795Y-107778745D01*
X85781748Y-107755126D01*
X85788492Y-107754945D01*
X86241221Y-107754945D01*
X86345103Y-107744333D01*
X86513415Y-107688561D01*
X86664329Y-107595476D01*
X86708246Y-107551559D01*
X86759880Y-107499926D01*
X86822192Y-107465900D01*
X86893007Y-107470965D01*
X86938070Y-107499926D01*
X87880315Y-108442171D01*
X87914341Y-108504483D01*
X87917220Y-108531266D01*
X87917220Y-108581153D01*
X87922973Y-108610075D01*
X87952133Y-108756672D01*
X88020618Y-108922008D01*
X88120042Y-109070807D01*
X88246585Y-109197350D01*
X88395384Y-109296774D01*
X88560720Y-109365259D01*
X88736241Y-109400172D01*
X88736242Y-109400172D01*
X88915198Y-109400172D01*
X88915199Y-109400172D01*
X89090720Y-109365259D01*
X89256056Y-109296774D01*
X89339614Y-109240941D01*
X89407365Y-109219726D01*
X89457835Y-109229298D01*
X89556170Y-109270030D01*
X89556171Y-109270030D01*
X89556178Y-109270033D01*
X89731699Y-109304946D01*
X89731700Y-109304946D01*
X89910656Y-109304946D01*
X89910657Y-109304946D01*
X90086178Y-109270033D01*
X90251514Y-109201548D01*
X90400313Y-109102124D01*
X90432336Y-109070100D01*
X90494644Y-109036077D01*
X90565460Y-109041141D01*
X90622296Y-109083687D01*
X90647108Y-109150207D01*
X90637839Y-109207413D01*
X90626414Y-109234995D01*
X90591500Y-109410518D01*
X90591500Y-109589481D01*
X90603638Y-109650501D01*
X90626136Y-109763608D01*
X90626414Y-109765003D01*
X90638118Y-109793258D01*
X90694898Y-109930336D01*
X90794322Y-110079135D01*
X90920865Y-110205678D01*
X91069664Y-110305102D01*
X91235000Y-110373587D01*
X91410521Y-110408500D01*
X91410522Y-110408500D01*
X91589478Y-110408500D01*
X91589479Y-110408500D01*
X91765000Y-110373587D01*
X91930336Y-110305102D01*
X92079135Y-110205678D01*
X92194636Y-110090176D01*
X92256944Y-110056154D01*
X92327760Y-110061218D01*
X92372821Y-110090177D01*
X92618776Y-110336133D01*
X92682279Y-110399636D01*
X92716304Y-110461948D01*
X92714523Y-110511873D01*
X92716296Y-110512128D01*
X92694204Y-110665777D01*
X92694204Y-110665784D01*
X92715012Y-110810510D01*
X92715013Y-110810514D01*
X92775752Y-110943518D01*
X92775756Y-110943524D01*
X92813977Y-110990953D01*
X93731289Y-111908265D01*
X93778718Y-111946486D01*
X93778719Y-111946486D01*
X93778723Y-111946489D01*
X93911727Y-112007228D01*
X93911731Y-112007229D01*
X94056458Y-112028038D01*
X94056461Y-112028038D01*
X94056464Y-112028038D01*
X94201190Y-112007229D01*
X94201192Y-112007228D01*
X94201195Y-112007228D01*
X94319669Y-111953124D01*
X94334198Y-111946489D01*
X94334199Y-111946488D01*
X94334204Y-111946486D01*
X94381633Y-111908265D01*
X95086813Y-111203085D01*
X95125034Y-111155656D01*
X95185776Y-111022647D01*
X95188799Y-111001621D01*
X95206586Y-110877916D01*
X95206586Y-110877909D01*
X95185777Y-110733183D01*
X95185776Y-110733179D01*
X95125037Y-110600175D01*
X95125031Y-110600166D01*
X95113365Y-110585690D01*
X95086813Y-110552741D01*
X94169501Y-109635429D01*
X94145786Y-109616318D01*
X94122075Y-109597210D01*
X94122066Y-109597204D01*
X94013056Y-109547423D01*
X93989063Y-109536466D01*
X93989062Y-109536465D01*
X93980866Y-109532723D01*
X93982418Y-109529324D01*
X93937562Y-109500485D01*
X93908081Y-109435899D01*
X93918198Y-109365627D01*
X93943707Y-109328894D01*
X94202937Y-109069664D01*
X94701116Y-108571486D01*
X94723132Y-108544461D01*
X94767067Y-108490528D01*
X94769379Y-108485925D01*
X94807162Y-108410693D01*
X94855607Y-108358798D01*
X94924421Y-108341330D01*
X94991755Y-108363840D01*
X95036230Y-108419179D01*
X95044475Y-108449311D01*
X95048464Y-108477058D01*
X95048465Y-108477062D01*
X95109204Y-108610066D01*
X95109208Y-108610072D01*
X95147429Y-108657501D01*
X96064741Y-109574813D01*
X96112170Y-109613034D01*
X96112171Y-109613034D01*
X96112175Y-109613037D01*
X96245179Y-109673776D01*
X96245183Y-109673777D01*
X96389910Y-109694586D01*
X96389913Y-109694586D01*
X96389916Y-109694586D01*
X96534642Y-109673777D01*
X96534644Y-109673776D01*
X96534647Y-109673776D01*
X96653121Y-109619672D01*
X96667650Y-109613037D01*
X96667651Y-109613036D01*
X96667656Y-109613034D01*
X96715085Y-109574813D01*
X97420265Y-108869633D01*
X97458486Y-108822204D01*
X97519228Y-108689195D01*
X97522251Y-108668169D01*
X97540038Y-108544464D01*
X97540038Y-108544457D01*
X97519229Y-108399731D01*
X97519228Y-108399727D01*
X97461263Y-108272798D01*
X97451160Y-108202524D01*
X97480654Y-108137943D01*
X97486766Y-108131378D01*
X97853821Y-107764324D01*
X97923150Y-107660566D01*
X97970905Y-107545276D01*
X97995250Y-107422885D01*
X97995250Y-107298097D01*
X97995250Y-103678207D01*
X98008653Y-103621662D01*
X98010563Y-103617858D01*
X98010566Y-103617855D01*
X98090144Y-103459404D01*
X98131035Y-103286871D01*
X98131035Y-103109559D01*
X98090144Y-102937026D01*
X98034221Y-102825675D01*
X98010569Y-102778580D01*
X98010567Y-102778578D01*
X98010566Y-102778575D01*
X97944616Y-102697615D01*
X97484226Y-102237226D01*
X97471769Y-102227078D01*
X97403274Y-102171281D01*
X97403270Y-102171278D01*
X97403266Y-102171275D01*
X97403261Y-102171272D01*
X97403259Y-102171271D01*
X97244817Y-102091698D01*
X97244819Y-102091698D01*
X97244815Y-102091697D01*
X97072282Y-102050806D01*
X96894970Y-102050806D01*
X96722437Y-102091697D01*
X96722433Y-102091698D01*
X96563991Y-102171271D01*
X96563979Y-102171279D01*
X96550508Y-102182253D01*
X96485060Y-102209766D01*
X96415126Y-102197527D01*
X96362911Y-102149421D01*
X96344992Y-102080723D01*
X96367060Y-102013243D01*
X96373238Y-102004989D01*
X96384220Y-101991509D01*
X96463798Y-101833058D01*
X96504689Y-101660525D01*
X96504689Y-101483213D01*
X96463798Y-101310680D01*
X96437489Y-101258295D01*
X96384223Y-101152234D01*
X96384221Y-101152232D01*
X96384220Y-101152229D01*
X96318270Y-101071269D01*
X96318264Y-101071263D01*
X96318258Y-101071256D01*
X95974652Y-100727650D01*
X95940626Y-100665338D01*
X95937747Y-100638555D01*
X95937747Y-100010347D01*
X95957749Y-99942226D01*
X95974652Y-99921252D01*
X96268149Y-99627755D01*
X96574135Y-99321769D01*
X96643464Y-99218011D01*
X96691219Y-99102721D01*
X96715564Y-98980330D01*
X96715564Y-98855543D01*
X96715564Y-98217453D01*
X96735566Y-98149332D01*
X96752464Y-98128362D01*
X97397994Y-97482833D01*
X97463946Y-97401874D01*
X97543524Y-97243422D01*
X97584415Y-97070889D01*
X97584415Y-96893578D01*
X97543524Y-96721044D01*
X97463946Y-96562593D01*
X97404251Y-96489313D01*
X97397991Y-96481629D01*
X96223527Y-95307165D01*
X96189501Y-95244853D01*
X96186622Y-95218070D01*
X96186622Y-95164903D01*
X96186621Y-95164899D01*
X96185659Y-95160062D01*
X96162277Y-95042511D01*
X96114522Y-94927221D01*
X96045193Y-94823463D01*
X95956955Y-94735225D01*
X95009258Y-93787528D01*
X94975232Y-93725216D01*
X94980297Y-93654401D01*
X94987933Y-93637744D01*
X95051529Y-93522064D01*
X95092905Y-93360916D01*
X95092905Y-93194539D01*
X95090321Y-93184475D01*
X95090321Y-93184472D01*
X95058406Y-93060176D01*
X95051529Y-93033391D01*
X95008248Y-92954665D01*
X94971381Y-92887604D01*
X94971380Y-92887603D01*
X94971376Y-92887595D01*
X94971372Y-92887590D01*
X94947062Y-92859125D01*
X94640874Y-92552937D01*
X94612409Y-92528627D01*
X94612407Y-92528625D01*
X94612405Y-92528624D01*
X94612400Y-92528621D01*
X94612395Y-92528618D01*
X94466610Y-92448471D01*
X94466606Y-92448470D01*
X94305468Y-92407096D01*
X94305462Y-92407095D01*
X94305461Y-92407095D01*
X94139084Y-92407095D01*
X94139082Y-92407095D01*
X94139076Y-92407096D01*
X93977938Y-92448469D01*
X93977930Y-92448473D01*
X93832140Y-92528622D01*
X93803668Y-92552939D01*
X92985540Y-93371066D01*
X92923228Y-93405091D01*
X92852412Y-93400026D01*
X92807351Y-93371066D01*
X92643301Y-93207016D01*
X92643300Y-93207015D01*
X92643293Y-93207008D01*
X92614832Y-93182701D01*
X92614830Y-93182699D01*
X92614828Y-93182698D01*
X92614823Y-93182695D01*
X92614818Y-93182692D01*
X92469033Y-93102545D01*
X92469029Y-93102544D01*
X92307891Y-93061170D01*
X92307884Y-93061169D01*
X92307883Y-93061169D01*
X92300020Y-93060176D01*
X92300217Y-93058612D01*
X92240803Y-93041167D01*
X92194310Y-92987511D01*
X92184206Y-92917237D01*
X92213700Y-92852657D01*
X92219829Y-92846074D01*
X92717692Y-92348212D01*
X93375499Y-91690405D01*
X93437811Y-91656379D01*
X93464594Y-91653500D01*
X93624328Y-91653500D01*
X93624329Y-91653500D01*
X93819169Y-91614744D01*
X94002704Y-91538721D01*
X94089997Y-91480392D01*
X94157750Y-91459177D01*
X94226217Y-91477959D01*
X94230003Y-91480393D01*
X94317292Y-91538719D01*
X94317294Y-91538720D01*
X94317296Y-91538721D01*
X94500831Y-91614744D01*
X94695671Y-91653500D01*
X94695672Y-91653500D01*
X94894328Y-91653500D01*
X94894329Y-91653500D01*
X95089169Y-91614744D01*
X95272704Y-91538721D01*
X95437881Y-91428353D01*
X95578353Y-91287881D01*
X95688721Y-91122704D01*
X95764744Y-90939169D01*
X95803500Y-90744329D01*
X95803500Y-90545671D01*
X95764744Y-90350831D01*
X95688721Y-90167296D01*
X95630091Y-90079551D01*
X95608877Y-90011799D01*
X95627660Y-89943332D01*
X95630092Y-89939548D01*
X95688277Y-89852466D01*
X95764260Y-89669028D01*
X95764262Y-89669023D01*
X95772224Y-89629000D01*
X95000618Y-89629000D01*
X95055064Y-89574554D01*
X95097851Y-89500445D01*
X95120000Y-89417787D01*
X95120000Y-89332213D01*
X95097851Y-89249555D01*
X95055064Y-89175446D01*
X95000618Y-89121000D01*
X95049000Y-89121000D01*
X95772224Y-89121000D01*
X95772223Y-89120999D01*
X95764262Y-89080976D01*
X95764260Y-89080971D01*
X95688277Y-88897533D01*
X95577967Y-88732442D01*
X95577962Y-88732435D01*
X95437564Y-88592037D01*
X95437557Y-88592032D01*
X95272467Y-88481722D01*
X95089020Y-88405736D01*
X95089015Y-88405735D01*
X95049000Y-88397774D01*
X95049000Y-89121000D01*
X95000618Y-89121000D01*
X94994554Y-89114936D01*
X94920445Y-89072149D01*
X94837787Y-89050000D01*
X94752213Y-89050000D01*
X94669555Y-89072149D01*
X94595446Y-89114936D01*
X94541000Y-89169382D01*
X94541000Y-88397775D01*
X94540999Y-88397774D01*
X94500984Y-88405735D01*
X94500979Y-88405736D01*
X94317533Y-88481721D01*
X94230450Y-88539908D01*
X94162697Y-88561122D01*
X94094230Y-88542338D01*
X94090447Y-88539907D01*
X94041183Y-88506990D01*
X94002704Y-88481279D01*
X93820328Y-88405736D01*
X93819174Y-88405258D01*
X93819169Y-88405256D01*
X93624331Y-88366500D01*
X93624329Y-88366500D01*
X93464594Y-88366500D01*
X93396473Y-88346498D01*
X93375499Y-88329595D01*
X91753835Y-86707931D01*
X91753833Y-86707929D01*
X91650075Y-86638600D01*
X91534785Y-86590845D01*
X91461086Y-86576185D01*
X91412396Y-86566500D01*
X91412394Y-86566500D01*
X85836142Y-86566500D01*
X85768021Y-86546498D01*
X85721528Y-86492842D01*
X85711424Y-86422568D01*
X85740918Y-86357988D01*
X85747047Y-86351405D01*
X85862928Y-86235523D01*
X85885892Y-86207334D01*
X85928880Y-86154564D01*
X86008458Y-85996112D01*
X86049349Y-85823579D01*
X86049349Y-85646268D01*
X86008458Y-85473734D01*
X85928880Y-85315283D01*
X85862929Y-85234324D01*
X85862925Y-85234319D01*
X85559739Y-84931133D01*
X85525713Y-84868821D01*
X85522834Y-84842038D01*
X85522834Y-83427633D01*
X86649199Y-83427633D01*
X86649199Y-83427635D01*
X87159381Y-83937817D01*
X87240289Y-84003724D01*
X87240290Y-84003725D01*
X87398638Y-84083251D01*
X87571060Y-84124116D01*
X87748251Y-84124116D01*
X87920672Y-84083251D01*
X88079020Y-84003725D01*
X88079021Y-84003724D01*
X88159929Y-83937817D01*
X88634756Y-83462991D01*
X88634756Y-83462989D01*
X87624301Y-82452534D01*
X87624299Y-82452534D01*
X86649199Y-83427633D01*
X85522834Y-83427633D01*
X85522834Y-82596962D01*
X85542836Y-82528841D01*
X85596492Y-82482348D01*
X85666766Y-82472244D01*
X85731346Y-82501738D01*
X85746525Y-82517385D01*
X85779807Y-82558243D01*
X86289988Y-83068424D01*
X86289990Y-83068424D01*
X87265089Y-82093324D01*
X87265089Y-82093322D01*
X87983510Y-82093322D01*
X87983510Y-82093325D01*
X88993965Y-83103780D01*
X88993967Y-83103780D01*
X89468793Y-82628953D01*
X89534700Y-82548045D01*
X89534701Y-82548044D01*
X89614227Y-82389696D01*
X89655092Y-82217275D01*
X89655092Y-82040083D01*
X89614227Y-81867662D01*
X89534701Y-81709314D01*
X89534700Y-81709313D01*
X89468793Y-81628405D01*
X88958611Y-81118223D01*
X88958609Y-81118223D01*
X87983510Y-82093322D01*
X87265089Y-82093322D01*
X86254635Y-81082868D01*
X86254633Y-81082868D01*
X85779806Y-81557694D01*
X85713899Y-81638602D01*
X85713895Y-81638608D01*
X85701259Y-81663768D01*
X85688953Y-81676948D01*
X85680881Y-81693076D01*
X85665228Y-81702362D01*
X85652811Y-81715664D01*
X85635333Y-81720100D01*
X85619822Y-81729303D01*
X85601634Y-81728653D01*
X85583996Y-81733130D01*
X85566893Y-81727411D01*
X85548871Y-81726768D01*
X85533921Y-81716388D01*
X85516663Y-81710618D01*
X85505332Y-81696537D01*
X85490553Y-81686276D01*
X85472254Y-81655433D01*
X85455614Y-81615259D01*
X85442201Y-81582876D01*
X85438170Y-81576843D01*
X85364662Y-81466831D01*
X84866863Y-80969032D01*
X83204696Y-79306863D01*
X83204690Y-79306858D01*
X83159583Y-79276719D01*
X83088649Y-79229322D01*
X82997475Y-79191556D01*
X82997474Y-79191555D01*
X82959717Y-79175916D01*
X82959711Y-79175914D01*
X82959710Y-79175914D01*
X82891269Y-79162300D01*
X82891268Y-79162299D01*
X82822835Y-79148687D01*
X82822830Y-79148687D01*
X82822829Y-79148687D01*
X82248766Y-79148687D01*
X82180645Y-79128685D01*
X82159671Y-79111782D01*
X81768659Y-78720770D01*
X81768658Y-78720769D01*
X81742743Y-78699885D01*
X81721232Y-78682550D01*
X81721223Y-78682544D01*
X81588219Y-78621805D01*
X81588215Y-78621804D01*
X81443489Y-78600996D01*
X81443483Y-78600996D01*
X81298756Y-78621804D01*
X81298752Y-78621805D01*
X81165748Y-78682544D01*
X81165739Y-78682550D01*
X81118316Y-78720767D01*
X81118312Y-78720770D01*
X80909055Y-78930028D01*
X80846743Y-78964054D01*
X80819960Y-78966933D01*
X78670356Y-78966933D01*
X78597321Y-78981461D01*
X78547968Y-78991278D01*
X78547966Y-78991278D01*
X78547965Y-78991279D01*
X78432676Y-79039034D01*
X78328924Y-79108359D01*
X78328922Y-79108360D01*
X77779939Y-79657341D01*
X77717627Y-79691366D01*
X77646811Y-79686301D01*
X77642628Y-79684655D01*
X77605896Y-79669441D01*
X77605891Y-79669439D01*
X77430372Y-79634526D01*
X77430370Y-79634526D01*
X77251412Y-79634526D01*
X77251409Y-79634526D01*
X77136712Y-79657341D01*
X77075891Y-79669439D01*
X77075890Y-79669439D01*
X77075887Y-79669440D01*
X76910553Y-79737925D01*
X76761760Y-79837345D01*
X76761753Y-79837350D01*
X76635215Y-79963888D01*
X76635210Y-79963895D01*
X76535788Y-80112690D01*
X76535788Y-80112691D01*
X76480189Y-80246915D01*
X76435640Y-80302195D01*
X76368277Y-80324615D01*
X76299486Y-80307056D01*
X76274686Y-80287790D01*
X75368090Y-79381194D01*
X75339614Y-79356874D01*
X75339613Y-79356873D01*
X75193816Y-79276720D01*
X75193813Y-79276719D01*
X75130835Y-79260548D01*
X75073077Y-79227602D01*
X74912048Y-79066573D01*
X74912042Y-79066568D01*
X74870833Y-79039033D01*
X74796001Y-78989032D01*
X74704827Y-78951266D01*
X74704826Y-78951265D01*
X74667069Y-78935626D01*
X74667063Y-78935624D01*
X74667062Y-78935624D01*
X74598621Y-78922010D01*
X74598620Y-78922009D01*
X74530187Y-78908397D01*
X74530182Y-78908397D01*
X74530181Y-78908397D01*
X73702532Y-78908397D01*
X73634411Y-78888395D01*
X73587918Y-78834739D01*
X73577814Y-78764465D01*
X73607308Y-78699885D01*
X73667034Y-78661501D01*
X73671601Y-78660253D01*
X73884241Y-78606405D01*
X74038824Y-78567259D01*
X74043882Y-78566088D01*
X74928776Y-78380546D01*
X74933832Y-78379593D01*
X75825695Y-78230767D01*
X75830833Y-78230020D01*
X76727994Y-78118189D01*
X76733130Y-78117656D01*
X77634246Y-78042986D01*
X77639377Y-78042669D01*
X78542728Y-78005307D01*
X78547935Y-78005199D01*
X79452065Y-78005199D01*
X79457272Y-78005307D01*
G37*
%TD.AperFunction*%
%TA.AperFunction,Conductor*%
G36*
X72507176Y-101145247D02*
G01*
X72552239Y-101174208D01*
X72611099Y-101233068D01*
X72759898Y-101332492D01*
X72925234Y-101400977D01*
X73100755Y-101435890D01*
X73100756Y-101435890D01*
X73279712Y-101435890D01*
X73279713Y-101435890D01*
X73455234Y-101400977D01*
X73620570Y-101332492D01*
X73620570Y-101332491D01*
X73623788Y-101331159D01*
X73694378Y-101323569D01*
X73757865Y-101355348D01*
X73761102Y-101358471D01*
X73868571Y-101465940D01*
X74017370Y-101565364D01*
X74182706Y-101633849D01*
X74358227Y-101668762D01*
X74358228Y-101668762D01*
X74537184Y-101668762D01*
X74537185Y-101668762D01*
X74712706Y-101633849D01*
X74878042Y-101565364D01*
X74878042Y-101565363D01*
X74881767Y-101563821D01*
X74952357Y-101556231D01*
X75005150Y-101580628D01*
X75005551Y-101580030D01*
X75009354Y-101582571D01*
X75009925Y-101582835D01*
X75010695Y-101583467D01*
X75010698Y-101583469D01*
X75159497Y-101682893D01*
X75324833Y-101751378D01*
X75500354Y-101786291D01*
X75500355Y-101786291D01*
X75679311Y-101786291D01*
X75679312Y-101786291D01*
X75854833Y-101751378D01*
X76020169Y-101682893D01*
X76168968Y-101583469D01*
X76207491Y-101544946D01*
X76269803Y-101510920D01*
X76340618Y-101515985D01*
X76385681Y-101544945D01*
X76649393Y-101808656D01*
X76661602Y-101818831D01*
X76702510Y-101852925D01*
X76835626Y-101922789D01*
X76849482Y-101930061D01*
X76880385Y-101937678D01*
X76941740Y-101973402D01*
X76972569Y-102029860D01*
X76980186Y-102060762D01*
X76980187Y-102060765D01*
X76980188Y-102060766D01*
X77025424Y-102146957D01*
X77057323Y-102207736D01*
X77057328Y-102207743D01*
X77101596Y-102260859D01*
X77427211Y-102586473D01*
X77442225Y-102598986D01*
X77480328Y-102630742D01*
X77625993Y-102707192D01*
X77677014Y-102756559D01*
X77693247Y-102825675D01*
X77691017Y-102843336D01*
X77687678Y-102860122D01*
X77687678Y-104021497D01*
X77667676Y-104089618D01*
X77650773Y-104110592D01*
X77586031Y-104175333D01*
X77586026Y-104175340D01*
X77486606Y-104324133D01*
X77418121Y-104489467D01*
X77418120Y-104489470D01*
X77418120Y-104489471D01*
X77416026Y-104499998D01*
X77383207Y-104664989D01*
X77383207Y-104843952D01*
X77391175Y-104884007D01*
X77418120Y-105019471D01*
X77486605Y-105184807D01*
X77486606Y-105184808D01*
X77577722Y-105321174D01*
X77598937Y-105388927D01*
X77580154Y-105457394D01*
X77527336Y-105504837D01*
X77472957Y-105517176D01*
X77399550Y-105517176D01*
X77238394Y-105556898D01*
X77238393Y-105556898D01*
X77238391Y-105556899D01*
X77118804Y-105619663D01*
X77091416Y-105634037D01*
X77038310Y-105678294D01*
X77038302Y-105678301D01*
X76712688Y-106003917D01*
X76668417Y-106057036D01*
X76591279Y-106204011D01*
X76591278Y-106204015D01*
X76583661Y-106234917D01*
X76547936Y-106296270D01*
X76491479Y-106327098D01*
X76460572Y-106334716D01*
X76460569Y-106334717D01*
X76313604Y-106411850D01*
X76313598Y-106411854D01*
X76260492Y-106456111D01*
X76260484Y-106456118D01*
X75934870Y-106781734D01*
X75890599Y-106834853D01*
X75813461Y-106981828D01*
X75805844Y-107012733D01*
X75770120Y-107074087D01*
X75713663Y-107104915D01*
X75682761Y-107112532D01*
X75682751Y-107112536D01*
X75535787Y-107189668D01*
X75535781Y-107189672D01*
X75482675Y-107233929D01*
X75482667Y-107233936D01*
X75157053Y-107559552D01*
X75112782Y-107612671D01*
X75035644Y-107759646D01*
X75035643Y-107759650D01*
X75028026Y-107790552D01*
X74992301Y-107851905D01*
X74935844Y-107882733D01*
X74904937Y-107890351D01*
X74904934Y-107890352D01*
X74757969Y-107967485D01*
X74757963Y-107967489D01*
X74704857Y-108011746D01*
X74704849Y-108011753D01*
X74379235Y-108337369D01*
X74334964Y-108390488D01*
X74257826Y-108537463D01*
X74250209Y-108568368D01*
X74214485Y-108629722D01*
X74158028Y-108660550D01*
X74127126Y-108668167D01*
X74127116Y-108668171D01*
X73980152Y-108745303D01*
X73980146Y-108745307D01*
X73927040Y-108789564D01*
X73927032Y-108789571D01*
X73601418Y-109115187D01*
X73557147Y-109168306D01*
X73480009Y-109315281D01*
X73480008Y-109315285D01*
X73472391Y-109346187D01*
X73436666Y-109407540D01*
X73380209Y-109438368D01*
X73349302Y-109445986D01*
X73349299Y-109445987D01*
X73202334Y-109523120D01*
X73202328Y-109523124D01*
X73149222Y-109567381D01*
X73149214Y-109567388D01*
X72823600Y-109893004D01*
X72779329Y-109946123D01*
X72702191Y-110093098D01*
X72694574Y-110124003D01*
X72658850Y-110185357D01*
X72602393Y-110216185D01*
X72571491Y-110223802D01*
X72571481Y-110223806D01*
X72424517Y-110300938D01*
X72424511Y-110300942D01*
X72371405Y-110345199D01*
X72371397Y-110345206D01*
X72045783Y-110670822D01*
X72001512Y-110723941D01*
X72001510Y-110723944D01*
X71924373Y-110870918D01*
X71916756Y-110901821D01*
X71881031Y-110963175D01*
X71824575Y-110994002D01*
X71793674Y-111001619D01*
X71793671Y-111001620D01*
X71793669Y-111001621D01*
X71666876Y-111068166D01*
X71646694Y-111078759D01*
X71593588Y-111123016D01*
X71593580Y-111123023D01*
X71267966Y-111448639D01*
X71223695Y-111501758D01*
X71146556Y-111648735D01*
X71138938Y-111679641D01*
X71103213Y-111740994D01*
X71046760Y-111771819D01*
X71015853Y-111779437D01*
X71015847Y-111779440D01*
X70868882Y-111856573D01*
X70868876Y-111856577D01*
X70815770Y-111900834D01*
X70815762Y-111900841D01*
X70490148Y-112226457D01*
X70445877Y-112279576D01*
X70445875Y-112279579D01*
X70368739Y-112426551D01*
X70329017Y-112587709D01*
X70329017Y-112753696D01*
X70359265Y-112876414D01*
X70368740Y-112914856D01*
X70445876Y-113061827D01*
X70490146Y-113114948D01*
X71027891Y-113652691D01*
X71037286Y-113660521D01*
X71081009Y-113696961D01*
X71081012Y-113696963D01*
X71227983Y-113774099D01*
X71389144Y-113813822D01*
X71389145Y-113813822D01*
X71555127Y-113813822D01*
X71555128Y-113813822D01*
X71716289Y-113774099D01*
X71863260Y-113696963D01*
X71916381Y-113652693D01*
X72241992Y-113327080D01*
X72286264Y-113273959D01*
X72363400Y-113126988D01*
X72371017Y-113096083D01*
X72406740Y-113034729D01*
X72463202Y-113003898D01*
X72494107Y-112996281D01*
X72641078Y-112919145D01*
X72694199Y-112874875D01*
X73019810Y-112549262D01*
X73064082Y-112496141D01*
X73090471Y-112445862D01*
X73141217Y-112349172D01*
X73141218Y-112349169D01*
X73148575Y-112319322D01*
X73148834Y-112318268D01*
X73184555Y-112256913D01*
X73241022Y-112226080D01*
X73271924Y-112218464D01*
X73418895Y-112141328D01*
X73472016Y-112097058D01*
X73797627Y-111771445D01*
X73841899Y-111718324D01*
X73919035Y-111571353D01*
X73926652Y-111540448D01*
X73962374Y-111479094D01*
X74018839Y-111448262D01*
X74049741Y-111440646D01*
X74196712Y-111363510D01*
X74249833Y-111319240D01*
X74575444Y-110993627D01*
X74619716Y-110940506D01*
X74622630Y-110934955D01*
X74696851Y-110793537D01*
X74696851Y-110793536D01*
X74696852Y-110793535D01*
X74704468Y-110762633D01*
X74740190Y-110701279D01*
X74796655Y-110670446D01*
X74827559Y-110662829D01*
X74974530Y-110585693D01*
X75027651Y-110541423D01*
X75353262Y-110215810D01*
X75397534Y-110162689D01*
X75474670Y-110015718D01*
X75482287Y-109984813D01*
X75518009Y-109923459D01*
X75574474Y-109892627D01*
X75605376Y-109885011D01*
X75752347Y-109807875D01*
X75805468Y-109763605D01*
X76131079Y-109437992D01*
X76175351Y-109384871D01*
X76185646Y-109365257D01*
X76252486Y-109237902D01*
X76252486Y-109237901D01*
X76252487Y-109237900D01*
X76260103Y-109206998D01*
X76295825Y-109145644D01*
X76352290Y-109114811D01*
X76383194Y-109107194D01*
X76530165Y-109030058D01*
X76583286Y-108985788D01*
X76908897Y-108660175D01*
X76953169Y-108607054D01*
X77030305Y-108460083D01*
X77037922Y-108429178D01*
X77073644Y-108367824D01*
X77130109Y-108336992D01*
X77161011Y-108329376D01*
X77307982Y-108252240D01*
X77361103Y-108207970D01*
X77686714Y-107882357D01*
X77730986Y-107829236D01*
X77744539Y-107803414D01*
X77808121Y-107682267D01*
X77808121Y-107682266D01*
X77808122Y-107682265D01*
X77815738Y-107651363D01*
X77851460Y-107590009D01*
X77907925Y-107559176D01*
X77938829Y-107551559D01*
X78085800Y-107474423D01*
X78138921Y-107430153D01*
X78464532Y-107104540D01*
X78508804Y-107051419D01*
X78585940Y-106904448D01*
X78625663Y-106743287D01*
X78625663Y-106577303D01*
X78585940Y-106416142D01*
X78508804Y-106269171D01*
X78464534Y-106216050D01*
X78335134Y-106086650D01*
X78126550Y-105878067D01*
X78092525Y-105815754D01*
X78097589Y-105744939D01*
X78140136Y-105688103D01*
X78206656Y-105663292D01*
X78215645Y-105662971D01*
X78381185Y-105662971D01*
X78381186Y-105662971D01*
X78556707Y-105628058D01*
X78722043Y-105559573D01*
X78870842Y-105460149D01*
X78997385Y-105333606D01*
X79096809Y-105184807D01*
X79165294Y-105019471D01*
X79200207Y-104843950D01*
X79200207Y-104664992D01*
X79200207Y-104660521D01*
X79220209Y-104592400D01*
X79273865Y-104545907D01*
X79344139Y-104535803D01*
X79408719Y-104565297D01*
X79422994Y-104579848D01*
X79435047Y-104594310D01*
X79435050Y-104594313D01*
X79760663Y-104919925D01*
X79784580Y-104939858D01*
X79813780Y-104964194D01*
X79960752Y-105041330D01*
X79991656Y-105048947D01*
X80053010Y-105084670D01*
X80083840Y-105141130D01*
X80091457Y-105172034D01*
X80091457Y-105172035D01*
X80091458Y-105172036D01*
X80168594Y-105319008D01*
X80212865Y-105372128D01*
X80370781Y-105530044D01*
X80472541Y-105631803D01*
X80506566Y-105694116D01*
X80501502Y-105764931D01*
X80458955Y-105821767D01*
X80442005Y-105832465D01*
X80415107Y-105846583D01*
X80380382Y-105875521D01*
X80380382Y-105875522D01*
X81265564Y-106760704D01*
X81265565Y-106760704D01*
X81692656Y-106333612D01*
X81692656Y-106333611D01*
X81316033Y-105956988D01*
X81282007Y-105894676D01*
X81287072Y-105823861D01*
X81329619Y-105767025D01*
X81346572Y-105756326D01*
X81373847Y-105742012D01*
X81426967Y-105697741D01*
X82671818Y-104452889D01*
X82716090Y-104399769D01*
X82793226Y-104252797D01*
X82832949Y-104091637D01*
X82832949Y-103925652D01*
X82818362Y-103866471D01*
X82801510Y-103798100D01*
X82804627Y-103727172D01*
X82845597Y-103669189D01*
X82911411Y-103642560D01*
X82923848Y-103641945D01*
X84143551Y-103641945D01*
X84187582Y-103649888D01*
X84269477Y-103680434D01*
X84269480Y-103680434D01*
X84269481Y-103680435D01*
X84330028Y-103686944D01*
X84330033Y-103686944D01*
X84330040Y-103686945D01*
X84549681Y-103686945D01*
X84617802Y-103706947D01*
X84664295Y-103760603D01*
X84674399Y-103830877D01*
X84656922Y-103879092D01*
X84598562Y-103973708D01*
X84542790Y-104142018D01*
X84542789Y-104142025D01*
X84532177Y-104245892D01*
X84532177Y-105046990D01*
X84542789Y-105150871D01*
X84598562Y-105319184D01*
X84691647Y-105470098D01*
X84691652Y-105470104D01*
X84778899Y-105557351D01*
X84812925Y-105619663D01*
X84807860Y-105690478D01*
X84778899Y-105735541D01*
X84691652Y-105822787D01*
X84691647Y-105822793D01*
X84598562Y-105973707D01*
X84582636Y-106021770D01*
X84559531Y-106091500D01*
X84556436Y-106100839D01*
X84516022Y-106159210D01*
X84450465Y-106186466D01*
X84388613Y-106177615D01*
X84265005Y-106126414D01*
X84089481Y-106091500D01*
X84089479Y-106091500D01*
X83910521Y-106091500D01*
X83910518Y-106091500D01*
X83779771Y-106117507D01*
X83735000Y-106126413D01*
X83734999Y-106126413D01*
X83734996Y-106126414D01*
X83611388Y-106177615D01*
X83590021Y-106186466D01*
X83569662Y-106194899D01*
X83420869Y-106294319D01*
X83420862Y-106294324D01*
X83294324Y-106420862D01*
X83294319Y-106420869D01*
X83194897Y-106569664D01*
X83191979Y-106575125D01*
X83190604Y-106574390D01*
X83150857Y-106623706D01*
X83083492Y-106646122D01*
X83079004Y-106646202D01*
X83078465Y-106646202D01*
X82967614Y-106668252D01*
X82902947Y-106681115D01*
X82902946Y-106681115D01*
X82902943Y-106681116D01*
X82771849Y-106735418D01*
X82752850Y-106743288D01*
X82737609Y-106749601D01*
X82588816Y-106849021D01*
X82588814Y-106849022D01*
X82487535Y-106950300D01*
X82425222Y-106984325D01*
X82354406Y-106979259D01*
X82309344Y-106950299D01*
X82051867Y-106692821D01*
X82051866Y-106692821D01*
X81534264Y-107210423D01*
X81471952Y-107244449D01*
X81401137Y-107239384D01*
X81356073Y-107210423D01*
X81265565Y-107119914D01*
X81183893Y-107201585D01*
X81121581Y-107235610D01*
X81050765Y-107230544D01*
X81005703Y-107201585D01*
X80472369Y-106668252D01*
X80419252Y-106623983D01*
X80417651Y-106623143D01*
X80414250Y-106620640D01*
X80413709Y-106620279D01*
X80413725Y-106620254D01*
X80387111Y-106600671D01*
X80021172Y-106234732D01*
X79992234Y-106269455D01*
X79992229Y-106269461D01*
X79915153Y-106416317D01*
X79915152Y-106416319D01*
X79907611Y-106446914D01*
X79871886Y-106508268D01*
X79815429Y-106539095D01*
X79783977Y-106546847D01*
X79637002Y-106623985D01*
X79636998Y-106623988D01*
X79583882Y-106668256D01*
X79258268Y-106993871D01*
X79213999Y-107046988D01*
X79136863Y-107193961D01*
X79129247Y-107224863D01*
X79093523Y-107286218D01*
X79037064Y-107317047D01*
X79006159Y-107324664D01*
X78859187Y-107401800D01*
X78859180Y-107401805D01*
X78806064Y-107446073D01*
X78480450Y-107771688D01*
X78436181Y-107824805D01*
X78359045Y-107971778D01*
X78351428Y-108002683D01*
X78315704Y-108064037D01*
X78259244Y-108094865D01*
X78254161Y-108096118D01*
X78228342Y-108102482D01*
X78081370Y-108179618D01*
X78081363Y-108179623D01*
X78028247Y-108223891D01*
X77702633Y-108549506D01*
X77658364Y-108602623D01*
X77581228Y-108749596D01*
X77573612Y-108780498D01*
X77537888Y-108841853D01*
X77481429Y-108872682D01*
X77450524Y-108880299D01*
X77303552Y-108957435D01*
X77303545Y-108957440D01*
X77250429Y-109001708D01*
X76924815Y-109327323D01*
X76880546Y-109380440D01*
X76803410Y-109527413D01*
X76795793Y-109558318D01*
X76760069Y-109619672D01*
X76703609Y-109650500D01*
X76698526Y-109651753D01*
X76672707Y-109658117D01*
X76525735Y-109735253D01*
X76525728Y-109735258D01*
X76472612Y-109779526D01*
X76146998Y-110105141D01*
X76102729Y-110158258D01*
X76025593Y-110305231D01*
X76017977Y-110336133D01*
X75982253Y-110397488D01*
X75925794Y-110428317D01*
X75894889Y-110435934D01*
X75747917Y-110513070D01*
X75747910Y-110513075D01*
X75694794Y-110557343D01*
X75369180Y-110882958D01*
X75324911Y-110936075D01*
X75251425Y-111076094D01*
X75250027Y-111078759D01*
X75247775Y-111083049D01*
X75240157Y-111113953D01*
X75204431Y-111175306D01*
X75147977Y-111206133D01*
X75117073Y-111213751D01*
X74970100Y-111290887D01*
X74970093Y-111290892D01*
X74916977Y-111335160D01*
X74591363Y-111660775D01*
X74547094Y-111713892D01*
X74469959Y-111860863D01*
X74462341Y-111891770D01*
X74426617Y-111953124D01*
X74370159Y-111983952D01*
X74339254Y-111991569D01*
X74192279Y-112068707D01*
X74192275Y-112068710D01*
X74139159Y-112112978D01*
X73813545Y-112438593D01*
X73769276Y-112491710D01*
X73692140Y-112638684D01*
X73684522Y-112669588D01*
X73648796Y-112730941D01*
X73592342Y-112761768D01*
X73561438Y-112769386D01*
X73414465Y-112846522D01*
X73414458Y-112846527D01*
X73361342Y-112890795D01*
X73035728Y-113216410D01*
X72991459Y-113269527D01*
X72914324Y-113416498D01*
X72906706Y-113447405D01*
X72870982Y-113508759D01*
X72814524Y-113539587D01*
X72783619Y-113547204D01*
X72636644Y-113624342D01*
X72636640Y-113624345D01*
X72583524Y-113668613D01*
X72257910Y-113994228D01*
X72213641Y-114047345D01*
X72136505Y-114194319D01*
X72128887Y-114225223D01*
X72093161Y-114286576D01*
X72036707Y-114317403D01*
X72005803Y-114325021D01*
X71858830Y-114402157D01*
X71858823Y-114402162D01*
X71805707Y-114446430D01*
X71480090Y-114772048D01*
X71473074Y-114780466D01*
X71414093Y-114819985D01*
X71343110Y-114821343D01*
X71287203Y-114788895D01*
X71278772Y-114780466D01*
X64796569Y-108299684D01*
X63342604Y-106846038D01*
X63308572Y-106783730D01*
X63313630Y-106712913D01*
X63351021Y-106660141D01*
X63360389Y-106652335D01*
X63686001Y-106326722D01*
X63730273Y-106273602D01*
X63807409Y-106126630D01*
X63815025Y-106095728D01*
X63850747Y-106034374D01*
X63907212Y-106003541D01*
X63938114Y-105995925D01*
X64085086Y-105918789D01*
X64138206Y-105874518D01*
X64463818Y-105548905D01*
X64508090Y-105495785D01*
X64585226Y-105348813D01*
X64592843Y-105317908D01*
X64628566Y-105256555D01*
X64685027Y-105225724D01*
X64715932Y-105218107D01*
X64715932Y-105218106D01*
X64715935Y-105218106D01*
X64862898Y-105140974D01*
X64862897Y-105140974D01*
X64862904Y-105140971D01*
X64916024Y-105096700D01*
X65241636Y-104771087D01*
X65285908Y-104717967D01*
X65363044Y-104570995D01*
X65370660Y-104540093D01*
X65406382Y-104478739D01*
X65462847Y-104447906D01*
X65493749Y-104440290D01*
X65499418Y-104437315D01*
X65581533Y-104394218D01*
X65640721Y-104363154D01*
X65693841Y-104318883D01*
X65987227Y-104025495D01*
X65989981Y-104023991D01*
X65991619Y-104021309D01*
X66020941Y-104007086D01*
X66049537Y-103991472D01*
X66052671Y-103991696D01*
X66055498Y-103990325D01*
X66087845Y-103994211D01*
X66120353Y-103996536D01*
X66123808Y-103998532D01*
X66125987Y-103998794D01*
X66136005Y-104005578D01*
X66156600Y-104017477D01*
X66161191Y-104021272D01*
X66242043Y-104102124D01*
X66330498Y-104161227D01*
X66335444Y-104165316D01*
X66351876Y-104189625D01*
X66370695Y-104212143D01*
X66371515Y-104218679D01*
X66375204Y-104224135D01*
X66375885Y-104253466D01*
X66379543Y-104282586D01*
X66376700Y-104288528D01*
X66376853Y-104295112D01*
X66361564Y-104320162D01*
X66348901Y-104346630D01*
X66344261Y-104351526D01*
X66035375Y-104660414D01*
X65991104Y-104713533D01*
X65991102Y-104713536D01*
X65913965Y-104860510D01*
X65906348Y-104891413D01*
X65870623Y-104952767D01*
X65814167Y-104983594D01*
X65783266Y-104991211D01*
X65783263Y-104991212D01*
X65783261Y-104991213D01*
X65673258Y-105048947D01*
X65636286Y-105068351D01*
X65583180Y-105112608D01*
X65583172Y-105112615D01*
X65257558Y-105438231D01*
X65213287Y-105491350D01*
X65136148Y-105638327D01*
X65128530Y-105669233D01*
X65092805Y-105730586D01*
X65036352Y-105761411D01*
X65005445Y-105769029D01*
X65005439Y-105769032D01*
X64858474Y-105846165D01*
X64858468Y-105846169D01*
X64805362Y-105890426D01*
X64805354Y-105890433D01*
X64479740Y-106216049D01*
X64435469Y-106269168D01*
X64435467Y-106269171D01*
X64358331Y-106416143D01*
X64318609Y-106577301D01*
X64318609Y-106743288D01*
X64344671Y-106849024D01*
X64358332Y-106904448D01*
X64435468Y-107051419D01*
X64479738Y-107104540D01*
X65017483Y-107642283D01*
X65023354Y-107647176D01*
X65070601Y-107686553D01*
X65070604Y-107686555D01*
X65217575Y-107763691D01*
X65378736Y-107803414D01*
X65378737Y-107803414D01*
X65544719Y-107803414D01*
X65544720Y-107803414D01*
X65705881Y-107763691D01*
X65852852Y-107686555D01*
X65905973Y-107642285D01*
X66231584Y-107316672D01*
X66275856Y-107263551D01*
X66352992Y-107116580D01*
X66360609Y-107085675D01*
X66396332Y-107024321D01*
X66452794Y-106993490D01*
X66483699Y-106985873D01*
X66630670Y-106908737D01*
X66683791Y-106864467D01*
X67009402Y-106538854D01*
X67053674Y-106485733D01*
X67054941Y-106483320D01*
X67130809Y-106338764D01*
X67130810Y-106338761D01*
X67132080Y-106333611D01*
X67138426Y-106307860D01*
X67174147Y-106246505D01*
X67230614Y-106215672D01*
X67261516Y-106208056D01*
X67408487Y-106130920D01*
X67461608Y-106086650D01*
X67787219Y-105761037D01*
X67831491Y-105707916D01*
X67836832Y-105697741D01*
X67908626Y-105560947D01*
X67908626Y-105560946D01*
X67908627Y-105560945D01*
X67916243Y-105530043D01*
X67951965Y-105468689D01*
X68008430Y-105437856D01*
X68039334Y-105430239D01*
X68186305Y-105353103D01*
X68239426Y-105308833D01*
X68565037Y-104983220D01*
X68609309Y-104930099D01*
X68686445Y-104783128D01*
X68694062Y-104752223D01*
X68729784Y-104690869D01*
X68786249Y-104660037D01*
X68817151Y-104652421D01*
X68964122Y-104575285D01*
X69017243Y-104531015D01*
X69342854Y-104205402D01*
X69387126Y-104152281D01*
X69392512Y-104142020D01*
X69464261Y-104005312D01*
X69464261Y-104005311D01*
X69464262Y-104005310D01*
X69471878Y-103974408D01*
X69507600Y-103913054D01*
X69564065Y-103882221D01*
X69594969Y-103874604D01*
X69741940Y-103797468D01*
X69795061Y-103753198D01*
X70120672Y-103427585D01*
X70164944Y-103374464D01*
X70242080Y-103227493D01*
X70249697Y-103196588D01*
X70285419Y-103135234D01*
X70341884Y-103104402D01*
X70372786Y-103096786D01*
X70519757Y-103019650D01*
X70572878Y-102975380D01*
X70898489Y-102649767D01*
X70942761Y-102596646D01*
X70948101Y-102586473D01*
X71019896Y-102449677D01*
X71019896Y-102449676D01*
X71019897Y-102449675D01*
X71027513Y-102418773D01*
X71063235Y-102357419D01*
X71119700Y-102326586D01*
X71150604Y-102318969D01*
X71297575Y-102241833D01*
X71350696Y-102197563D01*
X71676307Y-101871950D01*
X71720579Y-101818829D01*
X71797715Y-101671858D01*
X71805332Y-101640953D01*
X71841054Y-101579599D01*
X71897519Y-101548767D01*
X71928421Y-101541151D01*
X72075392Y-101464015D01*
X72128513Y-101419745D01*
X72374049Y-101174207D01*
X72436360Y-101140183D01*
X72507176Y-101145247D01*
G37*
%TD.AperFunction*%
%TA.AperFunction,Conductor*%
G36*
X93474717Y-96639278D02*
G01*
X93522988Y-96691340D01*
X93535449Y-96761234D01*
X93532803Y-96776563D01*
X93521829Y-96822867D01*
X93521829Y-97000178D01*
X93544303Y-97095003D01*
X93562720Y-97172712D01*
X93642299Y-97331165D01*
X93642301Y-97331167D01*
X93708252Y-97412126D01*
X95087875Y-98791748D01*
X95103398Y-98804393D01*
X95143580Y-98862924D01*
X95145740Y-98933887D01*
X95112916Y-98991178D01*
X94900414Y-99203682D01*
X94812174Y-99291922D01*
X94812173Y-99291924D01*
X94742848Y-99395676D01*
X94701133Y-99496385D01*
X94695092Y-99510968D01*
X94688303Y-99545098D01*
X94670747Y-99633356D01*
X94670747Y-100744621D01*
X94650745Y-100812742D01*
X94633843Y-100833716D01*
X94290225Y-101177334D01*
X94224280Y-101258286D01*
X94224270Y-101258301D01*
X94144697Y-101416742D01*
X94144696Y-101416745D01*
X94144696Y-101416746D01*
X94103805Y-101589279D01*
X94103805Y-101766591D01*
X94144696Y-101939124D01*
X94144696Y-101939125D01*
X94144697Y-101939126D01*
X94157394Y-101964408D01*
X94170092Y-102034260D01*
X94143009Y-102099888D01*
X94084744Y-102140456D01*
X94044796Y-102146956D01*
X94027903Y-102146956D01*
X94027901Y-102146956D01*
X94027895Y-102146957D01*
X93866756Y-102188331D01*
X93866752Y-102188332D01*
X93720967Y-102268479D01*
X93720953Y-102268488D01*
X93692488Y-102292798D01*
X93386300Y-102598986D01*
X93361990Y-102627451D01*
X93361981Y-102627465D01*
X93281834Y-102773250D01*
X93281833Y-102773254D01*
X93240459Y-102934393D01*
X93240458Y-102934403D01*
X93240458Y-103100774D01*
X93240459Y-103100784D01*
X93281832Y-103261922D01*
X93281836Y-103261930D01*
X93361985Y-103407720D01*
X93386308Y-103436199D01*
X94168364Y-104218255D01*
X94172771Y-104226326D01*
X94180136Y-104231839D01*
X94189521Y-104257000D01*
X94202390Y-104280567D01*
X94201733Y-104289741D01*
X94204948Y-104298358D01*
X94199240Y-104324596D01*
X94197325Y-104351382D01*
X94191413Y-104360579D01*
X94189858Y-104367733D01*
X94168366Y-104396443D01*
X94146094Y-104418716D01*
X94083783Y-104452743D01*
X94012967Y-104447680D01*
X93967902Y-104418718D01*
X93774863Y-104225679D01*
X93774861Y-104225679D01*
X93292614Y-104707926D01*
X93230302Y-104741952D01*
X93159487Y-104736887D01*
X93114423Y-104707926D01*
X93023915Y-104617417D01*
X93023914Y-104617417D01*
X92933405Y-104707926D01*
X92871093Y-104741952D01*
X92800278Y-104736887D01*
X92755215Y-104707927D01*
X92018767Y-103971480D01*
X92018766Y-103971480D01*
X91938803Y-104116937D01*
X91938799Y-104116946D01*
X91897457Y-104277959D01*
X91897456Y-104277966D01*
X91897456Y-104444214D01*
X91897457Y-104444222D01*
X91938800Y-104605238D01*
X91938803Y-104605245D01*
X92018890Y-104750927D01*
X92043182Y-104779368D01*
X92043209Y-104779397D01*
X92203670Y-104939858D01*
X92237696Y-105002170D01*
X92232631Y-105072985D01*
X92203670Y-105118048D01*
X89870679Y-107451041D01*
X89808367Y-107485066D01*
X89781584Y-107487946D01*
X89731696Y-107487946D01*
X89600949Y-107513953D01*
X89556178Y-107522859D01*
X89556177Y-107522859D01*
X89556174Y-107522860D01*
X89390838Y-107591345D01*
X89390837Y-107591346D01*
X89307282Y-107647176D01*
X89239530Y-107668391D01*
X89189063Y-107658820D01*
X89090725Y-107618087D01*
X89090720Y-107618085D01*
X88915201Y-107583172D01*
X88915199Y-107583172D01*
X88865314Y-107583172D01*
X88797193Y-107563170D01*
X88776219Y-107546267D01*
X87942583Y-106712631D01*
X87908557Y-106650319D01*
X87905678Y-106623536D01*
X87905678Y-105869662D01*
X88239544Y-105869662D01*
X88239544Y-105869665D01*
X88714370Y-106344491D01*
X88795278Y-106410398D01*
X88795279Y-106410399D01*
X88953627Y-106489925D01*
X89126049Y-106530790D01*
X89303240Y-106530790D01*
X89475661Y-106489925D01*
X89634009Y-106410399D01*
X89634010Y-106410398D01*
X89714913Y-106344495D01*
X90225100Y-105834308D01*
X90225100Y-105834307D01*
X89250000Y-104859208D01*
X89249998Y-104859208D01*
X88239544Y-105869662D01*
X87905678Y-105869662D01*
X87905678Y-105537300D01*
X87925680Y-105469179D01*
X87942583Y-105448205D01*
X88890792Y-104499996D01*
X89609210Y-104499996D01*
X89609210Y-104499998D01*
X90584309Y-105475098D01*
X90584310Y-105475098D01*
X91094497Y-104964911D01*
X91160400Y-104884008D01*
X91160401Y-104884007D01*
X91239927Y-104725659D01*
X91280792Y-104553238D01*
X91280792Y-104376046D01*
X91239927Y-104203625D01*
X91160401Y-104045277D01*
X91160400Y-104045276D01*
X91094493Y-103964368D01*
X90742393Y-103612268D01*
X92377978Y-103612268D01*
X92377978Y-103612270D01*
X93023914Y-104258206D01*
X93023916Y-104258206D01*
X93415651Y-103866471D01*
X93415651Y-103866469D01*
X93185880Y-103636698D01*
X93185872Y-103636691D01*
X93157425Y-103612393D01*
X93011743Y-103532305D01*
X93011736Y-103532302D01*
X92850720Y-103490959D01*
X92850712Y-103490958D01*
X92684465Y-103490958D01*
X92684457Y-103490959D01*
X92523444Y-103532301D01*
X92523435Y-103532305D01*
X92377978Y-103612268D01*
X90742393Y-103612268D01*
X90619667Y-103489542D01*
X90619665Y-103489542D01*
X89609210Y-104499996D01*
X88890792Y-104499996D01*
X90260456Y-103130332D01*
X90260456Y-103130331D01*
X89785629Y-102655504D01*
X89704721Y-102589597D01*
X89704713Y-102589591D01*
X89548129Y-102510951D01*
X89496231Y-102462504D01*
X89478678Y-102398354D01*
X89478678Y-101887431D01*
X90971777Y-101887431D01*
X90971777Y-101887433D01*
X91481959Y-102397615D01*
X91562867Y-102463522D01*
X91562868Y-102463523D01*
X91721216Y-102543049D01*
X91893638Y-102583914D01*
X92070829Y-102583914D01*
X92243250Y-102543049D01*
X92401598Y-102463523D01*
X92401599Y-102463522D01*
X92482507Y-102397615D01*
X92957334Y-101922789D01*
X92957334Y-101922787D01*
X91946879Y-100912332D01*
X91946877Y-100912332D01*
X90971777Y-101887431D01*
X89478678Y-101887431D01*
X89478678Y-100361950D01*
X89478949Y-100361025D01*
X89478692Y-100360098D01*
X89488935Y-100327019D01*
X89498680Y-100293829D01*
X89499408Y-100293198D01*
X89499693Y-100292278D01*
X89526187Y-100269993D01*
X89552336Y-100247336D01*
X89553532Y-100246994D01*
X89554026Y-100246579D01*
X89557643Y-100245819D01*
X89588582Y-100236982D01*
X89596594Y-100235950D01*
X89683121Y-100235950D01*
X89786123Y-100211537D01*
X89792660Y-100210696D01*
X89821467Y-100215271D01*
X89850595Y-100216813D01*
X89856089Y-100220769D01*
X89862778Y-100221832D01*
X89884541Y-100241258D01*
X89908209Y-100258301D01*
X89910692Y-100264599D01*
X89915744Y-100269109D01*
X89923549Y-100297213D01*
X89934247Y-100324350D01*
X89933599Y-100333402D01*
X89934742Y-100337516D01*
X89932874Y-100343548D01*
X89931360Y-100364721D01*
X89916086Y-100429169D01*
X89916086Y-100606362D01*
X89956950Y-100778783D01*
X90036476Y-100937131D01*
X90036477Y-100937132D01*
X90102384Y-101018040D01*
X90612566Y-101528222D01*
X90612568Y-101528222D01*
X91587670Y-100553120D01*
X92306088Y-100553120D01*
X92306088Y-100553123D01*
X93316543Y-101563578D01*
X93316545Y-101563578D01*
X93791371Y-101088751D01*
X93857278Y-101007843D01*
X93857279Y-101007842D01*
X93936805Y-100849494D01*
X93977670Y-100677073D01*
X93977670Y-100499881D01*
X93936805Y-100327460D01*
X93857279Y-100169112D01*
X93857278Y-100169111D01*
X93791371Y-100088203D01*
X93281189Y-99578021D01*
X93281187Y-99578021D01*
X92306088Y-100553120D01*
X91587670Y-100553120D01*
X92921978Y-99218812D01*
X92921978Y-99218810D01*
X92411796Y-98708628D01*
X92330888Y-98642721D01*
X92330887Y-98642720D01*
X92172539Y-98563194D01*
X92000118Y-98522330D01*
X91917825Y-98522330D01*
X91849704Y-98502328D01*
X91803211Y-98448672D01*
X91793107Y-98378398D01*
X91820138Y-98316749D01*
X91867463Y-98258656D01*
X91867463Y-98258655D01*
X91867467Y-98258651D01*
X91945733Y-98102810D01*
X91954445Y-98066049D01*
X91989617Y-98004381D01*
X92047988Y-97972507D01*
X92160958Y-97945733D01*
X92316799Y-97867467D01*
X92396423Y-97802604D01*
X92802602Y-97396423D01*
X92867467Y-97316799D01*
X92945733Y-97160958D01*
X92985950Y-96991269D01*
X92985950Y-96874386D01*
X93005952Y-96806265D01*
X93059608Y-96759772D01*
X93080605Y-96752347D01*
X93193816Y-96723280D01*
X93235369Y-96700436D01*
X93345255Y-96640026D01*
X93346007Y-96641395D01*
X93405962Y-96621578D01*
X93474717Y-96639278D01*
G37*
%TD.AperFunction*%
%TA.AperFunction,Conductor*%
G36*
X60053965Y-89098944D02*
G01*
X60096725Y-89155619D01*
X60104836Y-89200095D01*
X60104836Y-89348618D01*
X60140820Y-89500445D01*
X60145728Y-89521154D01*
X60225301Y-89679596D01*
X60225303Y-89679599D01*
X60225305Y-89679602D01*
X60291255Y-89760562D01*
X60857711Y-90327017D01*
X60938671Y-90392968D01*
X61008102Y-90427838D01*
X61059998Y-90476284D01*
X61077465Y-90545098D01*
X61054955Y-90612432D01*
X60999615Y-90656907D01*
X60951551Y-90666434D01*
X60859940Y-90666434D01*
X60859932Y-90666435D01*
X60698919Y-90707777D01*
X60698910Y-90707781D01*
X60553453Y-90787744D01*
X60553453Y-90787746D01*
X61252422Y-91486715D01*
X61252424Y-91486715D01*
X61644159Y-91094980D01*
X61644159Y-91094978D01*
X61361355Y-90812174D01*
X61361347Y-90812167D01*
X61332900Y-90787869D01*
X61263746Y-90749852D01*
X61260603Y-90746691D01*
X61256325Y-90745435D01*
X61235790Y-90721736D01*
X61213687Y-90699507D01*
X61212751Y-90695148D01*
X61209832Y-90691779D01*
X61205369Y-90660739D01*
X61198793Y-90630090D01*
X61200362Y-90625918D01*
X61199728Y-90621505D01*
X61212751Y-90592988D01*
X61223793Y-90563641D01*
X61227370Y-90560978D01*
X61229222Y-90556925D01*
X61255588Y-90539979D01*
X61280750Y-90521256D01*
X61286256Y-90520270D01*
X61288948Y-90518541D01*
X61324446Y-90513437D01*
X61424596Y-90513437D01*
X61492717Y-90533439D01*
X61535011Y-90578737D01*
X61537459Y-90583191D01*
X61537466Y-90583201D01*
X61561774Y-90611663D01*
X61561780Y-90611669D01*
X61561781Y-90611670D01*
X62379905Y-91429794D01*
X62384313Y-91437866D01*
X62391679Y-91443381D01*
X62401062Y-91468541D01*
X62413929Y-91492105D01*
X62413272Y-91501281D01*
X62416488Y-91509902D01*
X62410780Y-91536137D01*
X62408865Y-91562920D01*
X62402951Y-91572120D01*
X62401395Y-91579276D01*
X62379902Y-91607985D01*
X62357627Y-91630259D01*
X62295314Y-91664283D01*
X62224499Y-91659217D01*
X62179438Y-91630257D01*
X62003370Y-91454188D01*
X62003369Y-91454188D01*
X61611633Y-91845924D01*
X62056160Y-92290451D01*
X62089105Y-92348210D01*
X62111384Y-92434977D01*
X62189458Y-92576992D01*
X62191538Y-92580775D01*
X62215858Y-92609251D01*
X63140748Y-93534141D01*
X63169227Y-93558464D01*
X63315017Y-93638613D01*
X63315025Y-93638617D01*
X63438236Y-93670252D01*
X63476171Y-93679992D01*
X63476174Y-93679992D01*
X63642545Y-93679992D01*
X63642548Y-93679992D01*
X63803696Y-93638616D01*
X63949492Y-93558463D01*
X63977965Y-93534145D01*
X64214147Y-93297961D01*
X64276460Y-93263937D01*
X64303243Y-93261057D01*
X67947776Y-93261057D01*
X68015897Y-93281059D01*
X68036866Y-93297957D01*
X68376640Y-93637731D01*
X68702878Y-93963969D01*
X68783829Y-94029914D01*
X68783830Y-94029914D01*
X68783832Y-94029916D01*
X68942283Y-94109494D01*
X69114817Y-94150385D01*
X69114819Y-94150385D01*
X69292126Y-94150385D01*
X69292128Y-94150385D01*
X69464661Y-94109494D01*
X69623113Y-94029916D01*
X69646287Y-94011037D01*
X69711733Y-93983521D01*
X69781668Y-93995756D01*
X69814962Y-94019631D01*
X70666164Y-94870833D01*
X70700190Y-94933145D01*
X70695125Y-95003960D01*
X70666164Y-95049023D01*
X70544324Y-95170862D01*
X70544319Y-95170869D01*
X70453250Y-95307165D01*
X70444898Y-95319664D01*
X70399251Y-95429865D01*
X70394200Y-95442059D01*
X70349651Y-95497339D01*
X70315652Y-95512699D01*
X70315872Y-95513279D01*
X70308748Y-95515980D01*
X70161774Y-95593117D01*
X70161767Y-95593122D01*
X70108651Y-95637390D01*
X69783037Y-95963005D01*
X69738768Y-96016122D01*
X69661632Y-96163095D01*
X69654016Y-96193997D01*
X69618292Y-96255352D01*
X69561833Y-96286181D01*
X69530928Y-96293798D01*
X69383956Y-96370934D01*
X69383949Y-96370939D01*
X69330833Y-96415207D01*
X69005219Y-96740822D01*
X68960950Y-96793939D01*
X68883814Y-96940912D01*
X68876197Y-96971817D01*
X68840473Y-97033171D01*
X68784013Y-97063999D01*
X68778930Y-97065252D01*
X68753111Y-97071616D01*
X68606139Y-97148752D01*
X68606132Y-97148757D01*
X68553016Y-97193025D01*
X68227402Y-97518640D01*
X68183133Y-97571757D01*
X68105997Y-97718730D01*
X68098381Y-97749632D01*
X68062657Y-97810987D01*
X68006198Y-97841816D01*
X67975293Y-97849433D01*
X67828321Y-97926569D01*
X67828314Y-97926574D01*
X67775192Y-97970847D01*
X67575140Y-98170900D01*
X67512828Y-98204926D01*
X67442013Y-98199861D01*
X67436087Y-98197186D01*
X67436054Y-98197267D01*
X67430337Y-98194899D01*
X67430336Y-98194898D01*
X67289994Y-98136766D01*
X67265003Y-98126414D01*
X67265001Y-98126413D01*
X67265000Y-98126413D01*
X67146339Y-98102810D01*
X67089481Y-98091500D01*
X67089479Y-98091500D01*
X66910521Y-98091500D01*
X66910518Y-98091500D01*
X66779771Y-98117507D01*
X66735000Y-98126413D01*
X66734999Y-98126413D01*
X66734996Y-98126414D01*
X66569662Y-98194899D01*
X66420869Y-98294319D01*
X66420862Y-98294324D01*
X66294324Y-98420862D01*
X66294319Y-98420869D01*
X66194899Y-98569662D01*
X66126414Y-98734996D01*
X66091500Y-98910518D01*
X66091500Y-98910521D01*
X66091500Y-99089479D01*
X66124751Y-99256647D01*
X66126414Y-99265003D01*
X66137565Y-99291924D01*
X66180541Y-99395676D01*
X66197267Y-99436054D01*
X66195070Y-99436963D01*
X66207400Y-99496133D01*
X66182008Y-99562433D01*
X66170901Y-99575139D01*
X65893949Y-99852092D01*
X65849680Y-99905209D01*
X65772544Y-100052182D01*
X65764927Y-100083087D01*
X65729203Y-100144441D01*
X65672743Y-100175269D01*
X65667660Y-100176522D01*
X65641841Y-100182886D01*
X65494869Y-100260022D01*
X65494862Y-100260027D01*
X65441746Y-100304295D01*
X65116132Y-100629910D01*
X65071863Y-100683027D01*
X64994727Y-100830001D01*
X64987109Y-100860905D01*
X64951383Y-100922258D01*
X64894929Y-100953085D01*
X64864025Y-100960703D01*
X64717052Y-101037839D01*
X64717045Y-101037844D01*
X64663929Y-101082112D01*
X64338315Y-101407727D01*
X64294046Y-101460844D01*
X64216911Y-101607815D01*
X64209293Y-101638722D01*
X64173569Y-101700076D01*
X64117111Y-101730904D01*
X64086206Y-101738521D01*
X63939231Y-101815659D01*
X63939227Y-101815662D01*
X63886111Y-101859930D01*
X63560497Y-102185545D01*
X63516230Y-102238660D01*
X63495915Y-102277368D01*
X63491950Y-102281464D01*
X63490345Y-102286934D01*
X63467531Y-102306702D01*
X63446546Y-102328390D01*
X63440998Y-102329692D01*
X63436689Y-102333427D01*
X63406805Y-102337723D01*
X63377430Y-102344623D01*
X63372058Y-102342719D01*
X63366415Y-102343531D01*
X63338961Y-102330993D01*
X63310510Y-102320912D01*
X63307018Y-102316404D01*
X63301835Y-102314037D01*
X63285521Y-102288652D01*
X63267033Y-102264785D01*
X63265721Y-102257844D01*
X63263451Y-102254311D01*
X63258347Y-102218813D01*
X63258347Y-102053350D01*
X63278349Y-101985229D01*
X63295252Y-101964255D01*
X63303600Y-101955907D01*
X63330525Y-101928982D01*
X63429949Y-101780183D01*
X63498434Y-101614847D01*
X63533347Y-101439326D01*
X63533347Y-101260368D01*
X63498434Y-101084847D01*
X63429949Y-100919511D01*
X63330525Y-100770712D01*
X63203982Y-100644169D01*
X63055183Y-100544745D01*
X62910631Y-100484869D01*
X62889850Y-100476261D01*
X62889848Y-100476260D01*
X62889847Y-100476260D01*
X62768215Y-100452066D01*
X62714328Y-100441347D01*
X62714326Y-100441347D01*
X62535368Y-100441347D01*
X62535365Y-100441347D01*
X62404618Y-100467354D01*
X62359847Y-100476260D01*
X62359846Y-100476260D01*
X62359843Y-100476261D01*
X62253173Y-100520446D01*
X62208712Y-100538863D01*
X62194509Y-100544746D01*
X62045716Y-100644166D01*
X62045709Y-100644171D01*
X61919171Y-100770709D01*
X61919166Y-100770716D01*
X61823773Y-100913483D01*
X61819745Y-100919511D01*
X61812446Y-100937132D01*
X61751261Y-101084843D01*
X61751260Y-101084846D01*
X61751260Y-101084847D01*
X61747823Y-101102126D01*
X61716347Y-101260365D01*
X61716347Y-101439328D01*
X61725077Y-101483214D01*
X61749861Y-101607816D01*
X61751261Y-101614850D01*
X61754885Y-101623598D01*
X61819745Y-101780183D01*
X61919169Y-101928982D01*
X61919171Y-101928984D01*
X61954442Y-101964255D01*
X61969386Y-101991623D01*
X61986243Y-102017852D01*
X61987148Y-102024150D01*
X61988468Y-102026567D01*
X61991347Y-102053350D01*
X61991347Y-102218176D01*
X61971345Y-102286297D01*
X61917689Y-102332790D01*
X61847415Y-102342894D01*
X61840775Y-102341757D01*
X61839486Y-102341500D01*
X61839479Y-102341500D01*
X61660521Y-102341500D01*
X61660518Y-102341500D01*
X61544514Y-102364575D01*
X61485000Y-102376413D01*
X61484999Y-102376413D01*
X61484996Y-102376414D01*
X61366200Y-102425622D01*
X61321992Y-102443934D01*
X61319662Y-102444899D01*
X61170869Y-102544319D01*
X61170862Y-102544324D01*
X61044324Y-102670862D01*
X61044319Y-102670869D01*
X60944899Y-102819662D01*
X60876414Y-102984996D01*
X60841500Y-103160518D01*
X60841500Y-103339481D01*
X60848459Y-103374464D01*
X60865354Y-103459404D01*
X60876414Y-103515003D01*
X60896473Y-103563429D01*
X60944898Y-103680336D01*
X61044322Y-103829135D01*
X61044324Y-103829137D01*
X61079595Y-103864408D01*
X61113621Y-103926720D01*
X61116500Y-103953503D01*
X61116500Y-104316278D01*
X61096498Y-104384399D01*
X61042842Y-104430892D01*
X60972568Y-104440996D01*
X60907988Y-104411502D01*
X60901414Y-104405383D01*
X58983540Y-102487930D01*
X58949508Y-102425622D01*
X58954566Y-102354805D01*
X58997106Y-102297965D01*
X59024844Y-102282237D01*
X59092177Y-102254647D01*
X59363514Y-102101692D01*
X59613775Y-101916250D01*
X59839090Y-101701185D01*
X60035976Y-101459824D01*
X60201389Y-101195896D01*
X60332773Y-100913483D01*
X60336091Y-100903164D01*
X60428096Y-100616954D01*
X60428100Y-100616938D01*
X60458716Y-100454788D01*
X60485888Y-100310877D01*
X60505251Y-100000000D01*
X60504308Y-99984866D01*
X60487580Y-99716290D01*
X60485888Y-99689123D01*
X60475359Y-99633359D01*
X60428100Y-99383061D01*
X60428096Y-99383045D01*
X60332776Y-99086524D01*
X60332773Y-99086517D01*
X60201395Y-98804116D01*
X60201391Y-98804109D01*
X60201389Y-98804104D01*
X60035976Y-98540176D01*
X59839090Y-98298815D01*
X59780914Y-98243286D01*
X59613775Y-98083750D01*
X59613764Y-98083741D01*
X59363518Y-97898310D01*
X59363515Y-97898308D01*
X59092175Y-97745352D01*
X58803958Y-97627251D01*
X58503304Y-97545826D01*
X58503296Y-97545825D01*
X58310485Y-97518640D01*
X58194878Y-97502340D01*
X58194885Y-97502340D01*
X57883437Y-97497462D01*
X57573797Y-97531269D01*
X57306155Y-97594828D01*
X57235256Y-97591106D01*
X57177624Y-97549644D01*
X57151557Y-97483606D01*
X57152010Y-97456657D01*
X57201498Y-97059645D01*
X64586772Y-97059645D01*
X64586772Y-97059647D01*
X65096954Y-97569829D01*
X65177862Y-97635736D01*
X65177863Y-97635737D01*
X65336211Y-97715263D01*
X65508633Y-97756128D01*
X65685824Y-97756128D01*
X65858245Y-97715263D01*
X66016593Y-97635737D01*
X66016594Y-97635736D01*
X66097502Y-97569829D01*
X66572329Y-97095003D01*
X66572329Y-97095001D01*
X65561874Y-96084546D01*
X65561872Y-96084546D01*
X64586772Y-97059645D01*
X57201498Y-97059645D01*
X57208911Y-97000178D01*
X57209947Y-96991869D01*
X57209947Y-96991868D01*
X57230019Y-96830841D01*
X57230769Y-96825687D01*
X57238966Y-96776564D01*
X57379593Y-95933832D01*
X57380546Y-95928776D01*
X57449193Y-95601384D01*
X63531081Y-95601384D01*
X63531081Y-95778576D01*
X63571945Y-95950997D01*
X63651471Y-96109345D01*
X63651472Y-96109346D01*
X63717379Y-96190254D01*
X64227561Y-96700436D01*
X64227563Y-96700436D01*
X65202662Y-95725336D01*
X65202662Y-95725334D01*
X65921083Y-95725334D01*
X65921083Y-95725337D01*
X66931538Y-96735792D01*
X66931540Y-96735792D01*
X67406366Y-96260965D01*
X67472273Y-96180057D01*
X67472274Y-96180056D01*
X67551800Y-96021708D01*
X67592665Y-95849287D01*
X67592665Y-95672095D01*
X67551800Y-95499674D01*
X67472274Y-95341326D01*
X67472273Y-95341325D01*
X67406366Y-95260417D01*
X66896184Y-94750235D01*
X66896182Y-94750235D01*
X65921083Y-95725334D01*
X65202662Y-95725334D01*
X64192208Y-94714880D01*
X64192206Y-94714880D01*
X63717379Y-95189706D01*
X63651472Y-95270614D01*
X63651471Y-95270615D01*
X63571945Y-95428963D01*
X63531081Y-95601384D01*
X57449193Y-95601384D01*
X57566088Y-95043882D01*
X57567261Y-95038816D01*
X57740258Y-94355669D01*
X64551417Y-94355669D01*
X64551417Y-94355671D01*
X65561871Y-95366125D01*
X65561873Y-95366125D01*
X66536973Y-94391025D01*
X66536973Y-94391024D01*
X66026791Y-93880842D01*
X65945883Y-93814935D01*
X65945882Y-93814934D01*
X65787534Y-93735408D01*
X65615113Y-93694544D01*
X65437922Y-93694544D01*
X65265500Y-93735408D01*
X65107152Y-93814934D01*
X65107151Y-93814935D01*
X65026243Y-93880842D01*
X64551417Y-94355669D01*
X57740258Y-94355669D01*
X57789217Y-94162334D01*
X57790576Y-94157398D01*
X58048568Y-93290811D01*
X58050155Y-93285861D01*
X58060843Y-93254728D01*
X58286686Y-92596871D01*
X60860686Y-92596871D01*
X60860686Y-92596873D01*
X61143490Y-92879677D01*
X61143498Y-92879684D01*
X61171945Y-92903982D01*
X61317627Y-92984070D01*
X61317634Y-92984073D01*
X61478650Y-93025416D01*
X61478659Y-93025418D01*
X61644906Y-93025418D01*
X61644913Y-93025416D01*
X61805929Y-92984073D01*
X61805932Y-92984072D01*
X61951392Y-92904105D01*
X61252423Y-92205136D01*
X61252421Y-92205136D01*
X60860686Y-92596871D01*
X58286686Y-92596871D01*
X58343742Y-92430672D01*
X58345501Y-92425875D01*
X58674177Y-91583552D01*
X58676141Y-91578808D01*
X58731132Y-91453442D01*
X60072931Y-91453442D01*
X60072931Y-91619690D01*
X60072932Y-91619698D01*
X60114275Y-91780714D01*
X60114278Y-91780721D01*
X60194365Y-91926403D01*
X60218657Y-91954844D01*
X60218684Y-91954873D01*
X60501474Y-92237663D01*
X60501476Y-92237663D01*
X60893212Y-91845927D01*
X60893212Y-91845925D01*
X60194243Y-91146956D01*
X60194241Y-91146956D01*
X60114278Y-91292413D01*
X60114274Y-91292422D01*
X60072932Y-91453435D01*
X60072931Y-91453442D01*
X58731132Y-91453442D01*
X59039352Y-90750770D01*
X59041507Y-90746122D01*
X59438629Y-89933796D01*
X59440969Y-89929251D01*
X59868022Y-89140125D01*
X59918036Y-89089735D01*
X59987352Y-89074383D01*
X60053965Y-89098944D01*
G37*
%TD.AperFunction*%
%TA.AperFunction,Conductor*%
G36*
X81123376Y-94750178D02*
G01*
X81123610Y-94750145D01*
X81124666Y-94750549D01*
X81157394Y-94759965D01*
X81166956Y-94764268D01*
X81195266Y-94783185D01*
X81360602Y-94851670D01*
X81361556Y-94851859D01*
X81369017Y-94855218D01*
X81394587Y-94877131D01*
X81420800Y-94898256D01*
X81421424Y-94900130D01*
X81422926Y-94901418D01*
X81439492Y-94948618D01*
X81441152Y-94948288D01*
X81442360Y-94954360D01*
X81477273Y-95129881D01*
X81545758Y-95295217D01*
X81645182Y-95444016D01*
X81771725Y-95570559D01*
X81920524Y-95669983D01*
X82018043Y-95710377D01*
X82073323Y-95754924D01*
X82093402Y-95802202D01*
X82113073Y-95901089D01*
X82181558Y-96066425D01*
X82280982Y-96215224D01*
X82280984Y-96215226D01*
X82381601Y-96315843D01*
X82415627Y-96378155D01*
X82410562Y-96448970D01*
X82368015Y-96505806D01*
X82301495Y-96530617D01*
X82252873Y-96524543D01*
X82100500Y-96474052D01*
X82100496Y-96474051D01*
X81996694Y-96463446D01*
X81325178Y-96463446D01*
X81325178Y-97892446D01*
X82704178Y-97892446D01*
X82704178Y-97170929D01*
X82693572Y-97067127D01*
X82693571Y-97067124D01*
X82637835Y-96898920D01*
X82544812Y-96748106D01*
X82544807Y-96748100D01*
X82460649Y-96663942D01*
X82426623Y-96601630D01*
X82431688Y-96530815D01*
X82474235Y-96473979D01*
X82540755Y-96449168D01*
X82597963Y-96458439D01*
X82721652Y-96509673D01*
X82721653Y-96509673D01*
X82721660Y-96509676D01*
X82897181Y-96544589D01*
X82897182Y-96544589D01*
X82979165Y-96544589D01*
X83047286Y-96564591D01*
X83093779Y-96618247D01*
X83102744Y-96646007D01*
X83126413Y-96765000D01*
X83194898Y-96930336D01*
X83294322Y-97079135D01*
X83420865Y-97205678D01*
X83569664Y-97305102D01*
X83735000Y-97373587D01*
X83910521Y-97408500D01*
X83910522Y-97408500D01*
X84089478Y-97408500D01*
X84089479Y-97408500D01*
X84265000Y-97373587D01*
X84280091Y-97367335D01*
X84300287Y-97365163D01*
X84319324Y-97358063D01*
X84334865Y-97361443D01*
X84350678Y-97359743D01*
X84368844Y-97368835D01*
X84388698Y-97373154D01*
X84411337Y-97390102D01*
X84414166Y-97391518D01*
X84417408Y-97394647D01*
X84500773Y-97478012D01*
X84534799Y-97540324D01*
X84537678Y-97567107D01*
X84537678Y-99121990D01*
X84548290Y-99225871D01*
X84580068Y-99321771D01*
X84604063Y-99394184D01*
X84630449Y-99436963D01*
X84665979Y-99494565D01*
X84684716Y-99563045D01*
X84663457Y-99630783D01*
X84608949Y-99676275D01*
X84598371Y-99680316D01*
X84453761Y-99728235D01*
X84305331Y-99819788D01*
X84305325Y-99819793D01*
X84297419Y-99827700D01*
X84235107Y-99861726D01*
X84164292Y-99856661D01*
X84119229Y-99827700D01*
X84111717Y-99820188D01*
X84111711Y-99820183D01*
X83963385Y-99728694D01*
X83797954Y-99673877D01*
X83797951Y-99673876D01*
X83695862Y-99663446D01*
X83600178Y-99663446D01*
X83600178Y-100520446D01*
X83580176Y-100588567D01*
X83526520Y-100635060D01*
X83474178Y-100646446D01*
X83346178Y-100646446D01*
X83346178Y-100774446D01*
X83326176Y-100842567D01*
X83272520Y-100889060D01*
X83220178Y-100900446D01*
X82300678Y-100900446D01*
X82300678Y-100933630D01*
X82311108Y-101035719D01*
X82311109Y-101035722D01*
X82365926Y-101201153D01*
X82457415Y-101349479D01*
X82457420Y-101349485D01*
X82580638Y-101472703D01*
X82580644Y-101472708D01*
X82728970Y-101564197D01*
X82894401Y-101619014D01*
X82894404Y-101619015D01*
X82939255Y-101623598D01*
X83004990Y-101650420D01*
X83045788Y-101708523D01*
X83048697Y-101779460D01*
X83012793Y-101840709D01*
X82949474Y-101872823D01*
X82926448Y-101874945D01*
X82307346Y-101874945D01*
X82239225Y-101854943D01*
X82218251Y-101838040D01*
X81333296Y-100953085D01*
X80424750Y-100044540D01*
X80390726Y-99982229D01*
X80395790Y-99911414D01*
X80438337Y-99854578D01*
X80504857Y-99829767D01*
X80513846Y-99829446D01*
X80817178Y-99829446D01*
X81325178Y-99829446D01*
X81996695Y-99829446D01*
X81996694Y-99829445D01*
X82100496Y-99818840D01*
X82100499Y-99818839D01*
X82268704Y-99763102D01*
X82314220Y-99735028D01*
X82382699Y-99716290D01*
X82450438Y-99737549D01*
X82495931Y-99792055D01*
X82504732Y-99862504D01*
X82474049Y-99926528D01*
X82469466Y-99931361D01*
X82457415Y-99943412D01*
X82365926Y-100091738D01*
X82311109Y-100257169D01*
X82311108Y-100257172D01*
X82300678Y-100359261D01*
X82300678Y-100392446D01*
X83092178Y-100392446D01*
X83092178Y-99663446D01*
X82996493Y-99663446D01*
X82894404Y-99673876D01*
X82894401Y-99673877D01*
X82728971Y-99728694D01*
X82685940Y-99755236D01*
X82617460Y-99773972D01*
X82549722Y-99752712D01*
X82504230Y-99698204D01*
X82495430Y-99627755D01*
X82526114Y-99563732D01*
X82530701Y-99558896D01*
X82544812Y-99544785D01*
X82637835Y-99393971D01*
X82693571Y-99225767D01*
X82693572Y-99225764D01*
X82704177Y-99121962D01*
X82704178Y-99121962D01*
X82704178Y-98400446D01*
X81325178Y-98400446D01*
X81325178Y-99829446D01*
X80817178Y-99829446D01*
X80817178Y-96704207D01*
X80837180Y-96636086D01*
X80838413Y-96634205D01*
X80843525Y-96626555D01*
X80907578Y-96530693D01*
X80955333Y-96415403D01*
X80979678Y-96293012D01*
X80979678Y-96168225D01*
X80979678Y-94874863D01*
X80989592Y-94841095D01*
X80999310Y-94807322D01*
X80999578Y-94807086D01*
X80999680Y-94806742D01*
X81026314Y-94783663D01*
X81052711Y-94760537D01*
X81053064Y-94760484D01*
X81053336Y-94760249D01*
X81088288Y-94755223D01*
X81122929Y-94750050D01*
X81123376Y-94750178D01*
G37*
%TD.AperFunction*%
%TA.AperFunction,Conductor*%
G36*
X72318329Y-83299948D02*
G01*
X72364822Y-83353604D01*
X72374926Y-83423878D01*
X72345432Y-83488458D01*
X72339303Y-83495042D01*
X71971777Y-83862567D01*
X73126483Y-85017273D01*
X74281187Y-86171978D01*
X74281189Y-86171978D01*
X74368543Y-86084624D01*
X74430855Y-86050598D01*
X74501670Y-86055663D01*
X74558506Y-86098210D01*
X74583317Y-86164730D01*
X74583638Y-86173719D01*
X74583638Y-86864712D01*
X74563636Y-86932833D01*
X74546733Y-86953807D01*
X73036189Y-88464350D01*
X73017097Y-88480020D01*
X72920863Y-88544322D01*
X72794320Y-88670866D01*
X72794319Y-88670868D01*
X72694899Y-88819661D01*
X72626414Y-88984995D01*
X72626413Y-88984998D01*
X72626413Y-88984999D01*
X72624443Y-88994904D01*
X72591500Y-89160517D01*
X72591500Y-89339480D01*
X72599425Y-89379319D01*
X72624026Y-89503000D01*
X72626414Y-89515002D01*
X72642495Y-89553823D01*
X72694898Y-89680335D01*
X72794322Y-89829134D01*
X72920865Y-89955677D01*
X73069664Y-90055101D01*
X73235000Y-90123586D01*
X73410521Y-90158499D01*
X73460406Y-90158499D01*
X73528527Y-90178501D01*
X73549501Y-90195404D01*
X74640000Y-91285903D01*
X74674026Y-91348215D01*
X74668961Y-91419030D01*
X74640001Y-91464093D01*
X74299501Y-91804595D01*
X74237189Y-91838620D01*
X74210405Y-91841500D01*
X74160518Y-91841500D01*
X74029771Y-91867507D01*
X73985000Y-91876413D01*
X73984999Y-91876413D01*
X73984996Y-91876414D01*
X73819662Y-91944899D01*
X73670869Y-92044319D01*
X73670862Y-92044324D01*
X73544324Y-92170862D01*
X73544319Y-92170869D01*
X73444899Y-92319662D01*
X73376414Y-92484996D01*
X73341500Y-92660518D01*
X73341500Y-92839481D01*
X73354330Y-92903982D01*
X73376413Y-93015000D01*
X73444898Y-93180336D01*
X73544322Y-93329135D01*
X73670865Y-93455678D01*
X73819664Y-93555102D01*
X73985000Y-93623587D01*
X74160521Y-93658500D01*
X74160522Y-93658500D01*
X74339478Y-93658500D01*
X74339479Y-93658500D01*
X74515000Y-93623587D01*
X74680336Y-93555102D01*
X74829135Y-93455678D01*
X74955678Y-93329135D01*
X75055102Y-93180336D01*
X75123587Y-93015000D01*
X75158500Y-92839479D01*
X75158500Y-92789594D01*
X75178502Y-92721473D01*
X75195405Y-92700499D01*
X75975501Y-91920403D01*
X76037813Y-91886377D01*
X76064587Y-91883498D01*
X77338447Y-91883498D01*
X77406568Y-91903500D01*
X77453061Y-91957156D01*
X77463165Y-92027430D01*
X77433671Y-92092010D01*
X77427542Y-92098593D01*
X75274219Y-94251917D01*
X75211907Y-94285942D01*
X75185124Y-94288822D01*
X73554499Y-94288822D01*
X73486378Y-94268820D01*
X73465404Y-94251918D01*
X73193079Y-93979594D01*
X73139996Y-93936352D01*
X73113460Y-93914735D01*
X72957619Y-93836468D01*
X72957620Y-93836468D01*
X72896707Y-93822032D01*
X72787930Y-93796252D01*
X72776739Y-93796252D01*
X72708618Y-93776250D01*
X72662125Y-93722594D01*
X72650739Y-93670252D01*
X72650739Y-93659620D01*
X72610548Y-93490045D01*
X72532333Y-93334306D01*
X72532332Y-93334304D01*
X72467508Y-93254728D01*
X72399861Y-93187081D01*
X72399860Y-93187081D01*
X71793868Y-93793072D01*
X71731556Y-93827097D01*
X71660740Y-93822032D01*
X71615678Y-93793071D01*
X71434659Y-93612052D01*
X71400633Y-93549740D01*
X71405698Y-93478925D01*
X71434659Y-93433861D01*
X72040650Y-92827870D01*
X71973002Y-92760222D01*
X71893426Y-92695398D01*
X71893424Y-92695397D01*
X71737685Y-92617182D01*
X71568110Y-92576992D01*
X71393838Y-92576992D01*
X71297662Y-92599785D01*
X71226765Y-92596031D01*
X71169152Y-92554543D01*
X71143115Y-92488493D01*
X71156013Y-92420624D01*
X71158519Y-92415636D01*
X71199410Y-92243103D01*
X71199410Y-92065792D01*
X71158519Y-91893258D01*
X71078941Y-91734807D01*
X71012990Y-91653848D01*
X69883977Y-90524836D01*
X69849954Y-90462526D01*
X69855018Y-90391711D01*
X69897565Y-90334875D01*
X69944017Y-90313139D01*
X70028783Y-90293049D01*
X70187131Y-90213523D01*
X70187132Y-90213522D01*
X70268035Y-90147619D01*
X70778222Y-89637432D01*
X70778222Y-89637431D01*
X69623517Y-88482727D01*
X69480815Y-88340025D01*
X69443910Y-88303120D01*
X70162332Y-88303120D01*
X70162332Y-88303122D01*
X71137431Y-89278222D01*
X71137432Y-89278222D01*
X71647619Y-88768035D01*
X71713522Y-88687132D01*
X71713523Y-88687131D01*
X71793049Y-88528783D01*
X71833914Y-88356362D01*
X71833914Y-88179170D01*
X71793049Y-88006749D01*
X71713523Y-87848401D01*
X71713522Y-87848400D01*
X71647615Y-87767492D01*
X71172789Y-87292666D01*
X71172787Y-87292666D01*
X70162332Y-88303120D01*
X69443910Y-88303120D01*
X68468812Y-87328021D01*
X68468811Y-87328021D01*
X67958624Y-87838208D01*
X67892721Y-87919111D01*
X67892720Y-87919112D01*
X67813194Y-88077460D01*
X67772330Y-88249881D01*
X67772330Y-88427074D01*
X67811557Y-88592587D01*
X67807803Y-88663484D01*
X67766316Y-88721097D01*
X67700266Y-88747135D01*
X67659896Y-88744248D01*
X67610053Y-88732435D01*
X67520257Y-88711153D01*
X67368146Y-88711153D01*
X67300025Y-88691151D01*
X67253532Y-88637495D01*
X67242146Y-88585153D01*
X67242146Y-88433043D01*
X67241783Y-88431512D01*
X67201929Y-88263353D01*
X67123663Y-88107512D01*
X67058800Y-88027888D01*
X66924643Y-87893731D01*
X66821836Y-87790924D01*
X66787810Y-87728612D01*
X66784931Y-87701829D01*
X66784931Y-86968811D01*
X68828021Y-86968811D01*
X69803121Y-87943911D01*
X69803123Y-87943911D01*
X70813578Y-86933456D01*
X70813578Y-86933455D01*
X70446665Y-86566542D01*
X71936422Y-86566542D01*
X71936422Y-86566545D01*
X72411248Y-87041371D01*
X72492156Y-87107278D01*
X72492157Y-87107279D01*
X72650505Y-87186805D01*
X72822927Y-87227670D01*
X73000118Y-87227670D01*
X73172539Y-87186805D01*
X73330887Y-87107279D01*
X73330888Y-87107278D01*
X73411791Y-87041375D01*
X73921978Y-86531188D01*
X73921978Y-86531187D01*
X72946878Y-85556088D01*
X72946876Y-85556088D01*
X71936422Y-86566542D01*
X70446665Y-86566542D01*
X70338751Y-86458628D01*
X70257843Y-86392721D01*
X70257842Y-86392720D01*
X70099494Y-86313194D01*
X69927073Y-86272330D01*
X69749882Y-86272330D01*
X69577460Y-86313194D01*
X69419112Y-86392720D01*
X69419111Y-86392721D01*
X69338208Y-86458624D01*
X68828021Y-86968811D01*
X66784931Y-86968811D01*
X66784931Y-86471131D01*
X66804933Y-86403010D01*
X66821836Y-86382036D01*
X68041750Y-85162122D01*
X68056809Y-85143637D01*
X70916086Y-85143637D01*
X70916086Y-85320829D01*
X70956950Y-85493250D01*
X71036476Y-85651598D01*
X71036477Y-85651599D01*
X71102384Y-85732507D01*
X71577211Y-86207334D01*
X71577213Y-86207334D01*
X72587667Y-85196879D01*
X72587667Y-85196876D01*
X71612568Y-84221777D01*
X71612567Y-84221777D01*
X71102380Y-84731964D01*
X71036477Y-84812867D01*
X71036476Y-84812868D01*
X70956950Y-84971216D01*
X70916086Y-85143637D01*
X68056809Y-85143637D01*
X68107702Y-85081163D01*
X68108411Y-85079752D01*
X68108413Y-85079748D01*
X68187277Y-84922718D01*
X68187277Y-84922717D01*
X68187280Y-84922712D01*
X68228171Y-84750178D01*
X68228171Y-84572867D01*
X68187280Y-84400334D01*
X68107702Y-84241882D01*
X68107697Y-84241876D01*
X68107695Y-84241872D01*
X68041751Y-84160923D01*
X67547994Y-83667166D01*
X67543585Y-83659093D01*
X67536221Y-83653580D01*
X67526837Y-83628422D01*
X67513968Y-83604854D01*
X67514624Y-83595677D01*
X67511410Y-83587059D01*
X67517117Y-83560824D01*
X67519033Y-83534039D01*
X67524945Y-83524838D01*
X67526502Y-83517685D01*
X67547994Y-83488975D01*
X67609335Y-83427635D01*
X67720120Y-83316850D01*
X67782432Y-83282825D01*
X67809215Y-83279946D01*
X69662983Y-83279946D01*
X71162983Y-83279946D01*
X72250208Y-83279946D01*
X72318329Y-83299948D01*
G37*
%TD.AperFunction*%
%TA.AperFunction,Conductor*%
G36*
X82475508Y-80585689D02*
G01*
X82496482Y-80602592D01*
X83110842Y-81216952D01*
X83144868Y-81279264D01*
X83139803Y-81350079D01*
X83110843Y-81395142D01*
X82534460Y-81971526D01*
X82534447Y-81971540D01*
X82496235Y-82018958D01*
X82496229Y-82018967D01*
X82435492Y-82151967D01*
X82435489Y-82151976D01*
X82425692Y-82220117D01*
X82396199Y-82284697D01*
X82390070Y-82291279D01*
X82133530Y-82547819D01*
X82071218Y-82581845D01*
X82000403Y-82576780D01*
X81943567Y-82534233D01*
X81918756Y-82467713D01*
X81918435Y-82458724D01*
X81918435Y-82329700D01*
X81918433Y-82329692D01*
X81877090Y-82168676D01*
X81877087Y-82168669D01*
X81797000Y-82022987D01*
X81772708Y-81994546D01*
X81772681Y-81994517D01*
X81542924Y-81764760D01*
X81542922Y-81764760D01*
X81060675Y-82247007D01*
X80998363Y-82281033D01*
X80927548Y-82275968D01*
X80882485Y-82247007D01*
X80701466Y-82065988D01*
X80667440Y-82003676D01*
X80672505Y-81932861D01*
X80701466Y-81887798D01*
X81183712Y-81405552D01*
X81183712Y-81405550D01*
X81102166Y-81324004D01*
X81068140Y-81261692D01*
X81073205Y-81190877D01*
X81115752Y-81134041D01*
X81182272Y-81109230D01*
X81209194Y-81110192D01*
X81231352Y-81113378D01*
X81231354Y-81113378D01*
X81231357Y-81113378D01*
X81376083Y-81092569D01*
X81376085Y-81092568D01*
X81376088Y-81092568D01*
X81492063Y-81039605D01*
X81509091Y-81031829D01*
X81509092Y-81031828D01*
X81509097Y-81031826D01*
X81556526Y-80993605D01*
X81947539Y-80602592D01*
X82009851Y-80568566D01*
X82036634Y-80565687D01*
X82407387Y-80565687D01*
X82475508Y-80585689D01*
G37*
%TD.AperFunction*%
%TD*%
M02*
