%TF.GenerationSoftware,KiCad,Pcbnew,8.0.5*%
%TF.CreationDate,2025-04-26T14:00:33+02:00*%
%TF.ProjectId,vlvts,766c7674-732e-46b6-9963-61645f706362,rev?*%
%TF.SameCoordinates,Original*%
%TF.FileFunction,Paste,Bot*%
%TF.FilePolarity,Positive*%
%FSLAX46Y46*%
G04 Gerber Fmt 4.6, Leading zero omitted, Abs format (unit mm)*
G04 Created by KiCad (PCBNEW 8.0.5) date 2025-04-26 14:00:33*
%MOMM*%
%LPD*%
G01*
G04 APERTURE LIST*
G04 Aperture macros list*
%AMRoundRect*
0 Rectangle with rounded corners*
0 $1 Rounding radius*
0 $2 $3 $4 $5 $6 $7 $8 $9 X,Y pos of 4 corners*
0 Add a 4 corners polygon primitive as box body*
4,1,4,$2,$3,$4,$5,$6,$7,$8,$9,$2,$3,0*
0 Add four circle primitives for the rounded corners*
1,1,$1+$1,$2,$3*
1,1,$1+$1,$4,$5*
1,1,$1+$1,$6,$7*
1,1,$1+$1,$8,$9*
0 Add four rect primitives between the rounded corners*
20,1,$1+$1,$2,$3,$4,$5,0*
20,1,$1+$1,$4,$5,$6,$7,0*
20,1,$1+$1,$6,$7,$8,$9,0*
20,1,$1+$1,$8,$9,$2,$3,0*%
%AMRotRect*
0 Rectangle, with rotation*
0 The origin of the aperture is its center*
0 $1 length*
0 $2 width*
0 $3 Rotation angle, in degrees counterclockwise*
0 Add horizontal line*
21,1,$1,$2,0,0,$3*%
G04 Aperture macros list end*
%ADD10RoundRect,0.250000X1.272792X0.035355X0.035355X1.272792X-1.272792X-0.035355X-0.035355X-1.272792X0*%
%ADD11RoundRect,0.150000X-0.521491X0.309359X0.309359X-0.521491X0.521491X-0.309359X-0.309359X0.521491X0*%
%ADD12RoundRect,0.250000X0.875000X0.925000X-0.875000X0.925000X-0.875000X-0.925000X0.875000X-0.925000X0*%
%ADD13RoundRect,0.250000X0.053033X-0.441942X0.441942X-0.053033X-0.053033X0.441942X-0.441942X0.053033X0*%
%ADD14RoundRect,0.250000X0.035355X-1.272792X1.272792X-0.035355X-0.035355X1.272792X-1.272792X0.035355X0*%
%ADD15RoundRect,0.237500X-0.344715X0.008839X0.008839X-0.344715X0.344715X-0.008839X-0.008839X0.344715X0*%
%ADD16RoundRect,0.250000X-0.035355X1.272792X-1.272792X0.035355X0.035355X-1.272792X1.272792X-0.035355X0*%
%ADD17RoundRect,0.175000X-0.707107X0.459619X0.459619X-0.707107X0.707107X-0.459619X-0.459619X0.707107X0*%
%ADD18RoundRect,0.175000X0.459619X0.707107X-0.707107X-0.459619X-0.459619X-0.707107X0.707107X0.459619X0*%
%ADD19RoundRect,0.175000X-0.353553X0.106066X0.106066X-0.353553X0.353553X-0.106066X-0.106066X0.353553X0*%
%ADD20RoundRect,0.150000X-0.468458X0.256326X0.256326X-0.468458X0.468458X-0.256326X-0.256326X0.468458X0*%
%ADD21RotRect,0.900000X1.200000X135.000000*%
%ADD22RotRect,0.900000X1.200000X315.000000*%
%ADD23RoundRect,0.237500X0.380070X-0.044194X-0.044194X0.380070X-0.380070X0.044194X0.044194X-0.380070X0*%
%ADD24RotRect,0.900000X1.200000X45.000000*%
%ADD25RoundRect,0.237500X0.300000X0.237500X-0.300000X0.237500X-0.300000X-0.237500X0.300000X-0.237500X0*%
%ADD26RoundRect,0.250000X-0.053033X0.441942X-0.441942X0.053033X0.053033X-0.441942X0.441942X-0.053033X0*%
%ADD27R,0.700000X0.340000*%
%ADD28RoundRect,0.250000X-0.450000X0.350000X-0.450000X-0.350000X0.450000X-0.350000X0.450000X0.350000X0*%
%ADD29RoundRect,0.150000X0.468458X-0.256326X-0.256326X0.468458X-0.468458X0.256326X0.256326X-0.468458X0*%
%ADD30RoundRect,0.250000X-1.272792X-0.035355X-0.035355X-1.272792X1.272792X0.035355X0.035355X1.272792X0*%
%ADD31RoundRect,0.250000X-0.441942X-0.053033X-0.053033X-0.441942X0.441942X0.053033X0.053033X0.441942X0*%
G04 APERTURE END LIST*
D10*
%TO.C,C2*%
X76775590Y-89082064D03*
X73169346Y-85475820D03*
%TD*%
D11*
%TO.C,U1*%
X61278762Y-91973484D03*
X62622265Y-90629981D03*
X63276339Y-92627558D03*
%TD*%
D12*
%TO.C,C8*%
X86171178Y-98146446D03*
X81071178Y-98146446D03*
%TD*%
D13*
%TO.C,L3*%
X78649424Y-87194092D03*
X80275770Y-85567746D03*
%TD*%
D14*
%TO.C,C6*%
X84018056Y-85699568D03*
X87624300Y-82093324D03*
%TD*%
D15*
%TO.C,R2*%
X62209530Y-95709530D03*
X63500000Y-97000000D03*
%TD*%
D16*
%TO.C,C3*%
X69168117Y-92119092D03*
X65561873Y-95725336D03*
%TD*%
D15*
%TO.C,R6*%
X66151431Y-88511398D03*
X67441901Y-89801868D03*
%TD*%
D17*
%TO.C,U6*%
X61678707Y-106200675D03*
X62456525Y-105422858D03*
X63234342Y-104645041D03*
X64012160Y-103867223D03*
X64789977Y-103089406D03*
X65567795Y-102311588D03*
X66345612Y-101533771D03*
X67123429Y-100755953D03*
X67901247Y-99978136D03*
X68679064Y-99200318D03*
X69456882Y-98422501D03*
X70234699Y-97644683D03*
X71012517Y-96866866D03*
D18*
X73664167Y-96690089D03*
X74441985Y-97467907D03*
X75219802Y-98245724D03*
X75997620Y-99023542D03*
X76775437Y-99801359D03*
X77553254Y-100579177D03*
X78331072Y-101356994D03*
X79108889Y-102134811D03*
X79886707Y-102912629D03*
X80664524Y-103690446D03*
X81442342Y-104468264D03*
D17*
X81265565Y-107119914D03*
X80487748Y-107897732D03*
X79709930Y-108675549D03*
X78932113Y-109453367D03*
X78154295Y-110231184D03*
X77376478Y-111009002D03*
X76598660Y-111786819D03*
X75820843Y-112564636D03*
X75043025Y-113342454D03*
X74265208Y-114120271D03*
X73487390Y-114898089D03*
X72709573Y-115675906D03*
X71931756Y-116453724D03*
D19*
X65355662Y-106766361D03*
X66133480Y-105988543D03*
X66911297Y-105210726D03*
X67689115Y-104432909D03*
X68466932Y-103655091D03*
X69244750Y-102877274D03*
X70022567Y-102099456D03*
X70800385Y-101321639D03*
X71578202Y-100543821D03*
X71366070Y-112776769D03*
X72143888Y-111998951D03*
X72921705Y-111221134D03*
X73699522Y-110443316D03*
X74477340Y-109665499D03*
X75255157Y-108887681D03*
X76032975Y-108109864D03*
X76810792Y-107332046D03*
X77588610Y-106554229D03*
%TD*%
D20*
%TO.C,U2*%
X93466124Y-104968457D03*
X94137875Y-104296706D03*
X94809626Y-103624955D03*
X96418294Y-105233623D03*
X95074792Y-106577125D03*
%TD*%
D21*
%TO.C,D42*%
X66113604Y-91363603D03*
X63780152Y-89030151D03*
%TD*%
D22*
%TO.C,D44*%
X80271529Y-81083272D03*
X82604981Y-83416724D03*
%TD*%
D23*
%TO.C,C9*%
X72744929Y-94922322D03*
X71525169Y-93702562D03*
%TD*%
D24*
%TO.C,D43*%
X93950395Y-110771847D03*
X96283847Y-108438395D03*
%TD*%
D25*
%TO.C,C7*%
X85071178Y-100646446D03*
X83346178Y-100646446D03*
%TD*%
D26*
%TO.C,L1*%
X62931624Y-87686649D03*
X61305278Y-89312995D03*
%TD*%
D16*
%TO.C,C5*%
X96082064Y-96949514D03*
X92475820Y-100555758D03*
%TD*%
D10*
%TO.C,C4*%
X92856244Y-108106242D03*
X89250000Y-104499998D03*
%TD*%
D27*
%TO.C,U4*%
X84728678Y-103008445D03*
X84728678Y-102508445D03*
X84728678Y-102008445D03*
X86228678Y-102008445D03*
X86228678Y-102508445D03*
X86228678Y-103008445D03*
%TD*%
D28*
%TO.C,R1*%
X85740677Y-104646446D03*
X85740677Y-106646446D03*
%TD*%
D29*
%TO.C,U3*%
X79757815Y-83446070D03*
X79086064Y-84117821D03*
X78414313Y-84789572D03*
X76805645Y-83180904D03*
X78149147Y-81837402D03*
%TD*%
D30*
%TO.C,C1*%
X65643756Y-84143756D03*
X69250000Y-87750000D03*
%TD*%
D31*
%TO.C,L2*%
X95304247Y-101624902D03*
X96930593Y-103251248D03*
%TD*%
M02*
