%TF.GenerationSoftware,KiCad,Pcbnew,9.0.5*%
%TF.CreationDate,2025-11-11T21:17:13+01:00*%
%TF.ProjectId,vlvts_top,766c7674-735f-4746-9f70-2e6b69636164,rev?*%
%TF.SameCoordinates,Original*%
%TF.FileFunction,Copper,L2,Bot*%
%TF.FilePolarity,Positive*%
%FSLAX46Y46*%
G04 Gerber Fmt 4.6, Leading zero omitted, Abs format (unit mm)*
G04 Created by KiCad (PCBNEW 9.0.5) date 2025-11-11 21:17:13*
%MOMM*%
%LPD*%
G01*
G04 APERTURE LIST*
G04 Aperture macros list*
%AMRoundRect*
0 Rectangle with rounded corners*
0 $1 Rounding radius*
0 $2 $3 $4 $5 $6 $7 $8 $9 X,Y pos of 4 corners*
0 Add a 4 corners polygon primitive as box body*
4,1,4,$2,$3,$4,$5,$6,$7,$8,$9,$2,$3,0*
0 Add four circle primitives for the rounded corners*
1,1,$1+$1,$2,$3*
1,1,$1+$1,$4,$5*
1,1,$1+$1,$6,$7*
1,1,$1+$1,$8,$9*
0 Add four rect primitives between the rounded corners*
20,1,$1+$1,$2,$3,$4,$5,0*
20,1,$1+$1,$4,$5,$6,$7,0*
20,1,$1+$1,$6,$7,$8,$9,0*
20,1,$1+$1,$8,$9,$2,$3,0*%
G04 Aperture macros list end*
%TA.AperFunction,SMDPad,CuDef*%
%ADD10RoundRect,0.237500X0.287500X0.237500X-0.287500X0.237500X-0.287500X-0.237500X0.287500X-0.237500X0*%
%TD*%
%TA.AperFunction,SMDPad,CuDef*%
%ADD11RoundRect,0.237500X-0.237500X0.287500X-0.237500X-0.287500X0.237500X-0.287500X0.237500X0.287500X0*%
%TD*%
%TA.AperFunction,SMDPad,CuDef*%
%ADD12RoundRect,0.237500X0.237500X-0.287500X0.237500X0.287500X-0.237500X0.287500X-0.237500X-0.287500X0*%
%TD*%
%TA.AperFunction,ViaPad*%
%ADD13C,0.800000*%
%TD*%
%TA.AperFunction,Conductor*%
%ADD14C,0.250000*%
%TD*%
G04 APERTURE END LIST*
D10*
%TO.P,D31,1,K*%
%TO.N,Net-(D15-K)*%
X98625000Y-103750000D03*
%TO.P,D31,2,A*%
%TO.N,Net-(D16-A)*%
X96875000Y-103750000D03*
%TD*%
D11*
%TO.P,D29,1,K*%
%TO.N,Net-(D13-K)*%
X76000000Y-90375000D03*
%TO.P,D29,2,A*%
%TO.N,Net-(D16-A)*%
X76000000Y-92125000D03*
%TD*%
D10*
%TO.P,D40,1,K*%
%TO.N,Net-(D24-K)*%
X67875000Y-112750000D03*
%TO.P,D40,2,A*%
%TO.N,Net-(D32-A)*%
X66125000Y-112750000D03*
%TD*%
%TO.P,D7,1,K*%
%TO.N,Net-(D23-K)*%
X76875000Y-94750000D03*
%TO.P,D7,2,A*%
%TO.N,Net-(D0-A)*%
X75125000Y-94750000D03*
%TD*%
%TO.P,D3,1,K*%
%TO.N,Net-(D19-K)*%
X84375000Y-100250000D03*
%TO.P,D3,2,A*%
%TO.N,Net-(D0-A)*%
X82625000Y-100250000D03*
%TD*%
%TO.P,D35,1,K*%
%TO.N,Net-(D19-K)*%
X62875000Y-104500000D03*
%TO.P,D35,2,A*%
%TO.N,Net-(D32-A)*%
X61125000Y-104500000D03*
%TD*%
%TO.P,D38,1,K*%
%TO.N,Net-(D22-K)*%
X92375000Y-112750000D03*
%TO.P,D38,2,A*%
%TO.N,Net-(D32-A)*%
X90625000Y-112750000D03*
%TD*%
%TO.P,D34,1,K*%
%TO.N,Net-(D18-K)*%
X63125000Y-98250000D03*
%TO.P,D34,2,A*%
%TO.N,Net-(D32-A)*%
X61375000Y-98250000D03*
%TD*%
%TO.P,D10,1,K*%
%TO.N,Net-(D10-K)*%
X76875000Y-100250000D03*
%TO.P,D10,2,A*%
%TO.N,Net-(D0-A)*%
X75125000Y-100250000D03*
%TD*%
D11*
%TO.P,D4,1,K*%
%TO.N,Net-(D20-K)*%
X86250000Y-101875000D03*
%TO.P,D4,2,A*%
%TO.N,Net-(D0-A)*%
X86250000Y-103625000D03*
%TD*%
D12*
%TO.P,D5,1,K*%
%TO.N,Net-(D21-K)*%
X80750000Y-103625000D03*
%TO.P,D5,2,A*%
%TO.N,Net-(D0-A)*%
X80750000Y-101875000D03*
%TD*%
D10*
%TO.P,D30,1,K*%
%TO.N,Net-(D14-K)*%
X65125000Y-91000000D03*
%TO.P,D30,2,A*%
%TO.N,Net-(D16-A)*%
X63375000Y-91000000D03*
%TD*%
%TO.P,D18,1,K*%
%TO.N,Net-(D18-K)*%
X85125000Y-79750000D03*
%TO.P,D18,2,A*%
%TO.N,Net-(D16-A)*%
X83375000Y-79750000D03*
%TD*%
%TO.P,D13,1,K*%
%TO.N,Net-(D13-K)*%
X76875000Y-105750000D03*
%TO.P,D13,2,A*%
%TO.N,Net-(D0-A)*%
X75125000Y-105750000D03*
%TD*%
D11*
%TO.P,D32,1,K*%
%TO.N,Net-(D0-K)*%
X90500000Y-96625000D03*
%TO.P,D32,2,A*%
%TO.N,Net-(D32-A)*%
X90500000Y-98375000D03*
%TD*%
D10*
%TO.P,D24,1,K*%
%TO.N,Net-(D24-K)*%
X80375000Y-85250000D03*
%TO.P,D24,2,A*%
%TO.N,Net-(D16-A)*%
X78625000Y-85250000D03*
%TD*%
D11*
%TO.P,D14,1,K*%
%TO.N,Net-(D14-K)*%
X69000000Y-96125000D03*
%TO.P,D14,2,A*%
%TO.N,Net-(D0-A)*%
X69000000Y-97875000D03*
%TD*%
D10*
%TO.P,D19,1,K*%
%TO.N,Net-(D19-K)*%
X79875000Y-79000000D03*
%TO.P,D19,2,A*%
%TO.N,Net-(D16-A)*%
X78125000Y-79000000D03*
%TD*%
%TO.P,D26,1,K*%
%TO.N,Net-(D10-K)*%
X96375000Y-90750000D03*
%TO.P,D26,2,A*%
%TO.N,Net-(D16-A)*%
X94625000Y-90750000D03*
%TD*%
D11*
%TO.P,D8,1,K*%
%TO.N,Net-(D24-K)*%
X78750000Y-96875000D03*
%TO.P,D8,2,A*%
%TO.N,Net-(D0-A)*%
X78750000Y-98625000D03*
%TD*%
%TO.P,D2,1,K*%
%TO.N,Net-(D18-K)*%
X80750000Y-96875000D03*
%TO.P,D2,2,A*%
%TO.N,Net-(D0-A)*%
X80750000Y-98625000D03*
%TD*%
D10*
%TO.P,D16,1,K*%
%TO.N,Net-(D0-K)*%
X94625000Y-85250000D03*
%TO.P,D16,2,A*%
%TO.N,Net-(D16-A)*%
X92875000Y-85250000D03*
%TD*%
%TO.P,D33,1,K*%
%TO.N,Net-(D1-K)*%
X91875000Y-104000000D03*
%TO.P,D33,2,A*%
%TO.N,Net-(D32-A)*%
X90125000Y-104000000D03*
%TD*%
%TO.P,D36,1,K*%
%TO.N,Net-(D20-K)*%
X83125000Y-110750000D03*
%TO.P,D36,2,A*%
%TO.N,Net-(D32-A)*%
X81375000Y-110750000D03*
%TD*%
%TO.P,D39,1,K*%
%TO.N,Net-(D23-K)*%
X80375000Y-118750000D03*
%TO.P,D39,2,A*%
%TO.N,Net-(D32-A)*%
X78625000Y-118750000D03*
%TD*%
%TO.P,D37,1,K*%
%TO.N,Net-(D21-K)*%
X76125000Y-111250000D03*
%TO.P,D37,2,A*%
%TO.N,Net-(D32-A)*%
X74375000Y-111250000D03*
%TD*%
D11*
%TO.P,D9,1,K*%
%TO.N,Net-(D25-K)*%
X73250000Y-96875000D03*
%TO.P,D9,2,A*%
%TO.N,Net-(D0-A)*%
X73250000Y-98625000D03*
%TD*%
%TO.P,D28,1,K*%
%TO.N,Net-(D12-K)*%
X81750000Y-90375000D03*
%TO.P,D28,2,A*%
%TO.N,Net-(D16-A)*%
X81750000Y-92125000D03*
%TD*%
D10*
%TO.P,D25,1,K*%
%TO.N,Net-(D25-K)*%
X73125000Y-86250000D03*
%TO.P,D25,2,A*%
%TO.N,Net-(D16-A)*%
X71375000Y-86250000D03*
%TD*%
D11*
%TO.P,D1,1,K*%
%TO.N,Net-(D1-K)*%
X86250000Y-96875000D03*
%TO.P,D1,2,A*%
%TO.N,Net-(D0-A)*%
X86250000Y-98625000D03*
%TD*%
D10*
%TO.P,D21,1,K*%
%TO.N,Net-(D21-K)*%
X69375000Y-81750000D03*
%TO.P,D21,2,A*%
%TO.N,Net-(D16-A)*%
X67625000Y-81750000D03*
%TD*%
%TO.P,D6,1,K*%
%TO.N,Net-(D22-K)*%
X84375000Y-105750000D03*
%TO.P,D6,2,A*%
%TO.N,Net-(D0-A)*%
X82625000Y-105750000D03*
%TD*%
D11*
%TO.P,D12,1,K*%
%TO.N,Net-(D12-K)*%
X73250000Y-101875000D03*
%TO.P,D12,2,A*%
%TO.N,Net-(D0-A)*%
X73250000Y-103625000D03*
%TD*%
D10*
%TO.P,D0,1,K*%
%TO.N,Net-(D0-K)*%
X84375000Y-94750000D03*
%TO.P,D0,2,A*%
%TO.N,Net-(D0-A)*%
X82625000Y-94750000D03*
%TD*%
D12*
%TO.P,D11,1,K*%
%TO.N,Net-(D11-K)*%
X78750000Y-103625000D03*
%TO.P,D11,2,A*%
%TO.N,Net-(D0-A)*%
X78750000Y-101875000D03*
%TD*%
D11*
%TO.P,D15,1,K*%
%TO.N,Net-(D15-K)*%
X69000000Y-103375000D03*
%TO.P,D15,2,A*%
%TO.N,Net-(D0-A)*%
X69000000Y-105125000D03*
%TD*%
D10*
%TO.P,D22,1,K*%
%TO.N,Net-(D22-K)*%
X65125000Y-85250000D03*
%TO.P,D22,2,A*%
%TO.N,Net-(D16-A)*%
X63375000Y-85250000D03*
%TD*%
%TO.P,D27,1,K*%
%TO.N,Net-(D11-K)*%
X97875000Y-96500000D03*
%TO.P,D27,2,A*%
%TO.N,Net-(D16-A)*%
X96125000Y-96500000D03*
%TD*%
%TO.P,D17,1,K*%
%TO.N,Net-(D1-K)*%
X90125000Y-81750000D03*
%TO.P,D17,2,A*%
%TO.N,Net-(D16-A)*%
X88375000Y-81750000D03*
%TD*%
%TO.P,D23,1,K*%
%TO.N,Net-(D23-K)*%
X88875000Y-88250000D03*
%TO.P,D23,2,A*%
%TO.N,Net-(D16-A)*%
X87125000Y-88250000D03*
%TD*%
%TO.P,D20,1,K*%
%TO.N,Net-(D20-K)*%
X74375000Y-79750000D03*
%TO.P,D20,2,A*%
%TO.N,Net-(D16-A)*%
X72625000Y-79750000D03*
%TD*%
D13*
%TO.N,Net-(D0-K)*%
X83430898Y-83819102D03*
X91250000Y-85000000D03*
X86487700Y-80762300D03*
%TO.N,Net-(D0-A)*%
X87611396Y-102023274D03*
%TO.N,Net-(D1-K)*%
X89328300Y-96772102D03*
X92024500Y-96750000D03*
X82000000Y-83250000D03*
%TO.N,Net-(D18-K)*%
X83272409Y-92700500D03*
X80750000Y-94149500D03*
X80762300Y-83237700D03*
X72078300Y-98599500D03*
X75233107Y-97500000D03*
%TO.N,Net-(D19-K)*%
X85750000Y-100250000D03*
X79296375Y-105196680D03*
X83274500Y-91700902D03*
X83350351Y-102980093D03*
%TO.N,Net-(D20-K)*%
X77900000Y-88125304D03*
X74751680Y-78991735D03*
X80578300Y-91977898D03*
X88250000Y-100250000D03*
X77237347Y-86737347D03*
%TO.N,Net-(D21-K)*%
X75751129Y-79025000D03*
X81889431Y-102225000D03*
X69375000Y-81750000D03*
X76000000Y-84725000D03*
%TO.N,Net-(D22-K)*%
X91500000Y-111250000D03*
X64275000Y-92225000D03*
X90914133Y-107927065D03*
%TO.N,Net-(D23-K)*%
X75225000Y-95900352D03*
X71256198Y-99450000D03*
X67275000Y-100500000D03*
X80250000Y-117250000D03*
%TO.N,Net-(D24-K)*%
X67012653Y-105512653D03*
X67000000Y-111250000D03*
X76000000Y-93725000D03*
X76070794Y-96953844D03*
X73602453Y-106699500D03*
%TO.N,Net-(D25-K)*%
X73250000Y-95254505D03*
%TO.N,Net-(D10-K)*%
X81500688Y-100505305D03*
X83650001Y-101227718D03*
X89425500Y-98472738D03*
X76000000Y-101150500D03*
X91500000Y-95275500D03*
%TO.N,Net-(D11-K)*%
X80025000Y-105920943D03*
X89973417Y-105377583D03*
X75175928Y-107274500D03*
%TO.N,Net-(D12-K)*%
X73750000Y-100250000D03*
X80449799Y-89800201D03*
%TO.N,Net-(D13-K)*%
X77357895Y-91091494D03*
X77499999Y-93000001D03*
X77500000Y-102599500D03*
%TO.N,Net-(D14-K)*%
X72538146Y-91461854D03*
%TO.N,Net-(D15-K)*%
X68000000Y-103500000D03*
X79549198Y-106800497D03*
X88981230Y-106102583D03*
%TO.N,Net-(D16-A)*%
X95000000Y-96500000D03*
%TO.N,Net-(D32-A)*%
X93000000Y-107201000D03*
X78750000Y-117250000D03*
X66750000Y-114000000D03*
X91500000Y-114250000D03*
X84564911Y-111655889D03*
X79000000Y-113000000D03*
X73500000Y-114000000D03*
%TO.N,BTN_L*%
X74723650Y-112323811D03*
X80000000Y-109500000D03*
%TO.N,LED_OE*%
X75693198Y-87832108D03*
X73487347Y-81987347D03*
%TO.N,GND*%
X96200000Y-88000000D03*
X78250000Y-92250001D03*
X76750000Y-79535700D03*
X96254839Y-85836730D03*
X77250000Y-85224500D03*
%TO.N,LEDg3*%
X95000000Y-98250000D03*
X96987347Y-105012653D03*
%TO.N,VDD*%
X91073223Y-105452083D03*
X97877000Y-102812944D03*
%TO.N,VEE*%
X80025000Y-95500000D03*
X78574000Y-95597696D03*
%TO.N,/BTN_TCH_L*%
X71500000Y-111000000D03*
%TO.N,/BTN_TCH_C*%
X84000000Y-118750000D03*
%TO.N,/BTN_TCH_R*%
X96500000Y-113500000D03*
%TO.N,CAP_CLK*%
X85099456Y-108432925D03*
X86000000Y-106965000D03*
%TO.N,CAP_IRQ*%
X85173383Y-103900000D03*
X84000000Y-108500000D03*
X87000000Y-94000000D03*
X83500000Y-97900000D03*
%TO.N,BTN_SG*%
X83500000Y-114000000D03*
%TD*%
D14*
%TO.N,Net-(D0-K)*%
X92812500Y-87062500D02*
X92937500Y-86937500D01*
X85804505Y-97750000D02*
X89375000Y-97750000D01*
X83430898Y-83819102D02*
X86487700Y-80762300D01*
X90500000Y-90000000D02*
X90500000Y-89375000D01*
X93687500Y-86187500D02*
X94625000Y-85250000D01*
X89375000Y-97750000D02*
X90500000Y-96625000D01*
X91250000Y-85250000D02*
X92937500Y-86937500D01*
X93062500Y-86812500D02*
X93687500Y-86187500D01*
X90500000Y-96625000D02*
X90500000Y-90000000D01*
X90500000Y-89375000D02*
X92812500Y-87062500D01*
X92937500Y-86937500D02*
X93062500Y-86812500D01*
X91250000Y-85250000D02*
X91250000Y-85000000D01*
X84375000Y-96320495D02*
X85804505Y-97750000D01*
X84375000Y-94750000D02*
X84375000Y-96320495D01*
%TO.N,Net-(D0-A)*%
X83237310Y-104500000D02*
X82625000Y-104500000D01*
X82625000Y-104500000D02*
X82625000Y-104625000D01*
X75125000Y-98750000D02*
X75000000Y-98625000D01*
X86250000Y-103625000D02*
X86250000Y-103384670D01*
X75125000Y-94750000D02*
X74500000Y-95375000D01*
X85625000Y-103000000D02*
X84737310Y-103000000D01*
X84737310Y-103000000D02*
X83237310Y-104500000D01*
X69000000Y-105125000D02*
X71750000Y-105125000D01*
X75000000Y-101875000D02*
X78750000Y-101875000D01*
X86250000Y-103384670D02*
X87611396Y-102023274D01*
X73250000Y-98625000D02*
X74500000Y-98625000D01*
X82625000Y-94750000D02*
X82625000Y-100250000D01*
X86250000Y-103625000D02*
X85625000Y-103000000D01*
X75125000Y-100250000D02*
X75125000Y-105750000D01*
X82625000Y-104625000D02*
X82625000Y-105750000D01*
X75125000Y-100250000D02*
X75125000Y-98750000D01*
X78750000Y-101875000D02*
X80750000Y-101875000D01*
X74500000Y-95375000D02*
X74500000Y-98625000D01*
X74500000Y-98625000D02*
X75000000Y-98625000D01*
X73250000Y-103625000D02*
X75000000Y-101875000D01*
X71750000Y-105125000D02*
X73250000Y-103625000D01*
X75000000Y-98625000D02*
X86250000Y-98625000D01*
X72500000Y-97875000D02*
X73250000Y-98625000D01*
X69000000Y-97875000D02*
X72500000Y-97875000D01*
X82625000Y-100250000D02*
X82625000Y-104500000D01*
%TO.N,Net-(D1-K)*%
X90125000Y-81750000D02*
X90050000Y-81825000D01*
X92024500Y-103850500D02*
X91875000Y-104000000D01*
X82000000Y-83250000D02*
X82000000Y-83839004D01*
X90050000Y-81825000D02*
X90050000Y-93075000D01*
X89225402Y-96875000D02*
X89328300Y-96772102D01*
X92024500Y-96750000D02*
X92024500Y-103850500D01*
X86275000Y-88114004D02*
X82000000Y-83839004D01*
X88300000Y-87450000D02*
X88025000Y-87725000D01*
X87700000Y-89050000D02*
X86550000Y-89050000D01*
X86275000Y-88775000D02*
X86275000Y-88114004D01*
X90050000Y-93075000D02*
X86250000Y-96875000D01*
X86250000Y-96875000D02*
X89225402Y-96875000D01*
X88025000Y-88725000D02*
X87700000Y-89050000D01*
X86550000Y-89050000D02*
X86275000Y-88775000D01*
X88025000Y-87725000D02*
X88025000Y-88725000D01*
X90050000Y-87450000D02*
X88300000Y-87450000D01*
%TO.N,Net-(D18-K)*%
X85125000Y-79750000D02*
X84325000Y-80550000D01*
X83875354Y-92125353D02*
X83999500Y-92001207D01*
X63600000Y-98725000D02*
X71952800Y-98725000D01*
X79900000Y-97725000D02*
X80750000Y-96875000D01*
X76074500Y-97725000D02*
X79900000Y-97725000D01*
X83999500Y-92001207D02*
X83999500Y-91025000D01*
X83999500Y-91025000D02*
X83724500Y-90750000D01*
X83300207Y-92700500D02*
X83875354Y-92125353D01*
X83450000Y-80550000D02*
X80762300Y-83237700D01*
X83724500Y-86199900D02*
X80762300Y-83237700D01*
X84325000Y-80550000D02*
X83450000Y-80550000D01*
X83272409Y-92700500D02*
X83300207Y-92700500D01*
X63125000Y-98250000D02*
X63600000Y-98725000D01*
X76074500Y-97725000D02*
X75458107Y-97725000D01*
X71952800Y-98725000D02*
X72078300Y-98599500D01*
X83299500Y-92700500D02*
X83272409Y-92700500D01*
X80750000Y-94149500D02*
X80750000Y-96875000D01*
X83724500Y-90750000D02*
X83724500Y-86199900D01*
X75458107Y-97725000D02*
X75233107Y-97500000D01*
%TO.N,Net-(D19-K)*%
X82500000Y-86000000D02*
X83274500Y-86774500D01*
X74604505Y-106550000D02*
X77751000Y-106550000D01*
X68554505Y-104250000D02*
X68200000Y-104604505D01*
X68200000Y-104604505D02*
X68200000Y-105700000D01*
X83274500Y-86774500D02*
X83274500Y-90750000D01*
X62875000Y-104500000D02*
X65000000Y-104500000D01*
X68200000Y-105700000D02*
X68475000Y-105975000D01*
X66975000Y-102525000D02*
X69525000Y-102525000D01*
X79200700Y-105100300D02*
X79200700Y-105101005D01*
X69800000Y-103950000D02*
X69500000Y-104250000D01*
X69500000Y-104250000D02*
X69250000Y-104250000D01*
X74029505Y-105975000D02*
X74604505Y-106550000D01*
X69525000Y-102525000D02*
X69800000Y-102800000D01*
X83350351Y-102649649D02*
X84375000Y-101625000D01*
X83350351Y-102980093D02*
X83350351Y-102649649D01*
X83274500Y-90750000D02*
X83274500Y-91700902D01*
X69800000Y-102800000D02*
X69800000Y-103950000D01*
X68475000Y-105975000D02*
X69004505Y-105975000D01*
X77751000Y-106550000D02*
X79200700Y-105100300D01*
X69004505Y-105975000D02*
X74029505Y-105975000D01*
X69250000Y-104250000D02*
X68554505Y-104250000D01*
X85750000Y-100250000D02*
X84375000Y-100250000D01*
X79200700Y-105101005D02*
X79296375Y-105196680D01*
X79875000Y-83375000D02*
X82500000Y-86000000D01*
X66500000Y-103000000D02*
X66975000Y-102525000D01*
X65000000Y-104500000D02*
X66500000Y-103000000D01*
X84375000Y-101625000D02*
X84375000Y-100250000D01*
X79875000Y-79000000D02*
X79875000Y-83375000D01*
%TO.N,Net-(D20-K)*%
X83125000Y-110750000D02*
X83807685Y-110750000D01*
X74751680Y-79373320D02*
X74375000Y-79750000D01*
X74751680Y-78991735D02*
X74751680Y-79373320D01*
X80578300Y-91977898D02*
X77900000Y-89299598D01*
X83807685Y-110750000D02*
X87050000Y-107507685D01*
X74375000Y-84126720D02*
X74375000Y-79750000D01*
X77237347Y-86737347D02*
X76985627Y-86737347D01*
X87875000Y-100250000D02*
X88250000Y-100250000D01*
X88500000Y-100500000D02*
X88250000Y-100250000D01*
X74375000Y-84126720D02*
X74375000Y-84000000D01*
X86250000Y-101875000D02*
X87875000Y-100250000D01*
X87050000Y-104153490D02*
X88500000Y-102703490D01*
X76985627Y-86737347D02*
X74375000Y-84126720D01*
X88500000Y-102703490D02*
X88500000Y-100500000D01*
X77900000Y-89299598D02*
X77900000Y-88125304D01*
X87050000Y-107507685D02*
X87050000Y-104153490D01*
%TO.N,Net-(D21-K)*%
X80750000Y-103625000D02*
X80750000Y-106625000D01*
X81824500Y-102550500D02*
X80750000Y-103625000D01*
X80750000Y-106625000D02*
X76125000Y-111250000D01*
X75751129Y-79025000D02*
X76000000Y-79273871D01*
X69763482Y-81750000D02*
X69375000Y-81750000D01*
X81824500Y-102000000D02*
X81824500Y-102550500D01*
X76000000Y-79273871D02*
X76000000Y-84725000D01*
%TO.N,Net-(D22-K)*%
X75225000Y-110725000D02*
X72101500Y-107601500D01*
X82604505Y-111550000D02*
X82250000Y-111195495D01*
X65125000Y-85250000D02*
X64275000Y-86100000D01*
X90883633Y-107957565D02*
X90914133Y-107927065D01*
X83645495Y-111550000D02*
X82604505Y-111550000D01*
X62000000Y-104953490D02*
X62000000Y-104054505D01*
X64275000Y-95779505D02*
X64275000Y-92225000D01*
X82437500Y-106687500D02*
X81323896Y-106687500D01*
X62000000Y-104054505D02*
X62275000Y-103779505D01*
X77255698Y-111439797D02*
X76645495Y-112050000D01*
X82437500Y-106687500D02*
X83437500Y-106687500D01*
X90507565Y-107950000D02*
X90515130Y-107957565D01*
X90507565Y-107950000D02*
X90512816Y-107944749D01*
X84375000Y-105750000D02*
X83437500Y-106687500D01*
X90515130Y-107957565D02*
X90883633Y-107957565D01*
X76645495Y-112050000D02*
X75550000Y-112050000D01*
X89000000Y-107950000D02*
X87245495Y-107950000D01*
X75550000Y-112050000D02*
X75225000Y-111725000D01*
X89975000Y-107950000D02*
X90507565Y-107950000D01*
X87245495Y-107950000D02*
X83645495Y-111550000D01*
X92375000Y-112125000D02*
X91500000Y-111250000D01*
X64275000Y-86100000D02*
X64275000Y-92225000D01*
X75225000Y-111725000D02*
X75225000Y-110725000D01*
X62275000Y-97779505D02*
X64275000Y-95779505D01*
X64648010Y-107601500D02*
X62000000Y-104953490D01*
X81323896Y-106687500D02*
X77255698Y-110755698D01*
X92375000Y-112750000D02*
X92375000Y-112125000D01*
X72101500Y-107601500D02*
X64648010Y-107601500D01*
X89000000Y-107950000D02*
X89975000Y-107950000D01*
X77255698Y-110755698D02*
X77255698Y-111439797D01*
X82250000Y-106875000D02*
X82437500Y-106687500D01*
X82250000Y-111195495D02*
X82250000Y-106875000D01*
X62275000Y-103779505D02*
X62275000Y-97779505D01*
%TO.N,Net-(D23-K)*%
X76396119Y-95500000D02*
X75995767Y-95900352D01*
X68325000Y-99450000D02*
X67275000Y-100500000D01*
X78250000Y-94750000D02*
X77500000Y-95500000D01*
X75995767Y-95900352D02*
X75225000Y-95900352D01*
X83961396Y-93425000D02*
X79575000Y-93425000D01*
X78250000Y-94750000D02*
X76875000Y-94750000D01*
X77500000Y-95500000D02*
X76396119Y-95500000D01*
X88875000Y-88511396D02*
X83961396Y-93425000D01*
X71256198Y-99450000D02*
X68325000Y-99450000D01*
X80375000Y-117375000D02*
X80250000Y-117250000D01*
X79575000Y-93425000D02*
X78250000Y-94750000D01*
X88875000Y-88250000D02*
X88875000Y-88511396D01*
X80375000Y-118750000D02*
X80375000Y-117375000D01*
%TO.N,Net-(D24-K)*%
X82550000Y-87425000D02*
X80375000Y-85250000D01*
X67875000Y-112750000D02*
X67875000Y-112125000D01*
X76000000Y-93725000D02*
X78637190Y-93725000D01*
X78637190Y-93725000D02*
X79387190Y-92975000D01*
X67875000Y-112125000D02*
X67000000Y-111250000D01*
X79387190Y-92975000D02*
X82220495Y-92975000D01*
X76149638Y-96875000D02*
X76070794Y-96953844D01*
X82220495Y-92975000D02*
X82550000Y-92645495D01*
X68199500Y-106699500D02*
X73602453Y-106699500D01*
X82550000Y-92645495D02*
X82550000Y-87425000D01*
X78750000Y-96875000D02*
X76149638Y-96875000D01*
X67012653Y-105512653D02*
X68199500Y-106699500D01*
%TO.N,Net-(D25-K)*%
X75529505Y-92975000D02*
X76470495Y-92975000D01*
X73250000Y-96875000D02*
X73250000Y-95254505D01*
X73250000Y-95254505D02*
X75529505Y-92975000D01*
X73125000Y-88820495D02*
X73125000Y-86250000D01*
X76800000Y-92645495D02*
X76800000Y-91554505D01*
X76470495Y-91225000D02*
X75529505Y-91225000D01*
X75529505Y-91225000D02*
X73125000Y-88820495D01*
X76470495Y-92975000D02*
X76800000Y-92645495D01*
X76800000Y-91554505D02*
X76470495Y-91225000D01*
%TO.N,Net-(D10-K)*%
X84902490Y-99449000D02*
X83847510Y-99449000D01*
X84953490Y-99500000D02*
X84902490Y-99449000D01*
X87500000Y-99500000D02*
X84953490Y-99500000D01*
X89425500Y-98472738D02*
X88527262Y-98472738D01*
X76000000Y-101125000D02*
X76875000Y-100250000D01*
X96375000Y-90750000D02*
X96025500Y-90750000D01*
X76000000Y-101150500D02*
X76000000Y-101125000D01*
X96025500Y-90750000D02*
X91500000Y-95275500D01*
X83524000Y-101101717D02*
X83650001Y-101227718D01*
X88527262Y-98472738D02*
X87500000Y-99500000D01*
X83847510Y-99449000D02*
X83524000Y-99772510D01*
X77130305Y-100505305D02*
X76875000Y-100250000D01*
X81500688Y-100505305D02*
X77130305Y-100505305D01*
X83524000Y-99772510D02*
X83524000Y-101101717D01*
%TO.N,Net-(D11-K)*%
X91300000Y-103204505D02*
X91300000Y-96200000D01*
X77975500Y-107274500D02*
X75175928Y-107274500D01*
X91300000Y-96200000D02*
X91500000Y-96000000D01*
X92750000Y-96000000D02*
X94050000Y-97300000D01*
X80025500Y-104900500D02*
X78750000Y-103625000D01*
X97075000Y-97300000D02*
X97875000Y-96500000D01*
X89973417Y-105377583D02*
X90122417Y-105377583D01*
X79329057Y-105920943D02*
X78500000Y-106750000D01*
X80025500Y-105920943D02*
X80025500Y-104900500D01*
X78500000Y-106750000D02*
X77975500Y-107274500D01*
X90975000Y-103529505D02*
X91300000Y-103204505D01*
X90975000Y-104525000D02*
X90975000Y-103529505D01*
X94050000Y-97300000D02*
X97075000Y-97300000D01*
X80025500Y-105920943D02*
X79329057Y-105920943D01*
X90122417Y-105377583D02*
X90975000Y-104525000D01*
X91500000Y-96000000D02*
X92750000Y-96000000D01*
%TO.N,Net-(D12-K)*%
X80449799Y-89800201D02*
X81175201Y-89800201D01*
X73250000Y-100750000D02*
X73750000Y-100250000D01*
X73250000Y-101875000D02*
X73250000Y-100750000D01*
X81175201Y-89800201D02*
X81750000Y-90375000D01*
%TO.N,Net-(D13-K)*%
X77357895Y-90857895D02*
X77357895Y-91091494D01*
X77357895Y-91091494D02*
X77357895Y-92857897D01*
X76000000Y-90375000D02*
X76875000Y-90375000D01*
X77500000Y-105125000D02*
X76875000Y-105750000D01*
X77500000Y-102599500D02*
X77500000Y-105125000D01*
X76875000Y-90375000D02*
X77357895Y-90857895D01*
X77357895Y-92857897D02*
X77499999Y-93000001D01*
%TO.N,Net-(D14-K)*%
X72538146Y-91461854D02*
X69125000Y-94875000D01*
X68312500Y-94187500D02*
X69000000Y-94875000D01*
X69000000Y-94875000D02*
X69000000Y-96125000D01*
X69125000Y-94875000D02*
X69000000Y-94875000D01*
X65125000Y-91000000D02*
X68312500Y-94187500D01*
%TO.N,Net-(D15-K)*%
X68000000Y-103500000D02*
X66275000Y-105225000D01*
X68000000Y-103500000D02*
X68875000Y-103500000D01*
X97774000Y-106476000D02*
X91297917Y-106476000D01*
X66275000Y-105225000D02*
X66275000Y-105801720D01*
X98625000Y-103750000D02*
X98625000Y-105625000D01*
X89056730Y-106178083D02*
X88981230Y-106102583D01*
X73461396Y-108250000D02*
X78100400Y-108250000D01*
X78100400Y-108250000D02*
X79550200Y-106800200D01*
X67623780Y-107150500D02*
X72361896Y-107150500D01*
X98625000Y-105625000D02*
X97774000Y-106476000D01*
X91000000Y-106178083D02*
X89056730Y-106178083D01*
X66275000Y-105801720D02*
X67623780Y-107150500D01*
X69000000Y-103375000D02*
X68793109Y-103375000D01*
X72361896Y-107150500D02*
X73461396Y-108250000D01*
X91297917Y-106476000D02*
X91000000Y-106178083D01*
X68875000Y-103500000D02*
X69000000Y-103375000D01*
%TO.N,Net-(D16-A)*%
X71375000Y-87875000D02*
X75500000Y-92000000D01*
X98725000Y-97275000D02*
X96875000Y-99125000D01*
X95475000Y-84725000D02*
X95475000Y-89900000D01*
X78625000Y-85250000D02*
X78625000Y-89000000D01*
X87125000Y-83000000D02*
X88375000Y-81750000D01*
X78625000Y-89000000D02*
X81750000Y-92125000D01*
X96875000Y-99125000D02*
X96875000Y-103750000D01*
X95000000Y-96500000D02*
X96125000Y-96500000D01*
X92875000Y-83125000D02*
X92875000Y-85250000D01*
X67625000Y-82500000D02*
X71375000Y-86250000D01*
X96925000Y-95700000D02*
X98450000Y-95700000D01*
X96125000Y-96500000D02*
X96925000Y-95700000D01*
X87125000Y-88250000D02*
X87125000Y-83000000D01*
X78125000Y-84750000D02*
X78625000Y-85250000D01*
X94625000Y-90750000D02*
X95425000Y-89950000D01*
X95475000Y-89900000D02*
X94625000Y-90750000D01*
X89175000Y-80950000D02*
X90700000Y-80950000D01*
X88375000Y-81750000D02*
X89175000Y-80950000D01*
X98450000Y-95700000D02*
X98725000Y-95975000D01*
X78125000Y-79000000D02*
X77390735Y-78265735D01*
X67625000Y-81750000D02*
X69625000Y-79750000D01*
X85700000Y-78950000D02*
X88375000Y-81625000D01*
X81825000Y-78200000D02*
X83375000Y-79750000D01*
X67625000Y-81750000D02*
X67625000Y-82500000D01*
X63375000Y-85250000D02*
X66875000Y-81750000D01*
X71375000Y-86250000D02*
X71375000Y-87875000D01*
X77390735Y-78265735D02*
X74109265Y-78265735D01*
X88375000Y-81625000D02*
X88375000Y-81750000D01*
X95425000Y-89950000D02*
X96895495Y-89950000D01*
X84175000Y-78950000D02*
X85700000Y-78950000D01*
X98725000Y-95975000D02*
X98725000Y-97275000D01*
X78125000Y-79000000D02*
X78925000Y-78200000D01*
X83375000Y-79750000D02*
X84175000Y-78950000D01*
X96895495Y-89950000D02*
X97250000Y-90304505D01*
X93675000Y-84450000D02*
X95200000Y-84450000D01*
X66875000Y-81750000D02*
X67625000Y-81750000D01*
X69625000Y-79750000D02*
X72625000Y-79750000D01*
X92875000Y-85250000D02*
X93675000Y-84450000D01*
X78125000Y-79000000D02*
X78125000Y-84750000D01*
X95200000Y-84450000D02*
X95475000Y-84725000D01*
X97250000Y-92750000D02*
X96125000Y-93875000D01*
X90700000Y-80950000D02*
X92875000Y-83125000D01*
X63375000Y-91000000D02*
X63375000Y-85250000D01*
X78925000Y-78200000D02*
X81825000Y-78200000D01*
X96125000Y-93875000D02*
X96125000Y-96500000D01*
X97250000Y-90304505D02*
X97250000Y-92750000D01*
X74109265Y-78265735D02*
X72625000Y-79750000D01*
%TO.N,Net-(D32-A)*%
X76536065Y-113601745D02*
X77137810Y-113000000D01*
X74375000Y-111250000D02*
X71177500Y-108052500D01*
X84564911Y-111655889D02*
X84564911Y-111268394D01*
X78625000Y-118750000D02*
X78625000Y-117375000D01*
X90125000Y-98750000D02*
X90125000Y-104000000D01*
X74703490Y-114000000D02*
X75101745Y-113601745D01*
X90000000Y-108401000D02*
X90252065Y-108653065D01*
X73500000Y-114000000D02*
X74703490Y-114000000D01*
X92726000Y-106927000D02*
X88778927Y-106927000D01*
X81375000Y-110750000D02*
X81375000Y-112875000D01*
X79000000Y-113000000D02*
X81500000Y-113000000D01*
X71177500Y-108052500D02*
X64461200Y-108052500D01*
X73500000Y-112125000D02*
X73500000Y-114000000D01*
X83220800Y-113000000D02*
X84564911Y-111655889D01*
X90625000Y-113375000D02*
X91500000Y-114250000D01*
X61125000Y-104716300D02*
X61125000Y-104500000D01*
X74375000Y-111250000D02*
X73500000Y-112125000D01*
X81500000Y-113000000D02*
X83220800Y-113000000D01*
X90000000Y-104000000D02*
X90125000Y-104000000D01*
X84564911Y-111268394D02*
X87432305Y-108401000D01*
X88255230Y-105744770D02*
X90000000Y-104000000D01*
X77137810Y-113000000D02*
X79000000Y-113000000D01*
X61375000Y-104250000D02*
X61125000Y-104500000D01*
X75101745Y-113601745D02*
X76536065Y-113601745D01*
X66125000Y-113375000D02*
X66750000Y-114000000D01*
X87432305Y-108401000D02*
X90000000Y-108401000D01*
X93000000Y-107201000D02*
X92726000Y-106927000D01*
X78625000Y-117375000D02*
X78750000Y-117250000D01*
X91547935Y-108653065D02*
X93000000Y-107201000D01*
X90252065Y-108653065D02*
X91547935Y-108653065D01*
X88255230Y-106403303D02*
X88255230Y-105744770D01*
X90625000Y-112750000D02*
X90625000Y-113375000D01*
X90500000Y-98375000D02*
X90125000Y-98750000D01*
X61375000Y-98250000D02*
X61375000Y-104250000D01*
X81375000Y-112875000D02*
X81500000Y-113000000D01*
X66125000Y-112750000D02*
X66125000Y-113375000D01*
X88778927Y-106927000D02*
X88255230Y-106403303D01*
X64461200Y-108052500D02*
X61125000Y-104716300D01*
X61125000Y-104875000D02*
X61125000Y-104500000D01*
%TO.N,BTN_L*%
X80000000Y-109500000D02*
X76999000Y-112501000D01*
X76999000Y-112501000D02*
X74900839Y-112501000D01*
X74900839Y-112501000D02*
X74723650Y-112323811D01*
%TO.N,LED_OE*%
X73487347Y-81987347D02*
X73487347Y-85238761D01*
X73487347Y-85238761D02*
X75693198Y-87444612D01*
X75693198Y-87444612D02*
X75693198Y-87832108D01*
%TO.N,BTN_R*%
X96587500Y-110000000D02*
X96500000Y-110087500D01*
%TO.N,GND*%
X77250000Y-80038200D02*
X77250000Y-85224500D01*
X78250000Y-92250001D02*
X78250000Y-90287408D01*
X77000000Y-89037408D02*
X77000000Y-88000000D01*
X96200000Y-88000000D02*
X96200000Y-85891569D01*
X96200000Y-85891569D02*
X96254839Y-85836730D01*
X78000000Y-87000000D02*
X78000000Y-85974500D01*
X77000000Y-88000000D02*
X78000000Y-87000000D01*
X78000000Y-85974500D02*
X77250000Y-85224500D01*
X78250000Y-90287408D02*
X77000000Y-89037408D01*
X76750000Y-79538200D02*
X77250000Y-80038200D01*
%TO.N,LEDg3*%
X95000000Y-103203490D02*
X96809163Y-105012653D01*
X96809163Y-105012653D02*
X96987347Y-105012653D01*
X95000000Y-98250000D02*
X95000000Y-103203490D01*
%TO.N,VDD*%
X97774000Y-105450694D02*
X97199694Y-106025000D01*
X91646140Y-106025000D02*
X91073223Y-105452083D01*
X97199694Y-106025000D02*
X91646140Y-106025000D01*
X97774000Y-102915944D02*
X97774000Y-105450694D01*
X97877000Y-102812944D02*
X97774000Y-102915944D01*
%TO.N,VEE*%
X80012347Y-95512653D02*
X80025000Y-95500000D01*
X80025000Y-95500000D02*
X78671696Y-95500000D01*
X78671696Y-95500000D02*
X78574000Y-95597696D01*
%TO.N,/BTN_TCH_L*%
X71500000Y-111000000D02*
X70500000Y-111000000D01*
%TO.N,/BTN_TCH_C*%
X84000000Y-118750000D02*
X83000000Y-118750000D01*
%TO.N,/BTN_TCH_R*%
X96500000Y-113500000D02*
X95000000Y-113500000D01*
X96500000Y-111912500D02*
X96087500Y-111912500D01*
%TO.N,CAP_CLK*%
X86000000Y-107532381D02*
X85099456Y-108432925D01*
X86000000Y-106965000D02*
X86000000Y-107532381D01*
X85070986Y-108404455D02*
X85099456Y-108432925D01*
%TO.N,CAP_IRQ*%
X85226000Y-107274000D02*
X85226000Y-103952617D01*
X86949000Y-93949000D02*
X83847510Y-93949000D01*
X85226000Y-103952617D02*
X85173383Y-103900000D01*
X87000000Y-94000000D02*
X86949000Y-93949000D01*
X83847510Y-93949000D02*
X83500000Y-94296510D01*
X84000000Y-108500000D02*
X85226000Y-107274000D01*
X83500000Y-94296510D02*
X83500000Y-97900000D01*
%TD*%
%TA.AperFunction,Conductor*%
%TO.N,/BTN_TCH_C*%
G36*
X83192121Y-115020002D02*
G01*
X83238614Y-115073658D01*
X83250000Y-115126000D01*
X83250000Y-122374000D01*
X83229998Y-122442121D01*
X83176342Y-122488614D01*
X83124000Y-122500000D01*
X80000500Y-122500000D01*
X80000500Y-122248000D01*
X80000500Y-121556429D01*
X80020502Y-121488308D01*
X80074158Y-121441815D01*
X80099410Y-121433376D01*
X80163801Y-121419203D01*
X80163812Y-121419199D01*
X80163816Y-121419199D01*
X80307300Y-121379361D01*
X80307309Y-121379358D01*
X80307335Y-121379351D01*
X80448501Y-121331786D01*
X80586885Y-121276649D01*
X80722081Y-121214101D01*
X80853693Y-121144325D01*
X80981334Y-121067526D01*
X81104629Y-120983929D01*
X81223219Y-120893780D01*
X81336753Y-120797343D01*
X81444900Y-120694900D01*
X81547343Y-120586753D01*
X81643780Y-120473219D01*
X81733929Y-120354629D01*
X81817526Y-120231334D01*
X81894325Y-120103693D01*
X81964101Y-119972081D01*
X82026649Y-119836885D01*
X82081786Y-119698501D01*
X82129351Y-119557335D01*
X82141024Y-119515295D01*
X82169199Y-119413816D01*
X82169199Y-119413814D01*
X82169203Y-119413801D01*
X82201226Y-119268320D01*
X82225325Y-119121318D01*
X82241431Y-118973227D01*
X82242103Y-118960831D01*
X82249496Y-118824493D01*
X82249496Y-118675506D01*
X82241431Y-118526773D01*
X82241430Y-118526766D01*
X82225328Y-118378710D01*
X82225325Y-118378682D01*
X82201226Y-118231680D01*
X82169203Y-118086199D01*
X82169199Y-118086183D01*
X82129361Y-117942699D01*
X82129349Y-117942660D01*
X82099479Y-117854008D01*
X82081786Y-117801499D01*
X82026649Y-117663115D01*
X81964101Y-117527919D01*
X81964095Y-117527907D01*
X81964091Y-117527899D01*
X81894323Y-117396303D01*
X81894321Y-117396300D01*
X81817518Y-117268653D01*
X81817517Y-117268652D01*
X81733935Y-117145379D01*
X81643781Y-117026782D01*
X81547342Y-116913245D01*
X81498972Y-116862183D01*
X81444900Y-116805100D01*
X81390826Y-116753878D01*
X81336754Y-116702657D01*
X81223217Y-116606218D01*
X81104620Y-116516064D01*
X80981347Y-116432482D01*
X80981346Y-116432481D01*
X80853699Y-116355678D01*
X80853696Y-116355676D01*
X80722100Y-116285908D01*
X80586874Y-116223346D01*
X80586859Y-116223340D01*
X80448528Y-116168224D01*
X80448505Y-116168215D01*
X80307339Y-116120650D01*
X80307300Y-116120638D01*
X80163815Y-116080800D01*
X80018327Y-116048775D01*
X80018311Y-116048772D01*
X79871327Y-116024676D01*
X79871289Y-116024671D01*
X79723233Y-116008569D01*
X79723226Y-116008568D01*
X79574493Y-116000504D01*
X79574482Y-116000504D01*
X79425518Y-116000504D01*
X79425507Y-116000504D01*
X79276773Y-116008568D01*
X79276766Y-116008569D01*
X79128710Y-116024671D01*
X79128672Y-116024676D01*
X78981688Y-116048772D01*
X78981672Y-116048775D01*
X78836185Y-116080800D01*
X78836183Y-116080800D01*
X78692699Y-116120638D01*
X78692660Y-116120650D01*
X78551494Y-116168215D01*
X78551471Y-116168224D01*
X78413140Y-116223340D01*
X78413125Y-116223346D01*
X78277899Y-116285908D01*
X78146303Y-116355676D01*
X78146300Y-116355678D01*
X78018653Y-116432481D01*
X78018652Y-116432482D01*
X77895379Y-116516064D01*
X77776782Y-116606218D01*
X77663245Y-116702657D01*
X77555100Y-116805100D01*
X77452657Y-116913245D01*
X77356218Y-117026782D01*
X77266064Y-117145379D01*
X77182482Y-117268652D01*
X77182481Y-117268653D01*
X77105678Y-117396300D01*
X77105676Y-117396303D01*
X77035908Y-117527899D01*
X76973346Y-117663125D01*
X76973340Y-117663140D01*
X76918224Y-117801471D01*
X76918215Y-117801494D01*
X76870650Y-117942660D01*
X76870638Y-117942699D01*
X76830800Y-118086183D01*
X76830800Y-118086185D01*
X76798775Y-118231672D01*
X76798772Y-118231688D01*
X76774676Y-118378672D01*
X76774671Y-118378710D01*
X76758569Y-118526766D01*
X76758568Y-118526773D01*
X76750503Y-118675516D01*
X76749999Y-118750000D01*
X76750503Y-118824483D01*
X76758568Y-118973226D01*
X76758569Y-118973233D01*
X76774671Y-119121289D01*
X76774676Y-119121327D01*
X76798772Y-119268311D01*
X76798775Y-119268327D01*
X76830800Y-119413814D01*
X76830800Y-119413816D01*
X76870638Y-119557300D01*
X76870650Y-119557339D01*
X76918215Y-119698505D01*
X76918224Y-119698528D01*
X76973340Y-119836859D01*
X76973346Y-119836874D01*
X77035908Y-119972100D01*
X77105676Y-120103696D01*
X77105678Y-120103699D01*
X77182481Y-120231346D01*
X77182482Y-120231347D01*
X77266064Y-120354620D01*
X77356218Y-120473217D01*
X77452657Y-120586754D01*
X77503878Y-120640826D01*
X77555100Y-120694900D01*
X77612183Y-120748972D01*
X77663245Y-120797342D01*
X77745127Y-120866893D01*
X77776781Y-120893780D01*
X77895371Y-120983929D01*
X77944210Y-121017042D01*
X77989367Y-121071824D01*
X77999500Y-121121330D01*
X77999500Y-122374000D01*
X77979498Y-122442121D01*
X77925842Y-122488614D01*
X77873500Y-122500000D01*
X75876000Y-122500000D01*
X75807879Y-122479998D01*
X75761386Y-122426342D01*
X75750000Y-122374000D01*
X75750000Y-115126000D01*
X75770002Y-115057879D01*
X75823658Y-115011386D01*
X75876000Y-115000000D01*
X83124000Y-115000000D01*
X83192121Y-115020002D01*
G37*
%TD.AperFunction*%
%TD*%
%TA.AperFunction,Conductor*%
%TO.N,/BTN_TCH_L*%
G36*
X70692121Y-109020002D02*
G01*
X70738614Y-109073658D01*
X70750000Y-109126000D01*
X70750000Y-116374000D01*
X70729998Y-116442121D01*
X70676342Y-116488614D01*
X70624000Y-116500000D01*
X63376000Y-116500000D01*
X63307879Y-116479998D01*
X63261386Y-116426342D01*
X63250000Y-116374000D01*
X63250000Y-112750000D01*
X64249999Y-112750000D01*
X64250503Y-112824483D01*
X64258568Y-112973226D01*
X64258569Y-112973233D01*
X64274671Y-113121289D01*
X64274676Y-113121327D01*
X64298772Y-113268311D01*
X64298775Y-113268327D01*
X64330800Y-113413814D01*
X64330800Y-113413816D01*
X64370638Y-113557300D01*
X64370650Y-113557339D01*
X64418215Y-113698505D01*
X64418224Y-113698528D01*
X64473340Y-113836859D01*
X64473346Y-113836874D01*
X64535908Y-113972100D01*
X64605676Y-114103696D01*
X64605678Y-114103699D01*
X64682481Y-114231346D01*
X64682482Y-114231347D01*
X64766064Y-114354620D01*
X64856218Y-114473217D01*
X64952657Y-114586754D01*
X65003878Y-114640826D01*
X65055100Y-114694900D01*
X65112183Y-114748972D01*
X65163245Y-114797342D01*
X65276782Y-114893781D01*
X65395379Y-114983935D01*
X65518652Y-115067517D01*
X65518653Y-115067518D01*
X65646300Y-115144321D01*
X65646303Y-115144323D01*
X65777899Y-115214091D01*
X65777907Y-115214095D01*
X65777919Y-115214101D01*
X65913115Y-115276649D01*
X66051499Y-115331786D01*
X66192665Y-115379351D01*
X66192680Y-115379355D01*
X66192699Y-115379361D01*
X66336184Y-115419199D01*
X66336186Y-115419199D01*
X66336199Y-115419203D01*
X66481680Y-115451226D01*
X66628682Y-115475325D01*
X66776773Y-115491431D01*
X66925507Y-115499496D01*
X66925518Y-115499496D01*
X67074493Y-115499496D01*
X67210831Y-115492103D01*
X67223227Y-115491431D01*
X67371318Y-115475325D01*
X67518320Y-115451226D01*
X67663801Y-115419203D01*
X67663815Y-115419199D01*
X67663816Y-115419199D01*
X67807300Y-115379361D01*
X67807309Y-115379358D01*
X67807335Y-115379351D01*
X67948501Y-115331786D01*
X68086885Y-115276649D01*
X68222081Y-115214101D01*
X68353693Y-115144325D01*
X68481334Y-115067526D01*
X68604629Y-114983929D01*
X68723219Y-114893780D01*
X68836753Y-114797343D01*
X68944900Y-114694900D01*
X69047343Y-114586753D01*
X69143780Y-114473219D01*
X69233929Y-114354629D01*
X69317526Y-114231334D01*
X69394325Y-114103693D01*
X69464101Y-113972081D01*
X69526649Y-113836885D01*
X69581786Y-113698501D01*
X69629351Y-113557335D01*
X69669203Y-113413801D01*
X69701226Y-113268320D01*
X69725325Y-113121318D01*
X69741431Y-112973227D01*
X69742103Y-112960831D01*
X69749496Y-112824493D01*
X69749496Y-112675506D01*
X69741431Y-112526773D01*
X69741430Y-112526766D01*
X69725328Y-112378710D01*
X69725325Y-112378682D01*
X69701226Y-112231680D01*
X69669203Y-112086199D01*
X69669199Y-112086183D01*
X69629361Y-111942699D01*
X69629349Y-111942660D01*
X69609416Y-111883500D01*
X69581786Y-111801499D01*
X69526649Y-111663115D01*
X69464101Y-111527919D01*
X69464095Y-111527907D01*
X69464091Y-111527899D01*
X69394323Y-111396303D01*
X69394321Y-111396300D01*
X69317518Y-111268653D01*
X69317517Y-111268652D01*
X69233935Y-111145379D01*
X69143781Y-111026782D01*
X69047342Y-110913245D01*
X68983801Y-110846167D01*
X68944900Y-110805100D01*
X68890826Y-110753878D01*
X68836754Y-110702657D01*
X68723217Y-110606218D01*
X68604620Y-110516064D01*
X68481347Y-110432482D01*
X68481346Y-110432481D01*
X68353699Y-110355678D01*
X68353696Y-110355676D01*
X68222100Y-110285908D01*
X68086874Y-110223346D01*
X68086859Y-110223340D01*
X67948528Y-110168224D01*
X67948505Y-110168215D01*
X67807339Y-110120650D01*
X67807300Y-110120638D01*
X67663815Y-110080800D01*
X67518327Y-110048775D01*
X67518311Y-110048772D01*
X67371327Y-110024676D01*
X67371289Y-110024671D01*
X67223233Y-110008569D01*
X67223226Y-110008568D01*
X67074493Y-110000504D01*
X67074482Y-110000504D01*
X66925518Y-110000504D01*
X66925507Y-110000504D01*
X66776773Y-110008568D01*
X66776766Y-110008569D01*
X66628710Y-110024671D01*
X66628672Y-110024676D01*
X66481688Y-110048772D01*
X66481672Y-110048775D01*
X66336185Y-110080800D01*
X66336183Y-110080800D01*
X66192699Y-110120638D01*
X66192660Y-110120650D01*
X66051494Y-110168215D01*
X66051471Y-110168224D01*
X65913140Y-110223340D01*
X65913125Y-110223346D01*
X65777899Y-110285908D01*
X65646303Y-110355676D01*
X65646300Y-110355678D01*
X65518653Y-110432481D01*
X65518652Y-110432482D01*
X65395379Y-110516064D01*
X65276782Y-110606218D01*
X65163245Y-110702657D01*
X65055100Y-110805100D01*
X64952657Y-110913245D01*
X64856218Y-111026782D01*
X64766064Y-111145379D01*
X64682482Y-111268652D01*
X64682481Y-111268653D01*
X64605678Y-111396300D01*
X64605676Y-111396303D01*
X64535908Y-111527899D01*
X64473346Y-111663125D01*
X64473340Y-111663140D01*
X64418224Y-111801471D01*
X64418215Y-111801494D01*
X64370650Y-111942660D01*
X64370638Y-111942699D01*
X64330800Y-112086183D01*
X64330800Y-112086185D01*
X64298775Y-112231672D01*
X64298772Y-112231688D01*
X64274676Y-112378672D01*
X64274671Y-112378710D01*
X64258569Y-112526766D01*
X64258568Y-112526773D01*
X64250503Y-112675516D01*
X64249999Y-112750000D01*
X63250000Y-112750000D01*
X63250000Y-109126000D01*
X63270002Y-109057879D01*
X63323658Y-109011386D01*
X63376000Y-109000000D01*
X70624000Y-109000000D01*
X70692121Y-109020002D01*
G37*
%TD.AperFunction*%
%TD*%
%TA.AperFunction,Conductor*%
%TO.N,BTN_SG*%
G36*
X71468703Y-109240053D02*
G01*
X71475181Y-109246085D01*
X73305181Y-111076085D01*
X73319884Y-111103012D01*
X73336477Y-111128831D01*
X73337368Y-111135031D01*
X73338666Y-111137408D01*
X73341500Y-111163766D01*
X73341500Y-111336233D01*
X73321815Y-111403272D01*
X73305180Y-111423914D01*
X73096167Y-111632929D01*
X73052047Y-111677049D01*
X73007927Y-111721168D01*
X72938603Y-111824918D01*
X72938598Y-111824927D01*
X72890845Y-111940214D01*
X72890843Y-111940222D01*
X72866500Y-112062601D01*
X72866500Y-113297324D01*
X72846815Y-113364363D01*
X72830181Y-113385005D01*
X72794324Y-113420861D01*
X72794321Y-113420865D01*
X72694901Y-113569657D01*
X72694896Y-113569667D01*
X72626413Y-113734999D01*
X72626411Y-113735007D01*
X72591500Y-113910516D01*
X72591500Y-114089483D01*
X72626411Y-114264992D01*
X72626413Y-114265000D01*
X72694896Y-114430332D01*
X72694901Y-114430342D01*
X72794321Y-114579134D01*
X72794324Y-114579138D01*
X72920861Y-114705675D01*
X72920865Y-114705678D01*
X73069657Y-114805098D01*
X73069661Y-114805100D01*
X73069664Y-114805102D01*
X73235000Y-114873587D01*
X73410516Y-114908499D01*
X73410520Y-114908500D01*
X73410521Y-114908500D01*
X73589480Y-114908500D01*
X73589481Y-114908499D01*
X73765000Y-114873587D01*
X73930336Y-114805102D01*
X74079135Y-114705678D01*
X74114993Y-114669820D01*
X74176315Y-114636334D01*
X74202675Y-114633500D01*
X74765885Y-114633500D01*
X74765886Y-114633499D01*
X74888275Y-114609155D01*
X75003565Y-114561400D01*
X75107323Y-114492071D01*
X75192950Y-114406444D01*
X75327831Y-114271564D01*
X75389154Y-114238079D01*
X75415512Y-114235245D01*
X76598460Y-114235245D01*
X76598461Y-114235244D01*
X76720850Y-114210900D01*
X76836140Y-114163145D01*
X76939898Y-114093816D01*
X76997396Y-114036317D01*
X77058717Y-114002834D01*
X77085076Y-114000000D01*
X82000000Y-114000000D01*
X82330181Y-113669819D01*
X82391504Y-113636334D01*
X82417862Y-113633500D01*
X83283195Y-113633500D01*
X83283196Y-113633499D01*
X83405585Y-113609155D01*
X83520875Y-113561400D01*
X83624633Y-113492071D01*
X84515996Y-112600708D01*
X84577319Y-112567223D01*
X84603677Y-112564389D01*
X84654391Y-112564389D01*
X84654392Y-112564388D01*
X84829911Y-112529476D01*
X84995247Y-112460991D01*
X85144046Y-112361567D01*
X85270589Y-112235024D01*
X85370013Y-112086225D01*
X85438498Y-111920889D01*
X85473411Y-111745368D01*
X85473411Y-111566410D01*
X85438498Y-111390889D01*
X85438493Y-111390878D01*
X85436757Y-111385151D01*
X85436132Y-111315284D01*
X85467736Y-111261472D01*
X86320708Y-110408500D01*
X87024820Y-109704387D01*
X87086142Y-109670904D01*
X87155834Y-109675888D01*
X87211767Y-109717760D01*
X87236184Y-109783224D01*
X87236500Y-109792070D01*
X87236500Y-116374002D01*
X87248234Y-116483150D01*
X87259620Y-116535492D01*
X87294288Y-116639653D01*
X87294289Y-116639655D01*
X87294290Y-116639657D01*
X87345758Y-116719743D01*
X87373310Y-116762615D01*
X87373313Y-116762618D01*
X87417614Y-116813745D01*
X87419400Y-116815922D01*
X87530256Y-116911979D01*
X87530259Y-116911980D01*
X87530261Y-116911982D01*
X87663210Y-116972698D01*
X87731331Y-116992700D01*
X87876000Y-117013500D01*
X94151924Y-117013500D01*
X94175555Y-117020438D01*
X94200028Y-117023211D01*
X94208489Y-117030109D01*
X94218963Y-117033185D01*
X94235089Y-117051796D01*
X94254181Y-117067361D01*
X94257569Y-117077739D01*
X94264718Y-117085989D01*
X94268223Y-117110365D01*
X94275868Y-117133779D01*
X94273108Y-117144340D01*
X94274662Y-117155147D01*
X94264430Y-117177551D01*
X94258204Y-117201379D01*
X94247619Y-117214361D01*
X94245637Y-117218703D01*
X94235902Y-117228734D01*
X94225969Y-117237877D01*
X94222132Y-117241265D01*
X93500621Y-117852353D01*
X93496642Y-117855584D01*
X92750502Y-118436329D01*
X92746393Y-118439393D01*
X91976870Y-118988821D01*
X91972639Y-118991713D01*
X91181061Y-119508877D01*
X91176713Y-119511591D01*
X90364446Y-119995597D01*
X90359990Y-119998129D01*
X89790319Y-120306420D01*
X89528405Y-120448161D01*
X89523889Y-120450485D01*
X88890799Y-120759984D01*
X88674429Y-120865761D01*
X88669779Y-120867916D01*
X87803869Y-121247740D01*
X87799134Y-121249701D01*
X86918292Y-121593406D01*
X86913480Y-121595170D01*
X86019188Y-121902181D01*
X86014307Y-121903745D01*
X85108083Y-122173539D01*
X85103141Y-122174900D01*
X84186530Y-122407018D01*
X84181537Y-122408173D01*
X83912947Y-122464490D01*
X83843294Y-122458982D01*
X83787677Y-122416691D01*
X83763753Y-122351045D01*
X83763500Y-122343129D01*
X83763500Y-119780350D01*
X83783185Y-119713311D01*
X83835989Y-119667556D01*
X83905147Y-119657612D01*
X83910075Y-119658456D01*
X83910519Y-119658500D01*
X83910521Y-119658500D01*
X84089480Y-119658500D01*
X84089481Y-119658499D01*
X84265000Y-119623587D01*
X84430336Y-119555102D01*
X84579135Y-119455678D01*
X84705678Y-119329135D01*
X84805102Y-119180336D01*
X84873587Y-119015000D01*
X84908500Y-118839479D01*
X84908500Y-118660521D01*
X84873587Y-118485000D01*
X84805102Y-118319664D01*
X84805100Y-118319661D01*
X84805098Y-118319657D01*
X84705678Y-118170865D01*
X84705675Y-118170861D01*
X84579138Y-118044324D01*
X84579134Y-118044321D01*
X84430342Y-117944901D01*
X84430332Y-117944896D01*
X84265000Y-117876413D01*
X84264992Y-117876411D01*
X84089483Y-117841500D01*
X84089479Y-117841500D01*
X83910521Y-117841500D01*
X83910520Y-117841500D01*
X83904458Y-117842097D01*
X83904311Y-117840610D01*
X83842082Y-117835032D01*
X83786911Y-117792160D01*
X83763677Y-117726267D01*
X83763500Y-117719649D01*
X83763500Y-115126000D01*
X83763500Y-115125999D01*
X83751766Y-115016851D01*
X83740380Y-114964509D01*
X83705710Y-114860343D01*
X83626692Y-114737388D01*
X83582381Y-114686251D01*
X83580595Y-114684074D01*
X83469743Y-114588020D01*
X83469737Y-114588017D01*
X83336792Y-114527303D01*
X83336790Y-114527302D01*
X83288914Y-114513244D01*
X83268673Y-114507301D01*
X83268661Y-114507298D01*
X83124000Y-114486500D01*
X75876000Y-114486500D01*
X75875997Y-114486500D01*
X75766849Y-114498234D01*
X75714507Y-114509620D01*
X75610346Y-114544288D01*
X75610343Y-114544290D01*
X75487388Y-114623308D01*
X75487387Y-114623309D01*
X75436254Y-114667615D01*
X75434077Y-114669400D01*
X75338020Y-114780256D01*
X75338017Y-114780262D01*
X75277303Y-114913207D01*
X75257301Y-114981326D01*
X75257298Y-114981338D01*
X75236500Y-115125999D01*
X75236500Y-122374002D01*
X75240736Y-122413408D01*
X75248234Y-122483149D01*
X75255241Y-122515360D01*
X75250255Y-122585052D01*
X75208382Y-122640985D01*
X75142918Y-122665400D01*
X75113664Y-122664025D01*
X74748896Y-122603156D01*
X74743859Y-122602208D01*
X73818457Y-122408172D01*
X73813464Y-122407017D01*
X72896858Y-122174900D01*
X72891916Y-122173539D01*
X71985692Y-121903745D01*
X71980811Y-121902181D01*
X71086519Y-121595170D01*
X71081707Y-121593406D01*
X70407264Y-121330238D01*
X70200854Y-121249696D01*
X70196142Y-121247744D01*
X69959690Y-121144027D01*
X69330220Y-120867916D01*
X69325570Y-120865761D01*
X68476091Y-120450475D01*
X68471614Y-120448171D01*
X67640009Y-119998129D01*
X67635553Y-119995597D01*
X66823286Y-119511591D01*
X66818938Y-119508877D01*
X66027360Y-118991713D01*
X66023129Y-118988821D01*
X65253606Y-118439393D01*
X65249517Y-118436344D01*
X64908424Y-118170861D01*
X64503357Y-117855584D01*
X64499378Y-117852353D01*
X63777867Y-117241265D01*
X63774025Y-117237873D01*
X63764093Y-117228730D01*
X63728103Y-117168843D01*
X63730203Y-117099005D01*
X63769727Y-117041389D01*
X63834126Y-117014287D01*
X63848076Y-117013500D01*
X70624000Y-117013500D01*
X70733149Y-117001766D01*
X70785491Y-116990380D01*
X70889657Y-116955710D01*
X71012612Y-116876692D01*
X71063745Y-116832385D01*
X71065925Y-116830595D01*
X71066268Y-116830198D01*
X71066270Y-116830198D01*
X71161982Y-116719739D01*
X71222698Y-116586790D01*
X71242700Y-116518669D01*
X71263500Y-116374000D01*
X71263500Y-112030350D01*
X71283185Y-111963311D01*
X71335989Y-111917556D01*
X71405147Y-111907612D01*
X71410075Y-111908456D01*
X71410519Y-111908500D01*
X71410521Y-111908500D01*
X71589480Y-111908500D01*
X71589481Y-111908499D01*
X71765000Y-111873587D01*
X71930336Y-111805102D01*
X72079135Y-111705678D01*
X72205678Y-111579135D01*
X72305102Y-111430336D01*
X72373587Y-111265000D01*
X72408500Y-111089479D01*
X72408500Y-110910521D01*
X72373587Y-110735000D01*
X72305102Y-110569664D01*
X72305100Y-110569661D01*
X72305098Y-110569657D01*
X72205678Y-110420865D01*
X72205675Y-110420861D01*
X72079138Y-110294324D01*
X72079134Y-110294321D01*
X71930342Y-110194901D01*
X71930332Y-110194896D01*
X71765000Y-110126413D01*
X71764992Y-110126411D01*
X71589483Y-110091500D01*
X71589479Y-110091500D01*
X71410521Y-110091500D01*
X71410520Y-110091500D01*
X71404458Y-110092097D01*
X71404311Y-110090610D01*
X71342082Y-110085032D01*
X71286911Y-110042160D01*
X71263677Y-109976267D01*
X71263500Y-109969649D01*
X71263500Y-109333766D01*
X71283185Y-109266727D01*
X71335989Y-109220972D01*
X71405147Y-109211028D01*
X71468703Y-109240053D01*
G37*
%TD.AperFunction*%
%TD*%
%TA.AperFunction,Conductor*%
%TO.N,/BTN_TCH_R*%
G36*
X95192121Y-109020002D02*
G01*
X95238614Y-109073658D01*
X95250000Y-109126000D01*
X95250000Y-116217068D01*
X95241216Y-116246983D01*
X95234588Y-116277453D01*
X95230773Y-116282548D01*
X95229998Y-116285189D01*
X95213095Y-116306163D01*
X95056163Y-116463095D01*
X94993851Y-116497121D01*
X94967068Y-116500000D01*
X87876000Y-116500000D01*
X87807879Y-116479998D01*
X87761386Y-116426342D01*
X87750000Y-116374000D01*
X87750000Y-112750000D01*
X88749999Y-112750000D01*
X88750503Y-112824483D01*
X88758568Y-112973226D01*
X88758569Y-112973233D01*
X88774671Y-113121289D01*
X88774676Y-113121327D01*
X88798772Y-113268311D01*
X88798775Y-113268327D01*
X88830800Y-113413814D01*
X88830800Y-113413816D01*
X88870638Y-113557300D01*
X88870650Y-113557339D01*
X88918215Y-113698505D01*
X88918224Y-113698528D01*
X88973340Y-113836859D01*
X88973346Y-113836874D01*
X89035908Y-113972100D01*
X89105676Y-114103696D01*
X89105678Y-114103699D01*
X89182481Y-114231346D01*
X89182482Y-114231347D01*
X89266064Y-114354620D01*
X89356218Y-114473217D01*
X89452657Y-114586754D01*
X89503878Y-114640826D01*
X89555100Y-114694900D01*
X89612183Y-114748972D01*
X89663245Y-114797342D01*
X89776782Y-114893781D01*
X89895379Y-114983935D01*
X90018652Y-115067517D01*
X90018653Y-115067518D01*
X90146300Y-115144321D01*
X90146303Y-115144323D01*
X90277899Y-115214091D01*
X90277907Y-115214095D01*
X90277919Y-115214101D01*
X90413115Y-115276649D01*
X90551499Y-115331786D01*
X90692665Y-115379351D01*
X90692680Y-115379355D01*
X90692699Y-115379361D01*
X90836184Y-115419199D01*
X90836186Y-115419199D01*
X90836199Y-115419203D01*
X90981680Y-115451226D01*
X91128682Y-115475325D01*
X91276773Y-115491431D01*
X91425507Y-115499496D01*
X91425518Y-115499496D01*
X91574493Y-115499496D01*
X91710831Y-115492103D01*
X91723227Y-115491431D01*
X91871318Y-115475325D01*
X92018320Y-115451226D01*
X92163801Y-115419203D01*
X92163815Y-115419199D01*
X92163816Y-115419199D01*
X92307300Y-115379361D01*
X92307309Y-115379358D01*
X92307335Y-115379351D01*
X92448501Y-115331786D01*
X92586885Y-115276649D01*
X92722081Y-115214101D01*
X92853693Y-115144325D01*
X92981334Y-115067526D01*
X93104629Y-114983929D01*
X93223219Y-114893780D01*
X93336753Y-114797343D01*
X93444900Y-114694900D01*
X93547343Y-114586753D01*
X93643780Y-114473219D01*
X93733929Y-114354629D01*
X93817526Y-114231334D01*
X93894325Y-114103693D01*
X93964101Y-113972081D01*
X94026649Y-113836885D01*
X94081786Y-113698501D01*
X94129351Y-113557335D01*
X94169203Y-113413801D01*
X94201226Y-113268320D01*
X94225325Y-113121318D01*
X94241431Y-112973227D01*
X94242103Y-112960831D01*
X94249496Y-112824493D01*
X94249496Y-112675506D01*
X94241431Y-112526773D01*
X94241430Y-112526766D01*
X94225328Y-112378710D01*
X94225325Y-112378682D01*
X94201226Y-112231680D01*
X94169203Y-112086199D01*
X94132452Y-111953833D01*
X94129361Y-111942699D01*
X94129349Y-111942660D01*
X94107411Y-111877549D01*
X94081786Y-111801499D01*
X94026649Y-111663115D01*
X93964101Y-111527919D01*
X93964095Y-111527907D01*
X93964091Y-111527899D01*
X93894323Y-111396303D01*
X93894321Y-111396300D01*
X93817518Y-111268653D01*
X93817517Y-111268652D01*
X93733935Y-111145379D01*
X93643781Y-111026782D01*
X93547342Y-110913245D01*
X93498972Y-110862183D01*
X93444900Y-110805100D01*
X93390826Y-110753878D01*
X93336754Y-110702657D01*
X93223217Y-110606218D01*
X93104620Y-110516064D01*
X92981347Y-110432482D01*
X92981346Y-110432481D01*
X92853699Y-110355678D01*
X92853696Y-110355676D01*
X92722100Y-110285908D01*
X92586874Y-110223346D01*
X92586859Y-110223340D01*
X92448528Y-110168224D01*
X92448505Y-110168215D01*
X92307339Y-110120650D01*
X92307300Y-110120638D01*
X92163815Y-110080800D01*
X92018327Y-110048775D01*
X92018311Y-110048772D01*
X91871327Y-110024676D01*
X91871289Y-110024671D01*
X91723233Y-110008569D01*
X91723226Y-110008568D01*
X91574493Y-110000504D01*
X91574482Y-110000504D01*
X91425518Y-110000504D01*
X91425507Y-110000504D01*
X91276773Y-110008568D01*
X91276766Y-110008569D01*
X91128710Y-110024671D01*
X91128672Y-110024676D01*
X90981688Y-110048772D01*
X90981672Y-110048775D01*
X90836185Y-110080800D01*
X90836183Y-110080800D01*
X90692699Y-110120638D01*
X90692660Y-110120650D01*
X90551494Y-110168215D01*
X90551471Y-110168224D01*
X90413140Y-110223340D01*
X90413125Y-110223346D01*
X90277899Y-110285908D01*
X90146303Y-110355676D01*
X90146300Y-110355678D01*
X90018653Y-110432481D01*
X90018652Y-110432482D01*
X89895379Y-110516064D01*
X89776782Y-110606218D01*
X89663245Y-110702657D01*
X89555100Y-110805100D01*
X89452657Y-110913245D01*
X89356218Y-111026782D01*
X89266064Y-111145379D01*
X89182482Y-111268652D01*
X89182481Y-111268653D01*
X89105678Y-111396300D01*
X89105676Y-111396303D01*
X89035908Y-111527899D01*
X88973346Y-111663125D01*
X88973340Y-111663140D01*
X88918224Y-111801471D01*
X88918215Y-111801494D01*
X88870650Y-111942660D01*
X88870638Y-111942699D01*
X88830800Y-112086183D01*
X88830800Y-112086185D01*
X88798775Y-112231672D01*
X88798772Y-112231688D01*
X88774676Y-112378672D01*
X88774671Y-112378710D01*
X88758569Y-112526766D01*
X88758568Y-112526773D01*
X88750503Y-112675516D01*
X88749999Y-112750000D01*
X87750000Y-112750000D01*
X87750000Y-109160500D01*
X87770002Y-109092379D01*
X87823658Y-109045886D01*
X87876000Y-109034500D01*
X89685405Y-109034500D01*
X89753526Y-109054502D01*
X89774500Y-109071405D01*
X89848232Y-109145137D01*
X89951990Y-109214466D01*
X90033512Y-109248233D01*
X90067280Y-109262220D01*
X90189671Y-109286565D01*
X90189672Y-109286565D01*
X91610328Y-109286565D01*
X91610329Y-109286565D01*
X91732720Y-109262220D01*
X91848010Y-109214465D01*
X91951768Y-109145136D01*
X92059999Y-109036905D01*
X92122311Y-109002879D01*
X92149094Y-109000000D01*
X95124000Y-109000000D01*
X95192121Y-109020002D01*
G37*
%TD.AperFunction*%
%TD*%
M02*
