%TF.GenerationSoftware,KiCad,Pcbnew,8.0.5*%
%TF.CreationDate,2025-04-26T14:04:23+02:00*%
%TF.ProjectId,vlvts_top,766c7674-735f-4746-9f70-2e6b69636164,rev?*%
%TF.SameCoordinates,Original*%
%TF.FileFunction,Copper,L2,Bot*%
%TF.FilePolarity,Positive*%
%FSLAX46Y46*%
G04 Gerber Fmt 4.6, Leading zero omitted, Abs format (unit mm)*
G04 Created by KiCad (PCBNEW 8.0.5) date 2025-04-26 14:04:23*
%MOMM*%
%LPD*%
G01*
G04 APERTURE LIST*
G04 Aperture macros list*
%AMRoundRect*
0 Rectangle with rounded corners*
0 $1 Rounding radius*
0 $2 $3 $4 $5 $6 $7 $8 $9 X,Y pos of 4 corners*
0 Add a 4 corners polygon primitive as box body*
4,1,4,$2,$3,$4,$5,$6,$7,$8,$9,$2,$3,0*
0 Add four circle primitives for the rounded corners*
1,1,$1+$1,$2,$3*
1,1,$1+$1,$4,$5*
1,1,$1+$1,$6,$7*
1,1,$1+$1,$8,$9*
0 Add four rect primitives between the rounded corners*
20,1,$1+$1,$2,$3,$4,$5,0*
20,1,$1+$1,$4,$5,$6,$7,0*
20,1,$1+$1,$6,$7,$8,$9,0*
20,1,$1+$1,$8,$9,$2,$3,0*%
G04 Aperture macros list end*
%TA.AperFunction,SMDPad,CuDef*%
%ADD10RoundRect,0.237500X0.287500X0.237500X-0.287500X0.237500X-0.287500X-0.237500X0.287500X-0.237500X0*%
%TD*%
%TA.AperFunction,SMDPad,CuDef*%
%ADD11RoundRect,0.237500X-0.237500X0.287500X-0.237500X-0.287500X0.237500X-0.287500X0.237500X0.287500X0*%
%TD*%
%TA.AperFunction,SMDPad,CuDef*%
%ADD12RoundRect,0.237500X0.237500X-0.287500X0.237500X0.287500X-0.237500X0.287500X-0.237500X-0.287500X0*%
%TD*%
%TA.AperFunction,ViaPad*%
%ADD13C,0.800000*%
%TD*%
%TA.AperFunction,Conductor*%
%ADD14C,0.250000*%
%TD*%
G04 APERTURE END LIST*
D10*
%TO.P,D31,1,K*%
%TO.N,Net-(D15-K)*%
X98625000Y-103750000D03*
%TO.P,D31,2,A*%
%TO.N,Net-(D16-A)*%
X96875000Y-103750000D03*
%TD*%
D11*
%TO.P,D29,1,K*%
%TO.N,Net-(D13-K)*%
X76000000Y-90375000D03*
%TO.P,D29,2,A*%
%TO.N,Net-(D16-A)*%
X76000000Y-92125000D03*
%TD*%
D10*
%TO.P,D40,1,K*%
%TO.N,Net-(D24-K)*%
X67875000Y-112750000D03*
%TO.P,D40,2,A*%
%TO.N,Net-(D32-A)*%
X66125000Y-112750000D03*
%TD*%
%TO.P,D7,1,K*%
%TO.N,Net-(D23-K)*%
X76875000Y-94750000D03*
%TO.P,D7,2,A*%
%TO.N,Net-(D0-A)*%
X75125000Y-94750000D03*
%TD*%
%TO.P,D3,1,K*%
%TO.N,Net-(D19-K)*%
X84375000Y-100250000D03*
%TO.P,D3,2,A*%
%TO.N,Net-(D0-A)*%
X82625000Y-100250000D03*
%TD*%
%TO.P,D35,1,K*%
%TO.N,Net-(D19-K)*%
X62875000Y-104500000D03*
%TO.P,D35,2,A*%
%TO.N,Net-(D32-A)*%
X61125000Y-104500000D03*
%TD*%
%TO.P,D38,1,K*%
%TO.N,Net-(D22-K)*%
X92375000Y-112750000D03*
%TO.P,D38,2,A*%
%TO.N,Net-(D32-A)*%
X90625000Y-112750000D03*
%TD*%
%TO.P,D34,1,K*%
%TO.N,Net-(D18-K)*%
X63125000Y-98250000D03*
%TO.P,D34,2,A*%
%TO.N,Net-(D32-A)*%
X61375000Y-98250000D03*
%TD*%
%TO.P,D10,1,K*%
%TO.N,Net-(D10-K)*%
X76875000Y-100250000D03*
%TO.P,D10,2,A*%
%TO.N,Net-(D0-A)*%
X75125000Y-100250000D03*
%TD*%
D11*
%TO.P,D4,1,K*%
%TO.N,Net-(D20-K)*%
X86250000Y-101875000D03*
%TO.P,D4,2,A*%
%TO.N,Net-(D0-A)*%
X86250000Y-103625000D03*
%TD*%
D12*
%TO.P,D5,1,K*%
%TO.N,Net-(D21-K)*%
X80750000Y-103625000D03*
%TO.P,D5,2,A*%
%TO.N,Net-(D0-A)*%
X80750000Y-101875000D03*
%TD*%
D10*
%TO.P,D30,1,K*%
%TO.N,Net-(D14-K)*%
X65125000Y-91000000D03*
%TO.P,D30,2,A*%
%TO.N,Net-(D16-A)*%
X63375000Y-91000000D03*
%TD*%
%TO.P,D18,1,K*%
%TO.N,Net-(D18-K)*%
X85125000Y-79750000D03*
%TO.P,D18,2,A*%
%TO.N,Net-(D16-A)*%
X83375000Y-79750000D03*
%TD*%
%TO.P,D13,1,K*%
%TO.N,Net-(D13-K)*%
X76875000Y-105750000D03*
%TO.P,D13,2,A*%
%TO.N,Net-(D0-A)*%
X75125000Y-105750000D03*
%TD*%
D11*
%TO.P,D32,1,K*%
%TO.N,Net-(D0-K)*%
X90500000Y-96625000D03*
%TO.P,D32,2,A*%
%TO.N,Net-(D32-A)*%
X90500000Y-98375000D03*
%TD*%
D10*
%TO.P,D24,1,K*%
%TO.N,Net-(D24-K)*%
X80375000Y-85250000D03*
%TO.P,D24,2,A*%
%TO.N,Net-(D16-A)*%
X78625000Y-85250000D03*
%TD*%
D11*
%TO.P,D14,1,K*%
%TO.N,Net-(D14-K)*%
X69000000Y-96125000D03*
%TO.P,D14,2,A*%
%TO.N,Net-(D0-A)*%
X69000000Y-97875000D03*
%TD*%
D10*
%TO.P,D19,1,K*%
%TO.N,Net-(D19-K)*%
X79875000Y-79000000D03*
%TO.P,D19,2,A*%
%TO.N,Net-(D16-A)*%
X78125000Y-79000000D03*
%TD*%
%TO.P,D26,1,K*%
%TO.N,Net-(D10-K)*%
X96375000Y-90750000D03*
%TO.P,D26,2,A*%
%TO.N,Net-(D16-A)*%
X94625000Y-90750000D03*
%TD*%
D11*
%TO.P,D8,1,K*%
%TO.N,Net-(D24-K)*%
X78750000Y-96875000D03*
%TO.P,D8,2,A*%
%TO.N,Net-(D0-A)*%
X78750000Y-98625000D03*
%TD*%
%TO.P,D2,1,K*%
%TO.N,Net-(D18-K)*%
X80750000Y-96875000D03*
%TO.P,D2,2,A*%
%TO.N,Net-(D0-A)*%
X80750000Y-98625000D03*
%TD*%
D10*
%TO.P,D16,1,K*%
%TO.N,Net-(D0-K)*%
X94625000Y-85250000D03*
%TO.P,D16,2,A*%
%TO.N,Net-(D16-A)*%
X92875000Y-85250000D03*
%TD*%
%TO.P,D33,1,K*%
%TO.N,Net-(D1-K)*%
X91875000Y-104000000D03*
%TO.P,D33,2,A*%
%TO.N,Net-(D32-A)*%
X90125000Y-104000000D03*
%TD*%
%TO.P,D36,1,K*%
%TO.N,Net-(D20-K)*%
X83125000Y-110750000D03*
%TO.P,D36,2,A*%
%TO.N,Net-(D32-A)*%
X81375000Y-110750000D03*
%TD*%
%TO.P,D39,1,K*%
%TO.N,Net-(D23-K)*%
X80375000Y-118750000D03*
%TO.P,D39,2,A*%
%TO.N,Net-(D32-A)*%
X78625000Y-118750000D03*
%TD*%
%TO.P,D37,1,K*%
%TO.N,Net-(D21-K)*%
X76125000Y-111250000D03*
%TO.P,D37,2,A*%
%TO.N,Net-(D32-A)*%
X74375000Y-111250000D03*
%TD*%
D11*
%TO.P,D9,1,K*%
%TO.N,Net-(D25-K)*%
X73250000Y-96875000D03*
%TO.P,D9,2,A*%
%TO.N,Net-(D0-A)*%
X73250000Y-98625000D03*
%TD*%
%TO.P,D28,1,K*%
%TO.N,Net-(D12-K)*%
X81750000Y-90375000D03*
%TO.P,D28,2,A*%
%TO.N,Net-(D16-A)*%
X81750000Y-92125000D03*
%TD*%
D10*
%TO.P,D25,1,K*%
%TO.N,Net-(D25-K)*%
X73125000Y-86250000D03*
%TO.P,D25,2,A*%
%TO.N,Net-(D16-A)*%
X71375000Y-86250000D03*
%TD*%
D11*
%TO.P,D1,1,K*%
%TO.N,Net-(D1-K)*%
X86250000Y-96875000D03*
%TO.P,D1,2,A*%
%TO.N,Net-(D0-A)*%
X86250000Y-98625000D03*
%TD*%
D10*
%TO.P,D21,1,K*%
%TO.N,Net-(D21-K)*%
X69375000Y-81750000D03*
%TO.P,D21,2,A*%
%TO.N,Net-(D16-A)*%
X67625000Y-81750000D03*
%TD*%
%TO.P,D6,1,K*%
%TO.N,Net-(D22-K)*%
X84375000Y-105750000D03*
%TO.P,D6,2,A*%
%TO.N,Net-(D0-A)*%
X82625000Y-105750000D03*
%TD*%
D11*
%TO.P,D12,1,K*%
%TO.N,Net-(D12-K)*%
X73250000Y-101875000D03*
%TO.P,D12,2,A*%
%TO.N,Net-(D0-A)*%
X73250000Y-103625000D03*
%TD*%
D10*
%TO.P,D0,1,K*%
%TO.N,Net-(D0-K)*%
X84375000Y-94750000D03*
%TO.P,D0,2,A*%
%TO.N,Net-(D0-A)*%
X82625000Y-94750000D03*
%TD*%
D12*
%TO.P,D11,1,K*%
%TO.N,Net-(D11-K)*%
X78750000Y-103625000D03*
%TO.P,D11,2,A*%
%TO.N,Net-(D0-A)*%
X78750000Y-101875000D03*
%TD*%
D11*
%TO.P,D15,1,K*%
%TO.N,Net-(D15-K)*%
X69000000Y-103375000D03*
%TO.P,D15,2,A*%
%TO.N,Net-(D0-A)*%
X69000000Y-105125000D03*
%TD*%
D10*
%TO.P,D22,1,K*%
%TO.N,Net-(D22-K)*%
X65125000Y-85250000D03*
%TO.P,D22,2,A*%
%TO.N,Net-(D16-A)*%
X63375000Y-85250000D03*
%TD*%
%TO.P,D27,1,K*%
%TO.N,Net-(D11-K)*%
X97875000Y-96500000D03*
%TO.P,D27,2,A*%
%TO.N,Net-(D16-A)*%
X96125000Y-96500000D03*
%TD*%
%TO.P,D17,1,K*%
%TO.N,Net-(D1-K)*%
X90125000Y-81750000D03*
%TO.P,D17,2,A*%
%TO.N,Net-(D16-A)*%
X88375000Y-81750000D03*
%TD*%
%TO.P,D23,1,K*%
%TO.N,Net-(D23-K)*%
X88875000Y-88250000D03*
%TO.P,D23,2,A*%
%TO.N,Net-(D16-A)*%
X87125000Y-88250000D03*
%TD*%
%TO.P,D20,1,K*%
%TO.N,Net-(D20-K)*%
X74375000Y-79750000D03*
%TO.P,D20,2,A*%
%TO.N,Net-(D16-A)*%
X72625000Y-79750000D03*
%TD*%
D13*
%TO.N,Net-(D0-K)*%
X83430898Y-83819102D03*
X91250000Y-85000000D03*
X86487700Y-80762300D03*
%TO.N,Net-(D0-A)*%
X86250000Y-104750000D03*
%TO.N,Net-(D1-K)*%
X89328300Y-96772102D03*
X92024500Y-96750000D03*
X82000000Y-83250000D03*
%TO.N,Net-(D18-K)*%
X83272409Y-92700500D03*
X80750000Y-94149500D03*
X80762300Y-83237700D03*
X72078300Y-98599500D03*
X75849500Y-97500000D03*
%TO.N,Net-(D19-K)*%
X85750000Y-100250000D03*
X83349500Y-103750000D03*
X79200700Y-105100300D03*
X83274500Y-91700902D03*
%TO.N,Net-(D20-K)*%
X80578300Y-91977898D03*
X88250000Y-100250000D03*
%TO.N,Net-(D21-K)*%
X79581050Y-92044959D03*
X81824500Y-102000000D03*
%TO.N,Net-(D22-K)*%
X91500000Y-111250000D03*
X64275000Y-92225000D03*
X91500000Y-107924500D03*
%TO.N,Net-(D23-K)*%
X78250000Y-94750000D03*
X80250000Y-117250000D03*
%TO.N,Net-(D24-K)*%
X76325500Y-96621122D03*
X67000000Y-111250000D03*
X67000000Y-107000000D03*
X73602453Y-106699500D03*
%TO.N,Net-(D25-K)*%
X70250000Y-97150500D03*
%TO.N,Net-(D10-K)*%
X81500688Y-100505305D03*
X89425500Y-98472738D03*
X76000000Y-101150500D03*
X91500000Y-95275500D03*
X86750000Y-100250000D03*
%TO.N,Net-(D11-K)*%
X89250000Y-106000000D03*
X80025500Y-105920943D03*
X75175928Y-107274500D03*
%TO.N,Net-(D12-K)*%
X73750000Y-100250000D03*
X80449799Y-89800201D03*
%TO.N,Net-(D13-K)*%
X78500000Y-92000000D03*
X77500000Y-102599500D03*
%TO.N,Net-(D14-K)*%
X68750000Y-93750000D03*
%TO.N,Net-(D15-K)*%
X88500000Y-106750000D03*
X79550200Y-106800200D03*
X68000000Y-103500000D03*
%TO.N,Net-(D16-A)*%
X95000000Y-96500000D03*
%TO.N,Net-(D32-A)*%
X78750000Y-117250000D03*
X66750000Y-114000000D03*
X87000000Y-114250000D03*
X71500000Y-114000000D03*
X91500000Y-114250000D03*
X79250000Y-114250000D03*
X92750000Y-108000000D03*
%TO.N,BTN_L*%
X80574446Y-108461549D03*
X73500000Y-113250000D03*
X71500000Y-112750000D03*
X79005305Y-99749312D03*
X87750000Y-93750000D03*
X85273536Y-96194433D03*
X81752877Y-99349500D03*
%TO.N,LED_OE*%
X72487701Y-90012299D03*
X69250000Y-85275500D03*
%TO.N,BTN_C*%
X84000000Y-118750000D03*
%TO.N,BTN_R*%
X95750000Y-109000000D03*
%TO.N,GND*%
X76750000Y-79538200D03*
X77250000Y-85224500D03*
%TO.N,LEDg3*%
X95000000Y-98250000D03*
X97250000Y-105750000D03*
%TO.N,VEE*%
X65574500Y-94752476D03*
X64256395Y-98000500D03*
%TD*%
D14*
%TO.N,Net-(D0-K)*%
X92812500Y-87062500D02*
X92937500Y-86937500D01*
X85804505Y-97750000D02*
X89375000Y-97750000D01*
X83430898Y-83819102D02*
X86487700Y-80762300D01*
X90500000Y-90000000D02*
X90500000Y-89375000D01*
X93687500Y-86187500D02*
X94625000Y-85250000D01*
X89375000Y-97750000D02*
X90500000Y-96625000D01*
X91250000Y-85250000D02*
X92937500Y-86937500D01*
X93062500Y-86812500D02*
X93687500Y-86187500D01*
X90500000Y-96625000D02*
X90500000Y-90000000D01*
X90500000Y-89375000D02*
X92812500Y-87062500D01*
X92937500Y-86937500D02*
X93062500Y-86812500D01*
X91250000Y-85250000D02*
X91250000Y-85000000D01*
X84375000Y-96320495D02*
X85804505Y-97750000D01*
X84375000Y-94750000D02*
X84375000Y-96320495D01*
%TO.N,Net-(D0-A)*%
X85250000Y-104625000D02*
X86125000Y-104625000D01*
X82625000Y-100250000D02*
X82625000Y-104625000D01*
X69000000Y-105125000D02*
X71750000Y-105125000D01*
X75000000Y-101875000D02*
X78750000Y-101875000D01*
X82625000Y-94750000D02*
X82625000Y-100250000D01*
X75125000Y-100250000D02*
X75125000Y-105750000D01*
X82625000Y-104625000D02*
X82625000Y-105750000D01*
X75125000Y-100250000D02*
X75125000Y-94750000D01*
X78750000Y-101875000D02*
X80750000Y-101875000D01*
X86250000Y-104750000D02*
X86250000Y-103625000D01*
X73250000Y-103625000D02*
X75000000Y-101875000D01*
X71750000Y-105125000D02*
X73250000Y-103625000D01*
X73250000Y-98625000D02*
X86250000Y-98625000D01*
X86125000Y-104625000D02*
X86250000Y-104750000D01*
X72500000Y-97875000D02*
X73250000Y-98625000D01*
X69000000Y-97875000D02*
X72500000Y-97875000D01*
X85250000Y-104625000D02*
X82625000Y-104625000D01*
%TO.N,Net-(D1-K)*%
X90125000Y-81750000D02*
X90050000Y-81825000D01*
X92024500Y-103850500D02*
X91875000Y-104000000D01*
X82000000Y-83250000D02*
X82000000Y-83839004D01*
X90050000Y-81825000D02*
X90050000Y-93075000D01*
X89225402Y-96875000D02*
X89328300Y-96772102D01*
X92024500Y-96750000D02*
X92024500Y-103850500D01*
X86275000Y-88114004D02*
X82000000Y-83839004D01*
X88300000Y-87450000D02*
X88025000Y-87725000D01*
X87700000Y-89050000D02*
X86550000Y-89050000D01*
X86275000Y-88775000D02*
X86275000Y-88114004D01*
X90050000Y-93075000D02*
X86250000Y-96875000D01*
X86250000Y-96875000D02*
X89225402Y-96875000D01*
X88025000Y-88725000D02*
X87700000Y-89050000D01*
X86550000Y-89050000D02*
X86275000Y-88775000D01*
X88025000Y-87725000D02*
X88025000Y-88725000D01*
X90050000Y-87450000D02*
X88300000Y-87450000D01*
%TO.N,Net-(D18-K)*%
X85125000Y-79750000D02*
X84325000Y-80550000D01*
X83875354Y-92125353D02*
X83999500Y-92001207D01*
X63600000Y-98725000D02*
X71952800Y-98725000D01*
X79900000Y-97725000D02*
X80750000Y-96875000D01*
X76074500Y-97725000D02*
X79900000Y-97725000D01*
X83999500Y-92001207D02*
X83999500Y-91025000D01*
X83999500Y-91025000D02*
X83724500Y-90750000D01*
X83300207Y-92700500D02*
X83875354Y-92125353D01*
X83450000Y-80550000D02*
X80762300Y-83237700D01*
X83724500Y-86199900D02*
X80762300Y-83237700D01*
X75849500Y-97500000D02*
X76074500Y-97725000D01*
X84325000Y-80550000D02*
X83450000Y-80550000D01*
X83272409Y-92700500D02*
X83300207Y-92700500D01*
X63125000Y-98250000D02*
X63600000Y-98725000D01*
X71952800Y-98725000D02*
X72078300Y-98599500D01*
X83299500Y-92700500D02*
X83272409Y-92700500D01*
X80750000Y-94149500D02*
X80750000Y-96875000D01*
X83724500Y-90750000D02*
X83724500Y-86199900D01*
%TO.N,Net-(D19-K)*%
X82500000Y-86000000D02*
X83274500Y-86774500D01*
X74604505Y-106550000D02*
X77751000Y-106550000D01*
X68554505Y-104250000D02*
X68200000Y-104604505D01*
X68200000Y-104604505D02*
X68200000Y-105700000D01*
X83274500Y-86774500D02*
X83274500Y-90750000D01*
X62875000Y-104500000D02*
X65000000Y-104500000D01*
X68200000Y-105700000D02*
X68475000Y-105975000D01*
X66975000Y-102525000D02*
X69525000Y-102525000D01*
X84375000Y-102724500D02*
X84375000Y-100250000D01*
X69800000Y-103950000D02*
X69500000Y-104250000D01*
X69500000Y-104250000D02*
X69250000Y-104250000D01*
X74029505Y-105975000D02*
X74604505Y-106550000D01*
X69525000Y-102525000D02*
X69800000Y-102800000D01*
X83274500Y-90750000D02*
X83274500Y-91700902D01*
X69800000Y-102800000D02*
X69800000Y-103950000D01*
X68475000Y-105975000D02*
X69004505Y-105975000D01*
X77751000Y-106550000D02*
X79200700Y-105100300D01*
X69004505Y-105975000D02*
X74029505Y-105975000D01*
X69250000Y-104250000D02*
X68554505Y-104250000D01*
X85750000Y-100250000D02*
X84375000Y-100250000D01*
X83349500Y-103750000D02*
X84375000Y-102724500D01*
X79875000Y-83375000D02*
X82500000Y-86000000D01*
X66500000Y-103000000D02*
X66975000Y-102525000D01*
X65000000Y-104500000D02*
X66500000Y-103000000D01*
X79875000Y-79000000D02*
X79875000Y-83375000D01*
%TO.N,Net-(D20-K)*%
X87050000Y-106825000D02*
X87050000Y-102675000D01*
X77500000Y-88613604D02*
X74375000Y-85488604D01*
X80578300Y-91977898D02*
X77500000Y-88899598D01*
X74375000Y-85488604D02*
X74375000Y-79750000D01*
X87050000Y-102675000D02*
X86250000Y-101875000D01*
X87875000Y-100250000D02*
X88250000Y-100250000D01*
X83125000Y-110750000D02*
X87050000Y-106825000D01*
X86250000Y-101875000D02*
X87875000Y-100250000D01*
X77500000Y-88899598D02*
X77500000Y-88613604D01*
%TO.N,Net-(D21-K)*%
X80750000Y-103625000D02*
X80750000Y-106625000D01*
X81824500Y-102550500D02*
X80750000Y-103625000D01*
X80750000Y-106625000D02*
X76125000Y-111250000D01*
X77050000Y-88800000D02*
X70000000Y-81750000D01*
X70000000Y-81750000D02*
X69375000Y-81750000D01*
X81824500Y-102000000D02*
X81824500Y-102550500D01*
X79581050Y-92044959D02*
X77050000Y-89513909D01*
X77050000Y-89513909D02*
X77050000Y-88800000D01*
%TO.N,Net-(D22-K)*%
X65229505Y-108175000D02*
X72750000Y-108175000D01*
X64275000Y-95779505D02*
X62275000Y-97779505D01*
X62275000Y-97779505D02*
X62275000Y-103779505D01*
X82604505Y-111550000D02*
X82250000Y-111195495D01*
X62000000Y-104945495D02*
X65229505Y-108175000D01*
X75225000Y-110650000D02*
X75225000Y-111725000D01*
X65125000Y-85250000D02*
X64275000Y-86100000D01*
X91225500Y-107650000D02*
X89500000Y-107650000D01*
X77255698Y-111439797D02*
X77255698Y-110755698D01*
X75550000Y-112050000D02*
X76645495Y-112050000D01*
X83645495Y-111550000D02*
X82604505Y-111550000D01*
X64275000Y-92225000D02*
X64275000Y-95779505D01*
X89500000Y-107650000D02*
X89200000Y-107950000D01*
X82437500Y-106687500D02*
X83437500Y-106687500D01*
X84375000Y-105750000D02*
X83437500Y-106687500D01*
X62275000Y-103779505D02*
X62000000Y-104054505D01*
X77255698Y-110755698D02*
X81323896Y-106687500D01*
X75225000Y-111725000D02*
X75550000Y-112050000D01*
X81323896Y-106687500D02*
X82437500Y-106687500D01*
X89200000Y-107950000D02*
X87245495Y-107950000D01*
X87245495Y-107950000D02*
X83645495Y-111550000D01*
X92375000Y-112125000D02*
X91500000Y-111250000D01*
X64275000Y-86100000D02*
X64275000Y-92225000D01*
X76645495Y-112050000D02*
X77255698Y-111439797D01*
X91500000Y-107924500D02*
X91225500Y-107650000D01*
X92375000Y-112750000D02*
X92375000Y-112125000D01*
X62000000Y-104054505D02*
X62000000Y-104945495D01*
X82250000Y-106875000D02*
X82437500Y-106687500D01*
X72750000Y-108175000D02*
X75225000Y-110650000D01*
X82250000Y-111195495D02*
X82250000Y-106875000D01*
%TO.N,Net-(D23-K)*%
X83961396Y-93425000D02*
X79575000Y-93425000D01*
X78250000Y-94750000D02*
X76875000Y-94750000D01*
X88875000Y-88511396D02*
X83961396Y-93425000D01*
X80375000Y-117375000D02*
X80250000Y-117250000D01*
X79575000Y-93425000D02*
X78250000Y-94750000D01*
X88875000Y-88250000D02*
X88875000Y-88511396D01*
X80375000Y-118750000D02*
X80375000Y-117375000D01*
%TO.N,Net-(D24-K)*%
X67875000Y-112750000D02*
X67875000Y-112125000D01*
X82550000Y-87425000D02*
X80375000Y-85250000D01*
X67300500Y-106699500D02*
X73602453Y-106699500D01*
X76025000Y-96320622D02*
X76025000Y-94279505D01*
X77329505Y-92975000D02*
X82220495Y-92975000D01*
X78750000Y-96875000D02*
X76579378Y-96875000D01*
X67875000Y-112125000D02*
X67000000Y-111250000D01*
X76579378Y-96875000D02*
X76025000Y-96320622D01*
X67000000Y-107000000D02*
X67300500Y-106699500D01*
X82550000Y-92645495D02*
X82550000Y-87425000D01*
X82220495Y-92975000D02*
X82550000Y-92645495D01*
X76025000Y-94279505D02*
X77329505Y-92975000D01*
%TO.N,Net-(D25-K)*%
X75529505Y-92975000D02*
X76470495Y-92975000D01*
X73250000Y-96875000D02*
X73250000Y-95254505D01*
X72700000Y-97425000D02*
X73250000Y-96875000D01*
X73250000Y-95254505D02*
X75529505Y-92975000D01*
X70250000Y-97150500D02*
X70250000Y-97250000D01*
X73125000Y-88820495D02*
X73125000Y-86250000D01*
X70250000Y-97250000D02*
X70425000Y-97425000D01*
X76800000Y-92645495D02*
X76800000Y-91554505D01*
X76470495Y-91225000D02*
X75529505Y-91225000D01*
X75529505Y-91225000D02*
X73125000Y-88820495D01*
X76470495Y-92975000D02*
X76800000Y-92645495D01*
X76800000Y-91554505D02*
X76470495Y-91225000D01*
X70425000Y-97425000D02*
X72700000Y-97425000D01*
%TO.N,Net-(D10-K)*%
X89425500Y-98472738D02*
X88527262Y-98472738D01*
X76000000Y-101125000D02*
X76875000Y-100250000D01*
X96375000Y-90750000D02*
X96025500Y-90750000D01*
X76000000Y-101150500D02*
X76000000Y-101125000D01*
X96025500Y-90750000D02*
X91500000Y-95275500D01*
X88527262Y-98472738D02*
X86750000Y-100250000D01*
X77130305Y-100505305D02*
X76875000Y-100250000D01*
X81500688Y-100505305D02*
X77130305Y-100505305D01*
%TO.N,Net-(D11-K)*%
X77975500Y-107274500D02*
X75175928Y-107274500D01*
X80025500Y-104900500D02*
X78750000Y-103625000D01*
X79329057Y-105920943D02*
X78500000Y-106750000D01*
X80025500Y-105920943D02*
X80025500Y-104900500D01*
X78500000Y-106750000D02*
X77975500Y-107274500D01*
X91300000Y-96200000D02*
X91300000Y-96500000D01*
X97875000Y-96500000D02*
X97075000Y-97300000D01*
X92750000Y-96000000D02*
X91500000Y-96000000D01*
X97075000Y-97300000D02*
X95750000Y-97300000D01*
X89500000Y-106000000D02*
X89250000Y-106000000D01*
X90975000Y-103529505D02*
X90975000Y-104525000D01*
X91300000Y-96500000D02*
X91300000Y-103204505D01*
X80025500Y-105920943D02*
X79329057Y-105920943D01*
X94050000Y-97300000D02*
X92750000Y-96000000D01*
X91300000Y-103204505D02*
X90975000Y-103529505D01*
X90975000Y-104525000D02*
X89500000Y-106000000D01*
X95750000Y-97300000D02*
X94050000Y-97300000D01*
X91500000Y-96000000D02*
X91300000Y-96200000D01*
%TO.N,Net-(D12-K)*%
X80449799Y-89800201D02*
X81175201Y-89800201D01*
X73250000Y-100750000D02*
X73750000Y-100250000D01*
X73250000Y-101875000D02*
X73250000Y-100750000D01*
X81175201Y-89800201D02*
X81750000Y-90375000D01*
%TO.N,Net-(D13-K)*%
X76875000Y-90375000D02*
X78500000Y-92000000D01*
X76000000Y-90375000D02*
X76875000Y-90375000D01*
X77500000Y-105125000D02*
X76875000Y-105750000D01*
X77500000Y-102599500D02*
X77500000Y-105125000D01*
%TO.N,Net-(D14-K)*%
X68750000Y-93750000D02*
X68312500Y-94187500D01*
X68312500Y-94187500D02*
X69000000Y-94875000D01*
X69000000Y-94875000D02*
X69000000Y-96125000D01*
X65125000Y-91000000D02*
X68312500Y-94187500D01*
%TO.N,Net-(D15-K)*%
X68000000Y-103500000D02*
X68875000Y-103500000D01*
X78100400Y-108250000D02*
X73461396Y-108250000D01*
X98625000Y-103750000D02*
X98625000Y-105625000D01*
X66699695Y-107725000D02*
X66275000Y-107300305D01*
X72936396Y-107725000D02*
X66699695Y-107725000D01*
X98625000Y-105625000D02*
X97500000Y-106750000D01*
X66275000Y-105225000D02*
X68000000Y-103500000D01*
X69000000Y-103375000D02*
X68793109Y-103375000D01*
X79550200Y-106800200D02*
X78100400Y-108250000D01*
X68875000Y-103500000D02*
X69000000Y-103375000D01*
X66275000Y-107300305D02*
X66275000Y-105225000D01*
X97500000Y-106750000D02*
X88500000Y-106750000D01*
X73461396Y-108250000D02*
X72936396Y-107725000D01*
%TO.N,Net-(D16-A)*%
X98450000Y-95700000D02*
X98725000Y-95975000D01*
X71375000Y-87875000D02*
X75500000Y-92000000D01*
X95475000Y-84725000D02*
X95475000Y-89900000D01*
X78625000Y-85250000D02*
X78625000Y-89000000D01*
X96125000Y-96500000D02*
X96925000Y-95700000D01*
X87125000Y-83000000D02*
X88375000Y-81750000D01*
X78625000Y-89000000D02*
X81750000Y-92125000D01*
X98725000Y-98976901D02*
X96875000Y-100826901D01*
X95000000Y-96500000D02*
X96125000Y-96500000D01*
X92875000Y-83125000D02*
X92875000Y-85250000D01*
X67625000Y-82500000D02*
X71375000Y-86250000D01*
X73561800Y-78813200D02*
X72625000Y-79750000D01*
X87125000Y-88250000D02*
X87125000Y-83000000D01*
X78125000Y-84750000D02*
X78625000Y-85250000D01*
X94625000Y-90750000D02*
X95425000Y-89950000D01*
X95475000Y-89900000D02*
X94625000Y-90750000D01*
X89175000Y-80950000D02*
X90700000Y-80950000D01*
X96925000Y-95700000D02*
X98450000Y-95700000D01*
X88375000Y-81750000D02*
X89175000Y-80950000D01*
X85700000Y-78950000D02*
X88375000Y-81625000D01*
X81825000Y-78200000D02*
X83375000Y-79750000D01*
X67625000Y-81750000D02*
X67625000Y-82500000D01*
X63375000Y-85250000D02*
X66875000Y-81750000D01*
X71375000Y-86250000D02*
X71375000Y-87875000D01*
X88375000Y-81625000D02*
X88375000Y-81750000D01*
X95425000Y-89950000D02*
X96895495Y-89950000D01*
X84175000Y-78950000D02*
X85700000Y-78950000D01*
X78125000Y-79000000D02*
X78925000Y-78200000D01*
X83375000Y-79750000D02*
X84175000Y-78950000D01*
X96895495Y-89950000D02*
X97250000Y-90304505D01*
X93675000Y-84450000D02*
X95200000Y-84450000D01*
X96875000Y-100826901D02*
X96875000Y-103750000D01*
X66875000Y-81750000D02*
X67625000Y-81750000D01*
X67625000Y-81750000D02*
X69625000Y-79750000D01*
X69625000Y-79750000D02*
X72625000Y-79750000D01*
X92875000Y-85250000D02*
X93675000Y-84450000D01*
X78125000Y-79000000D02*
X78125000Y-84750000D01*
X95200000Y-84450000D02*
X95475000Y-84725000D01*
X97250000Y-92750000D02*
X96125000Y-93875000D01*
X90700000Y-80950000D02*
X92875000Y-83125000D01*
X77938200Y-78813200D02*
X73561800Y-78813200D01*
X63375000Y-91000000D02*
X63375000Y-85250000D01*
X78925000Y-78200000D02*
X81825000Y-78200000D01*
X96125000Y-93875000D02*
X96125000Y-96500000D01*
X78125000Y-79000000D02*
X77938200Y-78813200D01*
X97250000Y-90304505D02*
X97250000Y-92750000D01*
X98725000Y-95975000D02*
X98725000Y-98976901D01*
%TO.N,Net-(D32-A)*%
X91199695Y-108649500D02*
X91850500Y-108649500D01*
X71500000Y-114000000D02*
X72500000Y-114000000D01*
X91850500Y-108649500D02*
X92225000Y-108275000D01*
X78625000Y-118750000D02*
X78625000Y-117375000D01*
X89370451Y-108415945D02*
X89536396Y-108250000D01*
X90125000Y-98750000D02*
X90125000Y-104000000D01*
X91800805Y-107200000D02*
X92225000Y-107624195D01*
X79000000Y-114000000D02*
X79250000Y-114250000D01*
X81375000Y-110750000D02*
X81375000Y-114125000D01*
X81250000Y-114250000D02*
X79250000Y-114250000D01*
X72500000Y-114000000D02*
X74250000Y-114000000D01*
X74375000Y-111250000D02*
X72500000Y-113125000D01*
X92750000Y-108000000D02*
X92250000Y-108000000D01*
X74375000Y-111250000D02*
X71750000Y-108625000D01*
X90625000Y-113375000D02*
X91500000Y-114250000D01*
X92225000Y-107624195D02*
X92225000Y-107975000D01*
X87415946Y-108415945D02*
X89370451Y-108415945D01*
X72500000Y-113125000D02*
X72500000Y-114000000D01*
X88775305Y-107500000D02*
X89075305Y-107200000D01*
X92250000Y-108000000D02*
X92225000Y-107975000D01*
X92225000Y-107975000D02*
X92225000Y-108275000D01*
X74250000Y-114000000D02*
X79000000Y-114000000D01*
X90125000Y-104000000D02*
X87775000Y-106350000D01*
X61375000Y-104250000D02*
X61125000Y-104500000D01*
X66125000Y-113375000D02*
X66750000Y-114000000D01*
X89536396Y-108250000D02*
X90800195Y-108250000D01*
X78625000Y-117375000D02*
X78750000Y-117250000D01*
X87775000Y-107050305D02*
X88224695Y-107500000D01*
X89075305Y-107200000D02*
X91800805Y-107200000D01*
X88224695Y-107500000D02*
X88775305Y-107500000D01*
X87000000Y-114250000D02*
X87000000Y-108831891D01*
X90625000Y-112750000D02*
X90625000Y-113375000D01*
X90500000Y-98375000D02*
X90125000Y-98750000D01*
X61375000Y-98250000D02*
X61375000Y-104250000D01*
X87775000Y-106350000D02*
X87775000Y-107050305D01*
X66125000Y-112750000D02*
X66125000Y-113375000D01*
X71750000Y-108625000D02*
X64875000Y-108625000D01*
X90800195Y-108250000D02*
X91199695Y-108649500D01*
X87000000Y-108831891D02*
X87415946Y-108415945D01*
X87000000Y-114250000D02*
X81250000Y-114250000D01*
X81375000Y-114125000D02*
X81250000Y-114250000D01*
X64875000Y-108625000D02*
X61125000Y-104875000D01*
X61125000Y-104875000D02*
X61125000Y-104500000D01*
%TO.N,BTN_L*%
X87750000Y-93750000D02*
X85250000Y-96250000D01*
X81752877Y-99349500D02*
X81353065Y-99749312D01*
X80574446Y-108461549D02*
X80574446Y-109425554D01*
X71500000Y-112750000D02*
X70250000Y-112750000D01*
X85250000Y-96250000D02*
X85250000Y-96217969D01*
X80574446Y-109425554D02*
X76750000Y-113250000D01*
X81353065Y-99749312D02*
X79005305Y-99749312D01*
X76750000Y-113250000D02*
X74500000Y-113250000D01*
X85250000Y-96217969D02*
X85273536Y-96194433D01*
X74500000Y-113250000D02*
X73500000Y-113250000D01*
%TO.N,LED_OE*%
X69250000Y-86774598D02*
X72487701Y-90012299D01*
X69250000Y-85275500D02*
X69250000Y-86774598D01*
%TO.N,BTN_C*%
X84000000Y-118750000D02*
X83000000Y-118750000D01*
%TO.N,BTN_R*%
X95750000Y-109000000D02*
X94750000Y-110000000D01*
X94750000Y-110000000D02*
X94750000Y-110250000D01*
%TO.N,GND*%
X77250000Y-80038200D02*
X77250000Y-85224500D01*
X76750000Y-79538200D02*
X77250000Y-80038200D01*
%TO.N,LEDg3*%
X96750000Y-105250000D02*
X97250000Y-105750000D01*
X95000000Y-98250000D02*
X95000000Y-103500000D01*
X95000000Y-103500000D02*
X96750000Y-105250000D01*
%TO.N,VEE*%
X65574500Y-94752476D02*
X65574500Y-96682395D01*
X65574500Y-96682395D02*
X64256395Y-98000500D01*
%TD*%
%TA.AperFunction,Conductor*%
%TO.N,BTN_C*%
G36*
X78763835Y-115020002D02*
G01*
X78769771Y-115024060D01*
X78793248Y-115041118D01*
X78967712Y-115118794D01*
X79154513Y-115158500D01*
X79345487Y-115158500D01*
X79532288Y-115118794D01*
X79706752Y-115041118D01*
X79730223Y-115024064D01*
X79797091Y-115000206D01*
X79804286Y-115000000D01*
X83124000Y-115000000D01*
X83192121Y-115020002D01*
X83238614Y-115073658D01*
X83250000Y-115126000D01*
X83250000Y-122374000D01*
X83229998Y-122442121D01*
X83176342Y-122488614D01*
X83124000Y-122500000D01*
X75876000Y-122500000D01*
X75807879Y-122479998D01*
X75761386Y-122426342D01*
X75750000Y-122374000D01*
X75750000Y-118462778D01*
X77591500Y-118462778D01*
X77591500Y-119037212D01*
X77601937Y-119139380D01*
X77656791Y-119304920D01*
X77748342Y-119453346D01*
X77748347Y-119453352D01*
X77871647Y-119576652D01*
X77871653Y-119576657D01*
X77871654Y-119576658D01*
X78020080Y-119668209D01*
X78185619Y-119723062D01*
X78287787Y-119733500D01*
X78962212Y-119733499D01*
X79064381Y-119723062D01*
X79229920Y-119668209D01*
X79378346Y-119576658D01*
X79410905Y-119544098D01*
X79473215Y-119510074D01*
X79544031Y-119515138D01*
X79589094Y-119544098D01*
X79621654Y-119576658D01*
X79770080Y-119668209D01*
X79935619Y-119723062D01*
X80037787Y-119733500D01*
X80712212Y-119733499D01*
X80814381Y-119723062D01*
X80979920Y-119668209D01*
X81128346Y-119576658D01*
X81251658Y-119453346D01*
X81343209Y-119304920D01*
X81398062Y-119139381D01*
X81408500Y-119037213D01*
X81408499Y-118462788D01*
X81398062Y-118360619D01*
X81343209Y-118195080D01*
X81251658Y-118046654D01*
X81251657Y-118046653D01*
X81251652Y-118046647D01*
X81128346Y-117923341D01*
X81071716Y-117888411D01*
X81024239Y-117835625D01*
X81012836Y-117765550D01*
X81028744Y-117718173D01*
X81084527Y-117621556D01*
X81143542Y-117439928D01*
X81163504Y-117250000D01*
X81143542Y-117060072D01*
X81084527Y-116878444D01*
X80989040Y-116713056D01*
X80989038Y-116713054D01*
X80989034Y-116713048D01*
X80861255Y-116571135D01*
X80706752Y-116458882D01*
X80532288Y-116381206D01*
X80345487Y-116341500D01*
X80154513Y-116341500D01*
X79967711Y-116381206D01*
X79793247Y-116458882D01*
X79638746Y-116571134D01*
X79593636Y-116621234D01*
X79533190Y-116658473D01*
X79462206Y-116657121D01*
X79406364Y-116621234D01*
X79361253Y-116571134D01*
X79206752Y-116458882D01*
X79032288Y-116381206D01*
X78845487Y-116341500D01*
X78654513Y-116341500D01*
X78467711Y-116381206D01*
X78293247Y-116458882D01*
X78138744Y-116571135D01*
X78010965Y-116713048D01*
X78010958Y-116713058D01*
X77915476Y-116878438D01*
X77915473Y-116878445D01*
X77856457Y-117060072D01*
X77836496Y-117250000D01*
X77856457Y-117439927D01*
X77895317Y-117559524D01*
X77915473Y-117621556D01*
X77971254Y-117718171D01*
X77987992Y-117787165D01*
X77964772Y-117854257D01*
X77928283Y-117888411D01*
X77871653Y-117923341D01*
X77748347Y-118046647D01*
X77748342Y-118046653D01*
X77656791Y-118195080D01*
X77601937Y-118360622D01*
X77591500Y-118462778D01*
X75750000Y-118462778D01*
X75750000Y-115126000D01*
X75770002Y-115057879D01*
X75823658Y-115011386D01*
X75876000Y-115000000D01*
X78695714Y-115000000D01*
X78763835Y-115020002D01*
G37*
%TD.AperFunction*%
%TD*%
%TA.AperFunction,Conductor*%
%TO.N,BTN_L*%
G36*
X64370027Y-109020002D02*
G01*
X64391001Y-109036905D01*
X64471167Y-109117071D01*
X64574925Y-109186400D01*
X64690215Y-109234155D01*
X64812606Y-109258500D01*
X64812607Y-109258500D01*
X70624000Y-109258500D01*
X70692121Y-109278502D01*
X70738614Y-109332158D01*
X70750000Y-109384500D01*
X70750000Y-113448277D01*
X70733119Y-113511277D01*
X70665476Y-113628438D01*
X70665473Y-113628445D01*
X70606457Y-113810072D01*
X70586496Y-114000000D01*
X70606457Y-114189927D01*
X70645317Y-114309524D01*
X70665473Y-114371556D01*
X70733120Y-114488723D01*
X70750000Y-114551721D01*
X70750000Y-116374000D01*
X70729998Y-116442121D01*
X70676342Y-116488614D01*
X70624000Y-116500000D01*
X63376000Y-116500000D01*
X63307879Y-116479998D01*
X63261386Y-116426342D01*
X63250000Y-116374000D01*
X63250000Y-112462778D01*
X65091500Y-112462778D01*
X65091500Y-113037212D01*
X65101937Y-113139380D01*
X65156791Y-113304920D01*
X65248342Y-113453346D01*
X65248347Y-113453352D01*
X65371647Y-113576652D01*
X65371653Y-113576657D01*
X65371654Y-113576658D01*
X65520080Y-113668209D01*
X65528997Y-113671163D01*
X65587368Y-113711577D01*
X65594128Y-113720763D01*
X65632929Y-113778833D01*
X65802878Y-113948782D01*
X65836902Y-114011092D01*
X65839092Y-114024705D01*
X65856457Y-114189927D01*
X65886526Y-114282470D01*
X65915473Y-114371556D01*
X65915476Y-114371561D01*
X66010958Y-114536941D01*
X66010965Y-114536951D01*
X66138744Y-114678864D01*
X66138747Y-114678866D01*
X66293248Y-114791118D01*
X66467712Y-114868794D01*
X66654513Y-114908500D01*
X66845487Y-114908500D01*
X67032288Y-114868794D01*
X67206752Y-114791118D01*
X67361253Y-114678866D01*
X67489040Y-114536944D01*
X67584527Y-114371556D01*
X67643542Y-114189928D01*
X67663504Y-114000000D01*
X67650121Y-113872668D01*
X67662893Y-113802831D01*
X67711395Y-113750984D01*
X67775431Y-113733499D01*
X68212212Y-113733499D01*
X68314381Y-113723062D01*
X68479920Y-113668209D01*
X68628346Y-113576658D01*
X68751658Y-113453346D01*
X68843209Y-113304920D01*
X68898062Y-113139381D01*
X68908500Y-113037213D01*
X68908499Y-112462788D01*
X68898062Y-112360619D01*
X68843209Y-112195080D01*
X68751658Y-112046654D01*
X68751657Y-112046653D01*
X68751652Y-112046647D01*
X68628352Y-111923347D01*
X68628346Y-111923342D01*
X68479918Y-111831790D01*
X68474201Y-111829896D01*
X68471001Y-111828835D01*
X68412630Y-111788422D01*
X68405877Y-111779244D01*
X68367071Y-111721167D01*
X68278833Y-111632929D01*
X67947122Y-111301218D01*
X67913096Y-111238906D01*
X67910907Y-111225293D01*
X67893542Y-111060072D01*
X67834527Y-110878444D01*
X67739040Y-110713056D01*
X67739038Y-110713054D01*
X67739034Y-110713048D01*
X67611255Y-110571135D01*
X67456752Y-110458882D01*
X67282288Y-110381206D01*
X67095487Y-110341500D01*
X66904513Y-110341500D01*
X66717711Y-110381206D01*
X66543247Y-110458882D01*
X66388744Y-110571135D01*
X66260965Y-110713048D01*
X66260958Y-110713058D01*
X66165476Y-110878438D01*
X66165473Y-110878445D01*
X66106457Y-111060072D01*
X66086496Y-111250000D01*
X66106457Y-111439928D01*
X66158976Y-111601564D01*
X66161003Y-111672532D01*
X66124341Y-111733329D01*
X66060629Y-111764655D01*
X66039143Y-111766500D01*
X65787787Y-111766500D01*
X65685619Y-111776937D01*
X65520079Y-111831791D01*
X65371653Y-111923342D01*
X65371647Y-111923347D01*
X65248347Y-112046647D01*
X65248342Y-112046653D01*
X65156791Y-112195080D01*
X65101937Y-112360622D01*
X65091500Y-112462778D01*
X63250000Y-112462778D01*
X63250000Y-109126000D01*
X63270002Y-109057879D01*
X63323658Y-109011386D01*
X63376000Y-109000000D01*
X64301906Y-109000000D01*
X64370027Y-109020002D01*
G37*
%TD.AperFunction*%
%TD*%
%TA.AperFunction,Conductor*%
%TO.N,BTN_R*%
G36*
X90670222Y-109020002D02*
G01*
X90691196Y-109036905D01*
X90795862Y-109141571D01*
X90899620Y-109210900D01*
X91014910Y-109258655D01*
X91137301Y-109283000D01*
X91137302Y-109283000D01*
X91912893Y-109283000D01*
X91912894Y-109283000D01*
X92035285Y-109258655D01*
X92150575Y-109210900D01*
X92254333Y-109141571D01*
X92358999Y-109036905D01*
X92421311Y-109002879D01*
X92448094Y-109000000D01*
X95124000Y-109000000D01*
X95192121Y-109020002D01*
X95238614Y-109073658D01*
X95250000Y-109126000D01*
X95250000Y-116374000D01*
X95229998Y-116442121D01*
X95176342Y-116488614D01*
X95124000Y-116500000D01*
X87876000Y-116500000D01*
X87807879Y-116479998D01*
X87761386Y-116426342D01*
X87750000Y-116374000D01*
X87750000Y-114801721D01*
X87766879Y-114738723D01*
X87834527Y-114621556D01*
X87893542Y-114439928D01*
X87913504Y-114250000D01*
X87893542Y-114060072D01*
X87834527Y-113878444D01*
X87777017Y-113778834D01*
X87766881Y-113761277D01*
X87750000Y-113698277D01*
X87750000Y-112462778D01*
X89591500Y-112462778D01*
X89591500Y-113037212D01*
X89601937Y-113139380D01*
X89656791Y-113304920D01*
X89748342Y-113453346D01*
X89748347Y-113453352D01*
X89871647Y-113576652D01*
X89871653Y-113576657D01*
X89871654Y-113576658D01*
X90020080Y-113668209D01*
X90028997Y-113671163D01*
X90087368Y-113711577D01*
X90094128Y-113720763D01*
X90132929Y-113778833D01*
X90552878Y-114198782D01*
X90586902Y-114261093D01*
X90589092Y-114274705D01*
X90606457Y-114439927D01*
X90636526Y-114532470D01*
X90665473Y-114621556D01*
X90665476Y-114621561D01*
X90760958Y-114786941D01*
X90760965Y-114786951D01*
X90888744Y-114928864D01*
X90888747Y-114928866D01*
X91043248Y-115041118D01*
X91217712Y-115118794D01*
X91404513Y-115158500D01*
X91595487Y-115158500D01*
X91782288Y-115118794D01*
X91956752Y-115041118D01*
X92111253Y-114928866D01*
X92239040Y-114786944D01*
X92334527Y-114621556D01*
X92393542Y-114439928D01*
X92413504Y-114250000D01*
X92393542Y-114060072D01*
X92341021Y-113898433D01*
X92338994Y-113827468D01*
X92375656Y-113766670D01*
X92439368Y-113735345D01*
X92460855Y-113733499D01*
X92712212Y-113733499D01*
X92814381Y-113723062D01*
X92979920Y-113668209D01*
X93128346Y-113576658D01*
X93251658Y-113453346D01*
X93343209Y-113304920D01*
X93398062Y-113139381D01*
X93408500Y-113037213D01*
X93408499Y-112462788D01*
X93398062Y-112360619D01*
X93343209Y-112195080D01*
X93251658Y-112046654D01*
X93251657Y-112046653D01*
X93251652Y-112046647D01*
X93128352Y-111923347D01*
X93128346Y-111923342D01*
X92979920Y-111831791D01*
X92979919Y-111831790D01*
X92979918Y-111831790D01*
X92974201Y-111829896D01*
X92971001Y-111828835D01*
X92912630Y-111788422D01*
X92905877Y-111779244D01*
X92867071Y-111721167D01*
X92778833Y-111632929D01*
X92447122Y-111301218D01*
X92413096Y-111238906D01*
X92410907Y-111225293D01*
X92393542Y-111060072D01*
X92334527Y-110878444D01*
X92239040Y-110713056D01*
X92239038Y-110713054D01*
X92239034Y-110713048D01*
X92111255Y-110571135D01*
X91956752Y-110458882D01*
X91782288Y-110381206D01*
X91595487Y-110341500D01*
X91404513Y-110341500D01*
X91217711Y-110381206D01*
X91043247Y-110458882D01*
X90888744Y-110571135D01*
X90760965Y-110713048D01*
X90760958Y-110713058D01*
X90665476Y-110878438D01*
X90665473Y-110878445D01*
X90606457Y-111060072D01*
X90586496Y-111250000D01*
X90606457Y-111439928D01*
X90658976Y-111601564D01*
X90661003Y-111672532D01*
X90624341Y-111733329D01*
X90560629Y-111764655D01*
X90539143Y-111766500D01*
X90287787Y-111766500D01*
X90185619Y-111776937D01*
X90020079Y-111831791D01*
X89871653Y-111923342D01*
X89871647Y-111923347D01*
X89748347Y-112046647D01*
X89748342Y-112046653D01*
X89656791Y-112195080D01*
X89601937Y-112360622D01*
X89591500Y-112462778D01*
X87750000Y-112462778D01*
X87750000Y-109175445D01*
X87770002Y-109107324D01*
X87823658Y-109060831D01*
X87876000Y-109049445D01*
X89432844Y-109049445D01*
X89432845Y-109049445D01*
X89555236Y-109025100D01*
X89570443Y-109018800D01*
X89592679Y-109009591D01*
X89640896Y-109000000D01*
X90602101Y-109000000D01*
X90670222Y-109020002D01*
G37*
%TD.AperFunction*%
%TD*%
M02*
