M48
; DRILL file {KiCad 8.0.5} date 2025-04-26T14:04:12+0200
; FORMAT={-:-/ absolute / inch / decimal}
; #@! TF.CreationDate,2025-04-26T14:04:12+02:00
; #@! TF.GenerationSoftware,Kicad,Pcbnew,8.0.5
; #@! TF.FileFunction,Plated,1,2,PTH
FMAT,2
INCH
; #@! TA.AperFunction,Plated,PTH,ViaDrill
T1C0.0157
%
G90
G05
T1
X2.5298Y-3.8583
X2.5305Y-3.6309
X2.5817Y-3.7304
X2.628Y-4.4882
X2.6378Y-4.2126
X2.6378Y-4.3799
X2.6772Y-4.0748
X2.7067Y-3.6909
X2.7264Y-3.3573
X2.7657Y-3.8248
X2.815Y-4.439
X2.815Y-4.4882
X2.8377Y-3.8819
X2.8538Y-3.5438
X2.8937Y-4.4587
X2.8977Y-4.2008
X2.9035Y-3.9469
X2.9597Y-4.2234
X2.9862Y-3.8386
X2.9921Y-3.9823
X3.0049Y-3.804
X3.0217Y-3.1314
X3.0413Y-3.3553
X3.0512Y-4.0394
X3.0807Y-3.7303
X3.0906Y-3.622
X3.1004Y-4.6161
X3.1104Y-3.9271
X3.1181Y-4.1378
X3.1201Y-4.498
X3.1319Y-4.2047
X3.1331Y-3.6238
X3.1506Y-4.1701
X3.1594Y-4.6161
X3.1673Y-3.5354
X3.1722Y-4.2701
X3.1724Y-3.6212
X3.1791Y-3.7067
X3.1796Y-3.2771
X3.2087Y-3.9569
X3.2186Y-3.9114
X3.2214Y-4.0157
X3.2283Y-3.2776
X3.2784Y-3.6496
X3.2785Y-3.6103
X3.2815Y-4.0846
X3.2847Y-3.3
X3.3071Y-4.6752
X3.3572Y-3.7872
X3.376Y-3.9469
X3.3957Y-4.124
X3.405Y-3.1796
X3.4154Y-3.9469
X3.4252Y-4.498
X3.4547Y-3.6909
X3.4744Y-3.9469
X3.4843Y-4.2028
X3.5138Y-4.1732
X3.5169Y-3.8099
X3.5207Y-3.8769
X3.5925Y-3.3465
X3.6024Y-3.751
X3.6024Y-4.249
X3.6024Y-4.3799
X3.6024Y-4.498
X3.623Y-3.8091
X3.6516Y-4.252
X3.7402Y-3.7992
X3.7402Y-3.8681
X3.7697Y-4.2913
X3.8287Y-4.1634
M30
