%TF.GenerationSoftware,KiCad,Pcbnew,9.0.5*%
%TF.CreationDate,2025-11-11T21:17:13+01:00*%
%TF.ProjectId,vlvts_top,766c7674-735f-4746-9f70-2e6b69636164,rev?*%
%TF.SameCoordinates,Original*%
%TF.FileFunction,Glue,Bot*%
%TF.FilePolarity,Positive*%
%FSLAX46Y46*%
G04 Gerber Fmt 4.6, Leading zero omitted, Abs format (unit mm)*
G04 Created by KiCad (PCBNEW 9.0.5) date 2025-11-11 21:17:13*
%MOMM*%
%LPD*%
G01*
G04 APERTURE LIST*
G04 APERTURE END LIST*
G36*
X81942121Y-115020360D02*
G01*
X81988614Y-115074016D01*
X82000000Y-115126358D01*
X82000000Y-115874000D01*
X81979998Y-115942121D01*
X81926342Y-115988614D01*
X81874000Y-116000000D01*
X77126000Y-116000000D01*
X77057879Y-115979998D01*
X77011386Y-115926342D01*
X77000000Y-115874000D01*
X77000000Y-115126358D01*
X77020002Y-115058237D01*
X77073658Y-115011744D01*
X77126000Y-115000358D01*
X81874000Y-115000358D01*
X81942121Y-115020360D01*
G37*
G36*
X69442121Y-115520002D02*
G01*
X69488614Y-115573658D01*
X69500000Y-115626000D01*
X69500000Y-116374000D01*
X69479998Y-116442121D01*
X69426342Y-116488614D01*
X69374000Y-116500000D01*
X64626000Y-116500000D01*
X64557879Y-116479998D01*
X64511386Y-116426342D01*
X64500000Y-116374000D01*
X64500000Y-115626000D01*
X64520002Y-115557879D01*
X64573658Y-115511386D01*
X64626000Y-115500000D01*
X69374000Y-115500000D01*
X69442121Y-115520002D01*
G37*
G36*
X69442121Y-109020360D02*
G01*
X69488614Y-109074016D01*
X69500000Y-109126358D01*
X69500000Y-109874000D01*
X69479998Y-109942121D01*
X69426342Y-109988614D01*
X69374000Y-110000000D01*
X64626000Y-110000000D01*
X64557879Y-109979998D01*
X64511386Y-109926342D01*
X64500000Y-109874000D01*
X64500000Y-109126358D01*
X64520002Y-109058237D01*
X64573658Y-109011744D01*
X64626000Y-109000358D01*
X69374000Y-109000358D01*
X69442121Y-109020360D01*
G37*
G36*
X81942121Y-121520002D02*
G01*
X81988614Y-121573658D01*
X82000000Y-121626000D01*
X82000000Y-122374000D01*
X81979998Y-122442121D01*
X81926342Y-122488614D01*
X81874000Y-122500000D01*
X77126000Y-122500000D01*
X77057879Y-122479998D01*
X77011386Y-122426342D01*
X77000000Y-122374000D01*
X77000000Y-121626000D01*
X77020002Y-121557879D01*
X77073658Y-121511386D01*
X77126000Y-121500000D01*
X81874000Y-121500000D01*
X81942121Y-121520002D01*
G37*
G36*
X93942121Y-115520002D02*
G01*
X93988614Y-115573658D01*
X94000000Y-115626000D01*
X94000000Y-116374000D01*
X93979998Y-116442121D01*
X93926342Y-116488614D01*
X93874000Y-116500000D01*
X89126000Y-116500000D01*
X89057879Y-116479998D01*
X89011386Y-116426342D01*
X89000000Y-116374000D01*
X89000000Y-115626000D01*
X89020002Y-115557879D01*
X89073658Y-115511386D01*
X89126000Y-115500000D01*
X93874000Y-115500000D01*
X93942121Y-115520002D01*
G37*
G36*
X93942121Y-109020360D02*
G01*
X93988614Y-109074016D01*
X94000000Y-109126358D01*
X94000000Y-109874000D01*
X93979998Y-109942121D01*
X93926342Y-109988614D01*
X93874000Y-110000000D01*
X89126000Y-110000000D01*
X89057879Y-109979998D01*
X89011386Y-109926342D01*
X89000000Y-109874000D01*
X89000000Y-109126358D01*
X89020002Y-109058237D01*
X89073658Y-109011744D01*
X89126000Y-109000358D01*
X93874000Y-109000358D01*
X93942121Y-109020360D01*
G37*
M02*
