%TF.GenerationSoftware,KiCad,Pcbnew,8.0.5*%
%TF.CreationDate,2025-04-26T14:04:24+02:00*%
%TF.ProjectId,vlvts_top,766c7674-735f-4746-9f70-2e6b69636164,rev?*%
%TF.SameCoordinates,Original*%
%TF.FileFunction,Soldermask,Bot*%
%TF.FilePolarity,Negative*%
%FSLAX46Y46*%
G04 Gerber Fmt 4.6, Leading zero omitted, Abs format (unit mm)*
G04 Created by KiCad (PCBNEW 8.0.5) date 2025-04-26 14:04:24*
%MOMM*%
%LPD*%
G01*
G04 APERTURE LIST*
G04 Aperture macros list*
%AMRoundRect*
0 Rectangle with rounded corners*
0 $1 Rounding radius*
0 $2 $3 $4 $5 $6 $7 $8 $9 X,Y pos of 4 corners*
0 Add a 4 corners polygon primitive as box body*
4,1,4,$2,$3,$4,$5,$6,$7,$8,$9,$2,$3,0*
0 Add four circle primitives for the rounded corners*
1,1,$1+$1,$2,$3*
1,1,$1+$1,$4,$5*
1,1,$1+$1,$6,$7*
1,1,$1+$1,$8,$9*
0 Add four rect primitives between the rounded corners*
20,1,$1+$1,$2,$3,$4,$5,0*
20,1,$1+$1,$4,$5,$6,$7,0*
20,1,$1+$1,$6,$7,$8,$9,0*
20,1,$1+$1,$8,$9,$2,$3,0*%
G04 Aperture macros list end*
%ADD10C,2.500000*%
%ADD11RoundRect,0.237500X0.287500X0.237500X-0.287500X0.237500X-0.287500X-0.237500X0.287500X-0.237500X0*%
%ADD12RoundRect,0.237500X-0.237500X0.287500X-0.237500X-0.287500X0.237500X-0.287500X0.237500X0.287500X0*%
%ADD13RoundRect,0.237500X0.237500X-0.287500X0.237500X0.287500X-0.237500X0.287500X-0.237500X-0.287500X0*%
G04 APERTURE END LIST*
D10*
%TO.C,H2*%
X100000000Y-100000000D03*
%TD*%
%TO.C,H1*%
X58000000Y-100000000D03*
%TD*%
D11*
%TO.C,D31*%
X98625000Y-103750000D03*
X96875000Y-103750000D03*
%TD*%
D12*
%TO.C,D29*%
X76000000Y-90375000D03*
X76000000Y-92125000D03*
%TD*%
D11*
%TO.C,D40*%
X67875000Y-112750000D03*
X66125000Y-112750000D03*
%TD*%
%TO.C,D7*%
X76875000Y-94750000D03*
X75125000Y-94750000D03*
%TD*%
%TO.C,D3*%
X84375000Y-100250000D03*
X82625000Y-100250000D03*
%TD*%
%TO.C,D35*%
X62875000Y-104500000D03*
X61125000Y-104500000D03*
%TD*%
%TO.C,D38*%
X92375000Y-112750000D03*
X90625000Y-112750000D03*
%TD*%
%TO.C,D34*%
X63125000Y-98250000D03*
X61375000Y-98250000D03*
%TD*%
%TO.C,D10*%
X76875000Y-100250000D03*
X75125000Y-100250000D03*
%TD*%
D12*
%TO.C,D4*%
X86250000Y-101875000D03*
X86250000Y-103625000D03*
%TD*%
D13*
%TO.C,D5*%
X80750000Y-103625000D03*
X80750000Y-101875000D03*
%TD*%
D11*
%TO.C,D30*%
X65125000Y-91000000D03*
X63375000Y-91000000D03*
%TD*%
%TO.C,D18*%
X85125000Y-79750000D03*
X83375000Y-79750000D03*
%TD*%
%TO.C,D13*%
X76875000Y-105750000D03*
X75125000Y-105750000D03*
%TD*%
D12*
%TO.C,D32*%
X90500000Y-96625000D03*
X90500000Y-98375000D03*
%TD*%
D11*
%TO.C,D24*%
X80375000Y-85250000D03*
X78625000Y-85250000D03*
%TD*%
D12*
%TO.C,D14*%
X69000000Y-96125000D03*
X69000000Y-97875000D03*
%TD*%
D11*
%TO.C,D19*%
X79875000Y-79000000D03*
X78125000Y-79000000D03*
%TD*%
%TO.C,D26*%
X96375000Y-90750000D03*
X94625000Y-90750000D03*
%TD*%
D12*
%TO.C,D8*%
X78750000Y-96875000D03*
X78750000Y-98625000D03*
%TD*%
%TO.C,D2*%
X80750000Y-96875000D03*
X80750000Y-98625000D03*
%TD*%
D11*
%TO.C,D16*%
X94625000Y-85250000D03*
X92875000Y-85250000D03*
%TD*%
%TO.C,D33*%
X91875000Y-104000000D03*
X90125000Y-104000000D03*
%TD*%
%TO.C,D36*%
X83125000Y-110750000D03*
X81375000Y-110750000D03*
%TD*%
%TO.C,D39*%
X80375000Y-118750000D03*
X78625000Y-118750000D03*
%TD*%
%TO.C,D37*%
X76125000Y-111250000D03*
X74375000Y-111250000D03*
%TD*%
D12*
%TO.C,D9*%
X73250000Y-96875000D03*
X73250000Y-98625000D03*
%TD*%
%TO.C,D28*%
X81750000Y-90375000D03*
X81750000Y-92125000D03*
%TD*%
D11*
%TO.C,D25*%
X73125000Y-86250000D03*
X71375000Y-86250000D03*
%TD*%
D12*
%TO.C,D1*%
X86250000Y-96875000D03*
X86250000Y-98625000D03*
%TD*%
D11*
%TO.C,D21*%
X69375000Y-81750000D03*
X67625000Y-81750000D03*
%TD*%
%TO.C,D6*%
X84375000Y-105750000D03*
X82625000Y-105750000D03*
%TD*%
D12*
%TO.C,D12*%
X73250000Y-101875000D03*
X73250000Y-103625000D03*
%TD*%
D11*
%TO.C,D0*%
X84375000Y-94750000D03*
X82625000Y-94750000D03*
%TD*%
D13*
%TO.C,D11*%
X78750000Y-103625000D03*
X78750000Y-101875000D03*
%TD*%
D12*
%TO.C,D15*%
X69000000Y-103375000D03*
X69000000Y-105125000D03*
%TD*%
D11*
%TO.C,D22*%
X65125000Y-85250000D03*
X63375000Y-85250000D03*
%TD*%
%TO.C,D27*%
X97875000Y-96500000D03*
X96125000Y-96500000D03*
%TD*%
%TO.C,D17*%
X90125000Y-81750000D03*
X88375000Y-81750000D03*
%TD*%
%TO.C,D23*%
X88875000Y-88250000D03*
X87125000Y-88250000D03*
%TD*%
%TO.C,D20*%
X74375000Y-79750000D03*
X72625000Y-79750000D03*
%TD*%
M02*
