%TF.GenerationSoftware,KiCad,Pcbnew,9.0.5*%
%TF.CreationDate,2025-11-11T21:17:13+01:00*%
%TF.ProjectId,vlvts_top,766c7674-735f-4746-9f70-2e6b69636164,rev?*%
%TF.SameCoordinates,Original*%
%TF.FileFunction,Paste,Top*%
%TF.FilePolarity,Positive*%
%FSLAX46Y46*%
G04 Gerber Fmt 4.6, Leading zero omitted, Abs format (unit mm)*
G04 Created by KiCad (PCBNEW 9.0.5) date 2025-11-11 21:17:13*
%MOMM*%
%LPD*%
G01*
G04 APERTURE LIST*
G04 Aperture macros list*
%AMRoundRect*
0 Rectangle with rounded corners*
0 $1 Rounding radius*
0 $2 $3 $4 $5 $6 $7 $8 $9 X,Y pos of 4 corners*
0 Add a 4 corners polygon primitive as box body*
4,1,4,$2,$3,$4,$5,$6,$7,$8,$9,$2,$3,0*
0 Add four circle primitives for the rounded corners*
1,1,$1+$1,$2,$3*
1,1,$1+$1,$4,$5*
1,1,$1+$1,$6,$7*
1,1,$1+$1,$8,$9*
0 Add four rect primitives between the rounded corners*
20,1,$1+$1,$2,$3,$4,$5,0*
20,1,$1+$1,$4,$5,$6,$7,0*
20,1,$1+$1,$6,$7,$8,$9,0*
20,1,$1+$1,$8,$9,$2,$3,0*%
%AMRotRect*
0 Rectangle, with rotation*
0 The origin of the aperture is its center*
0 $1 length*
0 $2 width*
0 $3 Rotation angle, in degrees counterclockwise*
0 Add horizontal line*
21,1,$1,$2,0,0,$3*%
G04 Aperture macros list end*
%ADD10RoundRect,0.237500X-0.237500X0.250000X-0.237500X-0.250000X0.237500X-0.250000X0.237500X0.250000X0*%
%ADD11RoundRect,0.237500X0.008839X0.344715X-0.344715X-0.008839X-0.008839X-0.344715X0.344715X0.008839X0*%
%ADD12RoundRect,0.150000X0.587500X0.150000X-0.587500X0.150000X-0.587500X-0.150000X0.587500X-0.150000X0*%
%ADD13RoundRect,0.150000X0.825000X0.150000X-0.825000X0.150000X-0.825000X-0.150000X0.825000X-0.150000X0*%
%ADD14RoundRect,0.237500X0.237500X-0.250000X0.237500X0.250000X-0.237500X0.250000X-0.237500X-0.250000X0*%
%ADD15RoundRect,0.237500X-0.250000X-0.237500X0.250000X-0.237500X0.250000X0.237500X-0.250000X0.237500X0*%
%ADD16RoundRect,0.237500X0.250000X0.237500X-0.250000X0.237500X-0.250000X-0.237500X0.250000X-0.237500X0*%
%ADD17RotRect,1.200000X0.400000X315.000000*%
%ADD18R,0.740000X2.400000*%
%ADD19RoundRect,0.150000X-0.587500X-0.150000X0.587500X-0.150000X0.587500X0.150000X-0.587500X0.150000X0*%
G04 APERTURE END LIST*
D10*
%TO.C,R3*%
X94750000Y-101837500D03*
X94750000Y-103662500D03*
%TD*%
D11*
%TO.C,R2*%
X75645235Y-85854765D03*
X74354765Y-87145235D03*
%TD*%
D12*
%TO.C,Q3*%
X94937500Y-107200000D03*
X94937500Y-105300000D03*
X93062500Y-106250000D03*
%TD*%
D13*
%TO.C,U1*%
X82500000Y-111500000D03*
X82500000Y-110230000D03*
X82500000Y-108960000D03*
X82500000Y-107690000D03*
X82500000Y-106420000D03*
X82500000Y-105150000D03*
X82500000Y-103880000D03*
X77550000Y-103880000D03*
X77550000Y-105150000D03*
X77550000Y-106420000D03*
X77550000Y-107690000D03*
X77550000Y-108960000D03*
X77550000Y-110230000D03*
X77550000Y-111500000D03*
%TD*%
D14*
%TO.C,R1*%
X72500000Y-112912500D03*
X72500000Y-111087500D03*
%TD*%
D10*
%TO.C,R4*%
X93500000Y-94925000D03*
X93500000Y-96750000D03*
%TD*%
D12*
%TO.C,Q1*%
X92937500Y-103700000D03*
X92937500Y-101800000D03*
X91062500Y-102750000D03*
%TD*%
D10*
%TO.C,R7*%
X96500000Y-110087500D03*
X96500000Y-111912500D03*
%TD*%
D15*
%TO.C,R6*%
X85675000Y-119000000D03*
X87500000Y-119000000D03*
%TD*%
D16*
%TO.C,R5*%
X98912500Y-107250000D03*
X97087500Y-107250000D03*
%TD*%
D17*
%TO.C,U5*%
X69131093Y-83691952D03*
X68682080Y-84140965D03*
X68233067Y-84589978D03*
X67784054Y-85038990D03*
X67335042Y-85488003D03*
X66886029Y-85937016D03*
X66437016Y-86386029D03*
X65988003Y-86835042D03*
X65538990Y-87284054D03*
X65089978Y-87733067D03*
X64640965Y-88182080D03*
X64191952Y-88631093D03*
X67868907Y-92308048D03*
X68317920Y-91859035D03*
X68766933Y-91410022D03*
X69215946Y-90961010D03*
X69664958Y-90511997D03*
X70113971Y-90062984D03*
X70562984Y-89613971D03*
X71011997Y-89164958D03*
X71461010Y-88715946D03*
X71910022Y-88266933D03*
X72359035Y-87817920D03*
X72808048Y-87368907D03*
%TD*%
D18*
%TO.C,J2*%
X87190000Y-91950000D03*
X87190000Y-88050000D03*
X88460000Y-91950000D03*
X88460000Y-88050000D03*
X89730000Y-91950000D03*
X89730000Y-88050000D03*
X91000000Y-91950000D03*
X91000000Y-88050000D03*
X92270000Y-91950000D03*
X92270000Y-88050000D03*
X93540000Y-91950000D03*
X93540000Y-88050000D03*
X94810000Y-91950000D03*
X94810000Y-88050000D03*
%TD*%
D19*
%TO.C,Q2*%
X91062500Y-98300000D03*
X91062500Y-100200000D03*
X92937500Y-99250000D03*
%TD*%
M02*
