%TF.GenerationSoftware,KiCad,Pcbnew,9.0.5*%
%TF.CreationDate,2025-11-11T21:17:13+01:00*%
%TF.ProjectId,vlvts_top,766c7674-735f-4746-9f70-2e6b69636164,rev?*%
%TF.SameCoordinates,Original*%
%TF.FileFunction,Copper,L1,Top*%
%TF.FilePolarity,Positive*%
%FSLAX46Y46*%
G04 Gerber Fmt 4.6, Leading zero omitted, Abs format (unit mm)*
G04 Created by KiCad (PCBNEW 9.0.5) date 2025-11-11 21:17:13*
%MOMM*%
%LPD*%
G01*
G04 APERTURE LIST*
G04 Aperture macros list*
%AMRoundRect*
0 Rectangle with rounded corners*
0 $1 Rounding radius*
0 $2 $3 $4 $5 $6 $7 $8 $9 X,Y pos of 4 corners*
0 Add a 4 corners polygon primitive as box body*
4,1,4,$2,$3,$4,$5,$6,$7,$8,$9,$2,$3,0*
0 Add four circle primitives for the rounded corners*
1,1,$1+$1,$2,$3*
1,1,$1+$1,$4,$5*
1,1,$1+$1,$6,$7*
1,1,$1+$1,$8,$9*
0 Add four rect primitives between the rounded corners*
20,1,$1+$1,$2,$3,$4,$5,0*
20,1,$1+$1,$4,$5,$6,$7,0*
20,1,$1+$1,$6,$7,$8,$9,0*
20,1,$1+$1,$8,$9,$2,$3,0*%
%AMRotRect*
0 Rectangle, with rotation*
0 The origin of the aperture is its center*
0 $1 length*
0 $2 width*
0 $3 Rotation angle, in degrees counterclockwise*
0 Add horizontal line*
21,1,$1,$2,0,0,$3*%
G04 Aperture macros list end*
%TA.AperFunction,SMDPad,CuDef*%
%ADD10RoundRect,0.237500X-0.237500X0.250000X-0.237500X-0.250000X0.237500X-0.250000X0.237500X0.250000X0*%
%TD*%
%TA.AperFunction,SMDPad,CuDef*%
%ADD11RoundRect,0.237500X0.008839X0.344715X-0.344715X-0.008839X-0.008839X-0.344715X0.344715X0.008839X0*%
%TD*%
%TA.AperFunction,SMDPad,CuDef*%
%ADD12RoundRect,0.150000X0.587500X0.150000X-0.587500X0.150000X-0.587500X-0.150000X0.587500X-0.150000X0*%
%TD*%
%TA.AperFunction,SMDPad,CuDef*%
%ADD13RoundRect,0.150000X0.825000X0.150000X-0.825000X0.150000X-0.825000X-0.150000X0.825000X-0.150000X0*%
%TD*%
%TA.AperFunction,SMDPad,CuDef*%
%ADD14RoundRect,0.237500X0.237500X-0.250000X0.237500X0.250000X-0.237500X0.250000X-0.237500X-0.250000X0*%
%TD*%
%TA.AperFunction,SMDPad,CuDef*%
%ADD15RoundRect,0.237500X-0.250000X-0.237500X0.250000X-0.237500X0.250000X0.237500X-0.250000X0.237500X0*%
%TD*%
%TA.AperFunction,SMDPad,CuDef*%
%ADD16RoundRect,0.237500X0.250000X0.237500X-0.250000X0.237500X-0.250000X-0.237500X0.250000X-0.237500X0*%
%TD*%
%TA.AperFunction,SMDPad,CuDef*%
%ADD17RotRect,1.200000X0.400000X315.000000*%
%TD*%
%TA.AperFunction,SMDPad,CuDef*%
%ADD18R,0.740000X2.400000*%
%TD*%
%TA.AperFunction,SMDPad,CuDef*%
%ADD19RoundRect,0.150000X-0.587500X-0.150000X0.587500X-0.150000X0.587500X0.150000X-0.587500X0.150000X0*%
%TD*%
%TA.AperFunction,ViaPad*%
%ADD20C,0.800000*%
%TD*%
%TA.AperFunction,Conductor*%
%ADD21C,0.250000*%
%TD*%
%TA.AperFunction,Conductor*%
%ADD22C,0.750000*%
%TD*%
G04 APERTURE END LIST*
D10*
%TO.P,R3,1*%
%TO.N,LEDg1*%
X94750000Y-101837500D03*
%TO.P,R3,2*%
%TO.N,Net-(Q1-G)*%
X94750000Y-103662500D03*
%TD*%
D11*
%TO.P,R2,1*%
%TO.N,GND*%
X75645235Y-85854765D03*
%TO.P,R2,2*%
%TO.N,Net-(U5-REXT)*%
X74354765Y-87145235D03*
%TD*%
D12*
%TO.P,Q3,1,G*%
%TO.N,Net-(Q3-G)*%
X94937500Y-107200000D03*
%TO.P,Q3,2,S*%
%TO.N,VEE*%
X94937500Y-105300000D03*
%TO.P,Q3,3,D*%
%TO.N,Net-(D32-A)*%
X93062500Y-106250000D03*
%TD*%
D13*
%TO.P,U1,1,N/C*%
%TO.N,unconnected-(U1-N{slash}C-Pad1)*%
X82500000Y-111500000D03*
%TO.P,U1,2,CS1*%
%TO.N,BTN_L*%
X82500000Y-110230000D03*
%TO.P,U1,3,~{ALERT}*%
%TO.N,CAP_IRQ*%
X82500000Y-108960000D03*
%TO.P,U1,4,SMDATA*%
%TO.N,CAP_DATA*%
X82500000Y-107690000D03*
%TO.P,U1,5,SMCLK*%
%TO.N,CAP_CLK*%
X82500000Y-106420000D03*
%TO.P,U1,6,N/C*%
%TO.N,unconnected-(U1-N{slash}C-Pad6)*%
X82500000Y-105150000D03*
%TO.P,U1,7,VDD*%
%TO.N,VDD*%
X82500000Y-103880000D03*
%TO.P,U1,8,GND*%
%TO.N,GND*%
X77550000Y-103880000D03*
%TO.P,U1,9,CS6*%
%TO.N,unconnected-(U1-CS6-Pad9)*%
X77550000Y-105150000D03*
%TO.P,U1,10,CS5*%
%TO.N,unconnected-(U1-CS5-Pad10)*%
X77550000Y-106420000D03*
%TO.P,U1,11,CS4*%
%TO.N,BTN_R*%
X77550000Y-107690000D03*
%TO.P,U1,12,CS3/SG*%
%TO.N,BTN_SG*%
X77550000Y-108960000D03*
%TO.P,U1,13,CS2*%
%TO.N,BTN_C*%
X77550000Y-110230000D03*
%TO.P,U1,14,N/C*%
%TO.N,unconnected-(U1-N{slash}C-Pad14)*%
X77550000Y-111500000D03*
%TD*%
D14*
%TO.P,R1,1*%
%TO.N,BTN_L*%
X72500000Y-112912500D03*
%TO.P,R1,2*%
%TO.N,/BTN_TCH_L*%
X72500000Y-111087500D03*
%TD*%
D10*
%TO.P,R4,1*%
%TO.N,LEDg2*%
X93500000Y-94925000D03*
%TO.P,R4,2*%
%TO.N,Net-(Q2-G)*%
X93500000Y-96750000D03*
%TD*%
D12*
%TO.P,Q1,1,G*%
%TO.N,Net-(Q1-G)*%
X92937500Y-103700000D03*
%TO.P,Q1,2,S*%
%TO.N,VEE*%
X92937500Y-101800000D03*
%TO.P,Q1,3,D*%
%TO.N,Net-(D0-A)*%
X91062500Y-102750000D03*
%TD*%
D10*
%TO.P,R7,1*%
%TO.N,BTN_R*%
X96500000Y-110087500D03*
%TO.P,R7,2*%
%TO.N,/BTN_TCH_R*%
X96500000Y-111912500D03*
%TD*%
D15*
%TO.P,R6,1*%
%TO.N,/BTN_TCH_C*%
X85675000Y-119000000D03*
%TO.P,R6,2*%
%TO.N,BTN_C*%
X87500000Y-119000000D03*
%TD*%
D16*
%TO.P,R5,1*%
%TO.N,LEDg3*%
X98912500Y-107250000D03*
%TO.P,R5,2*%
%TO.N,Net-(Q3-G)*%
X97087500Y-107250000D03*
%TD*%
D17*
%TO.P,U5,1,GND*%
%TO.N,GND*%
X69131093Y-83691952D03*
%TO.P,U5,2,SDI*%
%TO.N,LED_SDI*%
X68682080Y-84140965D03*
%TO.P,U5,3,CLK*%
%TO.N,LED_CLK*%
X68233067Y-84589978D03*
%TO.P,U5,4,LA/*%
%TO.N,LED_LA*%
X67784054Y-85038990D03*
%TO.P,U5,5,OUT0*%
%TO.N,Net-(D0-K)*%
X67335042Y-85488003D03*
%TO.P,U5,6,OUT1*%
%TO.N,Net-(D1-K)*%
X66886029Y-85937016D03*
%TO.P,U5,7,OUT2*%
%TO.N,Net-(D18-K)*%
X66437016Y-86386029D03*
%TO.P,U5,8,OUT3*%
%TO.N,Net-(D19-K)*%
X65988003Y-86835042D03*
%TO.P,U5,9,OUT4*%
%TO.N,Net-(D20-K)*%
X65538990Y-87284054D03*
%TO.P,U5,10,OUT5*%
%TO.N,Net-(D21-K)*%
X65089978Y-87733067D03*
%TO.P,U5,11,OUT6*%
%TO.N,Net-(D22-K)*%
X64640965Y-88182080D03*
%TO.P,U5,12,OUT7*%
%TO.N,Net-(D23-K)*%
X64191952Y-88631093D03*
%TO.P,U5,13,OUT8*%
%TO.N,Net-(D24-K)*%
X67868907Y-92308048D03*
%TO.P,U5,14,OUT9*%
%TO.N,Net-(D25-K)*%
X68317920Y-91859035D03*
%TO.P,U5,15,OUT10*%
%TO.N,Net-(D10-K)*%
X68766933Y-91410022D03*
%TO.P,U5,16,OUT11*%
%TO.N,Net-(D11-K)*%
X69215946Y-90961010D03*
%TO.P,U5,17,OUT12*%
%TO.N,Net-(D12-K)*%
X69664958Y-90511997D03*
%TO.P,U5,18,OUT13*%
%TO.N,Net-(D13-K)*%
X70113971Y-90062984D03*
%TO.P,U5,19,OUT14*%
%TO.N,Net-(D14-K)*%
X70562984Y-89613971D03*
%TO.P,U5,20,OUT15*%
%TO.N,Net-(D15-K)*%
X71011997Y-89164958D03*
%TO.P,U5,21,OE/*%
%TO.N,LED_OE*%
X71461010Y-88715946D03*
%TO.P,U5,22,SDO*%
%TO.N,unconnected-(U5-SDO-Pad22)*%
X71910022Y-88266933D03*
%TO.P,U5,23,REXT*%
%TO.N,Net-(U5-REXT)*%
X72359035Y-87817920D03*
%TO.P,U5,24,VDD*%
%TO.N,VEE*%
X72808048Y-87368907D03*
%TD*%
D18*
%TO.P,J2,1,Pin_1*%
%TO.N,CAP_CLK*%
X87190000Y-91950000D03*
%TO.P,J2,2,Pin_2*%
%TO.N,LED_OE*%
X87190000Y-88050000D03*
%TO.P,J2,3,Pin_3*%
%TO.N,CAP_DATA*%
X88460000Y-91950000D03*
%TO.P,J2,4,Pin_4*%
%TO.N,LED_LA*%
X88460000Y-88050000D03*
%TO.P,J2,5,Pin_5*%
%TO.N,CAP_IRQ*%
X89730000Y-91950000D03*
%TO.P,J2,6,Pin_6*%
%TO.N,LED_CLK*%
X89730000Y-88050000D03*
%TO.P,J2,7,Pin_7*%
%TO.N,LEDg1*%
X91000000Y-91950000D03*
%TO.P,J2,8,Pin_8*%
%TO.N,LED_SDI*%
X91000000Y-88050000D03*
%TO.P,J2,9,Pin_9*%
%TO.N,LEDg2*%
X92270000Y-91950000D03*
%TO.P,J2,10,Pin_10*%
%TO.N,GND*%
X92270000Y-88050000D03*
%TO.P,J2,11,Pin_11*%
%TO.N,LEDg3*%
X93540000Y-91950000D03*
%TO.P,J2,12,Pin_12*%
%TO.N,VDD*%
X93540000Y-88050000D03*
%TO.P,J2,13,Pin_13*%
%TO.N,VEE*%
X94810000Y-91950000D03*
%TO.P,J2,14,Pin_14*%
%TO.N,GND*%
X94810000Y-88050000D03*
%TD*%
D19*
%TO.P,Q2,1,G*%
%TO.N,Net-(Q2-G)*%
X91062500Y-98300000D03*
%TO.P,Q2,2,S*%
%TO.N,VEE*%
X91062500Y-100200000D03*
%TO.P,Q2,3,D*%
%TO.N,Net-(D16-A)*%
X92937500Y-99250000D03*
%TD*%
D20*
%TO.N,Net-(D0-K)*%
X83430898Y-83819102D03*
X91250000Y-85000000D03*
X86487700Y-80762300D03*
%TO.N,Net-(D0-A)*%
X87611396Y-102023274D03*
%TO.N,Net-(D1-K)*%
X89328300Y-96772102D03*
X92024500Y-96750000D03*
X82000000Y-83250000D03*
%TO.N,Net-(D18-K)*%
X83272409Y-92700500D03*
X80750000Y-94149500D03*
X80762300Y-83237700D03*
X72078300Y-98599500D03*
X75233107Y-97500000D03*
%TO.N,Net-(D19-K)*%
X85750000Y-100250000D03*
X79296375Y-105196680D03*
X83274500Y-91700902D03*
X83350351Y-102980093D03*
%TO.N,Net-(D20-K)*%
X77900000Y-88125304D03*
X74751680Y-78991735D03*
X80578300Y-91977898D03*
X88250000Y-100250000D03*
X77237347Y-86737347D03*
%TO.N,Net-(D21-K)*%
X75751129Y-79025000D03*
X81889431Y-102225000D03*
X69375000Y-81750000D03*
X76000000Y-84725000D03*
%TO.N,Net-(D22-K)*%
X91500000Y-111250000D03*
X64275000Y-92225000D03*
X90914133Y-107927065D03*
%TO.N,Net-(D23-K)*%
X75225000Y-95900352D03*
X71256198Y-99450000D03*
X67275000Y-100500000D03*
X80250000Y-117250000D03*
%TO.N,Net-(D24-K)*%
X67012653Y-105512653D03*
X67000000Y-111250000D03*
X76000000Y-93725000D03*
X76070794Y-96953844D03*
X73602453Y-106699500D03*
%TO.N,Net-(D25-K)*%
X73250000Y-95254505D03*
%TO.N,Net-(D10-K)*%
X81500688Y-100505305D03*
X83650001Y-101227718D03*
X89425500Y-98472738D03*
X76000000Y-101150500D03*
X91500000Y-95275500D03*
%TO.N,Net-(D11-K)*%
X80025000Y-105920943D03*
X89973417Y-105377583D03*
X75175928Y-107274500D03*
%TO.N,Net-(D12-K)*%
X73750000Y-100250000D03*
X80449799Y-89800201D03*
%TO.N,Net-(D13-K)*%
X77357895Y-91091494D03*
X77499999Y-93000001D03*
X77500000Y-102599500D03*
%TO.N,Net-(D14-K)*%
X72538146Y-91461854D03*
%TO.N,Net-(D15-K)*%
X68000000Y-103500000D03*
X79549198Y-106800497D03*
X88981230Y-106102583D03*
%TO.N,Net-(D16-A)*%
X95000000Y-96500000D03*
%TO.N,Net-(D32-A)*%
X93000000Y-107201000D03*
X78750000Y-117250000D03*
X66750000Y-114000000D03*
X91500000Y-114250000D03*
X84564911Y-111655889D03*
X79000000Y-113000000D03*
X73500000Y-114000000D03*
%TO.N,BTN_L*%
X74723650Y-112323811D03*
X80000000Y-109500000D03*
%TO.N,LED_OE*%
X75693198Y-87832108D03*
X73487347Y-81987347D03*
%TO.N,GND*%
X96200000Y-88000000D03*
X78250000Y-92250001D03*
X76750000Y-79535700D03*
X96254839Y-85836730D03*
X77250000Y-85224500D03*
%TO.N,LEDg3*%
X95000000Y-98250000D03*
X96987347Y-105012653D03*
%TO.N,VDD*%
X91073223Y-105452083D03*
X97877000Y-102812944D03*
%TO.N,VEE*%
X80025000Y-95500000D03*
X78574000Y-95597696D03*
%TO.N,/BTN_TCH_L*%
X71500000Y-111000000D03*
%TO.N,/BTN_TCH_C*%
X84000000Y-118750000D03*
%TO.N,/BTN_TCH_R*%
X96500000Y-113500000D03*
%TO.N,CAP_CLK*%
X85099456Y-108432925D03*
X86000000Y-106965000D03*
%TO.N,CAP_IRQ*%
X85173383Y-103900000D03*
X84000000Y-108500000D03*
X87000000Y-94000000D03*
X83500000Y-97900000D03*
%TO.N,BTN_SG*%
X83500000Y-114000000D03*
%TD*%
D21*
%TO.N,Net-(D0-K)*%
X82062700Y-82062700D02*
X83430898Y-83430898D01*
X67783676Y-85936637D02*
X70563363Y-85936637D01*
X74437300Y-82062700D02*
X82062700Y-82062700D01*
X87012300Y-80762300D02*
X86487700Y-80762300D01*
X83430898Y-83430898D02*
X83430898Y-83819102D01*
X67335042Y-85488003D02*
X67783676Y-85936637D01*
X70563363Y-85936637D02*
X74437300Y-82062700D01*
X91250000Y-85000000D02*
X87012300Y-80762300D01*
%TO.N,Net-(D0-A)*%
X87611396Y-102023274D02*
X88338122Y-102750000D01*
X88338122Y-102750000D02*
X91062500Y-102750000D01*
%TO.N,Net-(D1-K)*%
X70755945Y-86387637D02*
X74630882Y-82512700D01*
X67336650Y-86387637D02*
X70755945Y-86387637D01*
X66886029Y-85937016D02*
X67336650Y-86387637D01*
X91727898Y-96772102D02*
X91750000Y-96750000D01*
X89328300Y-96772102D02*
X91727898Y-96772102D01*
X91750000Y-96750000D02*
X92024500Y-96750000D01*
X74630882Y-82512700D02*
X81262700Y-82512700D01*
X81262700Y-82512700D02*
X82000000Y-83250000D01*
%TO.N,Net-(D18-K)*%
X72078300Y-98599500D02*
X73177800Y-97500000D01*
X83272409Y-92727591D02*
X81850500Y-94149500D01*
X75233107Y-97500000D02*
X73177800Y-97500000D01*
X80624600Y-83100000D02*
X80762300Y-83237700D01*
X83272409Y-92700500D02*
X83272409Y-92727591D01*
X74681392Y-83100000D02*
X80624600Y-83100000D01*
X80750000Y-94149500D02*
X81850500Y-94149500D01*
X66437016Y-86386029D02*
X66889624Y-86838637D01*
X70942755Y-86838637D02*
X74681392Y-83100000D01*
X66889624Y-86838637D02*
X70942755Y-86838637D01*
%TO.N,Net-(D19-K)*%
X84945402Y-93568202D02*
X86900000Y-95522800D01*
X79296375Y-105196680D02*
X81512962Y-102980093D01*
X65988003Y-86835042D02*
X66442598Y-87289637D01*
X84000000Y-93895592D02*
X86000000Y-95895592D01*
X71128151Y-87289637D02*
X74867788Y-83550000D01*
X87899695Y-100975000D02*
X87475000Y-100550305D01*
X86000000Y-100000000D02*
X85750000Y-100250000D01*
X82524799Y-89289500D02*
X84945402Y-91710103D01*
X79322792Y-83550000D02*
X82524799Y-86752007D01*
X82524799Y-86752007D02*
X82524799Y-89289500D01*
X84945402Y-91710103D02*
X84945402Y-93568202D01*
X86000000Y-95895592D02*
X86000000Y-100000000D01*
X86449695Y-99525000D02*
X85750000Y-100224695D01*
X74867788Y-83550000D02*
X79322792Y-83550000D01*
X85750000Y-100224695D02*
X85750000Y-100250000D01*
X87475000Y-100550305D02*
X87475000Y-99949695D01*
X88975000Y-100550305D02*
X88550305Y-100975000D01*
X87050305Y-99525000D02*
X86449695Y-99525000D01*
X87475000Y-99949695D02*
X87050305Y-99525000D01*
X83298116Y-91700902D02*
X84000000Y-92402786D01*
X88975000Y-99949695D02*
X88975000Y-100550305D01*
X84000000Y-92402786D02*
X84000000Y-93895592D01*
X83274500Y-91700902D02*
X83298116Y-91700902D01*
X86900000Y-95522800D02*
X86900000Y-97874695D01*
X81512962Y-102980093D02*
X83350351Y-102980093D01*
X88550305Y-100975000D02*
X87899695Y-100975000D01*
X86900000Y-97874695D02*
X88975000Y-99949695D01*
X66442598Y-87289637D02*
X71128151Y-87289637D01*
%TO.N,Net-(D20-K)*%
X74751680Y-78991735D02*
X72294362Y-78991735D01*
X84495402Y-93754598D02*
X84495402Y-91896499D01*
X86450000Y-98288299D02*
X88250000Y-100088299D01*
X82074799Y-90675201D02*
X80772102Y-91977898D01*
X69685235Y-82500000D02*
X68786097Y-82500000D01*
X65096318Y-86189779D02*
X65096318Y-86841382D01*
X72294362Y-78991735D02*
X70598000Y-80688097D01*
X65096318Y-86841382D02*
X65538990Y-87284054D01*
X80772102Y-91977898D02*
X80578300Y-91977898D01*
X77900000Y-87400000D02*
X77237347Y-86737347D01*
X86450000Y-98288299D02*
X86450000Y-95709196D01*
X88250000Y-100088299D02*
X88250000Y-100250000D01*
X70598000Y-81587235D02*
X69685235Y-82500000D01*
X84495402Y-91896499D02*
X83274104Y-90675201D01*
X77900000Y-88125304D02*
X77900000Y-87400000D01*
X83274104Y-90675201D02*
X82074799Y-90675201D01*
X86450000Y-95709196D02*
X84495402Y-93754598D01*
X70598000Y-80688097D02*
X70598000Y-81587235D01*
X68786097Y-82500000D02*
X65096318Y-86189779D01*
%TO.N,Net-(D21-K)*%
X79299000Y-99968147D02*
X81555853Y-102225000D01*
X68850000Y-81750000D02*
X64645318Y-85954682D01*
X81626799Y-87126799D02*
X81626799Y-90373201D01*
X75751129Y-78964464D02*
X75052400Y-78265735D01*
X80748102Y-91251898D02*
X80277580Y-91251898D01*
X64647305Y-87290394D02*
X64647305Y-86866177D01*
X72148287Y-78500000D02*
X73000000Y-78500000D01*
X69375000Y-81750000D02*
X68850000Y-81750000D01*
X80277580Y-91251898D02*
X79500000Y-92029478D01*
X79500000Y-92029478D02*
X79500000Y-94950586D01*
X79299000Y-95151586D02*
X79299000Y-99968147D01*
X73000000Y-78500000D02*
X73234265Y-78265735D01*
X64645318Y-85954682D02*
X64645318Y-86866177D01*
X69375000Y-81273287D02*
X72148287Y-78500000D01*
X81626799Y-90373201D02*
X80748102Y-91251898D01*
X79500000Y-94950586D02*
X79299000Y-95151586D01*
X75751129Y-79025000D02*
X75751129Y-78964464D01*
X76225000Y-84500000D02*
X79000000Y-84500000D01*
X76000000Y-84725000D02*
X76225000Y-84500000D01*
X65089978Y-87733067D02*
X64647305Y-87290394D01*
X73234265Y-78265735D02*
X75052400Y-78265735D01*
X81555853Y-102225000D02*
X81889431Y-102225000D01*
X79000000Y-84500000D02*
X81626799Y-87126799D01*
X69375000Y-81273287D02*
X69375000Y-81750000D01*
%TO.N,Net-(D22-K)*%
X90914133Y-108077249D02*
X91500000Y-108663116D01*
X65083637Y-88624752D02*
X65083637Y-89916363D01*
X64142769Y-92225000D02*
X64275000Y-92225000D01*
X64640965Y-88182080D02*
X65083637Y-88624752D01*
X91500000Y-108663116D02*
X91500000Y-111250000D01*
X64275000Y-90725000D02*
X64275000Y-92225000D01*
X90914133Y-107927065D02*
X90914133Y-108077249D01*
X65083637Y-89916363D02*
X64275000Y-90725000D01*
%TO.N,Net-(D23-K)*%
X73081232Y-96569848D02*
X74555504Y-96569848D01*
X67275000Y-100500000D02*
X67275000Y-99934188D01*
X64191952Y-89808048D02*
X64191952Y-88631093D01*
X80250000Y-113223280D02*
X79300720Y-112274000D01*
X75748694Y-112274000D02*
X67275000Y-103800305D01*
X79300720Y-112274000D02*
X75748694Y-112274000D01*
X67275000Y-103800305D02*
X67275000Y-100500000D01*
X67275000Y-99934188D02*
X62000000Y-94659188D01*
X71256198Y-98394882D02*
X71256198Y-99450000D01*
X80250000Y-117250000D02*
X80250000Y-113223280D01*
X62000000Y-92000000D02*
X64191952Y-89808048D01*
X73081232Y-96569848D02*
X71256198Y-98394882D01*
X74555504Y-96569848D02*
X75225000Y-95900352D01*
X62000000Y-94659188D02*
X62000000Y-92000000D01*
%TO.N,Net-(D24-K)*%
X76000000Y-97759827D02*
X76000000Y-93725000D01*
X67000000Y-107000000D02*
X67000000Y-105525306D01*
X73025000Y-100550305D02*
X73025000Y-99949695D01*
X67000000Y-105525306D02*
X67012653Y-105512653D01*
X67000000Y-108000000D02*
X67000000Y-107000000D01*
X73602453Y-101127758D02*
X73602453Y-106699500D01*
X67868907Y-97747189D02*
X68060859Y-97939141D01*
X74749695Y-98225000D02*
X75534827Y-98225000D01*
X70672024Y-100550305D02*
X73025000Y-100550305D01*
X68060859Y-97939141D02*
X70672024Y-100550305D01*
X67000000Y-111250000D02*
X67000000Y-108000000D01*
X73025000Y-99949695D02*
X74749695Y-98225000D01*
X75534827Y-98225000D02*
X76000000Y-97759827D01*
X67868907Y-92308048D02*
X67868907Y-97747189D01*
X73025000Y-100550305D02*
X73602453Y-101127758D01*
%TO.N,Net-(D25-K)*%
X71000000Y-94541115D02*
X72536610Y-94541115D01*
X72536610Y-94541115D02*
X73250000Y-95254505D01*
X68317920Y-91859035D02*
X71000000Y-94541115D01*
%TO.N,Net-(D10-K)*%
X83650001Y-101227718D02*
X83422283Y-101000000D01*
X68324261Y-90967350D02*
X67900043Y-90967350D01*
X72877453Y-103627453D02*
X72877453Y-106999805D01*
X73902758Y-107424500D02*
X76000000Y-105327258D01*
X73302148Y-107424500D02*
X73902758Y-107424500D01*
X66977222Y-97727222D02*
X72877453Y-103627453D01*
X72877453Y-106999805D02*
X73302148Y-107424500D01*
X88500000Y-97547238D02*
X89425500Y-98472738D01*
X88500000Y-96575097D02*
X88500000Y-97547238D01*
X89799597Y-95275500D02*
X88500000Y-96575097D01*
X81995383Y-101000000D02*
X81500688Y-100505305D01*
X91500000Y-95275500D02*
X89799597Y-95275500D01*
X67900043Y-90967350D02*
X66977222Y-91890171D01*
X68766933Y-91410022D02*
X68324261Y-90967350D01*
X66977222Y-91890171D02*
X66977222Y-97727222D01*
X83422283Y-101000000D02*
X81995383Y-101000000D01*
X76000000Y-105327258D02*
X76000000Y-101150500D01*
%TO.N,Net-(D11-K)*%
X73115752Y-107874500D02*
X74575928Y-107874500D01*
X84379905Y-105377583D02*
X89973417Y-105377583D01*
X74575928Y-107874500D02*
X75175928Y-107274500D01*
X66500000Y-91729583D02*
X66500000Y-97886396D01*
X72427453Y-107186201D02*
X73115752Y-107874500D01*
X72427453Y-103813849D02*
X72427453Y-107186201D01*
X67713233Y-90516350D02*
X66500000Y-91729583D01*
X83508322Y-104506000D02*
X81439943Y-104506000D01*
X66500000Y-97886396D02*
X72427453Y-103813849D01*
X81439943Y-104506000D02*
X80025000Y-105920943D01*
X69215946Y-90961010D02*
X68771286Y-90516350D01*
X83508322Y-104506000D02*
X84379905Y-105377583D01*
X68771286Y-90516350D02*
X67713233Y-90516350D01*
%TO.N,Net-(D12-K)*%
X75750000Y-100250000D02*
X76796794Y-99203206D01*
X76474695Y-93000000D02*
X79674494Y-89800201D01*
X76796794Y-93322099D02*
X76773999Y-93299304D01*
X73750000Y-100250000D02*
X75750000Y-100250000D01*
X69664958Y-90511997D02*
X72152961Y-93000000D01*
X76796794Y-99203206D02*
X76796794Y-93322099D01*
X76773999Y-93299304D02*
X76474695Y-93000000D01*
X72152961Y-93000000D02*
X76474695Y-93000000D01*
X79674494Y-89800201D02*
X80449799Y-89800201D01*
%TO.N,Net-(D13-K)*%
X70113971Y-90062984D02*
X72289286Y-92238299D01*
X72289286Y-92238299D02*
X76600000Y-92238299D01*
X77499999Y-93000001D02*
X77335653Y-93164347D01*
X77775000Y-102324500D02*
X77500000Y-102599500D01*
X77335653Y-93164347D02*
X77335653Y-96060653D01*
X77357895Y-91480404D02*
X76600000Y-92238299D01*
X77335653Y-96060653D02*
X77775000Y-96500000D01*
X77775000Y-96500000D02*
X77775000Y-102324500D01*
X77357895Y-91091494D02*
X77357895Y-91480404D01*
%TO.N,Net-(D14-K)*%
X72410867Y-91461854D02*
X72538146Y-91461854D01*
X70562984Y-89613971D02*
X72410867Y-91461854D01*
%TO.N,Net-(D15-K)*%
X83526322Y-105794000D02*
X81178663Y-105794000D01*
X81178663Y-105794000D02*
X80172166Y-106800497D01*
X66049000Y-91542773D02*
X68869487Y-88722286D01*
X68000000Y-100022792D02*
X66049000Y-98071792D01*
X68869487Y-88722286D02*
X70569325Y-88722286D01*
X66049000Y-98071792D02*
X66049000Y-91542773D01*
X70569325Y-88722286D02*
X71011997Y-89164958D01*
X68000000Y-103500000D02*
X68000000Y-100022792D01*
X80172166Y-106800497D02*
X79549198Y-106800497D01*
X83526322Y-105794000D02*
X83834905Y-106102583D01*
X83834905Y-106102583D02*
X88981230Y-106102583D01*
%TO.N,Net-(D16-A)*%
X95000000Y-97187500D02*
X95000000Y-96500000D01*
X92937500Y-99250000D02*
X95000000Y-97187500D01*
%TO.N,Net-(D32-A)*%
X91500000Y-114250000D02*
X87159022Y-114250000D01*
X78750000Y-114750000D02*
X79000000Y-114500000D01*
X93062500Y-107138500D02*
X93000000Y-107201000D01*
X66750000Y-114000000D02*
X73500000Y-114000000D01*
X78750000Y-117250000D02*
X78750000Y-114750000D01*
X79000000Y-113000000D02*
X79000000Y-114500000D01*
X93062500Y-106250000D02*
X93062500Y-107138500D01*
X84564911Y-111655889D02*
X87159022Y-114250000D01*
%TO.N,BTN_L*%
X73088689Y-112323811D02*
X72500000Y-112912500D01*
X74723650Y-112323811D02*
X73088689Y-112323811D01*
X80730000Y-110230000D02*
X80000000Y-109500000D01*
X82500000Y-110230000D02*
X80730000Y-110230000D01*
%TO.N,LED_OE*%
X87190000Y-86553604D02*
X82249096Y-81612700D01*
X82249096Y-81612700D02*
X73867766Y-81612700D01*
X71461010Y-88715946D02*
X71903682Y-89158618D01*
X74366688Y-89158618D02*
X75693198Y-87832108D01*
X73867766Y-81612700D02*
X73861994Y-81612700D01*
X73861994Y-81612700D02*
X73487347Y-81987347D01*
X87190000Y-88050000D02*
X87190000Y-86553604D01*
X71903682Y-89158618D02*
X74366688Y-89158618D01*
%TO.N,BTN_C*%
X78703280Y-110230000D02*
X87473280Y-119000000D01*
X77550000Y-110230000D02*
X78703280Y-110230000D01*
X87473280Y-119000000D02*
X87500000Y-119000000D01*
%TO.N,LED_LA*%
X88460000Y-88050000D02*
X88460000Y-87187208D01*
X88460000Y-87187208D02*
X82435492Y-81162700D01*
X68230701Y-85485637D02*
X69922590Y-85485637D01*
X67784054Y-85038990D02*
X68230701Y-85485637D01*
X72837300Y-81162700D02*
X72500000Y-81500000D01*
X72500000Y-82908227D02*
X72500000Y-81500000D01*
X69922590Y-85485637D02*
X72500000Y-82908227D01*
X82435492Y-81162700D02*
X72837300Y-81162700D01*
%TO.N,BTN_R*%
X88827280Y-109604000D02*
X91199280Y-111976000D01*
X91199280Y-111976000D02*
X94611500Y-111976000D01*
X79577678Y-107690000D02*
X81491678Y-109604000D01*
X94611500Y-111976000D02*
X96500000Y-110087500D01*
X77550000Y-107690000D02*
X79577678Y-107690000D01*
X81491678Y-109604000D02*
X88827280Y-109604000D01*
%TO.N,LED_CLK*%
X72049000Y-81313190D02*
X72650490Y-80711700D01*
X89730000Y-87210000D02*
X89730000Y-88050000D01*
X69735780Y-85034637D02*
X72049000Y-82721417D01*
X72650490Y-80711700D02*
X73885712Y-80711700D01*
X72049000Y-82721417D02*
X72049000Y-81313190D01*
X73885712Y-80711700D02*
X73886712Y-80712700D01*
X68233067Y-84589978D02*
X68677726Y-85034637D01*
X68677726Y-85034637D02*
X69735780Y-85034637D01*
X83232700Y-80712700D02*
X89730000Y-87210000D01*
X73886712Y-80712700D02*
X83232700Y-80712700D01*
%TO.N,LEDg1*%
X92221751Y-102500000D02*
X91500000Y-101778249D01*
X91000000Y-92780000D02*
X88050000Y-95730000D01*
X94087500Y-102500000D02*
X92221751Y-102500000D01*
X90000000Y-100250000D02*
X90000000Y-100750000D01*
X90000000Y-100750000D02*
X91000000Y-101750000D01*
X88050000Y-95730000D02*
X88050000Y-98300000D01*
X94750000Y-101837500D02*
X94087500Y-102500000D01*
X91000000Y-91950000D02*
X91000000Y-92780000D01*
X91000000Y-101750000D02*
X91500000Y-101750000D01*
X88050000Y-98300000D02*
X90000000Y-100250000D01*
X91500000Y-101778249D02*
X91500000Y-101750000D01*
%TO.N,LED_SDI*%
X69124752Y-84583637D02*
X69548970Y-84583637D01*
X91000000Y-88050000D02*
X91000000Y-87210000D01*
X91000000Y-87210000D02*
X84050700Y-80260700D01*
X69548970Y-84583637D02*
X71500000Y-82632607D01*
X72463680Y-80260700D02*
X71500000Y-81224380D01*
X84050700Y-80260700D02*
X72463680Y-80260700D01*
X71500000Y-82632607D02*
X71500000Y-81224380D01*
X68682080Y-84140965D02*
X69124752Y-84583637D01*
%TO.N,LEDg2*%
X92270000Y-91950000D02*
X92270000Y-93695000D01*
X92270000Y-93695000D02*
X93500000Y-94925000D01*
%TO.N,GND*%
X96150000Y-88050000D02*
X96200000Y-88000000D01*
X76619735Y-85854765D02*
X75645235Y-85854765D01*
X76535700Y-79750000D02*
X76750000Y-79535700D01*
X96254839Y-85836730D02*
X91006730Y-85836730D01*
X77250000Y-85224500D02*
X76619735Y-85854765D01*
X69131093Y-83691952D02*
X71049000Y-81774045D01*
X72173907Y-79750000D02*
X76500000Y-79750000D01*
X92270000Y-88050000D02*
X92270000Y-87100000D01*
X84238295Y-79538200D02*
X86187395Y-81487300D01*
X78226000Y-103204000D02*
X78226000Y-96275000D01*
X76500000Y-79750000D02*
X76538200Y-79750000D01*
X86187395Y-81487300D02*
X86657300Y-81487300D01*
X78250000Y-94748586D02*
X78250000Y-92250001D01*
X77951000Y-96000000D02*
X77786653Y-95835653D01*
X77786653Y-95835653D02*
X77786653Y-95211933D01*
X76750000Y-79538200D02*
X84238295Y-79538200D01*
X94810000Y-88050000D02*
X96150000Y-88050000D01*
X78226000Y-96275000D02*
X77951000Y-96000000D01*
X92270000Y-87100000D02*
X91085000Y-85915000D01*
X77786653Y-95211933D02*
X78250000Y-94748586D01*
X76500000Y-79750000D02*
X76535700Y-79750000D01*
X94810000Y-88050000D02*
X94810000Y-87220000D01*
X91006730Y-85836730D02*
X91085000Y-85915000D01*
X77550000Y-103880000D02*
X78226000Y-103204000D01*
X71049000Y-81774045D02*
X71049000Y-80874907D01*
X86657300Y-81487300D02*
X91006730Y-85836730D01*
X71049000Y-80874907D02*
X72173907Y-79750000D01*
%TO.N,LEDg3*%
X96987347Y-105324847D02*
X98912500Y-107250000D01*
X96987347Y-105012653D02*
X96987347Y-105324847D01*
X93540000Y-91950000D02*
X93540000Y-92890000D01*
X95750000Y-97500000D02*
X95000000Y-98250000D01*
X95750000Y-95100000D02*
X95750000Y-97500000D01*
X93540000Y-92890000D02*
X95750000Y-95100000D01*
%TO.N,VDD*%
X82500000Y-103880000D02*
X83657000Y-103880000D01*
X96500000Y-87000000D02*
X97603000Y-88103000D01*
X96024000Y-86524000D02*
X96500000Y-87000000D01*
X97603000Y-88103000D02*
X97603000Y-102500000D01*
X97750060Y-102939884D02*
X97877000Y-102812944D01*
X83657000Y-103880000D02*
X84403000Y-104626000D01*
X91073223Y-105452083D02*
X90247140Y-104626000D01*
X93540000Y-88050000D02*
X93540000Y-87098000D01*
X94114000Y-86524000D02*
X96024000Y-86524000D01*
X97603000Y-102500000D02*
X97603000Y-102939884D01*
X90247140Y-104626000D02*
X84403000Y-104626000D01*
X93540000Y-87098000D02*
X94114000Y-86524000D01*
X97603000Y-102939884D02*
X97750060Y-102939884D01*
%TO.N,VEE*%
X80026201Y-90526201D02*
X78975999Y-91576403D01*
D22*
X87745727Y-103626000D02*
X90626000Y-103626000D01*
X95331891Y-100500000D02*
X93000000Y-100500000D01*
D21*
X80750519Y-90526201D02*
X80026201Y-90526201D01*
D22*
X84476000Y-100356273D02*
X87745727Y-103626000D01*
D21*
X75707813Y-86820003D02*
X75179997Y-86820003D01*
X78574000Y-95062396D02*
X78574000Y-95597696D01*
X78975999Y-91576403D02*
X78975999Y-92550721D01*
X78975999Y-94660397D02*
X78574000Y-95062396D01*
X80750519Y-89074201D02*
X81088159Y-89411841D01*
D22*
X90626000Y-103626000D02*
X92000000Y-105000000D01*
D21*
X81175799Y-89499481D02*
X81175799Y-90100921D01*
X75179997Y-86820003D02*
X74359994Y-86000000D01*
X96250000Y-94963604D02*
X96250000Y-100000000D01*
D22*
X94637500Y-105000000D02*
X92000000Y-105000000D01*
D21*
X78975999Y-92550721D02*
X78975999Y-94660397D01*
X94810000Y-93523604D02*
X96250000Y-94963604D01*
X96250000Y-100000000D02*
X95540946Y-100709054D01*
D22*
X95540946Y-100709054D02*
X95331891Y-100500000D01*
D21*
X77822177Y-89074201D02*
X80750519Y-89074201D01*
X80750519Y-89074201D02*
X81175799Y-89499481D01*
D22*
X92937500Y-101800000D02*
X92937500Y-100562500D01*
D21*
X94810000Y-91950000D02*
X94810000Y-93523604D01*
X76419198Y-87671222D02*
X76419198Y-87531388D01*
D22*
X93000000Y-100500000D02*
X91362500Y-100500000D01*
X95031891Y-105300000D02*
X96000000Y-104331891D01*
X96000000Y-104331891D02*
X96000000Y-101168109D01*
D21*
X76419198Y-87531388D02*
X75707813Y-86820003D01*
X76419198Y-87671222D02*
X77822177Y-89074201D01*
X74359994Y-86000000D02*
X74176955Y-86000000D01*
D22*
X92937500Y-100562500D02*
X93000000Y-100500000D01*
X91362500Y-100500000D02*
X91062500Y-100200000D01*
D21*
X81175799Y-90100921D02*
X80750519Y-90526201D01*
D22*
X94937500Y-105300000D02*
X94637500Y-105000000D01*
X96000000Y-101168109D02*
X95540946Y-100709054D01*
X82480273Y-95500000D02*
X84476000Y-97495727D01*
X94937500Y-105300000D02*
X95031891Y-105300000D01*
D21*
X74176955Y-86000000D02*
X72808048Y-87368907D01*
D22*
X80025000Y-95500000D02*
X82480273Y-95500000D01*
X84476000Y-97495727D02*
X84476000Y-100356273D01*
D21*
%TO.N,Net-(Q1-G)*%
X92937500Y-103700000D02*
X94712500Y-103700000D01*
X94712500Y-103700000D02*
X94750000Y-103662500D01*
%TO.N,Net-(Q2-G)*%
X91950000Y-98300000D02*
X93500000Y-96750000D01*
X91062500Y-98300000D02*
X91950000Y-98300000D01*
%TO.N,Net-(Q3-G)*%
X94937500Y-107200000D02*
X97037500Y-107200000D01*
X97037500Y-107200000D02*
X97087500Y-107250000D01*
%TO.N,Net-(U5-REXT)*%
X72801707Y-88260592D02*
X73239408Y-88260592D01*
X72359035Y-87817920D02*
X72801707Y-88260592D01*
X73239408Y-88260592D02*
X74354765Y-87145235D01*
%TO.N,/BTN_TCH_L*%
X71587500Y-111087500D02*
X71500000Y-111000000D01*
X72500000Y-111087500D02*
X71587500Y-111087500D01*
%TO.N,/BTN_TCH_C*%
X85675000Y-119000000D02*
X84250000Y-119000000D01*
X84250000Y-119000000D02*
X84000000Y-118750000D01*
%TO.N,/BTN_TCH_R*%
X96500000Y-111912500D02*
X96500000Y-113500000D01*
%TO.N,CAP_CLK*%
X87190000Y-90998000D02*
X87190000Y-91950000D01*
X87067075Y-108432925D02*
X88000000Y-107500000D01*
X91171734Y-107157946D02*
X92665788Y-108652000D01*
X99439300Y-108652000D02*
X92665788Y-108652000D01*
X88000000Y-107500000D02*
X90315893Y-107500000D01*
X90315893Y-107500000D02*
X90657947Y-107157946D01*
X88215000Y-89973000D02*
X87190000Y-90998000D01*
X90657947Y-107157946D02*
X91171734Y-107157946D01*
X85099456Y-108432925D02*
X87067075Y-108432925D01*
X82500000Y-106420000D02*
X83045000Y-106965000D01*
X97152000Y-103514190D02*
X97152000Y-91438190D01*
X95686810Y-89973000D02*
X88215000Y-89973000D01*
X100177000Y-106539190D02*
X97152000Y-103514190D01*
X99439300Y-108652000D02*
X100177000Y-107914300D01*
X100177000Y-107914300D02*
X100177000Y-106539190D01*
X83045000Y-106965000D02*
X86000000Y-106965000D01*
X97152000Y-91438190D02*
X95686810Y-89973000D01*
%TO.N,CAP_IRQ*%
X82896978Y-101500000D02*
X85173383Y-103776405D01*
X82500000Y-108960000D02*
X83540000Y-108960000D01*
X89730000Y-91950000D02*
X89730000Y-92780000D01*
X83540000Y-108960000D02*
X84000000Y-108500000D01*
X80774688Y-100806025D02*
X81468663Y-101500000D01*
X85173383Y-103776405D02*
X85173383Y-103900000D01*
X83500000Y-97900000D02*
X82695316Y-97900000D01*
X89730000Y-92780000D02*
X88510000Y-94000000D01*
X82695316Y-97900000D02*
X80774688Y-99820628D01*
X81468663Y-101500000D02*
X82896978Y-101500000D01*
X80774688Y-99820628D02*
X80774688Y-100806025D01*
X88510000Y-94000000D02*
X87000000Y-94000000D01*
%TO.N,CAP_DATA*%
X92973280Y-108201000D02*
X99252490Y-108201000D01*
X87500000Y-107000000D02*
X86810000Y-107690000D01*
X95500000Y-90424000D02*
X89034000Y-90424000D01*
X90000000Y-107000000D02*
X90293054Y-106706946D01*
X96701000Y-91625000D02*
X95500000Y-90424000D01*
X86810000Y-107690000D02*
X82500000Y-107690000D01*
X90293054Y-106706946D02*
X91479226Y-106706946D01*
X99252490Y-108201000D02*
X99726000Y-107727490D01*
X88460000Y-90998000D02*
X88460000Y-91950000D01*
X96701000Y-103701000D02*
X96701000Y-91625000D01*
X99726000Y-107727490D02*
X99726000Y-106726000D01*
X89034000Y-90424000D02*
X88460000Y-90998000D01*
X90000000Y-107000000D02*
X87500000Y-107000000D01*
X91479226Y-106706946D02*
X92973280Y-108201000D01*
X99726000Y-106726000D02*
X96701000Y-103701000D01*
%TO.N,BTN_SG*%
X78307678Y-108960000D02*
X83347678Y-114000000D01*
X77550000Y-108960000D02*
X78307678Y-108960000D01*
X83347678Y-114000000D02*
X83500000Y-114000000D01*
%TD*%
M02*
