%TF.GenerationSoftware,KiCad,Pcbnew,8.0.5*%
%TF.CreationDate,2025-04-26T14:04:23+02:00*%
%TF.ProjectId,vlvts_top,766c7674-735f-4746-9f70-2e6b69636164,rev?*%
%TF.SameCoordinates,Original*%
%TF.FileFunction,Paste,Top*%
%TF.FilePolarity,Positive*%
%FSLAX46Y46*%
G04 Gerber Fmt 4.6, Leading zero omitted, Abs format (unit mm)*
G04 Created by KiCad (PCBNEW 8.0.5) date 2025-04-26 14:04:23*
%MOMM*%
%LPD*%
G01*
G04 APERTURE LIST*
G04 Aperture macros list*
%AMRoundRect*
0 Rectangle with rounded corners*
0 $1 Rounding radius*
0 $2 $3 $4 $5 $6 $7 $8 $9 X,Y pos of 4 corners*
0 Add a 4 corners polygon primitive as box body*
4,1,4,$2,$3,$4,$5,$6,$7,$8,$9,$2,$3,0*
0 Add four circle primitives for the rounded corners*
1,1,$1+$1,$2,$3*
1,1,$1+$1,$4,$5*
1,1,$1+$1,$6,$7*
1,1,$1+$1,$8,$9*
0 Add four rect primitives between the rounded corners*
20,1,$1+$1,$2,$3,$4,$5,0*
20,1,$1+$1,$4,$5,$6,$7,0*
20,1,$1+$1,$6,$7,$8,$9,0*
20,1,$1+$1,$8,$9,$2,$3,0*%
G04 Aperture macros list end*
%ADD10RoundRect,0.237500X-0.237500X0.250000X-0.237500X-0.250000X0.237500X-0.250000X0.237500X0.250000X0*%
%ADD11RoundRect,0.237500X0.344715X-0.008839X-0.008839X0.344715X-0.344715X0.008839X0.008839X-0.344715X0*%
%ADD12RoundRect,0.150000X0.587500X0.150000X-0.587500X0.150000X-0.587500X-0.150000X0.587500X-0.150000X0*%
%ADD13RoundRect,0.237500X0.250000X0.237500X-0.250000X0.237500X-0.250000X-0.237500X0.250000X-0.237500X0*%
%ADD14RoundRect,0.137500X-0.707107X0.512652X0.512652X-0.707107X0.707107X-0.512652X-0.512652X0.707107X0*%
%ADD15R,0.740000X2.400000*%
%ADD16RoundRect,0.150000X-0.587500X-0.150000X0.587500X-0.150000X0.587500X0.150000X-0.587500X0.150000X0*%
G04 APERTURE END LIST*
D10*
%TO.C,R3*%
X94750000Y-101837500D03*
X94750000Y-103662500D03*
%TD*%
D11*
%TO.C,R2*%
X80540470Y-88040470D03*
X79250000Y-86750000D03*
%TD*%
D12*
%TO.C,Q3*%
X94937500Y-107200000D03*
X94937500Y-105300000D03*
X93062500Y-106250000D03*
%TD*%
D10*
%TO.C,R4*%
X93500000Y-94925000D03*
X93500000Y-96750000D03*
%TD*%
D12*
%TO.C,Q1*%
X92937500Y-103700000D03*
X92937500Y-101800000D03*
X91062500Y-102750000D03*
%TD*%
D13*
%TO.C,R5*%
X98912500Y-107250000D03*
X97087500Y-107250000D03*
%TD*%
D14*
%TO.C,U5*%
X70901094Y-81022813D03*
X70003069Y-81920838D03*
X69105043Y-82818864D03*
X68207017Y-83716889D03*
X67308992Y-84614915D03*
X66410966Y-85512941D03*
X65512941Y-86410966D03*
X64614915Y-87308992D03*
X63716889Y-88207017D03*
X62818864Y-89105043D03*
X61920838Y-90003069D03*
X61022813Y-90901094D03*
X67598906Y-97477187D03*
X68496931Y-96579162D03*
X69394957Y-95681136D03*
X70292983Y-94783111D03*
X71191008Y-93885085D03*
X72089034Y-92987059D03*
X72987059Y-92089034D03*
X73885085Y-91191008D03*
X74783111Y-90292983D03*
X75681136Y-89394957D03*
X76579162Y-88496931D03*
X77477187Y-87598906D03*
%TD*%
D15*
%TO.C,J2*%
X87190000Y-91950000D03*
X87190000Y-88050000D03*
X88460000Y-91950000D03*
X88460000Y-88050000D03*
X89730000Y-91950000D03*
X89730000Y-88050000D03*
X91000000Y-91950000D03*
X91000000Y-88050000D03*
X92270000Y-91950000D03*
X92270000Y-88050000D03*
X93540000Y-91950000D03*
X93540000Y-88050000D03*
X94810000Y-91950000D03*
X94810000Y-88050000D03*
%TD*%
D16*
%TO.C,Q2*%
X91062500Y-98300000D03*
X91062500Y-100200000D03*
X92937500Y-99250000D03*
%TD*%
M02*
