M48
; DRILL file {KiCad 9.0.5} date 2025-11-11T21:17:08+0100
; FORMAT={-:-/ absolute / metric / decimal}
; #@! TF.CreationDate,2025-11-11T21:17:08+01:00
; #@! TF.GenerationSoftware,Kicad,Pcbnew,9.0.5
; #@! TF.FileFunction,Plated,1,2,PTH
FMAT,2
METRIC
; #@! TA.AperFunction,Plated,PTH,ViaDrill
T1C0.400
%
G90
G05
T1
X64.275Y-92.225
X66.75Y-114.0
X67.0Y-111.25
X67.013Y-105.513
X67.275Y-100.5
X68.0Y-103.5
X69.375Y-81.75
X71.256Y-99.45
X71.5Y-111.0
X72.078Y-98.599
X72.538Y-91.462
X73.25Y-95.255
X73.487Y-81.987
X73.5Y-114.0
X73.602Y-106.7
X73.75Y-100.25
X74.724Y-112.324
X74.752Y-78.992
X75.176Y-107.274
X75.225Y-95.9
X75.233Y-97.5
X75.693Y-87.832
X75.751Y-79.025
X76.0Y-84.725
X76.0Y-93.725
X76.0Y-101.15
X76.071Y-96.954
X76.75Y-79.536
X77.237Y-86.737
X77.25Y-85.224
X77.358Y-91.091
X77.5Y-93.0
X77.5Y-102.599
X77.9Y-88.125
X78.25Y-92.25
X78.574Y-95.598
X78.75Y-117.25
X79.0Y-113.0
X79.296Y-105.197
X79.549Y-106.8
X80.0Y-109.5
X80.025Y-95.5
X80.025Y-105.921
X80.25Y-117.25
X80.45Y-89.8
X80.578Y-91.978
X80.75Y-94.149
X80.762Y-83.238
X81.501Y-100.505
X81.889Y-102.225
X82.0Y-83.25
X83.272Y-92.7
X83.275Y-91.701
X83.35Y-102.98
X83.431Y-83.819
X83.5Y-97.9
X83.5Y-114.0
X83.65Y-101.228
X84.0Y-108.5
X84.0Y-118.75
X84.565Y-111.656
X85.099Y-108.433
X85.173Y-103.9
X85.75Y-100.25
X86.0Y-106.965
X86.488Y-80.762
X87.0Y-94.0
X87.611Y-102.023
X88.25Y-100.25
X88.981Y-106.103
X89.328Y-96.772
X89.425Y-98.473
X89.973Y-105.378
X90.914Y-107.927
X91.073Y-105.452
X91.25Y-85.0
X91.5Y-95.275
X91.5Y-111.25
X91.5Y-114.25
X92.024Y-96.75
X93.0Y-107.201
X95.0Y-96.5
X95.0Y-98.25
X96.2Y-88.0
X96.255Y-85.837
X96.5Y-113.5
X96.987Y-105.013
X97.877Y-102.813
M30
