%TF.GenerationSoftware,KiCad,Pcbnew,8.0.5*%
%TF.CreationDate,2025-04-26T14:04:23+02:00*%
%TF.ProjectId,vlvts_top,766c7674-735f-4746-9f70-2e6b69636164,rev?*%
%TF.SameCoordinates,Original*%
%TF.FileFunction,Legend,Top*%
%TF.FilePolarity,Positive*%
%FSLAX46Y46*%
G04 Gerber Fmt 4.6, Leading zero omitted, Abs format (unit mm)*
G04 Created by KiCad (PCBNEW 8.0.5) date 2025-04-26 14:04:23*
%MOMM*%
%LPD*%
G01*
G04 APERTURE LIST*
%ADD10C,0.150000*%
%ADD11C,0.120000*%
G04 APERTURE END LIST*
D10*
X96634819Y-102916666D02*
X96158628Y-103249999D01*
X96634819Y-103488094D02*
X95634819Y-103488094D01*
X95634819Y-103488094D02*
X95634819Y-103107142D01*
X95634819Y-103107142D02*
X95682438Y-103011904D01*
X95682438Y-103011904D02*
X95730057Y-102964285D01*
X95730057Y-102964285D02*
X95825295Y-102916666D01*
X95825295Y-102916666D02*
X95968152Y-102916666D01*
X95968152Y-102916666D02*
X96063390Y-102964285D01*
X96063390Y-102964285D02*
X96111009Y-103011904D01*
X96111009Y-103011904D02*
X96158628Y-103107142D01*
X96158628Y-103107142D02*
X96158628Y-103488094D01*
X95634819Y-102583332D02*
X95634819Y-101964285D01*
X95634819Y-101964285D02*
X96015771Y-102297618D01*
X96015771Y-102297618D02*
X96015771Y-102154761D01*
X96015771Y-102154761D02*
X96063390Y-102059523D01*
X96063390Y-102059523D02*
X96111009Y-102011904D01*
X96111009Y-102011904D02*
X96206247Y-101964285D01*
X96206247Y-101964285D02*
X96444342Y-101964285D01*
X96444342Y-101964285D02*
X96539580Y-102011904D01*
X96539580Y-102011904D02*
X96587200Y-102059523D01*
X96587200Y-102059523D02*
X96634819Y-102154761D01*
X96634819Y-102154761D02*
X96634819Y-102440475D01*
X96634819Y-102440475D02*
X96587200Y-102535713D01*
X96587200Y-102535713D02*
X96539580Y-102583332D01*
X80310544Y-86453754D02*
X80411559Y-85881335D01*
X79906483Y-86049693D02*
X80613590Y-85342587D01*
X80613590Y-85342587D02*
X80882964Y-85611961D01*
X80882964Y-85611961D02*
X80916636Y-85712976D01*
X80916636Y-85712976D02*
X80916636Y-85780319D01*
X80916636Y-85780319D02*
X80882964Y-85881335D01*
X80882964Y-85881335D02*
X80781949Y-85982350D01*
X80781949Y-85982350D02*
X80680933Y-86016022D01*
X80680933Y-86016022D02*
X80613590Y-86016022D01*
X80613590Y-86016022D02*
X80512575Y-85982350D01*
X80512575Y-85982350D02*
X80243201Y-85712976D01*
X81219681Y-86083365D02*
X81287025Y-86083365D01*
X81287025Y-86083365D02*
X81388040Y-86117037D01*
X81388040Y-86117037D02*
X81556399Y-86285396D01*
X81556399Y-86285396D02*
X81590071Y-86386411D01*
X81590071Y-86386411D02*
X81590071Y-86453754D01*
X81590071Y-86453754D02*
X81556399Y-86554770D01*
X81556399Y-86554770D02*
X81489055Y-86622113D01*
X81489055Y-86622113D02*
X81354368Y-86689457D01*
X81354368Y-86689457D02*
X80546246Y-86689457D01*
X80546246Y-86689457D02*
X80983979Y-87127189D01*
X93904761Y-109200057D02*
X93809523Y-109152438D01*
X93809523Y-109152438D02*
X93714285Y-109057200D01*
X93714285Y-109057200D02*
X93571428Y-108914342D01*
X93571428Y-108914342D02*
X93476190Y-108866723D01*
X93476190Y-108866723D02*
X93380952Y-108866723D01*
X93428571Y-109104819D02*
X93333333Y-109057200D01*
X93333333Y-109057200D02*
X93238095Y-108961961D01*
X93238095Y-108961961D02*
X93190476Y-108771485D01*
X93190476Y-108771485D02*
X93190476Y-108438152D01*
X93190476Y-108438152D02*
X93238095Y-108247676D01*
X93238095Y-108247676D02*
X93333333Y-108152438D01*
X93333333Y-108152438D02*
X93428571Y-108104819D01*
X93428571Y-108104819D02*
X93619047Y-108104819D01*
X93619047Y-108104819D02*
X93714285Y-108152438D01*
X93714285Y-108152438D02*
X93809523Y-108247676D01*
X93809523Y-108247676D02*
X93857142Y-108438152D01*
X93857142Y-108438152D02*
X93857142Y-108771485D01*
X93857142Y-108771485D02*
X93809523Y-108961961D01*
X93809523Y-108961961D02*
X93714285Y-109057200D01*
X93714285Y-109057200D02*
X93619047Y-109104819D01*
X93619047Y-109104819D02*
X93428571Y-109104819D01*
X94190476Y-108104819D02*
X94809523Y-108104819D01*
X94809523Y-108104819D02*
X94476190Y-108485771D01*
X94476190Y-108485771D02*
X94619047Y-108485771D01*
X94619047Y-108485771D02*
X94714285Y-108533390D01*
X94714285Y-108533390D02*
X94761904Y-108581009D01*
X94761904Y-108581009D02*
X94809523Y-108676247D01*
X94809523Y-108676247D02*
X94809523Y-108914342D01*
X94809523Y-108914342D02*
X94761904Y-109009580D01*
X94761904Y-109009580D02*
X94714285Y-109057200D01*
X94714285Y-109057200D02*
X94619047Y-109104819D01*
X94619047Y-109104819D02*
X94333333Y-109104819D01*
X94333333Y-109104819D02*
X94238095Y-109057200D01*
X94238095Y-109057200D02*
X94190476Y-109009580D01*
X95454819Y-95166666D02*
X94978628Y-95499999D01*
X95454819Y-95738094D02*
X94454819Y-95738094D01*
X94454819Y-95738094D02*
X94454819Y-95357142D01*
X94454819Y-95357142D02*
X94502438Y-95261904D01*
X94502438Y-95261904D02*
X94550057Y-95214285D01*
X94550057Y-95214285D02*
X94645295Y-95166666D01*
X94645295Y-95166666D02*
X94788152Y-95166666D01*
X94788152Y-95166666D02*
X94883390Y-95214285D01*
X94883390Y-95214285D02*
X94931009Y-95261904D01*
X94931009Y-95261904D02*
X94978628Y-95357142D01*
X94978628Y-95357142D02*
X94978628Y-95738094D01*
X94788152Y-94309523D02*
X95454819Y-94309523D01*
X94407200Y-94547618D02*
X95121485Y-94785713D01*
X95121485Y-94785713D02*
X95121485Y-94166666D01*
X99238095Y-96954819D02*
X99238095Y-95954819D01*
X99238095Y-96431009D02*
X99809523Y-96431009D01*
X99809523Y-96954819D02*
X99809523Y-95954819D01*
X100238095Y-96050057D02*
X100285714Y-96002438D01*
X100285714Y-96002438D02*
X100380952Y-95954819D01*
X100380952Y-95954819D02*
X100619047Y-95954819D01*
X100619047Y-95954819D02*
X100714285Y-96002438D01*
X100714285Y-96002438D02*
X100761904Y-96050057D01*
X100761904Y-96050057D02*
X100809523Y-96145295D01*
X100809523Y-96145295D02*
X100809523Y-96240533D01*
X100809523Y-96240533D02*
X100761904Y-96383390D01*
X100761904Y-96383390D02*
X100190476Y-96954819D01*
X100190476Y-96954819D02*
X100809523Y-96954819D01*
X90654761Y-105700057D02*
X90559523Y-105652438D01*
X90559523Y-105652438D02*
X90464285Y-105557200D01*
X90464285Y-105557200D02*
X90321428Y-105414342D01*
X90321428Y-105414342D02*
X90226190Y-105366723D01*
X90226190Y-105366723D02*
X90130952Y-105366723D01*
X90178571Y-105604819D02*
X90083333Y-105557200D01*
X90083333Y-105557200D02*
X89988095Y-105461961D01*
X89988095Y-105461961D02*
X89940476Y-105271485D01*
X89940476Y-105271485D02*
X89940476Y-104938152D01*
X89940476Y-104938152D02*
X89988095Y-104747676D01*
X89988095Y-104747676D02*
X90083333Y-104652438D01*
X90083333Y-104652438D02*
X90178571Y-104604819D01*
X90178571Y-104604819D02*
X90369047Y-104604819D01*
X90369047Y-104604819D02*
X90464285Y-104652438D01*
X90464285Y-104652438D02*
X90559523Y-104747676D01*
X90559523Y-104747676D02*
X90607142Y-104938152D01*
X90607142Y-104938152D02*
X90607142Y-105271485D01*
X90607142Y-105271485D02*
X90559523Y-105461961D01*
X90559523Y-105461961D02*
X90464285Y-105557200D01*
X90464285Y-105557200D02*
X90369047Y-105604819D01*
X90369047Y-105604819D02*
X90178571Y-105604819D01*
X91559523Y-105604819D02*
X90988095Y-105604819D01*
X91273809Y-105604819D02*
X91273809Y-104604819D01*
X91273809Y-104604819D02*
X91178571Y-104747676D01*
X91178571Y-104747676D02*
X91083333Y-104842914D01*
X91083333Y-104842914D02*
X90988095Y-104890533D01*
X57238095Y-96954819D02*
X57238095Y-95954819D01*
X57238095Y-96431009D02*
X57809523Y-96431009D01*
X57809523Y-96954819D02*
X57809523Y-95954819D01*
X58809523Y-96954819D02*
X58238095Y-96954819D01*
X58523809Y-96954819D02*
X58523809Y-95954819D01*
X58523809Y-95954819D02*
X58428571Y-96097676D01*
X58428571Y-96097676D02*
X58333333Y-96192914D01*
X58333333Y-96192914D02*
X58238095Y-96240533D01*
X97833333Y-109134819D02*
X97500000Y-108658628D01*
X97261905Y-109134819D02*
X97261905Y-108134819D01*
X97261905Y-108134819D02*
X97642857Y-108134819D01*
X97642857Y-108134819D02*
X97738095Y-108182438D01*
X97738095Y-108182438D02*
X97785714Y-108230057D01*
X97785714Y-108230057D02*
X97833333Y-108325295D01*
X97833333Y-108325295D02*
X97833333Y-108468152D01*
X97833333Y-108468152D02*
X97785714Y-108563390D01*
X97785714Y-108563390D02*
X97738095Y-108611009D01*
X97738095Y-108611009D02*
X97642857Y-108658628D01*
X97642857Y-108658628D02*
X97261905Y-108658628D01*
X98738095Y-108134819D02*
X98261905Y-108134819D01*
X98261905Y-108134819D02*
X98214286Y-108611009D01*
X98214286Y-108611009D02*
X98261905Y-108563390D01*
X98261905Y-108563390D02*
X98357143Y-108515771D01*
X98357143Y-108515771D02*
X98595238Y-108515771D01*
X98595238Y-108515771D02*
X98690476Y-108563390D01*
X98690476Y-108563390D02*
X98738095Y-108611009D01*
X98738095Y-108611009D02*
X98785714Y-108706247D01*
X98785714Y-108706247D02*
X98785714Y-108944342D01*
X98785714Y-108944342D02*
X98738095Y-109039580D01*
X98738095Y-109039580D02*
X98690476Y-109087200D01*
X98690476Y-109087200D02*
X98595238Y-109134819D01*
X98595238Y-109134819D02*
X98357143Y-109134819D01*
X98357143Y-109134819D02*
X98261905Y-109087200D01*
X98261905Y-109087200D02*
X98214286Y-109039580D01*
X75213227Y-82209276D02*
X74640807Y-82781696D01*
X74640807Y-82781696D02*
X74607135Y-82882711D01*
X74607135Y-82882711D02*
X74607135Y-82950055D01*
X74607135Y-82950055D02*
X74640807Y-83051070D01*
X74640807Y-83051070D02*
X74775494Y-83185757D01*
X74775494Y-83185757D02*
X74876509Y-83219429D01*
X74876509Y-83219429D02*
X74943853Y-83219429D01*
X74943853Y-83219429D02*
X75044868Y-83185757D01*
X75044868Y-83185757D02*
X75617288Y-82613337D01*
X76290723Y-83286772D02*
X75954005Y-82950055D01*
X75954005Y-82950055D02*
X75583616Y-83253101D01*
X75583616Y-83253101D02*
X75650959Y-83253101D01*
X75650959Y-83253101D02*
X75751975Y-83286772D01*
X75751975Y-83286772D02*
X75920333Y-83455131D01*
X75920333Y-83455131D02*
X75954005Y-83556146D01*
X75954005Y-83556146D02*
X75954005Y-83623490D01*
X75954005Y-83623490D02*
X75920333Y-83724505D01*
X75920333Y-83724505D02*
X75751975Y-83892864D01*
X75751975Y-83892864D02*
X75650959Y-83926536D01*
X75650959Y-83926536D02*
X75583616Y-83926536D01*
X75583616Y-83926536D02*
X75482601Y-83892864D01*
X75482601Y-83892864D02*
X75314242Y-83724505D01*
X75314242Y-83724505D02*
X75280570Y-83623490D01*
X75280570Y-83623490D02*
X75280570Y-83556146D01*
X84949819Y-90333333D02*
X85664104Y-90333333D01*
X85664104Y-90333333D02*
X85806961Y-90380952D01*
X85806961Y-90380952D02*
X85902200Y-90476190D01*
X85902200Y-90476190D02*
X85949819Y-90619047D01*
X85949819Y-90619047D02*
X85949819Y-90714285D01*
X85045057Y-89904761D02*
X84997438Y-89857142D01*
X84997438Y-89857142D02*
X84949819Y-89761904D01*
X84949819Y-89761904D02*
X84949819Y-89523809D01*
X84949819Y-89523809D02*
X84997438Y-89428571D01*
X84997438Y-89428571D02*
X85045057Y-89380952D01*
X85045057Y-89380952D02*
X85140295Y-89333333D01*
X85140295Y-89333333D02*
X85235533Y-89333333D01*
X85235533Y-89333333D02*
X85378390Y-89380952D01*
X85378390Y-89380952D02*
X85949819Y-89952380D01*
X85949819Y-89952380D02*
X85949819Y-89333333D01*
X94654761Y-100050057D02*
X94559523Y-100002438D01*
X94559523Y-100002438D02*
X94464285Y-99907200D01*
X94464285Y-99907200D02*
X94321428Y-99764342D01*
X94321428Y-99764342D02*
X94226190Y-99716723D01*
X94226190Y-99716723D02*
X94130952Y-99716723D01*
X94178571Y-99954819D02*
X94083333Y-99907200D01*
X94083333Y-99907200D02*
X93988095Y-99811961D01*
X93988095Y-99811961D02*
X93940476Y-99621485D01*
X93940476Y-99621485D02*
X93940476Y-99288152D01*
X93940476Y-99288152D02*
X93988095Y-99097676D01*
X93988095Y-99097676D02*
X94083333Y-99002438D01*
X94083333Y-99002438D02*
X94178571Y-98954819D01*
X94178571Y-98954819D02*
X94369047Y-98954819D01*
X94369047Y-98954819D02*
X94464285Y-99002438D01*
X94464285Y-99002438D02*
X94559523Y-99097676D01*
X94559523Y-99097676D02*
X94607142Y-99288152D01*
X94607142Y-99288152D02*
X94607142Y-99621485D01*
X94607142Y-99621485D02*
X94559523Y-99811961D01*
X94559523Y-99811961D02*
X94464285Y-99907200D01*
X94464285Y-99907200D02*
X94369047Y-99954819D01*
X94369047Y-99954819D02*
X94178571Y-99954819D01*
X94988095Y-99050057D02*
X95035714Y-99002438D01*
X95035714Y-99002438D02*
X95130952Y-98954819D01*
X95130952Y-98954819D02*
X95369047Y-98954819D01*
X95369047Y-98954819D02*
X95464285Y-99002438D01*
X95464285Y-99002438D02*
X95511904Y-99050057D01*
X95511904Y-99050057D02*
X95559523Y-99145295D01*
X95559523Y-99145295D02*
X95559523Y-99240533D01*
X95559523Y-99240533D02*
X95511904Y-99383390D01*
X95511904Y-99383390D02*
X94940476Y-99954819D01*
X94940476Y-99954819D02*
X95559523Y-99954819D01*
D11*
%TO.C,R3*%
X95272500Y-102495276D02*
X95272500Y-103004724D01*
X94227500Y-102495276D02*
X94227500Y-103004724D01*
%TO.C,R2*%
X80444815Y-87205889D02*
X80084581Y-86845655D01*
X79705889Y-87944815D02*
X79345655Y-87584581D01*
%TO.C,Q3*%
X94000000Y-107810000D02*
X93350000Y-107810000D01*
X94000000Y-104690000D02*
X94650000Y-104690000D01*
X94000000Y-107810000D02*
X95675000Y-107810000D01*
X94000000Y-104690000D02*
X93350000Y-104690000D01*
%TO.C,R4*%
X92977500Y-95582776D02*
X92977500Y-96092224D01*
X94022500Y-95582776D02*
X94022500Y-96092224D01*
%TO.C,Q1*%
X92000000Y-104310000D02*
X91350000Y-104310000D01*
X92000000Y-101190000D02*
X91350000Y-101190000D01*
X92000000Y-104310000D02*
X93675000Y-104310000D01*
X92000000Y-101190000D02*
X92650000Y-101190000D01*
%TO.C,R5*%
X98254724Y-106727500D02*
X97745276Y-106727500D01*
X98254724Y-107772500D02*
X97745276Y-107772500D01*
%TO.C,U5*%
X74772504Y-83727496D02*
X77501936Y-86456928D01*
X60998064Y-92043072D02*
X61203125Y-91838011D01*
X63727496Y-94772504D02*
X66456928Y-97501936D01*
X63727496Y-94772504D02*
X60998064Y-92043072D01*
X77501936Y-86456928D02*
X77296875Y-86661989D01*
X72043072Y-80998064D02*
X71838011Y-81203125D01*
X66456928Y-97501936D02*
X66661989Y-97296875D01*
X74772504Y-83727496D02*
X72043072Y-80998064D01*
X71838011Y-81203125D02*
X70572290Y-79937404D01*
%TO.C,J2*%
X95440000Y-88235000D02*
X95505000Y-88235000D01*
X95440000Y-91765000D02*
X95505000Y-91765000D01*
X86560000Y-93090000D02*
X86560000Y-91765000D01*
X86495000Y-91765000D02*
X86495000Y-88235000D01*
X86495000Y-91765000D02*
X86560000Y-91765000D01*
X86495000Y-88235000D02*
X86560000Y-88235000D01*
X95505000Y-91765000D02*
X95505000Y-88235000D01*
%TO.C,Q2*%
X92000000Y-97690000D02*
X90325000Y-97690000D01*
X92000000Y-97690000D02*
X92650000Y-97690000D01*
X92000000Y-100810000D02*
X92650000Y-100810000D01*
X92000000Y-100810000D02*
X91350000Y-100810000D01*
%TD*%
M02*
