%TF.GenerationSoftware,KiCad,Pcbnew,8.0.5*%
%TF.CreationDate,2025-04-26T14:04:23+02:00*%
%TF.ProjectId,vlvts_top,766c7674-735f-4746-9f70-2e6b69636164,rev?*%
%TF.SameCoordinates,Original*%
%TF.FileFunction,Copper,L1,Top*%
%TF.FilePolarity,Positive*%
%FSLAX46Y46*%
G04 Gerber Fmt 4.6, Leading zero omitted, Abs format (unit mm)*
G04 Created by KiCad (PCBNEW 8.0.5) date 2025-04-26 14:04:23*
%MOMM*%
%LPD*%
G01*
G04 APERTURE LIST*
G04 Aperture macros list*
%AMRoundRect*
0 Rectangle with rounded corners*
0 $1 Rounding radius*
0 $2 $3 $4 $5 $6 $7 $8 $9 X,Y pos of 4 corners*
0 Add a 4 corners polygon primitive as box body*
4,1,4,$2,$3,$4,$5,$6,$7,$8,$9,$2,$3,0*
0 Add four circle primitives for the rounded corners*
1,1,$1+$1,$2,$3*
1,1,$1+$1,$4,$5*
1,1,$1+$1,$6,$7*
1,1,$1+$1,$8,$9*
0 Add four rect primitives between the rounded corners*
20,1,$1+$1,$2,$3,$4,$5,0*
20,1,$1+$1,$4,$5,$6,$7,0*
20,1,$1+$1,$6,$7,$8,$9,0*
20,1,$1+$1,$8,$9,$2,$3,0*%
G04 Aperture macros list end*
%TA.AperFunction,SMDPad,CuDef*%
%ADD10RoundRect,0.237500X-0.237500X0.250000X-0.237500X-0.250000X0.237500X-0.250000X0.237500X0.250000X0*%
%TD*%
%TA.AperFunction,SMDPad,CuDef*%
%ADD11RoundRect,0.237500X0.344715X-0.008839X-0.008839X0.344715X-0.344715X0.008839X0.008839X-0.344715X0*%
%TD*%
%TA.AperFunction,SMDPad,CuDef*%
%ADD12RoundRect,0.150000X0.587500X0.150000X-0.587500X0.150000X-0.587500X-0.150000X0.587500X-0.150000X0*%
%TD*%
%TA.AperFunction,SMDPad,CuDef*%
%ADD13RoundRect,0.237500X0.250000X0.237500X-0.250000X0.237500X-0.250000X-0.237500X0.250000X-0.237500X0*%
%TD*%
%TA.AperFunction,SMDPad,CuDef*%
%ADD14RoundRect,0.137500X-0.707107X0.512652X0.512652X-0.707107X0.707107X-0.512652X-0.512652X0.707107X0*%
%TD*%
%TA.AperFunction,SMDPad,CuDef*%
%ADD15R,0.740000X2.400000*%
%TD*%
%TA.AperFunction,SMDPad,CuDef*%
%ADD16RoundRect,0.150000X-0.587500X-0.150000X0.587500X-0.150000X0.587500X0.150000X-0.587500X0.150000X0*%
%TD*%
%TA.AperFunction,ViaPad*%
%ADD17C,0.800000*%
%TD*%
%TA.AperFunction,Conductor*%
%ADD18C,0.250000*%
%TD*%
%TA.AperFunction,Conductor*%
%ADD19C,0.750000*%
%TD*%
G04 APERTURE END LIST*
D10*
%TO.P,R3,1*%
%TO.N,LEDg1*%
X94750000Y-101837500D03*
%TO.P,R3,2*%
%TO.N,Net-(Q1-G)*%
X94750000Y-103662500D03*
%TD*%
D11*
%TO.P,R2,1*%
%TO.N,GND*%
X80540470Y-88040470D03*
%TO.P,R2,2*%
%TO.N,Net-(U5-REXT)*%
X79250000Y-86750000D03*
%TD*%
D12*
%TO.P,Q3,1,G*%
%TO.N,Net-(Q3-G)*%
X94937500Y-107200000D03*
%TO.P,Q3,2,S*%
%TO.N,VEE*%
X94937500Y-105300000D03*
%TO.P,Q3,3,D*%
%TO.N,Net-(D32-A)*%
X93062500Y-106250000D03*
%TD*%
D10*
%TO.P,R4,1*%
%TO.N,LEDg2*%
X93500000Y-94925000D03*
%TO.P,R4,2*%
%TO.N,Net-(Q2-G)*%
X93500000Y-96750000D03*
%TD*%
D12*
%TO.P,Q1,1,G*%
%TO.N,Net-(Q1-G)*%
X92937500Y-103700000D03*
%TO.P,Q1,2,S*%
%TO.N,VEE*%
X92937500Y-101800000D03*
%TO.P,Q1,3,D*%
%TO.N,Net-(D0-A)*%
X91062500Y-102750000D03*
%TD*%
D13*
%TO.P,R5,1*%
%TO.N,LEDg3*%
X98912500Y-107250000D03*
%TO.P,R5,2*%
%TO.N,Net-(Q3-G)*%
X97087500Y-107250000D03*
%TD*%
D14*
%TO.P,U5,1,GND*%
%TO.N,GND*%
X70901094Y-81022813D03*
%TO.P,U5,2,SDI*%
%TO.N,LED_SDI*%
X70003069Y-81920838D03*
%TO.P,U5,3,CLK*%
%TO.N,LED_CLK*%
X69105043Y-82818864D03*
%TO.P,U5,4,LA/*%
%TO.N,LED_LA*%
X68207017Y-83716889D03*
%TO.P,U5,5,OUT0*%
%TO.N,Net-(D0-K)*%
X67308992Y-84614915D03*
%TO.P,U5,6,OUT1*%
%TO.N,Net-(D1-K)*%
X66410966Y-85512941D03*
%TO.P,U5,7,OUT2*%
%TO.N,Net-(D18-K)*%
X65512941Y-86410966D03*
%TO.P,U5,8,OUT3*%
%TO.N,Net-(D19-K)*%
X64614915Y-87308992D03*
%TO.P,U5,9,OUT4*%
%TO.N,Net-(D20-K)*%
X63716889Y-88207017D03*
%TO.P,U5,10,OUT5*%
%TO.N,Net-(D21-K)*%
X62818864Y-89105043D03*
%TO.P,U5,11,OUT6*%
%TO.N,Net-(D22-K)*%
X61920838Y-90003069D03*
%TO.P,U5,12,OUT7*%
%TO.N,Net-(D23-K)*%
X61022813Y-90901094D03*
%TO.P,U5,13,OUT8*%
%TO.N,Net-(D24-K)*%
X67598906Y-97477187D03*
%TO.P,U5,14,OUT9*%
%TO.N,Net-(D25-K)*%
X68496931Y-96579162D03*
%TO.P,U5,15,OUT10*%
%TO.N,Net-(D10-K)*%
X69394957Y-95681136D03*
%TO.P,U5,16,OUT11*%
%TO.N,Net-(D11-K)*%
X70292983Y-94783111D03*
%TO.P,U5,17,OUT12*%
%TO.N,Net-(D12-K)*%
X71191008Y-93885085D03*
%TO.P,U5,18,OUT13*%
%TO.N,Net-(D13-K)*%
X72089034Y-92987059D03*
%TO.P,U5,19,OUT14*%
%TO.N,Net-(D14-K)*%
X72987059Y-92089034D03*
%TO.P,U5,20,OUT15*%
%TO.N,Net-(D15-K)*%
X73885085Y-91191008D03*
%TO.P,U5,21,OE/*%
%TO.N,LED_OE*%
X74783111Y-90292983D03*
%TO.P,U5,22,SDO*%
%TO.N,unconnected-(U5-SDO-Pad22)*%
X75681136Y-89394957D03*
%TO.P,U5,23,REXT*%
%TO.N,Net-(U5-REXT)*%
X76579162Y-88496931D03*
%TO.P,U5,24,VDD*%
%TO.N,VEE*%
X77477187Y-87598906D03*
%TD*%
D15*
%TO.P,J2,1,Pin_1*%
%TO.N,BTN_L*%
X87190000Y-91950000D03*
%TO.P,J2,2,Pin_2*%
%TO.N,LED_OE*%
X87190000Y-88050000D03*
%TO.P,J2,3,Pin_3*%
%TO.N,BTN_C*%
X88460000Y-91950000D03*
%TO.P,J2,4,Pin_4*%
%TO.N,LED_LA*%
X88460000Y-88050000D03*
%TO.P,J2,5,Pin_5*%
%TO.N,BTN_R*%
X89730000Y-91950000D03*
%TO.P,J2,6,Pin_6*%
%TO.N,LED_CLK*%
X89730000Y-88050000D03*
%TO.P,J2,7,Pin_7*%
%TO.N,LEDg1*%
X91000000Y-91950000D03*
%TO.P,J2,8,Pin_8*%
%TO.N,LED_SDI*%
X91000000Y-88050000D03*
%TO.P,J2,9,Pin_9*%
%TO.N,LEDg2*%
X92270000Y-91950000D03*
%TO.P,J2,10,Pin_10*%
%TO.N,GND*%
X92270000Y-88050000D03*
%TO.P,J2,11,Pin_11*%
%TO.N,LEDg3*%
X93540000Y-91950000D03*
%TO.P,J2,12,Pin_12*%
%TO.N,VDD*%
X93540000Y-88050000D03*
%TO.P,J2,13,Pin_13*%
%TO.N,VEE*%
X94810000Y-91950000D03*
%TO.P,J2,14,Pin_14*%
%TO.N,GND*%
X94810000Y-88050000D03*
%TD*%
D16*
%TO.P,Q2,1,G*%
%TO.N,Net-(Q2-G)*%
X91062500Y-98300000D03*
%TO.P,Q2,2,S*%
%TO.N,VEE*%
X91062500Y-100200000D03*
%TO.P,Q2,3,D*%
%TO.N,Net-(D16-A)*%
X92937500Y-99250000D03*
%TD*%
D17*
%TO.N,Net-(D0-K)*%
X83430898Y-83819102D03*
X91250000Y-85000000D03*
X86487700Y-80762300D03*
%TO.N,Net-(D0-A)*%
X86250000Y-104750000D03*
%TO.N,Net-(D1-K)*%
X89328300Y-96772102D03*
X92024500Y-96750000D03*
X82000000Y-83250000D03*
%TO.N,Net-(D18-K)*%
X83272409Y-92700500D03*
X80750000Y-94149500D03*
X80762300Y-83237700D03*
X72078300Y-98599500D03*
X75849500Y-97500000D03*
%TO.N,Net-(D19-K)*%
X85750000Y-100250000D03*
X83349500Y-103750000D03*
X79200700Y-105100300D03*
X83274500Y-91700902D03*
%TO.N,Net-(D20-K)*%
X80578300Y-91977898D03*
X88250000Y-100250000D03*
%TO.N,Net-(D21-K)*%
X79581050Y-92044959D03*
X81824500Y-102000000D03*
%TO.N,Net-(D22-K)*%
X91500000Y-111250000D03*
X64275000Y-92225000D03*
X91500000Y-107924500D03*
%TO.N,Net-(D23-K)*%
X78250000Y-94750000D03*
X80250000Y-117250000D03*
%TO.N,Net-(D24-K)*%
X76325500Y-96621122D03*
X67000000Y-111250000D03*
X67000000Y-107000000D03*
X73602453Y-106699500D03*
%TO.N,Net-(D25-K)*%
X70250000Y-97150500D03*
%TO.N,Net-(D10-K)*%
X81500688Y-100505305D03*
X89425500Y-98472738D03*
X76000000Y-101150500D03*
X91500000Y-95275500D03*
X86750000Y-100250000D03*
%TO.N,Net-(D11-K)*%
X89250000Y-106000000D03*
X80025500Y-105920943D03*
X75175928Y-107274500D03*
%TO.N,Net-(D12-K)*%
X73750000Y-100250000D03*
X80449799Y-89800201D03*
%TO.N,Net-(D13-K)*%
X78500000Y-92000000D03*
X77500000Y-102599500D03*
%TO.N,Net-(D14-K)*%
X68750000Y-93750000D03*
%TO.N,Net-(D15-K)*%
X88500000Y-106750000D03*
X79550200Y-106800200D03*
X68000000Y-103500000D03*
%TO.N,Net-(D16-A)*%
X95000000Y-96500000D03*
%TO.N,Net-(D32-A)*%
X78750000Y-117250000D03*
X66750000Y-114000000D03*
X87000000Y-114250000D03*
X71500000Y-114000000D03*
X91500000Y-114250000D03*
X79250000Y-114250000D03*
X92750000Y-108000000D03*
%TO.N,BTN_L*%
X80574446Y-108461549D03*
X73500000Y-113250000D03*
X71500000Y-112750000D03*
X79005305Y-99749312D03*
X87750000Y-93750000D03*
X85273536Y-96194433D03*
X81752877Y-99349500D03*
%TO.N,LED_OE*%
X72487701Y-90012299D03*
X69250000Y-85275500D03*
%TO.N,BTN_C*%
X84000000Y-118750000D03*
%TO.N,BTN_R*%
X95750000Y-109000000D03*
%TO.N,GND*%
X76750000Y-79538200D03*
X77250000Y-85224500D03*
%TO.N,LEDg3*%
X95000000Y-98250000D03*
X97250000Y-105750000D03*
%TO.N,VEE*%
X65574500Y-94752476D03*
X64256395Y-98000500D03*
%TD*%
D18*
%TO.N,Net-(D0-K)*%
X87012300Y-80762300D02*
X86487700Y-80762300D01*
X83430898Y-83430898D02*
X83430898Y-83819102D01*
X83000000Y-83000000D02*
X83430898Y-83430898D01*
X74445900Y-82062700D02*
X70508600Y-86000000D01*
X82062700Y-82062700D02*
X74445900Y-82062700D01*
X70508600Y-86000000D02*
X68694077Y-86000000D01*
X68694077Y-86000000D02*
X67308992Y-84614915D01*
X83000000Y-83000000D02*
X82062700Y-82062700D01*
X91250000Y-85000000D02*
X87012300Y-80762300D01*
%TO.N,Net-(D0-A)*%
X88250000Y-102750000D02*
X86250000Y-104750000D01*
X91062500Y-102750000D02*
X88250000Y-102750000D01*
%TO.N,Net-(D1-K)*%
X69894996Y-87250000D02*
X68148025Y-87250000D01*
X91727898Y-96772102D02*
X91750000Y-96750000D01*
X89328300Y-96772102D02*
X91727898Y-96772102D01*
X91750000Y-96750000D02*
X92024500Y-96750000D01*
X68148025Y-87250000D02*
X66410966Y-85512941D01*
X81262700Y-82512700D02*
X74632296Y-82512700D01*
X81262700Y-82512700D02*
X82000000Y-83250000D01*
X74632296Y-82512700D02*
X69894996Y-87250000D01*
%TO.N,Net-(D18-K)*%
X72078300Y-98599500D02*
X73177800Y-97500000D01*
X83272409Y-92727591D02*
X81850500Y-94149500D01*
X67601975Y-88500000D02*
X65512941Y-86410966D01*
X83272409Y-92700500D02*
X83272409Y-92727591D01*
X73177800Y-97500000D02*
X75849500Y-97500000D01*
X69281392Y-88500000D02*
X67601975Y-88500000D01*
X74681392Y-83100000D02*
X69281392Y-88500000D01*
X80624600Y-83100000D02*
X74681392Y-83100000D01*
X80750000Y-94149500D02*
X81850500Y-94149500D01*
X80762300Y-83237700D02*
X80624600Y-83100000D01*
%TO.N,Net-(D19-K)*%
X87050305Y-99525000D02*
X87475000Y-99949695D01*
X84000000Y-93895592D02*
X86000000Y-95895592D01*
X88975000Y-100550305D02*
X88975000Y-99949695D01*
X79322792Y-83550000D02*
X74867788Y-83550000D01*
X84945402Y-93568202D02*
X84945402Y-91710103D01*
X79200700Y-105100300D02*
X81999200Y-105100300D01*
X68667788Y-89750000D02*
X67055923Y-89750000D01*
X81999200Y-105100300D02*
X83349500Y-103750000D01*
X86900000Y-97874695D02*
X86900000Y-95522800D01*
X86000000Y-100000000D02*
X85750000Y-100250000D01*
X85750000Y-100224695D02*
X86449695Y-99525000D01*
X87475000Y-100550305D02*
X87899695Y-100975000D01*
X86449695Y-99525000D02*
X87050305Y-99525000D01*
X82524799Y-89289500D02*
X82524799Y-86752007D01*
X88550305Y-100975000D02*
X88975000Y-100550305D01*
X87899695Y-100975000D02*
X88550305Y-100975000D01*
X85750000Y-100250000D02*
X85750000Y-100224695D01*
X86000000Y-95895592D02*
X86000000Y-100000000D01*
X86900000Y-95522800D02*
X84945402Y-93568202D01*
X88975000Y-99949695D02*
X86900000Y-97874695D01*
X82524799Y-86752007D02*
X79322792Y-83550000D01*
X67055923Y-89750000D02*
X64614915Y-87308992D01*
X83298116Y-91700902D02*
X84000000Y-92402786D01*
X74867788Y-83550000D02*
X68667788Y-89750000D01*
X84000000Y-92402786D02*
X84000000Y-93895592D01*
X83274500Y-91700902D02*
X83298116Y-91700902D01*
X87475000Y-99949695D02*
X87475000Y-100550305D01*
X84945402Y-91710103D02*
X82524799Y-89289500D01*
%TO.N,Net-(D20-K)*%
X84495402Y-93754598D02*
X84495402Y-91896499D01*
X86450000Y-98288299D02*
X88250000Y-100088299D01*
X82074799Y-90675201D02*
X80772102Y-91977898D01*
X80772102Y-91977898D02*
X80578300Y-91977898D01*
X86450000Y-98288299D02*
X86450000Y-95709196D01*
X75054184Y-84000000D02*
X79136396Y-84000000D01*
X88250000Y-100088299D02*
X88250000Y-100250000D01*
X68054184Y-91000000D02*
X75054184Y-84000000D01*
X84495402Y-91896499D02*
X83274104Y-90675201D01*
X66509872Y-91000000D02*
X68054184Y-91000000D01*
X83274104Y-90675201D02*
X82074799Y-90675201D01*
X82074799Y-86938403D02*
X82074799Y-90675201D01*
X79136396Y-84000000D02*
X82074799Y-86938403D01*
X86450000Y-95709196D02*
X84495402Y-93754598D01*
X63716889Y-88207017D02*
X66509872Y-91000000D01*
%TO.N,Net-(D21-K)*%
X79000000Y-84500000D02*
X81624799Y-87124799D01*
X80000000Y-100175500D02*
X81824500Y-102000000D01*
X80747102Y-91252898D02*
X80277995Y-91252898D01*
X79581050Y-91949843D02*
X79581050Y-92044959D01*
X80277995Y-91252898D02*
X79581050Y-91949843D01*
X80000000Y-92463909D02*
X80000000Y-99750000D01*
X67940580Y-91750000D02*
X75190580Y-84500000D01*
X62818864Y-89105043D02*
X65463821Y-91750000D01*
X65463821Y-91750000D02*
X67940580Y-91750000D01*
X75190580Y-84500000D02*
X79000000Y-84500000D01*
X81624799Y-90375201D02*
X80747102Y-91252898D01*
X81624799Y-87124799D02*
X81624799Y-90375201D01*
X79581050Y-92044959D02*
X80000000Y-92463909D01*
X80000000Y-99750000D02*
X80000000Y-100175500D01*
%TO.N,Net-(D22-K)*%
X64142769Y-92225000D02*
X64275000Y-92225000D01*
X91500000Y-108250000D02*
X91500000Y-107924500D01*
X61920838Y-90003069D02*
X64142769Y-92225000D01*
X91500000Y-111250000D02*
X91500000Y-108250000D01*
%TO.N,Net-(D23-K)*%
X64850000Y-94728281D02*
X64850000Y-97509188D01*
X80250000Y-109161702D02*
X80250000Y-113500000D01*
X61022813Y-90901094D02*
X64850000Y-94728281D01*
X80250000Y-117250000D02*
X80250000Y-113500000D01*
X78025700Y-106937401D02*
X80250000Y-109161702D01*
X67275000Y-103800305D02*
X76974695Y-113500000D01*
X67275000Y-99934188D02*
X67275000Y-103800305D01*
X64850000Y-97509188D02*
X67275000Y-99934188D01*
X78500000Y-95000000D02*
X78250000Y-94750000D01*
X78250000Y-104113604D02*
X78025700Y-104337904D01*
X78025700Y-104337904D02*
X78025700Y-106937401D01*
X78250000Y-94750000D02*
X78250000Y-104113604D01*
X76974695Y-113500000D02*
X80250000Y-113500000D01*
X78475700Y-95024300D02*
X78500000Y-95000000D01*
%TO.N,Net-(D24-K)*%
X73025000Y-99949695D02*
X73025000Y-100550305D01*
X76600000Y-96850000D02*
X76600000Y-97774805D01*
X76600000Y-97774805D02*
X76149805Y-98225000D01*
X67000000Y-108000000D02*
X67000000Y-107000000D01*
X73602453Y-101127758D02*
X73602453Y-106699500D01*
X74749695Y-98225000D02*
X73025000Y-99949695D01*
X76149805Y-98225000D02*
X74749695Y-98225000D01*
X76554378Y-96850000D02*
X76600000Y-96850000D01*
X70672024Y-100550305D02*
X73025000Y-100550305D01*
X67598906Y-97477187D02*
X70672024Y-100550305D01*
X67000000Y-111250000D02*
X67000000Y-108000000D01*
X76325500Y-96621122D02*
X76554378Y-96850000D01*
X73025000Y-100550305D02*
X73602453Y-101127758D01*
%TO.N,Net-(D25-K)*%
X68496931Y-96579162D02*
X69068269Y-97150500D01*
X69068269Y-97150500D02*
X70250000Y-97150500D01*
%TO.N,Net-(D10-K)*%
X69000000Y-99750000D02*
X72877453Y-103627453D01*
X69394957Y-95681136D02*
X69123376Y-95409555D01*
X85250000Y-101000000D02*
X81995383Y-101000000D01*
X74038629Y-107288629D02*
X76000000Y-105327258D01*
X72877453Y-106999805D02*
X73302148Y-107424500D01*
X67590445Y-95409555D02*
X66429299Y-96570701D01*
X76000000Y-105327258D02*
X76000000Y-101150500D01*
X69123376Y-95409555D02*
X67590445Y-95409555D01*
X66429299Y-96570701D02*
X66429299Y-97179299D01*
X66429299Y-97179299D02*
X69000000Y-99750000D01*
X73302148Y-107424500D02*
X73902758Y-107424500D01*
X88500000Y-97547238D02*
X89425500Y-98472738D01*
X86025305Y-101000000D02*
X85250000Y-101000000D01*
X73902758Y-107424500D02*
X74038629Y-107288629D01*
X88500000Y-96575097D02*
X88500000Y-97547238D01*
X89799597Y-95275500D02*
X88500000Y-96575097D01*
X81995383Y-101000000D02*
X81500688Y-100505305D01*
X91500000Y-95275500D02*
X89799597Y-95275500D01*
X72877453Y-106750000D02*
X72877453Y-106999805D01*
X86750000Y-100275305D02*
X86025305Y-101000000D01*
X72877453Y-103627453D02*
X72877453Y-106750000D01*
X86750000Y-100250000D02*
X86750000Y-100275305D01*
%TO.N,Net-(D11-K)*%
X67852075Y-94511529D02*
X70021401Y-94511529D01*
X75175928Y-107274500D02*
X74575928Y-107874500D01*
X70021401Y-94511529D02*
X70292983Y-94783111D01*
X73115752Y-107874500D02*
X72427453Y-107186201D01*
X65750000Y-97136396D02*
X65750000Y-96613604D01*
X89250000Y-106000000D02*
X80104557Y-106000000D01*
X65750000Y-96613604D02*
X67852075Y-94511529D01*
X74575928Y-107874500D02*
X73115752Y-107874500D01*
X72427453Y-107186201D02*
X72427453Y-103813849D01*
X72427453Y-103813849D02*
X65750000Y-97136396D01*
X80104557Y-106000000D02*
X80025500Y-105920943D01*
%TO.N,Net-(D12-K)*%
X79674494Y-89800201D02*
X80449799Y-89800201D01*
X77050000Y-94750000D02*
X77050000Y-92424695D01*
X73750000Y-100250000D02*
X77000000Y-100250000D01*
X73202045Y-95896122D02*
X76953878Y-95896122D01*
X77050000Y-92424695D02*
X78112348Y-91362347D01*
X76953878Y-95896122D02*
X77050000Y-95800000D01*
X77050000Y-100200000D02*
X77050000Y-95800000D01*
X77050000Y-95800000D02*
X77050000Y-94750000D01*
X71191008Y-93885085D02*
X73202045Y-95896122D01*
X77000000Y-100250000D02*
X77050000Y-100200000D01*
X78112348Y-91362347D02*
X79674494Y-89800201D01*
%TO.N,Net-(D13-K)*%
X72089034Y-92987059D02*
X73601975Y-94500000D01*
X80472407Y-90802898D02*
X79697102Y-90802898D01*
X81174799Y-89499896D02*
X81174799Y-90100506D01*
X73601975Y-94500000D02*
X76600000Y-94500000D01*
X78500000Y-92000000D02*
X77500000Y-93000000D01*
X80750104Y-89075201D02*
X81174799Y-89499896D01*
X79697102Y-90802898D02*
X78500000Y-92000000D01*
X76600000Y-92238299D02*
X79763098Y-89075201D01*
X76600000Y-94500000D02*
X76600000Y-92238299D01*
X77500000Y-93000000D02*
X77500000Y-102599500D01*
X81174799Y-90100506D02*
X80472407Y-90802898D01*
X79763098Y-89075201D02*
X80750104Y-89075201D01*
%TO.N,Net-(D14-K)*%
X72987059Y-92089034D02*
X72398025Y-91500000D01*
X72398025Y-91500000D02*
X71000000Y-91500000D01*
X71000000Y-91500000D02*
X68750000Y-93750000D01*
%TO.N,Net-(D15-K)*%
X67613604Y-99636396D02*
X68000000Y-100022792D01*
X73885085Y-91191008D02*
X73613504Y-90919427D01*
X65300000Y-96174695D02*
X65300000Y-97322792D01*
X65300000Y-97322792D02*
X67613604Y-99636396D01*
X70555268Y-90919427D02*
X65300000Y-96174695D01*
X88500000Y-106750000D02*
X79600400Y-106750000D01*
X79600400Y-106750000D02*
X79550200Y-106800200D01*
X68000000Y-100022792D02*
X68000000Y-103500000D01*
X73613504Y-90919427D02*
X70555268Y-90919427D01*
%TO.N,Net-(D16-A)*%
X95000000Y-97187500D02*
X95000000Y-96500000D01*
X92937500Y-99250000D02*
X95000000Y-97187500D01*
%TO.N,Net-(D32-A)*%
X78750000Y-114750000D02*
X79250000Y-114250000D01*
X93062500Y-107687500D02*
X92750000Y-108000000D01*
X91500000Y-114250000D02*
X87000000Y-114250000D01*
X66750000Y-114000000D02*
X71500000Y-114000000D01*
X78750000Y-117250000D02*
X78750000Y-114750000D01*
X93062500Y-106250000D02*
X93062500Y-107687500D01*
%TO.N,BTN_L*%
X78475700Y-104524300D02*
X78475700Y-106751005D01*
X79005305Y-99749312D02*
X79005305Y-103994695D01*
X87190000Y-91950000D02*
X87190000Y-93190000D01*
X82118469Y-99349500D02*
X81752877Y-99349500D01*
X73500000Y-113250000D02*
X72000000Y-113250000D01*
X72000000Y-113250000D02*
X71500000Y-112750000D01*
X85273536Y-96194433D02*
X82118469Y-99349500D01*
X79005305Y-103994695D02*
X78475700Y-104524300D01*
X80186244Y-108461549D02*
X80574446Y-108461549D01*
X87190000Y-93190000D02*
X87750000Y-93750000D01*
X78475700Y-106751005D02*
X80186244Y-108461549D01*
%TO.N,LED_OE*%
X70596704Y-85275500D02*
X74259504Y-81612700D01*
X73000000Y-89500000D02*
X73990128Y-89500000D01*
X69250000Y-85275500D02*
X70596704Y-85275500D01*
X72487701Y-90012299D02*
X73000000Y-89500000D01*
X74259504Y-81612700D02*
X82249096Y-81612700D01*
X87190000Y-86553604D02*
X87190000Y-88050000D01*
X82249096Y-81612700D02*
X87190000Y-86553604D01*
X73990128Y-89500000D02*
X74783111Y-90292983D01*
%TO.N,BTN_C*%
X88460000Y-91950000D02*
X88460000Y-90610000D01*
X88750000Y-118750000D02*
X84000000Y-118750000D01*
X99750000Y-106750000D02*
X99750000Y-107750000D01*
X89295000Y-89775000D02*
X95381396Y-89775000D01*
X88460000Y-90610000D02*
X89295000Y-89775000D01*
X97150000Y-104150000D02*
X99750000Y-106750000D01*
X95381396Y-89775000D02*
X97150000Y-91543604D01*
X97150000Y-91543604D02*
X97150000Y-104150000D01*
X99750000Y-107750000D02*
X88750000Y-118750000D01*
%TO.N,LED_LA*%
X70963194Y-84272614D02*
X68762742Y-84272614D01*
X88460000Y-88050000D02*
X88460000Y-87187208D01*
X74073108Y-81162700D02*
X70963194Y-84272614D01*
X68762742Y-84272614D02*
X68207017Y-83716889D01*
X82435492Y-81162700D02*
X74073108Y-81162700D01*
X88460000Y-87187208D02*
X82435492Y-81162700D01*
%TO.N,BTN_R*%
X95000000Y-109000000D02*
X95750000Y-109000000D01*
X95195000Y-90225000D02*
X96700000Y-91730000D01*
X93750000Y-107750000D02*
X95000000Y-109000000D01*
X96700000Y-91730000D02*
X96700000Y-104946751D01*
X93750000Y-106978249D02*
X93750000Y-107750000D01*
X90115000Y-90225000D02*
X95195000Y-90225000D01*
X94153249Y-106575000D02*
X93750000Y-106978249D01*
X96700000Y-104946751D02*
X95071751Y-106575000D01*
X89730000Y-90610000D02*
X90115000Y-90225000D01*
X89730000Y-91950000D02*
X89730000Y-90610000D01*
X95071751Y-106575000D02*
X94153249Y-106575000D01*
%TO.N,LED_CLK*%
X89730000Y-87210000D02*
X83232700Y-80712700D01*
X83232700Y-80712700D02*
X73886712Y-80712700D01*
X73886712Y-80712700D02*
X71144996Y-83454416D01*
X89730000Y-88050000D02*
X89730000Y-87210000D01*
X71144996Y-83454416D02*
X69740595Y-83454416D01*
X69740595Y-83454416D02*
X69105043Y-82818864D01*
%TO.N,LEDg1*%
X92221751Y-102500000D02*
X91500000Y-101778249D01*
X91000000Y-92780000D02*
X88050000Y-95730000D01*
X94087500Y-102500000D02*
X92221751Y-102500000D01*
X90000000Y-100250000D02*
X90000000Y-100750000D01*
X90000000Y-100750000D02*
X91000000Y-101750000D01*
X88050000Y-95730000D02*
X88050000Y-98300000D01*
X94750000Y-101837500D02*
X94087500Y-102500000D01*
X91000000Y-91950000D02*
X91000000Y-92780000D01*
X91000000Y-101750000D02*
X91500000Y-101750000D01*
X88050000Y-98300000D02*
X90000000Y-100250000D01*
X91500000Y-101778249D02*
X91500000Y-101750000D01*
%TO.N,LED_SDI*%
X71770596Y-82192420D02*
X70274651Y-82192420D01*
X91000000Y-87210000D02*
X84052700Y-80262700D01*
X91000000Y-88050000D02*
X91000000Y-87210000D01*
X70274651Y-82192420D02*
X70003069Y-81920838D01*
X84052700Y-80262700D02*
X73700316Y-80262700D01*
X73700316Y-80262700D02*
X71770596Y-82192420D01*
%TO.N,LEDg2*%
X92270000Y-91950000D02*
X92270000Y-93695000D01*
X92270000Y-93695000D02*
X93500000Y-94925000D01*
%TO.N,GND*%
X76538200Y-79750000D02*
X76750000Y-79538200D01*
X80540470Y-86909098D02*
X80540470Y-88040470D01*
X86187395Y-81487300D02*
X84238295Y-79538200D01*
X78855872Y-85224500D02*
X80540470Y-86909098D01*
X92270000Y-88050000D02*
X92270000Y-87100000D01*
X77250000Y-85224500D02*
X78855872Y-85224500D01*
X73250000Y-79750000D02*
X76538200Y-79750000D01*
X70901094Y-81022813D02*
X72173907Y-79750000D01*
X86657300Y-81487300D02*
X86187395Y-81487300D01*
X72173907Y-79750000D02*
X73250000Y-79750000D01*
X92270000Y-87100000D02*
X86657300Y-81487300D01*
X76750000Y-79538200D02*
X84238295Y-79538200D01*
%TO.N,LEDg3*%
X93540000Y-91950000D02*
X93540000Y-92890000D01*
X95750000Y-97500000D02*
X95000000Y-98250000D01*
X95750000Y-95100000D02*
X95750000Y-97500000D01*
X93540000Y-92890000D02*
X95750000Y-95100000D01*
X97250000Y-105750000D02*
X97412500Y-105750000D01*
X97412500Y-105750000D02*
X98912500Y-107250000D01*
D19*
%TO.N,VEE*%
X95331891Y-100500000D02*
X93000000Y-100500000D01*
D18*
X78449695Y-117975000D02*
X80775000Y-117975000D01*
X77477187Y-87598906D02*
X77205605Y-87327324D01*
X80775000Y-117975000D02*
X90775000Y-107975000D01*
X77205605Y-87327324D02*
X72999652Y-87327324D01*
X78025000Y-115186701D02*
X78025000Y-117550305D01*
X96250000Y-94963604D02*
X96250000Y-100000000D01*
X72999652Y-87327324D02*
X65574500Y-94752476D01*
X94810000Y-93523604D02*
X96250000Y-94963604D01*
X96250000Y-100000000D02*
X95540946Y-100709054D01*
D19*
X95540946Y-100709054D02*
X95331891Y-100500000D01*
D18*
X92603249Y-105300000D02*
X94937500Y-105300000D01*
D19*
X92937500Y-101800000D02*
X92937500Y-100562500D01*
D18*
X94810000Y-91950000D02*
X94810000Y-93523604D01*
X90775000Y-107975000D02*
X90775000Y-107128249D01*
D19*
X93000000Y-100500000D02*
X91362500Y-100500000D01*
X95031891Y-105300000D02*
X96000000Y-104331891D01*
X96000000Y-104331891D02*
X96000000Y-101168109D01*
D18*
X64256395Y-101418096D02*
X78025000Y-115186701D01*
D19*
X92937500Y-100562500D02*
X93000000Y-100500000D01*
D18*
X78025000Y-117550305D02*
X78449695Y-117975000D01*
X90775000Y-107128249D02*
X92603249Y-105300000D01*
D19*
X91362500Y-100500000D02*
X91062500Y-100200000D01*
D18*
X64256395Y-98000500D02*
X64256395Y-101418096D01*
D19*
X96000000Y-101168109D02*
X95540946Y-100709054D01*
X94937500Y-105300000D02*
X95031891Y-105300000D01*
D18*
%TO.N,Net-(Q1-G)*%
X92937500Y-103700000D02*
X94712500Y-103700000D01*
X94712500Y-103700000D02*
X94750000Y-103662500D01*
%TO.N,Net-(Q2-G)*%
X91950000Y-98300000D02*
X93500000Y-96750000D01*
X91062500Y-98300000D02*
X91950000Y-98300000D01*
%TO.N,Net-(Q3-G)*%
X94937500Y-107200000D02*
X97037500Y-107200000D01*
X97037500Y-107200000D02*
X97087500Y-107250000D01*
%TO.N,Net-(U5-REXT)*%
X79250000Y-88500000D02*
X79250000Y-86750000D01*
X76579162Y-88496931D02*
X77832231Y-89750000D01*
X77832231Y-89750000D02*
X78000000Y-89750000D01*
X78000000Y-89750000D02*
X79250000Y-88500000D01*
%TD*%
M02*
