%TF.GenerationSoftware,KiCad,Pcbnew,8.0.5*%
%TF.CreationDate,2025-04-26T14:04:24+02:00*%
%TF.ProjectId,vlvts_top,766c7674-735f-4746-9f70-2e6b69636164,rev?*%
%TF.SameCoordinates,Original*%
%TF.FileFunction,Legend,Bot*%
%TF.FilePolarity,Positive*%
%FSLAX46Y46*%
G04 Gerber Fmt 4.6, Leading zero omitted, Abs format (unit mm)*
G04 Created by KiCad (PCBNEW 8.0.5) date 2025-04-26 14:04:24*
%MOMM*%
%LPD*%
G01*
G04 APERTURE LIST*
%ADD10C,0.150000*%
%ADD11C,0.120000*%
G04 APERTURE END LIST*
D10*
X84714286Y-112483180D02*
X84476191Y-113149847D01*
X84476191Y-113149847D02*
X84238096Y-112483180D01*
X83714286Y-113149847D02*
X83809524Y-113102228D01*
X83809524Y-113102228D02*
X83857143Y-113006989D01*
X83857143Y-113006989D02*
X83857143Y-112149847D01*
X83428571Y-112483180D02*
X83190476Y-113149847D01*
X83190476Y-113149847D02*
X82952381Y-112483180D01*
X82714285Y-112483180D02*
X82333333Y-112483180D01*
X82571428Y-112149847D02*
X82571428Y-113006989D01*
X82571428Y-113006989D02*
X82523809Y-113102228D01*
X82523809Y-113102228D02*
X82428571Y-113149847D01*
X82428571Y-113149847D02*
X82333333Y-113149847D01*
X82047618Y-113102228D02*
X81952380Y-113149847D01*
X81952380Y-113149847D02*
X81761904Y-113149847D01*
X81761904Y-113149847D02*
X81666666Y-113102228D01*
X81666666Y-113102228D02*
X81619047Y-113006989D01*
X81619047Y-113006989D02*
X81619047Y-112959370D01*
X81619047Y-112959370D02*
X81666666Y-112864132D01*
X81666666Y-112864132D02*
X81761904Y-112816513D01*
X81761904Y-112816513D02*
X81904761Y-112816513D01*
X81904761Y-112816513D02*
X81999999Y-112768894D01*
X81999999Y-112768894D02*
X82047618Y-112673656D01*
X82047618Y-112673656D02*
X82047618Y-112626037D01*
X82047618Y-112626037D02*
X81999999Y-112530799D01*
X81999999Y-112530799D02*
X81904761Y-112483180D01*
X81904761Y-112483180D02*
X81761904Y-112483180D01*
X81761904Y-112483180D02*
X81666666Y-112530799D01*
X80571427Y-112483180D02*
X80190475Y-112483180D01*
X80428570Y-112149847D02*
X80428570Y-113006989D01*
X80428570Y-113006989D02*
X80380951Y-113102228D01*
X80380951Y-113102228D02*
X80285713Y-113149847D01*
X80285713Y-113149847D02*
X80190475Y-113149847D01*
X79714284Y-113149847D02*
X79809522Y-113102228D01*
X79809522Y-113102228D02*
X79857141Y-113054608D01*
X79857141Y-113054608D02*
X79904760Y-112959370D01*
X79904760Y-112959370D02*
X79904760Y-112673656D01*
X79904760Y-112673656D02*
X79857141Y-112578418D01*
X79857141Y-112578418D02*
X79809522Y-112530799D01*
X79809522Y-112530799D02*
X79714284Y-112483180D01*
X79714284Y-112483180D02*
X79571427Y-112483180D01*
X79571427Y-112483180D02*
X79476189Y-112530799D01*
X79476189Y-112530799D02*
X79428570Y-112578418D01*
X79428570Y-112578418D02*
X79380951Y-112673656D01*
X79380951Y-112673656D02*
X79380951Y-112959370D01*
X79380951Y-112959370D02*
X79428570Y-113054608D01*
X79428570Y-113054608D02*
X79476189Y-113102228D01*
X79476189Y-113102228D02*
X79571427Y-113149847D01*
X79571427Y-113149847D02*
X79714284Y-113149847D01*
X78952379Y-112483180D02*
X78952379Y-113483180D01*
X78952379Y-112530799D02*
X78857141Y-112483180D01*
X78857141Y-112483180D02*
X78666665Y-112483180D01*
X78666665Y-112483180D02*
X78571427Y-112530799D01*
X78571427Y-112530799D02*
X78523808Y-112578418D01*
X78523808Y-112578418D02*
X78476189Y-112673656D01*
X78476189Y-112673656D02*
X78476189Y-112959370D01*
X78476189Y-112959370D02*
X78523808Y-113054608D01*
X78523808Y-113054608D02*
X78571427Y-113102228D01*
X78571427Y-113102228D02*
X78666665Y-113149847D01*
X78666665Y-113149847D02*
X78857141Y-113149847D01*
X78857141Y-113149847D02*
X78952379Y-113102228D01*
X77095236Y-112149847D02*
X76999998Y-112149847D01*
X76999998Y-112149847D02*
X76904760Y-112197466D01*
X76904760Y-112197466D02*
X76857141Y-112245085D01*
X76857141Y-112245085D02*
X76809522Y-112340323D01*
X76809522Y-112340323D02*
X76761903Y-112530799D01*
X76761903Y-112530799D02*
X76761903Y-112768894D01*
X76761903Y-112768894D02*
X76809522Y-112959370D01*
X76809522Y-112959370D02*
X76857141Y-113054608D01*
X76857141Y-113054608D02*
X76904760Y-113102228D01*
X76904760Y-113102228D02*
X76999998Y-113149847D01*
X76999998Y-113149847D02*
X77095236Y-113149847D01*
X77095236Y-113149847D02*
X77190474Y-113102228D01*
X77190474Y-113102228D02*
X77238093Y-113054608D01*
X77238093Y-113054608D02*
X77285712Y-112959370D01*
X77285712Y-112959370D02*
X77333331Y-112768894D01*
X77333331Y-112768894D02*
X77333331Y-112530799D01*
X77333331Y-112530799D02*
X77285712Y-112340323D01*
X77285712Y-112340323D02*
X77238093Y-112245085D01*
X77238093Y-112245085D02*
X77190474Y-112197466D01*
X77190474Y-112197466D02*
X77095236Y-112149847D01*
X76333331Y-113054608D02*
X76285712Y-113102228D01*
X76285712Y-113102228D02*
X76333331Y-113149847D01*
X76333331Y-113149847D02*
X76380950Y-113102228D01*
X76380950Y-113102228D02*
X76333331Y-113054608D01*
X76333331Y-113054608D02*
X76333331Y-113149847D01*
X75333332Y-113149847D02*
X75904760Y-113149847D01*
X75619046Y-113149847D02*
X75619046Y-112149847D01*
X75619046Y-112149847D02*
X75714284Y-112292704D01*
X75714284Y-112292704D02*
X75809522Y-112387942D01*
X75809522Y-112387942D02*
X75904760Y-112435561D01*
X86095238Y-114759791D02*
X86095238Y-113759791D01*
X86095238Y-114235981D02*
X85523810Y-114235981D01*
X85523810Y-114759791D02*
X85523810Y-113759791D01*
X84619048Y-114093124D02*
X84619048Y-114759791D01*
X85047619Y-114093124D02*
X85047619Y-114616933D01*
X85047619Y-114616933D02*
X85000000Y-114712172D01*
X85000000Y-114712172D02*
X84904762Y-114759791D01*
X84904762Y-114759791D02*
X84761905Y-114759791D01*
X84761905Y-114759791D02*
X84666667Y-114712172D01*
X84666667Y-114712172D02*
X84619048Y-114664552D01*
X84142857Y-114759791D02*
X84142857Y-113759791D01*
X84142857Y-114140743D02*
X84047619Y-114093124D01*
X84047619Y-114093124D02*
X83857143Y-114093124D01*
X83857143Y-114093124D02*
X83761905Y-114140743D01*
X83761905Y-114140743D02*
X83714286Y-114188362D01*
X83714286Y-114188362D02*
X83666667Y-114283600D01*
X83666667Y-114283600D02*
X83666667Y-114569314D01*
X83666667Y-114569314D02*
X83714286Y-114664552D01*
X83714286Y-114664552D02*
X83761905Y-114712172D01*
X83761905Y-114712172D02*
X83857143Y-114759791D01*
X83857143Y-114759791D02*
X84047619Y-114759791D01*
X84047619Y-114759791D02*
X84142857Y-114712172D01*
X82857143Y-114712172D02*
X82952381Y-114759791D01*
X82952381Y-114759791D02*
X83142857Y-114759791D01*
X83142857Y-114759791D02*
X83238095Y-114712172D01*
X83238095Y-114712172D02*
X83285714Y-114616933D01*
X83285714Y-114616933D02*
X83285714Y-114235981D01*
X83285714Y-114235981D02*
X83238095Y-114140743D01*
X83238095Y-114140743D02*
X83142857Y-114093124D01*
X83142857Y-114093124D02*
X82952381Y-114093124D01*
X82952381Y-114093124D02*
X82857143Y-114140743D01*
X82857143Y-114140743D02*
X82809524Y-114235981D01*
X82809524Y-114235981D02*
X82809524Y-114331219D01*
X82809524Y-114331219D02*
X83285714Y-114426457D01*
X82380952Y-114759791D02*
X82380952Y-114093124D01*
X82380952Y-114283600D02*
X82333333Y-114188362D01*
X82333333Y-114188362D02*
X82285714Y-114140743D01*
X82285714Y-114140743D02*
X82190476Y-114093124D01*
X82190476Y-114093124D02*
X82095238Y-114093124D01*
X81904761Y-114093124D02*
X81523809Y-114093124D01*
X81761904Y-113759791D02*
X81761904Y-114616933D01*
X81761904Y-114616933D02*
X81714285Y-114712172D01*
X81714285Y-114712172D02*
X81619047Y-114759791D01*
X81619047Y-114759791D02*
X81523809Y-114759791D01*
X80428570Y-114759791D02*
X80428570Y-113759791D01*
X80428570Y-113759791D02*
X80095237Y-114474076D01*
X80095237Y-114474076D02*
X79761904Y-113759791D01*
X79761904Y-113759791D02*
X79761904Y-114759791D01*
X79285713Y-114759791D02*
X79285713Y-114093124D01*
X79285713Y-113759791D02*
X79333332Y-113807410D01*
X79333332Y-113807410D02*
X79285713Y-113855029D01*
X79285713Y-113855029D02*
X79238094Y-113807410D01*
X79238094Y-113807410D02*
X79285713Y-113759791D01*
X79285713Y-113759791D02*
X79285713Y-113855029D01*
X78857142Y-114712172D02*
X78761904Y-114759791D01*
X78761904Y-114759791D02*
X78571428Y-114759791D01*
X78571428Y-114759791D02*
X78476190Y-114712172D01*
X78476190Y-114712172D02*
X78428571Y-114616933D01*
X78428571Y-114616933D02*
X78428571Y-114569314D01*
X78428571Y-114569314D02*
X78476190Y-114474076D01*
X78476190Y-114474076D02*
X78571428Y-114426457D01*
X78571428Y-114426457D02*
X78714285Y-114426457D01*
X78714285Y-114426457D02*
X78809523Y-114378838D01*
X78809523Y-114378838D02*
X78857142Y-114283600D01*
X78857142Y-114283600D02*
X78857142Y-114235981D01*
X78857142Y-114235981D02*
X78809523Y-114140743D01*
X78809523Y-114140743D02*
X78714285Y-114093124D01*
X78714285Y-114093124D02*
X78571428Y-114093124D01*
X78571428Y-114093124D02*
X78476190Y-114140743D01*
X78571428Y-113712172D02*
X78714285Y-113855029D01*
X77285713Y-113855029D02*
X77238094Y-113807410D01*
X77238094Y-113807410D02*
X77142856Y-113759791D01*
X77142856Y-113759791D02*
X76904761Y-113759791D01*
X76904761Y-113759791D02*
X76809523Y-113807410D01*
X76809523Y-113807410D02*
X76761904Y-113855029D01*
X76761904Y-113855029D02*
X76714285Y-113950267D01*
X76714285Y-113950267D02*
X76714285Y-114045505D01*
X76714285Y-114045505D02*
X76761904Y-114188362D01*
X76761904Y-114188362D02*
X77333332Y-114759791D01*
X77333332Y-114759791D02*
X76714285Y-114759791D01*
X76095237Y-113759791D02*
X75999999Y-113759791D01*
X75999999Y-113759791D02*
X75904761Y-113807410D01*
X75904761Y-113807410D02*
X75857142Y-113855029D01*
X75857142Y-113855029D02*
X75809523Y-113950267D01*
X75809523Y-113950267D02*
X75761904Y-114140743D01*
X75761904Y-114140743D02*
X75761904Y-114378838D01*
X75761904Y-114378838D02*
X75809523Y-114569314D01*
X75809523Y-114569314D02*
X75857142Y-114664552D01*
X75857142Y-114664552D02*
X75904761Y-114712172D01*
X75904761Y-114712172D02*
X75999999Y-114759791D01*
X75999999Y-114759791D02*
X76095237Y-114759791D01*
X76095237Y-114759791D02*
X76190475Y-114712172D01*
X76190475Y-114712172D02*
X76238094Y-114664552D01*
X76238094Y-114664552D02*
X76285713Y-114569314D01*
X76285713Y-114569314D02*
X76333332Y-114378838D01*
X76333332Y-114378838D02*
X76333332Y-114140743D01*
X76333332Y-114140743D02*
X76285713Y-113950267D01*
X76285713Y-113950267D02*
X76238094Y-113855029D01*
X76238094Y-113855029D02*
X76190475Y-113807410D01*
X76190475Y-113807410D02*
X76095237Y-113759791D01*
X75380951Y-113855029D02*
X75333332Y-113807410D01*
X75333332Y-113807410D02*
X75238094Y-113759791D01*
X75238094Y-113759791D02*
X74999999Y-113759791D01*
X74999999Y-113759791D02*
X74904761Y-113807410D01*
X74904761Y-113807410D02*
X74857142Y-113855029D01*
X74857142Y-113855029D02*
X74809523Y-113950267D01*
X74809523Y-113950267D02*
X74809523Y-114045505D01*
X74809523Y-114045505D02*
X74857142Y-114188362D01*
X74857142Y-114188362D02*
X75428570Y-114759791D01*
X75428570Y-114759791D02*
X74809523Y-114759791D01*
X73952380Y-114093124D02*
X73952380Y-114759791D01*
X74190475Y-113712172D02*
X74428570Y-114426457D01*
X74428570Y-114426457D02*
X73809523Y-114426457D01*
X97214285Y-102454819D02*
X97214285Y-101454819D01*
X97214285Y-101454819D02*
X96976190Y-101454819D01*
X96976190Y-101454819D02*
X96833333Y-101502438D01*
X96833333Y-101502438D02*
X96738095Y-101597676D01*
X96738095Y-101597676D02*
X96690476Y-101692914D01*
X96690476Y-101692914D02*
X96642857Y-101883390D01*
X96642857Y-101883390D02*
X96642857Y-102026247D01*
X96642857Y-102026247D02*
X96690476Y-102216723D01*
X96690476Y-102216723D02*
X96738095Y-102311961D01*
X96738095Y-102311961D02*
X96833333Y-102407200D01*
X96833333Y-102407200D02*
X96976190Y-102454819D01*
X96976190Y-102454819D02*
X97214285Y-102454819D01*
X96309523Y-101454819D02*
X95690476Y-101454819D01*
X95690476Y-101454819D02*
X96023809Y-101835771D01*
X96023809Y-101835771D02*
X95880952Y-101835771D01*
X95880952Y-101835771D02*
X95785714Y-101883390D01*
X95785714Y-101883390D02*
X95738095Y-101931009D01*
X95738095Y-101931009D02*
X95690476Y-102026247D01*
X95690476Y-102026247D02*
X95690476Y-102264342D01*
X95690476Y-102264342D02*
X95738095Y-102359580D01*
X95738095Y-102359580D02*
X95785714Y-102407200D01*
X95785714Y-102407200D02*
X95880952Y-102454819D01*
X95880952Y-102454819D02*
X96166666Y-102454819D01*
X96166666Y-102454819D02*
X96261904Y-102407200D01*
X96261904Y-102407200D02*
X96309523Y-102359580D01*
X94738095Y-102454819D02*
X95309523Y-102454819D01*
X95023809Y-102454819D02*
X95023809Y-101454819D01*
X95023809Y-101454819D02*
X95119047Y-101597676D01*
X95119047Y-101597676D02*
X95214285Y-101692914D01*
X95214285Y-101692914D02*
X95309523Y-101740533D01*
X75024819Y-90035714D02*
X74024819Y-90035714D01*
X74024819Y-90035714D02*
X74024819Y-90273809D01*
X74024819Y-90273809D02*
X74072438Y-90416666D01*
X74072438Y-90416666D02*
X74167676Y-90511904D01*
X74167676Y-90511904D02*
X74262914Y-90559523D01*
X74262914Y-90559523D02*
X74453390Y-90607142D01*
X74453390Y-90607142D02*
X74596247Y-90607142D01*
X74596247Y-90607142D02*
X74786723Y-90559523D01*
X74786723Y-90559523D02*
X74881961Y-90511904D01*
X74881961Y-90511904D02*
X74977200Y-90416666D01*
X74977200Y-90416666D02*
X75024819Y-90273809D01*
X75024819Y-90273809D02*
X75024819Y-90035714D01*
X74120057Y-90988095D02*
X74072438Y-91035714D01*
X74072438Y-91035714D02*
X74024819Y-91130952D01*
X74024819Y-91130952D02*
X74024819Y-91369047D01*
X74024819Y-91369047D02*
X74072438Y-91464285D01*
X74072438Y-91464285D02*
X74120057Y-91511904D01*
X74120057Y-91511904D02*
X74215295Y-91559523D01*
X74215295Y-91559523D02*
X74310533Y-91559523D01*
X74310533Y-91559523D02*
X74453390Y-91511904D01*
X74453390Y-91511904D02*
X75024819Y-90940476D01*
X75024819Y-90940476D02*
X75024819Y-91559523D01*
X75024819Y-92035714D02*
X75024819Y-92226190D01*
X75024819Y-92226190D02*
X74977200Y-92321428D01*
X74977200Y-92321428D02*
X74929580Y-92369047D01*
X74929580Y-92369047D02*
X74786723Y-92464285D01*
X74786723Y-92464285D02*
X74596247Y-92511904D01*
X74596247Y-92511904D02*
X74215295Y-92511904D01*
X74215295Y-92511904D02*
X74120057Y-92464285D01*
X74120057Y-92464285D02*
X74072438Y-92416666D01*
X74072438Y-92416666D02*
X74024819Y-92321428D01*
X74024819Y-92321428D02*
X74024819Y-92130952D01*
X74024819Y-92130952D02*
X74072438Y-92035714D01*
X74072438Y-92035714D02*
X74120057Y-91988095D01*
X74120057Y-91988095D02*
X74215295Y-91940476D01*
X74215295Y-91940476D02*
X74453390Y-91940476D01*
X74453390Y-91940476D02*
X74548628Y-91988095D01*
X74548628Y-91988095D02*
X74596247Y-92035714D01*
X74596247Y-92035714D02*
X74643866Y-92130952D01*
X74643866Y-92130952D02*
X74643866Y-92321428D01*
X74643866Y-92321428D02*
X74596247Y-92416666D01*
X74596247Y-92416666D02*
X74548628Y-92464285D01*
X74548628Y-92464285D02*
X74453390Y-92511904D01*
X64964285Y-113204819D02*
X64964285Y-112204819D01*
X64964285Y-112204819D02*
X64726190Y-112204819D01*
X64726190Y-112204819D02*
X64583333Y-112252438D01*
X64583333Y-112252438D02*
X64488095Y-112347676D01*
X64488095Y-112347676D02*
X64440476Y-112442914D01*
X64440476Y-112442914D02*
X64392857Y-112633390D01*
X64392857Y-112633390D02*
X64392857Y-112776247D01*
X64392857Y-112776247D02*
X64440476Y-112966723D01*
X64440476Y-112966723D02*
X64488095Y-113061961D01*
X64488095Y-113061961D02*
X64583333Y-113157200D01*
X64583333Y-113157200D02*
X64726190Y-113204819D01*
X64726190Y-113204819D02*
X64964285Y-113204819D01*
X63535714Y-112538152D02*
X63535714Y-113204819D01*
X63773809Y-112157200D02*
X64011904Y-112871485D01*
X64011904Y-112871485D02*
X63392857Y-112871485D01*
X62821428Y-112204819D02*
X62726190Y-112204819D01*
X62726190Y-112204819D02*
X62630952Y-112252438D01*
X62630952Y-112252438D02*
X62583333Y-112300057D01*
X62583333Y-112300057D02*
X62535714Y-112395295D01*
X62535714Y-112395295D02*
X62488095Y-112585771D01*
X62488095Y-112585771D02*
X62488095Y-112823866D01*
X62488095Y-112823866D02*
X62535714Y-113014342D01*
X62535714Y-113014342D02*
X62583333Y-113109580D01*
X62583333Y-113109580D02*
X62630952Y-113157200D01*
X62630952Y-113157200D02*
X62726190Y-113204819D01*
X62726190Y-113204819D02*
X62821428Y-113204819D01*
X62821428Y-113204819D02*
X62916666Y-113157200D01*
X62916666Y-113157200D02*
X62964285Y-113109580D01*
X62964285Y-113109580D02*
X63011904Y-113014342D01*
X63011904Y-113014342D02*
X63059523Y-112823866D01*
X63059523Y-112823866D02*
X63059523Y-112585771D01*
X63059523Y-112585771D02*
X63011904Y-112395295D01*
X63011904Y-112395295D02*
X62964285Y-112300057D01*
X62964285Y-112300057D02*
X62916666Y-112252438D01*
X62916666Y-112252438D02*
X62821428Y-112204819D01*
X76738094Y-93774819D02*
X76738094Y-92774819D01*
X76738094Y-92774819D02*
X76499999Y-92774819D01*
X76499999Y-92774819D02*
X76357142Y-92822438D01*
X76357142Y-92822438D02*
X76261904Y-92917676D01*
X76261904Y-92917676D02*
X76214285Y-93012914D01*
X76214285Y-93012914D02*
X76166666Y-93203390D01*
X76166666Y-93203390D02*
X76166666Y-93346247D01*
X76166666Y-93346247D02*
X76214285Y-93536723D01*
X76214285Y-93536723D02*
X76261904Y-93631961D01*
X76261904Y-93631961D02*
X76357142Y-93727200D01*
X76357142Y-93727200D02*
X76499999Y-93774819D01*
X76499999Y-93774819D02*
X76738094Y-93774819D01*
X75833332Y-92774819D02*
X75166666Y-92774819D01*
X75166666Y-92774819D02*
X75595237Y-93774819D01*
X84238094Y-99274819D02*
X84238094Y-98274819D01*
X84238094Y-98274819D02*
X83999999Y-98274819D01*
X83999999Y-98274819D02*
X83857142Y-98322438D01*
X83857142Y-98322438D02*
X83761904Y-98417676D01*
X83761904Y-98417676D02*
X83714285Y-98512914D01*
X83714285Y-98512914D02*
X83666666Y-98703390D01*
X83666666Y-98703390D02*
X83666666Y-98846247D01*
X83666666Y-98846247D02*
X83714285Y-99036723D01*
X83714285Y-99036723D02*
X83761904Y-99131961D01*
X83761904Y-99131961D02*
X83857142Y-99227200D01*
X83857142Y-99227200D02*
X83999999Y-99274819D01*
X83999999Y-99274819D02*
X84238094Y-99274819D01*
X83333332Y-98274819D02*
X82714285Y-98274819D01*
X82714285Y-98274819D02*
X83047618Y-98655771D01*
X83047618Y-98655771D02*
X82904761Y-98655771D01*
X82904761Y-98655771D02*
X82809523Y-98703390D01*
X82809523Y-98703390D02*
X82761904Y-98751009D01*
X82761904Y-98751009D02*
X82714285Y-98846247D01*
X82714285Y-98846247D02*
X82714285Y-99084342D01*
X82714285Y-99084342D02*
X82761904Y-99179580D01*
X82761904Y-99179580D02*
X82809523Y-99227200D01*
X82809523Y-99227200D02*
X82904761Y-99274819D01*
X82904761Y-99274819D02*
X83190475Y-99274819D01*
X83190475Y-99274819D02*
X83285713Y-99227200D01*
X83285713Y-99227200D02*
X83333332Y-99179580D01*
X63214285Y-103524819D02*
X63214285Y-102524819D01*
X63214285Y-102524819D02*
X62976190Y-102524819D01*
X62976190Y-102524819D02*
X62833333Y-102572438D01*
X62833333Y-102572438D02*
X62738095Y-102667676D01*
X62738095Y-102667676D02*
X62690476Y-102762914D01*
X62690476Y-102762914D02*
X62642857Y-102953390D01*
X62642857Y-102953390D02*
X62642857Y-103096247D01*
X62642857Y-103096247D02*
X62690476Y-103286723D01*
X62690476Y-103286723D02*
X62738095Y-103381961D01*
X62738095Y-103381961D02*
X62833333Y-103477200D01*
X62833333Y-103477200D02*
X62976190Y-103524819D01*
X62976190Y-103524819D02*
X63214285Y-103524819D01*
X62309523Y-102524819D02*
X61690476Y-102524819D01*
X61690476Y-102524819D02*
X62023809Y-102905771D01*
X62023809Y-102905771D02*
X61880952Y-102905771D01*
X61880952Y-102905771D02*
X61785714Y-102953390D01*
X61785714Y-102953390D02*
X61738095Y-103001009D01*
X61738095Y-103001009D02*
X61690476Y-103096247D01*
X61690476Y-103096247D02*
X61690476Y-103334342D01*
X61690476Y-103334342D02*
X61738095Y-103429580D01*
X61738095Y-103429580D02*
X61785714Y-103477200D01*
X61785714Y-103477200D02*
X61880952Y-103524819D01*
X61880952Y-103524819D02*
X62166666Y-103524819D01*
X62166666Y-103524819D02*
X62261904Y-103477200D01*
X62261904Y-103477200D02*
X62309523Y-103429580D01*
X60785714Y-102524819D02*
X61261904Y-102524819D01*
X61261904Y-102524819D02*
X61309523Y-103001009D01*
X61309523Y-103001009D02*
X61261904Y-102953390D01*
X61261904Y-102953390D02*
X61166666Y-102905771D01*
X61166666Y-102905771D02*
X60928571Y-102905771D01*
X60928571Y-102905771D02*
X60833333Y-102953390D01*
X60833333Y-102953390D02*
X60785714Y-103001009D01*
X60785714Y-103001009D02*
X60738095Y-103096247D01*
X60738095Y-103096247D02*
X60738095Y-103334342D01*
X60738095Y-103334342D02*
X60785714Y-103429580D01*
X60785714Y-103429580D02*
X60833333Y-103477200D01*
X60833333Y-103477200D02*
X60928571Y-103524819D01*
X60928571Y-103524819D02*
X61166666Y-103524819D01*
X61166666Y-103524819D02*
X61261904Y-103477200D01*
X61261904Y-103477200D02*
X61309523Y-103429580D01*
X89464285Y-113204819D02*
X89464285Y-112204819D01*
X89464285Y-112204819D02*
X89226190Y-112204819D01*
X89226190Y-112204819D02*
X89083333Y-112252438D01*
X89083333Y-112252438D02*
X88988095Y-112347676D01*
X88988095Y-112347676D02*
X88940476Y-112442914D01*
X88940476Y-112442914D02*
X88892857Y-112633390D01*
X88892857Y-112633390D02*
X88892857Y-112776247D01*
X88892857Y-112776247D02*
X88940476Y-112966723D01*
X88940476Y-112966723D02*
X88988095Y-113061961D01*
X88988095Y-113061961D02*
X89083333Y-113157200D01*
X89083333Y-113157200D02*
X89226190Y-113204819D01*
X89226190Y-113204819D02*
X89464285Y-113204819D01*
X88559523Y-112204819D02*
X87940476Y-112204819D01*
X87940476Y-112204819D02*
X88273809Y-112585771D01*
X88273809Y-112585771D02*
X88130952Y-112585771D01*
X88130952Y-112585771D02*
X88035714Y-112633390D01*
X88035714Y-112633390D02*
X87988095Y-112681009D01*
X87988095Y-112681009D02*
X87940476Y-112776247D01*
X87940476Y-112776247D02*
X87940476Y-113014342D01*
X87940476Y-113014342D02*
X87988095Y-113109580D01*
X87988095Y-113109580D02*
X88035714Y-113157200D01*
X88035714Y-113157200D02*
X88130952Y-113204819D01*
X88130952Y-113204819D02*
X88416666Y-113204819D01*
X88416666Y-113204819D02*
X88511904Y-113157200D01*
X88511904Y-113157200D02*
X88559523Y-113109580D01*
X87369047Y-112633390D02*
X87464285Y-112585771D01*
X87464285Y-112585771D02*
X87511904Y-112538152D01*
X87511904Y-112538152D02*
X87559523Y-112442914D01*
X87559523Y-112442914D02*
X87559523Y-112395295D01*
X87559523Y-112395295D02*
X87511904Y-112300057D01*
X87511904Y-112300057D02*
X87464285Y-112252438D01*
X87464285Y-112252438D02*
X87369047Y-112204819D01*
X87369047Y-112204819D02*
X87178571Y-112204819D01*
X87178571Y-112204819D02*
X87083333Y-112252438D01*
X87083333Y-112252438D02*
X87035714Y-112300057D01*
X87035714Y-112300057D02*
X86988095Y-112395295D01*
X86988095Y-112395295D02*
X86988095Y-112442914D01*
X86988095Y-112442914D02*
X87035714Y-112538152D01*
X87035714Y-112538152D02*
X87083333Y-112585771D01*
X87083333Y-112585771D02*
X87178571Y-112633390D01*
X87178571Y-112633390D02*
X87369047Y-112633390D01*
X87369047Y-112633390D02*
X87464285Y-112681009D01*
X87464285Y-112681009D02*
X87511904Y-112728628D01*
X87511904Y-112728628D02*
X87559523Y-112823866D01*
X87559523Y-112823866D02*
X87559523Y-113014342D01*
X87559523Y-113014342D02*
X87511904Y-113109580D01*
X87511904Y-113109580D02*
X87464285Y-113157200D01*
X87464285Y-113157200D02*
X87369047Y-113204819D01*
X87369047Y-113204819D02*
X87178571Y-113204819D01*
X87178571Y-113204819D02*
X87083333Y-113157200D01*
X87083333Y-113157200D02*
X87035714Y-113109580D01*
X87035714Y-113109580D02*
X86988095Y-113014342D01*
X86988095Y-113014342D02*
X86988095Y-112823866D01*
X86988095Y-112823866D02*
X87035714Y-112728628D01*
X87035714Y-112728628D02*
X87083333Y-112681009D01*
X87083333Y-112681009D02*
X87178571Y-112633390D01*
X63464285Y-97274819D02*
X63464285Y-96274819D01*
X63464285Y-96274819D02*
X63226190Y-96274819D01*
X63226190Y-96274819D02*
X63083333Y-96322438D01*
X63083333Y-96322438D02*
X62988095Y-96417676D01*
X62988095Y-96417676D02*
X62940476Y-96512914D01*
X62940476Y-96512914D02*
X62892857Y-96703390D01*
X62892857Y-96703390D02*
X62892857Y-96846247D01*
X62892857Y-96846247D02*
X62940476Y-97036723D01*
X62940476Y-97036723D02*
X62988095Y-97131961D01*
X62988095Y-97131961D02*
X63083333Y-97227200D01*
X63083333Y-97227200D02*
X63226190Y-97274819D01*
X63226190Y-97274819D02*
X63464285Y-97274819D01*
X62559523Y-96274819D02*
X61940476Y-96274819D01*
X61940476Y-96274819D02*
X62273809Y-96655771D01*
X62273809Y-96655771D02*
X62130952Y-96655771D01*
X62130952Y-96655771D02*
X62035714Y-96703390D01*
X62035714Y-96703390D02*
X61988095Y-96751009D01*
X61988095Y-96751009D02*
X61940476Y-96846247D01*
X61940476Y-96846247D02*
X61940476Y-97084342D01*
X61940476Y-97084342D02*
X61988095Y-97179580D01*
X61988095Y-97179580D02*
X62035714Y-97227200D01*
X62035714Y-97227200D02*
X62130952Y-97274819D01*
X62130952Y-97274819D02*
X62416666Y-97274819D01*
X62416666Y-97274819D02*
X62511904Y-97227200D01*
X62511904Y-97227200D02*
X62559523Y-97179580D01*
X61083333Y-96608152D02*
X61083333Y-97274819D01*
X61321428Y-96227200D02*
X61559523Y-96941485D01*
X61559523Y-96941485D02*
X60940476Y-96941485D01*
X72964285Y-100704819D02*
X72964285Y-99704819D01*
X72964285Y-99704819D02*
X72726190Y-99704819D01*
X72726190Y-99704819D02*
X72583333Y-99752438D01*
X72583333Y-99752438D02*
X72488095Y-99847676D01*
X72488095Y-99847676D02*
X72440476Y-99942914D01*
X72440476Y-99942914D02*
X72392857Y-100133390D01*
X72392857Y-100133390D02*
X72392857Y-100276247D01*
X72392857Y-100276247D02*
X72440476Y-100466723D01*
X72440476Y-100466723D02*
X72488095Y-100561961D01*
X72488095Y-100561961D02*
X72583333Y-100657200D01*
X72583333Y-100657200D02*
X72726190Y-100704819D01*
X72726190Y-100704819D02*
X72964285Y-100704819D01*
X71440476Y-100704819D02*
X72011904Y-100704819D01*
X71726190Y-100704819D02*
X71726190Y-99704819D01*
X71726190Y-99704819D02*
X71821428Y-99847676D01*
X71821428Y-99847676D02*
X71916666Y-99942914D01*
X71916666Y-99942914D02*
X72011904Y-99990533D01*
X70821428Y-99704819D02*
X70726190Y-99704819D01*
X70726190Y-99704819D02*
X70630952Y-99752438D01*
X70630952Y-99752438D02*
X70583333Y-99800057D01*
X70583333Y-99800057D02*
X70535714Y-99895295D01*
X70535714Y-99895295D02*
X70488095Y-100085771D01*
X70488095Y-100085771D02*
X70488095Y-100323866D01*
X70488095Y-100323866D02*
X70535714Y-100514342D01*
X70535714Y-100514342D02*
X70583333Y-100609580D01*
X70583333Y-100609580D02*
X70630952Y-100657200D01*
X70630952Y-100657200D02*
X70726190Y-100704819D01*
X70726190Y-100704819D02*
X70821428Y-100704819D01*
X70821428Y-100704819D02*
X70916666Y-100657200D01*
X70916666Y-100657200D02*
X70964285Y-100609580D01*
X70964285Y-100609580D02*
X71011904Y-100514342D01*
X71011904Y-100514342D02*
X71059523Y-100323866D01*
X71059523Y-100323866D02*
X71059523Y-100085771D01*
X71059523Y-100085771D02*
X71011904Y-99895295D01*
X71011904Y-99895295D02*
X70964285Y-99800057D01*
X70964285Y-99800057D02*
X70916666Y-99752438D01*
X70916666Y-99752438D02*
X70821428Y-99704819D01*
X85274819Y-102011905D02*
X84274819Y-102011905D01*
X84274819Y-102011905D02*
X84274819Y-102250000D01*
X84274819Y-102250000D02*
X84322438Y-102392857D01*
X84322438Y-102392857D02*
X84417676Y-102488095D01*
X84417676Y-102488095D02*
X84512914Y-102535714D01*
X84512914Y-102535714D02*
X84703390Y-102583333D01*
X84703390Y-102583333D02*
X84846247Y-102583333D01*
X84846247Y-102583333D02*
X85036723Y-102535714D01*
X85036723Y-102535714D02*
X85131961Y-102488095D01*
X85131961Y-102488095D02*
X85227200Y-102392857D01*
X85227200Y-102392857D02*
X85274819Y-102250000D01*
X85274819Y-102250000D02*
X85274819Y-102011905D01*
X84608152Y-103440476D02*
X85274819Y-103440476D01*
X84227200Y-103202381D02*
X84941485Y-102964286D01*
X84941485Y-102964286D02*
X84941485Y-103583333D01*
X81704819Y-105011905D02*
X80704819Y-105011905D01*
X80704819Y-105011905D02*
X80704819Y-105250000D01*
X80704819Y-105250000D02*
X80752438Y-105392857D01*
X80752438Y-105392857D02*
X80847676Y-105488095D01*
X80847676Y-105488095D02*
X80942914Y-105535714D01*
X80942914Y-105535714D02*
X81133390Y-105583333D01*
X81133390Y-105583333D02*
X81276247Y-105583333D01*
X81276247Y-105583333D02*
X81466723Y-105535714D01*
X81466723Y-105535714D02*
X81561961Y-105488095D01*
X81561961Y-105488095D02*
X81657200Y-105392857D01*
X81657200Y-105392857D02*
X81704819Y-105250000D01*
X81704819Y-105250000D02*
X81704819Y-105011905D01*
X80704819Y-106488095D02*
X80704819Y-106011905D01*
X80704819Y-106011905D02*
X81181009Y-105964286D01*
X81181009Y-105964286D02*
X81133390Y-106011905D01*
X81133390Y-106011905D02*
X81085771Y-106107143D01*
X81085771Y-106107143D02*
X81085771Y-106345238D01*
X81085771Y-106345238D02*
X81133390Y-106440476D01*
X81133390Y-106440476D02*
X81181009Y-106488095D01*
X81181009Y-106488095D02*
X81276247Y-106535714D01*
X81276247Y-106535714D02*
X81514342Y-106535714D01*
X81514342Y-106535714D02*
X81609580Y-106488095D01*
X81609580Y-106488095D02*
X81657200Y-106440476D01*
X81657200Y-106440476D02*
X81704819Y-106345238D01*
X81704819Y-106345238D02*
X81704819Y-106107143D01*
X81704819Y-106107143D02*
X81657200Y-106011905D01*
X81657200Y-106011905D02*
X81609580Y-105964286D01*
X65464285Y-90024819D02*
X65464285Y-89024819D01*
X65464285Y-89024819D02*
X65226190Y-89024819D01*
X65226190Y-89024819D02*
X65083333Y-89072438D01*
X65083333Y-89072438D02*
X64988095Y-89167676D01*
X64988095Y-89167676D02*
X64940476Y-89262914D01*
X64940476Y-89262914D02*
X64892857Y-89453390D01*
X64892857Y-89453390D02*
X64892857Y-89596247D01*
X64892857Y-89596247D02*
X64940476Y-89786723D01*
X64940476Y-89786723D02*
X64988095Y-89881961D01*
X64988095Y-89881961D02*
X65083333Y-89977200D01*
X65083333Y-89977200D02*
X65226190Y-90024819D01*
X65226190Y-90024819D02*
X65464285Y-90024819D01*
X64559523Y-89024819D02*
X63940476Y-89024819D01*
X63940476Y-89024819D02*
X64273809Y-89405771D01*
X64273809Y-89405771D02*
X64130952Y-89405771D01*
X64130952Y-89405771D02*
X64035714Y-89453390D01*
X64035714Y-89453390D02*
X63988095Y-89501009D01*
X63988095Y-89501009D02*
X63940476Y-89596247D01*
X63940476Y-89596247D02*
X63940476Y-89834342D01*
X63940476Y-89834342D02*
X63988095Y-89929580D01*
X63988095Y-89929580D02*
X64035714Y-89977200D01*
X64035714Y-89977200D02*
X64130952Y-90024819D01*
X64130952Y-90024819D02*
X64416666Y-90024819D01*
X64416666Y-90024819D02*
X64511904Y-89977200D01*
X64511904Y-89977200D02*
X64559523Y-89929580D01*
X63321428Y-89024819D02*
X63226190Y-89024819D01*
X63226190Y-89024819D02*
X63130952Y-89072438D01*
X63130952Y-89072438D02*
X63083333Y-89120057D01*
X63083333Y-89120057D02*
X63035714Y-89215295D01*
X63035714Y-89215295D02*
X62988095Y-89405771D01*
X62988095Y-89405771D02*
X62988095Y-89643866D01*
X62988095Y-89643866D02*
X63035714Y-89834342D01*
X63035714Y-89834342D02*
X63083333Y-89929580D01*
X63083333Y-89929580D02*
X63130952Y-89977200D01*
X63130952Y-89977200D02*
X63226190Y-90024819D01*
X63226190Y-90024819D02*
X63321428Y-90024819D01*
X63321428Y-90024819D02*
X63416666Y-89977200D01*
X63416666Y-89977200D02*
X63464285Y-89929580D01*
X63464285Y-89929580D02*
X63511904Y-89834342D01*
X63511904Y-89834342D02*
X63559523Y-89643866D01*
X63559523Y-89643866D02*
X63559523Y-89405771D01*
X63559523Y-89405771D02*
X63511904Y-89215295D01*
X63511904Y-89215295D02*
X63464285Y-89120057D01*
X63464285Y-89120057D02*
X63416666Y-89072438D01*
X63416666Y-89072438D02*
X63321428Y-89024819D01*
X85464285Y-81954819D02*
X85464285Y-80954819D01*
X85464285Y-80954819D02*
X85226190Y-80954819D01*
X85226190Y-80954819D02*
X85083333Y-81002438D01*
X85083333Y-81002438D02*
X84988095Y-81097676D01*
X84988095Y-81097676D02*
X84940476Y-81192914D01*
X84940476Y-81192914D02*
X84892857Y-81383390D01*
X84892857Y-81383390D02*
X84892857Y-81526247D01*
X84892857Y-81526247D02*
X84940476Y-81716723D01*
X84940476Y-81716723D02*
X84988095Y-81811961D01*
X84988095Y-81811961D02*
X85083333Y-81907200D01*
X85083333Y-81907200D02*
X85226190Y-81954819D01*
X85226190Y-81954819D02*
X85464285Y-81954819D01*
X83940476Y-81954819D02*
X84511904Y-81954819D01*
X84226190Y-81954819D02*
X84226190Y-80954819D01*
X84226190Y-80954819D02*
X84321428Y-81097676D01*
X84321428Y-81097676D02*
X84416666Y-81192914D01*
X84416666Y-81192914D02*
X84511904Y-81240533D01*
X83369047Y-81383390D02*
X83464285Y-81335771D01*
X83464285Y-81335771D02*
X83511904Y-81288152D01*
X83511904Y-81288152D02*
X83559523Y-81192914D01*
X83559523Y-81192914D02*
X83559523Y-81145295D01*
X83559523Y-81145295D02*
X83511904Y-81050057D01*
X83511904Y-81050057D02*
X83464285Y-81002438D01*
X83464285Y-81002438D02*
X83369047Y-80954819D01*
X83369047Y-80954819D02*
X83178571Y-80954819D01*
X83178571Y-80954819D02*
X83083333Y-81002438D01*
X83083333Y-81002438D02*
X83035714Y-81050057D01*
X83035714Y-81050057D02*
X82988095Y-81145295D01*
X82988095Y-81145295D02*
X82988095Y-81192914D01*
X82988095Y-81192914D02*
X83035714Y-81288152D01*
X83035714Y-81288152D02*
X83083333Y-81335771D01*
X83083333Y-81335771D02*
X83178571Y-81383390D01*
X83178571Y-81383390D02*
X83369047Y-81383390D01*
X83369047Y-81383390D02*
X83464285Y-81431009D01*
X83464285Y-81431009D02*
X83511904Y-81478628D01*
X83511904Y-81478628D02*
X83559523Y-81573866D01*
X83559523Y-81573866D02*
X83559523Y-81764342D01*
X83559523Y-81764342D02*
X83511904Y-81859580D01*
X83511904Y-81859580D02*
X83464285Y-81907200D01*
X83464285Y-81907200D02*
X83369047Y-81954819D01*
X83369047Y-81954819D02*
X83178571Y-81954819D01*
X83178571Y-81954819D02*
X83083333Y-81907200D01*
X83083333Y-81907200D02*
X83035714Y-81859580D01*
X83035714Y-81859580D02*
X82988095Y-81764342D01*
X82988095Y-81764342D02*
X82988095Y-81573866D01*
X82988095Y-81573866D02*
X83035714Y-81478628D01*
X83035714Y-81478628D02*
X83083333Y-81431009D01*
X83083333Y-81431009D02*
X83178571Y-81383390D01*
X77214285Y-104774819D02*
X77214285Y-103774819D01*
X77214285Y-103774819D02*
X76976190Y-103774819D01*
X76976190Y-103774819D02*
X76833333Y-103822438D01*
X76833333Y-103822438D02*
X76738095Y-103917676D01*
X76738095Y-103917676D02*
X76690476Y-104012914D01*
X76690476Y-104012914D02*
X76642857Y-104203390D01*
X76642857Y-104203390D02*
X76642857Y-104346247D01*
X76642857Y-104346247D02*
X76690476Y-104536723D01*
X76690476Y-104536723D02*
X76738095Y-104631961D01*
X76738095Y-104631961D02*
X76833333Y-104727200D01*
X76833333Y-104727200D02*
X76976190Y-104774819D01*
X76976190Y-104774819D02*
X77214285Y-104774819D01*
X75690476Y-104774819D02*
X76261904Y-104774819D01*
X75976190Y-104774819D02*
X75976190Y-103774819D01*
X75976190Y-103774819D02*
X76071428Y-103917676D01*
X76071428Y-103917676D02*
X76166666Y-104012914D01*
X76166666Y-104012914D02*
X76261904Y-104060533D01*
X75357142Y-103774819D02*
X74738095Y-103774819D01*
X74738095Y-103774819D02*
X75071428Y-104155771D01*
X75071428Y-104155771D02*
X74928571Y-104155771D01*
X74928571Y-104155771D02*
X74833333Y-104203390D01*
X74833333Y-104203390D02*
X74785714Y-104251009D01*
X74785714Y-104251009D02*
X74738095Y-104346247D01*
X74738095Y-104346247D02*
X74738095Y-104584342D01*
X74738095Y-104584342D02*
X74785714Y-104679580D01*
X74785714Y-104679580D02*
X74833333Y-104727200D01*
X74833333Y-104727200D02*
X74928571Y-104774819D01*
X74928571Y-104774819D02*
X75214285Y-104774819D01*
X75214285Y-104774819D02*
X75309523Y-104727200D01*
X75309523Y-104727200D02*
X75357142Y-104679580D01*
X90704819Y-92785714D02*
X89704819Y-92785714D01*
X89704819Y-92785714D02*
X89704819Y-93023809D01*
X89704819Y-93023809D02*
X89752438Y-93166666D01*
X89752438Y-93166666D02*
X89847676Y-93261904D01*
X89847676Y-93261904D02*
X89942914Y-93309523D01*
X89942914Y-93309523D02*
X90133390Y-93357142D01*
X90133390Y-93357142D02*
X90276247Y-93357142D01*
X90276247Y-93357142D02*
X90466723Y-93309523D01*
X90466723Y-93309523D02*
X90561961Y-93261904D01*
X90561961Y-93261904D02*
X90657200Y-93166666D01*
X90657200Y-93166666D02*
X90704819Y-93023809D01*
X90704819Y-93023809D02*
X90704819Y-92785714D01*
X89704819Y-93690476D02*
X89704819Y-94309523D01*
X89704819Y-94309523D02*
X90085771Y-93976190D01*
X90085771Y-93976190D02*
X90085771Y-94119047D01*
X90085771Y-94119047D02*
X90133390Y-94214285D01*
X90133390Y-94214285D02*
X90181009Y-94261904D01*
X90181009Y-94261904D02*
X90276247Y-94309523D01*
X90276247Y-94309523D02*
X90514342Y-94309523D01*
X90514342Y-94309523D02*
X90609580Y-94261904D01*
X90609580Y-94261904D02*
X90657200Y-94214285D01*
X90657200Y-94214285D02*
X90704819Y-94119047D01*
X90704819Y-94119047D02*
X90704819Y-93833333D01*
X90704819Y-93833333D02*
X90657200Y-93738095D01*
X90657200Y-93738095D02*
X90609580Y-93690476D01*
X89800057Y-94690476D02*
X89752438Y-94738095D01*
X89752438Y-94738095D02*
X89704819Y-94833333D01*
X89704819Y-94833333D02*
X89704819Y-95071428D01*
X89704819Y-95071428D02*
X89752438Y-95166666D01*
X89752438Y-95166666D02*
X89800057Y-95214285D01*
X89800057Y-95214285D02*
X89895295Y-95261904D01*
X89895295Y-95261904D02*
X89990533Y-95261904D01*
X89990533Y-95261904D02*
X90133390Y-95214285D01*
X90133390Y-95214285D02*
X90704819Y-94642857D01*
X90704819Y-94642857D02*
X90704819Y-95261904D01*
X79964285Y-84274819D02*
X79964285Y-83274819D01*
X79964285Y-83274819D02*
X79726190Y-83274819D01*
X79726190Y-83274819D02*
X79583333Y-83322438D01*
X79583333Y-83322438D02*
X79488095Y-83417676D01*
X79488095Y-83417676D02*
X79440476Y-83512914D01*
X79440476Y-83512914D02*
X79392857Y-83703390D01*
X79392857Y-83703390D02*
X79392857Y-83846247D01*
X79392857Y-83846247D02*
X79440476Y-84036723D01*
X79440476Y-84036723D02*
X79488095Y-84131961D01*
X79488095Y-84131961D02*
X79583333Y-84227200D01*
X79583333Y-84227200D02*
X79726190Y-84274819D01*
X79726190Y-84274819D02*
X79964285Y-84274819D01*
X79011904Y-83370057D02*
X78964285Y-83322438D01*
X78964285Y-83322438D02*
X78869047Y-83274819D01*
X78869047Y-83274819D02*
X78630952Y-83274819D01*
X78630952Y-83274819D02*
X78535714Y-83322438D01*
X78535714Y-83322438D02*
X78488095Y-83370057D01*
X78488095Y-83370057D02*
X78440476Y-83465295D01*
X78440476Y-83465295D02*
X78440476Y-83560533D01*
X78440476Y-83560533D02*
X78488095Y-83703390D01*
X78488095Y-83703390D02*
X79059523Y-84274819D01*
X79059523Y-84274819D02*
X78440476Y-84274819D01*
X77583333Y-83608152D02*
X77583333Y-84274819D01*
X77821428Y-83227200D02*
X78059523Y-83941485D01*
X78059523Y-83941485D02*
X77440476Y-83941485D01*
X68024819Y-95785714D02*
X67024819Y-95785714D01*
X67024819Y-95785714D02*
X67024819Y-96023809D01*
X67024819Y-96023809D02*
X67072438Y-96166666D01*
X67072438Y-96166666D02*
X67167676Y-96261904D01*
X67167676Y-96261904D02*
X67262914Y-96309523D01*
X67262914Y-96309523D02*
X67453390Y-96357142D01*
X67453390Y-96357142D02*
X67596247Y-96357142D01*
X67596247Y-96357142D02*
X67786723Y-96309523D01*
X67786723Y-96309523D02*
X67881961Y-96261904D01*
X67881961Y-96261904D02*
X67977200Y-96166666D01*
X67977200Y-96166666D02*
X68024819Y-96023809D01*
X68024819Y-96023809D02*
X68024819Y-95785714D01*
X68024819Y-97309523D02*
X68024819Y-96738095D01*
X68024819Y-97023809D02*
X67024819Y-97023809D01*
X67024819Y-97023809D02*
X67167676Y-96928571D01*
X67167676Y-96928571D02*
X67262914Y-96833333D01*
X67262914Y-96833333D02*
X67310533Y-96738095D01*
X67358152Y-98166666D02*
X68024819Y-98166666D01*
X66977200Y-97928571D02*
X67691485Y-97690476D01*
X67691485Y-97690476D02*
X67691485Y-98309523D01*
X80214285Y-81204819D02*
X80214285Y-80204819D01*
X80214285Y-80204819D02*
X79976190Y-80204819D01*
X79976190Y-80204819D02*
X79833333Y-80252438D01*
X79833333Y-80252438D02*
X79738095Y-80347676D01*
X79738095Y-80347676D02*
X79690476Y-80442914D01*
X79690476Y-80442914D02*
X79642857Y-80633390D01*
X79642857Y-80633390D02*
X79642857Y-80776247D01*
X79642857Y-80776247D02*
X79690476Y-80966723D01*
X79690476Y-80966723D02*
X79738095Y-81061961D01*
X79738095Y-81061961D02*
X79833333Y-81157200D01*
X79833333Y-81157200D02*
X79976190Y-81204819D01*
X79976190Y-81204819D02*
X80214285Y-81204819D01*
X78690476Y-81204819D02*
X79261904Y-81204819D01*
X78976190Y-81204819D02*
X78976190Y-80204819D01*
X78976190Y-80204819D02*
X79071428Y-80347676D01*
X79071428Y-80347676D02*
X79166666Y-80442914D01*
X79166666Y-80442914D02*
X79261904Y-80490533D01*
X78214285Y-81204819D02*
X78023809Y-81204819D01*
X78023809Y-81204819D02*
X77928571Y-81157200D01*
X77928571Y-81157200D02*
X77880952Y-81109580D01*
X77880952Y-81109580D02*
X77785714Y-80966723D01*
X77785714Y-80966723D02*
X77738095Y-80776247D01*
X77738095Y-80776247D02*
X77738095Y-80395295D01*
X77738095Y-80395295D02*
X77785714Y-80300057D01*
X77785714Y-80300057D02*
X77833333Y-80252438D01*
X77833333Y-80252438D02*
X77928571Y-80204819D01*
X77928571Y-80204819D02*
X78119047Y-80204819D01*
X78119047Y-80204819D02*
X78214285Y-80252438D01*
X78214285Y-80252438D02*
X78261904Y-80300057D01*
X78261904Y-80300057D02*
X78309523Y-80395295D01*
X78309523Y-80395295D02*
X78309523Y-80633390D01*
X78309523Y-80633390D02*
X78261904Y-80728628D01*
X78261904Y-80728628D02*
X78214285Y-80776247D01*
X78214285Y-80776247D02*
X78119047Y-80823866D01*
X78119047Y-80823866D02*
X77928571Y-80823866D01*
X77928571Y-80823866D02*
X77833333Y-80776247D01*
X77833333Y-80776247D02*
X77785714Y-80728628D01*
X77785714Y-80728628D02*
X77738095Y-80633390D01*
X96714285Y-89774819D02*
X96714285Y-88774819D01*
X96714285Y-88774819D02*
X96476190Y-88774819D01*
X96476190Y-88774819D02*
X96333333Y-88822438D01*
X96333333Y-88822438D02*
X96238095Y-88917676D01*
X96238095Y-88917676D02*
X96190476Y-89012914D01*
X96190476Y-89012914D02*
X96142857Y-89203390D01*
X96142857Y-89203390D02*
X96142857Y-89346247D01*
X96142857Y-89346247D02*
X96190476Y-89536723D01*
X96190476Y-89536723D02*
X96238095Y-89631961D01*
X96238095Y-89631961D02*
X96333333Y-89727200D01*
X96333333Y-89727200D02*
X96476190Y-89774819D01*
X96476190Y-89774819D02*
X96714285Y-89774819D01*
X95761904Y-88870057D02*
X95714285Y-88822438D01*
X95714285Y-88822438D02*
X95619047Y-88774819D01*
X95619047Y-88774819D02*
X95380952Y-88774819D01*
X95380952Y-88774819D02*
X95285714Y-88822438D01*
X95285714Y-88822438D02*
X95238095Y-88870057D01*
X95238095Y-88870057D02*
X95190476Y-88965295D01*
X95190476Y-88965295D02*
X95190476Y-89060533D01*
X95190476Y-89060533D02*
X95238095Y-89203390D01*
X95238095Y-89203390D02*
X95809523Y-89774819D01*
X95809523Y-89774819D02*
X95190476Y-89774819D01*
X94333333Y-88774819D02*
X94523809Y-88774819D01*
X94523809Y-88774819D02*
X94619047Y-88822438D01*
X94619047Y-88822438D02*
X94666666Y-88870057D01*
X94666666Y-88870057D02*
X94761904Y-89012914D01*
X94761904Y-89012914D02*
X94809523Y-89203390D01*
X94809523Y-89203390D02*
X94809523Y-89584342D01*
X94809523Y-89584342D02*
X94761904Y-89679580D01*
X94761904Y-89679580D02*
X94714285Y-89727200D01*
X94714285Y-89727200D02*
X94619047Y-89774819D01*
X94619047Y-89774819D02*
X94428571Y-89774819D01*
X94428571Y-89774819D02*
X94333333Y-89727200D01*
X94333333Y-89727200D02*
X94285714Y-89679580D01*
X94285714Y-89679580D02*
X94238095Y-89584342D01*
X94238095Y-89584342D02*
X94238095Y-89346247D01*
X94238095Y-89346247D02*
X94285714Y-89251009D01*
X94285714Y-89251009D02*
X94333333Y-89203390D01*
X94333333Y-89203390D02*
X94428571Y-89155771D01*
X94428571Y-89155771D02*
X94619047Y-89155771D01*
X94619047Y-89155771D02*
X94714285Y-89203390D01*
X94714285Y-89203390D02*
X94761904Y-89251009D01*
X94761904Y-89251009D02*
X94809523Y-89346247D01*
X77774819Y-97011905D02*
X76774819Y-97011905D01*
X76774819Y-97011905D02*
X76774819Y-97250000D01*
X76774819Y-97250000D02*
X76822438Y-97392857D01*
X76822438Y-97392857D02*
X76917676Y-97488095D01*
X76917676Y-97488095D02*
X77012914Y-97535714D01*
X77012914Y-97535714D02*
X77203390Y-97583333D01*
X77203390Y-97583333D02*
X77346247Y-97583333D01*
X77346247Y-97583333D02*
X77536723Y-97535714D01*
X77536723Y-97535714D02*
X77631961Y-97488095D01*
X77631961Y-97488095D02*
X77727200Y-97392857D01*
X77727200Y-97392857D02*
X77774819Y-97250000D01*
X77774819Y-97250000D02*
X77774819Y-97011905D01*
X77203390Y-98154762D02*
X77155771Y-98059524D01*
X77155771Y-98059524D02*
X77108152Y-98011905D01*
X77108152Y-98011905D02*
X77012914Y-97964286D01*
X77012914Y-97964286D02*
X76965295Y-97964286D01*
X76965295Y-97964286D02*
X76870057Y-98011905D01*
X76870057Y-98011905D02*
X76822438Y-98059524D01*
X76822438Y-98059524D02*
X76774819Y-98154762D01*
X76774819Y-98154762D02*
X76774819Y-98345238D01*
X76774819Y-98345238D02*
X76822438Y-98440476D01*
X76822438Y-98440476D02*
X76870057Y-98488095D01*
X76870057Y-98488095D02*
X76965295Y-98535714D01*
X76965295Y-98535714D02*
X77012914Y-98535714D01*
X77012914Y-98535714D02*
X77108152Y-98488095D01*
X77108152Y-98488095D02*
X77155771Y-98440476D01*
X77155771Y-98440476D02*
X77203390Y-98345238D01*
X77203390Y-98345238D02*
X77203390Y-98154762D01*
X77203390Y-98154762D02*
X77251009Y-98059524D01*
X77251009Y-98059524D02*
X77298628Y-98011905D01*
X77298628Y-98011905D02*
X77393866Y-97964286D01*
X77393866Y-97964286D02*
X77584342Y-97964286D01*
X77584342Y-97964286D02*
X77679580Y-98011905D01*
X77679580Y-98011905D02*
X77727200Y-98059524D01*
X77727200Y-98059524D02*
X77774819Y-98154762D01*
X77774819Y-98154762D02*
X77774819Y-98345238D01*
X77774819Y-98345238D02*
X77727200Y-98440476D01*
X77727200Y-98440476D02*
X77679580Y-98488095D01*
X77679580Y-98488095D02*
X77584342Y-98535714D01*
X77584342Y-98535714D02*
X77393866Y-98535714D01*
X77393866Y-98535714D02*
X77298628Y-98488095D01*
X77298628Y-98488095D02*
X77251009Y-98440476D01*
X77251009Y-98440476D02*
X77203390Y-98345238D01*
X82704819Y-96011905D02*
X81704819Y-96011905D01*
X81704819Y-96011905D02*
X81704819Y-96250000D01*
X81704819Y-96250000D02*
X81752438Y-96392857D01*
X81752438Y-96392857D02*
X81847676Y-96488095D01*
X81847676Y-96488095D02*
X81942914Y-96535714D01*
X81942914Y-96535714D02*
X82133390Y-96583333D01*
X82133390Y-96583333D02*
X82276247Y-96583333D01*
X82276247Y-96583333D02*
X82466723Y-96535714D01*
X82466723Y-96535714D02*
X82561961Y-96488095D01*
X82561961Y-96488095D02*
X82657200Y-96392857D01*
X82657200Y-96392857D02*
X82704819Y-96250000D01*
X82704819Y-96250000D02*
X82704819Y-96011905D01*
X81800057Y-96964286D02*
X81752438Y-97011905D01*
X81752438Y-97011905D02*
X81704819Y-97107143D01*
X81704819Y-97107143D02*
X81704819Y-97345238D01*
X81704819Y-97345238D02*
X81752438Y-97440476D01*
X81752438Y-97440476D02*
X81800057Y-97488095D01*
X81800057Y-97488095D02*
X81895295Y-97535714D01*
X81895295Y-97535714D02*
X81990533Y-97535714D01*
X81990533Y-97535714D02*
X82133390Y-97488095D01*
X82133390Y-97488095D02*
X82704819Y-96916667D01*
X82704819Y-96916667D02*
X82704819Y-97535714D01*
X94964285Y-87204819D02*
X94964285Y-86204819D01*
X94964285Y-86204819D02*
X94726190Y-86204819D01*
X94726190Y-86204819D02*
X94583333Y-86252438D01*
X94583333Y-86252438D02*
X94488095Y-86347676D01*
X94488095Y-86347676D02*
X94440476Y-86442914D01*
X94440476Y-86442914D02*
X94392857Y-86633390D01*
X94392857Y-86633390D02*
X94392857Y-86776247D01*
X94392857Y-86776247D02*
X94440476Y-86966723D01*
X94440476Y-86966723D02*
X94488095Y-87061961D01*
X94488095Y-87061961D02*
X94583333Y-87157200D01*
X94583333Y-87157200D02*
X94726190Y-87204819D01*
X94726190Y-87204819D02*
X94964285Y-87204819D01*
X93440476Y-87204819D02*
X94011904Y-87204819D01*
X93726190Y-87204819D02*
X93726190Y-86204819D01*
X93726190Y-86204819D02*
X93821428Y-86347676D01*
X93821428Y-86347676D02*
X93916666Y-86442914D01*
X93916666Y-86442914D02*
X94011904Y-86490533D01*
X92583333Y-86204819D02*
X92773809Y-86204819D01*
X92773809Y-86204819D02*
X92869047Y-86252438D01*
X92869047Y-86252438D02*
X92916666Y-86300057D01*
X92916666Y-86300057D02*
X93011904Y-86442914D01*
X93011904Y-86442914D02*
X93059523Y-86633390D01*
X93059523Y-86633390D02*
X93059523Y-87014342D01*
X93059523Y-87014342D02*
X93011904Y-87109580D01*
X93011904Y-87109580D02*
X92964285Y-87157200D01*
X92964285Y-87157200D02*
X92869047Y-87204819D01*
X92869047Y-87204819D02*
X92678571Y-87204819D01*
X92678571Y-87204819D02*
X92583333Y-87157200D01*
X92583333Y-87157200D02*
X92535714Y-87109580D01*
X92535714Y-87109580D02*
X92488095Y-87014342D01*
X92488095Y-87014342D02*
X92488095Y-86776247D01*
X92488095Y-86776247D02*
X92535714Y-86681009D01*
X92535714Y-86681009D02*
X92583333Y-86633390D01*
X92583333Y-86633390D02*
X92678571Y-86585771D01*
X92678571Y-86585771D02*
X92869047Y-86585771D01*
X92869047Y-86585771D02*
X92964285Y-86633390D01*
X92964285Y-86633390D02*
X93011904Y-86681009D01*
X93011904Y-86681009D02*
X93059523Y-86776247D01*
X92214285Y-103024819D02*
X92214285Y-102024819D01*
X92214285Y-102024819D02*
X91976190Y-102024819D01*
X91976190Y-102024819D02*
X91833333Y-102072438D01*
X91833333Y-102072438D02*
X91738095Y-102167676D01*
X91738095Y-102167676D02*
X91690476Y-102262914D01*
X91690476Y-102262914D02*
X91642857Y-102453390D01*
X91642857Y-102453390D02*
X91642857Y-102596247D01*
X91642857Y-102596247D02*
X91690476Y-102786723D01*
X91690476Y-102786723D02*
X91738095Y-102881961D01*
X91738095Y-102881961D02*
X91833333Y-102977200D01*
X91833333Y-102977200D02*
X91976190Y-103024819D01*
X91976190Y-103024819D02*
X92214285Y-103024819D01*
X91309523Y-102024819D02*
X90690476Y-102024819D01*
X90690476Y-102024819D02*
X91023809Y-102405771D01*
X91023809Y-102405771D02*
X90880952Y-102405771D01*
X90880952Y-102405771D02*
X90785714Y-102453390D01*
X90785714Y-102453390D02*
X90738095Y-102501009D01*
X90738095Y-102501009D02*
X90690476Y-102596247D01*
X90690476Y-102596247D02*
X90690476Y-102834342D01*
X90690476Y-102834342D02*
X90738095Y-102929580D01*
X90738095Y-102929580D02*
X90785714Y-102977200D01*
X90785714Y-102977200D02*
X90880952Y-103024819D01*
X90880952Y-103024819D02*
X91166666Y-103024819D01*
X91166666Y-103024819D02*
X91261904Y-102977200D01*
X91261904Y-102977200D02*
X91309523Y-102929580D01*
X90357142Y-102024819D02*
X89738095Y-102024819D01*
X89738095Y-102024819D02*
X90071428Y-102405771D01*
X90071428Y-102405771D02*
X89928571Y-102405771D01*
X89928571Y-102405771D02*
X89833333Y-102453390D01*
X89833333Y-102453390D02*
X89785714Y-102501009D01*
X89785714Y-102501009D02*
X89738095Y-102596247D01*
X89738095Y-102596247D02*
X89738095Y-102834342D01*
X89738095Y-102834342D02*
X89785714Y-102929580D01*
X89785714Y-102929580D02*
X89833333Y-102977200D01*
X89833333Y-102977200D02*
X89928571Y-103024819D01*
X89928571Y-103024819D02*
X90214285Y-103024819D01*
X90214285Y-103024819D02*
X90309523Y-102977200D01*
X90309523Y-102977200D02*
X90357142Y-102929580D01*
X83464285Y-109774819D02*
X83464285Y-108774819D01*
X83464285Y-108774819D02*
X83226190Y-108774819D01*
X83226190Y-108774819D02*
X83083333Y-108822438D01*
X83083333Y-108822438D02*
X82988095Y-108917676D01*
X82988095Y-108917676D02*
X82940476Y-109012914D01*
X82940476Y-109012914D02*
X82892857Y-109203390D01*
X82892857Y-109203390D02*
X82892857Y-109346247D01*
X82892857Y-109346247D02*
X82940476Y-109536723D01*
X82940476Y-109536723D02*
X82988095Y-109631961D01*
X82988095Y-109631961D02*
X83083333Y-109727200D01*
X83083333Y-109727200D02*
X83226190Y-109774819D01*
X83226190Y-109774819D02*
X83464285Y-109774819D01*
X82559523Y-108774819D02*
X81940476Y-108774819D01*
X81940476Y-108774819D02*
X82273809Y-109155771D01*
X82273809Y-109155771D02*
X82130952Y-109155771D01*
X82130952Y-109155771D02*
X82035714Y-109203390D01*
X82035714Y-109203390D02*
X81988095Y-109251009D01*
X81988095Y-109251009D02*
X81940476Y-109346247D01*
X81940476Y-109346247D02*
X81940476Y-109584342D01*
X81940476Y-109584342D02*
X81988095Y-109679580D01*
X81988095Y-109679580D02*
X82035714Y-109727200D01*
X82035714Y-109727200D02*
X82130952Y-109774819D01*
X82130952Y-109774819D02*
X82416666Y-109774819D01*
X82416666Y-109774819D02*
X82511904Y-109727200D01*
X82511904Y-109727200D02*
X82559523Y-109679580D01*
X81083333Y-108774819D02*
X81273809Y-108774819D01*
X81273809Y-108774819D02*
X81369047Y-108822438D01*
X81369047Y-108822438D02*
X81416666Y-108870057D01*
X81416666Y-108870057D02*
X81511904Y-109012914D01*
X81511904Y-109012914D02*
X81559523Y-109203390D01*
X81559523Y-109203390D02*
X81559523Y-109584342D01*
X81559523Y-109584342D02*
X81511904Y-109679580D01*
X81511904Y-109679580D02*
X81464285Y-109727200D01*
X81464285Y-109727200D02*
X81369047Y-109774819D01*
X81369047Y-109774819D02*
X81178571Y-109774819D01*
X81178571Y-109774819D02*
X81083333Y-109727200D01*
X81083333Y-109727200D02*
X81035714Y-109679580D01*
X81035714Y-109679580D02*
X80988095Y-109584342D01*
X80988095Y-109584342D02*
X80988095Y-109346247D01*
X80988095Y-109346247D02*
X81035714Y-109251009D01*
X81035714Y-109251009D02*
X81083333Y-109203390D01*
X81083333Y-109203390D02*
X81178571Y-109155771D01*
X81178571Y-109155771D02*
X81369047Y-109155771D01*
X81369047Y-109155771D02*
X81464285Y-109203390D01*
X81464285Y-109203390D02*
X81511904Y-109251009D01*
X81511904Y-109251009D02*
X81559523Y-109346247D01*
X77464285Y-119204819D02*
X77464285Y-118204819D01*
X77464285Y-118204819D02*
X77226190Y-118204819D01*
X77226190Y-118204819D02*
X77083333Y-118252438D01*
X77083333Y-118252438D02*
X76988095Y-118347676D01*
X76988095Y-118347676D02*
X76940476Y-118442914D01*
X76940476Y-118442914D02*
X76892857Y-118633390D01*
X76892857Y-118633390D02*
X76892857Y-118776247D01*
X76892857Y-118776247D02*
X76940476Y-118966723D01*
X76940476Y-118966723D02*
X76988095Y-119061961D01*
X76988095Y-119061961D02*
X77083333Y-119157200D01*
X77083333Y-119157200D02*
X77226190Y-119204819D01*
X77226190Y-119204819D02*
X77464285Y-119204819D01*
X76559523Y-118204819D02*
X75940476Y-118204819D01*
X75940476Y-118204819D02*
X76273809Y-118585771D01*
X76273809Y-118585771D02*
X76130952Y-118585771D01*
X76130952Y-118585771D02*
X76035714Y-118633390D01*
X76035714Y-118633390D02*
X75988095Y-118681009D01*
X75988095Y-118681009D02*
X75940476Y-118776247D01*
X75940476Y-118776247D02*
X75940476Y-119014342D01*
X75940476Y-119014342D02*
X75988095Y-119109580D01*
X75988095Y-119109580D02*
X76035714Y-119157200D01*
X76035714Y-119157200D02*
X76130952Y-119204819D01*
X76130952Y-119204819D02*
X76416666Y-119204819D01*
X76416666Y-119204819D02*
X76511904Y-119157200D01*
X76511904Y-119157200D02*
X76559523Y-119109580D01*
X75464285Y-119204819D02*
X75273809Y-119204819D01*
X75273809Y-119204819D02*
X75178571Y-119157200D01*
X75178571Y-119157200D02*
X75130952Y-119109580D01*
X75130952Y-119109580D02*
X75035714Y-118966723D01*
X75035714Y-118966723D02*
X74988095Y-118776247D01*
X74988095Y-118776247D02*
X74988095Y-118395295D01*
X74988095Y-118395295D02*
X75035714Y-118300057D01*
X75035714Y-118300057D02*
X75083333Y-118252438D01*
X75083333Y-118252438D02*
X75178571Y-118204819D01*
X75178571Y-118204819D02*
X75369047Y-118204819D01*
X75369047Y-118204819D02*
X75464285Y-118252438D01*
X75464285Y-118252438D02*
X75511904Y-118300057D01*
X75511904Y-118300057D02*
X75559523Y-118395295D01*
X75559523Y-118395295D02*
X75559523Y-118633390D01*
X75559523Y-118633390D02*
X75511904Y-118728628D01*
X75511904Y-118728628D02*
X75464285Y-118776247D01*
X75464285Y-118776247D02*
X75369047Y-118823866D01*
X75369047Y-118823866D02*
X75178571Y-118823866D01*
X75178571Y-118823866D02*
X75083333Y-118776247D01*
X75083333Y-118776247D02*
X75035714Y-118728628D01*
X75035714Y-118728628D02*
X74988095Y-118633390D01*
X76464285Y-110274819D02*
X76464285Y-109274819D01*
X76464285Y-109274819D02*
X76226190Y-109274819D01*
X76226190Y-109274819D02*
X76083333Y-109322438D01*
X76083333Y-109322438D02*
X75988095Y-109417676D01*
X75988095Y-109417676D02*
X75940476Y-109512914D01*
X75940476Y-109512914D02*
X75892857Y-109703390D01*
X75892857Y-109703390D02*
X75892857Y-109846247D01*
X75892857Y-109846247D02*
X75940476Y-110036723D01*
X75940476Y-110036723D02*
X75988095Y-110131961D01*
X75988095Y-110131961D02*
X76083333Y-110227200D01*
X76083333Y-110227200D02*
X76226190Y-110274819D01*
X76226190Y-110274819D02*
X76464285Y-110274819D01*
X75559523Y-109274819D02*
X74940476Y-109274819D01*
X74940476Y-109274819D02*
X75273809Y-109655771D01*
X75273809Y-109655771D02*
X75130952Y-109655771D01*
X75130952Y-109655771D02*
X75035714Y-109703390D01*
X75035714Y-109703390D02*
X74988095Y-109751009D01*
X74988095Y-109751009D02*
X74940476Y-109846247D01*
X74940476Y-109846247D02*
X74940476Y-110084342D01*
X74940476Y-110084342D02*
X74988095Y-110179580D01*
X74988095Y-110179580D02*
X75035714Y-110227200D01*
X75035714Y-110227200D02*
X75130952Y-110274819D01*
X75130952Y-110274819D02*
X75416666Y-110274819D01*
X75416666Y-110274819D02*
X75511904Y-110227200D01*
X75511904Y-110227200D02*
X75559523Y-110179580D01*
X74607142Y-109274819D02*
X73940476Y-109274819D01*
X73940476Y-109274819D02*
X74369047Y-110274819D01*
X72274819Y-96011905D02*
X71274819Y-96011905D01*
X71274819Y-96011905D02*
X71274819Y-96250000D01*
X71274819Y-96250000D02*
X71322438Y-96392857D01*
X71322438Y-96392857D02*
X71417676Y-96488095D01*
X71417676Y-96488095D02*
X71512914Y-96535714D01*
X71512914Y-96535714D02*
X71703390Y-96583333D01*
X71703390Y-96583333D02*
X71846247Y-96583333D01*
X71846247Y-96583333D02*
X72036723Y-96535714D01*
X72036723Y-96535714D02*
X72131961Y-96488095D01*
X72131961Y-96488095D02*
X72227200Y-96392857D01*
X72227200Y-96392857D02*
X72274819Y-96250000D01*
X72274819Y-96250000D02*
X72274819Y-96011905D01*
X72274819Y-97059524D02*
X72274819Y-97250000D01*
X72274819Y-97250000D02*
X72227200Y-97345238D01*
X72227200Y-97345238D02*
X72179580Y-97392857D01*
X72179580Y-97392857D02*
X72036723Y-97488095D01*
X72036723Y-97488095D02*
X71846247Y-97535714D01*
X71846247Y-97535714D02*
X71465295Y-97535714D01*
X71465295Y-97535714D02*
X71370057Y-97488095D01*
X71370057Y-97488095D02*
X71322438Y-97440476D01*
X71322438Y-97440476D02*
X71274819Y-97345238D01*
X71274819Y-97345238D02*
X71274819Y-97154762D01*
X71274819Y-97154762D02*
X71322438Y-97059524D01*
X71322438Y-97059524D02*
X71370057Y-97011905D01*
X71370057Y-97011905D02*
X71465295Y-96964286D01*
X71465295Y-96964286D02*
X71703390Y-96964286D01*
X71703390Y-96964286D02*
X71798628Y-97011905D01*
X71798628Y-97011905D02*
X71846247Y-97059524D01*
X71846247Y-97059524D02*
X71893866Y-97154762D01*
X71893866Y-97154762D02*
X71893866Y-97345238D01*
X71893866Y-97345238D02*
X71846247Y-97440476D01*
X71846247Y-97440476D02*
X71798628Y-97488095D01*
X71798628Y-97488095D02*
X71703390Y-97535714D01*
X82454819Y-86785714D02*
X81454819Y-86785714D01*
X81454819Y-86785714D02*
X81454819Y-87023809D01*
X81454819Y-87023809D02*
X81502438Y-87166666D01*
X81502438Y-87166666D02*
X81597676Y-87261904D01*
X81597676Y-87261904D02*
X81692914Y-87309523D01*
X81692914Y-87309523D02*
X81883390Y-87357142D01*
X81883390Y-87357142D02*
X82026247Y-87357142D01*
X82026247Y-87357142D02*
X82216723Y-87309523D01*
X82216723Y-87309523D02*
X82311961Y-87261904D01*
X82311961Y-87261904D02*
X82407200Y-87166666D01*
X82407200Y-87166666D02*
X82454819Y-87023809D01*
X82454819Y-87023809D02*
X82454819Y-86785714D01*
X81550057Y-87738095D02*
X81502438Y-87785714D01*
X81502438Y-87785714D02*
X81454819Y-87880952D01*
X81454819Y-87880952D02*
X81454819Y-88119047D01*
X81454819Y-88119047D02*
X81502438Y-88214285D01*
X81502438Y-88214285D02*
X81550057Y-88261904D01*
X81550057Y-88261904D02*
X81645295Y-88309523D01*
X81645295Y-88309523D02*
X81740533Y-88309523D01*
X81740533Y-88309523D02*
X81883390Y-88261904D01*
X81883390Y-88261904D02*
X82454819Y-87690476D01*
X82454819Y-87690476D02*
X82454819Y-88309523D01*
X81883390Y-88880952D02*
X81835771Y-88785714D01*
X81835771Y-88785714D02*
X81788152Y-88738095D01*
X81788152Y-88738095D02*
X81692914Y-88690476D01*
X81692914Y-88690476D02*
X81645295Y-88690476D01*
X81645295Y-88690476D02*
X81550057Y-88738095D01*
X81550057Y-88738095D02*
X81502438Y-88785714D01*
X81502438Y-88785714D02*
X81454819Y-88880952D01*
X81454819Y-88880952D02*
X81454819Y-89071428D01*
X81454819Y-89071428D02*
X81502438Y-89166666D01*
X81502438Y-89166666D02*
X81550057Y-89214285D01*
X81550057Y-89214285D02*
X81645295Y-89261904D01*
X81645295Y-89261904D02*
X81692914Y-89261904D01*
X81692914Y-89261904D02*
X81788152Y-89214285D01*
X81788152Y-89214285D02*
X81835771Y-89166666D01*
X81835771Y-89166666D02*
X81883390Y-89071428D01*
X81883390Y-89071428D02*
X81883390Y-88880952D01*
X81883390Y-88880952D02*
X81931009Y-88785714D01*
X81931009Y-88785714D02*
X81978628Y-88738095D01*
X81978628Y-88738095D02*
X82073866Y-88690476D01*
X82073866Y-88690476D02*
X82264342Y-88690476D01*
X82264342Y-88690476D02*
X82359580Y-88738095D01*
X82359580Y-88738095D02*
X82407200Y-88785714D01*
X82407200Y-88785714D02*
X82454819Y-88880952D01*
X82454819Y-88880952D02*
X82454819Y-89071428D01*
X82454819Y-89071428D02*
X82407200Y-89166666D01*
X82407200Y-89166666D02*
X82359580Y-89214285D01*
X82359580Y-89214285D02*
X82264342Y-89261904D01*
X82264342Y-89261904D02*
X82073866Y-89261904D01*
X82073866Y-89261904D02*
X81978628Y-89214285D01*
X81978628Y-89214285D02*
X81931009Y-89166666D01*
X81931009Y-89166666D02*
X81883390Y-89071428D01*
X73464285Y-85274819D02*
X73464285Y-84274819D01*
X73464285Y-84274819D02*
X73226190Y-84274819D01*
X73226190Y-84274819D02*
X73083333Y-84322438D01*
X73083333Y-84322438D02*
X72988095Y-84417676D01*
X72988095Y-84417676D02*
X72940476Y-84512914D01*
X72940476Y-84512914D02*
X72892857Y-84703390D01*
X72892857Y-84703390D02*
X72892857Y-84846247D01*
X72892857Y-84846247D02*
X72940476Y-85036723D01*
X72940476Y-85036723D02*
X72988095Y-85131961D01*
X72988095Y-85131961D02*
X73083333Y-85227200D01*
X73083333Y-85227200D02*
X73226190Y-85274819D01*
X73226190Y-85274819D02*
X73464285Y-85274819D01*
X72511904Y-84370057D02*
X72464285Y-84322438D01*
X72464285Y-84322438D02*
X72369047Y-84274819D01*
X72369047Y-84274819D02*
X72130952Y-84274819D01*
X72130952Y-84274819D02*
X72035714Y-84322438D01*
X72035714Y-84322438D02*
X71988095Y-84370057D01*
X71988095Y-84370057D02*
X71940476Y-84465295D01*
X71940476Y-84465295D02*
X71940476Y-84560533D01*
X71940476Y-84560533D02*
X71988095Y-84703390D01*
X71988095Y-84703390D02*
X72559523Y-85274819D01*
X72559523Y-85274819D02*
X71940476Y-85274819D01*
X71035714Y-84274819D02*
X71511904Y-84274819D01*
X71511904Y-84274819D02*
X71559523Y-84751009D01*
X71559523Y-84751009D02*
X71511904Y-84703390D01*
X71511904Y-84703390D02*
X71416666Y-84655771D01*
X71416666Y-84655771D02*
X71178571Y-84655771D01*
X71178571Y-84655771D02*
X71083333Y-84703390D01*
X71083333Y-84703390D02*
X71035714Y-84751009D01*
X71035714Y-84751009D02*
X70988095Y-84846247D01*
X70988095Y-84846247D02*
X70988095Y-85084342D01*
X70988095Y-85084342D02*
X71035714Y-85179580D01*
X71035714Y-85179580D02*
X71083333Y-85227200D01*
X71083333Y-85227200D02*
X71178571Y-85274819D01*
X71178571Y-85274819D02*
X71416666Y-85274819D01*
X71416666Y-85274819D02*
X71511904Y-85227200D01*
X71511904Y-85227200D02*
X71559523Y-85179580D01*
X86954819Y-94261905D02*
X85954819Y-94261905D01*
X85954819Y-94261905D02*
X85954819Y-94500000D01*
X85954819Y-94500000D02*
X86002438Y-94642857D01*
X86002438Y-94642857D02*
X86097676Y-94738095D01*
X86097676Y-94738095D02*
X86192914Y-94785714D01*
X86192914Y-94785714D02*
X86383390Y-94833333D01*
X86383390Y-94833333D02*
X86526247Y-94833333D01*
X86526247Y-94833333D02*
X86716723Y-94785714D01*
X86716723Y-94785714D02*
X86811961Y-94738095D01*
X86811961Y-94738095D02*
X86907200Y-94642857D01*
X86907200Y-94642857D02*
X86954819Y-94500000D01*
X86954819Y-94500000D02*
X86954819Y-94261905D01*
X86954819Y-95785714D02*
X86954819Y-95214286D01*
X86954819Y-95500000D02*
X85954819Y-95500000D01*
X85954819Y-95500000D02*
X86097676Y-95404762D01*
X86097676Y-95404762D02*
X86192914Y-95309524D01*
X86192914Y-95309524D02*
X86240533Y-95214286D01*
X69964285Y-83954819D02*
X69964285Y-82954819D01*
X69964285Y-82954819D02*
X69726190Y-82954819D01*
X69726190Y-82954819D02*
X69583333Y-83002438D01*
X69583333Y-83002438D02*
X69488095Y-83097676D01*
X69488095Y-83097676D02*
X69440476Y-83192914D01*
X69440476Y-83192914D02*
X69392857Y-83383390D01*
X69392857Y-83383390D02*
X69392857Y-83526247D01*
X69392857Y-83526247D02*
X69440476Y-83716723D01*
X69440476Y-83716723D02*
X69488095Y-83811961D01*
X69488095Y-83811961D02*
X69583333Y-83907200D01*
X69583333Y-83907200D02*
X69726190Y-83954819D01*
X69726190Y-83954819D02*
X69964285Y-83954819D01*
X69011904Y-83050057D02*
X68964285Y-83002438D01*
X68964285Y-83002438D02*
X68869047Y-82954819D01*
X68869047Y-82954819D02*
X68630952Y-82954819D01*
X68630952Y-82954819D02*
X68535714Y-83002438D01*
X68535714Y-83002438D02*
X68488095Y-83050057D01*
X68488095Y-83050057D02*
X68440476Y-83145295D01*
X68440476Y-83145295D02*
X68440476Y-83240533D01*
X68440476Y-83240533D02*
X68488095Y-83383390D01*
X68488095Y-83383390D02*
X69059523Y-83954819D01*
X69059523Y-83954819D02*
X68440476Y-83954819D01*
X67488095Y-83954819D02*
X68059523Y-83954819D01*
X67773809Y-83954819D02*
X67773809Y-82954819D01*
X67773809Y-82954819D02*
X67869047Y-83097676D01*
X67869047Y-83097676D02*
X67964285Y-83192914D01*
X67964285Y-83192914D02*
X68059523Y-83240533D01*
X84238094Y-107704819D02*
X84238094Y-106704819D01*
X84238094Y-106704819D02*
X83999999Y-106704819D01*
X83999999Y-106704819D02*
X83857142Y-106752438D01*
X83857142Y-106752438D02*
X83761904Y-106847676D01*
X83761904Y-106847676D02*
X83714285Y-106942914D01*
X83714285Y-106942914D02*
X83666666Y-107133390D01*
X83666666Y-107133390D02*
X83666666Y-107276247D01*
X83666666Y-107276247D02*
X83714285Y-107466723D01*
X83714285Y-107466723D02*
X83761904Y-107561961D01*
X83761904Y-107561961D02*
X83857142Y-107657200D01*
X83857142Y-107657200D02*
X83999999Y-107704819D01*
X83999999Y-107704819D02*
X84238094Y-107704819D01*
X82809523Y-106704819D02*
X82999999Y-106704819D01*
X82999999Y-106704819D02*
X83095237Y-106752438D01*
X83095237Y-106752438D02*
X83142856Y-106800057D01*
X83142856Y-106800057D02*
X83238094Y-106942914D01*
X83238094Y-106942914D02*
X83285713Y-107133390D01*
X83285713Y-107133390D02*
X83285713Y-107514342D01*
X83285713Y-107514342D02*
X83238094Y-107609580D01*
X83238094Y-107609580D02*
X83190475Y-107657200D01*
X83190475Y-107657200D02*
X83095237Y-107704819D01*
X83095237Y-107704819D02*
X82904761Y-107704819D01*
X82904761Y-107704819D02*
X82809523Y-107657200D01*
X82809523Y-107657200D02*
X82761904Y-107609580D01*
X82761904Y-107609580D02*
X82714285Y-107514342D01*
X82714285Y-107514342D02*
X82714285Y-107276247D01*
X82714285Y-107276247D02*
X82761904Y-107181009D01*
X82761904Y-107181009D02*
X82809523Y-107133390D01*
X82809523Y-107133390D02*
X82904761Y-107085771D01*
X82904761Y-107085771D02*
X83095237Y-107085771D01*
X83095237Y-107085771D02*
X83190475Y-107133390D01*
X83190475Y-107133390D02*
X83238094Y-107181009D01*
X83238094Y-107181009D02*
X83285713Y-107276247D01*
X72274819Y-101535714D02*
X71274819Y-101535714D01*
X71274819Y-101535714D02*
X71274819Y-101773809D01*
X71274819Y-101773809D02*
X71322438Y-101916666D01*
X71322438Y-101916666D02*
X71417676Y-102011904D01*
X71417676Y-102011904D02*
X71512914Y-102059523D01*
X71512914Y-102059523D02*
X71703390Y-102107142D01*
X71703390Y-102107142D02*
X71846247Y-102107142D01*
X71846247Y-102107142D02*
X72036723Y-102059523D01*
X72036723Y-102059523D02*
X72131961Y-102011904D01*
X72131961Y-102011904D02*
X72227200Y-101916666D01*
X72227200Y-101916666D02*
X72274819Y-101773809D01*
X72274819Y-101773809D02*
X72274819Y-101535714D01*
X72274819Y-103059523D02*
X72274819Y-102488095D01*
X72274819Y-102773809D02*
X71274819Y-102773809D01*
X71274819Y-102773809D02*
X71417676Y-102678571D01*
X71417676Y-102678571D02*
X71512914Y-102583333D01*
X71512914Y-102583333D02*
X71560533Y-102488095D01*
X71370057Y-103440476D02*
X71322438Y-103488095D01*
X71322438Y-103488095D02*
X71274819Y-103583333D01*
X71274819Y-103583333D02*
X71274819Y-103821428D01*
X71274819Y-103821428D02*
X71322438Y-103916666D01*
X71322438Y-103916666D02*
X71370057Y-103964285D01*
X71370057Y-103964285D02*
X71465295Y-104011904D01*
X71465295Y-104011904D02*
X71560533Y-104011904D01*
X71560533Y-104011904D02*
X71703390Y-103964285D01*
X71703390Y-103964285D02*
X72274819Y-103392857D01*
X72274819Y-103392857D02*
X72274819Y-104011904D01*
X85488094Y-93704819D02*
X85488094Y-92704819D01*
X85488094Y-92704819D02*
X85249999Y-92704819D01*
X85249999Y-92704819D02*
X85107142Y-92752438D01*
X85107142Y-92752438D02*
X85011904Y-92847676D01*
X85011904Y-92847676D02*
X84964285Y-92942914D01*
X84964285Y-92942914D02*
X84916666Y-93133390D01*
X84916666Y-93133390D02*
X84916666Y-93276247D01*
X84916666Y-93276247D02*
X84964285Y-93466723D01*
X84964285Y-93466723D02*
X85011904Y-93561961D01*
X85011904Y-93561961D02*
X85107142Y-93657200D01*
X85107142Y-93657200D02*
X85249999Y-93704819D01*
X85249999Y-93704819D02*
X85488094Y-93704819D01*
X84297618Y-92704819D02*
X84202380Y-92704819D01*
X84202380Y-92704819D02*
X84107142Y-92752438D01*
X84107142Y-92752438D02*
X84059523Y-92800057D01*
X84059523Y-92800057D02*
X84011904Y-92895295D01*
X84011904Y-92895295D02*
X83964285Y-93085771D01*
X83964285Y-93085771D02*
X83964285Y-93323866D01*
X83964285Y-93323866D02*
X84011904Y-93514342D01*
X84011904Y-93514342D02*
X84059523Y-93609580D01*
X84059523Y-93609580D02*
X84107142Y-93657200D01*
X84107142Y-93657200D02*
X84202380Y-93704819D01*
X84202380Y-93704819D02*
X84297618Y-93704819D01*
X84297618Y-93704819D02*
X84392856Y-93657200D01*
X84392856Y-93657200D02*
X84440475Y-93609580D01*
X84440475Y-93609580D02*
X84488094Y-93514342D01*
X84488094Y-93514342D02*
X84535713Y-93323866D01*
X84535713Y-93323866D02*
X84535713Y-93085771D01*
X84535713Y-93085771D02*
X84488094Y-92895295D01*
X84488094Y-92895295D02*
X84440475Y-92800057D01*
X84440475Y-92800057D02*
X84392856Y-92752438D01*
X84392856Y-92752438D02*
X84297618Y-92704819D01*
X78954819Y-105785714D02*
X77954819Y-105785714D01*
X77954819Y-105785714D02*
X77954819Y-106023809D01*
X77954819Y-106023809D02*
X78002438Y-106166666D01*
X78002438Y-106166666D02*
X78097676Y-106261904D01*
X78097676Y-106261904D02*
X78192914Y-106309523D01*
X78192914Y-106309523D02*
X78383390Y-106357142D01*
X78383390Y-106357142D02*
X78526247Y-106357142D01*
X78526247Y-106357142D02*
X78716723Y-106309523D01*
X78716723Y-106309523D02*
X78811961Y-106261904D01*
X78811961Y-106261904D02*
X78907200Y-106166666D01*
X78907200Y-106166666D02*
X78954819Y-106023809D01*
X78954819Y-106023809D02*
X78954819Y-105785714D01*
X78954819Y-107309523D02*
X78954819Y-106738095D01*
X78954819Y-107023809D02*
X77954819Y-107023809D01*
X77954819Y-107023809D02*
X78097676Y-106928571D01*
X78097676Y-106928571D02*
X78192914Y-106833333D01*
X78192914Y-106833333D02*
X78240533Y-106738095D01*
X78954819Y-108261904D02*
X78954819Y-107690476D01*
X78954819Y-107976190D02*
X77954819Y-107976190D01*
X77954819Y-107976190D02*
X78097676Y-107880952D01*
X78097676Y-107880952D02*
X78192914Y-107785714D01*
X78192914Y-107785714D02*
X78240533Y-107690476D01*
X70954819Y-103035714D02*
X69954819Y-103035714D01*
X69954819Y-103035714D02*
X69954819Y-103273809D01*
X69954819Y-103273809D02*
X70002438Y-103416666D01*
X70002438Y-103416666D02*
X70097676Y-103511904D01*
X70097676Y-103511904D02*
X70192914Y-103559523D01*
X70192914Y-103559523D02*
X70383390Y-103607142D01*
X70383390Y-103607142D02*
X70526247Y-103607142D01*
X70526247Y-103607142D02*
X70716723Y-103559523D01*
X70716723Y-103559523D02*
X70811961Y-103511904D01*
X70811961Y-103511904D02*
X70907200Y-103416666D01*
X70907200Y-103416666D02*
X70954819Y-103273809D01*
X70954819Y-103273809D02*
X70954819Y-103035714D01*
X70954819Y-104559523D02*
X70954819Y-103988095D01*
X70954819Y-104273809D02*
X69954819Y-104273809D01*
X69954819Y-104273809D02*
X70097676Y-104178571D01*
X70097676Y-104178571D02*
X70192914Y-104083333D01*
X70192914Y-104083333D02*
X70240533Y-103988095D01*
X69954819Y-105464285D02*
X69954819Y-104988095D01*
X69954819Y-104988095D02*
X70431009Y-104940476D01*
X70431009Y-104940476D02*
X70383390Y-104988095D01*
X70383390Y-104988095D02*
X70335771Y-105083333D01*
X70335771Y-105083333D02*
X70335771Y-105321428D01*
X70335771Y-105321428D02*
X70383390Y-105416666D01*
X70383390Y-105416666D02*
X70431009Y-105464285D01*
X70431009Y-105464285D02*
X70526247Y-105511904D01*
X70526247Y-105511904D02*
X70764342Y-105511904D01*
X70764342Y-105511904D02*
X70859580Y-105464285D01*
X70859580Y-105464285D02*
X70907200Y-105416666D01*
X70907200Y-105416666D02*
X70954819Y-105321428D01*
X70954819Y-105321428D02*
X70954819Y-105083333D01*
X70954819Y-105083333D02*
X70907200Y-104988095D01*
X70907200Y-104988095D02*
X70859580Y-104940476D01*
X65714285Y-87204819D02*
X65714285Y-86204819D01*
X65714285Y-86204819D02*
X65476190Y-86204819D01*
X65476190Y-86204819D02*
X65333333Y-86252438D01*
X65333333Y-86252438D02*
X65238095Y-86347676D01*
X65238095Y-86347676D02*
X65190476Y-86442914D01*
X65190476Y-86442914D02*
X65142857Y-86633390D01*
X65142857Y-86633390D02*
X65142857Y-86776247D01*
X65142857Y-86776247D02*
X65190476Y-86966723D01*
X65190476Y-86966723D02*
X65238095Y-87061961D01*
X65238095Y-87061961D02*
X65333333Y-87157200D01*
X65333333Y-87157200D02*
X65476190Y-87204819D01*
X65476190Y-87204819D02*
X65714285Y-87204819D01*
X64761904Y-86300057D02*
X64714285Y-86252438D01*
X64714285Y-86252438D02*
X64619047Y-86204819D01*
X64619047Y-86204819D02*
X64380952Y-86204819D01*
X64380952Y-86204819D02*
X64285714Y-86252438D01*
X64285714Y-86252438D02*
X64238095Y-86300057D01*
X64238095Y-86300057D02*
X64190476Y-86395295D01*
X64190476Y-86395295D02*
X64190476Y-86490533D01*
X64190476Y-86490533D02*
X64238095Y-86633390D01*
X64238095Y-86633390D02*
X64809523Y-87204819D01*
X64809523Y-87204819D02*
X64190476Y-87204819D01*
X63809523Y-86300057D02*
X63761904Y-86252438D01*
X63761904Y-86252438D02*
X63666666Y-86204819D01*
X63666666Y-86204819D02*
X63428571Y-86204819D01*
X63428571Y-86204819D02*
X63333333Y-86252438D01*
X63333333Y-86252438D02*
X63285714Y-86300057D01*
X63285714Y-86300057D02*
X63238095Y-86395295D01*
X63238095Y-86395295D02*
X63238095Y-86490533D01*
X63238095Y-86490533D02*
X63285714Y-86633390D01*
X63285714Y-86633390D02*
X63857142Y-87204819D01*
X63857142Y-87204819D02*
X63238095Y-87204819D01*
X98214285Y-95524819D02*
X98214285Y-94524819D01*
X98214285Y-94524819D02*
X97976190Y-94524819D01*
X97976190Y-94524819D02*
X97833333Y-94572438D01*
X97833333Y-94572438D02*
X97738095Y-94667676D01*
X97738095Y-94667676D02*
X97690476Y-94762914D01*
X97690476Y-94762914D02*
X97642857Y-94953390D01*
X97642857Y-94953390D02*
X97642857Y-95096247D01*
X97642857Y-95096247D02*
X97690476Y-95286723D01*
X97690476Y-95286723D02*
X97738095Y-95381961D01*
X97738095Y-95381961D02*
X97833333Y-95477200D01*
X97833333Y-95477200D02*
X97976190Y-95524819D01*
X97976190Y-95524819D02*
X98214285Y-95524819D01*
X97261904Y-94620057D02*
X97214285Y-94572438D01*
X97214285Y-94572438D02*
X97119047Y-94524819D01*
X97119047Y-94524819D02*
X96880952Y-94524819D01*
X96880952Y-94524819D02*
X96785714Y-94572438D01*
X96785714Y-94572438D02*
X96738095Y-94620057D01*
X96738095Y-94620057D02*
X96690476Y-94715295D01*
X96690476Y-94715295D02*
X96690476Y-94810533D01*
X96690476Y-94810533D02*
X96738095Y-94953390D01*
X96738095Y-94953390D02*
X97309523Y-95524819D01*
X97309523Y-95524819D02*
X96690476Y-95524819D01*
X96357142Y-94524819D02*
X95690476Y-94524819D01*
X95690476Y-94524819D02*
X96119047Y-95524819D01*
X90714285Y-83954819D02*
X90714285Y-82954819D01*
X90714285Y-82954819D02*
X90476190Y-82954819D01*
X90476190Y-82954819D02*
X90333333Y-83002438D01*
X90333333Y-83002438D02*
X90238095Y-83097676D01*
X90238095Y-83097676D02*
X90190476Y-83192914D01*
X90190476Y-83192914D02*
X90142857Y-83383390D01*
X90142857Y-83383390D02*
X90142857Y-83526247D01*
X90142857Y-83526247D02*
X90190476Y-83716723D01*
X90190476Y-83716723D02*
X90238095Y-83811961D01*
X90238095Y-83811961D02*
X90333333Y-83907200D01*
X90333333Y-83907200D02*
X90476190Y-83954819D01*
X90476190Y-83954819D02*
X90714285Y-83954819D01*
X89190476Y-83954819D02*
X89761904Y-83954819D01*
X89476190Y-83954819D02*
X89476190Y-82954819D01*
X89476190Y-82954819D02*
X89571428Y-83097676D01*
X89571428Y-83097676D02*
X89666666Y-83192914D01*
X89666666Y-83192914D02*
X89761904Y-83240533D01*
X88857142Y-82954819D02*
X88190476Y-82954819D01*
X88190476Y-82954819D02*
X88619047Y-83954819D01*
X89214285Y-87274819D02*
X89214285Y-86274819D01*
X89214285Y-86274819D02*
X88976190Y-86274819D01*
X88976190Y-86274819D02*
X88833333Y-86322438D01*
X88833333Y-86322438D02*
X88738095Y-86417676D01*
X88738095Y-86417676D02*
X88690476Y-86512914D01*
X88690476Y-86512914D02*
X88642857Y-86703390D01*
X88642857Y-86703390D02*
X88642857Y-86846247D01*
X88642857Y-86846247D02*
X88690476Y-87036723D01*
X88690476Y-87036723D02*
X88738095Y-87131961D01*
X88738095Y-87131961D02*
X88833333Y-87227200D01*
X88833333Y-87227200D02*
X88976190Y-87274819D01*
X88976190Y-87274819D02*
X89214285Y-87274819D01*
X88261904Y-86370057D02*
X88214285Y-86322438D01*
X88214285Y-86322438D02*
X88119047Y-86274819D01*
X88119047Y-86274819D02*
X87880952Y-86274819D01*
X87880952Y-86274819D02*
X87785714Y-86322438D01*
X87785714Y-86322438D02*
X87738095Y-86370057D01*
X87738095Y-86370057D02*
X87690476Y-86465295D01*
X87690476Y-86465295D02*
X87690476Y-86560533D01*
X87690476Y-86560533D02*
X87738095Y-86703390D01*
X87738095Y-86703390D02*
X88309523Y-87274819D01*
X88309523Y-87274819D02*
X87690476Y-87274819D01*
X87357142Y-86274819D02*
X86738095Y-86274819D01*
X86738095Y-86274819D02*
X87071428Y-86655771D01*
X87071428Y-86655771D02*
X86928571Y-86655771D01*
X86928571Y-86655771D02*
X86833333Y-86703390D01*
X86833333Y-86703390D02*
X86785714Y-86751009D01*
X86785714Y-86751009D02*
X86738095Y-86846247D01*
X86738095Y-86846247D02*
X86738095Y-87084342D01*
X86738095Y-87084342D02*
X86785714Y-87179580D01*
X86785714Y-87179580D02*
X86833333Y-87227200D01*
X86833333Y-87227200D02*
X86928571Y-87274819D01*
X86928571Y-87274819D02*
X87214285Y-87274819D01*
X87214285Y-87274819D02*
X87309523Y-87227200D01*
X87309523Y-87227200D02*
X87357142Y-87179580D01*
X74714285Y-81704819D02*
X74714285Y-80704819D01*
X74714285Y-80704819D02*
X74476190Y-80704819D01*
X74476190Y-80704819D02*
X74333333Y-80752438D01*
X74333333Y-80752438D02*
X74238095Y-80847676D01*
X74238095Y-80847676D02*
X74190476Y-80942914D01*
X74190476Y-80942914D02*
X74142857Y-81133390D01*
X74142857Y-81133390D02*
X74142857Y-81276247D01*
X74142857Y-81276247D02*
X74190476Y-81466723D01*
X74190476Y-81466723D02*
X74238095Y-81561961D01*
X74238095Y-81561961D02*
X74333333Y-81657200D01*
X74333333Y-81657200D02*
X74476190Y-81704819D01*
X74476190Y-81704819D02*
X74714285Y-81704819D01*
X73761904Y-80800057D02*
X73714285Y-80752438D01*
X73714285Y-80752438D02*
X73619047Y-80704819D01*
X73619047Y-80704819D02*
X73380952Y-80704819D01*
X73380952Y-80704819D02*
X73285714Y-80752438D01*
X73285714Y-80752438D02*
X73238095Y-80800057D01*
X73238095Y-80800057D02*
X73190476Y-80895295D01*
X73190476Y-80895295D02*
X73190476Y-80990533D01*
X73190476Y-80990533D02*
X73238095Y-81133390D01*
X73238095Y-81133390D02*
X73809523Y-81704819D01*
X73809523Y-81704819D02*
X73190476Y-81704819D01*
X72571428Y-80704819D02*
X72476190Y-80704819D01*
X72476190Y-80704819D02*
X72380952Y-80752438D01*
X72380952Y-80752438D02*
X72333333Y-80800057D01*
X72333333Y-80800057D02*
X72285714Y-80895295D01*
X72285714Y-80895295D02*
X72238095Y-81085771D01*
X72238095Y-81085771D02*
X72238095Y-81323866D01*
X72238095Y-81323866D02*
X72285714Y-81514342D01*
X72285714Y-81514342D02*
X72333333Y-81609580D01*
X72333333Y-81609580D02*
X72380952Y-81657200D01*
X72380952Y-81657200D02*
X72476190Y-81704819D01*
X72476190Y-81704819D02*
X72571428Y-81704819D01*
X72571428Y-81704819D02*
X72666666Y-81657200D01*
X72666666Y-81657200D02*
X72714285Y-81609580D01*
X72714285Y-81609580D02*
X72761904Y-81514342D01*
X72761904Y-81514342D02*
X72809523Y-81323866D01*
X72809523Y-81323866D02*
X72809523Y-81085771D01*
X72809523Y-81085771D02*
X72761904Y-80895295D01*
X72761904Y-80895295D02*
X72714285Y-80800057D01*
X72714285Y-80800057D02*
X72666666Y-80752438D01*
X72666666Y-80752438D02*
X72571428Y-80704819D01*
D11*
%TO.C,D31*%
X99410000Y-103015000D02*
X99410000Y-104485000D01*
X96950000Y-103015000D02*
X99410000Y-103015000D01*
X99410000Y-104485000D02*
X96950000Y-104485000D01*
%TO.C,D29*%
X75265000Y-89590000D02*
X76735000Y-89590000D01*
X76735000Y-89590000D02*
X76735000Y-92050000D01*
X75265000Y-92050000D02*
X75265000Y-89590000D01*
%TO.C,D40*%
X66200000Y-112015000D02*
X68660000Y-112015000D01*
X68660000Y-112015000D02*
X68660000Y-113485000D01*
X68660000Y-113485000D02*
X66200000Y-113485000D01*
%TO.C,D7*%
X77660000Y-94015000D02*
X77660000Y-95485000D01*
X77660000Y-95485000D02*
X75200000Y-95485000D01*
X75200000Y-94015000D02*
X77660000Y-94015000D01*
%TO.C,D3*%
X82700000Y-99515000D02*
X85160000Y-99515000D01*
X85160000Y-100985000D02*
X82700000Y-100985000D01*
X85160000Y-99515000D02*
X85160000Y-100985000D01*
%TO.C,D35*%
X61200000Y-103765000D02*
X63660000Y-103765000D01*
X63660000Y-103765000D02*
X63660000Y-105235000D01*
X63660000Y-105235000D02*
X61200000Y-105235000D01*
%TO.C,D38*%
X93160000Y-113485000D02*
X90700000Y-113485000D01*
X90700000Y-112015000D02*
X93160000Y-112015000D01*
X93160000Y-112015000D02*
X93160000Y-113485000D01*
%TO.C,D34*%
X61450000Y-97515000D02*
X63910000Y-97515000D01*
X63910000Y-98985000D02*
X61450000Y-98985000D01*
X63910000Y-97515000D02*
X63910000Y-98985000D01*
%TO.C,D10*%
X77660000Y-100985000D02*
X75200000Y-100985000D01*
X77660000Y-99515000D02*
X77660000Y-100985000D01*
X75200000Y-99515000D02*
X77660000Y-99515000D01*
%TO.C,D4*%
X86985000Y-101090000D02*
X86985000Y-103550000D01*
X85515000Y-101090000D02*
X86985000Y-101090000D01*
X85515000Y-103550000D02*
X85515000Y-101090000D01*
%TO.C,D5*%
X81485000Y-104410000D02*
X80015000Y-104410000D01*
X80015000Y-104410000D02*
X80015000Y-101950000D01*
X81485000Y-101950000D02*
X81485000Y-104410000D01*
%TO.C,D30*%
X65910000Y-90265000D02*
X65910000Y-91735000D01*
X63450000Y-90265000D02*
X65910000Y-90265000D01*
X65910000Y-91735000D02*
X63450000Y-91735000D01*
%TO.C,D18*%
X85910000Y-80485000D02*
X83450000Y-80485000D01*
X83450000Y-79015000D02*
X85910000Y-79015000D01*
X85910000Y-79015000D02*
X85910000Y-80485000D01*
%TO.C,D13*%
X77660000Y-105015000D02*
X77660000Y-106485000D01*
X75200000Y-105015000D02*
X77660000Y-105015000D01*
X77660000Y-106485000D02*
X75200000Y-106485000D01*
%TO.C,D32*%
X89765000Y-95840000D02*
X91235000Y-95840000D01*
X91235000Y-95840000D02*
X91235000Y-98300000D01*
X89765000Y-98300000D02*
X89765000Y-95840000D01*
%TO.C,D24*%
X78700000Y-84515000D02*
X81160000Y-84515000D01*
X81160000Y-84515000D02*
X81160000Y-85985000D01*
X81160000Y-85985000D02*
X78700000Y-85985000D01*
%TO.C,D14*%
X68265000Y-97800000D02*
X68265000Y-95340000D01*
X69735000Y-95340000D02*
X69735000Y-97800000D01*
X68265000Y-95340000D02*
X69735000Y-95340000D01*
%TO.C,D19*%
X78200000Y-78265000D02*
X80660000Y-78265000D01*
X80660000Y-78265000D02*
X80660000Y-79735000D01*
X80660000Y-79735000D02*
X78200000Y-79735000D01*
%TO.C,D26*%
X97160000Y-90015000D02*
X97160000Y-91485000D01*
X97160000Y-91485000D02*
X94700000Y-91485000D01*
X94700000Y-90015000D02*
X97160000Y-90015000D01*
%TO.C,D8*%
X79485000Y-96090000D02*
X79485000Y-98550000D01*
X78015000Y-98550000D02*
X78015000Y-96090000D01*
X78015000Y-96090000D02*
X79485000Y-96090000D01*
%TO.C,D2*%
X81485000Y-96090000D02*
X81485000Y-98550000D01*
X80015000Y-96090000D02*
X81485000Y-96090000D01*
X80015000Y-98550000D02*
X80015000Y-96090000D01*
%TO.C,D16*%
X92950000Y-84515000D02*
X95410000Y-84515000D01*
X95410000Y-84515000D02*
X95410000Y-85985000D01*
X95410000Y-85985000D02*
X92950000Y-85985000D01*
%TO.C,D33*%
X92660000Y-103265000D02*
X92660000Y-104735000D01*
X92660000Y-104735000D02*
X90200000Y-104735000D01*
X90200000Y-103265000D02*
X92660000Y-103265000D01*
%TO.C,D36*%
X83910000Y-111485000D02*
X81450000Y-111485000D01*
X83910000Y-110015000D02*
X83910000Y-111485000D01*
X81450000Y-110015000D02*
X83910000Y-110015000D01*
%TO.C,D39*%
X78700000Y-118015000D02*
X81160000Y-118015000D01*
X81160000Y-119485000D02*
X78700000Y-119485000D01*
X81160000Y-118015000D02*
X81160000Y-119485000D01*
%TO.C,D37*%
X76910000Y-111985000D02*
X74450000Y-111985000D01*
X76910000Y-110515000D02*
X76910000Y-111985000D01*
X74450000Y-110515000D02*
X76910000Y-110515000D01*
%TO.C,D9*%
X73985000Y-96090000D02*
X73985000Y-98550000D01*
X72515000Y-98550000D02*
X72515000Y-96090000D01*
X72515000Y-96090000D02*
X73985000Y-96090000D01*
%TO.C,D28*%
X81015000Y-89590000D02*
X82485000Y-89590000D01*
X81015000Y-92050000D02*
X81015000Y-89590000D01*
X82485000Y-89590000D02*
X82485000Y-92050000D01*
%TO.C,D25*%
X73910000Y-85515000D02*
X73910000Y-86985000D01*
X73910000Y-86985000D02*
X71450000Y-86985000D01*
X71450000Y-85515000D02*
X73910000Y-85515000D01*
%TO.C,D1*%
X85515000Y-98550000D02*
X85515000Y-96090000D01*
X85515000Y-96090000D02*
X86985000Y-96090000D01*
X86985000Y-96090000D02*
X86985000Y-98550000D01*
%TO.C,D21*%
X67700000Y-81015000D02*
X70160000Y-81015000D01*
X70160000Y-82485000D02*
X67700000Y-82485000D01*
X70160000Y-81015000D02*
X70160000Y-82485000D01*
%TO.C,D6*%
X82700000Y-105015000D02*
X85160000Y-105015000D01*
X85160000Y-106485000D02*
X82700000Y-106485000D01*
X85160000Y-105015000D02*
X85160000Y-106485000D01*
%TO.C,D12*%
X72515000Y-103550000D02*
X72515000Y-101090000D01*
X73985000Y-101090000D02*
X73985000Y-103550000D01*
X72515000Y-101090000D02*
X73985000Y-101090000D01*
%TO.C,D0*%
X85160000Y-95485000D02*
X82700000Y-95485000D01*
X85160000Y-94015000D02*
X85160000Y-95485000D01*
X82700000Y-94015000D02*
X85160000Y-94015000D01*
%TO.C,D11*%
X78015000Y-104410000D02*
X78015000Y-101950000D01*
X79485000Y-101950000D02*
X79485000Y-104410000D01*
X79485000Y-104410000D02*
X78015000Y-104410000D01*
%TO.C,D15*%
X68265000Y-102590000D02*
X69735000Y-102590000D01*
X69735000Y-102590000D02*
X69735000Y-105050000D01*
X68265000Y-105050000D02*
X68265000Y-102590000D01*
%TO.C,D22*%
X63450000Y-84515000D02*
X65910000Y-84515000D01*
X65910000Y-84515000D02*
X65910000Y-85985000D01*
X65910000Y-85985000D02*
X63450000Y-85985000D01*
%TO.C,D27*%
X96200000Y-95765000D02*
X98660000Y-95765000D01*
X98660000Y-95765000D02*
X98660000Y-97235000D01*
X98660000Y-97235000D02*
X96200000Y-97235000D01*
%TO.C,D17*%
X90910000Y-81015000D02*
X90910000Y-82485000D01*
X90910000Y-82485000D02*
X88450000Y-82485000D01*
X88450000Y-81015000D02*
X90910000Y-81015000D01*
%TO.C,D23*%
X89660000Y-87515000D02*
X89660000Y-88985000D01*
X87200000Y-87515000D02*
X89660000Y-87515000D01*
X89660000Y-88985000D02*
X87200000Y-88985000D01*
%TO.C,D20*%
X75160000Y-79015000D02*
X75160000Y-80485000D01*
X75160000Y-80485000D02*
X72700000Y-80485000D01*
X72700000Y-79015000D02*
X75160000Y-79015000D01*
%TD*%
M02*
