%TF.GenerationSoftware,KiCad,Pcbnew,9.0.1*%
%TF.CreationDate,2025-04-26T14:19:40+02:00*%
%TF.ProjectId,pwr_sply,7077725f-7370-46c7-992e-6b696361645f,rev?*%
%TF.SameCoordinates,Original*%
%TF.FileFunction,Legend,Top*%
%TF.FilePolarity,Positive*%
%FSLAX46Y46*%
G04 Gerber Fmt 4.6, Leading zero omitted, Abs format (unit mm)*
G04 Created by KiCad (PCBNEW 9.0.1) date 2025-04-26 14:19:40*
%MOMM*%
%LPD*%
G01*
G04 APERTURE LIST*
%ADD10C,0.150000*%
%ADD11C,0.127000*%
%ADD12C,0.200000*%
%ADD13C,0.120000*%
G04 APERTURE END LIST*
D10*
X94594875Y-103610589D02*
X94594875Y-103039161D01*
X95594875Y-103324875D02*
X94594875Y-103324875D01*
X95547256Y-102324875D02*
X95594875Y-102420113D01*
X95594875Y-102420113D02*
X95594875Y-102610589D01*
X95594875Y-102610589D02*
X95547256Y-102705827D01*
X95547256Y-102705827D02*
X95452017Y-102753446D01*
X95452017Y-102753446D02*
X95071065Y-102753446D01*
X95071065Y-102753446D02*
X94975827Y-102705827D01*
X94975827Y-102705827D02*
X94928208Y-102610589D01*
X94928208Y-102610589D02*
X94928208Y-102420113D01*
X94928208Y-102420113D02*
X94975827Y-102324875D01*
X94975827Y-102324875D02*
X95071065Y-102277256D01*
X95071065Y-102277256D02*
X95166303Y-102277256D01*
X95166303Y-102277256D02*
X95261541Y-102753446D01*
X95594875Y-101848684D02*
X94928208Y-101848684D01*
X95023446Y-101848684D02*
X94975827Y-101801065D01*
X94975827Y-101801065D02*
X94928208Y-101705827D01*
X94928208Y-101705827D02*
X94928208Y-101562970D01*
X94928208Y-101562970D02*
X94975827Y-101467732D01*
X94975827Y-101467732D02*
X95071065Y-101420113D01*
X95071065Y-101420113D02*
X95594875Y-101420113D01*
X95071065Y-101420113D02*
X94975827Y-101372494D01*
X94975827Y-101372494D02*
X94928208Y-101277256D01*
X94928208Y-101277256D02*
X94928208Y-101134399D01*
X94928208Y-101134399D02*
X94975827Y-101039160D01*
X94975827Y-101039160D02*
X95071065Y-100991541D01*
X95071065Y-100991541D02*
X95594875Y-100991541D01*
X94928208Y-100515351D02*
X95928208Y-100515351D01*
X94975827Y-100515351D02*
X94928208Y-100420113D01*
X94928208Y-100420113D02*
X94928208Y-100229637D01*
X94928208Y-100229637D02*
X94975827Y-100134399D01*
X94975827Y-100134399D02*
X95023446Y-100086780D01*
X95023446Y-100086780D02*
X95118684Y-100039161D01*
X95118684Y-100039161D02*
X95404398Y-100039161D01*
X95404398Y-100039161D02*
X95499636Y-100086780D01*
X95499636Y-100086780D02*
X95547256Y-100134399D01*
X95547256Y-100134399D02*
X95594875Y-100229637D01*
X95594875Y-100229637D02*
X95594875Y-100420113D01*
X95594875Y-100420113D02*
X95547256Y-100515351D01*
X94594875Y-99753446D02*
X94594875Y-99182018D01*
X95594875Y-99467732D02*
X94594875Y-99467732D01*
X95547256Y-98896303D02*
X95594875Y-98801065D01*
X95594875Y-98801065D02*
X95594875Y-98610589D01*
X95594875Y-98610589D02*
X95547256Y-98515351D01*
X95547256Y-98515351D02*
X95452017Y-98467732D01*
X95452017Y-98467732D02*
X95404398Y-98467732D01*
X95404398Y-98467732D02*
X95309160Y-98515351D01*
X95309160Y-98515351D02*
X95261541Y-98610589D01*
X95261541Y-98610589D02*
X95261541Y-98753446D01*
X95261541Y-98753446D02*
X95213922Y-98848684D01*
X95213922Y-98848684D02*
X95118684Y-98896303D01*
X95118684Y-98896303D02*
X95071065Y-98896303D01*
X95071065Y-98896303D02*
X94975827Y-98848684D01*
X94975827Y-98848684D02*
X94928208Y-98753446D01*
X94928208Y-98753446D02*
X94928208Y-98610589D01*
X94928208Y-98610589D02*
X94975827Y-98515351D01*
X95547256Y-97610589D02*
X95594875Y-97705827D01*
X95594875Y-97705827D02*
X95594875Y-97896303D01*
X95594875Y-97896303D02*
X95547256Y-97991541D01*
X95547256Y-97991541D02*
X95499636Y-98039160D01*
X95499636Y-98039160D02*
X95404398Y-98086779D01*
X95404398Y-98086779D02*
X95118684Y-98086779D01*
X95118684Y-98086779D02*
X95023446Y-98039160D01*
X95023446Y-98039160D02*
X94975827Y-97991541D01*
X94975827Y-97991541D02*
X94928208Y-97896303D01*
X94928208Y-97896303D02*
X94928208Y-97705827D01*
X94928208Y-97705827D02*
X94975827Y-97610589D01*
X95594875Y-97182017D02*
X94928208Y-97182017D01*
X95118684Y-97182017D02*
X95023446Y-97134398D01*
X95023446Y-97134398D02*
X94975827Y-97086779D01*
X94975827Y-97086779D02*
X94928208Y-96991541D01*
X94928208Y-96991541D02*
X94928208Y-96896303D01*
X94928208Y-96562969D02*
X95594875Y-96562969D01*
X95023446Y-96562969D02*
X94975827Y-96515350D01*
X94975827Y-96515350D02*
X94928208Y-96420112D01*
X94928208Y-96420112D02*
X94928208Y-96277255D01*
X94928208Y-96277255D02*
X94975827Y-96182017D01*
X94975827Y-96182017D02*
X95071065Y-96134398D01*
X95071065Y-96134398D02*
X95594875Y-96134398D01*
X95594875Y-95658207D02*
X94594875Y-95658207D01*
X94594875Y-95658207D02*
X94594875Y-95277255D01*
X94594875Y-95277255D02*
X94642494Y-95182017D01*
X94642494Y-95182017D02*
X94690113Y-95134398D01*
X94690113Y-95134398D02*
X94785351Y-95086779D01*
X94785351Y-95086779D02*
X94928208Y-95086779D01*
X94928208Y-95086779D02*
X95023446Y-95134398D01*
X95023446Y-95134398D02*
X95071065Y-95182017D01*
X95071065Y-95182017D02*
X95118684Y-95277255D01*
X95118684Y-95277255D02*
X95118684Y-95658207D01*
X94928208Y-94753445D02*
X95594875Y-94562969D01*
X95594875Y-94562969D02*
X95118684Y-94372493D01*
X95118684Y-94372493D02*
X95594875Y-94182017D01*
X95594875Y-94182017D02*
X94928208Y-93991541D01*
X95594875Y-93610588D02*
X94928208Y-93610588D01*
X95118684Y-93610588D02*
X95023446Y-93562969D01*
X95023446Y-93562969D02*
X94975827Y-93515350D01*
X94975827Y-93515350D02*
X94928208Y-93420112D01*
X94928208Y-93420112D02*
X94928208Y-93324874D01*
X94594875Y-92801064D02*
X94594875Y-92705826D01*
X94594875Y-92705826D02*
X94642494Y-92610588D01*
X94642494Y-92610588D02*
X94690113Y-92562969D01*
X94690113Y-92562969D02*
X94785351Y-92515350D01*
X94785351Y-92515350D02*
X94975827Y-92467731D01*
X94975827Y-92467731D02*
X95213922Y-92467731D01*
X95213922Y-92467731D02*
X95404398Y-92515350D01*
X95404398Y-92515350D02*
X95499636Y-92562969D01*
X95499636Y-92562969D02*
X95547256Y-92610588D01*
X95547256Y-92610588D02*
X95594875Y-92705826D01*
X95594875Y-92705826D02*
X95594875Y-92801064D01*
X95594875Y-92801064D02*
X95547256Y-92896302D01*
X95547256Y-92896302D02*
X95499636Y-92943921D01*
X95499636Y-92943921D02*
X95404398Y-92991540D01*
X95404398Y-92991540D02*
X95213922Y-93039159D01*
X95213922Y-93039159D02*
X94975827Y-93039159D01*
X94975827Y-93039159D02*
X94785351Y-92991540D01*
X94785351Y-92991540D02*
X94690113Y-92943921D01*
X94690113Y-92943921D02*
X94642494Y-92896302D01*
X94642494Y-92896302D02*
X94594875Y-92801064D01*
X95499636Y-92039159D02*
X95547256Y-91991540D01*
X95547256Y-91991540D02*
X95594875Y-92039159D01*
X95594875Y-92039159D02*
X95547256Y-92086778D01*
X95547256Y-92086778D02*
X95499636Y-92039159D01*
X95499636Y-92039159D02*
X95594875Y-92039159D01*
X94690113Y-91610588D02*
X94642494Y-91562969D01*
X94642494Y-91562969D02*
X94594875Y-91467731D01*
X94594875Y-91467731D02*
X94594875Y-91229636D01*
X94594875Y-91229636D02*
X94642494Y-91134398D01*
X94642494Y-91134398D02*
X94690113Y-91086779D01*
X94690113Y-91086779D02*
X94785351Y-91039160D01*
X94785351Y-91039160D02*
X94880589Y-91039160D01*
X94880589Y-91039160D02*
X95023446Y-91086779D01*
X95023446Y-91086779D02*
X95594875Y-91658207D01*
X95594875Y-91658207D02*
X95594875Y-91039160D01*
X97204819Y-98705827D02*
X96204819Y-98705827D01*
X96681009Y-98705827D02*
X96681009Y-98134399D01*
X97204819Y-98134399D02*
X96204819Y-98134399D01*
X96538152Y-97229637D02*
X97204819Y-97229637D01*
X96538152Y-97658208D02*
X97061961Y-97658208D01*
X97061961Y-97658208D02*
X97157200Y-97610589D01*
X97157200Y-97610589D02*
X97204819Y-97515351D01*
X97204819Y-97515351D02*
X97204819Y-97372494D01*
X97204819Y-97372494D02*
X97157200Y-97277256D01*
X97157200Y-97277256D02*
X97109580Y-97229637D01*
X97204819Y-96753446D02*
X96204819Y-96753446D01*
X96585771Y-96753446D02*
X96538152Y-96658208D01*
X96538152Y-96658208D02*
X96538152Y-96467732D01*
X96538152Y-96467732D02*
X96585771Y-96372494D01*
X96585771Y-96372494D02*
X96633390Y-96324875D01*
X96633390Y-96324875D02*
X96728628Y-96277256D01*
X96728628Y-96277256D02*
X97014342Y-96277256D01*
X97014342Y-96277256D02*
X97109580Y-96324875D01*
X97109580Y-96324875D02*
X97157200Y-96372494D01*
X97157200Y-96372494D02*
X97204819Y-96467732D01*
X97204819Y-96467732D02*
X97204819Y-96658208D01*
X97204819Y-96658208D02*
X97157200Y-96753446D01*
X97157200Y-95467732D02*
X97204819Y-95562970D01*
X97204819Y-95562970D02*
X97204819Y-95753446D01*
X97204819Y-95753446D02*
X97157200Y-95848684D01*
X97157200Y-95848684D02*
X97061961Y-95896303D01*
X97061961Y-95896303D02*
X96681009Y-95896303D01*
X96681009Y-95896303D02*
X96585771Y-95848684D01*
X96585771Y-95848684D02*
X96538152Y-95753446D01*
X96538152Y-95753446D02*
X96538152Y-95562970D01*
X96538152Y-95562970D02*
X96585771Y-95467732D01*
X96585771Y-95467732D02*
X96681009Y-95420113D01*
X96681009Y-95420113D02*
X96776247Y-95420113D01*
X96776247Y-95420113D02*
X96871485Y-95896303D01*
X97204819Y-94991541D02*
X96538152Y-94991541D01*
X96728628Y-94991541D02*
X96633390Y-94943922D01*
X96633390Y-94943922D02*
X96585771Y-94896303D01*
X96585771Y-94896303D02*
X96538152Y-94801065D01*
X96538152Y-94801065D02*
X96538152Y-94705827D01*
X96538152Y-94515350D02*
X96538152Y-94134398D01*
X96204819Y-94372493D02*
X97061961Y-94372493D01*
X97061961Y-94372493D02*
X97157200Y-94324874D01*
X97157200Y-94324874D02*
X97204819Y-94229636D01*
X97204819Y-94229636D02*
X97204819Y-94134398D01*
X97204819Y-93039159D02*
X96204819Y-93039159D01*
X96204819Y-93039159D02*
X96919104Y-92705826D01*
X96919104Y-92705826D02*
X96204819Y-92372493D01*
X96204819Y-92372493D02*
X97204819Y-92372493D01*
X97204819Y-91896302D02*
X96538152Y-91896302D01*
X96204819Y-91896302D02*
X96252438Y-91943921D01*
X96252438Y-91943921D02*
X96300057Y-91896302D01*
X96300057Y-91896302D02*
X96252438Y-91848683D01*
X96252438Y-91848683D02*
X96204819Y-91896302D01*
X96204819Y-91896302D02*
X96300057Y-91896302D01*
X97157200Y-91467731D02*
X97204819Y-91372493D01*
X97204819Y-91372493D02*
X97204819Y-91182017D01*
X97204819Y-91182017D02*
X97157200Y-91086779D01*
X97157200Y-91086779D02*
X97061961Y-91039160D01*
X97061961Y-91039160D02*
X97014342Y-91039160D01*
X97014342Y-91039160D02*
X96919104Y-91086779D01*
X96919104Y-91086779D02*
X96871485Y-91182017D01*
X96871485Y-91182017D02*
X96871485Y-91324874D01*
X96871485Y-91324874D02*
X96823866Y-91420112D01*
X96823866Y-91420112D02*
X96728628Y-91467731D01*
X96728628Y-91467731D02*
X96681009Y-91467731D01*
X96681009Y-91467731D02*
X96585771Y-91420112D01*
X96585771Y-91420112D02*
X96538152Y-91324874D01*
X96538152Y-91324874D02*
X96538152Y-91182017D01*
X96538152Y-91182017D02*
X96585771Y-91086779D01*
X96157200Y-91182017D02*
X96300057Y-91324874D01*
X97910001Y-94467731D02*
X97862382Y-94420112D01*
X97862382Y-94420112D02*
X97814763Y-94324874D01*
X97814763Y-94324874D02*
X97814763Y-94086779D01*
X97814763Y-94086779D02*
X97862382Y-93991541D01*
X97862382Y-93991541D02*
X97910001Y-93943922D01*
X97910001Y-93943922D02*
X98005239Y-93896303D01*
X98005239Y-93896303D02*
X98100477Y-93896303D01*
X98100477Y-93896303D02*
X98243334Y-93943922D01*
X98243334Y-93943922D02*
X98814763Y-94515350D01*
X98814763Y-94515350D02*
X98814763Y-93896303D01*
X97814763Y-93277255D02*
X97814763Y-93182017D01*
X97814763Y-93182017D02*
X97862382Y-93086779D01*
X97862382Y-93086779D02*
X97910001Y-93039160D01*
X97910001Y-93039160D02*
X98005239Y-92991541D01*
X98005239Y-92991541D02*
X98195715Y-92943922D01*
X98195715Y-92943922D02*
X98433810Y-92943922D01*
X98433810Y-92943922D02*
X98624286Y-92991541D01*
X98624286Y-92991541D02*
X98719524Y-93039160D01*
X98719524Y-93039160D02*
X98767144Y-93086779D01*
X98767144Y-93086779D02*
X98814763Y-93182017D01*
X98814763Y-93182017D02*
X98814763Y-93277255D01*
X98814763Y-93277255D02*
X98767144Y-93372493D01*
X98767144Y-93372493D02*
X98719524Y-93420112D01*
X98719524Y-93420112D02*
X98624286Y-93467731D01*
X98624286Y-93467731D02*
X98433810Y-93515350D01*
X98433810Y-93515350D02*
X98195715Y-93515350D01*
X98195715Y-93515350D02*
X98005239Y-93467731D01*
X98005239Y-93467731D02*
X97910001Y-93420112D01*
X97910001Y-93420112D02*
X97862382Y-93372493D01*
X97862382Y-93372493D02*
X97814763Y-93277255D01*
X97910001Y-92562969D02*
X97862382Y-92515350D01*
X97862382Y-92515350D02*
X97814763Y-92420112D01*
X97814763Y-92420112D02*
X97814763Y-92182017D01*
X97814763Y-92182017D02*
X97862382Y-92086779D01*
X97862382Y-92086779D02*
X97910001Y-92039160D01*
X97910001Y-92039160D02*
X98005239Y-91991541D01*
X98005239Y-91991541D02*
X98100477Y-91991541D01*
X98100477Y-91991541D02*
X98243334Y-92039160D01*
X98243334Y-92039160D02*
X98814763Y-92610588D01*
X98814763Y-92610588D02*
X98814763Y-91991541D01*
X97814763Y-91658207D02*
X97814763Y-91039160D01*
X97814763Y-91039160D02*
X98195715Y-91372493D01*
X98195715Y-91372493D02*
X98195715Y-91229636D01*
X98195715Y-91229636D02*
X98243334Y-91134398D01*
X98243334Y-91134398D02*
X98290953Y-91086779D01*
X98290953Y-91086779D02*
X98386191Y-91039160D01*
X98386191Y-91039160D02*
X98624286Y-91039160D01*
X98624286Y-91039160D02*
X98719524Y-91086779D01*
X98719524Y-91086779D02*
X98767144Y-91134398D01*
X98767144Y-91134398D02*
X98814763Y-91229636D01*
X98814763Y-91229636D02*
X98814763Y-91515350D01*
X98814763Y-91515350D02*
X98767144Y-91610588D01*
X98767144Y-91610588D02*
X98719524Y-91658207D01*
X94657200Y-89261904D02*
X94704819Y-89119047D01*
X94704819Y-89119047D02*
X94704819Y-88880952D01*
X94704819Y-88880952D02*
X94657200Y-88785714D01*
X94657200Y-88785714D02*
X94609580Y-88738095D01*
X94609580Y-88738095D02*
X94514342Y-88690476D01*
X94514342Y-88690476D02*
X94419104Y-88690476D01*
X94419104Y-88690476D02*
X94323866Y-88738095D01*
X94323866Y-88738095D02*
X94276247Y-88785714D01*
X94276247Y-88785714D02*
X94228628Y-88880952D01*
X94228628Y-88880952D02*
X94181009Y-89071428D01*
X94181009Y-89071428D02*
X94133390Y-89166666D01*
X94133390Y-89166666D02*
X94085771Y-89214285D01*
X94085771Y-89214285D02*
X93990533Y-89261904D01*
X93990533Y-89261904D02*
X93895295Y-89261904D01*
X93895295Y-89261904D02*
X93800057Y-89214285D01*
X93800057Y-89214285D02*
X93752438Y-89166666D01*
X93752438Y-89166666D02*
X93704819Y-89071428D01*
X93704819Y-89071428D02*
X93704819Y-88833333D01*
X93704819Y-88833333D02*
X93752438Y-88690476D01*
X93800057Y-88309523D02*
X93752438Y-88261904D01*
X93752438Y-88261904D02*
X93704819Y-88166666D01*
X93704819Y-88166666D02*
X93704819Y-87928571D01*
X93704819Y-87928571D02*
X93752438Y-87833333D01*
X93752438Y-87833333D02*
X93800057Y-87785714D01*
X93800057Y-87785714D02*
X93895295Y-87738095D01*
X93895295Y-87738095D02*
X93990533Y-87738095D01*
X93990533Y-87738095D02*
X94133390Y-87785714D01*
X94133390Y-87785714D02*
X94704819Y-88357142D01*
X94704819Y-88357142D02*
X94704819Y-87738095D01*
X82157200Y-89011904D02*
X82204819Y-88869047D01*
X82204819Y-88869047D02*
X82204819Y-88630952D01*
X82204819Y-88630952D02*
X82157200Y-88535714D01*
X82157200Y-88535714D02*
X82109580Y-88488095D01*
X82109580Y-88488095D02*
X82014342Y-88440476D01*
X82014342Y-88440476D02*
X81919104Y-88440476D01*
X81919104Y-88440476D02*
X81823866Y-88488095D01*
X81823866Y-88488095D02*
X81776247Y-88535714D01*
X81776247Y-88535714D02*
X81728628Y-88630952D01*
X81728628Y-88630952D02*
X81681009Y-88821428D01*
X81681009Y-88821428D02*
X81633390Y-88916666D01*
X81633390Y-88916666D02*
X81585771Y-88964285D01*
X81585771Y-88964285D02*
X81490533Y-89011904D01*
X81490533Y-89011904D02*
X81395295Y-89011904D01*
X81395295Y-89011904D02*
X81300057Y-88964285D01*
X81300057Y-88964285D02*
X81252438Y-88916666D01*
X81252438Y-88916666D02*
X81204819Y-88821428D01*
X81204819Y-88821428D02*
X81204819Y-88583333D01*
X81204819Y-88583333D02*
X81252438Y-88440476D01*
X82204819Y-87488095D02*
X82204819Y-88059523D01*
X82204819Y-87773809D02*
X81204819Y-87773809D01*
X81204819Y-87773809D02*
X81347676Y-87869047D01*
X81347676Y-87869047D02*
X81442914Y-87964285D01*
X81442914Y-87964285D02*
X81490533Y-88059523D01*
X82416666Y-80454819D02*
X82416666Y-81169104D01*
X82416666Y-81169104D02*
X82369047Y-81311961D01*
X82369047Y-81311961D02*
X82273809Y-81407200D01*
X82273809Y-81407200D02*
X82130952Y-81454819D01*
X82130952Y-81454819D02*
X82035714Y-81454819D01*
X83416666Y-81454819D02*
X82845238Y-81454819D01*
X83130952Y-81454819D02*
X83130952Y-80454819D01*
X83130952Y-80454819D02*
X83035714Y-80597676D01*
X83035714Y-80597676D02*
X82940476Y-80692914D01*
X82940476Y-80692914D02*
X82845238Y-80740533D01*
X98054819Y-103333333D02*
X98769104Y-103333333D01*
X98769104Y-103333333D02*
X98911961Y-103380952D01*
X98911961Y-103380952D02*
X99007200Y-103476190D01*
X99007200Y-103476190D02*
X99054819Y-103619047D01*
X99054819Y-103619047D02*
X99054819Y-103714285D01*
X98150057Y-102904761D02*
X98102438Y-102857142D01*
X98102438Y-102857142D02*
X98054819Y-102761904D01*
X98054819Y-102761904D02*
X98054819Y-102523809D01*
X98054819Y-102523809D02*
X98102438Y-102428571D01*
X98102438Y-102428571D02*
X98150057Y-102380952D01*
X98150057Y-102380952D02*
X98245295Y-102333333D01*
X98245295Y-102333333D02*
X98340533Y-102333333D01*
X98340533Y-102333333D02*
X98483390Y-102380952D01*
X98483390Y-102380952D02*
X99054819Y-102952380D01*
X99054819Y-102952380D02*
X99054819Y-102333333D01*
X50535714Y-86954819D02*
X50535714Y-85954819D01*
X50535714Y-85954819D02*
X50916666Y-85954819D01*
X50916666Y-85954819D02*
X51011904Y-86002438D01*
X51011904Y-86002438D02*
X51059523Y-86050057D01*
X51059523Y-86050057D02*
X51107142Y-86145295D01*
X51107142Y-86145295D02*
X51107142Y-86288152D01*
X51107142Y-86288152D02*
X51059523Y-86383390D01*
X51059523Y-86383390D02*
X51011904Y-86431009D01*
X51011904Y-86431009D02*
X50916666Y-86478628D01*
X50916666Y-86478628D02*
X50535714Y-86478628D01*
X51488095Y-86907200D02*
X51630952Y-86954819D01*
X51630952Y-86954819D02*
X51869047Y-86954819D01*
X51869047Y-86954819D02*
X51964285Y-86907200D01*
X51964285Y-86907200D02*
X52011904Y-86859580D01*
X52011904Y-86859580D02*
X52059523Y-86764342D01*
X52059523Y-86764342D02*
X52059523Y-86669104D01*
X52059523Y-86669104D02*
X52011904Y-86573866D01*
X52011904Y-86573866D02*
X51964285Y-86526247D01*
X51964285Y-86526247D02*
X51869047Y-86478628D01*
X51869047Y-86478628D02*
X51678571Y-86431009D01*
X51678571Y-86431009D02*
X51583333Y-86383390D01*
X51583333Y-86383390D02*
X51535714Y-86335771D01*
X51535714Y-86335771D02*
X51488095Y-86240533D01*
X51488095Y-86240533D02*
X51488095Y-86145295D01*
X51488095Y-86145295D02*
X51535714Y-86050057D01*
X51535714Y-86050057D02*
X51583333Y-86002438D01*
X51583333Y-86002438D02*
X51678571Y-85954819D01*
X51678571Y-85954819D02*
X51916666Y-85954819D01*
X51916666Y-85954819D02*
X52059523Y-86002438D01*
X53011904Y-86954819D02*
X52440476Y-86954819D01*
X52726190Y-86954819D02*
X52726190Y-85954819D01*
X52726190Y-85954819D02*
X52630952Y-86097676D01*
X52630952Y-86097676D02*
X52535714Y-86192914D01*
X52535714Y-86192914D02*
X52440476Y-86240533D01*
D11*
%TO.C,S2*%
X88800000Y-82750000D02*
X88800000Y-107250000D01*
X88800000Y-107250000D02*
X93300000Y-107250000D01*
X93300000Y-82750000D02*
X88800000Y-82750000D01*
X93300000Y-83620000D02*
X93300000Y-82750000D01*
X93300000Y-107250000D02*
X93300000Y-106380000D01*
D12*
X92200000Y-82000000D02*
G75*
G02*
X92000000Y-82000000I-100000J0D01*
G01*
X92000000Y-82000000D02*
G75*
G02*
X92200000Y-82000000I100000J0D01*
G01*
D11*
%TO.C,S1*%
X82750000Y-82750000D02*
X82750000Y-107250000D01*
X82750000Y-107250000D02*
X87250000Y-107250000D01*
X87250000Y-82750000D02*
X82750000Y-82750000D01*
X87250000Y-83620000D02*
X87250000Y-82750000D01*
X87250000Y-107250000D02*
X87250000Y-106380000D01*
D12*
X86150000Y-82000000D02*
G75*
G02*
X85950000Y-82000000I-100000J0D01*
G01*
X85950000Y-82000000D02*
G75*
G02*
X86150000Y-82000000I100000J0D01*
G01*
D13*
%TO.C,J1*%
X81700000Y-77560000D02*
X81700000Y-79800000D01*
X81700000Y-79800000D02*
X83700000Y-79800000D01*
X81940000Y-70440000D02*
X81940000Y-79560000D01*
X81940000Y-70440000D02*
X104561000Y-70440000D01*
X81940000Y-72500000D02*
X104561000Y-72500000D01*
X81940000Y-77500000D02*
X104561000Y-77500000D01*
X81940000Y-79560000D02*
X104561000Y-79560000D01*
X92070000Y-75976000D02*
X91976000Y-76069000D01*
X92240000Y-76216000D02*
X92181000Y-76274000D01*
X94320000Y-73725000D02*
X94261000Y-73784000D01*
X94525000Y-73931000D02*
X94431000Y-74024000D01*
X99570000Y-75976000D02*
X99476000Y-76069000D01*
X99740000Y-76216000D02*
X99681000Y-76274000D01*
X101820000Y-73725000D02*
X101761000Y-73784000D01*
X102025000Y-73931000D02*
X101931000Y-74024000D01*
X104561000Y-70440000D02*
X104561000Y-79560000D01*
X84266047Y-75789089D02*
G75*
G02*
X84266000Y-74211000I1483948J789089D01*
G01*
X84960911Y-73516047D02*
G75*
G02*
X86539000Y-73516000I789089J-1483948D01*
G01*
X85779383Y-76680450D02*
G75*
G02*
X84961000Y-76484000I-29385J1680445D01*
G01*
X86538712Y-76483352D02*
G75*
G02*
X85750000Y-76680000I-788712J1483352D01*
G01*
X87233953Y-74210911D02*
G75*
G02*
X87234000Y-75789000I-1483953J-789089D01*
G01*
X94930000Y-75000000D02*
G75*
G02*
X91570000Y-75000000I-1680000J0D01*
G01*
X91570000Y-75000000D02*
G75*
G02*
X94930000Y-75000000I1680000J0D01*
G01*
X102430000Y-75000000D02*
G75*
G02*
X99070000Y-75000000I-1680000J0D01*
G01*
X99070000Y-75000000D02*
G75*
G02*
X102430000Y-75000000I1680000J0D01*
G01*
%TO.C,J2*%
X99390000Y-106110000D02*
X99390000Y-107360000D01*
X99390000Y-107360000D02*
X100640000Y-107360000D01*
X99490000Y-105300000D02*
X99490000Y-105600000D01*
X99490000Y-105600000D02*
X99690000Y-105600000D01*
X99590000Y-105300000D02*
X99590000Y-105600000D01*
X99690000Y-98940000D02*
X99690000Y-107060000D01*
X99690000Y-104500000D02*
X100300000Y-104500000D01*
X99690000Y-105300000D02*
X99490000Y-105300000D01*
X99690000Y-107060000D02*
X104410000Y-107060000D01*
X100300000Y-99550000D02*
X100300000Y-101500000D01*
X100300000Y-101500000D02*
X99690000Y-101500000D01*
X100300000Y-104500000D02*
X100300000Y-106450000D01*
X100300000Y-106450000D02*
X103800000Y-106450000D01*
X101000000Y-98940000D02*
X101000000Y-99550000D01*
X101000000Y-107060000D02*
X101000000Y-106450000D01*
X102300000Y-98940000D02*
X102300000Y-99550000D01*
X102300000Y-107060000D02*
X102300000Y-106450000D01*
X103300000Y-101900000D02*
X103800000Y-101900000D01*
X103300000Y-102100000D02*
X103300000Y-101900000D01*
X103300000Y-103900000D02*
X103800000Y-103900000D01*
X103300000Y-104100000D02*
X103300000Y-103900000D01*
X103800000Y-99550000D02*
X100300000Y-99550000D01*
X103800000Y-102000000D02*
X103300000Y-102000000D01*
X103800000Y-102100000D02*
X103300000Y-102100000D01*
X103800000Y-104000000D02*
X103300000Y-104000000D01*
X103800000Y-104100000D02*
X103300000Y-104100000D01*
X103800000Y-106450000D02*
X103800000Y-99550000D01*
X104410000Y-98940000D02*
X99690000Y-98940000D01*
X104410000Y-107060000D02*
X104410000Y-98940000D01*
%TO.C,PS1*%
X53630000Y-70130000D02*
X77870000Y-70130000D01*
X53630000Y-107370000D02*
X53630000Y-70130000D01*
X77870000Y-70130000D02*
X77870000Y-107370000D01*
X77870000Y-107370000D02*
X53630000Y-107370000D01*
%TD*%
M02*
