%TF.GenerationSoftware,KiCad,Pcbnew,9.0.1*%
%TF.CreationDate,2025-04-26T14:19:40+02:00*%
%TF.ProjectId,pwr_sply,7077725f-7370-46c7-992e-6b696361645f,rev?*%
%TF.SameCoordinates,Original*%
%TF.FileFunction,Legend,Bot*%
%TF.FilePolarity,Positive*%
%FSLAX46Y46*%
G04 Gerber Fmt 4.6, Leading zero omitted, Abs format (unit mm)*
G04 Created by KiCad (PCBNEW 9.0.1) date 2025-04-26 14:19:40*
%MOMM*%
%LPD*%
G01*
G04 APERTURE LIST*
%ADD10C,0.150000*%
%ADD11C,0.120000*%
G04 APERTURE END LIST*
D10*
X89704819Y-99761905D02*
X88704819Y-99761905D01*
X88704819Y-99761905D02*
X88704819Y-100000000D01*
X88704819Y-100000000D02*
X88752438Y-100142857D01*
X88752438Y-100142857D02*
X88847676Y-100238095D01*
X88847676Y-100238095D02*
X88942914Y-100285714D01*
X88942914Y-100285714D02*
X89133390Y-100333333D01*
X89133390Y-100333333D02*
X89276247Y-100333333D01*
X89276247Y-100333333D02*
X89466723Y-100285714D01*
X89466723Y-100285714D02*
X89561961Y-100238095D01*
X89561961Y-100238095D02*
X89657200Y-100142857D01*
X89657200Y-100142857D02*
X89704819Y-100000000D01*
X89704819Y-100000000D02*
X89704819Y-99761905D01*
X89704819Y-101285714D02*
X89704819Y-100714286D01*
X89704819Y-101000000D02*
X88704819Y-101000000D01*
X88704819Y-101000000D02*
X88847676Y-100904762D01*
X88847676Y-100904762D02*
X88942914Y-100809524D01*
X88942914Y-100809524D02*
X88990533Y-100714286D01*
X103859580Y-90833333D02*
X103907200Y-90785714D01*
X103907200Y-90785714D02*
X103954819Y-90642857D01*
X103954819Y-90642857D02*
X103954819Y-90547619D01*
X103954819Y-90547619D02*
X103907200Y-90404762D01*
X103907200Y-90404762D02*
X103811961Y-90309524D01*
X103811961Y-90309524D02*
X103716723Y-90261905D01*
X103716723Y-90261905D02*
X103526247Y-90214286D01*
X103526247Y-90214286D02*
X103383390Y-90214286D01*
X103383390Y-90214286D02*
X103192914Y-90261905D01*
X103192914Y-90261905D02*
X103097676Y-90309524D01*
X103097676Y-90309524D02*
X103002438Y-90404762D01*
X103002438Y-90404762D02*
X102954819Y-90547619D01*
X102954819Y-90547619D02*
X102954819Y-90642857D01*
X102954819Y-90642857D02*
X103002438Y-90785714D01*
X103002438Y-90785714D02*
X103050057Y-90833333D01*
X103050057Y-91214286D02*
X103002438Y-91261905D01*
X103002438Y-91261905D02*
X102954819Y-91357143D01*
X102954819Y-91357143D02*
X102954819Y-91595238D01*
X102954819Y-91595238D02*
X103002438Y-91690476D01*
X103002438Y-91690476D02*
X103050057Y-91738095D01*
X103050057Y-91738095D02*
X103145295Y-91785714D01*
X103145295Y-91785714D02*
X103240533Y-91785714D01*
X103240533Y-91785714D02*
X103383390Y-91738095D01*
X103383390Y-91738095D02*
X103954819Y-91166667D01*
X103954819Y-91166667D02*
X103954819Y-91785714D01*
X95900057Y-104154761D02*
X95852438Y-104059523D01*
X95852438Y-104059523D02*
X95757200Y-103964285D01*
X95757200Y-103964285D02*
X95614342Y-103821428D01*
X95614342Y-103821428D02*
X95566723Y-103726190D01*
X95566723Y-103726190D02*
X95566723Y-103630952D01*
X95804819Y-103678571D02*
X95757200Y-103583333D01*
X95757200Y-103583333D02*
X95661961Y-103488095D01*
X95661961Y-103488095D02*
X95471485Y-103440476D01*
X95471485Y-103440476D02*
X95138152Y-103440476D01*
X95138152Y-103440476D02*
X94947676Y-103488095D01*
X94947676Y-103488095D02*
X94852438Y-103583333D01*
X94852438Y-103583333D02*
X94804819Y-103678571D01*
X94804819Y-103678571D02*
X94804819Y-103869047D01*
X94804819Y-103869047D02*
X94852438Y-103964285D01*
X94852438Y-103964285D02*
X94947676Y-104059523D01*
X94947676Y-104059523D02*
X95138152Y-104107142D01*
X95138152Y-104107142D02*
X95471485Y-104107142D01*
X95471485Y-104107142D02*
X95661961Y-104059523D01*
X95661961Y-104059523D02*
X95757200Y-103964285D01*
X95757200Y-103964285D02*
X95804819Y-103869047D01*
X95804819Y-103869047D02*
X95804819Y-103678571D01*
X95804819Y-105059523D02*
X95804819Y-104488095D01*
X95804819Y-104773809D02*
X94804819Y-104773809D01*
X94804819Y-104773809D02*
X94947676Y-104678571D01*
X94947676Y-104678571D02*
X95042914Y-104583333D01*
X95042914Y-104583333D02*
X95090533Y-104488095D01*
X97774819Y-99920833D02*
X97298628Y-99587500D01*
X97774819Y-99349405D02*
X96774819Y-99349405D01*
X96774819Y-99349405D02*
X96774819Y-99730357D01*
X96774819Y-99730357D02*
X96822438Y-99825595D01*
X96822438Y-99825595D02*
X96870057Y-99873214D01*
X96870057Y-99873214D02*
X96965295Y-99920833D01*
X96965295Y-99920833D02*
X97108152Y-99920833D01*
X97108152Y-99920833D02*
X97203390Y-99873214D01*
X97203390Y-99873214D02*
X97251009Y-99825595D01*
X97251009Y-99825595D02*
X97298628Y-99730357D01*
X97298628Y-99730357D02*
X97298628Y-99349405D01*
X97774819Y-100873214D02*
X97774819Y-100301786D01*
X97774819Y-100587500D02*
X96774819Y-100587500D01*
X96774819Y-100587500D02*
X96917676Y-100492262D01*
X96917676Y-100492262D02*
X97012914Y-100397024D01*
X97012914Y-100397024D02*
X97060533Y-100301786D01*
X99454819Y-90238095D02*
X100264342Y-90238095D01*
X100264342Y-90238095D02*
X100359580Y-90285714D01*
X100359580Y-90285714D02*
X100407200Y-90333333D01*
X100407200Y-90333333D02*
X100454819Y-90428571D01*
X100454819Y-90428571D02*
X100454819Y-90619047D01*
X100454819Y-90619047D02*
X100407200Y-90714285D01*
X100407200Y-90714285D02*
X100359580Y-90761904D01*
X100359580Y-90761904D02*
X100264342Y-90809523D01*
X100264342Y-90809523D02*
X99454819Y-90809523D01*
X100454819Y-91809523D02*
X100454819Y-91238095D01*
X100454819Y-91523809D02*
X99454819Y-91523809D01*
X99454819Y-91523809D02*
X99597676Y-91428571D01*
X99597676Y-91428571D02*
X99692914Y-91333333D01*
X99692914Y-91333333D02*
X99740533Y-91238095D01*
X73109580Y-101083333D02*
X73157200Y-101035714D01*
X73157200Y-101035714D02*
X73204819Y-100892857D01*
X73204819Y-100892857D02*
X73204819Y-100797619D01*
X73204819Y-100797619D02*
X73157200Y-100654762D01*
X73157200Y-100654762D02*
X73061961Y-100559524D01*
X73061961Y-100559524D02*
X72966723Y-100511905D01*
X72966723Y-100511905D02*
X72776247Y-100464286D01*
X72776247Y-100464286D02*
X72633390Y-100464286D01*
X72633390Y-100464286D02*
X72442914Y-100511905D01*
X72442914Y-100511905D02*
X72347676Y-100559524D01*
X72347676Y-100559524D02*
X72252438Y-100654762D01*
X72252438Y-100654762D02*
X72204819Y-100797619D01*
X72204819Y-100797619D02*
X72204819Y-100892857D01*
X72204819Y-100892857D02*
X72252438Y-101035714D01*
X72252438Y-101035714D02*
X72300057Y-101083333D01*
X73204819Y-102035714D02*
X73204819Y-101464286D01*
X73204819Y-101750000D02*
X72204819Y-101750000D01*
X72204819Y-101750000D02*
X72347676Y-101654762D01*
X72347676Y-101654762D02*
X72442914Y-101559524D01*
X72442914Y-101559524D02*
X72490533Y-101464286D01*
D11*
%TO.C,D1*%
X88250000Y-101600000D02*
X88250000Y-105500000D01*
X88250000Y-101600000D02*
X90250000Y-101600000D01*
X90250000Y-101600000D02*
X90250000Y-105500000D01*
%TO.C,C2*%
X102565000Y-92900000D02*
X102565000Y-96985000D01*
X102565000Y-96985000D02*
X104435000Y-96985000D01*
X104435000Y-96985000D02*
X104435000Y-92900000D01*
%TO.C,Q1*%
X96190000Y-104250000D02*
X96190000Y-102575000D01*
X96190000Y-104250000D02*
X96190000Y-104900000D01*
X99310000Y-104250000D02*
X99310000Y-103600000D01*
X99310000Y-104250000D02*
X99310000Y-104900000D01*
%TO.C,R1*%
X98227500Y-99832776D02*
X98227500Y-100342224D01*
X99272500Y-99832776D02*
X99272500Y-100342224D01*
%TO.C,U1*%
X98440000Y-93562500D02*
X98440000Y-94362500D01*
X98440000Y-95162500D02*
X98440000Y-94362500D01*
X101560000Y-93562500D02*
X101560000Y-94362500D01*
X101560000Y-95162500D02*
X101560000Y-94362500D01*
X101840000Y-95902500D02*
X101510000Y-95662500D01*
X101840000Y-95422500D01*
X101840000Y-95902500D01*
G36*
X101840000Y-95902500D02*
G01*
X101510000Y-95662500D01*
X101840000Y-95422500D01*
X101840000Y-95902500D01*
G37*
%TO.C,C1*%
X73565000Y-98765000D02*
X75435000Y-98765000D01*
X73565000Y-102850000D02*
X73565000Y-98765000D01*
X75435000Y-98765000D02*
X75435000Y-102850000D01*
%TD*%
M02*
