%TF.GenerationSoftware,KiCad,Pcbnew,9.0.1*%
%TF.CreationDate,2025-04-26T14:19:40+02:00*%
%TF.ProjectId,pwr_sply,7077725f-7370-46c7-992e-6b696361645f,rev?*%
%TF.SameCoordinates,Original*%
%TF.FileFunction,Copper,L2,Bot*%
%TF.FilePolarity,Positive*%
%FSLAX46Y46*%
G04 Gerber Fmt 4.6, Leading zero omitted, Abs format (unit mm)*
G04 Created by KiCad (PCBNEW 9.0.1) date 2025-04-26 14:19:40*
%MOMM*%
%LPD*%
G01*
G04 APERTURE LIST*
G04 Aperture macros list*
%AMRoundRect*
0 Rectangle with rounded corners*
0 $1 Rounding radius*
0 $2 $3 $4 $5 $6 $7 $8 $9 X,Y pos of 4 corners*
0 Add a 4 corners polygon primitive as box body*
4,1,4,$2,$3,$4,$5,$6,$7,$8,$9,$2,$3,0*
0 Add four circle primitives for the rounded corners*
1,1,$1+$1,$2,$3*
1,1,$1+$1,$4,$5*
1,1,$1+$1,$6,$7*
1,1,$1+$1,$8,$9*
0 Add four rect primitives between the rounded corners*
20,1,$1+$1,$2,$3,$4,$5,0*
20,1,$1+$1,$4,$5,$6,$7,0*
20,1,$1+$1,$6,$7,$8,$9,0*
20,1,$1+$1,$8,$9,$2,$3,0*%
G04 Aperture macros list end*
%TA.AperFunction,ComponentPad*%
%ADD10R,1.800000X1.800000*%
%TD*%
%TA.AperFunction,ComponentPad*%
%ADD11C,1.800000*%
%TD*%
%TA.AperFunction,ComponentPad*%
%ADD12R,2.500000X2.500000*%
%TD*%
%TA.AperFunction,ComponentPad*%
%ADD13C,2.500000*%
%TD*%
%TA.AperFunction,ComponentPad*%
%ADD14RoundRect,0.250000X0.625000X-0.350000X0.625000X0.350000X-0.625000X0.350000X-0.625000X-0.350000X0*%
%TD*%
%TA.AperFunction,ComponentPad*%
%ADD15O,1.750000X1.200000*%
%TD*%
%TA.AperFunction,SMDPad,CuDef*%
%ADD16R,1.200000X0.900000*%
%TD*%
%TA.AperFunction,SMDPad,CuDef*%
%ADD17RoundRect,0.250000X0.425000X-0.537500X0.425000X0.537500X-0.425000X0.537500X-0.425000X-0.537500X0*%
%TD*%
%TA.AperFunction,SMDPad,CuDef*%
%ADD18RoundRect,0.150000X-0.150000X0.587500X-0.150000X-0.587500X0.150000X-0.587500X0.150000X0.587500X0*%
%TD*%
%TA.AperFunction,SMDPad,CuDef*%
%ADD19RoundRect,0.237500X-0.237500X0.250000X-0.237500X-0.250000X0.237500X-0.250000X0.237500X0.250000X0*%
%TD*%
%TA.AperFunction,SMDPad,CuDef*%
%ADD20RoundRect,0.150000X0.150000X-0.512500X0.150000X0.512500X-0.150000X0.512500X-0.150000X-0.512500X0*%
%TD*%
%TA.AperFunction,SMDPad,CuDef*%
%ADD21RoundRect,0.250000X-0.425000X0.537500X-0.425000X-0.537500X0.425000X-0.537500X0.425000X0.537500X0*%
%TD*%
%TA.AperFunction,ViaPad*%
%ADD22C,1.200000*%
%TD*%
%TA.AperFunction,Conductor*%
%ADD23C,1.000000*%
%TD*%
%TA.AperFunction,Conductor*%
%ADD24C,0.500000*%
%TD*%
%TA.AperFunction,Conductor*%
%ADD25C,2.000000*%
%TD*%
%TA.AperFunction,Conductor*%
%ADD26C,0.250000*%
%TD*%
G04 APERTURE END LIST*
D10*
%TO.P,S2,1,OUT1*%
%TO.N,LINE*%
X92100000Y-84840000D03*
D11*
%TO.P,S2,2,OUT2*%
%TO.N,/pwr_out*%
X92100000Y-92460000D03*
%TO.P,S2,3,IN+*%
%TO.N,VCC*%
X92100000Y-102620000D03*
%TO.P,S2,4,IN-*%
%TO.N,Net-(D1-A)*%
X92100000Y-105160000D03*
%TD*%
D10*
%TO.P,S1,1,OUT1*%
%TO.N,LINE*%
X86050000Y-84840000D03*
D11*
%TO.P,S1,2,OUT2*%
%TO.N,/pwr_out*%
X86050000Y-92460000D03*
%TO.P,S1,3,IN+*%
%TO.N,VCC*%
X86050000Y-102620000D03*
%TO.P,S1,4,IN-*%
%TO.N,Net-(D1-A)*%
X86050000Y-105160000D03*
%TD*%
D12*
%TO.P,J1,1,Pin_1*%
%TO.N,/pwr_out*%
X85750000Y-75000000D03*
D13*
%TO.P,J1,2,Pin_2*%
%TO.N,NEUT*%
X93250000Y-75000000D03*
%TO.P,J1,3,Pin_3*%
%TO.N,LINE*%
X100750000Y-75000000D03*
%TD*%
D14*
%TO.P,J2,1,Pin_1*%
%TO.N,+3.3V*%
X101500000Y-105000000D03*
D15*
%TO.P,J2,2,Pin_2*%
%TO.N,GND*%
X101500000Y-103000000D03*
%TO.P,J2,3,Pin_3*%
%TO.N,/pwr_en*%
X101500000Y-101000000D03*
%TD*%
D16*
%TO.P,D1,1,K*%
%TO.N,VCC*%
X89250000Y-102200000D03*
%TO.P,D1,2,A*%
%TO.N,Net-(D1-A)*%
X89250000Y-105500000D03*
%TD*%
D17*
%TO.P,C2,1*%
%TO.N,+3.3V*%
X103500000Y-95937500D03*
%TO.P,C2,2*%
%TO.N,GND*%
X103500000Y-93062500D03*
%TD*%
D18*
%TO.P,Q1,1,G*%
%TO.N,/pwr_en*%
X96800000Y-103312500D03*
%TO.P,Q1,2,S*%
%TO.N,GND*%
X98700000Y-103312500D03*
%TO.P,Q1,3,D*%
%TO.N,Net-(D1-A)*%
X97750000Y-105187500D03*
%TD*%
D19*
%TO.P,R1,1*%
%TO.N,/pwr_en*%
X98750000Y-99175000D03*
%TO.P,R1,2*%
%TO.N,GND*%
X98750000Y-101000000D03*
%TD*%
D20*
%TO.P,U1,1,IN*%
%TO.N,VCC*%
X100950000Y-95500000D03*
%TO.P,U1,2,GND*%
%TO.N,GND*%
X100000000Y-95500000D03*
%TO.P,U1,3,EN*%
%TO.N,VCC*%
X99050000Y-95500000D03*
%TO.P,U1,4,NC*%
%TO.N,unconnected-(U1-NC-Pad4)*%
X99050000Y-93225000D03*
%TO.P,U1,5,OUT*%
%TO.N,+3.3V*%
X100950000Y-93225000D03*
%TD*%
D21*
%TO.P,C1,1*%
%TO.N,VCC*%
X74500000Y-99812500D03*
%TO.P,C1,2*%
%TO.N,GND*%
X74500000Y-102687500D03*
%TD*%
D22*
%TO.N,VCC*%
X74500000Y-97500000D03*
%TO.N,GND*%
X74500000Y-104750000D03*
%TD*%
D23*
%TO.N,VCC*%
X86050000Y-102620000D02*
X88830000Y-102620000D01*
X89670000Y-102620000D02*
X89250000Y-102200000D01*
X89637500Y-97987500D02*
X87812500Y-99812500D01*
D24*
X99512500Y-97987500D02*
X99000000Y-97987500D01*
D23*
X74500000Y-99812500D02*
X87812500Y-99812500D01*
D24*
X100950000Y-96550000D02*
X99512500Y-97987500D01*
D23*
X89250000Y-101250000D02*
X89250000Y-102200000D01*
D24*
X99050000Y-95500000D02*
X99050000Y-97937500D01*
D23*
X92100000Y-102620000D02*
X89670000Y-102620000D01*
X99000000Y-97987500D02*
X89637500Y-97987500D01*
X88830000Y-102620000D02*
X89250000Y-102200000D01*
D24*
X99050000Y-97937500D02*
X99000000Y-97987500D01*
X100950000Y-95500000D02*
X100950000Y-96550000D01*
D23*
X87812500Y-99812500D02*
X89250000Y-101250000D01*
X74500000Y-99812500D02*
X74500000Y-97500000D01*
%TO.N,GND*%
X74500000Y-104750000D02*
X74500000Y-102687500D01*
D24*
%TO.N,+3.3V*%
X103500000Y-104000000D02*
X103500000Y-95937500D01*
X102500000Y-105000000D02*
X101500000Y-105000000D01*
X100950000Y-93387500D02*
X103500000Y-95937500D01*
X103500000Y-104000000D02*
X102500000Y-105000000D01*
X100950000Y-93225000D02*
X100950000Y-93387500D01*
D25*
%TO.N,/pwr_out*%
X83650000Y-77100000D02*
X83650000Y-90060000D01*
X83650000Y-90060000D02*
X86050000Y-92460000D01*
X85750000Y-75000000D02*
X83650000Y-77100000D01*
X86050000Y-92460000D02*
X92100000Y-92460000D01*
D26*
%TO.N,/pwr_en*%
X96800000Y-101125000D02*
X96800000Y-103312500D01*
X98750000Y-99175000D02*
X96800000Y-101125000D01*
X101500000Y-101000000D02*
X99675000Y-99175000D01*
X99675000Y-99175000D02*
X98750000Y-99175000D01*
%TO.N,Net-(D1-A)*%
X97722500Y-105160000D02*
X92100000Y-105160000D01*
X92100000Y-105160000D02*
X89590000Y-105160000D01*
X88910000Y-105160000D02*
X89250000Y-105500000D01*
X97750000Y-105187500D02*
X97722500Y-105160000D01*
X89590000Y-105160000D02*
X89250000Y-105500000D01*
X86050000Y-105160000D02*
X88910000Y-105160000D01*
%TD*%
%TA.AperFunction,Conductor*%
%TO.N,GND*%
G36*
X104941621Y-90020502D02*
G01*
X104988114Y-90074158D01*
X104999500Y-90126500D01*
X104999500Y-107374000D01*
X104979498Y-107442121D01*
X104925842Y-107488614D01*
X104873500Y-107500000D01*
X50126500Y-107500000D01*
X50058379Y-107479998D01*
X50011886Y-107426342D01*
X50000500Y-107374000D01*
X50000500Y-103275516D01*
X73317000Y-103275516D01*
X73327605Y-103379318D01*
X73327606Y-103379321D01*
X73383342Y-103547525D01*
X73480218Y-103704585D01*
X73477760Y-103706100D01*
X73499394Y-103759679D01*
X73500000Y-103772025D01*
X73500000Y-105500000D01*
X75500000Y-105500000D01*
X75500000Y-103772025D01*
X75519798Y-103704595D01*
X75519782Y-103704585D01*
X75519820Y-103704522D01*
X75520002Y-103703904D01*
X75521466Y-103701853D01*
X75616657Y-103547525D01*
X75672393Y-103379321D01*
X75672394Y-103379318D01*
X75682999Y-103275516D01*
X75683000Y-103275516D01*
X75683000Y-102941500D01*
X73317000Y-102941500D01*
X73317000Y-103275516D01*
X50000500Y-103275516D01*
X50000500Y-102099483D01*
X73317000Y-102099483D01*
X73317000Y-102433500D01*
X74246000Y-102433500D01*
X74754000Y-102433500D01*
X75683000Y-102433500D01*
X75683000Y-102099483D01*
X75672394Y-101995681D01*
X75672393Y-101995678D01*
X75616657Y-101827474D01*
X75523634Y-101676660D01*
X75523629Y-101676654D01*
X75398345Y-101551370D01*
X75398339Y-101551365D01*
X75247525Y-101458342D01*
X75079321Y-101402606D01*
X75079318Y-101402605D01*
X74975516Y-101392000D01*
X74754000Y-101392000D01*
X74754000Y-102433500D01*
X74246000Y-102433500D01*
X74246000Y-101392000D01*
X74024483Y-101392000D01*
X73920681Y-101402605D01*
X73920678Y-101402606D01*
X73752474Y-101458342D01*
X73601660Y-101551365D01*
X73601654Y-101551370D01*
X73476370Y-101676654D01*
X73476365Y-101676660D01*
X73383342Y-101827474D01*
X73327606Y-101995678D01*
X73327605Y-101995681D01*
X73317000Y-102099483D01*
X50000500Y-102099483D01*
X50000500Y-95626000D01*
X50020502Y-95557879D01*
X50074158Y-95511386D01*
X50126500Y-95500000D01*
X80447810Y-95500000D01*
X80515931Y-95520002D01*
X80536905Y-95536905D01*
X82499998Y-97499999D01*
X82500000Y-97500000D01*
X88394575Y-97500000D01*
X88462696Y-97520002D01*
X88509189Y-97573658D01*
X88519293Y-97643932D01*
X88489799Y-97708512D01*
X88483670Y-97715095D01*
X87431671Y-98767095D01*
X87369359Y-98801120D01*
X87342576Y-98804000D01*
X75634500Y-98804000D01*
X75566379Y-98783998D01*
X75519886Y-98730342D01*
X75508500Y-98678000D01*
X75508500Y-97992638D01*
X75522235Y-97935432D01*
X75527288Y-97925516D01*
X75581205Y-97759574D01*
X75608500Y-97587241D01*
X75608500Y-97412759D01*
X75581205Y-97240426D01*
X75527288Y-97074484D01*
X75448074Y-96919019D01*
X75345517Y-96777861D01*
X75345514Y-96777858D01*
X75345512Y-96777855D01*
X75222144Y-96654487D01*
X75222141Y-96654485D01*
X75222139Y-96654483D01*
X75080981Y-96551926D01*
X74925516Y-96472712D01*
X74925513Y-96472711D01*
X74925511Y-96472710D01*
X74759577Y-96418796D01*
X74759574Y-96418795D01*
X74587241Y-96391500D01*
X74412759Y-96391500D01*
X74240426Y-96418795D01*
X74240423Y-96418795D01*
X74240422Y-96418796D01*
X74074488Y-96472710D01*
X74074482Y-96472713D01*
X73919015Y-96551928D01*
X73777858Y-96654485D01*
X73777855Y-96654487D01*
X73654487Y-96777855D01*
X73654485Y-96777858D01*
X73551928Y-96919015D01*
X73472713Y-97074482D01*
X73472710Y-97074488D01*
X73430583Y-97204146D01*
X73418795Y-97240426D01*
X73391500Y-97412759D01*
X73391500Y-97587241D01*
X73418795Y-97759574D01*
X73418796Y-97759577D01*
X73472710Y-97925511D01*
X73472714Y-97925520D01*
X73477765Y-97935432D01*
X73491500Y-97992638D01*
X73491500Y-98740436D01*
X73472741Y-98806583D01*
X73382885Y-98952262D01*
X73327113Y-99120572D01*
X73327112Y-99120579D01*
X73316500Y-99224446D01*
X73316500Y-100400544D01*
X73327112Y-100504425D01*
X73382885Y-100672738D01*
X73475970Y-100823652D01*
X73475975Y-100823658D01*
X73601341Y-100949024D01*
X73601347Y-100949029D01*
X73601348Y-100949030D01*
X73752262Y-101042115D01*
X73920574Y-101097887D01*
X74024455Y-101108500D01*
X74975544Y-101108499D01*
X75079426Y-101097887D01*
X75247738Y-101042115D01*
X75398652Y-100949030D01*
X75434923Y-100912759D01*
X75489778Y-100857905D01*
X75552090Y-100823879D01*
X75578873Y-100821000D01*
X87342576Y-100821000D01*
X87410697Y-100841002D01*
X87431671Y-100857905D01*
X87970171Y-101396405D01*
X88004197Y-101458717D01*
X87999132Y-101529532D01*
X87956585Y-101586368D01*
X87890065Y-101611179D01*
X87881076Y-101611500D01*
X87085610Y-101611500D01*
X87017489Y-101591498D01*
X86996515Y-101574595D01*
X86967578Y-101545658D01*
X86788218Y-101415345D01*
X86788217Y-101415344D01*
X86788215Y-101415343D01*
X86590676Y-101314692D01*
X86590673Y-101314691D01*
X86590671Y-101314690D01*
X86379829Y-101246183D01*
X86379825Y-101246182D01*
X86379824Y-101246182D01*
X86160851Y-101211500D01*
X85939149Y-101211500D01*
X85720176Y-101246182D01*
X85720170Y-101246183D01*
X85509328Y-101314690D01*
X85509322Y-101314693D01*
X85311781Y-101415345D01*
X85132421Y-101545658D01*
X84975658Y-101702421D01*
X84845345Y-101881781D01*
X84744693Y-102079322D01*
X84744690Y-102079328D01*
X84676183Y-102290170D01*
X84676182Y-102290175D01*
X84676182Y-102290176D01*
X84641500Y-102509149D01*
X84641500Y-102730851D01*
X84655566Y-102819658D01*
X84676183Y-102949829D01*
X84744690Y-103160671D01*
X84744692Y-103160676D01*
X84840874Y-103349444D01*
X84845345Y-103358218D01*
X84975658Y-103537578D01*
X85132421Y-103694341D01*
X85261419Y-103788064D01*
X85304773Y-103844287D01*
X85310848Y-103915023D01*
X85277716Y-103977815D01*
X85261419Y-103991936D01*
X85132421Y-104085658D01*
X84975658Y-104242421D01*
X84845345Y-104421781D01*
X84744693Y-104619322D01*
X84744690Y-104619328D01*
X84676183Y-104830170D01*
X84676182Y-104830175D01*
X84676182Y-104830176D01*
X84641500Y-105049149D01*
X84641500Y-105270851D01*
X84676182Y-105489824D01*
X84676183Y-105489829D01*
X84708460Y-105589166D01*
X84744692Y-105700676D01*
X84838277Y-105884347D01*
X84845345Y-105898218D01*
X84975658Y-106077578D01*
X85132421Y-106234341D01*
X85132424Y-106234343D01*
X85311785Y-106364657D01*
X85509324Y-106465308D01*
X85720176Y-106533818D01*
X85939149Y-106568500D01*
X85939152Y-106568500D01*
X86160848Y-106568500D01*
X86160851Y-106568500D01*
X86379824Y-106533818D01*
X86590676Y-106465308D01*
X86788215Y-106364657D01*
X86967576Y-106234343D01*
X87124343Y-106077576D01*
X87254657Y-105898215D01*
X87268306Y-105871425D01*
X87272959Y-105862296D01*
X87321707Y-105810681D01*
X87385225Y-105793500D01*
X88015500Y-105793500D01*
X88083621Y-105813502D01*
X88130114Y-105867158D01*
X88141500Y-105919500D01*
X88141500Y-105998649D01*
X88148009Y-106059196D01*
X88148011Y-106059204D01*
X88199110Y-106196202D01*
X88199112Y-106196207D01*
X88286738Y-106313261D01*
X88403792Y-106400887D01*
X88403794Y-106400888D01*
X88403796Y-106400889D01*
X88462875Y-106422924D01*
X88540795Y-106451988D01*
X88540803Y-106451990D01*
X88601350Y-106458499D01*
X88601355Y-106458499D01*
X88601362Y-106458500D01*
X88601368Y-106458500D01*
X89898632Y-106458500D01*
X89898638Y-106458500D01*
X89898645Y-106458499D01*
X89898649Y-106458499D01*
X89959196Y-106451990D01*
X89959199Y-106451989D01*
X89959201Y-106451989D01*
X90096204Y-106400889D01*
X90118572Y-106384145D01*
X90213261Y-106313261D01*
X90300887Y-106196207D01*
X90300887Y-106196206D01*
X90300889Y-106196204D01*
X90351989Y-106059201D01*
X90354204Y-106038605D01*
X90358499Y-105998649D01*
X90358500Y-105998632D01*
X90358500Y-105919500D01*
X90378502Y-105851379D01*
X90432158Y-105804886D01*
X90484500Y-105793500D01*
X90764775Y-105793500D01*
X90832896Y-105813502D01*
X90877041Y-105862296D01*
X90895343Y-105898215D01*
X91025658Y-106077578D01*
X91182421Y-106234341D01*
X91182424Y-106234343D01*
X91361785Y-106364657D01*
X91559324Y-106465308D01*
X91770176Y-106533818D01*
X91989149Y-106568500D01*
X91989152Y-106568500D01*
X92210848Y-106568500D01*
X92210851Y-106568500D01*
X92429824Y-106533818D01*
X92640676Y-106465308D01*
X92838215Y-106364657D01*
X93017576Y-106234343D01*
X93174343Y-106077576D01*
X93304657Y-105898215D01*
X93318306Y-105871425D01*
X93322959Y-105862296D01*
X93371707Y-105810681D01*
X93435225Y-105793500D01*
X96825044Y-105793500D01*
X96893165Y-105813502D01*
X96939658Y-105867158D01*
X96946038Y-105884341D01*
X96979243Y-105998632D01*
X96990856Y-106038605D01*
X97075544Y-106181803D01*
X97075549Y-106181810D01*
X97193189Y-106299450D01*
X97193196Y-106299455D01*
X97336394Y-106384143D01*
X97336397Y-106384143D01*
X97336399Y-106384145D01*
X97496169Y-106430562D01*
X97533488Y-106433499D01*
X97533489Y-106433500D01*
X97533498Y-106433500D01*
X97966511Y-106433500D01*
X97966511Y-106433499D01*
X98003831Y-106430562D01*
X98163601Y-106384145D01*
X98163603Y-106384143D01*
X98163605Y-106384143D01*
X98283459Y-106313261D01*
X98306807Y-106299453D01*
X98424453Y-106181807D01*
X98486095Y-106077576D01*
X98509143Y-106038605D01*
X98509143Y-106038603D01*
X98509145Y-106038601D01*
X98555562Y-105878831D01*
X98558499Y-105841511D01*
X98558500Y-105841511D01*
X98558500Y-104554991D01*
X98954000Y-104554991D01*
X99113399Y-104508681D01*
X99256502Y-104424051D01*
X99374050Y-104306503D01*
X99374051Y-104306501D01*
X99458681Y-104163401D01*
X99505065Y-104003749D01*
X99508000Y-103966456D01*
X99508000Y-103566500D01*
X98954000Y-103566500D01*
X98954000Y-104554991D01*
X98558500Y-104554991D01*
X98558500Y-104533489D01*
X98558499Y-104533488D01*
X98555562Y-104496171D01*
X98555562Y-104496170D01*
X98555562Y-104496169D01*
X98509145Y-104336399D01*
X98509143Y-104336395D01*
X98463546Y-104259293D01*
X98446000Y-104195155D01*
X98446000Y-103566500D01*
X97892001Y-103566500D01*
X97892001Y-103815500D01*
X97889409Y-103824325D01*
X97890719Y-103833432D01*
X97879563Y-103857857D01*
X97871999Y-103883621D01*
X97865045Y-103889645D01*
X97861225Y-103898012D01*
X97838639Y-103912526D01*
X97818343Y-103930114D01*
X97807656Y-103932438D01*
X97801499Y-103936396D01*
X97766001Y-103941500D01*
X97734500Y-103941500D01*
X97666379Y-103921498D01*
X97619886Y-103867842D01*
X97608500Y-103815500D01*
X97608500Y-102658489D01*
X97608499Y-102658488D01*
X97605863Y-102625000D01*
X97605562Y-102621169D01*
X97559145Y-102461399D01*
X97559143Y-102461397D01*
X97559143Y-102461394D01*
X97474455Y-102318196D01*
X97474450Y-102318189D01*
X97470405Y-102314144D01*
X97436379Y-102251832D01*
X97433500Y-102225049D01*
X97433500Y-101439594D01*
X97442283Y-101409678D01*
X97448912Y-101379209D01*
X97452726Y-101374112D01*
X97453502Y-101371473D01*
X97470399Y-101350503D01*
X97556727Y-101264176D01*
X97619035Y-101230154D01*
X97689851Y-101235218D01*
X97746687Y-101277764D01*
X97771166Y-101340466D01*
X97777430Y-101401773D01*
X97777431Y-101401776D01*
X97832248Y-101567207D01*
X97923737Y-101715533D01*
X97923742Y-101715539D01*
X98046960Y-101838757D01*
X98046966Y-101838762D01*
X98195297Y-101930253D01*
X98201945Y-101933354D01*
X98201071Y-101935226D01*
X98250965Y-101969767D01*
X98278224Y-102035322D01*
X98265715Y-102105208D01*
X98217408Y-102157236D01*
X98217105Y-102157416D01*
X98143500Y-102200946D01*
X98143496Y-102200949D01*
X98025949Y-102318496D01*
X98025948Y-102318498D01*
X97941318Y-102461598D01*
X97894934Y-102621250D01*
X97892000Y-102658543D01*
X97892000Y-103058500D01*
X98446000Y-103058500D01*
X98446000Y-102127499D01*
X98954000Y-102127499D01*
X98954000Y-103058500D01*
X99507999Y-103058500D01*
X99507999Y-102658543D01*
X99505065Y-102621249D01*
X99458681Y-102461599D01*
X99374051Y-102318498D01*
X99374050Y-102318496D01*
X99256503Y-102200949D01*
X99256499Y-102200946D01*
X99218804Y-102178653D01*
X99170352Y-102126760D01*
X99157647Y-102056909D01*
X99184723Y-101991279D01*
X99242983Y-101950705D01*
X99243312Y-101950595D01*
X99304706Y-101930251D01*
X99453033Y-101838762D01*
X99453039Y-101838757D01*
X99576257Y-101715539D01*
X99576262Y-101715533D01*
X99667751Y-101567207D01*
X99722568Y-101401776D01*
X99722569Y-101401773D01*
X99732999Y-101299684D01*
X99733000Y-101299684D01*
X99733000Y-101254000D01*
X99004000Y-101254000D01*
X99004000Y-102025309D01*
X98983998Y-102093430D01*
X98967095Y-102114404D01*
X98954000Y-102127499D01*
X98446000Y-102127499D01*
X98446000Y-102037191D01*
X98466002Y-101969070D01*
X98482905Y-101948096D01*
X98496000Y-101935001D01*
X98496000Y-101126000D01*
X98516002Y-101057879D01*
X98569658Y-101011386D01*
X98622000Y-101000000D01*
X98750000Y-101000000D01*
X98750000Y-100872000D01*
X98770002Y-100803879D01*
X98823658Y-100757386D01*
X98876000Y-100746000D01*
X99733000Y-100746000D01*
X99733000Y-100700315D01*
X99722569Y-100598226D01*
X99722568Y-100598223D01*
X99667750Y-100432791D01*
X99639489Y-100386973D01*
X99620751Y-100318494D01*
X99642010Y-100250755D01*
X99696516Y-100205263D01*
X99766965Y-100196461D01*
X99830989Y-100227143D01*
X99835824Y-100231729D01*
X100138422Y-100534326D01*
X100172447Y-100596639D01*
X100169160Y-100662357D01*
X100143796Y-100740420D01*
X100143795Y-100740425D01*
X100143795Y-100740426D01*
X100116500Y-100912759D01*
X100116500Y-101087241D01*
X100143795Y-101259574D01*
X100143796Y-101259577D01*
X100194406Y-101415343D01*
X100197712Y-101425516D01*
X100276926Y-101580981D01*
X100379483Y-101722139D01*
X100379485Y-101722141D01*
X100379487Y-101722144D01*
X100502855Y-101845512D01*
X100502858Y-101845514D01*
X100502861Y-101845517D01*
X100552774Y-101881781D01*
X100575611Y-101898373D01*
X100618965Y-101954595D01*
X100625040Y-102025332D01*
X100591908Y-102088123D01*
X100575612Y-102102244D01*
X100503186Y-102154864D01*
X100379869Y-102278181D01*
X100379867Y-102278184D01*
X100277356Y-102419278D01*
X100198177Y-102574674D01*
X100198174Y-102574680D01*
X100144285Y-102740534D01*
X100143420Y-102746000D01*
X101223670Y-102746000D01*
X101199925Y-102769745D01*
X101150556Y-102855255D01*
X101125000Y-102950630D01*
X101125000Y-103049370D01*
X101150556Y-103144745D01*
X101199925Y-103230255D01*
X101223670Y-103254000D01*
X100143420Y-103254000D01*
X100144285Y-103259465D01*
X100198174Y-103425319D01*
X100198177Y-103425325D01*
X100277356Y-103580721D01*
X100379867Y-103721815D01*
X100379869Y-103721818D01*
X100478965Y-103820914D01*
X100512991Y-103883226D01*
X100507926Y-103954041D01*
X100465379Y-104010877D01*
X100456017Y-104017250D01*
X100401347Y-104050970D01*
X100401341Y-104050975D01*
X100275975Y-104176341D01*
X100275970Y-104176347D01*
X100182885Y-104327262D01*
X100127113Y-104495572D01*
X100127112Y-104495579D01*
X100116500Y-104599446D01*
X100116500Y-105400544D01*
X100127112Y-105504425D01*
X100182885Y-105672738D01*
X100275970Y-105823652D01*
X100275975Y-105823658D01*
X100401341Y-105949024D01*
X100401347Y-105949029D01*
X100401348Y-105949030D01*
X100552262Y-106042115D01*
X100720574Y-106097887D01*
X100824455Y-106108500D01*
X102175544Y-106108499D01*
X102279426Y-106097887D01*
X102447738Y-106042115D01*
X102598652Y-105949030D01*
X102724030Y-105823652D01*
X102781725Y-105730112D01*
X102834509Y-105682635D01*
X102840724Y-105679861D01*
X102859284Y-105672174D01*
X102983515Y-105589166D01*
X104089166Y-104483515D01*
X104172174Y-104359284D01*
X104229351Y-104221246D01*
X104246962Y-104132712D01*
X104258500Y-104074706D01*
X104258500Y-97230799D01*
X104278502Y-97162678D01*
X104318354Y-97123558D01*
X104323016Y-97120681D01*
X104398652Y-97074030D01*
X104524030Y-96948652D01*
X104617115Y-96797738D01*
X104672887Y-96629426D01*
X104683500Y-96525545D01*
X104683499Y-95349456D01*
X104675247Y-95268681D01*
X104672887Y-95245574D01*
X104617115Y-95077262D01*
X104524030Y-94926348D01*
X104524029Y-94926347D01*
X104524024Y-94926341D01*
X104398658Y-94800975D01*
X104398652Y-94800970D01*
X104247738Y-94707885D01*
X104163582Y-94679999D01*
X104079427Y-94652113D01*
X104079420Y-94652112D01*
X103975553Y-94641500D01*
X103975545Y-94641500D01*
X103328871Y-94641500D01*
X103298955Y-94632716D01*
X103268486Y-94626088D01*
X103263390Y-94622273D01*
X103260750Y-94621498D01*
X103239776Y-94604595D01*
X103208276Y-94573095D01*
X103174250Y-94510783D01*
X103179315Y-94439968D01*
X103211356Y-94397165D01*
X103209096Y-94394905D01*
X103246000Y-94358001D01*
X103246000Y-94358000D01*
X103754000Y-94358000D01*
X103975517Y-94358000D01*
X103975516Y-94357999D01*
X104079318Y-94347394D01*
X104079321Y-94347393D01*
X104247525Y-94291657D01*
X104398339Y-94198634D01*
X104398345Y-94198629D01*
X104523629Y-94073345D01*
X104523634Y-94073339D01*
X104616657Y-93922525D01*
X104672393Y-93754321D01*
X104672394Y-93754318D01*
X104682999Y-93650516D01*
X104683000Y-93650516D01*
X104683000Y-93316500D01*
X103754000Y-93316500D01*
X103754000Y-94358000D01*
X103246000Y-94358000D01*
X103246000Y-93316500D01*
X102317000Y-93316500D01*
X102317000Y-93377629D01*
X102296998Y-93445750D01*
X102243342Y-93492243D01*
X102173068Y-93502347D01*
X102108488Y-93472853D01*
X102101905Y-93466724D01*
X101795405Y-93160224D01*
X101761379Y-93097912D01*
X101758500Y-93071129D01*
X101758500Y-92645989D01*
X101758499Y-92645988D01*
X101755562Y-92608671D01*
X101755561Y-92608667D01*
X101746861Y-92578722D01*
X101716578Y-92474483D01*
X102317000Y-92474483D01*
X102317000Y-92808500D01*
X103246000Y-92808500D01*
X103754000Y-92808500D01*
X104683000Y-92808500D01*
X104683000Y-92474483D01*
X104672394Y-92370681D01*
X104672393Y-92370678D01*
X104616657Y-92202474D01*
X104523634Y-92051660D01*
X104523629Y-92051654D01*
X104398345Y-91926370D01*
X104398339Y-91926365D01*
X104247525Y-91833342D01*
X104079321Y-91777606D01*
X104079318Y-91777605D01*
X103975516Y-91767000D01*
X103754000Y-91767000D01*
X103754000Y-92808500D01*
X103246000Y-92808500D01*
X103246000Y-91767000D01*
X103024483Y-91767000D01*
X102920681Y-91777605D01*
X102920678Y-91777606D01*
X102752474Y-91833342D01*
X102601660Y-91926365D01*
X102601654Y-91926370D01*
X102476370Y-92051654D01*
X102476365Y-92051660D01*
X102383342Y-92202474D01*
X102327606Y-92370678D01*
X102327605Y-92370681D01*
X102317000Y-92474483D01*
X101716578Y-92474483D01*
X101709145Y-92448899D01*
X101709143Y-92448897D01*
X101709143Y-92448894D01*
X101624455Y-92305696D01*
X101624450Y-92305689D01*
X101506810Y-92188049D01*
X101506803Y-92188044D01*
X101363605Y-92103356D01*
X101203829Y-92056937D01*
X101166511Y-92054000D01*
X101166502Y-92054000D01*
X100733498Y-92054000D01*
X100733489Y-92054000D01*
X100696171Y-92056937D01*
X100696170Y-92056937D01*
X100536394Y-92103356D01*
X100393196Y-92188044D01*
X100393189Y-92188049D01*
X100275549Y-92305689D01*
X100275544Y-92305696D01*
X100190856Y-92448894D01*
X100144437Y-92608670D01*
X100144437Y-92608671D01*
X100141500Y-92645988D01*
X100141500Y-93804011D01*
X100144437Y-93841328D01*
X100144437Y-93841329D01*
X100190856Y-94001105D01*
X100275544Y-94144303D01*
X100280405Y-94150570D01*
X100277984Y-94152447D01*
X100305151Y-94202198D01*
X100300086Y-94273013D01*
X100257683Y-94329741D01*
X100254000Y-94332506D01*
X100254000Y-94582655D01*
X100236454Y-94646793D01*
X100190856Y-94723895D01*
X100144437Y-94883670D01*
X100144437Y-94883671D01*
X100141500Y-94920988D01*
X100141500Y-95374000D01*
X100138908Y-95382825D01*
X100140218Y-95391932D01*
X100129062Y-95416357D01*
X100121498Y-95442121D01*
X100114544Y-95448145D01*
X100110724Y-95456512D01*
X100088138Y-95471026D01*
X100067842Y-95488614D01*
X100057155Y-95490938D01*
X100050998Y-95494896D01*
X100015500Y-95500000D01*
X99984500Y-95500000D01*
X99916379Y-95479998D01*
X99869886Y-95426342D01*
X99858500Y-95374000D01*
X99858500Y-94920989D01*
X99858499Y-94920988D01*
X99855562Y-94883671D01*
X99855562Y-94883670D01*
X99831537Y-94800975D01*
X99809145Y-94723899D01*
X99809142Y-94723894D01*
X99763546Y-94646793D01*
X99746000Y-94582655D01*
X99746000Y-94332507D01*
X99742317Y-94329742D01*
X99699851Y-94272846D01*
X99694887Y-94202023D01*
X99722015Y-94152447D01*
X99719595Y-94150570D01*
X99724450Y-94144310D01*
X99724453Y-94144307D01*
X99809145Y-94001101D01*
X99855562Y-93841331D01*
X99858499Y-93804011D01*
X99858500Y-93804011D01*
X99858500Y-92645989D01*
X99858499Y-92645988D01*
X99855562Y-92608671D01*
X99855562Y-92608670D01*
X99855561Y-92608667D01*
X99809145Y-92448899D01*
X99809143Y-92448897D01*
X99809143Y-92448894D01*
X99724455Y-92305696D01*
X99724450Y-92305689D01*
X99606810Y-92188049D01*
X99606803Y-92188044D01*
X99463605Y-92103356D01*
X99303829Y-92056937D01*
X99266511Y-92054000D01*
X99266502Y-92054000D01*
X98833498Y-92054000D01*
X98833489Y-92054000D01*
X98796171Y-92056937D01*
X98796170Y-92056937D01*
X98636394Y-92103356D01*
X98493196Y-92188044D01*
X98493189Y-92188049D01*
X98375549Y-92305689D01*
X98375544Y-92305696D01*
X98290856Y-92448894D01*
X98244437Y-92608670D01*
X98244437Y-92608671D01*
X98241500Y-92645988D01*
X98241500Y-93804011D01*
X98244437Y-93841328D01*
X98244437Y-93841329D01*
X98290856Y-94001105D01*
X98375544Y-94144303D01*
X98375549Y-94144310D01*
X98493193Y-94261954D01*
X98494469Y-94262944D01*
X98495212Y-94263973D01*
X98498798Y-94267559D01*
X98498219Y-94268137D01*
X98536034Y-94320502D01*
X98539881Y-94391394D01*
X98504791Y-94453113D01*
X98494469Y-94462056D01*
X98493193Y-94463045D01*
X98375549Y-94580689D01*
X98375544Y-94580696D01*
X98290856Y-94723894D01*
X98244437Y-94883670D01*
X98244437Y-94883671D01*
X98241500Y-94920988D01*
X98241500Y-96079011D01*
X98244437Y-96116328D01*
X98244437Y-96116329D01*
X98286497Y-96261099D01*
X98291500Y-96296252D01*
X98291500Y-96853000D01*
X98271498Y-96921121D01*
X98217842Y-96967614D01*
X98165500Y-96979000D01*
X94243694Y-96979000D01*
X94175573Y-96958998D01*
X94129080Y-96905342D01*
X94118976Y-96835068D01*
X94148470Y-96770488D01*
X94149520Y-96769290D01*
X97500000Y-93000000D01*
X97500000Y-90126500D01*
X97520002Y-90058379D01*
X97573658Y-90011886D01*
X97626000Y-90000500D01*
X104873500Y-90000500D01*
X104941621Y-90020502D01*
G37*
%TD.AperFunction*%
%TD*%
M02*
