%TF.GenerationSoftware,KiCad,Pcbnew,(6.0.9)*%
%TF.CreationDate,2024-07-13T20:48:36+02:00*%
%TF.ProjectId,pwr_sply,7077725f-7370-46c7-992e-6b696361645f,rev?*%
%TF.SameCoordinates,Original*%
%TF.FileFunction,Legend,Top*%
%TF.FilePolarity,Positive*%
%FSLAX46Y46*%
G04 Gerber Fmt 4.6, Leading zero omitted, Abs format (unit mm)*
G04 Created by KiCad (PCBNEW (6.0.9)) date 2024-07-13 20:48:36*
%MOMM*%
%LPD*%
G01*
G04 APERTURE LIST*
%ADD10C,0.150000*%
%ADD11C,0.127000*%
%ADD12C,0.200000*%
%ADD13C,0.120000*%
G04 APERTURE END LIST*
D10*
X94592380Y-103609404D02*
X94592380Y-103037976D01*
X95592380Y-103323690D02*
X94592380Y-103323690D01*
X95544761Y-102323690D02*
X95592380Y-102418928D01*
X95592380Y-102609404D01*
X95544761Y-102704642D01*
X95449523Y-102752261D01*
X95068571Y-102752261D01*
X94973333Y-102704642D01*
X94925714Y-102609404D01*
X94925714Y-102418928D01*
X94973333Y-102323690D01*
X95068571Y-102276071D01*
X95163809Y-102276071D01*
X95259047Y-102752261D01*
X95592380Y-101847500D02*
X94925714Y-101847500D01*
X95020952Y-101847500D02*
X94973333Y-101799880D01*
X94925714Y-101704642D01*
X94925714Y-101561785D01*
X94973333Y-101466547D01*
X95068571Y-101418928D01*
X95592380Y-101418928D01*
X95068571Y-101418928D02*
X94973333Y-101371309D01*
X94925714Y-101276071D01*
X94925714Y-101133214D01*
X94973333Y-101037976D01*
X95068571Y-100990357D01*
X95592380Y-100990357D01*
X94925714Y-100514166D02*
X95925714Y-100514166D01*
X94973333Y-100514166D02*
X94925714Y-100418928D01*
X94925714Y-100228452D01*
X94973333Y-100133214D01*
X95020952Y-100085595D01*
X95116190Y-100037976D01*
X95401904Y-100037976D01*
X95497142Y-100085595D01*
X95544761Y-100133214D01*
X95592380Y-100228452D01*
X95592380Y-100418928D01*
X95544761Y-100514166D01*
X94592380Y-99752261D02*
X94592380Y-99180833D01*
X95592380Y-99466547D02*
X94592380Y-99466547D01*
X95544761Y-98895119D02*
X95592380Y-98799880D01*
X95592380Y-98609404D01*
X95544761Y-98514166D01*
X95449523Y-98466547D01*
X95401904Y-98466547D01*
X95306666Y-98514166D01*
X95259047Y-98609404D01*
X95259047Y-98752261D01*
X95211428Y-98847500D01*
X95116190Y-98895119D01*
X95068571Y-98895119D01*
X94973333Y-98847500D01*
X94925714Y-98752261D01*
X94925714Y-98609404D01*
X94973333Y-98514166D01*
X95544761Y-97609404D02*
X95592380Y-97704642D01*
X95592380Y-97895119D01*
X95544761Y-97990357D01*
X95497142Y-98037976D01*
X95401904Y-98085595D01*
X95116190Y-98085595D01*
X95020952Y-98037976D01*
X94973333Y-97990357D01*
X94925714Y-97895119D01*
X94925714Y-97704642D01*
X94973333Y-97609404D01*
X95592380Y-97180833D02*
X94925714Y-97180833D01*
X95116190Y-97180833D02*
X95020952Y-97133214D01*
X94973333Y-97085595D01*
X94925714Y-96990357D01*
X94925714Y-96895119D01*
X94925714Y-96561785D02*
X95592380Y-96561785D01*
X95020952Y-96561785D02*
X94973333Y-96514166D01*
X94925714Y-96418928D01*
X94925714Y-96276071D01*
X94973333Y-96180833D01*
X95068571Y-96133214D01*
X95592380Y-96133214D01*
X95592380Y-95657023D02*
X94592380Y-95657023D01*
X94592380Y-95276071D01*
X94640000Y-95180833D01*
X94687619Y-95133214D01*
X94782857Y-95085595D01*
X94925714Y-95085595D01*
X95020952Y-95133214D01*
X95068571Y-95180833D01*
X95116190Y-95276071D01*
X95116190Y-95657023D01*
X94925714Y-94752261D02*
X95592380Y-94561785D01*
X95116190Y-94371309D01*
X95592380Y-94180833D01*
X94925714Y-93990357D01*
X95592380Y-93609404D02*
X94925714Y-93609404D01*
X95116190Y-93609404D02*
X95020952Y-93561785D01*
X94973333Y-93514166D01*
X94925714Y-93418928D01*
X94925714Y-93323690D01*
X94592380Y-92799880D02*
X94592380Y-92704642D01*
X94640000Y-92609404D01*
X94687619Y-92561785D01*
X94782857Y-92514166D01*
X94973333Y-92466547D01*
X95211428Y-92466547D01*
X95401904Y-92514166D01*
X95497142Y-92561785D01*
X95544761Y-92609404D01*
X95592380Y-92704642D01*
X95592380Y-92799880D01*
X95544761Y-92895119D01*
X95497142Y-92942738D01*
X95401904Y-92990357D01*
X95211428Y-93037976D01*
X94973333Y-93037976D01*
X94782857Y-92990357D01*
X94687619Y-92942738D01*
X94640000Y-92895119D01*
X94592380Y-92799880D01*
X95497142Y-92037976D02*
X95544761Y-91990357D01*
X95592380Y-92037976D01*
X95544761Y-92085595D01*
X95497142Y-92037976D01*
X95592380Y-92037976D01*
X94687619Y-91609404D02*
X94640000Y-91561785D01*
X94592380Y-91466547D01*
X94592380Y-91228452D01*
X94640000Y-91133214D01*
X94687619Y-91085595D01*
X94782857Y-91037976D01*
X94878095Y-91037976D01*
X95020952Y-91085595D01*
X95592380Y-91657023D01*
X95592380Y-91037976D01*
X97202380Y-98704642D02*
X96202380Y-98704642D01*
X96678571Y-98704642D02*
X96678571Y-98133214D01*
X97202380Y-98133214D02*
X96202380Y-98133214D01*
X96535714Y-97228452D02*
X97202380Y-97228452D01*
X96535714Y-97657023D02*
X97059523Y-97657023D01*
X97154761Y-97609404D01*
X97202380Y-97514166D01*
X97202380Y-97371309D01*
X97154761Y-97276071D01*
X97107142Y-97228452D01*
X97202380Y-96752261D02*
X96202380Y-96752261D01*
X96583333Y-96752261D02*
X96535714Y-96657023D01*
X96535714Y-96466547D01*
X96583333Y-96371309D01*
X96630952Y-96323690D01*
X96726190Y-96276071D01*
X97011904Y-96276071D01*
X97107142Y-96323690D01*
X97154761Y-96371309D01*
X97202380Y-96466547D01*
X97202380Y-96657023D01*
X97154761Y-96752261D01*
X97154761Y-95466547D02*
X97202380Y-95561785D01*
X97202380Y-95752261D01*
X97154761Y-95847500D01*
X97059523Y-95895119D01*
X96678571Y-95895119D01*
X96583333Y-95847500D01*
X96535714Y-95752261D01*
X96535714Y-95561785D01*
X96583333Y-95466547D01*
X96678571Y-95418928D01*
X96773809Y-95418928D01*
X96869047Y-95895119D01*
X97202380Y-94990357D02*
X96535714Y-94990357D01*
X96726190Y-94990357D02*
X96630952Y-94942738D01*
X96583333Y-94895119D01*
X96535714Y-94799880D01*
X96535714Y-94704642D01*
X96535714Y-94514166D02*
X96535714Y-94133214D01*
X96202380Y-94371309D02*
X97059523Y-94371309D01*
X97154761Y-94323690D01*
X97202380Y-94228452D01*
X97202380Y-94133214D01*
X97202380Y-93037976D02*
X96202380Y-93037976D01*
X96916666Y-92704642D01*
X96202380Y-92371309D01*
X97202380Y-92371309D01*
X97202380Y-91895119D02*
X96535714Y-91895119D01*
X96202380Y-91895119D02*
X96250000Y-91942738D01*
X96297619Y-91895119D01*
X96250000Y-91847500D01*
X96202380Y-91895119D01*
X96297619Y-91895119D01*
X97154761Y-91466547D02*
X97202380Y-91371309D01*
X97202380Y-91180833D01*
X97154761Y-91085595D01*
X97059523Y-91037976D01*
X97011904Y-91037976D01*
X96916666Y-91085595D01*
X96869047Y-91180833D01*
X96869047Y-91323690D01*
X96821428Y-91418928D01*
X96726190Y-91466547D01*
X96678571Y-91466547D01*
X96583333Y-91418928D01*
X96535714Y-91323690D01*
X96535714Y-91180833D01*
X96583333Y-91085595D01*
X96154761Y-91180833D02*
X96297619Y-91323690D01*
X97907619Y-94466547D02*
X97860000Y-94418928D01*
X97812380Y-94323690D01*
X97812380Y-94085595D01*
X97860000Y-93990357D01*
X97907619Y-93942738D01*
X98002857Y-93895119D01*
X98098095Y-93895119D01*
X98240952Y-93942738D01*
X98812380Y-94514166D01*
X98812380Y-93895119D01*
X97812380Y-93276071D02*
X97812380Y-93180833D01*
X97860000Y-93085595D01*
X97907619Y-93037976D01*
X98002857Y-92990357D01*
X98193333Y-92942738D01*
X98431428Y-92942738D01*
X98621904Y-92990357D01*
X98717142Y-93037976D01*
X98764761Y-93085595D01*
X98812380Y-93180833D01*
X98812380Y-93276071D01*
X98764761Y-93371309D01*
X98717142Y-93418928D01*
X98621904Y-93466547D01*
X98431428Y-93514166D01*
X98193333Y-93514166D01*
X98002857Y-93466547D01*
X97907619Y-93418928D01*
X97860000Y-93371309D01*
X97812380Y-93276071D01*
X97907619Y-92561785D02*
X97860000Y-92514166D01*
X97812380Y-92418928D01*
X97812380Y-92180833D01*
X97860000Y-92085595D01*
X97907619Y-92037976D01*
X98002857Y-91990357D01*
X98098095Y-91990357D01*
X98240952Y-92037976D01*
X98812380Y-92609404D01*
X98812380Y-91990357D01*
X97812380Y-91657023D02*
X97812380Y-91037976D01*
X98193333Y-91371309D01*
X98193333Y-91228452D01*
X98240952Y-91133214D01*
X98288571Y-91085595D01*
X98383809Y-91037976D01*
X98621904Y-91037976D01*
X98717142Y-91085595D01*
X98764761Y-91133214D01*
X98812380Y-91228452D01*
X98812380Y-91514166D01*
X98764761Y-91609404D01*
X98717142Y-91657023D01*
%TO.C,S2*%
X94654761Y-89261904D02*
X94702380Y-89119047D01*
X94702380Y-88880952D01*
X94654761Y-88785714D01*
X94607142Y-88738095D01*
X94511904Y-88690476D01*
X94416666Y-88690476D01*
X94321428Y-88738095D01*
X94273809Y-88785714D01*
X94226190Y-88880952D01*
X94178571Y-89071428D01*
X94130952Y-89166666D01*
X94083333Y-89214285D01*
X93988095Y-89261904D01*
X93892857Y-89261904D01*
X93797619Y-89214285D01*
X93750000Y-89166666D01*
X93702380Y-89071428D01*
X93702380Y-88833333D01*
X93750000Y-88690476D01*
X93797619Y-88309523D02*
X93750000Y-88261904D01*
X93702380Y-88166666D01*
X93702380Y-87928571D01*
X93750000Y-87833333D01*
X93797619Y-87785714D01*
X93892857Y-87738095D01*
X93988095Y-87738095D01*
X94130952Y-87785714D01*
X94702380Y-88357142D01*
X94702380Y-87738095D01*
%TO.C,S1*%
X82154761Y-89011904D02*
X82202380Y-88869047D01*
X82202380Y-88630952D01*
X82154761Y-88535714D01*
X82107142Y-88488095D01*
X82011904Y-88440476D01*
X81916666Y-88440476D01*
X81821428Y-88488095D01*
X81773809Y-88535714D01*
X81726190Y-88630952D01*
X81678571Y-88821428D01*
X81630952Y-88916666D01*
X81583333Y-88964285D01*
X81488095Y-89011904D01*
X81392857Y-89011904D01*
X81297619Y-88964285D01*
X81250000Y-88916666D01*
X81202380Y-88821428D01*
X81202380Y-88583333D01*
X81250000Y-88440476D01*
X82202380Y-87488095D02*
X82202380Y-88059523D01*
X82202380Y-87773809D02*
X81202380Y-87773809D01*
X81345238Y-87869047D01*
X81440476Y-87964285D01*
X81488095Y-88059523D01*
%TO.C,J1*%
X82416666Y-80452380D02*
X82416666Y-81166666D01*
X82369047Y-81309523D01*
X82273809Y-81404761D01*
X82130952Y-81452380D01*
X82035714Y-81452380D01*
X83416666Y-81452380D02*
X82845238Y-81452380D01*
X83130952Y-81452380D02*
X83130952Y-80452380D01*
X83035714Y-80595238D01*
X82940476Y-80690476D01*
X82845238Y-80738095D01*
%TO.C,J2*%
X98052380Y-103333333D02*
X98766666Y-103333333D01*
X98909523Y-103380952D01*
X99004761Y-103476190D01*
X99052380Y-103619047D01*
X99052380Y-103714285D01*
X98147619Y-102904761D02*
X98100000Y-102857142D01*
X98052380Y-102761904D01*
X98052380Y-102523809D01*
X98100000Y-102428571D01*
X98147619Y-102380952D01*
X98242857Y-102333333D01*
X98338095Y-102333333D01*
X98480952Y-102380952D01*
X99052380Y-102952380D01*
X99052380Y-102333333D01*
%TO.C,PS1*%
X50535714Y-86952380D02*
X50535714Y-85952380D01*
X50916666Y-85952380D01*
X51011904Y-86000000D01*
X51059523Y-86047619D01*
X51107142Y-86142857D01*
X51107142Y-86285714D01*
X51059523Y-86380952D01*
X51011904Y-86428571D01*
X50916666Y-86476190D01*
X50535714Y-86476190D01*
X51488095Y-86904761D02*
X51630952Y-86952380D01*
X51869047Y-86952380D01*
X51964285Y-86904761D01*
X52011904Y-86857142D01*
X52059523Y-86761904D01*
X52059523Y-86666666D01*
X52011904Y-86571428D01*
X51964285Y-86523809D01*
X51869047Y-86476190D01*
X51678571Y-86428571D01*
X51583333Y-86380952D01*
X51535714Y-86333333D01*
X51488095Y-86238095D01*
X51488095Y-86142857D01*
X51535714Y-86047619D01*
X51583333Y-86000000D01*
X51678571Y-85952380D01*
X51916666Y-85952380D01*
X52059523Y-86000000D01*
X53011904Y-86952380D02*
X52440476Y-86952380D01*
X52726190Y-86952380D02*
X52726190Y-85952380D01*
X52630952Y-86095238D01*
X52535714Y-86190476D01*
X52440476Y-86238095D01*
D11*
%TO.C,S2*%
X88800000Y-107250000D02*
X93300000Y-107250000D01*
X93300000Y-82750000D02*
X88800000Y-82750000D01*
X88800000Y-82750000D02*
X88800000Y-107250000D01*
X93300000Y-83620000D02*
X93300000Y-82750000D01*
X93300000Y-107250000D02*
X93300000Y-106380000D01*
D12*
X92200000Y-82000000D02*
G75*
G03*
X92200000Y-82000000I-100000J0D01*
G01*
D11*
%TO.C,S1*%
X82750000Y-82750000D02*
X82750000Y-107250000D01*
X82750000Y-107250000D02*
X87250000Y-107250000D01*
X87250000Y-83620000D02*
X87250000Y-82750000D01*
X87250000Y-82750000D02*
X82750000Y-82750000D01*
X87250000Y-107250000D02*
X87250000Y-106380000D01*
D12*
X86150000Y-82000000D02*
G75*
G03*
X86150000Y-82000000I-100000J0D01*
G01*
D13*
%TO.C,J1*%
X81940000Y-72500000D02*
X104561000Y-72500000D01*
X101820000Y-73725000D02*
X101761000Y-73784000D01*
X81940000Y-79560000D02*
X104561000Y-79560000D01*
X81940000Y-77500000D02*
X104561000Y-77500000D01*
X81940000Y-70440000D02*
X81940000Y-79560000D01*
X92070000Y-75976000D02*
X91976000Y-76069000D01*
X81700000Y-77560000D02*
X81700000Y-79800000D01*
X102025000Y-73931000D02*
X101931000Y-74024000D01*
X94525000Y-73931000D02*
X94431000Y-74024000D01*
X104561000Y-70440000D02*
X104561000Y-79560000D01*
X99570000Y-75976000D02*
X99476000Y-76069000D01*
X99740000Y-76216000D02*
X99681000Y-76274000D01*
X81940000Y-70440000D02*
X104561000Y-70440000D01*
X94320000Y-73725000D02*
X94261000Y-73784000D01*
X92240000Y-76216000D02*
X92181000Y-76274000D01*
X81700000Y-79800000D02*
X83700000Y-79800000D01*
X87234001Y-75789000D02*
G75*
G03*
X87233953Y-74210911I-1484001J789000D01*
G01*
X84266000Y-74211000D02*
G75*
G03*
X84266047Y-75789089I1483995J-789000D01*
G01*
X85750000Y-76680000D02*
G75*
G03*
X86538712Y-76483352I0J1680000D01*
G01*
X84961000Y-76484000D02*
G75*
G03*
X85779383Y-76680450I788998J1483995D01*
G01*
X86539000Y-73516000D02*
G75*
G03*
X84960911Y-73516047I-789000J-1483995D01*
G01*
X94930000Y-75000000D02*
G75*
G03*
X94930000Y-75000000I-1680000J0D01*
G01*
X102430000Y-75000000D02*
G75*
G03*
X102430000Y-75000000I-1680000J0D01*
G01*
%TO.C,J2*%
X99590000Y-105300000D02*
X99590000Y-105600000D01*
X103800000Y-104000000D02*
X103300000Y-104000000D01*
X99390000Y-106110000D02*
X99390000Y-107360000D01*
X102300000Y-98940000D02*
X102300000Y-99550000D01*
X101000000Y-98940000D02*
X101000000Y-99550000D01*
X103800000Y-102000000D02*
X103300000Y-102000000D01*
X99690000Y-105300000D02*
X99490000Y-105300000D01*
X104410000Y-107060000D02*
X104410000Y-98940000D01*
X103800000Y-106450000D02*
X103800000Y-99550000D01*
X99490000Y-105300000D02*
X99490000Y-105600000D01*
X101000000Y-107060000D02*
X101000000Y-106450000D01*
X103800000Y-102100000D02*
X103300000Y-102100000D01*
X99390000Y-107360000D02*
X100640000Y-107360000D01*
X103800000Y-99550000D02*
X100300000Y-99550000D01*
X100300000Y-106450000D02*
X103800000Y-106450000D01*
X99490000Y-105600000D02*
X99690000Y-105600000D01*
X100300000Y-101500000D02*
X99690000Y-101500000D01*
X104410000Y-98940000D02*
X99690000Y-98940000D01*
X100300000Y-99550000D02*
X100300000Y-101500000D01*
X99690000Y-98940000D02*
X99690000Y-107060000D01*
X99690000Y-104500000D02*
X100300000Y-104500000D01*
X99690000Y-107060000D02*
X104410000Y-107060000D01*
X103300000Y-104100000D02*
X103300000Y-103900000D01*
X102300000Y-107060000D02*
X102300000Y-106450000D01*
X103800000Y-104100000D02*
X103300000Y-104100000D01*
X103300000Y-103900000D02*
X103800000Y-103900000D01*
X100300000Y-104500000D02*
X100300000Y-106450000D01*
X103300000Y-101900000D02*
X103800000Y-101900000D01*
X103300000Y-102100000D02*
X103300000Y-101900000D01*
%TO.C,PS1*%
X77870000Y-107370000D02*
X53630000Y-107370000D01*
X53630000Y-70130000D02*
X77870000Y-70130000D01*
X53630000Y-107370000D02*
X53630000Y-70130000D01*
X77870000Y-70130000D02*
X77870000Y-107370000D01*
%TD*%
M02*
