%TF.GenerationSoftware,KiCad,Pcbnew,9.0.5*%
%TF.CreationDate,2025-11-11T21:21:03+01:00*%
%TF.ProjectId,pwr_sply,7077725f-7370-46c7-992e-6b696361645f,rev?*%
%TF.SameCoordinates,Original*%
%TF.FileFunction,Legend,Top*%
%TF.FilePolarity,Positive*%
%FSLAX46Y46*%
G04 Gerber Fmt 4.6, Leading zero omitted, Abs format (unit mm)*
G04 Created by KiCad (PCBNEW 9.0.5) date 2025-11-11 21:21:03*
%MOMM*%
%LPD*%
G01*
G04 APERTURE LIST*
%ADD10C,0.150000*%
%ADD11C,0.120000*%
G04 APERTURE END LIST*
D10*
X94594875Y-103610589D02*
X94594875Y-103039161D01*
X95594875Y-103324875D02*
X94594875Y-103324875D01*
X95547256Y-102324875D02*
X95594875Y-102420113D01*
X95594875Y-102420113D02*
X95594875Y-102610589D01*
X95594875Y-102610589D02*
X95547256Y-102705827D01*
X95547256Y-102705827D02*
X95452017Y-102753446D01*
X95452017Y-102753446D02*
X95071065Y-102753446D01*
X95071065Y-102753446D02*
X94975827Y-102705827D01*
X94975827Y-102705827D02*
X94928208Y-102610589D01*
X94928208Y-102610589D02*
X94928208Y-102420113D01*
X94928208Y-102420113D02*
X94975827Y-102324875D01*
X94975827Y-102324875D02*
X95071065Y-102277256D01*
X95071065Y-102277256D02*
X95166303Y-102277256D01*
X95166303Y-102277256D02*
X95261541Y-102753446D01*
X95594875Y-101848684D02*
X94928208Y-101848684D01*
X95023446Y-101848684D02*
X94975827Y-101801065D01*
X94975827Y-101801065D02*
X94928208Y-101705827D01*
X94928208Y-101705827D02*
X94928208Y-101562970D01*
X94928208Y-101562970D02*
X94975827Y-101467732D01*
X94975827Y-101467732D02*
X95071065Y-101420113D01*
X95071065Y-101420113D02*
X95594875Y-101420113D01*
X95071065Y-101420113D02*
X94975827Y-101372494D01*
X94975827Y-101372494D02*
X94928208Y-101277256D01*
X94928208Y-101277256D02*
X94928208Y-101134399D01*
X94928208Y-101134399D02*
X94975827Y-101039160D01*
X94975827Y-101039160D02*
X95071065Y-100991541D01*
X95071065Y-100991541D02*
X95594875Y-100991541D01*
X94928208Y-100515351D02*
X95928208Y-100515351D01*
X94975827Y-100515351D02*
X94928208Y-100420113D01*
X94928208Y-100420113D02*
X94928208Y-100229637D01*
X94928208Y-100229637D02*
X94975827Y-100134399D01*
X94975827Y-100134399D02*
X95023446Y-100086780D01*
X95023446Y-100086780D02*
X95118684Y-100039161D01*
X95118684Y-100039161D02*
X95404398Y-100039161D01*
X95404398Y-100039161D02*
X95499636Y-100086780D01*
X95499636Y-100086780D02*
X95547256Y-100134399D01*
X95547256Y-100134399D02*
X95594875Y-100229637D01*
X95594875Y-100229637D02*
X95594875Y-100420113D01*
X95594875Y-100420113D02*
X95547256Y-100515351D01*
X94594875Y-99753446D02*
X94594875Y-99182018D01*
X95594875Y-99467732D02*
X94594875Y-99467732D01*
X95547256Y-98896303D02*
X95594875Y-98801065D01*
X95594875Y-98801065D02*
X95594875Y-98610589D01*
X95594875Y-98610589D02*
X95547256Y-98515351D01*
X95547256Y-98515351D02*
X95452017Y-98467732D01*
X95452017Y-98467732D02*
X95404398Y-98467732D01*
X95404398Y-98467732D02*
X95309160Y-98515351D01*
X95309160Y-98515351D02*
X95261541Y-98610589D01*
X95261541Y-98610589D02*
X95261541Y-98753446D01*
X95261541Y-98753446D02*
X95213922Y-98848684D01*
X95213922Y-98848684D02*
X95118684Y-98896303D01*
X95118684Y-98896303D02*
X95071065Y-98896303D01*
X95071065Y-98896303D02*
X94975827Y-98848684D01*
X94975827Y-98848684D02*
X94928208Y-98753446D01*
X94928208Y-98753446D02*
X94928208Y-98610589D01*
X94928208Y-98610589D02*
X94975827Y-98515351D01*
X95547256Y-97610589D02*
X95594875Y-97705827D01*
X95594875Y-97705827D02*
X95594875Y-97896303D01*
X95594875Y-97896303D02*
X95547256Y-97991541D01*
X95547256Y-97991541D02*
X95499636Y-98039160D01*
X95499636Y-98039160D02*
X95404398Y-98086779D01*
X95404398Y-98086779D02*
X95118684Y-98086779D01*
X95118684Y-98086779D02*
X95023446Y-98039160D01*
X95023446Y-98039160D02*
X94975827Y-97991541D01*
X94975827Y-97991541D02*
X94928208Y-97896303D01*
X94928208Y-97896303D02*
X94928208Y-97705827D01*
X94928208Y-97705827D02*
X94975827Y-97610589D01*
X95594875Y-97182017D02*
X94928208Y-97182017D01*
X95118684Y-97182017D02*
X95023446Y-97134398D01*
X95023446Y-97134398D02*
X94975827Y-97086779D01*
X94975827Y-97086779D02*
X94928208Y-96991541D01*
X94928208Y-96991541D02*
X94928208Y-96896303D01*
X94928208Y-96562969D02*
X95594875Y-96562969D01*
X95023446Y-96562969D02*
X94975827Y-96515350D01*
X94975827Y-96515350D02*
X94928208Y-96420112D01*
X94928208Y-96420112D02*
X94928208Y-96277255D01*
X94928208Y-96277255D02*
X94975827Y-96182017D01*
X94975827Y-96182017D02*
X95071065Y-96134398D01*
X95071065Y-96134398D02*
X95594875Y-96134398D01*
X95594875Y-95658207D02*
X94594875Y-95658207D01*
X94594875Y-95658207D02*
X94594875Y-95277255D01*
X94594875Y-95277255D02*
X94642494Y-95182017D01*
X94642494Y-95182017D02*
X94690113Y-95134398D01*
X94690113Y-95134398D02*
X94785351Y-95086779D01*
X94785351Y-95086779D02*
X94928208Y-95086779D01*
X94928208Y-95086779D02*
X95023446Y-95134398D01*
X95023446Y-95134398D02*
X95071065Y-95182017D01*
X95071065Y-95182017D02*
X95118684Y-95277255D01*
X95118684Y-95277255D02*
X95118684Y-95658207D01*
X94928208Y-94753445D02*
X95594875Y-94562969D01*
X95594875Y-94562969D02*
X95118684Y-94372493D01*
X95118684Y-94372493D02*
X95594875Y-94182017D01*
X95594875Y-94182017D02*
X94928208Y-93991541D01*
X95594875Y-93610588D02*
X94928208Y-93610588D01*
X95118684Y-93610588D02*
X95023446Y-93562969D01*
X95023446Y-93562969D02*
X94975827Y-93515350D01*
X94975827Y-93515350D02*
X94928208Y-93420112D01*
X94928208Y-93420112D02*
X94928208Y-93324874D01*
X94594875Y-92801064D02*
X94594875Y-92705826D01*
X94594875Y-92705826D02*
X94642494Y-92610588D01*
X94642494Y-92610588D02*
X94690113Y-92562969D01*
X94690113Y-92562969D02*
X94785351Y-92515350D01*
X94785351Y-92515350D02*
X94975827Y-92467731D01*
X94975827Y-92467731D02*
X95213922Y-92467731D01*
X95213922Y-92467731D02*
X95404398Y-92515350D01*
X95404398Y-92515350D02*
X95499636Y-92562969D01*
X95499636Y-92562969D02*
X95547256Y-92610588D01*
X95547256Y-92610588D02*
X95594875Y-92705826D01*
X95594875Y-92705826D02*
X95594875Y-92801064D01*
X95594875Y-92801064D02*
X95547256Y-92896302D01*
X95547256Y-92896302D02*
X95499636Y-92943921D01*
X95499636Y-92943921D02*
X95404398Y-92991540D01*
X95404398Y-92991540D02*
X95213922Y-93039159D01*
X95213922Y-93039159D02*
X94975827Y-93039159D01*
X94975827Y-93039159D02*
X94785351Y-92991540D01*
X94785351Y-92991540D02*
X94690113Y-92943921D01*
X94690113Y-92943921D02*
X94642494Y-92896302D01*
X94642494Y-92896302D02*
X94594875Y-92801064D01*
X95499636Y-92039159D02*
X95547256Y-91991540D01*
X95547256Y-91991540D02*
X95594875Y-92039159D01*
X95594875Y-92039159D02*
X95547256Y-92086778D01*
X95547256Y-92086778D02*
X95499636Y-92039159D01*
X95499636Y-92039159D02*
X95594875Y-92039159D01*
X94594875Y-91658207D02*
X94594875Y-91039160D01*
X94594875Y-91039160D02*
X94975827Y-91372493D01*
X94975827Y-91372493D02*
X94975827Y-91229636D01*
X94975827Y-91229636D02*
X95023446Y-91134398D01*
X95023446Y-91134398D02*
X95071065Y-91086779D01*
X95071065Y-91086779D02*
X95166303Y-91039160D01*
X95166303Y-91039160D02*
X95404398Y-91039160D01*
X95404398Y-91039160D02*
X95499636Y-91086779D01*
X95499636Y-91086779D02*
X95547256Y-91134398D01*
X95547256Y-91134398D02*
X95594875Y-91229636D01*
X95594875Y-91229636D02*
X95594875Y-91515350D01*
X95594875Y-91515350D02*
X95547256Y-91610588D01*
X95547256Y-91610588D02*
X95499636Y-91658207D01*
X97204819Y-98705827D02*
X96204819Y-98705827D01*
X96681009Y-98705827D02*
X96681009Y-98134399D01*
X97204819Y-98134399D02*
X96204819Y-98134399D01*
X96538152Y-97229637D02*
X97204819Y-97229637D01*
X96538152Y-97658208D02*
X97061961Y-97658208D01*
X97061961Y-97658208D02*
X97157200Y-97610589D01*
X97157200Y-97610589D02*
X97204819Y-97515351D01*
X97204819Y-97515351D02*
X97204819Y-97372494D01*
X97204819Y-97372494D02*
X97157200Y-97277256D01*
X97157200Y-97277256D02*
X97109580Y-97229637D01*
X97204819Y-96753446D02*
X96204819Y-96753446D01*
X96585771Y-96753446D02*
X96538152Y-96658208D01*
X96538152Y-96658208D02*
X96538152Y-96467732D01*
X96538152Y-96467732D02*
X96585771Y-96372494D01*
X96585771Y-96372494D02*
X96633390Y-96324875D01*
X96633390Y-96324875D02*
X96728628Y-96277256D01*
X96728628Y-96277256D02*
X97014342Y-96277256D01*
X97014342Y-96277256D02*
X97109580Y-96324875D01*
X97109580Y-96324875D02*
X97157200Y-96372494D01*
X97157200Y-96372494D02*
X97204819Y-96467732D01*
X97204819Y-96467732D02*
X97204819Y-96658208D01*
X97204819Y-96658208D02*
X97157200Y-96753446D01*
X97157200Y-95467732D02*
X97204819Y-95562970D01*
X97204819Y-95562970D02*
X97204819Y-95753446D01*
X97204819Y-95753446D02*
X97157200Y-95848684D01*
X97157200Y-95848684D02*
X97061961Y-95896303D01*
X97061961Y-95896303D02*
X96681009Y-95896303D01*
X96681009Y-95896303D02*
X96585771Y-95848684D01*
X96585771Y-95848684D02*
X96538152Y-95753446D01*
X96538152Y-95753446D02*
X96538152Y-95562970D01*
X96538152Y-95562970D02*
X96585771Y-95467732D01*
X96585771Y-95467732D02*
X96681009Y-95420113D01*
X96681009Y-95420113D02*
X96776247Y-95420113D01*
X96776247Y-95420113D02*
X96871485Y-95896303D01*
X97204819Y-94991541D02*
X96538152Y-94991541D01*
X96728628Y-94991541D02*
X96633390Y-94943922D01*
X96633390Y-94943922D02*
X96585771Y-94896303D01*
X96585771Y-94896303D02*
X96538152Y-94801065D01*
X96538152Y-94801065D02*
X96538152Y-94705827D01*
X96538152Y-94515350D02*
X96538152Y-94134398D01*
X96204819Y-94372493D02*
X97061961Y-94372493D01*
X97061961Y-94372493D02*
X97157200Y-94324874D01*
X97157200Y-94324874D02*
X97204819Y-94229636D01*
X97204819Y-94229636D02*
X97204819Y-94134398D01*
X97204819Y-93039159D02*
X96204819Y-93039159D01*
X96204819Y-93039159D02*
X96919104Y-92705826D01*
X96919104Y-92705826D02*
X96204819Y-92372493D01*
X96204819Y-92372493D02*
X97204819Y-92372493D01*
X97204819Y-91896302D02*
X96538152Y-91896302D01*
X96204819Y-91896302D02*
X96252438Y-91943921D01*
X96252438Y-91943921D02*
X96300057Y-91896302D01*
X96300057Y-91896302D02*
X96252438Y-91848683D01*
X96252438Y-91848683D02*
X96204819Y-91896302D01*
X96204819Y-91896302D02*
X96300057Y-91896302D01*
X97157200Y-91467731D02*
X97204819Y-91372493D01*
X97204819Y-91372493D02*
X97204819Y-91182017D01*
X97204819Y-91182017D02*
X97157200Y-91086779D01*
X97157200Y-91086779D02*
X97061961Y-91039160D01*
X97061961Y-91039160D02*
X97014342Y-91039160D01*
X97014342Y-91039160D02*
X96919104Y-91086779D01*
X96919104Y-91086779D02*
X96871485Y-91182017D01*
X96871485Y-91182017D02*
X96871485Y-91324874D01*
X96871485Y-91324874D02*
X96823866Y-91420112D01*
X96823866Y-91420112D02*
X96728628Y-91467731D01*
X96728628Y-91467731D02*
X96681009Y-91467731D01*
X96681009Y-91467731D02*
X96585771Y-91420112D01*
X96585771Y-91420112D02*
X96538152Y-91324874D01*
X96538152Y-91324874D02*
X96538152Y-91182017D01*
X96538152Y-91182017D02*
X96585771Y-91086779D01*
X96157200Y-91182017D02*
X96300057Y-91324874D01*
X97910001Y-94467731D02*
X97862382Y-94420112D01*
X97862382Y-94420112D02*
X97814763Y-94324874D01*
X97814763Y-94324874D02*
X97814763Y-94086779D01*
X97814763Y-94086779D02*
X97862382Y-93991541D01*
X97862382Y-93991541D02*
X97910001Y-93943922D01*
X97910001Y-93943922D02*
X98005239Y-93896303D01*
X98005239Y-93896303D02*
X98100477Y-93896303D01*
X98100477Y-93896303D02*
X98243334Y-93943922D01*
X98243334Y-93943922D02*
X98814763Y-94515350D01*
X98814763Y-94515350D02*
X98814763Y-93896303D01*
X97814763Y-93277255D02*
X97814763Y-93182017D01*
X97814763Y-93182017D02*
X97862382Y-93086779D01*
X97862382Y-93086779D02*
X97910001Y-93039160D01*
X97910001Y-93039160D02*
X98005239Y-92991541D01*
X98005239Y-92991541D02*
X98195715Y-92943922D01*
X98195715Y-92943922D02*
X98433810Y-92943922D01*
X98433810Y-92943922D02*
X98624286Y-92991541D01*
X98624286Y-92991541D02*
X98719524Y-93039160D01*
X98719524Y-93039160D02*
X98767144Y-93086779D01*
X98767144Y-93086779D02*
X98814763Y-93182017D01*
X98814763Y-93182017D02*
X98814763Y-93277255D01*
X98814763Y-93277255D02*
X98767144Y-93372493D01*
X98767144Y-93372493D02*
X98719524Y-93420112D01*
X98719524Y-93420112D02*
X98624286Y-93467731D01*
X98624286Y-93467731D02*
X98433810Y-93515350D01*
X98433810Y-93515350D02*
X98195715Y-93515350D01*
X98195715Y-93515350D02*
X98005239Y-93467731D01*
X98005239Y-93467731D02*
X97910001Y-93420112D01*
X97910001Y-93420112D02*
X97862382Y-93372493D01*
X97862382Y-93372493D02*
X97814763Y-93277255D01*
X97910001Y-92562969D02*
X97862382Y-92515350D01*
X97862382Y-92515350D02*
X97814763Y-92420112D01*
X97814763Y-92420112D02*
X97814763Y-92182017D01*
X97814763Y-92182017D02*
X97862382Y-92086779D01*
X97862382Y-92086779D02*
X97910001Y-92039160D01*
X97910001Y-92039160D02*
X98005239Y-91991541D01*
X98005239Y-91991541D02*
X98100477Y-91991541D01*
X98100477Y-91991541D02*
X98243334Y-92039160D01*
X98243334Y-92039160D02*
X98814763Y-92610588D01*
X98814763Y-92610588D02*
X98814763Y-91991541D01*
X97814763Y-91086779D02*
X97814763Y-91562969D01*
X97814763Y-91562969D02*
X98290953Y-91610588D01*
X98290953Y-91610588D02*
X98243334Y-91562969D01*
X98243334Y-91562969D02*
X98195715Y-91467731D01*
X98195715Y-91467731D02*
X98195715Y-91229636D01*
X98195715Y-91229636D02*
X98243334Y-91134398D01*
X98243334Y-91134398D02*
X98290953Y-91086779D01*
X98290953Y-91086779D02*
X98386191Y-91039160D01*
X98386191Y-91039160D02*
X98624286Y-91039160D01*
X98624286Y-91039160D02*
X98719524Y-91086779D01*
X98719524Y-91086779D02*
X98767144Y-91134398D01*
X98767144Y-91134398D02*
X98814763Y-91229636D01*
X98814763Y-91229636D02*
X98814763Y-91467731D01*
X98814763Y-91467731D02*
X98767144Y-91562969D01*
X98767144Y-91562969D02*
X98719524Y-91610588D01*
X52785714Y-88954819D02*
X52785714Y-87954819D01*
X52785714Y-87954819D02*
X53166666Y-87954819D01*
X53166666Y-87954819D02*
X53261904Y-88002438D01*
X53261904Y-88002438D02*
X53309523Y-88050057D01*
X53309523Y-88050057D02*
X53357142Y-88145295D01*
X53357142Y-88145295D02*
X53357142Y-88288152D01*
X53357142Y-88288152D02*
X53309523Y-88383390D01*
X53309523Y-88383390D02*
X53261904Y-88431009D01*
X53261904Y-88431009D02*
X53166666Y-88478628D01*
X53166666Y-88478628D02*
X52785714Y-88478628D01*
X53738095Y-88907200D02*
X53880952Y-88954819D01*
X53880952Y-88954819D02*
X54119047Y-88954819D01*
X54119047Y-88954819D02*
X54214285Y-88907200D01*
X54214285Y-88907200D02*
X54261904Y-88859580D01*
X54261904Y-88859580D02*
X54309523Y-88764342D01*
X54309523Y-88764342D02*
X54309523Y-88669104D01*
X54309523Y-88669104D02*
X54261904Y-88573866D01*
X54261904Y-88573866D02*
X54214285Y-88526247D01*
X54214285Y-88526247D02*
X54119047Y-88478628D01*
X54119047Y-88478628D02*
X53928571Y-88431009D01*
X53928571Y-88431009D02*
X53833333Y-88383390D01*
X53833333Y-88383390D02*
X53785714Y-88335771D01*
X53785714Y-88335771D02*
X53738095Y-88240533D01*
X53738095Y-88240533D02*
X53738095Y-88145295D01*
X53738095Y-88145295D02*
X53785714Y-88050057D01*
X53785714Y-88050057D02*
X53833333Y-88002438D01*
X53833333Y-88002438D02*
X53928571Y-87954819D01*
X53928571Y-87954819D02*
X54166666Y-87954819D01*
X54166666Y-87954819D02*
X54309523Y-88002438D01*
X54690476Y-88050057D02*
X54738095Y-88002438D01*
X54738095Y-88002438D02*
X54833333Y-87954819D01*
X54833333Y-87954819D02*
X55071428Y-87954819D01*
X55071428Y-87954819D02*
X55166666Y-88002438D01*
X55166666Y-88002438D02*
X55214285Y-88050057D01*
X55214285Y-88050057D02*
X55261904Y-88145295D01*
X55261904Y-88145295D02*
X55261904Y-88240533D01*
X55261904Y-88240533D02*
X55214285Y-88383390D01*
X55214285Y-88383390D02*
X54642857Y-88954819D01*
X54642857Y-88954819D02*
X55261904Y-88954819D01*
X87695834Y-102429580D02*
X87648215Y-102477200D01*
X87648215Y-102477200D02*
X87505358Y-102524819D01*
X87505358Y-102524819D02*
X87410120Y-102524819D01*
X87410120Y-102524819D02*
X87267263Y-102477200D01*
X87267263Y-102477200D02*
X87172025Y-102381961D01*
X87172025Y-102381961D02*
X87124406Y-102286723D01*
X87124406Y-102286723D02*
X87076787Y-102096247D01*
X87076787Y-102096247D02*
X87076787Y-101953390D01*
X87076787Y-101953390D02*
X87124406Y-101762914D01*
X87124406Y-101762914D02*
X87172025Y-101667676D01*
X87172025Y-101667676D02*
X87267263Y-101572438D01*
X87267263Y-101572438D02*
X87410120Y-101524819D01*
X87410120Y-101524819D02*
X87505358Y-101524819D01*
X87505358Y-101524819D02*
X87648215Y-101572438D01*
X87648215Y-101572438D02*
X87695834Y-101620057D01*
X88552977Y-101858152D02*
X88552977Y-102524819D01*
X88314882Y-101477200D02*
X88076787Y-102191485D01*
X88076787Y-102191485D02*
X88695834Y-102191485D01*
X88609580Y-85916666D02*
X88657200Y-85964285D01*
X88657200Y-85964285D02*
X88704819Y-86107142D01*
X88704819Y-86107142D02*
X88704819Y-86202380D01*
X88704819Y-86202380D02*
X88657200Y-86345237D01*
X88657200Y-86345237D02*
X88561961Y-86440475D01*
X88561961Y-86440475D02*
X88466723Y-86488094D01*
X88466723Y-86488094D02*
X88276247Y-86535713D01*
X88276247Y-86535713D02*
X88133390Y-86535713D01*
X88133390Y-86535713D02*
X87942914Y-86488094D01*
X87942914Y-86488094D02*
X87847676Y-86440475D01*
X87847676Y-86440475D02*
X87752438Y-86345237D01*
X87752438Y-86345237D02*
X87704819Y-86202380D01*
X87704819Y-86202380D02*
X87704819Y-86107142D01*
X87704819Y-86107142D02*
X87752438Y-85964285D01*
X87752438Y-85964285D02*
X87800057Y-85916666D01*
X87704819Y-85583332D02*
X87704819Y-84964285D01*
X87704819Y-84964285D02*
X88085771Y-85297618D01*
X88085771Y-85297618D02*
X88085771Y-85154761D01*
X88085771Y-85154761D02*
X88133390Y-85059523D01*
X88133390Y-85059523D02*
X88181009Y-85011904D01*
X88181009Y-85011904D02*
X88276247Y-84964285D01*
X88276247Y-84964285D02*
X88514342Y-84964285D01*
X88514342Y-84964285D02*
X88609580Y-85011904D01*
X88609580Y-85011904D02*
X88657200Y-85059523D01*
X88657200Y-85059523D02*
X88704819Y-85154761D01*
X88704819Y-85154761D02*
X88704819Y-85440475D01*
X88704819Y-85440475D02*
X88657200Y-85535713D01*
X88657200Y-85535713D02*
X88609580Y-85583332D01*
X83920833Y-102524819D02*
X83587500Y-102048628D01*
X83349405Y-102524819D02*
X83349405Y-101524819D01*
X83349405Y-101524819D02*
X83730357Y-101524819D01*
X83730357Y-101524819D02*
X83825595Y-101572438D01*
X83825595Y-101572438D02*
X83873214Y-101620057D01*
X83873214Y-101620057D02*
X83920833Y-101715295D01*
X83920833Y-101715295D02*
X83920833Y-101858152D01*
X83920833Y-101858152D02*
X83873214Y-101953390D01*
X83873214Y-101953390D02*
X83825595Y-102001009D01*
X83825595Y-102001009D02*
X83730357Y-102048628D01*
X83730357Y-102048628D02*
X83349405Y-102048628D01*
X84301786Y-101620057D02*
X84349405Y-101572438D01*
X84349405Y-101572438D02*
X84444643Y-101524819D01*
X84444643Y-101524819D02*
X84682738Y-101524819D01*
X84682738Y-101524819D02*
X84777976Y-101572438D01*
X84777976Y-101572438D02*
X84825595Y-101620057D01*
X84825595Y-101620057D02*
X84873214Y-101715295D01*
X84873214Y-101715295D02*
X84873214Y-101810533D01*
X84873214Y-101810533D02*
X84825595Y-101953390D01*
X84825595Y-101953390D02*
X84254167Y-102524819D01*
X84254167Y-102524819D02*
X84873214Y-102524819D01*
X90454819Y-100261904D02*
X91264342Y-100261904D01*
X91264342Y-100261904D02*
X91359580Y-100214285D01*
X91359580Y-100214285D02*
X91407200Y-100166666D01*
X91407200Y-100166666D02*
X91454819Y-100071428D01*
X91454819Y-100071428D02*
X91454819Y-99880952D01*
X91454819Y-99880952D02*
X91407200Y-99785714D01*
X91407200Y-99785714D02*
X91359580Y-99738095D01*
X91359580Y-99738095D02*
X91264342Y-99690476D01*
X91264342Y-99690476D02*
X90454819Y-99690476D01*
X90550057Y-99261904D02*
X90502438Y-99214285D01*
X90502438Y-99214285D02*
X90454819Y-99119047D01*
X90454819Y-99119047D02*
X90454819Y-98880952D01*
X90454819Y-98880952D02*
X90502438Y-98785714D01*
X90502438Y-98785714D02*
X90550057Y-98738095D01*
X90550057Y-98738095D02*
X90645295Y-98690476D01*
X90645295Y-98690476D02*
X90740533Y-98690476D01*
X90740533Y-98690476D02*
X90883390Y-98738095D01*
X90883390Y-98738095D02*
X91454819Y-99309523D01*
X91454819Y-99309523D02*
X91454819Y-98690476D01*
X98359580Y-97166666D02*
X98407200Y-97214285D01*
X98407200Y-97214285D02*
X98454819Y-97357142D01*
X98454819Y-97357142D02*
X98454819Y-97452380D01*
X98454819Y-97452380D02*
X98407200Y-97595237D01*
X98407200Y-97595237D02*
X98311961Y-97690475D01*
X98311961Y-97690475D02*
X98216723Y-97738094D01*
X98216723Y-97738094D02*
X98026247Y-97785713D01*
X98026247Y-97785713D02*
X97883390Y-97785713D01*
X97883390Y-97785713D02*
X97692914Y-97738094D01*
X97692914Y-97738094D02*
X97597676Y-97690475D01*
X97597676Y-97690475D02*
X97502438Y-97595237D01*
X97502438Y-97595237D02*
X97454819Y-97452380D01*
X97454819Y-97452380D02*
X97454819Y-97357142D01*
X97454819Y-97357142D02*
X97502438Y-97214285D01*
X97502438Y-97214285D02*
X97550057Y-97166666D01*
X97550057Y-96785713D02*
X97502438Y-96738094D01*
X97502438Y-96738094D02*
X97454819Y-96642856D01*
X97454819Y-96642856D02*
X97454819Y-96404761D01*
X97454819Y-96404761D02*
X97502438Y-96309523D01*
X97502438Y-96309523D02*
X97550057Y-96261904D01*
X97550057Y-96261904D02*
X97645295Y-96214285D01*
X97645295Y-96214285D02*
X97740533Y-96214285D01*
X97740533Y-96214285D02*
X97883390Y-96261904D01*
X97883390Y-96261904D02*
X98454819Y-96833332D01*
X98454819Y-96833332D02*
X98454819Y-96214285D01*
X82416666Y-80454819D02*
X82416666Y-81169104D01*
X82416666Y-81169104D02*
X82369047Y-81311961D01*
X82369047Y-81311961D02*
X82273809Y-81407200D01*
X82273809Y-81407200D02*
X82130952Y-81454819D01*
X82130952Y-81454819D02*
X82035714Y-81454819D01*
X83416666Y-81454819D02*
X82845238Y-81454819D01*
X83130952Y-81454819D02*
X83130952Y-80454819D01*
X83130952Y-80454819D02*
X83035714Y-80597676D01*
X83035714Y-80597676D02*
X82940476Y-80692914D01*
X82940476Y-80692914D02*
X82845238Y-80740533D01*
X98054819Y-104333333D02*
X98769104Y-104333333D01*
X98769104Y-104333333D02*
X98911961Y-104380952D01*
X98911961Y-104380952D02*
X99007200Y-104476190D01*
X99007200Y-104476190D02*
X99054819Y-104619047D01*
X99054819Y-104619047D02*
X99054819Y-104714285D01*
X98150057Y-103904761D02*
X98102438Y-103857142D01*
X98102438Y-103857142D02*
X98054819Y-103761904D01*
X98054819Y-103761904D02*
X98054819Y-103523809D01*
X98054819Y-103523809D02*
X98102438Y-103428571D01*
X98102438Y-103428571D02*
X98150057Y-103380952D01*
X98150057Y-103380952D02*
X98245295Y-103333333D01*
X98245295Y-103333333D02*
X98340533Y-103333333D01*
X98340533Y-103333333D02*
X98483390Y-103380952D01*
X98483390Y-103380952D02*
X99054819Y-103952380D01*
X99054819Y-103952380D02*
X99054819Y-103333333D01*
D11*
%TO.C,PS2*%
X55780000Y-70530000D02*
X78220000Y-70530000D01*
X55780000Y-104470000D02*
X55780000Y-70530000D01*
X78220000Y-70530000D02*
X78220000Y-104470000D01*
X78220000Y-104470000D02*
X55780000Y-104470000D01*
%TO.C,C4*%
X87716234Y-102990000D02*
X88008768Y-102990000D01*
X87716234Y-104010000D02*
X88008768Y-104010000D01*
%TO.C,C3*%
X89380000Y-80630000D02*
X94620000Y-80630000D01*
X89380000Y-90870000D02*
X89380000Y-80630000D01*
X94620000Y-80630000D02*
X94620000Y-90870000D01*
X94620000Y-90870000D02*
X89380000Y-90870000D01*
%TO.C,R2*%
X83832776Y-102977500D02*
X84342224Y-102977500D01*
X83832776Y-104022500D02*
X84342224Y-104022500D01*
%TO.C,U2*%
X82130000Y-94050000D02*
X82130000Y-95500000D01*
X82130000Y-97500000D02*
X82130000Y-98950000D01*
X82130000Y-98950000D02*
X89870000Y-98950000D01*
X89870000Y-94050000D02*
X82130000Y-94050000D01*
X89870000Y-98950000D02*
X89870000Y-94050000D01*
X82130000Y-95500000D02*
G75*
G02*
X82130000Y-97500000I1J-1000000D01*
G01*
%TO.C,C2*%
X97065000Y-102985000D02*
X97065000Y-98900000D01*
X98935000Y-98900000D02*
X98935000Y-102985000D01*
X98935000Y-102985000D02*
X97065000Y-102985000D01*
%TO.C,J1*%
X81700000Y-77560000D02*
X81700000Y-79800000D01*
X81700000Y-79800000D02*
X83700000Y-79800000D01*
X81940000Y-70440000D02*
X81940000Y-79560000D01*
X81940000Y-70440000D02*
X104561000Y-70440000D01*
X81940000Y-72500000D02*
X104561000Y-72500000D01*
X81940000Y-77500000D02*
X104561000Y-77500000D01*
X81940000Y-79560000D02*
X104561000Y-79560000D01*
X92070000Y-75976000D02*
X91976000Y-76069000D01*
X92240000Y-76216000D02*
X92181000Y-76274000D01*
X94320000Y-73725000D02*
X94261000Y-73784000D01*
X94525000Y-73931000D02*
X94431000Y-74024000D01*
X99570000Y-75976000D02*
X99476000Y-76069000D01*
X99740000Y-76216000D02*
X99681000Y-76274000D01*
X101820000Y-73725000D02*
X101761000Y-73784000D01*
X102025000Y-73931000D02*
X101931000Y-74024000D01*
X104561000Y-70440000D02*
X104561000Y-79560000D01*
X84266047Y-75789089D02*
G75*
G02*
X84266000Y-74211000I1483948J789089D01*
G01*
X84960911Y-73516047D02*
G75*
G02*
X86539000Y-73516000I789089J-1483948D01*
G01*
X85779383Y-76680450D02*
G75*
G02*
X84961000Y-76484000I-29385J1680445D01*
G01*
X86538712Y-76483352D02*
G75*
G02*
X85750000Y-76680000I-788712J1483352D01*
G01*
X87233953Y-74210911D02*
G75*
G02*
X87234000Y-75789000I-1483953J-789089D01*
G01*
X94930000Y-75000000D02*
G75*
G02*
X91570000Y-75000000I-1680000J0D01*
G01*
X91570000Y-75000000D02*
G75*
G02*
X94930000Y-75000000I1680000J0D01*
G01*
X102430000Y-75000000D02*
G75*
G02*
X99070000Y-75000000I-1680000J0D01*
G01*
X99070000Y-75000000D02*
G75*
G02*
X102430000Y-75000000I1680000J0D01*
G01*
%TO.C,J2*%
X99390000Y-103110000D02*
X99390000Y-104360000D01*
X99390000Y-104360000D02*
X100640000Y-104360000D01*
X99490000Y-102300000D02*
X99490000Y-102600000D01*
X99490000Y-102600000D02*
X99690000Y-102600000D01*
X99590000Y-102300000D02*
X99590000Y-102600000D01*
X99690000Y-95940000D02*
X99690000Y-104060000D01*
X99690000Y-101500000D02*
X100300000Y-101500000D01*
X99690000Y-102300000D02*
X99490000Y-102300000D01*
X99690000Y-104060000D02*
X104410000Y-104060000D01*
X100300000Y-96550000D02*
X100300000Y-98500000D01*
X100300000Y-98500000D02*
X99690000Y-98500000D01*
X100300000Y-101500000D02*
X100300000Y-103450000D01*
X100300000Y-103450000D02*
X103800000Y-103450000D01*
X101000000Y-95940000D02*
X101000000Y-96550000D01*
X101000000Y-104060000D02*
X101000000Y-103450000D01*
X102300000Y-95940000D02*
X102300000Y-96550000D01*
X102300000Y-104060000D02*
X102300000Y-103450000D01*
X103300000Y-98900000D02*
X103800000Y-98900000D01*
X103300000Y-99100000D02*
X103300000Y-98900000D01*
X103300000Y-100900000D02*
X103800000Y-100900000D01*
X103300000Y-101100000D02*
X103300000Y-100900000D01*
X103800000Y-96550000D02*
X100300000Y-96550000D01*
X103800000Y-99000000D02*
X103300000Y-99000000D01*
X103800000Y-99100000D02*
X103300000Y-99100000D01*
X103800000Y-101000000D02*
X103300000Y-101000000D01*
X103800000Y-101100000D02*
X103300000Y-101100000D01*
X103800000Y-103450000D02*
X103800000Y-96550000D01*
X104410000Y-95940000D02*
X99690000Y-95940000D01*
X104410000Y-104060000D02*
X104410000Y-95940000D01*
%TD*%
M02*
