%TF.GenerationSoftware,KiCad,Pcbnew,9.0.5*%
%TF.CreationDate,2025-11-11T21:21:03+01:00*%
%TF.ProjectId,pwr_sply,7077725f-7370-46c7-992e-6b696361645f,rev?*%
%TF.SameCoordinates,Original*%
%TF.FileFunction,Legend,Bot*%
%TF.FilePolarity,Positive*%
%FSLAX46Y46*%
G04 Gerber Fmt 4.6, Leading zero omitted, Abs format (unit mm)*
G04 Created by KiCad (PCBNEW 9.0.5) date 2025-11-11 21:21:03*
%MOMM*%
%LPD*%
G01*
G04 APERTURE LIST*
%ADD10C,0.150000*%
%ADD11C,0.120000*%
G04 APERTURE END LIST*
D10*
X93663220Y-71869819D02*
X93663220Y-70869819D01*
X93663220Y-70869819D02*
X93091792Y-71869819D01*
X93091792Y-71869819D02*
X93091792Y-70869819D01*
X100687030Y-71869819D02*
X101163220Y-71869819D01*
X101163220Y-71869819D02*
X101163220Y-70869819D01*
X86972744Y-70869819D02*
X86782268Y-70869819D01*
X86782268Y-70869819D02*
X86687030Y-70917438D01*
X86687030Y-70917438D02*
X86591792Y-71012676D01*
X86591792Y-71012676D02*
X86544173Y-71203152D01*
X86544173Y-71203152D02*
X86544173Y-71536485D01*
X86544173Y-71536485D02*
X86591792Y-71726961D01*
X86591792Y-71726961D02*
X86687030Y-71822200D01*
X86687030Y-71822200D02*
X86782268Y-71869819D01*
X86782268Y-71869819D02*
X86972744Y-71869819D01*
X86972744Y-71869819D02*
X87067982Y-71822200D01*
X87067982Y-71822200D02*
X87163220Y-71726961D01*
X87163220Y-71726961D02*
X87210839Y-71536485D01*
X87210839Y-71536485D02*
X87210839Y-71203152D01*
X87210839Y-71203152D02*
X87163220Y-71012676D01*
X87163220Y-71012676D02*
X87067982Y-70917438D01*
X87067982Y-70917438D02*
X86972744Y-70869819D01*
X86115601Y-70869819D02*
X86115601Y-71679342D01*
X86115601Y-71679342D02*
X86067982Y-71774580D01*
X86067982Y-71774580D02*
X86020363Y-71822200D01*
X86020363Y-71822200D02*
X85925125Y-71869819D01*
X85925125Y-71869819D02*
X85734649Y-71869819D01*
X85734649Y-71869819D02*
X85639411Y-71822200D01*
X85639411Y-71822200D02*
X85591792Y-71774580D01*
X85591792Y-71774580D02*
X85544173Y-71679342D01*
X85544173Y-71679342D02*
X85544173Y-70869819D01*
X85210839Y-70869819D02*
X84639411Y-70869819D01*
X84925125Y-71869819D02*
X84925125Y-70869819D01*
X92454819Y-85833333D02*
X91978628Y-85500000D01*
X92454819Y-85261905D02*
X91454819Y-85261905D01*
X91454819Y-85261905D02*
X91454819Y-85642857D01*
X91454819Y-85642857D02*
X91502438Y-85738095D01*
X91502438Y-85738095D02*
X91550057Y-85785714D01*
X91550057Y-85785714D02*
X91645295Y-85833333D01*
X91645295Y-85833333D02*
X91788152Y-85833333D01*
X91788152Y-85833333D02*
X91883390Y-85785714D01*
X91883390Y-85785714D02*
X91931009Y-85738095D01*
X91931009Y-85738095D02*
X91978628Y-85642857D01*
X91978628Y-85642857D02*
X91978628Y-85261905D01*
X91454819Y-86738095D02*
X91454819Y-86261905D01*
X91454819Y-86261905D02*
X91931009Y-86214286D01*
X91931009Y-86214286D02*
X91883390Y-86261905D01*
X91883390Y-86261905D02*
X91835771Y-86357143D01*
X91835771Y-86357143D02*
X91835771Y-86595238D01*
X91835771Y-86595238D02*
X91883390Y-86690476D01*
X91883390Y-86690476D02*
X91931009Y-86738095D01*
X91931009Y-86738095D02*
X92026247Y-86785714D01*
X92026247Y-86785714D02*
X92264342Y-86785714D01*
X92264342Y-86785714D02*
X92359580Y-86738095D01*
X92359580Y-86738095D02*
X92407200Y-86690476D01*
X92407200Y-86690476D02*
X92454819Y-86595238D01*
X92454819Y-86595238D02*
X92454819Y-86357143D01*
X92454819Y-86357143D02*
X92407200Y-86261905D01*
X92407200Y-86261905D02*
X92359580Y-86214286D01*
X79024819Y-90745833D02*
X78548628Y-90412500D01*
X79024819Y-90174405D02*
X78024819Y-90174405D01*
X78024819Y-90174405D02*
X78024819Y-90555357D01*
X78024819Y-90555357D02*
X78072438Y-90650595D01*
X78072438Y-90650595D02*
X78120057Y-90698214D01*
X78120057Y-90698214D02*
X78215295Y-90745833D01*
X78215295Y-90745833D02*
X78358152Y-90745833D01*
X78358152Y-90745833D02*
X78453390Y-90698214D01*
X78453390Y-90698214D02*
X78501009Y-90650595D01*
X78501009Y-90650595D02*
X78548628Y-90555357D01*
X78548628Y-90555357D02*
X78548628Y-90174405D01*
X78024819Y-91079167D02*
X78024819Y-91698214D01*
X78024819Y-91698214D02*
X78405771Y-91364881D01*
X78405771Y-91364881D02*
X78405771Y-91507738D01*
X78405771Y-91507738D02*
X78453390Y-91602976D01*
X78453390Y-91602976D02*
X78501009Y-91650595D01*
X78501009Y-91650595D02*
X78596247Y-91698214D01*
X78596247Y-91698214D02*
X78834342Y-91698214D01*
X78834342Y-91698214D02*
X78929580Y-91650595D01*
X78929580Y-91650595D02*
X78977200Y-91602976D01*
X78977200Y-91602976D02*
X79024819Y-91507738D01*
X79024819Y-91507738D02*
X79024819Y-91222024D01*
X79024819Y-91222024D02*
X78977200Y-91126786D01*
X78977200Y-91126786D02*
X78929580Y-91079167D01*
X91595238Y-100650057D02*
X91690476Y-100602438D01*
X91690476Y-100602438D02*
X91785714Y-100507200D01*
X91785714Y-100507200D02*
X91928571Y-100364342D01*
X91928571Y-100364342D02*
X92023809Y-100316723D01*
X92023809Y-100316723D02*
X92119047Y-100316723D01*
X92071428Y-100554819D02*
X92166666Y-100507200D01*
X92166666Y-100507200D02*
X92261904Y-100411961D01*
X92261904Y-100411961D02*
X92309523Y-100221485D01*
X92309523Y-100221485D02*
X92309523Y-99888152D01*
X92309523Y-99888152D02*
X92261904Y-99697676D01*
X92261904Y-99697676D02*
X92166666Y-99602438D01*
X92166666Y-99602438D02*
X92071428Y-99554819D01*
X92071428Y-99554819D02*
X91880952Y-99554819D01*
X91880952Y-99554819D02*
X91785714Y-99602438D01*
X91785714Y-99602438D02*
X91690476Y-99697676D01*
X91690476Y-99697676D02*
X91642857Y-99888152D01*
X91642857Y-99888152D02*
X91642857Y-100221485D01*
X91642857Y-100221485D02*
X91690476Y-100411961D01*
X91690476Y-100411961D02*
X91785714Y-100507200D01*
X91785714Y-100507200D02*
X91880952Y-100554819D01*
X91880952Y-100554819D02*
X92071428Y-100554819D01*
X90690476Y-100554819D02*
X91261904Y-100554819D01*
X90976190Y-100554819D02*
X90976190Y-99554819D01*
X90976190Y-99554819D02*
X91071428Y-99697676D01*
X91071428Y-99697676D02*
X91166666Y-99792914D01*
X91166666Y-99792914D02*
X91261904Y-99840533D01*
X83355238Y-81050057D02*
X83450476Y-81002438D01*
X83450476Y-81002438D02*
X83545714Y-80907200D01*
X83545714Y-80907200D02*
X83688571Y-80764342D01*
X83688571Y-80764342D02*
X83783809Y-80716723D01*
X83783809Y-80716723D02*
X83879047Y-80716723D01*
X83831428Y-80954819D02*
X83926666Y-80907200D01*
X83926666Y-80907200D02*
X84021904Y-80811961D01*
X84021904Y-80811961D02*
X84069523Y-80621485D01*
X84069523Y-80621485D02*
X84069523Y-80288152D01*
X84069523Y-80288152D02*
X84021904Y-80097676D01*
X84021904Y-80097676D02*
X83926666Y-80002438D01*
X83926666Y-80002438D02*
X83831428Y-79954819D01*
X83831428Y-79954819D02*
X83640952Y-79954819D01*
X83640952Y-79954819D02*
X83545714Y-80002438D01*
X83545714Y-80002438D02*
X83450476Y-80097676D01*
X83450476Y-80097676D02*
X83402857Y-80288152D01*
X83402857Y-80288152D02*
X83402857Y-80621485D01*
X83402857Y-80621485D02*
X83450476Y-80811961D01*
X83450476Y-80811961D02*
X83545714Y-80907200D01*
X83545714Y-80907200D02*
X83640952Y-80954819D01*
X83640952Y-80954819D02*
X83831428Y-80954819D01*
X83021904Y-80050057D02*
X82974285Y-80002438D01*
X82974285Y-80002438D02*
X82879047Y-79954819D01*
X82879047Y-79954819D02*
X82640952Y-79954819D01*
X82640952Y-79954819D02*
X82545714Y-80002438D01*
X82545714Y-80002438D02*
X82498095Y-80050057D01*
X82498095Y-80050057D02*
X82450476Y-80145295D01*
X82450476Y-80145295D02*
X82450476Y-80240533D01*
X82450476Y-80240533D02*
X82498095Y-80383390D01*
X82498095Y-80383390D02*
X83069523Y-80954819D01*
X83069523Y-80954819D02*
X82450476Y-80954819D01*
X87666666Y-91384819D02*
X87999999Y-90908628D01*
X88238094Y-91384819D02*
X88238094Y-90384819D01*
X88238094Y-90384819D02*
X87857142Y-90384819D01*
X87857142Y-90384819D02*
X87761904Y-90432438D01*
X87761904Y-90432438D02*
X87714285Y-90480057D01*
X87714285Y-90480057D02*
X87666666Y-90575295D01*
X87666666Y-90575295D02*
X87666666Y-90718152D01*
X87666666Y-90718152D02*
X87714285Y-90813390D01*
X87714285Y-90813390D02*
X87761904Y-90861009D01*
X87761904Y-90861009D02*
X87857142Y-90908628D01*
X87857142Y-90908628D02*
X88238094Y-90908628D01*
X86809523Y-90718152D02*
X86809523Y-91384819D01*
X87047618Y-90337200D02*
X87285713Y-91051485D01*
X87285713Y-91051485D02*
X86666666Y-91051485D01*
X94954819Y-99833333D02*
X94478628Y-99500000D01*
X94954819Y-99261905D02*
X93954819Y-99261905D01*
X93954819Y-99261905D02*
X93954819Y-99642857D01*
X93954819Y-99642857D02*
X94002438Y-99738095D01*
X94002438Y-99738095D02*
X94050057Y-99785714D01*
X94050057Y-99785714D02*
X94145295Y-99833333D01*
X94145295Y-99833333D02*
X94288152Y-99833333D01*
X94288152Y-99833333D02*
X94383390Y-99785714D01*
X94383390Y-99785714D02*
X94431009Y-99738095D01*
X94431009Y-99738095D02*
X94478628Y-99642857D01*
X94478628Y-99642857D02*
X94478628Y-99261905D01*
X94954819Y-100785714D02*
X94954819Y-100214286D01*
X94954819Y-100500000D02*
X93954819Y-100500000D01*
X93954819Y-100500000D02*
X94097676Y-100404762D01*
X94097676Y-100404762D02*
X94192914Y-100309524D01*
X94192914Y-100309524D02*
X94240533Y-100214286D01*
X99761904Y-90454819D02*
X99761904Y-91264342D01*
X99761904Y-91264342D02*
X99714285Y-91359580D01*
X99714285Y-91359580D02*
X99666666Y-91407200D01*
X99666666Y-91407200D02*
X99571428Y-91454819D01*
X99571428Y-91454819D02*
X99380952Y-91454819D01*
X99380952Y-91454819D02*
X99285714Y-91407200D01*
X99285714Y-91407200D02*
X99238095Y-91359580D01*
X99238095Y-91359580D02*
X99190476Y-91264342D01*
X99190476Y-91264342D02*
X99190476Y-90454819D01*
X98190476Y-91454819D02*
X98761904Y-91454819D01*
X98476190Y-91454819D02*
X98476190Y-90454819D01*
X98476190Y-90454819D02*
X98571428Y-90597676D01*
X98571428Y-90597676D02*
X98666666Y-90692914D01*
X98666666Y-90692914D02*
X98761904Y-90740533D01*
X67666666Y-103609580D02*
X67714285Y-103657200D01*
X67714285Y-103657200D02*
X67857142Y-103704819D01*
X67857142Y-103704819D02*
X67952380Y-103704819D01*
X67952380Y-103704819D02*
X68095237Y-103657200D01*
X68095237Y-103657200D02*
X68190475Y-103561961D01*
X68190475Y-103561961D02*
X68238094Y-103466723D01*
X68238094Y-103466723D02*
X68285713Y-103276247D01*
X68285713Y-103276247D02*
X68285713Y-103133390D01*
X68285713Y-103133390D02*
X68238094Y-102942914D01*
X68238094Y-102942914D02*
X68190475Y-102847676D01*
X68190475Y-102847676D02*
X68095237Y-102752438D01*
X68095237Y-102752438D02*
X67952380Y-102704819D01*
X67952380Y-102704819D02*
X67857142Y-102704819D01*
X67857142Y-102704819D02*
X67714285Y-102752438D01*
X67714285Y-102752438D02*
X67666666Y-102800057D01*
X66714285Y-103704819D02*
X67285713Y-103704819D01*
X66999999Y-103704819D02*
X66999999Y-102704819D01*
X66999999Y-102704819D02*
X67095237Y-102847676D01*
X67095237Y-102847676D02*
X67190475Y-102942914D01*
X67190475Y-102942914D02*
X67285713Y-102990533D01*
D11*
%TO.C,R5*%
X89977500Y-85745276D02*
X89977500Y-86254724D01*
X91022500Y-85745276D02*
X91022500Y-86254724D01*
%TO.C,R3*%
X79477500Y-90657776D02*
X79477500Y-91167224D01*
X80522500Y-90657776D02*
X80522500Y-91167224D01*
%TO.C,Q1*%
X91500000Y-100939999D02*
X90850000Y-100940000D01*
X91500000Y-100939999D02*
X92150000Y-100940000D01*
X91500000Y-104060001D02*
X90850000Y-104060000D01*
X91500000Y-104060001D02*
X92150000Y-104060000D01*
X92662500Y-100990000D02*
X92422500Y-100660001D01*
X92902500Y-100660000D01*
X92662500Y-100990000D01*
G36*
X92662500Y-100990000D02*
G01*
X92422500Y-100660001D01*
X92902500Y-100660000D01*
X92662500Y-100990000D01*
G37*
%TO.C,Q2*%
X80150000Y-81550000D02*
X86570000Y-81550000D01*
X80150000Y-88450000D02*
X86570000Y-88450000D01*
X86570000Y-81550000D02*
X86570000Y-81820000D01*
X86570000Y-88450000D02*
X86570000Y-88180000D01*
X88300000Y-81860000D02*
X87960000Y-81390000D01*
X88640000Y-81390000D01*
X88300000Y-81860000D01*
G36*
X88300000Y-81860000D02*
G01*
X87960000Y-81390000D01*
X88640000Y-81390000D01*
X88300000Y-81860000D01*
G37*
%TO.C,R4*%
X87245276Y-88977500D02*
X87754724Y-88977500D01*
X87245276Y-90022500D02*
X87754724Y-90022500D01*
%TO.C,R1*%
X93977500Y-102245276D02*
X93977500Y-102754724D01*
X95022500Y-102245276D02*
X95022500Y-102754724D01*
%TO.C,U1*%
X101200000Y-90440000D02*
X102000000Y-90439999D01*
X101200000Y-93560000D02*
X102000000Y-93560001D01*
X102800000Y-90440000D02*
X102000000Y-90439999D01*
X102800000Y-93560000D02*
X102000000Y-93560001D01*
X100940000Y-93840000D02*
X100460000Y-93840000D01*
X100700000Y-93510000D01*
X100940000Y-93840000D01*
G36*
X100940000Y-93840000D02*
G01*
X100460000Y-93840000D01*
X100700000Y-93510000D01*
X100940000Y-93840000D01*
G37*
%TO.C,C1*%
X65015000Y-100565000D02*
X69100000Y-100565000D01*
X65015000Y-102435000D02*
X65015000Y-100565000D01*
X69100000Y-102435000D02*
X65015000Y-102435000D01*
%TD*%
M02*
