%TF.GenerationSoftware,KiCad,Pcbnew,9.0.1*%
%TF.CreationDate,2025-04-26T14:19:40+02:00*%
%TF.ProjectId,pwr_sply,7077725f-7370-46c7-992e-6b696361645f,rev?*%
%TF.SameCoordinates,Original*%
%TF.FileFunction,Copper,L1,Top*%
%TF.FilePolarity,Positive*%
%FSLAX46Y46*%
G04 Gerber Fmt 4.6, Leading zero omitted, Abs format (unit mm)*
G04 Created by KiCad (PCBNEW 9.0.1) date 2025-04-26 14:19:40*
%MOMM*%
%LPD*%
G01*
G04 APERTURE LIST*
G04 Aperture macros list*
%AMRoundRect*
0 Rectangle with rounded corners*
0 $1 Rounding radius*
0 $2 $3 $4 $5 $6 $7 $8 $9 X,Y pos of 4 corners*
0 Add a 4 corners polygon primitive as box body*
4,1,4,$2,$3,$4,$5,$6,$7,$8,$9,$2,$3,0*
0 Add four circle primitives for the rounded corners*
1,1,$1+$1,$2,$3*
1,1,$1+$1,$4,$5*
1,1,$1+$1,$6,$7*
1,1,$1+$1,$8,$9*
0 Add four rect primitives between the rounded corners*
20,1,$1+$1,$2,$3,$4,$5,0*
20,1,$1+$1,$4,$5,$6,$7,0*
20,1,$1+$1,$6,$7,$8,$9,0*
20,1,$1+$1,$8,$9,$2,$3,0*%
G04 Aperture macros list end*
%TA.AperFunction,ComponentPad*%
%ADD10R,1.800000X1.800000*%
%TD*%
%TA.AperFunction,ComponentPad*%
%ADD11C,1.800000*%
%TD*%
%TA.AperFunction,ComponentPad*%
%ADD12R,2.500000X2.500000*%
%TD*%
%TA.AperFunction,ComponentPad*%
%ADD13C,2.500000*%
%TD*%
%TA.AperFunction,ComponentPad*%
%ADD14RoundRect,0.250000X0.625000X-0.350000X0.625000X0.350000X-0.625000X0.350000X-0.625000X-0.350000X0*%
%TD*%
%TA.AperFunction,ComponentPad*%
%ADD15O,1.750000X1.200000*%
%TD*%
%TA.AperFunction,SMDPad,CuDef*%
%ADD16R,2.030000X1.500000*%
%TD*%
%TA.AperFunction,ViaPad*%
%ADD17C,1.200000*%
%TD*%
%TA.AperFunction,Conductor*%
%ADD18C,1.000000*%
%TD*%
%TA.AperFunction,Conductor*%
%ADD19C,2.000000*%
%TD*%
G04 APERTURE END LIST*
D10*
%TO.P,S2,1,OUT1*%
%TO.N,LINE*%
X92100000Y-84840000D03*
D11*
%TO.P,S2,2,OUT2*%
%TO.N,/pwr_out*%
X92100000Y-92460000D03*
%TO.P,S2,3,IN+*%
%TO.N,VCC*%
X92100000Y-102620000D03*
%TO.P,S2,4,IN-*%
%TO.N,Net-(D1-A)*%
X92100000Y-105160000D03*
%TD*%
D10*
%TO.P,S1,1,OUT1*%
%TO.N,LINE*%
X86050000Y-84840000D03*
D11*
%TO.P,S1,2,OUT2*%
%TO.N,/pwr_out*%
X86050000Y-92460000D03*
%TO.P,S1,3,IN+*%
%TO.N,VCC*%
X86050000Y-102620000D03*
%TO.P,S1,4,IN-*%
%TO.N,Net-(D1-A)*%
X86050000Y-105160000D03*
%TD*%
D12*
%TO.P,J1,1,Pin_1*%
%TO.N,/pwr_out*%
X85750000Y-75000000D03*
D13*
%TO.P,J1,2,Pin_2*%
%TO.N,NEUT*%
X93250000Y-75000000D03*
%TO.P,J1,3,Pin_3*%
%TO.N,LINE*%
X100750000Y-75000000D03*
%TD*%
D14*
%TO.P,J2,1,Pin_1*%
%TO.N,+3.3V*%
X101500000Y-105000000D03*
D15*
%TO.P,J2,2,Pin_2*%
%TO.N,GND*%
X101500000Y-103000000D03*
%TO.P,J2,3,Pin_3*%
%TO.N,/pwr_en*%
X101500000Y-101000000D03*
%TD*%
D16*
%TO.P,PS1,1,AC/L*%
%TO.N,LINE*%
X51400000Y-73510000D03*
%TO.P,PS1,3,AC/N*%
%TO.N,NEUT*%
X51400000Y-78590000D03*
%TO.P,PS1,5*%
%TO.N,N/C*%
X51400000Y-83670000D03*
%TO.P,PS1,10*%
X51400000Y-96370000D03*
%TO.P,PS1,11*%
X51400000Y-98910000D03*
%TO.P,PS1,12*%
X51400000Y-101450000D03*
%TO.P,PS1,13*%
X51400000Y-103990000D03*
%TO.P,PS1,14,-Vo*%
%TO.N,GND*%
X80100000Y-103990000D03*
%TO.P,PS1,15*%
%TO.N,N/C*%
X80100000Y-101450000D03*
%TO.P,PS1,16,+Vo*%
%TO.N,VCC*%
X80100000Y-98910000D03*
%TO.P,PS1,17*%
%TO.N,N/C*%
X80100000Y-96370000D03*
%TO.P,PS1,22*%
X80100000Y-83670000D03*
%TO.P,PS1,24*%
X80100000Y-78590000D03*
%TO.P,PS1,26*%
X80100000Y-73510000D03*
%TD*%
D17*
%TO.N,VCC*%
X74500000Y-97500000D03*
%TO.N,GND*%
X74500000Y-104750000D03*
%TD*%
D18*
%TO.N,VCC*%
X80100000Y-98910000D02*
X75910000Y-98910000D01*
X75910000Y-98910000D02*
X74500000Y-97500000D01*
%TO.N,GND*%
X80100000Y-103990000D02*
X75260000Y-103990000D01*
X75260000Y-103990000D02*
X74500000Y-104750000D01*
D19*
%TO.N,NEUT*%
X51400000Y-78590000D02*
X54150000Y-81340000D01*
X54150000Y-81340000D02*
X86910000Y-81340000D01*
X86910000Y-81340000D02*
X93250000Y-75000000D01*
%TO.N,LINE*%
X86050000Y-84840000D02*
X92100000Y-84840000D01*
X97010000Y-71260000D02*
X100750000Y-75000000D01*
X92100000Y-80039088D02*
X92100000Y-84840000D01*
X51400000Y-73510000D02*
X53650000Y-71260000D01*
X97139088Y-75000000D02*
X92100000Y-80039088D01*
X53650000Y-71260000D02*
X97010000Y-71260000D01*
X100750000Y-75000000D02*
X97139088Y-75000000D01*
%TD*%
M02*
